G04*
G04 #@! TF.GenerationSoftware,Altium Limited,Altium Designer,24.1.2 (44)*
G04*
G04 Layer_Physical_Order=1*
G04 Layer_Color=255*
%FSLAX43Y43*%
%MOMM*%
G71*
G04*
G04 #@! TF.SameCoordinates,A9818493-9DB4-4393-B726-FC6D1410B1DB*
G04*
G04*
G04 #@! TF.FilePolarity,Positive*
G04*
G01*
G75*
%ADD11C,0.200*%
%ADD13C,0.254*%
%ADD19R,0.900X0.900*%
%ADD20R,1.500X0.900*%
%ADD21R,0.900X1.500*%
%ADD22R,0.370X1.170*%
%ADD23R,0.900X0.900*%
%ADD24R,1.170X0.370*%
%ADD25R,1.500X2.000*%
%ADD26R,3.800X2.000*%
%ADD27R,1.000X0.850*%
%ADD28R,0.700X0.600*%
%ADD29R,0.600X0.700*%
%ADD30R,1.000X5.000*%
G04:AMPARAMS|DCode=31|XSize=0.6mm|YSize=0.7mm|CornerRadius=0.15mm|HoleSize=0mm|Usage=FLASHONLY|Rotation=90.000|XOffset=0mm|YOffset=0mm|HoleType=Round|Shape=RoundedRectangle|*
%AMROUNDEDRECTD31*
21,1,0.600,0.400,0,0,90.0*
21,1,0.300,0.700,0,0,90.0*
1,1,0.300,0.200,0.150*
1,1,0.300,0.200,-0.150*
1,1,0.300,-0.200,-0.150*
1,1,0.300,-0.200,0.150*
%
%ADD31ROUNDEDRECTD31*%
%ADD32R,1.321X1.524*%
%ADD33R,0.600X1.140*%
%ADD34R,0.300X1.140*%
%ADD35R,1.600X1.600*%
G04:AMPARAMS|DCode=36|XSize=1.17mm|YSize=0.37mm|CornerRadius=0.185mm|HoleSize=0mm|Usage=FLASHONLY|Rotation=90.000|XOffset=0mm|YOffset=0mm|HoleType=Round|Shape=RoundedRectangle|*
%AMROUNDEDRECTD36*
21,1,1.170,0.000,0,0,90.0*
21,1,0.800,0.370,0,0,90.0*
1,1,0.370,0.000,0.400*
1,1,0.370,0.000,-0.400*
1,1,0.370,0.000,-0.400*
1,1,0.370,0.000,0.400*
%
%ADD36ROUNDEDRECTD36*%
%ADD37R,1.200X1.200*%
%ADD66R,1.524X4.064*%
%ADD67R,1.016X2.032*%
%ADD68C,0.300*%
%ADD69C,0.500*%
%ADD70C,0.305*%
%ADD71C,0.700*%
%ADD72C,0.250*%
%ADD73C,0.225*%
%ADD74C,1.676*%
%ADD75C,1.300*%
%ADD76C,6.000*%
%ADD77C,0.650*%
%ADD78O,0.900X1.800*%
%ADD79O,1.050X2.100*%
%ADD80R,1.300X1.300*%
%ADD81C,0.500*%
%ADD82C,0.600*%
G36*
X49056Y44093D02*
X49415Y43996D01*
X49760Y43854D01*
X50082Y43668D01*
X50378Y43441D01*
X50641Y43177D01*
X50868Y42882D01*
X51054Y42559D01*
X51196Y42215D01*
X51293Y41855D01*
X51342Y41486D01*
Y41300D01*
Y5200D01*
X50493D01*
X50416Y5327D01*
X50607Y5702D01*
X50765Y6189D01*
X50845Y6694D01*
Y7206D01*
X50765Y7711D01*
X50607Y8198D01*
X50375Y8653D01*
X50074Y9067D01*
X49712Y9429D01*
X49298Y9730D01*
X48843Y9962D01*
X48356Y10120D01*
X47851Y10200D01*
X47339D01*
X46834Y10120D01*
X46347Y9962D01*
X45892Y9730D01*
X45478Y9429D01*
X45116Y9067D01*
X44815Y8653D01*
X44583Y8198D01*
X44425Y7711D01*
X44345Y7206D01*
Y6694D01*
X44425Y6189D01*
X44583Y5702D01*
X44774Y5327D01*
X44696Y5200D01*
X40284D01*
X40206Y5327D01*
X40397Y5702D01*
X40555Y6189D01*
X40635Y6694D01*
Y7206D01*
X40555Y7711D01*
X40397Y8198D01*
X40165Y8653D01*
X39864Y9067D01*
X39502Y9429D01*
X39088Y9730D01*
X38633Y9962D01*
X38146Y10120D01*
X37641Y10200D01*
X37129D01*
X36624Y10120D01*
X36137Y9962D01*
X35682Y9730D01*
X35268Y9429D01*
X34906Y9067D01*
X34605Y8653D01*
X34373Y8198D01*
X34215Y7711D01*
X34135Y7206D01*
Y6694D01*
X34215Y6189D01*
X34373Y5702D01*
X34564Y5327D01*
X34487Y5200D01*
X28903D01*
X28826Y5327D01*
X29017Y5702D01*
X29175Y6189D01*
X29255Y6694D01*
Y7206D01*
X29175Y7711D01*
X29017Y8198D01*
X28785Y8653D01*
X28484Y9067D01*
X28122Y9429D01*
X27708Y9730D01*
X27253Y9962D01*
X26766Y10120D01*
X26261Y10200D01*
X25749D01*
X25244Y10120D01*
X24757Y9962D01*
X24302Y9730D01*
X23888Y9429D01*
X23526Y9067D01*
X23225Y8653D01*
X23094Y8396D01*
X22979Y8449D01*
X23000Y8501D01*
Y8699D01*
X22924Y8883D01*
X22783Y9024D01*
X22599Y9100D01*
X22401D01*
X22217Y9024D01*
X22076Y8883D01*
X22040Y8795D01*
X21883Y8748D01*
X21857Y8765D01*
Y10997D01*
X22878Y12019D01*
X22935Y11986D01*
X23212Y11912D01*
X23498D01*
X23775Y11986D01*
X24023Y12129D01*
X24226Y12332D01*
X24369Y12580D01*
X24443Y12857D01*
Y13143D01*
X24369Y13420D01*
X24226Y13668D01*
X24023Y13871D01*
X23775Y14014D01*
X23498Y14088D01*
X23212D01*
X22935Y14014D01*
X22687Y13871D01*
X22484Y13668D01*
X22341Y13420D01*
X22267Y13143D01*
Y12857D01*
X22341Y12580D01*
X22374Y12523D01*
X21248Y11397D01*
X21170Y11282D01*
X21143Y11145D01*
Y8650D01*
X21076Y8583D01*
X21000Y8399D01*
Y8201D01*
X21076Y8017D01*
X21217Y7876D01*
X21401Y7800D01*
X21599D01*
X21783Y7876D01*
X21924Y8017D01*
X22000Y8201D01*
Y8213D01*
X22127Y8266D01*
X22217Y8176D01*
X22401Y8100D01*
X22599D01*
X22783Y8176D01*
X22898Y8291D01*
X23002Y8216D01*
X22993Y8198D01*
X22835Y7711D01*
X22755Y7206D01*
Y6694D01*
X22835Y6189D01*
X22993Y5702D01*
X23184Y5327D01*
X23106Y5200D01*
X17494D01*
X17416Y5327D01*
X17550Y5590D01*
X17597Y5600D01*
X17696Y5597D01*
X17817Y5476D01*
X18001Y5400D01*
X18199D01*
X18383Y5476D01*
X18524Y5617D01*
X18600Y5801D01*
Y5999D01*
X18524Y6183D01*
X18383Y6324D01*
X18199Y6400D01*
X18001D01*
X17922Y6367D01*
X17808Y6458D01*
X17845Y6694D01*
Y7206D01*
X17765Y7711D01*
X17607Y8198D01*
X17375Y8653D01*
X17074Y9067D01*
X16712Y9429D01*
X16298Y9730D01*
X15843Y9962D01*
X15356Y10120D01*
X14851Y10200D01*
X14339D01*
X13834Y10120D01*
X13347Y9962D01*
X12892Y9730D01*
X12478Y9429D01*
X12116Y9067D01*
X11815Y8653D01*
X11583Y8198D01*
X11425Y7711D01*
X11345Y7206D01*
Y6694D01*
X11425Y6189D01*
X11438Y6149D01*
X11327Y6080D01*
X11283Y6124D01*
X11099Y6200D01*
X10901D01*
X10717Y6124D01*
X10576Y5983D01*
X10500Y5799D01*
Y5601D01*
X10576Y5417D01*
X10666Y5327D01*
X10613Y5200D01*
X7253D01*
X7176Y5327D01*
X7367Y5702D01*
X7525Y6189D01*
X7605Y6694D01*
Y6825D01*
X4480D01*
Y5235D01*
X6710D01*
Y4706D01*
X6835Y4654D01*
Y259D01*
X6710D01*
Y-40D01*
X2100D01*
Y439D01*
X1985Y486D01*
Y4558D01*
X2100Y4605D01*
Y5235D01*
X4230D01*
Y6825D01*
X1105D01*
Y6694D01*
X1185Y6189D01*
X1343Y5702D01*
X1534Y5327D01*
X1456Y5200D01*
X485D01*
Y2371D01*
X358Y2355D01*
X307Y2544D01*
X258Y2914D01*
Y3100D01*
X258Y41386D01*
X259Y41394D01*
X259Y41403D01*
X261Y41412D01*
X268Y41593D01*
X328Y41951D01*
X434Y42299D01*
X582Y42630D01*
X772Y42939D01*
X1000Y43222D01*
X1261Y43474D01*
X1553Y43690D01*
X1870Y43868D01*
X2207Y44003D01*
X2558Y44095D01*
X2918Y44141D01*
X41248D01*
Y42493D01*
X43272D01*
Y44141D01*
X46328D01*
Y42493D01*
X48352D01*
Y44141D01*
X48686D01*
X49056Y44093D01*
D02*
G37*
G36*
X39710Y-40D02*
X35100D01*
Y5235D01*
X39710D01*
Y-40D01*
D02*
G37*
G36*
X16920Y5235D02*
Y-40D01*
X12310D01*
Y5235D01*
X16920D01*
D02*
G37*
G36*
X28300Y-40D02*
X23690D01*
Y5235D01*
X28300D01*
Y-40D01*
D02*
G37*
G36*
X49950D02*
X45340D01*
Y5235D01*
X49950D01*
Y-40D01*
D02*
G37*
%LPC*%
G36*
X37650Y43400D02*
X36925D01*
Y42675D01*
X37650D01*
Y43400D01*
D02*
G37*
G36*
X36675D02*
X35950D01*
Y42675D01*
X36675D01*
Y43400D01*
D02*
G37*
G36*
X37650Y42425D02*
X36925D01*
Y41700D01*
X37650D01*
Y42425D01*
D02*
G37*
G36*
X36675D02*
X35950D01*
Y41700D01*
X36675D01*
Y42425D01*
D02*
G37*
G36*
X38799Y43700D02*
X38601D01*
X38417Y43624D01*
X38276Y43483D01*
X38200Y43299D01*
Y43101D01*
X38230Y43027D01*
X38146Y42900D01*
X38000D01*
Y41500D01*
X39400D01*
Y42900D01*
X39254D01*
X39170Y43027D01*
X39200Y43101D01*
Y43299D01*
X39124Y43483D01*
X38983Y43624D01*
X38799Y43700D01*
D02*
G37*
G36*
X39400Y41300D02*
X38000D01*
Y40882D01*
X37650D01*
Y41300D01*
X35950D01*
Y39600D01*
X37650D01*
Y40118D01*
X38000D01*
Y39900D01*
X39400D01*
Y41300D01*
D02*
G37*
G36*
X34420Y42756D02*
X34237Y42732D01*
X34067Y42661D01*
X33921Y42549D01*
X33809Y42403D01*
X33738Y42233D01*
X33714Y42050D01*
Y41150D01*
X33738Y40967D01*
X33809Y40797D01*
X33921Y40651D01*
X34067Y40539D01*
X34237Y40468D01*
X34420Y40444D01*
X34603Y40468D01*
X34773Y40539D01*
X34919Y40651D01*
X35031Y40797D01*
X35102Y40967D01*
X35126Y41150D01*
Y42050D01*
X35102Y42233D01*
X35031Y42403D01*
X34919Y42549D01*
X34773Y42661D01*
X34603Y42732D01*
X34420Y42756D01*
D02*
G37*
G36*
X25780D02*
X25597Y42732D01*
X25427Y42661D01*
X25281Y42549D01*
X25169Y42403D01*
X25098Y42233D01*
X25074Y42050D01*
Y41150D01*
X25098Y40967D01*
X25169Y40797D01*
X25281Y40651D01*
X25427Y40539D01*
X25597Y40468D01*
X25780Y40444D01*
X25963Y40468D01*
X26133Y40539D01*
X26279Y40651D01*
X26391Y40797D01*
X26462Y40967D01*
X26486Y41150D01*
Y42050D01*
X26462Y42233D01*
X26391Y42403D01*
X26279Y42549D01*
X26133Y42661D01*
X25963Y42732D01*
X25780Y42756D01*
D02*
G37*
G36*
X48352Y42243D02*
X47465D01*
Y40086D01*
X48352D01*
Y42243D01*
D02*
G37*
G36*
X47215D02*
X46328D01*
Y40086D01*
X47215D01*
Y42243D01*
D02*
G37*
G36*
X43272D02*
X42385D01*
Y40086D01*
X43272D01*
Y42243D01*
D02*
G37*
G36*
X42135D02*
X41248D01*
Y40086D01*
X42135D01*
Y42243D01*
D02*
G37*
G36*
X28700Y39284D02*
X28700Y39284D01*
X24900D01*
X24900Y39284D01*
X24753Y39255D01*
X24628Y39172D01*
X23928Y38472D01*
X23845Y38347D01*
X23816Y38200D01*
X23816Y38200D01*
Y37013D01*
X23776Y36973D01*
X23700Y36790D01*
Y36591D01*
X23776Y36407D01*
X23818Y36365D01*
X23776Y36323D01*
X23700Y36140D01*
Y35941D01*
X23776Y35757D01*
X23917Y35616D01*
X24101Y35540D01*
X24123D01*
X25152Y34512D01*
X25152Y34512D01*
X25279Y34427D01*
X25280Y34417D01*
X25240Y34300D01*
X24500D01*
Y32900D01*
X24690D01*
Y32750D01*
X23700D01*
Y30471D01*
X23583Y30422D01*
X23152Y30852D01*
X23037Y30930D01*
X22900Y30957D01*
X22625D01*
Y32400D01*
Y33670D01*
Y35050D01*
X22752Y35075D01*
X22776Y35017D01*
X22917Y34876D01*
X23101Y34800D01*
X23299D01*
X23483Y34876D01*
X23624Y35017D01*
X23700Y35201D01*
Y35399D01*
X23624Y35583D01*
X23483Y35724D01*
X23299Y35800D01*
X23205D01*
X23112Y35892D01*
X22997Y35970D01*
X22860Y35997D01*
X22625D01*
Y36785D01*
X20625D01*
Y36210D01*
Y34857D01*
X20450D01*
X20383Y34924D01*
X20199Y35000D01*
X20001D01*
X19817Y34924D01*
X19676Y34783D01*
X19600Y34599D01*
Y34401D01*
X19676Y34217D01*
X19817Y34076D01*
X20001Y34000D01*
X20199D01*
X20383Y34076D01*
X20450Y34143D01*
X20625D01*
Y33670D01*
Y32400D01*
Y31130D01*
Y29860D01*
Y28590D01*
Y27320D01*
Y26050D01*
Y24757D01*
X20250D01*
X20183Y24824D01*
X19999Y24900D01*
X19801D01*
X19617Y24824D01*
X19476Y24683D01*
X19400Y24499D01*
Y24301D01*
X19476Y24117D01*
X19617Y23976D01*
X19801Y23900D01*
X19999D01*
X20183Y23976D01*
X20250Y24043D01*
X20625D01*
Y23510D01*
Y22240D01*
Y20970D01*
Y20250D01*
X20560Y20150D01*
X20498Y20150D01*
X18957D01*
Y20350D01*
X19024Y20417D01*
X19100Y20601D01*
Y20799D01*
X19024Y20983D01*
X18883Y21124D01*
X18699Y21200D01*
X18501D01*
X18317Y21124D01*
X18176Y20983D01*
X18169Y20965D01*
X18031D01*
X18024Y20983D01*
X17883Y21124D01*
X17699Y21200D01*
X17501D01*
X17317Y21124D01*
X17176Y20983D01*
X17100Y20799D01*
Y20601D01*
X17176Y20417D01*
X17243Y20350D01*
Y20150D01*
X16757D01*
Y20865D01*
X16783Y20876D01*
X16924Y21017D01*
X17000Y21201D01*
Y21399D01*
X16924Y21583D01*
X16783Y21724D01*
X16599Y21800D01*
X16401D01*
X16217Y21724D01*
X16076Y21583D01*
X16000Y21399D01*
Y21201D01*
X16043Y21096D01*
Y20150D01*
X15184D01*
Y21141D01*
X15344Y21300D01*
X15399D01*
X15583Y21376D01*
X15724Y21517D01*
X15800Y21701D01*
Y21899D01*
X15724Y22083D01*
X15583Y22224D01*
X15399Y22300D01*
X15201D01*
X15017Y22224D01*
X14876Y22083D01*
X14800Y21899D01*
Y21844D01*
X14528Y21572D01*
X14445Y21447D01*
X14416Y21300D01*
X14416Y21300D01*
Y20150D01*
X13857D01*
Y20550D01*
X13924Y20617D01*
X14000Y20801D01*
Y20999D01*
X13924Y21183D01*
X13783Y21324D01*
X13599Y21400D01*
X13401D01*
X13217Y21324D01*
X13076Y21183D01*
X13000Y20999D01*
Y20801D01*
X13076Y20617D01*
X13143Y20550D01*
Y20150D01*
X10057D01*
Y21650D01*
X10124Y21717D01*
X10200Y21901D01*
Y22099D01*
X10124Y22283D01*
X9983Y22424D01*
X9799Y22500D01*
X9601D01*
X9417Y22424D01*
X9276Y22283D01*
X9200Y22099D01*
Y21901D01*
X9276Y21717D01*
X9343Y21650D01*
Y20150D01*
X5288D01*
X5230Y20221D01*
X5213Y20277D01*
X5234Y20316D01*
X6900D01*
X6900Y20316D01*
X7047Y20345D01*
X7172Y20428D01*
X11173Y24429D01*
X11300Y24377D01*
Y24301D01*
X11376Y24117D01*
X11517Y23976D01*
X11701Y23900D01*
X11899D01*
X12083Y23976D01*
X12224Y24117D01*
X12300Y24301D01*
Y24499D01*
X12224Y24683D01*
X12083Y24824D01*
X11899Y24900D01*
X11823D01*
X11771Y25027D01*
X12009Y25266D01*
X14668D01*
X14668Y25266D01*
X14815Y25295D01*
X14940Y25378D01*
X16047Y26485D01*
X16130Y26610D01*
X16159Y26757D01*
X16159Y26757D01*
Y27077D01*
X16199Y27117D01*
X16275Y27301D01*
Y27499D01*
X16199Y27683D01*
X16058Y27824D01*
X15874Y27900D01*
X15676D01*
X15492Y27824D01*
X15450Y27782D01*
X15408Y27824D01*
X15224Y27900D01*
X15026D01*
X14842Y27824D01*
X14701Y27683D01*
X14625Y27499D01*
Y27301D01*
X14701Y27117D01*
X14694Y26970D01*
X14289Y26565D01*
X11380D01*
X11233Y26535D01*
X11109Y26452D01*
X11109Y26452D01*
X9920Y25264D01*
X9824Y25283D01*
X9683Y25424D01*
X9499Y25500D01*
X9301D01*
X9117Y25424D01*
X8976Y25283D01*
X8900Y25099D01*
Y25005D01*
X8452Y24557D01*
X5125D01*
Y25143D01*
X6800D01*
X6937Y25170D01*
X7052Y25248D01*
X7305Y25500D01*
X7399D01*
X7583Y25576D01*
X7724Y25717D01*
X7800Y25901D01*
Y26099D01*
X7724Y26283D01*
X7657Y26350D01*
X7724Y26417D01*
X7800Y26601D01*
Y26799D01*
X7724Y26983D01*
X7583Y27124D01*
X7399Y27200D01*
X7201D01*
X7096Y27157D01*
X5125D01*
Y27643D01*
X6950D01*
X7017Y27576D01*
X7201Y27500D01*
X7399D01*
X7583Y27576D01*
X7724Y27717D01*
X7800Y27901D01*
Y28099D01*
X7724Y28283D01*
X7583Y28424D01*
X7399Y28500D01*
X7201D01*
X7017Y28424D01*
X6950Y28357D01*
X5125D01*
Y28943D01*
X6865D01*
X6876Y28917D01*
X7017Y28776D01*
X7201Y28700D01*
X7399D01*
X7583Y28776D01*
X7724Y28917D01*
X7800Y29101D01*
Y29299D01*
X7724Y29483D01*
X7583Y29624D01*
X7399Y29700D01*
X7201D01*
X7096Y29657D01*
X5125D01*
Y30243D01*
X6950D01*
X7017Y30176D01*
X7201Y30100D01*
X7399D01*
X7583Y30176D01*
X7724Y30317D01*
X7800Y30501D01*
Y30699D01*
X7724Y30883D01*
X7583Y31024D01*
X7399Y31100D01*
X7201D01*
X7017Y31024D01*
X6950Y30957D01*
X5125D01*
Y31443D01*
X6896D01*
X7001Y31400D01*
X7199D01*
X7383Y31476D01*
X7524Y31617D01*
X7600Y31801D01*
Y31999D01*
X7524Y32183D01*
X7383Y32324D01*
X7199Y32400D01*
X7090D01*
X7065Y32527D01*
X7183Y32576D01*
X7324Y32717D01*
X7400Y32901D01*
Y33099D01*
X7324Y33283D01*
X7183Y33424D01*
X6999Y33500D01*
X6801D01*
X6617Y33424D01*
X6550Y33357D01*
X5125D01*
Y33670D01*
Y35130D01*
X5640D01*
X5835Y35169D01*
X6000Y35280D01*
X6610Y35890D01*
X6638Y35931D01*
X6674Y35967D01*
X6693Y36013D01*
X6721Y36055D01*
X6731Y36104D01*
X6750Y36151D01*
Y36201D01*
X6760Y36250D01*
X6750Y36299D01*
Y36349D01*
X6731Y36396D01*
X6721Y36445D01*
X6693Y36487D01*
X6674Y36533D01*
X6638Y36569D01*
X6610Y36610D01*
X6569Y36638D01*
X6533Y36674D01*
X6487Y36693D01*
X6445Y36721D01*
X6396Y36731D01*
X6349Y36750D01*
X6299D01*
X6250Y36760D01*
X6201Y36750D01*
X6151D01*
X6104Y36731D01*
X6055Y36721D01*
X6013Y36693D01*
X5967Y36674D01*
X5931Y36638D01*
X5890Y36610D01*
X5429Y36150D01*
X5125D01*
Y36785D01*
X3125D01*
Y36237D01*
X2652D01*
Y36243D01*
X1252D01*
Y34843D01*
X1275D01*
Y33800D01*
X2410D01*
X2470Y33680D01*
X2418Y33600D01*
X2100D01*
Y32900D01*
Y32200D01*
X2421D01*
Y28198D01*
X2327Y28104D01*
X2200Y28156D01*
Y29150D01*
X2010D01*
Y29500D01*
X2000Y29549D01*
Y29599D01*
X1981Y29646D01*
X1971Y29695D01*
X1943Y29737D01*
X1924Y29783D01*
X1888Y29819D01*
X1860Y29860D01*
X1819Y29888D01*
X1783Y29924D01*
X1737Y29943D01*
X1695Y29971D01*
X1646Y29981D01*
X1599Y30000D01*
X1549D01*
X1500Y30010D01*
X1451Y30000D01*
X1401D01*
X1354Y29981D01*
X1305Y29971D01*
X1263Y29943D01*
X1217Y29924D01*
X1181Y29888D01*
X1140Y29860D01*
X1112Y29819D01*
X1076Y29783D01*
X1057Y29737D01*
X1029Y29695D01*
X1019Y29646D01*
X1000Y29599D01*
Y29549D01*
X990Y29500D01*
Y28650D01*
X1000Y28602D01*
Y28050D01*
Y27050D01*
X1192D01*
Y26650D01*
X1000D01*
Y25550D01*
Y25225D01*
X1600D01*
X2200D01*
Y25550D01*
Y26650D01*
X2008D01*
Y27050D01*
X2200D01*
Y27192D01*
X2400D01*
X2400Y27192D01*
X2556Y27223D01*
X2688Y27312D01*
X2998Y27622D01*
X3125Y27569D01*
Y26050D01*
Y24780D01*
Y23510D01*
Y22240D01*
Y20970D01*
Y19700D01*
X5063D01*
X5125Y19700D01*
X5190Y19600D01*
Y18150D01*
X7723D01*
Y17750D01*
X7700D01*
Y16650D01*
Y15650D01*
X7748D01*
X7819Y15544D01*
X7800Y15499D01*
Y15301D01*
X7876Y15117D01*
X8017Y14976D01*
X8201Y14900D01*
X8399D01*
X8583Y14976D01*
X8724Y15117D01*
X8800Y15301D01*
Y15499D01*
X8795Y15512D01*
X8869Y15623D01*
X8931D01*
X9005Y15512D01*
X9000Y15499D01*
Y15301D01*
X9076Y15117D01*
X9217Y14976D01*
X9401Y14900D01*
X9599D01*
X9783Y14976D01*
X9924Y15117D01*
X10000Y15301D01*
Y15499D01*
X9989Y15527D01*
X10069Y15623D01*
X10131D01*
X10211Y15527D01*
X10200Y15499D01*
Y15301D01*
X10276Y15117D01*
X10417Y14976D01*
X10601Y14900D01*
X10799D01*
X10983Y14976D01*
X11124Y15117D01*
X11200Y15301D01*
Y15499D01*
X11181Y15544D01*
X11203Y15577D01*
X11300Y15650D01*
X11400D01*
Y15650D01*
X11875D01*
Y16200D01*
X12125D01*
Y15650D01*
X12548D01*
X12619Y15544D01*
X12600Y15499D01*
Y15301D01*
X12676Y15117D01*
X12817Y14976D01*
X13001Y14900D01*
X13199D01*
X13383Y14976D01*
X13524Y15117D01*
X13600Y15301D01*
Y15499D01*
X13581Y15544D01*
X13603Y15577D01*
X13700Y15650D01*
X13700D01*
X13700Y15650D01*
X14175D01*
Y16200D01*
X14425D01*
Y15650D01*
X14848D01*
X14919Y15544D01*
X14900Y15499D01*
Y15301D01*
X14976Y15117D01*
X15117Y14976D01*
X15301Y14900D01*
X15499D01*
X15683Y14976D01*
X15824Y15117D01*
X15900Y15301D01*
Y15499D01*
X15881Y15544D01*
X15952Y15650D01*
X16000D01*
Y16713D01*
X16074Y16753D01*
X16127Y16772D01*
X16301Y16700D01*
X16499D01*
X16683Y16776D01*
X16824Y16917D01*
X16900Y17101D01*
Y17299D01*
X16824Y17483D01*
X16683Y17624D01*
X16499Y17700D01*
X16301D01*
X16127Y17628D01*
X16074Y17647D01*
X16000Y17687D01*
Y17750D01*
X14408D01*
Y17900D01*
X14408Y17900D01*
X14383Y18023D01*
X14383Y18032D01*
X14455Y18150D01*
X20560D01*
Y19600D01*
X20625Y19700D01*
X20687Y19700D01*
X22625D01*
Y21143D01*
X23950D01*
X24017Y21076D01*
X24201Y21000D01*
X24399D01*
X24583Y21076D01*
X24673Y21166D01*
X24800Y21113D01*
Y20744D01*
X24441Y20384D01*
X24423D01*
X24383Y20424D01*
X24199Y20500D01*
X24001D01*
X23817Y20424D01*
X23676Y20283D01*
X23600Y20099D01*
Y19901D01*
X23676Y19717D01*
X23817Y19576D01*
X24001Y19500D01*
X24199D01*
X24383Y19576D01*
X24423Y19616D01*
X24600D01*
X24600Y19616D01*
X24673Y19630D01*
X24783Y19561D01*
X24800Y19539D01*
Y18450D01*
X25192D01*
Y17800D01*
X25050D01*
Y17800D01*
X24923Y17720D01*
X24849Y17750D01*
X24651D01*
X24467Y17674D01*
X24326Y17533D01*
X24250Y17349D01*
Y17151D01*
X24326Y16967D01*
X24467Y16826D01*
X24651Y16750D01*
X24849D01*
X24923Y16780D01*
X25050Y16725D01*
Y16600D01*
X26475D01*
Y17200D01*
X26600D01*
D01*
X26475D01*
Y17800D01*
X26008D01*
Y18450D01*
X26300D01*
Y19800D01*
X25109D01*
X25061Y19917D01*
X25344Y20200D01*
X26300D01*
Y21550D01*
X24800D01*
Y21599D01*
X24724Y21783D01*
X24583Y21924D01*
X24399Y22000D01*
X24201D01*
X24017Y21924D01*
X23950Y21857D01*
X23327D01*
X23294Y21946D01*
X23291Y21984D01*
X23424Y22117D01*
X23500Y22301D01*
Y22499D01*
X23500Y22500D01*
X23683Y22576D01*
X23824Y22717D01*
X23900Y22901D01*
Y23099D01*
X23824Y23283D01*
X23683Y23424D01*
X23499Y23500D01*
X23301D01*
X23117Y23424D01*
X23050Y23357D01*
X22625D01*
Y24780D01*
Y25143D01*
X22796D01*
X22901Y25100D01*
X23099D01*
X23283Y25176D01*
X23424Y25317D01*
X23500Y25501D01*
Y25699D01*
X23424Y25883D01*
X23283Y26024D01*
X23099Y26100D01*
X22901D01*
X22752Y26038D01*
X22739Y26040D01*
X22656Y26082D01*
X22625Y26112D01*
Y26459D01*
X22850D01*
X22917Y26392D01*
X23101Y26316D01*
X23299D01*
X23483Y26392D01*
X23624Y26533D01*
X23700Y26717D01*
Y26916D01*
X23624Y27099D01*
X23483Y27240D01*
X23299Y27316D01*
X23101D01*
X22917Y27240D01*
X22850Y27173D01*
X22625D01*
Y27743D01*
X23250D01*
X23317Y27676D01*
X23501Y27600D01*
X23699D01*
X23883Y27676D01*
X24024Y27817D01*
X24100Y28001D01*
Y28199D01*
X24050Y28321D01*
X24183Y28376D01*
X24324Y28517D01*
X24400Y28701D01*
Y28899D01*
X24324Y29083D01*
X24207Y29200D01*
X24324Y29317D01*
X24400Y29501D01*
Y29699D01*
X24324Y29883D01*
X24183Y30024D01*
X23999Y30100D01*
X23996D01*
X23981Y30123D01*
X24048Y30250D01*
X25700D01*
Y31451D01*
X25710Y31500D01*
Y32900D01*
X25900D01*
Y33090D01*
X26800D01*
X26995Y33129D01*
X27160Y33239D01*
X27360Y33440D01*
X27388Y33481D01*
X27424Y33517D01*
X27443Y33563D01*
X27471Y33605D01*
X27481Y33654D01*
X27500Y33701D01*
Y33751D01*
X27510Y33800D01*
X27500Y33849D01*
Y33899D01*
X27481Y33946D01*
X27471Y33995D01*
X27443Y34037D01*
X27424Y34083D01*
X27388Y34119D01*
X27360Y34160D01*
X27319Y34188D01*
X27283Y34224D01*
X27258Y34360D01*
X27278Y34392D01*
X28574D01*
X28574Y34392D01*
X28730Y34423D01*
X28863Y34512D01*
X29353Y35001D01*
X29470Y34923D01*
X29626Y34892D01*
X30174D01*
X30174Y34892D01*
X30330Y34923D01*
X30463Y35012D01*
X30638Y35187D01*
X30638Y35187D01*
X30727Y35320D01*
X30758Y35476D01*
X30758Y35476D01*
Y36030D01*
X31543D01*
X31592Y35913D01*
X30940Y35260D01*
X30912Y35219D01*
X30876Y35183D01*
X30857Y35137D01*
X30829Y35095D01*
X30819Y35046D01*
X30800Y34999D01*
Y34949D01*
X30790Y34900D01*
X30800Y34851D01*
Y34801D01*
X30819Y34754D01*
X30829Y34705D01*
X30857Y34663D01*
X30876Y34617D01*
X30912Y34581D01*
X30940Y34540D01*
X30981Y34512D01*
X31017Y34476D01*
X31063Y34457D01*
X31105Y34429D01*
X31154Y34419D01*
X31201Y34400D01*
X31251D01*
X31300Y34390D01*
X31349Y34400D01*
X31399D01*
X31446Y34419D01*
X31495Y34429D01*
X31537Y34457D01*
X31583Y34476D01*
X31619Y34512D01*
X31660Y34540D01*
X32810Y35690D01*
X32921Y35855D01*
X32956Y36030D01*
X33175D01*
Y36850D01*
X33425D01*
Y36030D01*
X33850D01*
Y36195D01*
X33977Y36258D01*
X34029Y36218D01*
X34218Y36140D01*
X34420Y36113D01*
X34622Y36140D01*
X34811Y36218D01*
X34973Y36342D01*
X35097Y36504D01*
X35175Y36693D01*
X35202Y36895D01*
Y37945D01*
X35175Y38147D01*
X35097Y38336D01*
X34973Y38498D01*
X34811Y38622D01*
X34622Y38700D01*
X34420Y38727D01*
X34218Y38700D01*
X34029Y38622D01*
X33867Y38498D01*
X33743Y38336D01*
X33665Y38147D01*
X33638Y37945D01*
Y37670D01*
X33366D01*
X33291Y37797D01*
X33315Y37855D01*
Y37985D01*
X33266Y38104D01*
X33174Y38196D01*
X33055Y38245D01*
X32925D01*
X32806Y38196D01*
X32714Y38104D01*
X32665Y37985D01*
Y37855D01*
X32689Y37797D01*
X32614Y37670D01*
X31234D01*
Y37850D01*
X31205Y37997D01*
X31122Y38122D01*
X31122Y38122D01*
X30872Y38372D01*
X30747Y38455D01*
X30600Y38484D01*
X30600Y38484D01*
X30100D01*
X30100Y38484D01*
X29953Y38455D01*
X29828Y38372D01*
X29719Y38425D01*
X28972Y39172D01*
X28847Y39255D01*
X28823Y39260D01*
X28700Y39284D01*
D02*
G37*
G36*
X46300Y39500D02*
X45875D01*
Y38900D01*
Y38300D01*
X46300D01*
Y38452D01*
X46709D01*
X46718Y38446D01*
X46875Y38415D01*
X47032Y38446D01*
X47165Y38535D01*
X47254Y38668D01*
X47285Y38825D01*
X47254Y38982D01*
X47165Y39115D01*
X47128Y39153D01*
X46995Y39241D01*
X46838Y39273D01*
X46300D01*
Y39500D01*
D02*
G37*
G36*
X45558Y42618D02*
X44042D01*
Y40086D01*
X44391D01*
Y39500D01*
X44200D01*
Y38300D01*
X44200D01*
X44268Y38173D01*
X44223Y38106D01*
X44192Y37950D01*
Y37650D01*
X44223Y37494D01*
X44311Y37362D01*
X44400Y37303D01*
X44413Y37171D01*
X44409Y37156D01*
X44400Y37150D01*
X44339Y37058D01*
X44317Y36950D01*
Y36650D01*
X44339Y36542D01*
X44356Y36517D01*
X44398Y36402D01*
X44398Y36402D01*
X44398Y36402D01*
Y35448D01*
X44398D01*
X44364Y35335D01*
X44350D01*
Y34500D01*
Y33665D01*
X44660D01*
Y33788D01*
X44990D01*
Y33665D01*
X45300D01*
Y34500D01*
X45550D01*
Y33665D01*
X45900D01*
Y34500D01*
X46150D01*
Y33665D01*
X47540D01*
Y32915D01*
Y32315D01*
Y31115D01*
Y31075D01*
X48375D01*
X49210D01*
Y31176D01*
X49617D01*
X49702Y31092D01*
X49885Y31015D01*
X50084D01*
X50268Y31092D01*
X50409Y31232D01*
X50485Y31416D01*
Y31615D01*
X50409Y31799D01*
X50268Y31939D01*
X50084Y32015D01*
X49950D01*
X49925Y32053D01*
Y32251D01*
X49849Y32435D01*
X49708Y32576D01*
X49524Y32652D01*
X49325D01*
X49316Y32648D01*
X49210Y32719D01*
Y33785D01*
X47660D01*
Y35335D01*
X46375D01*
Y35800D01*
X45825D01*
Y36050D01*
X46375D01*
Y36450D01*
X46706D01*
X46863Y36482D01*
X46996Y36571D01*
X47137Y36712D01*
X47182Y36721D01*
X47315Y36810D01*
X47404Y36943D01*
X47435Y37100D01*
X47404Y37257D01*
X47315Y37390D01*
X47182Y37479D01*
X47025Y37510D01*
X46945D01*
X46788Y37479D01*
X46655Y37390D01*
X46536Y37271D01*
X46004D01*
X45847Y37240D01*
X45713Y37151D01*
X45535Y36972D01*
X45446Y36839D01*
X45416Y36688D01*
X45409Y36684D01*
X45383Y36691D01*
X45282Y36775D01*
Y36950D01*
X45261Y37058D01*
X45200Y37150D01*
X45191Y37156D01*
X45186Y37171D01*
X45200Y37303D01*
X45288Y37362D01*
X45377Y37494D01*
X45408Y37650D01*
Y37950D01*
X45377Y38106D01*
X45332Y38173D01*
X45400Y38300D01*
X45625D01*
Y38900D01*
Y39500D01*
X45159D01*
Y40086D01*
X45558D01*
Y42618D01*
D02*
G37*
G36*
X39375Y38100D02*
X38950D01*
Y37625D01*
X39375D01*
Y38100D01*
D02*
G37*
G36*
X2652Y37843D02*
X2077D01*
Y37268D01*
X2652D01*
Y37843D01*
D02*
G37*
G36*
X22625Y37610D02*
X21750D01*
Y37035D01*
X22625D01*
Y37610D01*
D02*
G37*
G36*
X21500D02*
X20625D01*
Y37035D01*
X21500D01*
Y37610D01*
D02*
G37*
G36*
X5125D02*
X4250D01*
Y37035D01*
X5125D01*
Y37610D01*
D02*
G37*
G36*
X4000D02*
X3125D01*
Y37035D01*
X4000D01*
Y37610D01*
D02*
G37*
G36*
X41050Y38100D02*
X39625D01*
Y37500D01*
X39500D01*
Y37375D01*
X38950D01*
Y37027D01*
X38950Y36900D01*
D01*
Y36900D01*
X38922Y36852D01*
X38776Y36831D01*
X38683Y36924D01*
X38499Y37000D01*
X38301D01*
X38117Y36924D01*
X37976Y36783D01*
X37900Y36599D01*
Y36401D01*
X37976Y36217D01*
X38117Y36076D01*
X38301Y36000D01*
X38329D01*
X38444Y35923D01*
X38600Y35892D01*
X38600Y35892D01*
X38950D01*
Y35700D01*
X40182D01*
Y35335D01*
X39550D01*
Y34500D01*
X39300D01*
Y35335D01*
X38950D01*
Y34500D01*
Y33542D01*
X38951Y33538D01*
X38917Y33524D01*
X38776Y33383D01*
X38700Y33199D01*
Y33001D01*
X38776Y32817D01*
X38801Y32792D01*
X38875Y32700D01*
X38875D01*
X38875Y32700D01*
Y31842D01*
X38770Y31771D01*
X38699Y31800D01*
X38501D01*
X38317Y31724D01*
X38176Y31583D01*
X38100Y31399D01*
Y31201D01*
X38176Y31017D01*
X38317Y30876D01*
X38501Y30800D01*
X38699D01*
X38770Y30829D01*
X38875Y30758D01*
Y30600D01*
X39800D01*
Y31650D01*
X39925D01*
Y31775D01*
X40975D01*
Y32700D01*
X41084Y32743D01*
X41100D01*
X41237Y32770D01*
X41352Y32848D01*
X41478Y32973D01*
X41555Y33089D01*
X41582Y33225D01*
Y33665D01*
X43500D01*
Y34500D01*
Y35335D01*
X41822D01*
X41769Y35462D01*
X41824Y35517D01*
X41900Y35701D01*
Y35899D01*
X41824Y36083D01*
X41683Y36224D01*
X41499Y36300D01*
X41301D01*
X41174Y36248D01*
X41050Y36323D01*
X41050Y36323D01*
Y36773D01*
X41050Y36900D01*
X41050D01*
Y36900D01*
X41050D01*
Y38100D01*
D02*
G37*
G36*
X2652Y37018D02*
X2077D01*
Y36443D01*
X2652D01*
Y37018D01*
D02*
G37*
G36*
X883Y37860D02*
X875D01*
X718Y37829D01*
X585Y37740D01*
X496Y37607D01*
X465Y37450D01*
X496Y37293D01*
X585Y37160D01*
X609Y37144D01*
X900Y36853D01*
X1033Y36764D01*
X1190Y36733D01*
X1252D01*
Y36443D01*
X1827D01*
Y37143D01*
Y37843D01*
X1252D01*
Y37833D01*
X1125Y37772D01*
X1040Y37829D01*
X883Y37860D01*
D02*
G37*
G36*
X24300Y34300D02*
X23725D01*
Y33725D01*
X24300D01*
Y34300D01*
D02*
G37*
G36*
X23475D02*
X22900D01*
Y33725D01*
X23475D01*
Y34300D01*
D02*
G37*
G36*
X44100Y35335D02*
X43750D01*
Y34500D01*
Y33665D01*
X44100D01*
Y34500D01*
Y35335D01*
D02*
G37*
G36*
X1850Y33600D02*
X1275D01*
Y33025D01*
X1850D01*
Y33600D01*
D02*
G37*
G36*
X24300Y33475D02*
X23725D01*
Y32900D01*
X24300D01*
Y33475D01*
D02*
G37*
G36*
X23475D02*
X22900D01*
Y32900D01*
X23475D01*
Y33475D01*
D02*
G37*
G36*
X1850Y32775D02*
X1275D01*
Y32200D01*
X1850D01*
Y32775D01*
D02*
G37*
G36*
X46575Y32700D02*
X45650D01*
Y31775D01*
X46575D01*
Y32700D01*
D02*
G37*
G36*
X43775D02*
X42850D01*
Y31775D01*
X43775D01*
Y32700D01*
D02*
G37*
G36*
X42600D02*
X41675D01*
Y31775D01*
X42600D01*
Y32700D01*
D02*
G37*
G36*
X45400D02*
X44475D01*
Y31775D01*
X45400D01*
Y32700D01*
D02*
G37*
G36*
X38700Y35335D02*
X37790D01*
Y33785D01*
X36240D01*
Y32915D01*
Y32315D01*
Y31675D01*
X37075D01*
X37910D01*
Y31715D01*
Y32915D01*
Y33665D01*
X38700D01*
Y34500D01*
Y35335D01*
D02*
G37*
G36*
X30300Y32750D02*
X29425D01*
Y31625D01*
X30300D01*
Y32750D01*
D02*
G37*
G36*
X29175D02*
X28300D01*
Y31625D01*
X29175D01*
Y32750D01*
D02*
G37*
G36*
X33575Y32100D02*
X33150D01*
Y31625D01*
X33575D01*
Y32100D01*
D02*
G37*
G36*
X12900Y31290D02*
Y30715D01*
X13475D01*
Y31290D01*
X12900D01*
D02*
G37*
G36*
X9850D02*
X9275D01*
Y30715D01*
X9850D01*
Y31290D01*
D02*
G37*
G36*
X46575Y31525D02*
X45650D01*
Y30600D01*
X46575D01*
Y31525D01*
D02*
G37*
G36*
X45400D02*
X44475D01*
Y30600D01*
X45400D01*
Y31525D01*
D02*
G37*
G36*
X40975D02*
X40050D01*
Y30600D01*
X40975D01*
Y31525D01*
D02*
G37*
G36*
X32299Y30500D02*
X32101D01*
X31917Y30424D01*
X31800Y30307D01*
X31783Y30324D01*
X31599Y30400D01*
X31401D01*
X31217Y30324D01*
X31175Y30282D01*
X31133Y30324D01*
X30949Y30400D01*
X30751D01*
X30567Y30324D01*
X30426Y30183D01*
X30350Y29999D01*
Y29801D01*
X30426Y29617D01*
X30567Y29476D01*
X30751Y29400D01*
X30949D01*
X31133Y29476D01*
X31175Y29518D01*
X31217Y29476D01*
X31401Y29400D01*
X31599D01*
X31783Y29476D01*
X31900Y29593D01*
X31917Y29576D01*
X32101Y29500D01*
X32299D01*
X32483Y29576D01*
X32624Y29717D01*
X32700Y29901D01*
Y30099D01*
X32624Y30283D01*
X32483Y30424D01*
X32299Y30500D01*
D02*
G37*
G36*
X30300Y31375D02*
X29425D01*
Y30250D01*
X30300D01*
Y31375D01*
D02*
G37*
G36*
X29175D02*
X28300D01*
Y30250D01*
X29175D01*
Y31375D01*
D02*
G37*
G36*
X33575Y30175D02*
X33150D01*
Y29700D01*
X33575D01*
Y30175D01*
D02*
G37*
G36*
X28000Y32750D02*
X26000D01*
Y30250D01*
X26477D01*
X26477Y30250D01*
X26551Y30123D01*
X26500Y29999D01*
Y29801D01*
X26576Y29617D01*
X26717Y29476D01*
X26901Y29400D01*
X27099D01*
X27283Y29476D01*
X27424Y29617D01*
X27500Y29801D01*
Y29999D01*
X27449Y30123D01*
X27523Y30250D01*
X27523Y30250D01*
X28000D01*
Y32750D01*
D02*
G37*
G36*
X43775Y31525D02*
X42725D01*
X41675D01*
Y30600D01*
X42109D01*
X42204Y30473D01*
X42190Y30400D01*
X42221Y30243D01*
X42310Y30110D01*
X42315Y30105D01*
Y29900D01*
X41675D01*
Y29260D01*
X40975D01*
Y29900D01*
X40050D01*
Y28850D01*
X39925D01*
D01*
X40050D01*
Y27800D01*
X40975D01*
Y28440D01*
X41675D01*
Y27800D01*
X42315D01*
Y27427D01*
X42290Y27300D01*
X42304Y27227D01*
X42209Y27100D01*
X41675D01*
Y26175D01*
X42725D01*
Y26050D01*
D01*
Y26175D01*
X43775D01*
Y27100D01*
X43200D01*
X43116Y27227D01*
X43135Y27325D01*
Y27800D01*
X43775D01*
Y28440D01*
X44015D01*
X44043Y28421D01*
X44200Y28390D01*
X44348Y28419D01*
X44376Y28418D01*
X44475Y28365D01*
Y27800D01*
X45400D01*
Y28850D01*
X45525D01*
D01*
X45400D01*
Y29900D01*
X44475D01*
Y29269D01*
X44348Y29202D01*
X44307Y29229D01*
X44150Y29260D01*
X43775D01*
Y29900D01*
X43135D01*
Y30275D01*
X43104Y30432D01*
X43077Y30473D01*
X43145Y30600D01*
X43775D01*
Y31525D01*
D02*
G37*
G36*
X33299Y34700D02*
X33101D01*
X32917Y34624D01*
X32776Y34483D01*
X32700Y34299D01*
Y34101D01*
X32776Y33917D01*
X32792Y33901D01*
Y33700D01*
X32500D01*
Y32300D01*
X33900D01*
Y32500D01*
X34100D01*
Y32300D01*
X34292D01*
Y32100D01*
X33825D01*
Y31500D01*
X33700D01*
Y31375D01*
X33150D01*
Y31027D01*
X33150Y30900D01*
X33150D01*
Y30900D01*
X33150D01*
Y30425D01*
X33700D01*
Y30300D01*
X33825D01*
Y29700D01*
X34292D01*
Y29190D01*
X34263D01*
Y28990D01*
X34063D01*
Y29190D01*
X32663D01*
Y27790D01*
X33132D01*
X33255Y27773D01*
X33287Y27616D01*
X33313Y27576D01*
Y27382D01*
X33397Y27180D01*
X33552Y27025D01*
X33694Y26966D01*
Y26829D01*
X33663Y26816D01*
X33509Y26662D01*
X33425Y26459D01*
Y26241D01*
X33509Y26038D01*
X33663Y25884D01*
X33866Y25800D01*
X34084D01*
X34286Y25884D01*
X34441Y26038D01*
X34463Y26092D01*
X34700D01*
Y25625D01*
X35300D01*
X35900D01*
Y25950D01*
Y27050D01*
X35700D01*
Y27322D01*
X36123Y27746D01*
X36240Y27697D01*
Y26315D01*
Y25115D01*
Y23915D01*
X37760D01*
X37828Y23788D01*
X37815Y23770D01*
X37782Y23600D01*
Y22872D01*
X36925D01*
X36920Y22883D01*
X36779Y23024D01*
X36595Y23100D01*
X36397D01*
X36213Y23024D01*
X36072Y22883D01*
X35996Y22699D01*
Y22501D01*
X36072Y22317D01*
X36213Y22176D01*
X36397Y22100D01*
X36595D01*
X36598Y22101D01*
X36695Y22004D01*
X36678Y21962D01*
Y21763D01*
X36754Y21579D01*
X36894Y21439D01*
X37078Y21363D01*
X37277D01*
X37461Y21439D01*
X37528Y21506D01*
X37906D01*
X38014Y21527D01*
X38085Y21451D01*
X38098Y21425D01*
X37673Y21000D01*
X36825D01*
Y20400D01*
X36700D01*
Y20275D01*
X36150D01*
Y19800D01*
X36150Y19800D01*
X36150D01*
X36140Y19677D01*
X36077Y19651D01*
X35923Y19496D01*
X35839Y19294D01*
Y19075D01*
X35923Y18873D01*
X36077Y18719D01*
X36280Y18635D01*
X36498D01*
X36701Y18719D01*
X36816Y18834D01*
X36842D01*
X36842Y18834D01*
X36933Y18852D01*
X36954Y18845D01*
X37028Y18788D01*
X37047Y18763D01*
X37050Y18756D01*
Y18591D01*
X37134Y18388D01*
X37288Y18234D01*
X37392Y18191D01*
Y17800D01*
X37392Y17800D01*
X37400Y17760D01*
Y17250D01*
Y16925D01*
X38000D01*
Y16800D01*
X38125D01*
Y16250D01*
X38975D01*
Y16800D01*
X39100D01*
Y16925D01*
X39700D01*
Y17442D01*
X40128D01*
X40128Y17442D01*
X40284Y17473D01*
X40416Y17562D01*
X40558Y17703D01*
X40681Y17647D01*
X40759Y17459D01*
X40758Y17298D01*
X40698Y17237D01*
X40663D01*
X40428Y17191D01*
X40230Y17058D01*
X40108Y16876D01*
X40063D01*
Y16685D01*
X40051Y16626D01*
X40063Y16566D01*
Y15776D01*
Y15450D01*
X40663D01*
X41263D01*
Y16014D01*
X41625D01*
Y15451D01*
X42225D01*
X42825D01*
Y15776D01*
Y16567D01*
X42837Y16626D01*
X42825Y16684D01*
Y16692D01*
X42827Y16695D01*
X42858Y16851D01*
Y17496D01*
X42975Y17545D01*
X43565Y16955D01*
Y15500D01*
X43617D01*
Y14550D01*
X43600D01*
Y13450D01*
Y13125D01*
X44200D01*
Y13000D01*
X44325D01*
Y12450D01*
X44800D01*
Y12450D01*
X44900D01*
Y12450D01*
X45375D01*
Y13000D01*
X45500D01*
Y13125D01*
X46100D01*
Y13450D01*
Y14550D01*
X44900D01*
Y14550D01*
X44800D01*
Y14550D01*
X44433D01*
Y15500D01*
X45386D01*
Y15500D01*
X45480D01*
Y15500D01*
X47301D01*
Y17524D01*
X47255D01*
Y20963D01*
X47255Y20963D01*
X47224Y21119D01*
X47136Y21251D01*
X47136Y21251D01*
X46399Y21988D01*
X46267Y22077D01*
X46111Y22108D01*
X46111Y22108D01*
X46020D01*
X45890Y22238D01*
X45943Y22365D01*
X47660D01*
Y23915D01*
X49210D01*
Y25115D01*
Y26315D01*
Y27515D01*
Y28715D01*
Y29915D01*
Y30825D01*
X48375D01*
X47540D01*
Y29915D01*
Y28715D01*
Y27515D01*
Y26315D01*
Y25115D01*
Y24035D01*
X44950D01*
Y23200D01*
X44700D01*
Y24035D01*
X38390D01*
Y24035D01*
X38366Y24015D01*
X38225Y24044D01*
X38055Y24010D01*
X38037Y23998D01*
X37910Y24065D01*
Y24515D01*
Y25715D01*
Y26915D01*
Y28115D01*
Y29025D01*
X37075D01*
Y29275D01*
X37910D01*
Y29315D01*
Y30515D01*
Y31425D01*
X37075D01*
X36240D01*
Y31358D01*
X35369D01*
X35250Y31477D01*
Y32100D01*
X35108D01*
Y32300D01*
X35500D01*
Y33700D01*
X34100D01*
Y33500D01*
X33900D01*
Y33700D01*
X33608D01*
Y33901D01*
X33624Y33917D01*
X33700Y34101D01*
Y34299D01*
X33624Y34483D01*
X33483Y34624D01*
X33299Y34700D01*
D02*
G37*
G36*
X46575Y29900D02*
X45650D01*
Y28975D01*
X46575D01*
Y29900D01*
D02*
G37*
G36*
X39800D02*
X38875D01*
Y28975D01*
X39800D01*
Y29900D01*
D02*
G37*
G36*
X46575Y28725D02*
X45650D01*
Y27800D01*
X46575D01*
Y28725D01*
D02*
G37*
G36*
X39800D02*
X38875D01*
Y27800D01*
X39800D01*
Y28725D01*
D02*
G37*
G36*
X13475Y27665D02*
X12900D01*
Y27090D01*
X13475D01*
Y27665D01*
D02*
G37*
G36*
X9850D02*
X9275D01*
Y27090D01*
X9850D01*
Y27665D01*
D02*
G37*
G36*
X10675Y31290D02*
X10548Y31290D01*
X10100D01*
Y30590D01*
X9975D01*
Y30465D01*
X9275D01*
Y30017D01*
X9275Y29890D01*
X9275Y29763D01*
Y29315D01*
X9975D01*
Y29065D01*
X9275D01*
Y28617D01*
X9275Y28490D01*
X9275Y28363D01*
Y27915D01*
X9975D01*
Y27790D01*
X10100D01*
Y27090D01*
X10548D01*
X10675Y27090D01*
X10802Y27090D01*
X11250D01*
Y27790D01*
X11500D01*
Y27090D01*
X11948D01*
X12075Y27090D01*
X12202Y27090D01*
X12650D01*
Y27790D01*
X12775D01*
Y27915D01*
X13475D01*
Y28363D01*
X13475Y28490D01*
X13475Y28617D01*
Y29065D01*
X12775D01*
Y29315D01*
X13475D01*
Y29763D01*
X13475Y29890D01*
X13475Y30017D01*
Y30465D01*
X12775D01*
Y30590D01*
X12650D01*
Y31290D01*
X12202D01*
X12075Y31290D01*
X11948Y31290D01*
X11500D01*
Y30590D01*
X11250D01*
Y31290D01*
X10802D01*
X10675Y31290D01*
D02*
G37*
G36*
X46575Y27100D02*
X45650D01*
Y26175D01*
X46575D01*
Y27100D01*
D02*
G37*
G36*
X40975D02*
X40050D01*
Y26175D01*
X40975D01*
Y27100D01*
D02*
G37*
G36*
X45400D02*
X44475D01*
Y26175D01*
X45400D01*
Y27100D01*
D02*
G37*
G36*
X39800D02*
X38875D01*
Y26175D01*
X39800D01*
Y27100D01*
D02*
G37*
G36*
X19999Y26700D02*
X19801D01*
X19617Y26624D01*
X19476Y26483D01*
X19400Y26299D01*
Y26101D01*
X19476Y25917D01*
X19617Y25776D01*
X19801Y25700D01*
X19999D01*
X20183Y25776D01*
X20324Y25917D01*
X20400Y26101D01*
Y26299D01*
X20324Y26483D01*
X20183Y26624D01*
X19999Y26700D01*
D02*
G37*
G36*
X29150Y26450D02*
X24850D01*
Y25608D01*
X24700D01*
X24700Y25608D01*
X24544Y25577D01*
X24412Y25488D01*
X24412Y25488D01*
X23923Y25000D01*
X23901D01*
X23717Y24924D01*
X23576Y24783D01*
X23500Y24599D01*
Y24401D01*
X23576Y24217D01*
X23717Y24076D01*
X23901Y24000D01*
X24099D01*
X24283Y24076D01*
X24424Y24217D01*
X24500Y24401D01*
Y24423D01*
X24733Y24656D01*
X24850Y24607D01*
Y23950D01*
X28663D01*
X28716Y23823D01*
X28676Y23783D01*
X28600Y23599D01*
Y23401D01*
X28676Y23217D01*
X28817Y23076D01*
X29001Y23000D01*
X29199D01*
X29383Y23076D01*
X29524Y23217D01*
X29600Y23401D01*
Y23423D01*
X30088Y23912D01*
X30088Y23912D01*
X30177Y24044D01*
X30188Y24100D01*
X30800D01*
Y25500D01*
X29400D01*
Y25208D01*
X29150D01*
Y26450D01*
D02*
G37*
G36*
X46575Y25925D02*
X45650D01*
Y25000D01*
X46575D01*
Y25925D01*
D02*
G37*
G36*
X45400D02*
X44475D01*
Y25000D01*
X45400D01*
Y25925D01*
D02*
G37*
G36*
X43775D02*
X42850D01*
Y25000D01*
X43775D01*
Y25925D01*
D02*
G37*
G36*
X42600D02*
X41675D01*
Y25000D01*
X42600D01*
Y25925D01*
D02*
G37*
G36*
X40975D02*
X40050D01*
Y25000D01*
X40975D01*
Y25925D01*
D02*
G37*
G36*
X39800D02*
X38875D01*
Y25000D01*
X39800D01*
Y25925D01*
D02*
G37*
G36*
X35900Y25375D02*
X35425D01*
Y24950D01*
X35900D01*
Y25375D01*
D02*
G37*
G36*
X35175D02*
X34700D01*
Y24950D01*
X35175D01*
Y25375D01*
D02*
G37*
G36*
X31575Y25500D02*
X31000D01*
Y24925D01*
X31575D01*
Y25500D01*
D02*
G37*
G36*
X2200Y24975D02*
X1725D01*
Y24550D01*
X2200D01*
Y24975D01*
D02*
G37*
G36*
X1475D02*
X1000D01*
Y24550D01*
X1475D01*
Y24975D01*
D02*
G37*
G36*
X32599Y26000D02*
X32401D01*
X32217Y25924D01*
X32076Y25783D01*
X32000Y25599D01*
Y25500D01*
X31825D01*
Y24925D01*
X32400D01*
Y25000D01*
X32401Y25000D01*
X32599D01*
X32612Y25005D01*
X32683Y24900D01*
X32684Y24898D01*
X32608Y24714D01*
Y24516D01*
X32684Y24332D01*
X32825Y24191D01*
X33009Y24115D01*
X33208D01*
X33391Y24191D01*
X33532Y24332D01*
X33608Y24516D01*
Y24714D01*
X33532Y24898D01*
X33391Y25039D01*
X33208Y25115D01*
X33009D01*
X32997Y25110D01*
X32925Y25215D01*
X32924Y25217D01*
X33000Y25401D01*
Y25599D01*
X32924Y25783D01*
X32783Y25924D01*
X32599Y26000D01*
D02*
G37*
G36*
X32400Y24675D02*
X31825D01*
Y24100D01*
X32400D01*
Y24675D01*
D02*
G37*
G36*
X31575D02*
X31000D01*
Y24100D01*
X31575D01*
Y24675D01*
D02*
G37*
G36*
X17999Y23700D02*
X17801D01*
X17617Y23624D01*
X17476Y23483D01*
X17400Y23299D01*
Y23101D01*
X17476Y22917D01*
X17617Y22776D01*
X17801Y22700D01*
X17999D01*
X18183Y22776D01*
X18324Y22917D01*
X18400Y23101D01*
Y23299D01*
X18324Y23483D01*
X18183Y23624D01*
X17999Y23700D01*
D02*
G37*
G36*
X33354Y23068D02*
X33155D01*
X32971Y22992D01*
X32830Y22851D01*
X32754Y22667D01*
Y22468D01*
X32830Y22285D01*
X32932Y22182D01*
X32860Y22075D01*
X32799Y22100D01*
X32601D01*
X32417Y22024D01*
X32276Y21883D01*
X32200Y21699D01*
Y21501D01*
X32276Y21317D01*
X32417Y21176D01*
X32601Y21100D01*
X32799D01*
X32983Y21176D01*
X33124Y21317D01*
X33200Y21501D01*
Y21699D01*
X33124Y21883D01*
X33022Y21985D01*
X33094Y22093D01*
X33155Y22068D01*
X33354D01*
X33537Y22144D01*
X33678Y22285D01*
X33754Y22468D01*
Y22667D01*
X33678Y22851D01*
X33537Y22992D01*
X33354Y23068D01*
D02*
G37*
G36*
X29800Y21550D02*
X29175D01*
Y21000D01*
X29800D01*
Y21550D01*
D02*
G37*
G36*
X28925D02*
X28300D01*
Y21000D01*
X28925D01*
Y21550D01*
D02*
G37*
G36*
X36575Y21000D02*
X36150D01*
Y20525D01*
X36575D01*
Y21000D01*
D02*
G37*
G36*
X29800Y20750D02*
X29175D01*
Y20200D01*
X29800D01*
Y20750D01*
D02*
G37*
G36*
X28925D02*
X28300D01*
Y20200D01*
X28925D01*
Y20750D01*
D02*
G37*
G36*
X35199Y21200D02*
X35001D01*
X34817Y21124D01*
X34676Y20983D01*
X34600Y20799D01*
Y20601D01*
X34676Y20417D01*
X34817Y20276D01*
X35001Y20200D01*
X35199D01*
X35383Y20276D01*
X35524Y20417D01*
X35600Y20601D01*
Y20799D01*
X35524Y20983D01*
X35383Y21124D01*
X35199Y21200D01*
D02*
G37*
G36*
X51075Y20925D02*
X50300D01*
Y20150D01*
X51075D01*
Y20925D01*
D02*
G37*
G36*
X50050D02*
X49275D01*
Y20150D01*
X50050D01*
Y20925D01*
D02*
G37*
G36*
X51075Y19900D02*
X50300D01*
Y19125D01*
X51075D01*
Y19900D01*
D02*
G37*
G36*
X50050D02*
X49275D01*
Y19125D01*
X50050D01*
Y19900D01*
D02*
G37*
G36*
X29800Y19800D02*
X28300D01*
Y18450D01*
X29800D01*
Y19800D01*
D02*
G37*
G36*
X27150Y17800D02*
X26725D01*
Y17325D01*
X27150D01*
Y17800D01*
D02*
G37*
G36*
X50293Y18925D02*
X50057D01*
X49828Y18864D01*
X49622Y18745D01*
X49455Y18578D01*
X49336Y18372D01*
X49275Y18143D01*
Y17907D01*
X49336Y17678D01*
X49455Y17472D01*
X49622Y17305D01*
X49828Y17186D01*
X50057Y17125D01*
X50293D01*
X50522Y17186D01*
X50728Y17305D01*
X50895Y17472D01*
X51014Y17678D01*
X51075Y17907D01*
Y18143D01*
X51014Y18372D01*
X50895Y18578D01*
X50728Y18745D01*
X50522Y18864D01*
X50293Y18925D01*
D02*
G37*
G36*
X27150Y17075D02*
X26725D01*
Y16600D01*
X27150D01*
Y17075D01*
D02*
G37*
G36*
X50293Y16925D02*
X50057D01*
X49828Y16864D01*
X49622Y16745D01*
X49455Y16578D01*
X49342Y16382D01*
X48700D01*
Y16550D01*
X47500D01*
Y15450D01*
Y14450D01*
X48123D01*
X48787Y13787D01*
X48787Y13787D01*
X48919Y13698D01*
X49075Y13667D01*
X49342D01*
X49455Y13472D01*
X49622Y13305D01*
X49828Y13186D01*
X50057Y13125D01*
X50293D01*
X50522Y13186D01*
X50728Y13305D01*
X50895Y13472D01*
X51014Y13678D01*
X51075Y13907D01*
Y14143D01*
X51014Y14372D01*
X50895Y14578D01*
X50728Y14745D01*
X50522Y14864D01*
X50293Y14925D01*
X50057D01*
X49828Y14864D01*
X49622Y14745D01*
X49455Y14578D01*
X49400Y14483D01*
X49244D01*
X48700Y15027D01*
Y15668D01*
X49342D01*
X49455Y15472D01*
X49622Y15305D01*
X49828Y15186D01*
X50057Y15125D01*
X50293D01*
X50522Y15186D01*
X50728Y15305D01*
X50895Y15472D01*
X51014Y15678D01*
X51075Y15907D01*
Y16143D01*
X51014Y16372D01*
X50895Y16578D01*
X50728Y16745D01*
X50522Y16864D01*
X50293Y16925D01*
D02*
G37*
G36*
X39700Y16675D02*
X39225D01*
Y16250D01*
X39700D01*
Y16675D01*
D02*
G37*
G36*
X37875Y16675D02*
X37400D01*
Y16250D01*
X37875D01*
Y16675D01*
D02*
G37*
G36*
X35499Y16100D02*
X35301D01*
X35117Y16024D01*
X34976Y15883D01*
X34921Y15750D01*
X34799Y15800D01*
X34601D01*
X34479Y15750D01*
X34424Y15883D01*
X34283Y16024D01*
X34099Y16100D01*
X33901D01*
X33717Y16024D01*
X33576Y15883D01*
X33521Y15750D01*
X33399Y15800D01*
X33201D01*
X33079Y15750D01*
X33024Y15883D01*
X32883Y16024D01*
X32699Y16100D01*
X32501D01*
X32317Y16024D01*
X32176Y15883D01*
X32113Y15730D01*
X32083Y15724D01*
X31899Y15800D01*
X31701D01*
X31517Y15724D01*
X31487Y15730D01*
X31424Y15883D01*
X31283Y16024D01*
X31099Y16100D01*
X30901D01*
X30717Y16024D01*
X30576Y15883D01*
X30500Y15699D01*
Y15501D01*
X30576Y15317D01*
X30717Y15176D01*
X30901Y15100D01*
X31099D01*
X31283Y15176D01*
X31313Y15170D01*
X31376Y15017D01*
X31517Y14876D01*
X31701Y14800D01*
X31899D01*
X32083Y14876D01*
X32224Y15017D01*
X32287Y15170D01*
X32317Y15176D01*
X32501Y15100D01*
X32699D01*
X32821Y15150D01*
X32876Y15017D01*
X33017Y14876D01*
X33201Y14800D01*
X33399D01*
X33583Y14876D01*
X33724Y15017D01*
X33779Y15150D01*
X33901Y15100D01*
X34099D01*
X34221Y15150D01*
X34276Y15017D01*
X34417Y14876D01*
X34601Y14800D01*
X34799D01*
X34983Y14876D01*
X35124Y15017D01*
X35179Y15150D01*
X35301Y15100D01*
X35499D01*
X35683Y15176D01*
X35824Y15317D01*
X35900Y15501D01*
Y15699D01*
X35824Y15883D01*
X35683Y16024D01*
X35499Y16100D01*
D02*
G37*
G36*
X29299Y16200D02*
X29101D01*
X28917Y16124D01*
X28776Y15983D01*
X28700Y15799D01*
Y15601D01*
X28776Y15417D01*
X28917Y15276D01*
X29101Y15200D01*
X29299D01*
X29483Y15276D01*
X29624Y15417D01*
X29700Y15601D01*
Y15799D01*
X29624Y15983D01*
X29483Y16124D01*
X29299Y16200D01*
D02*
G37*
G36*
X17499Y15900D02*
X17301D01*
X17117Y15824D01*
X16976Y15683D01*
X16900Y15499D01*
Y15301D01*
X16976Y15117D01*
X17117Y14976D01*
X17301Y14900D01*
X17499D01*
X17683Y14976D01*
X17824Y15117D01*
X17900Y15301D01*
Y15499D01*
X17824Y15683D01*
X17683Y15824D01*
X17499Y15900D01*
D02*
G37*
G36*
X42825Y15201D02*
X42350D01*
Y14776D01*
X42825D01*
Y15201D01*
D02*
G37*
G36*
X42100D02*
X41625D01*
Y14776D01*
X42100D01*
Y15201D01*
D02*
G37*
G36*
X41263Y15200D02*
X40788D01*
Y14776D01*
X41263D01*
Y15200D01*
D02*
G37*
G36*
X40538D02*
X40063D01*
Y14776D01*
X40538D01*
Y15200D01*
D02*
G37*
G36*
X28099Y15600D02*
X27901D01*
X27717Y15524D01*
X27576Y15383D01*
X27500Y15199D01*
Y15001D01*
X27576Y14817D01*
X27717Y14676D01*
X27901Y14600D01*
X28099D01*
X28283Y14676D01*
X28424Y14817D01*
X28500Y15001D01*
Y15199D01*
X28424Y15383D01*
X28283Y15524D01*
X28099Y15600D01*
D02*
G37*
G36*
X18699D02*
X18501D01*
X18317Y15524D01*
X18176Y15383D01*
X18100Y15199D01*
Y15001D01*
X18176Y14817D01*
X18317Y14676D01*
X18501Y14600D01*
X18699D01*
X18883Y14676D01*
X19024Y14817D01*
X19100Y15001D01*
Y15199D01*
X19024Y15383D01*
X18883Y15524D01*
X18699Y15600D01*
D02*
G37*
G36*
X27299Y14400D02*
X27101D01*
X26917Y14324D01*
X26776Y14183D01*
X26700Y13999D01*
Y13914D01*
X26573Y13861D01*
X26563Y13871D01*
X26315Y14014D01*
X26038Y14088D01*
X25752D01*
X25475Y14014D01*
X25227Y13871D01*
X25024Y13668D01*
X24881Y13420D01*
X24807Y13143D01*
Y12857D01*
X24881Y12580D01*
X25024Y12332D01*
X25227Y12129D01*
X25475Y11986D01*
X25752Y11912D01*
X26038D01*
X26315Y11986D01*
X26563Y12129D01*
X26766Y12332D01*
X26909Y12580D01*
X26983Y12857D01*
Y13143D01*
X26933Y13332D01*
X27039Y13425D01*
X27101Y13400D01*
X27284D01*
X27322Y13375D01*
X27389Y13299D01*
X27347Y13143D01*
Y12857D01*
X27421Y12580D01*
X27564Y12332D01*
X27767Y12129D01*
X28015Y11986D01*
X28292Y11912D01*
X28578D01*
X28855Y11986D01*
X29103Y12129D01*
X29306Y12332D01*
X29449Y12580D01*
X29523Y12857D01*
Y13143D01*
X29449Y13420D01*
X29306Y13668D01*
X29103Y13871D01*
X28855Y14014D01*
X28578Y14088D01*
X28292D01*
X28015Y14014D01*
X27827Y13906D01*
X27700Y13976D01*
Y13999D01*
X27624Y14183D01*
X27483Y14324D01*
X27299Y14400D01*
D02*
G37*
G36*
X18418Y14088D02*
X18400D01*
Y13125D01*
X19363D01*
Y13143D01*
X19289Y13420D01*
X19146Y13668D01*
X18943Y13871D01*
X18695Y14014D01*
X18418Y14088D01*
D02*
G37*
G36*
X18150D02*
X18132D01*
X17855Y14014D01*
X17607Y13871D01*
X17404Y13668D01*
X17261Y13420D01*
X17187Y13143D01*
Y13125D01*
X18150D01*
Y14088D01*
D02*
G37*
G36*
X46100Y12875D02*
X45625D01*
Y12450D01*
X46100D01*
Y12875D01*
D02*
G37*
G36*
X44075Y12875D02*
X43600D01*
Y12450D01*
X44075D01*
Y12875D01*
D02*
G37*
G36*
X38738Y14088D02*
X38452D01*
X38175Y14014D01*
X37927Y13871D01*
X37724Y13668D01*
X37581Y13420D01*
X37507Y13143D01*
Y12857D01*
X37581Y12580D01*
X37724Y12332D01*
X37927Y12129D01*
X38175Y11986D01*
X38452Y11912D01*
X38738D01*
X39015Y11986D01*
X39263Y12129D01*
X39466Y12332D01*
X39609Y12580D01*
X39683Y12857D01*
Y13143D01*
X39609Y13420D01*
X39466Y13668D01*
X39263Y13871D01*
X39015Y14014D01*
X38738Y14088D01*
D02*
G37*
G36*
X36198D02*
X35912D01*
X35635Y14014D01*
X35387Y13871D01*
X35184Y13668D01*
X35041Y13420D01*
X34967Y13143D01*
Y12857D01*
X35041Y12580D01*
X35184Y12332D01*
X35387Y12129D01*
X35635Y11986D01*
X35912Y11912D01*
X36198D01*
X36475Y11986D01*
X36723Y12129D01*
X36926Y12332D01*
X37069Y12580D01*
X37143Y12857D01*
Y13143D01*
X37069Y13420D01*
X36926Y13668D01*
X36723Y13871D01*
X36475Y14014D01*
X36198Y14088D01*
D02*
G37*
G36*
X33658D02*
X33372D01*
X33095Y14014D01*
X32847Y13871D01*
X32644Y13668D01*
X32501Y13420D01*
X32427Y13143D01*
Y12857D01*
X32501Y12580D01*
X32644Y12332D01*
X32847Y12129D01*
X33095Y11986D01*
X33372Y11912D01*
X33658D01*
X33935Y11986D01*
X34183Y12129D01*
X34386Y12332D01*
X34529Y12580D01*
X34603Y12857D01*
Y13143D01*
X34529Y13420D01*
X34386Y13668D01*
X34183Y13871D01*
X33935Y14014D01*
X33658Y14088D01*
D02*
G37*
G36*
X31118D02*
X30832D01*
X30555Y14014D01*
X30307Y13871D01*
X30104Y13668D01*
X29961Y13420D01*
X29887Y13143D01*
Y12857D01*
X29961Y12580D01*
X30104Y12332D01*
X30307Y12129D01*
X30555Y11986D01*
X30832Y11912D01*
X31118D01*
X31395Y11986D01*
X31643Y12129D01*
X31846Y12332D01*
X31989Y12580D01*
X32063Y12857D01*
Y13143D01*
X31989Y13420D01*
X31846Y13668D01*
X31643Y13871D01*
X31395Y14014D01*
X31118Y14088D01*
D02*
G37*
G36*
X20958D02*
X20672D01*
X20395Y14014D01*
X20147Y13871D01*
X19944Y13668D01*
X19801Y13420D01*
X19727Y13143D01*
Y12857D01*
X19801Y12580D01*
X19944Y12332D01*
X20147Y12129D01*
X20395Y11986D01*
X20672Y11912D01*
X20958D01*
X21235Y11986D01*
X21483Y12129D01*
X21686Y12332D01*
X21829Y12580D01*
X21903Y12857D01*
Y13143D01*
X21829Y13420D01*
X21686Y13668D01*
X21483Y13871D01*
X21235Y14014D01*
X20958Y14088D01*
D02*
G37*
G36*
X19363Y12875D02*
X18400D01*
Y11912D01*
X18418D01*
X18695Y11986D01*
X18943Y12129D01*
X19146Y12332D01*
X19289Y12580D01*
X19363Y12857D01*
Y12875D01*
D02*
G37*
G36*
X18150D02*
X17187D01*
Y12857D01*
X17261Y12580D01*
X17404Y12332D01*
X17607Y12129D01*
X17855Y11986D01*
X18132Y11912D01*
X18150D01*
Y12875D01*
D02*
G37*
G36*
X15878Y14088D02*
X15592D01*
X15315Y14014D01*
X15067Y13871D01*
X14864Y13668D01*
X14721Y13420D01*
X14647Y13143D01*
Y12857D01*
X14721Y12580D01*
X14864Y12332D01*
X15067Y12129D01*
X15315Y11986D01*
X15592Y11912D01*
X15878D01*
X16155Y11986D01*
X16403Y12129D01*
X16606Y12332D01*
X16749Y12580D01*
X16823Y12857D01*
Y13143D01*
X16749Y13420D01*
X16606Y13668D01*
X16403Y13871D01*
X16155Y14014D01*
X15878Y14088D01*
D02*
G37*
G36*
X13338D02*
X13052D01*
X12775Y14014D01*
X12527Y13871D01*
X12324Y13668D01*
X12181Y13420D01*
X12107Y13143D01*
Y12857D01*
X12181Y12580D01*
X12324Y12332D01*
X12527Y12129D01*
X12775Y11986D01*
X13052Y11912D01*
X13338D01*
X13615Y11986D01*
X13863Y12129D01*
X14066Y12332D01*
X14209Y12580D01*
X14283Y12857D01*
Y13143D01*
X14209Y13420D01*
X14111Y13590D01*
X14154Y13746D01*
D01*
X14159Y13751D01*
X14206Y13865D01*
Y13881D01*
X14216Y13904D01*
Y13914D01*
X14168Y14028D01*
X14054Y14076D01*
X14049D01*
X13934Y14028D01*
X13923Y14001D01*
X13920Y14000D01*
X13915Y13988D01*
X13755Y13933D01*
X13615Y14014D01*
X13338Y14088D01*
D02*
G37*
G36*
X50293Y12925D02*
X50057D01*
X49828Y12864D01*
X49622Y12745D01*
X49455Y12578D01*
X49336Y12372D01*
X49275Y12143D01*
Y11907D01*
X49336Y11678D01*
X49455Y11472D01*
X49622Y11305D01*
X49828Y11186D01*
X50057Y11125D01*
X50293D01*
X50522Y11186D01*
X50728Y11305D01*
X50895Y11472D01*
X51014Y11678D01*
X51075Y11907D01*
Y12143D01*
X51014Y12372D01*
X50895Y12578D01*
X50728Y12745D01*
X50522Y12864D01*
X50293Y12925D01*
D02*
G37*
G36*
X11299Y9600D02*
X11101D01*
X10917Y9524D01*
X10776Y9383D01*
X10700Y9199D01*
Y9001D01*
X10776Y8817D01*
X10917Y8676D01*
X11101Y8600D01*
X11299D01*
X11483Y8676D01*
X11624Y8817D01*
X11700Y9001D01*
Y9199D01*
X11624Y9383D01*
X11483Y9524D01*
X11299Y9600D01*
D02*
G37*
G36*
X4611Y10200D02*
X4480D01*
Y7075D01*
X7605D01*
Y7206D01*
X7525Y7711D01*
X7367Y8198D01*
X7135Y8653D01*
X6834Y9067D01*
X6472Y9429D01*
X6058Y9730D01*
X5603Y9962D01*
X5116Y10120D01*
X4611Y10200D01*
D02*
G37*
G36*
X4230D02*
X4099D01*
X3594Y10120D01*
X3107Y9962D01*
X2652Y9730D01*
X2238Y9429D01*
X1876Y9067D01*
X1575Y8653D01*
X1343Y8198D01*
X1185Y7711D01*
X1105Y7206D01*
Y7075D01*
X4230D01*
Y10200D01*
D02*
G37*
G36*
X20399Y7500D02*
X20201D01*
X20017Y7424D01*
X19876Y7283D01*
X19800Y7099D01*
Y6901D01*
X19876Y6717D01*
X20017Y6576D01*
X20201Y6500D01*
X20399D01*
X20583Y6576D01*
X20724Y6717D01*
X20800Y6901D01*
Y7099D01*
X20724Y7283D01*
X20583Y7424D01*
X20399Y7500D01*
D02*
G37*
%LPD*%
G36*
X25015Y38429D02*
X25037Y38406D01*
X25084Y38289D01*
X25025Y38147D01*
X24998Y37945D01*
Y36895D01*
X25025Y36693D01*
X25103Y36504D01*
X25227Y36342D01*
X25389Y36218D01*
X25578Y36140D01*
X25780Y36113D01*
X25982Y36140D01*
X26171Y36218D01*
X26223Y36258D01*
X26350Y36195D01*
Y36030D01*
X26775D01*
Y36850D01*
X27025D01*
Y36030D01*
X27190D01*
Y35900D01*
X27200Y35851D01*
Y35801D01*
X27219Y35754D01*
X27229Y35705D01*
X27257Y35663D01*
X27276Y35617D01*
X27312Y35581D01*
X27340Y35540D01*
X27381Y35512D01*
X27417Y35476D01*
X27463Y35457D01*
X27505Y35429D01*
X27554Y35419D01*
X27601Y35400D01*
X27651D01*
X27700Y35390D01*
X27749Y35400D01*
X27799D01*
X27846Y35419D01*
X27895Y35429D01*
X27937Y35457D01*
X27983Y35476D01*
X28019Y35512D01*
X28060Y35540D01*
X28088Y35581D01*
X28124Y35617D01*
X28143Y35663D01*
X28171Y35705D01*
X28181Y35754D01*
X28200Y35801D01*
Y35851D01*
X28210Y35900D01*
Y36030D01*
X28942D01*
Y35745D01*
X28405Y35208D01*
X25609D01*
X24700Y36117D01*
Y36140D01*
X24624Y36323D01*
X24582Y36365D01*
X24624Y36407D01*
X24700Y36591D01*
Y36790D01*
X24624Y36973D01*
X24584Y37013D01*
Y38041D01*
X24979Y38435D01*
X25015Y38429D01*
D02*
G37*
G36*
X4000Y35200D02*
X2859D01*
X1709Y34050D01*
X1475D01*
Y36075D01*
X4000D01*
Y35200D01*
D02*
G37*
G36*
X14054Y13909D02*
Y13904D01*
X14049D01*
Y13914D01*
X14054D01*
Y13909D01*
D02*
G37*
G36*
X14044Y13865D02*
X14039D01*
Y13861D01*
X14034D01*
Y13885D01*
X14039D01*
Y13890D01*
X14044D01*
Y13865D01*
D02*
G37*
%LPC*%
G36*
X37619Y3087D02*
X37467D01*
X37460Y3070D01*
X37453Y3054D01*
X37435Y3025D01*
X37416Y2998D01*
X37396Y2975D01*
X37386Y2965D01*
X37378Y2956D01*
X37371Y2948D01*
X37363Y2941D01*
X37358Y2936D01*
X37354Y2933D01*
X37351Y2931D01*
X37350Y2930D01*
X37318Y2906D01*
X37288Y2887D01*
X37262Y2872D01*
X37239Y2860D01*
X37228Y2855D01*
X37218Y2850D01*
X37211Y2847D01*
X37204Y2844D01*
X37198Y2842D01*
X37194Y2841D01*
X37192Y2840D01*
X37191D01*
Y2670D01*
X37216Y2679D01*
X37241Y2689D01*
X37265Y2699D01*
X37287Y2711D01*
X37308Y2723D01*
X37328Y2734D01*
X37346Y2746D01*
X37363Y2757D01*
X37379Y2768D01*
X37392Y2779D01*
X37404Y2788D01*
X37414Y2795D01*
X37421Y2802D01*
X37428Y2807D01*
X37431Y2810D01*
X37432Y2811D01*
Y2109D01*
X37191D01*
X37619D01*
Y3087D01*
D02*
G37*
G36*
X15809Y2841D02*
D01*
Y2357D01*
X15626Y2389D01*
X15619Y2363D01*
X15612Y2341D01*
X15603Y2323D01*
X15596Y2308D01*
X15589Y2298D01*
X15582Y2290D01*
X15578Y2285D01*
X15577Y2284D01*
X15563Y2275D01*
X15550Y2267D01*
X15535Y2262D01*
X15521Y2259D01*
X15509Y2257D01*
X15499Y2254D01*
X15490D01*
X15478Y2256D01*
X15465Y2257D01*
X15442Y2263D01*
X15423Y2271D01*
X15407Y2281D01*
X15393Y2290D01*
X15384Y2298D01*
X15378Y2304D01*
X15376Y2305D01*
Y2306D01*
X15369Y2317D01*
X15363Y2328D01*
X15357Y2342D01*
X15352Y2356D01*
X15346Y2385D01*
X15340Y2414D01*
X15338Y2429D01*
X15337Y2441D01*
X15336Y2453D01*
Y2464D01*
X15335Y2472D01*
Y2478D01*
Y2483D01*
Y2484D01*
Y2504D01*
X15337Y2523D01*
X15339Y2541D01*
X15341Y2557D01*
X15345Y2571D01*
X15348Y2584D01*
X15352Y2597D01*
X15356Y2607D01*
X15359Y2616D01*
X15364Y2624D01*
X15367Y2631D01*
X15370Y2636D01*
X15372Y2640D01*
X15374Y2643D01*
X15376Y2644D01*
Y2645D01*
X15385Y2654D01*
X15393Y2661D01*
X15411Y2674D01*
X15429Y2682D01*
X15447Y2688D01*
X15463Y2692D01*
X15470Y2693D01*
X15476D01*
X15481Y2694D01*
X15487D01*
X15506Y2693D01*
X15523Y2690D01*
X15538Y2684D01*
X15550Y2680D01*
X15560Y2675D01*
X15566Y2670D01*
X15572Y2667D01*
X15573Y2665D01*
X15584Y2654D01*
X15594Y2641D01*
X15601Y2627D01*
X15608Y2615D01*
X15611Y2603D01*
X15614Y2593D01*
X15616Y2586D01*
Y2585D01*
Y2584D01*
X15800Y2617D01*
X15794Y2637D01*
X15785Y2657D01*
X15778Y2674D01*
X15768Y2691D01*
X15760Y2706D01*
X15750Y2719D01*
X15741Y2732D01*
X15732Y2744D01*
X15724Y2753D01*
X15717Y2762D01*
X15709Y2769D01*
X15703Y2774D01*
X15697Y2780D01*
X15693Y2783D01*
X15691Y2784D01*
X15690Y2785D01*
X15675Y2794D01*
X15659Y2804D01*
X15643Y2811D01*
X15626Y2818D01*
X15592Y2827D01*
X15559Y2833D01*
X15544Y2837D01*
X15529Y2838D01*
X15518Y2839D01*
X15506Y2840D01*
X15498Y2841D01*
X15144D01*
X15485D01*
X15457Y2840D01*
X15429Y2837D01*
X15404Y2831D01*
X15379Y2826D01*
X15357Y2818D01*
X15337Y2810D01*
X15318Y2801D01*
X15301Y2792D01*
X15286Y2783D01*
X15273Y2773D01*
X15262Y2766D01*
X15253Y2758D01*
X15245Y2752D01*
X15240Y2747D01*
X15237Y2744D01*
X15236Y2743D01*
X15220Y2724D01*
X15205Y2704D01*
X15193Y2681D01*
X15183Y2659D01*
X15173Y2636D01*
X15166Y2614D01*
X15161Y2592D01*
X15155Y2570D01*
X15151Y2549D01*
X15149Y2530D01*
X15147Y2513D01*
X15145Y2499D01*
Y2487D01*
X15144Y2477D01*
Y2470D01*
X15145Y2438D01*
X15148Y2409D01*
X15152Y2381D01*
X15159Y2355D01*
X15165Y2331D01*
X15173Y2308D01*
X15181Y2288D01*
X15190Y2270D01*
X15199Y2254D01*
X15207Y2240D01*
X15215Y2228D01*
X15221Y2217D01*
X15227Y2210D01*
X15232Y2204D01*
X15235Y2201D01*
X15236Y2200D01*
X15254Y2183D01*
X15273Y2168D01*
X15293Y2154D01*
X15313Y2144D01*
X15334Y2134D01*
X15354Y2126D01*
X15374Y2119D01*
X15393Y2115D01*
X15411Y2111D01*
X15428Y2108D01*
X15444Y2105D01*
X15457Y2103D01*
X15467D01*
X15476Y2102D01*
X15144D01*
X15482D01*
X15507Y2103D01*
X15531Y2105D01*
X15553Y2109D01*
X15573Y2112D01*
X15593Y2117D01*
X15611Y2122D01*
X15627Y2128D01*
X15641Y2134D01*
X15654Y2140D01*
X15666Y2146D01*
X15675Y2151D01*
X15684Y2156D01*
X15690Y2159D01*
X15695Y2163D01*
X15697Y2165D01*
X15699Y2166D01*
X15713Y2178D01*
X15727Y2192D01*
X15739Y2207D01*
X15750Y2223D01*
X15761Y2239D01*
X15769Y2254D01*
X15784Y2285D01*
X15790Y2300D01*
X15796Y2314D01*
X15800Y2325D01*
X15803Y2336D01*
X15806Y2345D01*
X15808Y2352D01*
X15809Y2356D01*
Y2210D01*
Y2841D01*
D02*
G37*
G36*
X15052D02*
D01*
Y2357D01*
X14868Y2389D01*
X14862Y2363D01*
X14854Y2341D01*
X14846Y2323D01*
X14838Y2308D01*
X14831Y2298D01*
X14825Y2290D01*
X14820Y2285D01*
X14819Y2284D01*
X14806Y2275D01*
X14792Y2267D01*
X14777Y2262D01*
X14763Y2259D01*
X14752Y2257D01*
X14741Y2254D01*
X14733D01*
X14720Y2256D01*
X14707Y2257D01*
X14684Y2263D01*
X14665Y2271D01*
X14649Y2281D01*
X14636Y2290D01*
X14626Y2298D01*
X14621Y2304D01*
X14619Y2305D01*
Y2306D01*
X14611Y2317D01*
X14605Y2328D01*
X14600Y2342D01*
X14594Y2356D01*
X14588Y2385D01*
X14583Y2414D01*
X14581Y2429D01*
X14580Y2441D01*
X14578Y2453D01*
Y2464D01*
X14577Y2472D01*
Y2478D01*
Y2483D01*
Y2484D01*
Y2504D01*
X14580Y2523D01*
X14582Y2541D01*
X14584Y2557D01*
X14587Y2571D01*
X14590Y2584D01*
X14594Y2597D01*
X14599Y2607D01*
X14602Y2616D01*
X14606Y2624D01*
X14609Y2631D01*
X14612Y2636D01*
X14614Y2640D01*
X14617Y2643D01*
X14619Y2644D01*
Y2645D01*
X14627Y2654D01*
X14636Y2661D01*
X14654Y2674D01*
X14671Y2682D01*
X14689Y2688D01*
X14705Y2692D01*
X14713Y2693D01*
X14718D01*
X14723Y2694D01*
X14730D01*
X14749Y2693D01*
X14766Y2690D01*
X14780Y2684D01*
X14792Y2680D01*
X14803Y2675D01*
X14809Y2670D01*
X14814Y2667D01*
X14815Y2665D01*
X14827Y2654D01*
X14836Y2641D01*
X14844Y2627D01*
X14850Y2615D01*
X14853Y2603D01*
X14856Y2593D01*
X14859Y2586D01*
Y2585D01*
Y2584D01*
X15042Y2617D01*
X15036Y2637D01*
X15028Y2657D01*
X15020Y2674D01*
X15011Y2691D01*
X15002Y2706D01*
X14993Y2719D01*
X14983Y2732D01*
X14975Y2744D01*
X14966Y2753D01*
X14959Y2762D01*
X14951Y2769D01*
X14945Y2774D01*
X14940Y2780D01*
X14936Y2783D01*
X14934Y2784D01*
X14932Y2785D01*
X14918Y2794D01*
X14902Y2804D01*
X14885Y2811D01*
X14868Y2818D01*
X14834Y2827D01*
X14801Y2833D01*
X14787Y2837D01*
X14772Y2838D01*
X14760Y2839D01*
X14749Y2840D01*
X14740Y2841D01*
X14386D01*
X14727D01*
X14699Y2840D01*
X14671Y2837D01*
X14646Y2831D01*
X14622Y2826D01*
X14600Y2818D01*
X14580Y2810D01*
X14561Y2801D01*
X14544Y2792D01*
X14529Y2783D01*
X14515Y2773D01*
X14505Y2766D01*
X14495Y2758D01*
X14488Y2752D01*
X14482Y2747D01*
X14479Y2744D01*
X14478Y2743D01*
X14462Y2724D01*
X14447Y2704D01*
X14436Y2681D01*
X14425Y2659D01*
X14416Y2636D01*
X14408Y2614D01*
X14403Y2592D01*
X14398Y2570D01*
X14394Y2549D01*
X14391Y2530D01*
X14389Y2513D01*
X14387Y2499D01*
Y2487D01*
X14386Y2477D01*
Y2470D01*
X14387Y2438D01*
X14390Y2409D01*
X14395Y2381D01*
X14401Y2355D01*
X14407Y2331D01*
X14416Y2308D01*
X14423Y2288D01*
X14433Y2270D01*
X14441Y2254D01*
X14450Y2240D01*
X14457Y2228D01*
X14463Y2217D01*
X14470Y2210D01*
X14474Y2204D01*
X14477Y2201D01*
X14478Y2200D01*
X14496Y2183D01*
X14515Y2168D01*
X14535Y2154D01*
X14555Y2144D01*
X14576Y2134D01*
X14596Y2126D01*
X14617Y2119D01*
X14636Y2115D01*
X14654Y2111D01*
X14670Y2108D01*
X14686Y2105D01*
X14699Y2103D01*
X14710D01*
X14718Y2102D01*
X14386D01*
X14724D01*
X14750Y2103D01*
X14773Y2105D01*
X14795Y2109D01*
X14815Y2112D01*
X14835Y2117D01*
X14853Y2122D01*
X14869Y2128D01*
X14884Y2134D01*
X14897Y2140D01*
X14908Y2146D01*
X14918Y2151D01*
X14926Y2156D01*
X14932Y2159D01*
X14938Y2163D01*
X14940Y2165D01*
X14941Y2166D01*
X14956Y2178D01*
X14969Y2192D01*
X14981Y2207D01*
X14993Y2223D01*
X15003Y2239D01*
X15012Y2254D01*
X15027Y2285D01*
X15033Y2300D01*
X15038Y2314D01*
X15042Y2325D01*
X15046Y2336D01*
X15049Y2345D01*
X15051Y2352D01*
X15052Y2356D01*
Y2270D01*
Y2356D01*
Y2841D01*
D02*
G37*
G36*
X14328Y3093D02*
X14119D01*
X13880Y2372D01*
X13633Y3093D01*
X13949D01*
X13420D01*
X13768Y2118D01*
X13420D01*
X14328D01*
D01*
X13979D01*
X14328Y3093D01*
D02*
G37*
G36*
X26323Y3087D02*
D01*
Y2816D01*
X26322Y2837D01*
X26319Y2857D01*
X26315Y2876D01*
X26310Y2895D01*
X26304Y2912D01*
X26296Y2928D01*
X26289Y2942D01*
X26281Y2955D01*
X26273Y2968D01*
X26266Y2978D01*
X26258Y2988D01*
X26252Y2995D01*
X26247Y3000D01*
X26242Y3006D01*
X26240Y3008D01*
X26239Y3009D01*
X26223Y3023D01*
X26205Y3034D01*
X26187Y3045D01*
X26169Y3054D01*
X26150Y3062D01*
X26131Y3068D01*
X26113Y3073D01*
X26095Y3078D01*
X26079Y3081D01*
X26063Y3083D01*
X26049Y3085D01*
X26037Y3086D01*
X26027Y3087D01*
X25992D01*
X26013D01*
X25989Y3086D01*
X25965Y3084D01*
X25943Y3081D01*
X25923Y3077D01*
X25903Y3071D01*
X25885Y3066D01*
X25869Y3060D01*
X25853Y3053D01*
X25840Y3047D01*
X25828Y3041D01*
X25818Y3035D01*
X25809Y3030D01*
X25803Y3026D01*
X25797Y3023D01*
X25794Y3021D01*
X25793Y3019D01*
X25777Y3006D01*
X25764Y2991D01*
X25751Y2974D01*
X25740Y2956D01*
X25731Y2938D01*
X25722Y2919D01*
X25715Y2901D01*
X25709Y2883D01*
X25703Y2866D01*
X25699Y2850D01*
X25696Y2836D01*
X25694Y2823D01*
X25692Y2812D01*
X25691Y2804D01*
X25690Y2800D01*
Y2798D01*
X25876Y2780D01*
X25877Y2794D01*
X25879Y2808D01*
X25884Y2832D01*
X25890Y2853D01*
X25897Y2868D01*
X25904Y2881D01*
X25909Y2889D01*
X25914Y2894D01*
X25915Y2896D01*
X25928Y2907D01*
X25944Y2917D01*
X25960Y2923D01*
X25975Y2928D01*
X25989Y2930D01*
X25999Y2932D01*
X26009D01*
X26030Y2931D01*
X26048Y2926D01*
X26064Y2921D01*
X26077Y2915D01*
X26088Y2909D01*
X26095Y2903D01*
X26101Y2899D01*
X26102Y2898D01*
X26113Y2884D01*
X26122Y2868D01*
X26127Y2853D01*
X26131Y2838D01*
X26133Y2823D01*
X26136Y2812D01*
Y2808D01*
Y2805D01*
Y2803D01*
Y2802D01*
X26133Y2781D01*
X26129Y2760D01*
X26123Y2740D01*
X26117Y2724D01*
X26109Y2709D01*
X26103Y2697D01*
X26100Y2693D01*
X26099Y2690D01*
X26096Y2689D01*
Y2688D01*
X26090Y2679D01*
X26082Y2669D01*
X26071Y2657D01*
X26061Y2645D01*
X26035Y2619D01*
X26008Y2593D01*
X25995Y2580D01*
X25982Y2567D01*
X25972Y2557D01*
X25961Y2547D01*
X25953Y2540D01*
X25946Y2533D01*
X25942Y2529D01*
X25941Y2528D01*
X25913Y2502D01*
X25887Y2476D01*
X25863Y2452D01*
X25842Y2430D01*
X25823Y2410D01*
X25806Y2390D01*
X25790Y2373D01*
X25777Y2357D01*
X25766Y2342D01*
X25756Y2331D01*
X25748Y2319D01*
X25741Y2310D01*
X25737Y2304D01*
X25733Y2299D01*
X25732Y2296D01*
X25731Y2295D01*
X25713Y2262D01*
X25699Y2229D01*
X25688Y2197D01*
X25679Y2169D01*
X25676Y2156D01*
X25674Y2145D01*
X25672Y2134D01*
X25670Y2126D01*
X25669Y2118D01*
Y2113D01*
X25667Y2110D01*
Y2109D01*
X26323D01*
Y3087D01*
D02*
G37*
%LPD*%
G36*
Y2282D02*
X25951D01*
X25963Y2300D01*
X25970Y2308D01*
X25975Y2317D01*
X25980Y2323D01*
X25984Y2328D01*
X25988Y2332D01*
X25989Y2333D01*
X25994Y2338D01*
X26000Y2345D01*
X26008Y2353D01*
X26016Y2361D01*
X26034Y2379D01*
X26053Y2397D01*
X26071Y2414D01*
X26080Y2421D01*
X26087Y2428D01*
X26092Y2433D01*
X26096Y2437D01*
X26100Y2439D01*
X26101Y2440D01*
X26117Y2455D01*
X26131Y2469D01*
X26145Y2483D01*
X26158Y2494D01*
X26168Y2506D01*
X26179Y2515D01*
X26187Y2525D01*
X26196Y2533D01*
X26207Y2547D01*
X26217Y2557D01*
X26221Y2563D01*
X26223Y2565D01*
X26241Y2589D01*
X26257Y2613D01*
X26270Y2634D01*
X26280Y2652D01*
X26288Y2668D01*
X26291Y2674D01*
X26294Y2679D01*
X26296Y2683D01*
X26297Y2688D01*
X26298Y2689D01*
Y2690D01*
X26307Y2712D01*
X26312Y2734D01*
X26316Y2755D01*
X26319Y2775D01*
X26322Y2791D01*
Y2799D01*
X26323Y2804D01*
Y2282D01*
D02*
G37*
%LPC*%
G36*
X47961Y3096D02*
X47329D01*
X47644D01*
X47619Y3095D01*
X47595Y3092D01*
X47572Y3087D01*
X47550Y3080D01*
X47530Y3073D01*
X47512Y3064D01*
X47495Y3055D01*
X47481Y3046D01*
X47468Y3037D01*
X47456Y3027D01*
X47447Y3019D01*
X47438Y3012D01*
X47432Y3005D01*
X47428Y3000D01*
X47425Y2997D01*
X47424Y2996D01*
X47407Y2971D01*
X47392Y2944D01*
X47379Y2914D01*
X47369Y2883D01*
X47359Y2850D01*
X47352Y2817D01*
X47345Y2784D01*
X47340Y2752D01*
X47337Y2721D01*
X47334Y2692D01*
X47332Y2667D01*
X47330Y2644D01*
Y2634D01*
Y2626D01*
X47329Y2618D01*
Y2599D01*
X47330Y2549D01*
X47333Y2502D01*
X47337Y2459D01*
X47342Y2420D01*
X47349Y2384D01*
X47356Y2352D01*
X47363Y2324D01*
X47372Y2298D01*
X47380Y2277D01*
X47388Y2258D01*
X47395Y2242D01*
X47401Y2230D01*
X47407Y2220D01*
X47412Y2214D01*
X47414Y2210D01*
X47415Y2208D01*
X47432Y2189D01*
X47450Y2173D01*
X47469Y2158D01*
X47488Y2145D01*
X47507Y2136D01*
X47526Y2126D01*
X47544Y2119D01*
X47562Y2113D01*
X47579Y2109D01*
X47595Y2105D01*
X47609Y2103D01*
X47621Y2102D01*
X47631Y2101D01*
X47638Y2100D01*
X47329D01*
X47644D01*
X47670Y2101D01*
X47694Y2104D01*
X47717Y2109D01*
X47739Y2115D01*
X47759Y2123D01*
X47777Y2131D01*
X47793Y2140D01*
X47808Y2149D01*
X47821Y2159D01*
X47833Y2167D01*
X47843Y2176D01*
X47851Y2183D01*
X47857Y2189D01*
X47862Y2195D01*
X47864Y2198D01*
X47865Y2199D01*
X47882Y2223D01*
X47897Y2251D01*
X47910Y2281D01*
X47921Y2312D01*
X47930Y2345D01*
X47938Y2379D01*
X47945Y2411D01*
X47950Y2444D01*
X47953Y2475D01*
X47956Y2503D01*
X47958Y2530D01*
X47960Y2552D01*
Y2562D01*
Y2571D01*
X47961Y2578D01*
Y2599D01*
Y2597D01*
X47960Y2647D01*
X47957Y2693D01*
X47953Y2737D01*
X47947Y2776D01*
X47939Y2812D01*
X47932Y2845D01*
X47922Y2874D01*
X47914Y2900D01*
X47905Y2923D01*
X47897Y2942D01*
X47889Y2959D01*
X47881Y2971D01*
X47875Y2982D01*
X47871Y2989D01*
X47867Y2994D01*
X47866Y2995D01*
X47851Y3013D01*
X47834Y3028D01*
X47816Y3042D01*
X47798Y3054D01*
X47780Y3063D01*
X47761Y3072D01*
X47743Y3078D01*
X47726Y3083D01*
X47709Y3088D01*
X47693Y3091D01*
X47679Y3093D01*
X47668Y3095D01*
X47658D01*
X47651Y3096D01*
X47961D01*
D02*
G37*
G36*
X47329Y2522D02*
Y2100D01*
D01*
Y2522D01*
D02*
G37*
%LPD*%
G36*
X47657Y2940D02*
X47668Y2938D01*
X47678Y2933D01*
X47688Y2930D01*
X47694Y2926D01*
X47700Y2922D01*
X47704Y2920D01*
X47705Y2919D01*
X47714Y2909D01*
X47723Y2896D01*
X47730Y2883D01*
X47736Y2868D01*
X47742Y2854D01*
X47745Y2844D01*
X47746Y2839D01*
X47747Y2836D01*
X47748Y2834D01*
Y2833D01*
X47751Y2819D01*
X47754Y2804D01*
X47756Y2788D01*
X47759Y2769D01*
X47762Y2730D01*
X47764Y2691D01*
X47765Y2672D01*
Y2655D01*
X47766Y2639D01*
Y2625D01*
Y2613D01*
Y2605D01*
Y2599D01*
Y2597D01*
Y2567D01*
X47765Y2537D01*
X47764Y2511D01*
X47763Y2486D01*
X47762Y2464D01*
X47760Y2444D01*
X47758Y2426D01*
X47756Y2410D01*
X47754Y2397D01*
X47752Y2385D01*
X47750Y2375D01*
X47749Y2367D01*
X47748Y2361D01*
X47747Y2356D01*
X47746Y2354D01*
Y2353D01*
X47740Y2334D01*
X47733Y2317D01*
X47727Y2305D01*
X47720Y2294D01*
X47714Y2286D01*
X47709Y2280D01*
X47706Y2277D01*
X47705Y2276D01*
X47694Y2269D01*
X47685Y2263D01*
X47674Y2260D01*
X47665Y2258D01*
X47656Y2256D01*
X47650Y2255D01*
X47644D01*
X47632Y2256D01*
X47621Y2258D01*
X47611Y2261D01*
X47602Y2266D01*
X47595Y2270D01*
X47588Y2273D01*
X47585Y2275D01*
X47584Y2276D01*
X47575Y2286D01*
X47566Y2298D01*
X47559Y2312D01*
X47553Y2327D01*
X47547Y2340D01*
X47544Y2350D01*
X47543Y2354D01*
X47542Y2357D01*
X47541Y2360D01*
Y2361D01*
X47538Y2374D01*
X47536Y2389D01*
X47534Y2406D01*
X47531Y2425D01*
X47528Y2464D01*
X47526Y2503D01*
X47525Y2522D01*
Y2539D01*
Y2555D01*
X47524Y2570D01*
Y2581D01*
Y2590D01*
Y2595D01*
Y2597D01*
Y2628D01*
X47525Y2657D01*
X47526Y2684D01*
X47527Y2707D01*
X47528Y2729D01*
X47530Y2749D01*
X47531Y2767D01*
X47534Y2783D01*
X47536Y2797D01*
X47537Y2810D01*
X47539Y2819D01*
X47540Y2828D01*
X47541Y2834D01*
X47542Y2838D01*
X47543Y2840D01*
Y2841D01*
X47549Y2860D01*
X47556Y2877D01*
X47563Y2890D01*
X47569Y2901D01*
X47575Y2909D01*
X47580Y2914D01*
X47583Y2917D01*
X47584Y2919D01*
X47595Y2926D01*
X47604Y2931D01*
X47615Y2935D01*
X47624Y2938D01*
X47633Y2940D01*
X47639Y2941D01*
X47644D01*
X47657Y2940D01*
D02*
G37*
D11*
X4200Y31800D02*
X6919D01*
X4200Y26800D02*
X7119D01*
X16400Y19600D02*
Y21119D01*
X16500Y21219D01*
Y21300D01*
X13500Y19100D02*
Y20900D01*
X4200Y25500D02*
X6800D01*
X22100Y21500D02*
X24300D01*
X21800Y21800D02*
X22100Y21500D01*
X9500Y18950D02*
X9700Y19150D01*
X9500Y17200D02*
Y18950D01*
X4100Y28000D02*
X7300D01*
X9700Y19150D02*
Y22000D01*
X4165Y30600D02*
X7300D01*
X4125Y30560D02*
X4165Y30600D01*
X4400Y29300D02*
X7119D01*
X21800Y23000D02*
X23400D01*
X17600Y19400D02*
Y20700D01*
X21600Y26800D02*
X21616Y26816D01*
X23200D01*
X21625Y35640D02*
X22860D01*
X18600Y19200D02*
Y20700D01*
X4000Y33200D02*
X4200Y33000D01*
X6900D01*
X20100Y34500D02*
X21500D01*
X19900Y24400D02*
X21700D01*
X4200Y24200D02*
X8600D01*
X21500Y25500D02*
X22819D01*
X4000Y22900D02*
X5183D01*
X21600Y30600D02*
X22900D01*
X21700Y28100D02*
X23600D01*
X21500Y21700D02*
X21600Y21600D01*
X15900Y19100D02*
X16400Y19600D01*
X17300Y19100D02*
X17600Y19400D01*
X21500Y34500D02*
X21600Y34400D01*
X21700Y24400D02*
X21800Y24300D01*
X9700Y19000D02*
Y19150D01*
X13500Y19100D02*
X13600Y19000D01*
X23500Y29200D02*
X23900Y28800D01*
X21700Y29200D02*
X23500D01*
X21600Y29300D02*
X21700Y29200D01*
X22900Y30600D02*
X23900Y29600D01*
X5583Y23300D02*
X7600D01*
X5183Y22900D02*
X5583Y23300D01*
X22919Y25600D02*
X23000D01*
X22819Y25500D02*
X22919Y25600D01*
X8600Y24200D02*
X9400Y25000D01*
X22860Y35640D02*
X23200Y35300D01*
X7219Y29200D02*
X7300D01*
X7119Y29300D02*
X7219Y29200D01*
X6800Y25500D02*
X7300Y26000D01*
X7219Y26700D02*
X7300D01*
X7119Y26800D02*
X7219Y26700D01*
X7019Y31900D02*
X7100D01*
X6919Y31800D02*
X7019Y31900D01*
X21500Y11145D02*
X23355Y13000D01*
X21500Y8300D02*
Y11145D01*
X23355Y13000D02*
X23400D01*
X23300Y13100D02*
X23329Y13071D01*
X16400Y17200D02*
X16400Y17200D01*
X15400Y17200D02*
X16400D01*
X12000Y17900D02*
X12600D01*
X48100Y16000D02*
X48125Y16025D01*
X50075D01*
X50100Y16000D01*
X40750Y36050D02*
X40943Y35857D01*
X41343D01*
X41400Y35800D01*
X40600Y36150D02*
Y36200D01*
Y36150D02*
X40700Y36050D01*
X40750D01*
X8300Y15400D02*
Y16200D01*
X8300Y16200D01*
X10700Y15400D02*
Y16200D01*
X39200Y33100D02*
X41100D01*
X41225Y33225D02*
Y34500D01*
X41100Y33100D02*
X41225Y33225D01*
X40663Y16626D02*
X40663Y16626D01*
Y16326D02*
Y16626D01*
X42225Y16626D02*
X42225Y16626D01*
Y16326D02*
Y16626D01*
X38825Y22800D02*
Y23200D01*
X38663Y22619D02*
Y22637D01*
X37906Y21863D02*
X38663Y22619D01*
Y22637D02*
X38825Y22800D01*
X37178Y21863D02*
X37906D01*
X48377Y32152D02*
X49425D01*
X48375Y32150D02*
X48377Y32152D01*
X37940Y22515D02*
X38170Y22745D01*
Y23145D01*
X38225Y23200D01*
X36662Y22515D02*
X37940D01*
X36496Y22600D02*
X36577D01*
X36662Y22515D01*
X48393Y31533D02*
X49968D01*
X48375Y31550D02*
X48393Y31533D01*
X49968D02*
X49985Y31515D01*
X10700Y16200D02*
X10725Y16175D01*
D13*
X4125Y21670D02*
X6870D01*
X14800Y19000D02*
Y21300D01*
X15300Y21800D01*
X8107Y18827D02*
X8430Y19150D01*
X8107Y17373D02*
Y18827D01*
X10923Y17758D02*
X11173Y18008D01*
X10700Y17200D02*
X10750D01*
X10923Y17373D01*
Y17758D01*
X4125Y20400D02*
X4425Y20700D01*
X6900D01*
X11173Y18008D02*
Y18947D01*
X10970Y19150D02*
X11173Y18947D01*
X15775Y26757D02*
Y27400D01*
X14668Y25650D02*
X15775Y26757D01*
X11850Y25650D02*
X14668D01*
X6900Y20700D02*
X11850Y25650D01*
X8107Y17373D02*
X8280Y17200D01*
X8300D01*
X15125Y26857D02*
Y27400D01*
X14448Y26180D02*
X15125Y26857D01*
X11380Y26180D02*
X14448D01*
X6870Y21670D02*
X11380Y26180D01*
X24600Y20000D02*
X25475Y20875D01*
X24100Y20000D02*
X24600D01*
X25475Y20875D02*
X25550D01*
X30848Y13127D02*
X30975Y13000D01*
X29850Y36850D02*
Y37750D01*
X29800Y37800D02*
X30100Y38100D01*
X29800Y37800D02*
X29850Y37750D01*
X28700Y38900D02*
X29800Y37800D01*
X24200Y36700D02*
Y38200D01*
Y36700D02*
X24200Y36700D01*
X24200Y38200D02*
X24900Y38900D01*
X28700D01*
X30600Y38100D02*
X30850Y37850D01*
X30100Y38100D02*
X30600D01*
X30850Y36850D02*
Y37850D01*
X44775Y38825D02*
Y41327D01*
Y38825D02*
X44787Y38812D01*
Y37812D02*
Y38812D01*
X44775Y41327D02*
X44800Y41352D01*
X44787Y37812D02*
X44800Y37800D01*
D19*
X12775Y30590D02*
D03*
Y29190D02*
D03*
Y27790D02*
D03*
X11375D02*
D03*
X9975D02*
D03*
Y29190D02*
D03*
Y30590D02*
D03*
X11375D02*
D03*
Y29190D02*
D03*
X33363Y28490D02*
D03*
X33200Y33000D02*
D03*
X30100Y24800D02*
D03*
X43950Y18975D02*
D03*
X45550D02*
D03*
X31700Y24800D02*
D03*
X23600Y33600D02*
D03*
X25200D02*
D03*
X34800Y33000D02*
D03*
X34963Y28490D02*
D03*
D20*
X21625Y36910D02*
D03*
Y35640D02*
D03*
Y34370D02*
D03*
Y33100D02*
D03*
Y31830D02*
D03*
Y30560D02*
D03*
Y29290D02*
D03*
Y28020D02*
D03*
Y20400D02*
D03*
X4125D02*
D03*
Y21670D02*
D03*
Y25480D02*
D03*
Y29290D02*
D03*
Y30560D02*
D03*
Y31830D02*
D03*
Y33100D02*
D03*
Y34370D02*
D03*
Y36910D02*
D03*
Y24210D02*
D03*
Y35640D02*
D03*
X21625Y26750D02*
D03*
Y25480D02*
D03*
Y24210D02*
D03*
Y22940D02*
D03*
Y21670D02*
D03*
X4125Y22940D02*
D03*
Y26750D02*
D03*
Y28020D02*
D03*
D21*
X19860Y19150D02*
D03*
X18590D02*
D03*
X17320D02*
D03*
X16050D02*
D03*
X14780D02*
D03*
X13510D02*
D03*
X12240D02*
D03*
X10970D02*
D03*
X9700D02*
D03*
X8430D02*
D03*
X7160D02*
D03*
X5890D02*
D03*
D22*
X40025Y23200D02*
D03*
X39425D02*
D03*
X41825D02*
D03*
X41225D02*
D03*
X44825D02*
D03*
X46025Y34500D02*
D03*
X45425D02*
D03*
X44225D02*
D03*
X43625D02*
D03*
X41225D02*
D03*
X39425D02*
D03*
X38825D02*
D03*
X40625D02*
D03*
X44225Y23200D02*
D03*
X45425D02*
D03*
X38825D02*
D03*
X44825Y34500D02*
D03*
X38225D02*
D03*
X40025D02*
D03*
X41825D02*
D03*
X42425D02*
D03*
X43025D02*
D03*
X46625D02*
D03*
X47225D02*
D03*
Y23200D02*
D03*
X46625D02*
D03*
X46025D02*
D03*
X43625D02*
D03*
X43025D02*
D03*
X42425D02*
D03*
X40625D02*
D03*
D23*
X1975Y34500D02*
D03*
X1952Y35543D02*
D03*
X38700Y42200D02*
D03*
Y40600D02*
D03*
X1952Y37143D02*
D03*
X1975Y32900D02*
D03*
D24*
X37075Y29750D02*
D03*
X48375Y30950D02*
D03*
X37075Y31550D02*
D03*
Y29150D02*
D03*
Y30350D02*
D03*
Y30950D02*
D03*
X48375Y24350D02*
D03*
Y31550D02*
D03*
Y32150D02*
D03*
X37075Y24350D02*
D03*
Y24950D02*
D03*
Y25550D02*
D03*
Y26150D02*
D03*
Y26750D02*
D03*
Y27350D02*
D03*
Y27950D02*
D03*
Y28550D02*
D03*
Y32150D02*
D03*
Y32750D02*
D03*
Y33350D02*
D03*
X48375D02*
D03*
Y32750D02*
D03*
Y30350D02*
D03*
Y29750D02*
D03*
Y29150D02*
D03*
Y28550D02*
D03*
Y27950D02*
D03*
Y27350D02*
D03*
Y26750D02*
D03*
Y26150D02*
D03*
Y25550D02*
D03*
Y24950D02*
D03*
D25*
X27000Y31500D02*
D03*
X24700D02*
D03*
X29300D02*
D03*
D26*
X27000Y25200D02*
D03*
D27*
X25550Y19125D02*
D03*
X29050D02*
D03*
Y20875D02*
D03*
X25550D02*
D03*
D28*
X1600Y28600D02*
D03*
X13100Y16200D02*
D03*
X39100Y17800D02*
D03*
X38000D02*
D03*
X40663Y16326D02*
D03*
X42225Y16326D02*
D03*
X39436Y20319D02*
D03*
X35300Y26500D02*
D03*
X9500Y16200D02*
D03*
X15400D02*
D03*
X48100Y15000D02*
D03*
X41600Y21400D02*
D03*
Y20400D02*
D03*
X48100Y16000D02*
D03*
X14300Y17200D02*
D03*
Y16200D02*
D03*
X15400Y17200D02*
D03*
X9500D02*
D03*
X12000D02*
D03*
Y16200D02*
D03*
X35300Y25500D02*
D03*
X45500Y14000D02*
D03*
Y13000D02*
D03*
X44200Y14000D02*
D03*
Y13000D02*
D03*
X39436Y19319D02*
D03*
X42225Y15326D02*
D03*
X40663Y15325D02*
D03*
X38000Y16800D02*
D03*
X39100D02*
D03*
X13100Y17200D02*
D03*
X1600Y27600D02*
D03*
X1600Y25100D02*
D03*
Y26100D02*
D03*
X8300Y16200D02*
D03*
Y17200D02*
D03*
X10700Y16200D02*
D03*
Y17200D02*
D03*
D29*
X37700Y20400D02*
D03*
X25600Y17200D02*
D03*
X39500Y36300D02*
D03*
X40500D02*
D03*
X26600Y17200D02*
D03*
X34700Y31500D02*
D03*
X33700D02*
D03*
X34700Y30300D02*
D03*
X33700D02*
D03*
X45100Y20600D02*
D03*
X44100D02*
D03*
X40500Y37500D02*
D03*
X39500D02*
D03*
X36700Y20400D02*
D03*
X45750Y38900D02*
D03*
X44750D02*
D03*
X45825Y35925D02*
D03*
X44825D02*
D03*
D30*
X1235Y2450D02*
D03*
X10125D02*
D03*
X11395D02*
D03*
X7585D02*
D03*
X8855D02*
D03*
X20285D02*
D03*
X19015D02*
D03*
X17745D02*
D03*
X21555D02*
D03*
X22825D02*
D03*
X30445D02*
D03*
X29175D02*
D03*
X32985D02*
D03*
X34255D02*
D03*
X31715D02*
D03*
X43145D02*
D03*
X40605D02*
D03*
X41875D02*
D03*
X50765D02*
D03*
X44415D02*
D03*
D31*
X44800Y37800D02*
D03*
Y36800D02*
D03*
D32*
X44475Y16513D02*
D03*
X46390D02*
D03*
D33*
X26900Y36850D02*
D03*
X27700D02*
D03*
X32500D02*
D03*
X33300D02*
D03*
D34*
X28350D02*
D03*
X28850D02*
D03*
X29350D02*
D03*
X29850D02*
D03*
X30350D02*
D03*
X30850D02*
D03*
X31350D02*
D03*
X31850D02*
D03*
D35*
X39925Y26050D02*
D03*
Y28850D02*
D03*
Y31650D02*
D03*
X42725Y26050D02*
D03*
Y28850D02*
D03*
Y31650D02*
D03*
X45525Y26050D02*
D03*
Y28850D02*
D03*
Y31650D02*
D03*
D36*
X38225Y23200D02*
D03*
D37*
X36800Y42550D02*
D03*
Y40450D02*
D03*
D66*
X47340Y42368D02*
D03*
X42260D02*
D03*
D67*
X44800Y41352D02*
D03*
D68*
X2400Y27600D02*
X2829Y28030D01*
X1600Y27600D02*
X2400D01*
X14000Y17500D02*
Y17900D01*
X14300Y17200D02*
X14300Y17200D01*
X14100Y17350D02*
X14250Y17200D01*
X14300D02*
X14300D01*
X14250D02*
X14300D01*
X14100Y17350D02*
Y17400D01*
X14000Y17500D02*
X14100Y17400D01*
X14300Y17200D02*
X15400D01*
X12000Y18800D02*
X12300Y19100D01*
X12000Y17900D02*
Y18800D01*
X2829Y28030D02*
Y33428D01*
X3471Y34070D01*
X3525D01*
X3825Y34370D01*
X4125D01*
X13600Y18900D02*
X13810Y18690D01*
Y18090D02*
Y18690D01*
Y18090D02*
X14000Y17900D01*
X37800Y17800D02*
Y18419D01*
Y17800D02*
X37900Y17700D01*
X37600Y18619D02*
X37800Y18419D01*
X37600Y18619D02*
Y18700D01*
X27000Y29900D02*
Y31500D01*
X29100Y23500D02*
X29800Y24200D01*
Y24500D02*
X30100Y24800D01*
X29800Y24200D02*
Y24500D01*
X25600Y17200D02*
Y19100D01*
X25600Y17200D02*
X25600Y17200D01*
Y19100D02*
X25600Y19100D01*
X38000Y17800D02*
X39100D01*
X39150Y17850D02*
X40128D01*
X39100Y17800D02*
X39150Y17850D01*
X41190Y23165D02*
X41225Y23200D01*
X41190Y22276D02*
Y23165D01*
X40579Y21665D02*
X41190Y22276D01*
X40579Y18301D02*
Y21665D01*
X40128Y17850D02*
X40579Y18301D01*
X38417Y21167D02*
Y21182D01*
X37825Y20575D02*
X38417Y21167D01*
X37825Y20225D02*
Y20575D01*
X38417Y21182D02*
X39425Y22190D01*
X36842Y19242D02*
X37825Y20225D01*
X39425Y22190D02*
Y23200D01*
X12000Y17200D02*
Y17900D01*
X48150Y15000D02*
X49075Y14075D01*
X50025D01*
X48100Y15000D02*
X48150D01*
X50025Y14075D02*
X50100Y14000D01*
X33200Y33000D02*
Y34200D01*
X33200Y34200D01*
X34700Y28700D02*
Y30300D01*
Y28700D02*
X34900Y28500D01*
X38700Y42200D02*
Y43200D01*
X38700Y43200D01*
X38400Y36500D02*
X38600Y36300D01*
X39500D01*
X9500Y16200D02*
X9500Y16200D01*
X9500Y15400D02*
Y16200D01*
X15400D02*
X15400Y16200D01*
X15400Y15400D02*
Y16200D01*
X13100Y15400D02*
X13100Y15400D01*
Y16200D01*
X34106Y26400D02*
X34206Y26500D01*
X34000Y26400D02*
X34106D01*
X34206Y26500D02*
X35300D01*
X43950Y18050D02*
Y18975D01*
Y18050D02*
X44250Y17750D01*
X38500Y19750D02*
Y19804D01*
X38676Y19980D01*
Y20169D02*
X39286D01*
X38676Y19980D02*
Y20169D01*
X39286D02*
X39436Y20319D01*
X24800Y17200D02*
X25600D01*
X24750Y17250D02*
X24800Y17200D01*
X26900Y25100D02*
X27200Y24800D01*
X24700Y25200D02*
X27000D01*
X24000Y24500D02*
X24700Y25200D01*
X33863Y27491D02*
Y27573D01*
X33663Y27773D02*
X33863Y27573D01*
X33663Y27773D02*
Y28190D01*
X33363Y28490D02*
X33663Y28190D01*
X37040Y29715D02*
X37075Y29750D01*
X36443Y29715D02*
X37040D01*
X35991Y29263D02*
X36443Y29715D01*
X35991Y28190D02*
Y29263D01*
X35292Y27491D02*
X35991Y28190D01*
X33200Y33000D02*
X33200Y33000D01*
X41225Y17188D02*
Y17770D01*
X40663Y16626D02*
X41225Y17188D01*
X36389Y19185D02*
X36446Y19242D01*
X36842D01*
X27200Y24800D02*
X30100D01*
X30100Y24800D01*
X35292Y26508D02*
X35300Y26500D01*
X35292Y26508D02*
Y27491D01*
X40025Y21635D02*
Y23200D01*
X39500Y21110D02*
X40025Y21635D01*
X39500Y21100D02*
Y21110D01*
X39468Y21068D02*
X39500Y21100D01*
X39436Y20319D02*
X39468Y20351D01*
Y21068D01*
X42225Y16626D02*
X42450Y16851D01*
X42024Y21250D02*
X42450Y20824D01*
Y19790D02*
Y20824D01*
X42450Y19790D02*
X42450Y19790D01*
X42450Y16851D02*
Y19790D01*
X41600Y21400D02*
X41750Y21250D01*
X41813Y21412D02*
Y23188D01*
X41825Y23200D01*
X41750Y21250D02*
X42024D01*
X40590Y34810D02*
Y36210D01*
X40500Y36300D02*
X40590Y36210D01*
Y34810D02*
X40600Y34800D01*
X40500Y36300D02*
X40500Y36300D01*
X40500Y36300D02*
Y37500D01*
X42900Y19604D02*
Y21010D01*
X42900Y19603D02*
X42900Y19604D01*
X42900Y18196D02*
Y19603D01*
X44025Y16513D02*
X44475D01*
X44050Y14150D02*
X44200Y14000D01*
X44025Y14150D02*
X44050D01*
X42900Y21011D02*
Y21825D01*
Y21011D02*
X42900Y21010D01*
X42900Y21825D02*
X43590Y22515D01*
X42900Y18196D02*
X44025Y17071D01*
X44175Y14000D02*
X45593D01*
X44025Y14150D02*
Y16513D01*
Y14150D02*
X44175Y14000D01*
X12100Y17200D02*
X13100D01*
X12100Y17200D02*
X12100Y17200D01*
X45100Y20700D02*
X45200Y20600D01*
X45600Y19000D02*
Y20050D01*
X45100Y20550D02*
X45600Y20050D01*
X45100Y20550D02*
Y20600D01*
X44225Y22275D02*
X45100Y21400D01*
Y20700D02*
Y21400D01*
X44225Y22275D02*
Y23200D01*
X46847Y16513D02*
Y20963D01*
X46111Y21700D02*
X46847Y20963D01*
X45851Y21700D02*
X46111D01*
X45425Y22126D02*
X45851Y21700D01*
X34700Y32900D02*
X34800Y33000D01*
X34700Y31500D02*
Y32900D01*
X34700Y31450D02*
X35200Y30950D01*
X34700Y31450D02*
Y31500D01*
X35200Y30950D02*
X37075D01*
X34700Y30300D02*
X34725Y30325D01*
X37050D02*
X37075Y30350D01*
X34725Y30325D02*
X37050D01*
X1600Y26000D02*
Y27600D01*
X1600Y27600D02*
X1600Y27600D01*
X24200Y36040D02*
X25440Y34800D01*
X28574D02*
X29350Y35576D01*
X25440Y34800D02*
X28574D01*
X29350Y35576D02*
X29626Y35300D01*
X30350Y35476D02*
Y36850D01*
X29626Y35300D02*
X30174D01*
X30350Y35476D01*
X29350Y35576D02*
Y36850D01*
X45425Y22126D02*
Y23200D01*
X44025Y16513D02*
Y17071D01*
X43590Y22515D02*
Y23165D01*
X43625Y23200D01*
D69*
X4125Y35640D02*
X5640D01*
X11375Y27790D02*
Y29190D01*
X9975D02*
X11375D01*
X12775D01*
X11375D02*
Y30590D01*
X5640Y35640D02*
X6250Y36250D01*
X1500Y28650D02*
X1550Y28600D01*
X1500Y28650D02*
Y29500D01*
X1550Y28600D02*
X1600D01*
X1975Y34500D02*
Y35371D01*
X2050Y35446D01*
X24700Y31500D02*
X24800Y31400D01*
X25100D01*
X25200Y31500D02*
Y33600D01*
X25100Y31400D02*
X25200Y31500D01*
X25300Y33700D02*
X25400Y33600D01*
X26800D01*
X27000Y33800D01*
X25300Y33700D02*
Y33700D01*
X32450Y36050D02*
Y36800D01*
X31300Y34900D02*
X32450Y36050D01*
Y36800D02*
X32500Y36850D01*
X27700Y35900D02*
Y36850D01*
D70*
X42725Y27350D02*
Y28850D01*
Y27325D02*
Y27350D01*
X42700Y27300D02*
X42725Y27325D01*
X42600Y30400D02*
X42725Y30275D01*
Y28850D02*
Y30275D01*
X44150Y28850D02*
X44200Y28800D01*
X42725Y28850D02*
X44150D01*
X39925D02*
X42725D01*
X39850D02*
X39925D01*
X39800Y28800D02*
X39850Y28850D01*
X41600Y20400D02*
X41600Y20400D01*
X41600Y19500D02*
Y20400D01*
X43700Y21050D02*
X44100Y20650D01*
X43700Y21050D02*
Y21400D01*
X44100Y20600D02*
Y20650D01*
X39634Y19122D02*
X39900Y18855D01*
Y18400D02*
Y18855D01*
X39436Y19319D02*
X39486D01*
X39634Y19172D01*
Y19122D02*
Y19172D01*
X45788Y38862D02*
X46838D01*
X46875Y38825D01*
X45750Y38900D02*
X45788Y38862D01*
X46945Y37100D02*
X47025D01*
X1190Y37143D02*
X1952D01*
X875Y37450D02*
X883D01*
X1190Y37143D01*
X46706Y36861D02*
X46945Y37100D01*
X46004Y36861D02*
X46706D01*
X45825Y36682D02*
X46004Y36861D01*
X45825Y35925D02*
Y36682D01*
D71*
X40663Y16626D02*
X42225D01*
D72*
X36800Y40500D02*
X38600D01*
X38700Y40600D01*
D73*
X44825Y35925D02*
Y36475D01*
Y36800D01*
X44800D02*
X44825D01*
Y34500D02*
Y35925D01*
Y34500D02*
X44825Y34500D01*
D74*
X13195Y13000D02*
D03*
X15735D02*
D03*
X18275D02*
D03*
X20815D02*
D03*
X23355D02*
D03*
X25895D02*
D03*
X28435D02*
D03*
X30975D02*
D03*
X33515D02*
D03*
X36055D02*
D03*
X38595D02*
D03*
D75*
X50175Y14025D02*
D03*
Y12025D02*
D03*
Y16025D02*
D03*
Y18025D02*
D03*
D76*
X14595Y6950D02*
D03*
X4355D02*
D03*
X26005D02*
D03*
X47595D02*
D03*
X37385D02*
D03*
D77*
X32990Y37920D02*
D03*
X27210D02*
D03*
D78*
X25780Y41600D02*
D03*
X34420D02*
D03*
D79*
X25780Y37420D02*
D03*
X34420D02*
D03*
D80*
X50175Y20025D02*
D03*
D81*
X48000Y37700D02*
D03*
X18000Y25700D02*
D03*
X3000Y13700D02*
D03*
X48750Y36200D02*
D03*
X37500Y10700D02*
D03*
X3000Y40700D02*
D03*
Y10700D02*
D03*
X38250Y27200D02*
D03*
X47250Y30200D02*
D03*
X49500Y25700D02*
D03*
X50250Y27200D02*
D03*
X8250Y30200D02*
D03*
X6000Y40700D02*
D03*
X20250Y42200D02*
D03*
X45750Y15200D02*
D03*
X9750Y36200D02*
D03*
X32250Y27200D02*
D03*
X2250Y24200D02*
D03*
X7500Y34700D02*
D03*
X40500Y40700D02*
D03*
X27750Y21200D02*
D03*
X47250Y27200D02*
D03*
X2250Y21200D02*
D03*
X32250Y42200D02*
D03*
X24000Y40700D02*
D03*
X5250Y42200D02*
D03*
X1500Y13700D02*
D03*
X35250Y36200D02*
D03*
X10500Y34700D02*
D03*
X12000Y13700D02*
D03*
X50250Y33200D02*
D03*
X8250Y42200D02*
D03*
X18000Y28700D02*
D03*
X20250Y39200D02*
D03*
Y33200D02*
D03*
X45000Y10700D02*
D03*
X10500Y40700D02*
D03*
X39000Y10700D02*
D03*
X12000Y34700D02*
D03*
X17250Y42200D02*
D03*
X8250Y36200D02*
D03*
X3750Y39200D02*
D03*
X31500Y40700D02*
D03*
X1500Y22700D02*
D03*
X12000Y37700D02*
D03*
X36750Y39200D02*
D03*
X2250Y42200D02*
D03*
X17250Y27200D02*
D03*
X35250Y24200D02*
D03*
X50250Y39200D02*
D03*
X37500Y37700D02*
D03*
X28500Y10700D02*
D03*
X15750Y39200D02*
D03*
X46500Y10700D02*
D03*
X50250Y24200D02*
D03*
X42000Y37700D02*
D03*
X36750Y36200D02*
D03*
X21000Y40700D02*
D03*
X30750Y39200D02*
D03*
X42750Y36200D02*
D03*
X14250Y42200D02*
D03*
X13500Y37700D02*
D03*
X14250Y27200D02*
D03*
X4500Y10700D02*
D03*
X49500Y22700D02*
D03*
X15750Y33200D02*
D03*
X38250Y39200D02*
D03*
X7500Y10700D02*
D03*
X49500Y37700D02*
D03*
X3000Y16700D02*
D03*
X7500Y37700D02*
D03*
X15750Y36200D02*
D03*
X48750Y42200D02*
D03*
X11250D02*
D03*
X3750Y15200D02*
D03*
X9000Y37700D02*
D03*
X40500Y10700D02*
D03*
X16500Y25700D02*
D03*
X19500Y37700D02*
D03*
Y28700D02*
D03*
X24750Y18200D02*
D03*
X21750D02*
D03*
X2250Y15200D02*
D03*
X7500Y40700D02*
D03*
X50250Y42200D02*
D03*
X8250Y27200D02*
D03*
X48000Y19700D02*
D03*
Y34700D02*
D03*
X48750Y12200D02*
D03*
X32250Y39200D02*
D03*
X33750D02*
D03*
X28500Y40700D02*
D03*
X12750Y33200D02*
D03*
X4500Y13700D02*
D03*
X21750Y39200D02*
D03*
X9750Y42200D02*
D03*
X10500Y31700D02*
D03*
X49500Y10700D02*
D03*
X27750Y42200D02*
D03*
X8250Y39200D02*
D03*
X6000Y34700D02*
D03*
X6750Y42200D02*
D03*
X34500Y34700D02*
D03*
X1500Y31700D02*
D03*
X23250Y18200D02*
D03*
X19500Y7700D02*
D03*
X1500Y10700D02*
D03*
X46500Y37700D02*
D03*
X39750Y12200D02*
D03*
X19500Y40700D02*
D03*
X14250Y33200D02*
D03*
X29250Y18200D02*
D03*
X1500Y16700D02*
D03*
X13500Y31700D02*
D03*
X2250Y18200D02*
D03*
X27000Y19700D02*
D03*
X9000Y34700D02*
D03*
X30750Y42200D02*
D03*
X50250Y30200D02*
D03*
X35250Y39200D02*
D03*
X20250Y27200D02*
D03*
X5250Y39200D02*
D03*
X45750Y30200D02*
D03*
X10500Y13700D02*
D03*
X5250Y12200D02*
D03*
X17250Y36200D02*
D03*
X14250D02*
D03*
X50250Y21200D02*
D03*
X15750Y42200D02*
D03*
X30750Y33200D02*
D03*
X24750Y42200D02*
D03*
X6000Y37700D02*
D03*
X12750Y21200D02*
D03*
X3750Y42200D02*
D03*
X11250Y21200D02*
D03*
X18750Y30200D02*
D03*
X49500Y40700D02*
D03*
X48000Y22700D02*
D03*
X47250Y36200D02*
D03*
X38250Y30200D02*
D03*
X15000Y31700D02*
D03*
X10500Y37700D02*
D03*
X14250Y39200D02*
D03*
X37500Y34700D02*
D03*
X48750Y21200D02*
D03*
X20250Y30200D02*
D03*
X11250Y33200D02*
D03*
X49500Y34700D02*
D03*
X16500Y40700D02*
D03*
X11250Y39200D02*
D03*
X3750Y12200D02*
D03*
X39750Y42200D02*
D03*
X43500Y37700D02*
D03*
X21750Y42200D02*
D03*
X36000Y10700D02*
D03*
X18750Y39200D02*
D03*
X27750Y18200D02*
D03*
X25500Y10700D02*
D03*
X29250Y42200D02*
D03*
X6750Y39200D02*
D03*
X22500Y40700D02*
D03*
X18750Y42200D02*
D03*
X39750Y39200D02*
D03*
X18750Y33200D02*
D03*
X12750Y39200D02*
D03*
X48750D02*
D03*
X17250D02*
D03*
X1500Y40700D02*
D03*
X13500Y34700D02*
D03*
X1500Y19700D02*
D03*
X2250Y39200D02*
D03*
X36000Y37700D02*
D03*
X33000Y40700D02*
D03*
X15000Y37700D02*
D03*
X18000Y40700D02*
D03*
X15750Y30200D02*
D03*
X18750Y27200D02*
D03*
X36000Y34700D02*
D03*
X15000Y28700D02*
D03*
X12000Y40700D02*
D03*
X19500Y13700D02*
D03*
X23250Y39200D02*
D03*
X50250Y36200D02*
D03*
X9750Y39200D02*
D03*
X42750D02*
D03*
X12750Y42200D02*
D03*
X3750Y18200D02*
D03*
X9000Y40700D02*
D03*
X18000Y37700D02*
D03*
X2250Y12200D02*
D03*
X45750Y33200D02*
D03*
X15000Y40700D02*
D03*
X41250Y39200D02*
D03*
X16500Y37700D02*
D03*
X19500Y31700D02*
D03*
X13500Y40700D02*
D03*
X9000Y28700D02*
D03*
X4500Y40700D02*
D03*
X18750Y9200D02*
D03*
X14250Y30200D02*
D03*
X49500Y28700D02*
D03*
X15000Y34700D02*
D03*
X27000Y40700D02*
D03*
X11250Y36200D02*
D03*
X6000Y10700D02*
D03*
X39750Y30200D02*
D03*
X23250Y42200D02*
D03*
X12750Y36200D02*
D03*
X30000Y40700D02*
D03*
X34137Y24841D02*
D03*
X26131Y35597D02*
D03*
X18100Y5900D02*
D03*
X11000Y5700D02*
D03*
X11200Y9100D02*
D03*
X20300Y7000D02*
D03*
X21500Y8300D02*
D03*
X22500Y8600D02*
D03*
X7300Y30600D02*
D03*
Y29200D02*
D03*
Y28000D02*
D03*
Y26700D02*
D03*
X6900Y33000D02*
D03*
X7600Y23300D02*
D03*
X9400Y25000D02*
D03*
X7300Y26000D02*
D03*
X7100Y31900D02*
D03*
X11800Y24400D02*
D03*
X17900Y23200D02*
D03*
X23000Y22400D02*
D03*
X27200Y13900D02*
D03*
X15300Y21800D02*
D03*
X24100Y20000D02*
D03*
X16500Y21300D02*
D03*
X28000Y15100D02*
D03*
X29200Y15700D02*
D03*
X31000Y15600D02*
D03*
X31800Y15300D02*
D03*
X32600Y15600D02*
D03*
X34000D02*
D03*
X34700Y15300D02*
D03*
X35400Y15600D02*
D03*
X24300Y21500D02*
D03*
X23400Y23000D02*
D03*
X23000Y25600D02*
D03*
X33300Y15300D02*
D03*
X23200Y26816D02*
D03*
X27000Y29900D02*
D03*
X18600Y15100D02*
D03*
X17400Y15400D02*
D03*
X17600Y20700D02*
D03*
X18600D02*
D03*
X19900Y24400D02*
D03*
X29100Y23500D02*
D03*
X23600Y28100D02*
D03*
X23900Y28800D02*
D03*
Y29600D02*
D03*
X32700Y21600D02*
D03*
X20100Y34500D02*
D03*
X33254Y22568D02*
D03*
X32500Y25500D02*
D03*
X23200Y35300D02*
D03*
X35100Y20700D02*
D03*
X16400Y17200D02*
D03*
X13500Y20900D02*
D03*
X12600Y17900D02*
D03*
X32200Y30000D02*
D03*
X38600Y31300D02*
D03*
X19900Y26200D02*
D03*
X33200Y34200D02*
D03*
X41400Y35800D02*
D03*
X38700Y43200D02*
D03*
X38400Y36500D02*
D03*
X8300Y15400D02*
D03*
X10700D02*
D03*
X30850Y29900D02*
D03*
X31500D02*
D03*
X9700Y22000D02*
D03*
X39200Y33100D02*
D03*
X9500Y15400D02*
D03*
X15400D02*
D03*
X13100D02*
D03*
X41600Y19500D02*
D03*
X43700Y21400D02*
D03*
X39900Y18400D02*
D03*
X44250Y17750D02*
D03*
X38500Y19750D02*
D03*
X24750Y17250D02*
D03*
X1500Y29500D02*
D03*
X6250Y36250D02*
D03*
X24000Y24500D02*
D03*
X27000Y33800D02*
D03*
X31300Y34900D02*
D03*
X27700Y35900D02*
D03*
X24200Y36690D02*
D03*
X37178Y21863D02*
D03*
X49425Y32152D02*
D03*
X36496Y22600D02*
D03*
X49985Y31515D02*
D03*
X33108Y24615D02*
D03*
X24200Y36040D02*
D03*
X15775Y27400D02*
D03*
X15125D02*
D03*
D82*
X37600Y18700D02*
D03*
X33863Y27491D02*
D03*
X33975Y26350D02*
D03*
X41225Y17770D02*
D03*
X36389Y19185D02*
D03*
X39500Y21100D02*
D03*
X46875Y38825D02*
D03*
X47025Y37100D02*
D03*
X875Y37450D02*
D03*
X44225Y30350D02*
D03*
X44225Y27331D02*
D03*
X41272Y27350D02*
D03*
X41225Y30330D02*
D03*
X42725D02*
D03*
Y27350D02*
D03*
X44225Y28850D02*
D03*
X35225Y21850D02*
D03*
M02*
