G04*
G04 #@! TF.GenerationSoftware,Altium Limited,Altium Designer,24.1.2 (44)*
G04*
G04 Layer_Color=65535*
%FSLAX43Y43*%
%MOMM*%
G71*
G04*
G04 #@! TF.SameCoordinates,A9818493-9DB4-4393-B726-FC6D1410B1DB*
G04*
G04*
G04 #@! TF.FilePolarity,Positive*
G04*
G01*
G75*
%ADD10C,0.100*%
%ADD11C,0.200*%
%ADD12C,0.127*%
%ADD13C,0.254*%
%ADD14C,0.120*%
%ADD15C,0.150*%
%ADD16R,1.016X0.200*%
D10*
X2875Y36950D02*
G03*
X2875Y36850I0J-50D01*
G01*
D02*
G03*
X2875Y36950I0J50D01*
G01*
X38225Y22150D02*
G03*
X38225Y22250I0J50D01*
G01*
D02*
G03*
X38225Y22150I0J-50D01*
G01*
X3875Y44400D02*
X21875D01*
D11*
X3875Y37650D02*
Y44400D01*
X21875D01*
Y37650D02*
Y44400D01*
Y18900D02*
Y19650D01*
X20675Y18900D02*
X21875D01*
X3875D02*
X5075D01*
X3875D02*
Y19650D01*
X23650Y26845D02*
Y29845D01*
X30350Y26845D02*
Y29845D01*
X23650Y26845D02*
X30350D01*
X23650Y29845D02*
X30350D01*
X49175Y21025D02*
X51175D01*
Y11025D02*
Y21025D01*
X49175Y11025D02*
Y21025D01*
X51175Y11025D02*
X51175Y11025D01*
X49175Y11025D02*
X51175D01*
D12*
X30100Y25410D02*
X31700D01*
X30100Y24190D02*
X31700D01*
X29200Y18100D02*
Y18400D01*
X25400Y18100D02*
X29200D01*
X25400D02*
Y18400D01*
X29200Y21600D02*
Y21900D01*
X25400D02*
X29200D01*
X25400Y21600D02*
Y21900D01*
X23600Y32990D02*
X25200D01*
X23600Y34210D02*
X25200D01*
X44300Y36800D02*
Y37800D01*
X45300Y36800D02*
Y37800D01*
X25630Y44200D02*
X34570D01*
Y42820D02*
Y44200D01*
Y38790D02*
Y40380D01*
X25630Y42820D02*
Y44200D01*
Y38790D02*
Y40380D01*
X39310Y40600D02*
Y42200D01*
X38090Y40600D02*
Y42200D01*
X2562Y35543D02*
Y37143D01*
X1343Y35543D02*
Y37143D01*
X1365Y32900D02*
Y34500D01*
X2585Y32900D02*
Y34500D01*
D13*
X25141Y21905D02*
Y22159D01*
X25395D01*
X25141Y21905D02*
X25395Y22159D01*
D14*
X22275Y38797D02*
X22858D01*
X22975Y38914D01*
Y39147D01*
X22858Y39264D01*
X22275D01*
X22975Y39497D02*
Y39730D01*
Y39614D01*
X22275D01*
X22392Y39497D01*
X43283Y36183D02*
X43167Y36300D01*
X42934D01*
X42817Y36183D01*
Y35717D01*
X42934Y35600D01*
X43167D01*
X43283Y35717D01*
X43517Y35600D02*
X43750D01*
X43633D01*
Y36300D01*
X43517Y36183D01*
X44100Y35600D02*
X44333D01*
X44216D01*
Y36300D01*
X44100Y36183D01*
X42992Y39133D02*
X42875Y39250D01*
X42642D01*
X42525Y39133D01*
Y38667D01*
X42642Y38550D01*
X42875D01*
X42992Y38667D01*
X43225Y38550D02*
X43458D01*
X43342D01*
Y39250D01*
X43225Y39133D01*
X44275Y38550D02*
X43808D01*
X44275Y39017D01*
Y39133D01*
X44158Y39250D01*
X43925D01*
X43808Y39133D01*
X42858Y37750D02*
Y37050D01*
X43325D01*
X43558D02*
X43792D01*
X43675D01*
Y37750D01*
X43558Y37633D01*
X47617Y16750D02*
Y17450D01*
X47967D01*
X48083Y17333D01*
Y17100D01*
X47967Y16983D01*
X47617D01*
X47850D02*
X48083Y16750D01*
X48317Y17450D02*
X48783D01*
Y17333D01*
X48317Y16867D01*
Y16750D01*
X8650Y14317D02*
X7950D01*
Y14667D01*
X8067Y14783D01*
X8300D01*
X8417Y14667D01*
Y14317D01*
Y14550D02*
X8650Y14783D01*
Y15367D02*
X7950D01*
X8300Y15017D01*
Y15483D01*
X11050Y14317D02*
X10350D01*
Y14667D01*
X10467Y14783D01*
X10700D01*
X10817Y14667D01*
Y14317D01*
Y14550D02*
X11050Y14783D01*
X10467Y15017D02*
X10350Y15133D01*
Y15367D01*
X10467Y15483D01*
X10583D01*
X10700Y15367D01*
Y15250D01*
Y15367D01*
X10817Y15483D01*
X10933D01*
X11050Y15367D01*
Y15133D01*
X10933Y15017D01*
X1719Y38951D02*
X1603Y38835D01*
Y38601D01*
X1719Y38485D01*
X2186D01*
X2302Y38601D01*
Y38835D01*
X2186Y38951D01*
X2302Y39651D02*
Y39185D01*
X1836Y39651D01*
X1719D01*
X1603Y39534D01*
Y39301D01*
X1719Y39185D01*
X342Y33100D02*
X225Y32983D01*
Y32750D01*
X342Y32633D01*
X808D01*
X925Y32750D01*
Y32983D01*
X808Y33100D01*
X925Y33333D02*
Y33567D01*
Y33450D01*
X225D01*
X342Y33333D01*
X39100Y38200D02*
X38400D01*
Y38550D01*
X38517Y38667D01*
X38750D01*
X38867Y38550D01*
Y38200D01*
Y38433D02*
X39100Y38667D01*
Y38900D02*
Y39133D01*
Y39016D01*
X38400D01*
X38517Y38900D01*
X36425Y37200D02*
X37125D01*
Y37667D01*
X36425Y38366D02*
Y37900D01*
X37125D01*
Y38366D01*
X36775Y37900D02*
Y38133D01*
X36425Y38600D02*
X37125D01*
Y38949D01*
X37008Y39066D01*
X36542D01*
X36425Y38949D01*
Y38600D01*
X37125Y39299D02*
Y39533D01*
Y39416D01*
X36425D01*
X36542Y39299D01*
D15*
X11767Y14883D02*
X11650Y14767D01*
Y14533D01*
X11767Y14417D01*
X12233D01*
X12350Y14533D01*
Y14767D01*
X12233Y14883D01*
X11767Y15117D02*
X11650Y15233D01*
Y15467D01*
X11767Y15583D01*
X11883D01*
X12000Y15467D01*
X12117Y15583D01*
X12233D01*
X12350Y15467D01*
Y15233D01*
X12233Y15117D01*
X12117D01*
X12000Y15233D01*
X11883Y15117D01*
X11767D01*
X12000Y15233D02*
Y15467D01*
X14067Y14883D02*
X13950Y14767D01*
Y14533D01*
X14067Y14417D01*
X14533D01*
X14650Y14533D01*
Y14767D01*
X14533Y14883D01*
X13950Y15117D02*
Y15583D01*
X14067D01*
X14533Y15117D01*
X14650D01*
X13450Y14417D02*
X12750D01*
Y14767D01*
X12867Y14883D01*
X13100D01*
X13217Y14767D01*
Y14417D01*
Y14650D02*
X13450Y14883D01*
X12750Y15583D02*
X12867Y15350D01*
X13100Y15117D01*
X13333D01*
X13450Y15233D01*
Y15467D01*
X13333Y15583D01*
X13217D01*
X13100Y15467D01*
Y15117D01*
X30117Y21350D02*
Y20650D01*
X30584D01*
X31283Y21350D02*
X30817D01*
Y20650D01*
X31283D01*
X30817Y21000D02*
X31050D01*
X31517Y21350D02*
Y20650D01*
X31867D01*
X31983Y20767D01*
Y21233D01*
X31867Y21350D01*
X31517D01*
X32683Y20650D02*
X32216D01*
X32683Y21117D01*
Y21233D01*
X32566Y21350D01*
X32333D01*
X32216Y21233D01*
X27783Y17433D02*
X27667Y17550D01*
X27433D01*
X27317Y17433D01*
Y16967D01*
X27433Y16850D01*
X27667D01*
X27783Y16967D01*
X28367Y16850D02*
Y17550D01*
X28017Y17200D01*
X28483D01*
X23317Y25550D02*
Y24967D01*
X23433Y24850D01*
X23667D01*
X23783Y24967D01*
Y25550D01*
X24483Y24850D02*
X24017D01*
X24483Y25317D01*
Y25433D01*
X24367Y25550D01*
X24133D01*
X24017Y25433D01*
X26483Y33933D02*
X26367Y34050D01*
X26133D01*
X26017Y33933D01*
Y33467D01*
X26133Y33350D01*
X26367D01*
X26483Y33467D01*
X27183Y34050D02*
X26950Y33933D01*
X26717Y33700D01*
Y33467D01*
X26833Y33350D01*
X27067D01*
X27183Y33467D01*
Y33583D01*
X27067Y33700D01*
X26717D01*
X31083Y26333D02*
X30967Y26450D01*
X30733D01*
X30617Y26333D01*
Y25867D01*
X30733Y25750D01*
X30967D01*
X31083Y25867D01*
X31783Y26450D02*
X31317D01*
Y26100D01*
X31550Y26217D01*
X31667D01*
X31783Y26100D01*
Y25867D01*
X31667Y25750D01*
X31433D01*
X31317Y25867D01*
X29034Y43550D02*
Y42967D01*
X29150Y42850D01*
X29384D01*
X29500Y42967D01*
Y43550D01*
X30200Y43433D02*
X30083Y43550D01*
X29850D01*
X29733Y43433D01*
Y43317D01*
X29850Y43200D01*
X30083D01*
X30200Y43083D01*
Y42967D01*
X30083Y42850D01*
X29850D01*
X29733Y42967D01*
X30433Y43550D02*
Y42850D01*
X30783D01*
X30900Y42967D01*
Y43083D01*
X30783Y43200D01*
X30433D01*
X30783D01*
X30900Y43317D01*
Y43433D01*
X30783Y43550D01*
X30433D01*
X31133Y42850D02*
X31366D01*
X31250D01*
Y43550D01*
X31133Y43433D01*
X37417Y35650D02*
Y36350D01*
X37767D01*
X37883Y36233D01*
Y36000D01*
X37767Y35883D01*
X37417D01*
X37650D02*
X37883Y35650D01*
X38117Y35767D02*
X38233Y35650D01*
X38467D01*
X38583Y35767D01*
Y36233D01*
X38467Y36350D01*
X38233D01*
X38117Y36233D01*
Y36117D01*
X38233Y36000D01*
X38583D01*
X9750Y14317D02*
X9050D01*
Y14667D01*
X9167Y14783D01*
X9400D01*
X9517Y14667D01*
Y14317D01*
Y14550D02*
X9750Y14783D01*
X9167Y15017D02*
X9050Y15133D01*
Y15367D01*
X9167Y15483D01*
X9283D01*
X9400Y15367D01*
X9517Y15483D01*
X9633D01*
X9750Y15367D01*
Y15133D01*
X9633Y15017D01*
X9517D01*
X9400Y15133D01*
X9283Y15017D01*
X9167D01*
X9400Y15133D02*
Y15367D01*
X46717Y19350D02*
Y18650D01*
X47183D01*
X47883D02*
X47417D01*
X47883Y19117D01*
Y19233D01*
X47767Y19350D01*
X47533D01*
X47417Y19233D01*
X45267Y10850D02*
X45150Y10733D01*
Y10500D01*
X45267Y10384D01*
X45733D01*
X45850Y10500D01*
Y10733D01*
X45733Y10850D01*
X45850Y11550D02*
Y11083D01*
X45383Y11550D01*
X45267D01*
X45150Y11433D01*
Y11200D01*
X45267Y11083D01*
X45850Y11783D02*
Y12016D01*
Y11900D01*
X45150D01*
X45267Y11783D01*
X40292Y38833D02*
X40175Y38950D01*
X39942D01*
X39825Y38833D01*
Y38367D01*
X39942Y38250D01*
X40175D01*
X40292Y38367D01*
X40525Y38250D02*
X40758D01*
X40642D01*
Y38950D01*
X40525Y38833D01*
X41108D02*
X41225Y38950D01*
X41458D01*
X41575Y38833D01*
Y38717D01*
X41458Y38600D01*
X41575Y38483D01*
Y38367D01*
X41458Y38250D01*
X41225D01*
X41108Y38367D01*
Y38483D01*
X41225Y38600D01*
X41108Y38717D01*
Y38833D01*
X41225Y38600D02*
X41458D01*
X40892Y19533D02*
X40775Y19650D01*
X40542D01*
X40425Y19533D01*
Y19067D01*
X40542Y18950D01*
X40775D01*
X40892Y19067D01*
X41125Y18950D02*
X41358D01*
X41242D01*
Y19650D01*
X41125Y19533D01*
X42175Y19650D02*
X41941Y19533D01*
X41708Y19300D01*
Y19067D01*
X41825Y18950D01*
X42058D01*
X42175Y19067D01*
Y19183D01*
X42058Y19300D01*
X41708D01*
X50300Y22400D02*
X50100D01*
X50200D01*
Y21900D01*
X50100Y21800D01*
X50000D01*
X49900Y21900D01*
X50500Y21800D02*
X50700D01*
X50600D01*
Y22400D01*
X50500Y22300D01*
X48417Y36050D02*
Y35467D01*
X48533Y35350D01*
X48767D01*
X48883Y35467D01*
Y36050D01*
X49117Y35933D02*
X49233Y36050D01*
X49467D01*
X49583Y35933D01*
Y35817D01*
X49467Y35700D01*
X49350D01*
X49467D01*
X49583Y35583D01*
Y35467D01*
X49467Y35350D01*
X49233D01*
X49117Y35467D01*
X45617Y15350D02*
Y14650D01*
X46083D01*
X46317Y15233D02*
X46433Y15350D01*
X46667D01*
X46783Y15233D01*
Y15117D01*
X46667Y15000D01*
X46550D01*
X46667D01*
X46783Y14883D01*
Y14767D01*
X46667Y14650D01*
X46433D01*
X46317Y14767D01*
X31217Y28850D02*
Y28150D01*
X31683D01*
X32267D02*
Y28850D01*
X31917Y28500D01*
X32383D01*
X31253Y33417D02*
Y32717D01*
X31720D01*
X32420Y33417D02*
X31953D01*
Y33067D01*
X32187Y33184D01*
X32303D01*
X32420Y33067D01*
Y32834D01*
X32303Y32717D01*
X32070D01*
X31953Y32834D01*
X40858Y13998D02*
X40975Y14115D01*
Y14348D01*
X40858Y14465D01*
X40392D01*
X40275Y14348D01*
Y14115D01*
X40392Y13998D01*
X40275Y13765D02*
Y13532D01*
Y13648D01*
X40975D01*
X40858Y13765D01*
Y13182D02*
X40975Y13065D01*
Y12832D01*
X40858Y12715D01*
X40742D01*
X40625Y12832D01*
Y12949D01*
Y12832D01*
X40509Y12715D01*
X40392D01*
X40275Y12832D01*
Y13065D01*
X40392Y13182D01*
X38783Y15733D02*
X38667Y15850D01*
X38433D01*
X38317Y15733D01*
Y15267D01*
X38433Y15150D01*
X38667D01*
X38783Y15267D01*
X39017D02*
X39133Y15150D01*
X39367D01*
X39483Y15267D01*
Y15733D01*
X39367Y15850D01*
X39133D01*
X39017Y15733D01*
Y15617D01*
X39133Y15500D01*
X39483D01*
X34499Y20725D02*
X34382Y20841D01*
X34149D01*
X34032Y20725D01*
Y20258D01*
X34149Y20142D01*
X34382D01*
X34499Y20258D01*
X34732Y20142D02*
X34965D01*
X34849D01*
Y20841D01*
X34732Y20725D01*
X35315Y20841D02*
X35782D01*
Y20725D01*
X35315Y20258D01*
Y20142D01*
X42458Y13958D02*
X42575Y14075D01*
Y14308D01*
X42458Y14425D01*
X41992D01*
X41875Y14308D01*
Y14075D01*
X41992Y13958D01*
X41875Y13725D02*
Y13492D01*
Y13608D01*
X42575D01*
X42458Y13725D01*
X41875Y12792D02*
X42575D01*
X42225Y13142D01*
Y12675D01*
X37192Y20533D02*
X37075Y20650D01*
X36842D01*
X36725Y20533D01*
Y20067D01*
X36842Y19950D01*
X37075D01*
X37192Y20067D01*
X37425Y19950D02*
X37658D01*
X37542D01*
Y20650D01*
X37425Y20533D01*
X38475Y20650D02*
X38008D01*
Y20300D01*
X38241Y20417D01*
X38358D01*
X38475Y20300D01*
Y20067D01*
X38358Y19950D01*
X38125D01*
X38008Y20067D01*
X35792Y17633D02*
X35675Y17750D01*
X35442D01*
X35325Y17633D01*
Y17167D01*
X35442Y17050D01*
X35675D01*
X35792Y17167D01*
X36025Y17050D02*
X36258D01*
X36142D01*
Y17750D01*
X36025Y17633D01*
X36608D02*
X36725Y17750D01*
X36958D01*
X37075Y17633D01*
Y17167D01*
X36958Y17050D01*
X36725D01*
X36608Y17167D01*
Y17633D01*
X46292Y20833D02*
X46175Y20950D01*
X45942D01*
X45825Y20833D01*
Y20367D01*
X45942Y20250D01*
X46175D01*
X46292Y20367D01*
X46525Y20250D02*
X46758D01*
X46642D01*
Y20950D01*
X46525Y20833D01*
X47108Y20367D02*
X47225Y20250D01*
X47458D01*
X47575Y20367D01*
Y20833D01*
X47458Y20950D01*
X47225D01*
X47108Y20833D01*
Y20717D01*
X47225Y20600D01*
X47575D01*
X43867Y10833D02*
X43750Y10717D01*
Y10484D01*
X43867Y10367D01*
X44333D01*
X44450Y10484D01*
Y10717D01*
X44333Y10833D01*
X44450Y11533D02*
Y11067D01*
X43983Y11533D01*
X43867D01*
X43750Y11417D01*
Y11183D01*
X43867Y11067D01*
Y11767D02*
X43750Y11883D01*
Y12116D01*
X43867Y12233D01*
X44333D01*
X44450Y12116D01*
Y11883D01*
X44333Y11767D01*
X43867D01*
X35067Y23433D02*
X34950Y23317D01*
Y23084D01*
X35067Y22967D01*
X35533D01*
X35650Y23084D01*
Y23317D01*
X35533Y23433D01*
X35650Y24133D02*
Y23667D01*
X35183Y24133D01*
X35067D01*
X34950Y24017D01*
Y23783D01*
X35067Y23667D01*
X35650Y24833D02*
Y24367D01*
X35183Y24833D01*
X35067D01*
X34950Y24716D01*
Y24483D01*
X35067Y24367D01*
X31733Y30533D02*
X31617Y30650D01*
X31384D01*
X31267Y30533D01*
Y30067D01*
X31384Y29950D01*
X31617D01*
X31733Y30067D01*
X32433Y29950D02*
X31967D01*
X32433Y30417D01*
Y30533D01*
X32317Y30650D01*
X32083D01*
X31967Y30533D01*
X32667D02*
X32783Y30650D01*
X33016D01*
X33133Y30533D01*
Y30417D01*
X33016Y30300D01*
X32900D01*
X33016D01*
X33133Y30183D01*
Y30067D01*
X33016Y29950D01*
X32783D01*
X32667Y30067D01*
X31733Y31733D02*
X31617Y31850D01*
X31384D01*
X31267Y31733D01*
Y31267D01*
X31384Y31150D01*
X31617D01*
X31733Y31267D01*
X32433Y31150D02*
X31967D01*
X32433Y31617D01*
Y31733D01*
X32317Y31850D01*
X32083D01*
X31967Y31733D01*
X33016Y31150D02*
Y31850D01*
X32667Y31500D01*
X33133D01*
X15750Y14417D02*
X15050D01*
Y14767D01*
X15167Y14883D01*
X15400D01*
X15517Y14767D01*
Y14417D01*
Y14650D02*
X15750Y14883D01*
X15050Y15583D02*
Y15117D01*
X15400D01*
X15283Y15350D01*
Y15467D01*
X15400Y15583D01*
X15633D01*
X15750Y15467D01*
Y15233D01*
X15633Y15117D01*
X1017Y29450D02*
Y30150D01*
X1367D01*
X1483Y30033D01*
Y29800D01*
X1367Y29684D01*
X1017D01*
X1250D02*
X1483Y29450D01*
X2183D02*
X1717D01*
X2183Y29917D01*
Y30033D01*
X2066Y30150D01*
X1833D01*
X1717Y30033D01*
X1483Y24133D02*
X1367Y24250D01*
X1133D01*
X1017Y24133D01*
Y23667D01*
X1133Y23550D01*
X1367D01*
X1483Y23667D01*
X1717Y24133D02*
X1833Y24250D01*
X2067D01*
X2183Y24133D01*
Y24017D01*
X2067Y23900D01*
X1950D01*
X2067D01*
X2183Y23783D01*
Y23667D01*
X2067Y23550D01*
X1833D01*
X1717Y23667D01*
D16*
X36800Y41654D02*
D03*
Y43432D02*
D03*
M02*
