G04*
G04 #@! TF.GenerationSoftware,Altium Limited,Altium Designer,24.2.2 (26)*
G04*
G04 Layer_Color=8388736*
%FSLAX43Y43*%
%MOMM*%
G71*
G04*
G04 #@! TF.SameCoordinates,2141299B-130D-49DC-A549-A87D6ECFFEEA*
G04*
G04*
G04 #@! TF.FilePolarity,Negative*
G04*
G01*
G75*
%ADD37R,1.000X5.000*%
%ADD39R,0.914X2.337*%
%ADD40R,1.250X1.350*%
%ADD41R,0.800X1.340*%
%ADD42R,0.500X1.340*%
G04:AMPARAMS|DCode=43|XSize=1.37mm|YSize=0.57mm|CornerRadius=0.285mm|HoleSize=0mm|Usage=FLASHONLY|Rotation=90.000|XOffset=0mm|YOffset=0mm|HoleType=Round|Shape=RoundedRectangle|*
%AMROUNDEDRECTD43*
21,1,1.370,0.000,0,0,90.0*
21,1,0.800,0.570,0,0,90.0*
1,1,0.570,0.000,0.400*
1,1,0.570,0.000,-0.400*
1,1,0.570,0.000,-0.400*
1,1,0.570,0.000,0.400*
%
%ADD43ROUNDEDRECTD43*%
%ADD44R,0.570X1.370*%
%ADD45R,1.370X0.570*%
%ADD46R,1.800X1.800*%
%ADD47R,1.700X2.200*%
%ADD48R,4.000X2.200*%
%ADD49R,1.700X1.100*%
%ADD50R,1.100X1.700*%
%ADD51R,1.100X1.100*%
%ADD52R,0.800X0.900*%
%ADD53R,0.900X0.800*%
%ADD54R,1.200X1.050*%
%ADD55R,1.521X1.724*%
G04:AMPARAMS|DCode=56|XSize=0.8mm|YSize=0.9mm|CornerRadius=0.25mm|HoleSize=0mm|Usage=FLASHONLY|Rotation=90.000|XOffset=0mm|YOffset=0mm|HoleType=Round|Shape=RoundedRectangle|*
%AMROUNDEDRECTD56*
21,1,0.800,0.400,0,0,90.0*
21,1,0.300,0.900,0,0,90.0*
1,1,0.500,0.200,0.150*
1,1,0.500,0.200,-0.150*
1,1,0.500,-0.200,-0.150*
1,1,0.500,-0.200,0.150*
%
%ADD56ROUNDEDRECTD56*%
%ADD57R,1.100X1.100*%
%ADD58R,1.724X4.264*%
%ADD59R,1.216X2.232*%
%ADD60R,1.400X1.400*%
%ADD61C,1.500*%
%ADD62R,1.500X1.500*%
%ADD63O,1.250X2.300*%
%ADD64O,1.100X2.000*%
%ADD65C,0.850*%
%ADD66C,1.876*%
%ADD67C,6.200*%
G36*
X49950Y5040D02*
X52162D01*
Y-40D01*
X49950D01*
Y-40D01*
X45340D01*
Y-40D01*
X39710D01*
Y-40D01*
X35398D01*
Y-50D01*
X28032D01*
Y-40D01*
X23968D01*
Y-50D01*
X16602D01*
Y-40D01*
X12310D01*
Y-40D01*
X6710D01*
Y-40D01*
X2378D01*
Y-50D01*
X-162D01*
Y5030D01*
X2100D01*
Y5235D01*
X6710D01*
Y5040D01*
X12310D01*
Y5235D01*
X16920D01*
Y5030D01*
X23690D01*
Y5235D01*
X28300D01*
Y5030D01*
X35100D01*
Y5235D01*
X39710D01*
Y5040D01*
X45340D01*
Y5235D01*
X49950D01*
Y5040D01*
D02*
G37*
%LPC*%
G36*
X26323Y3088D02*
D01*
Y2815D01*
X26322Y2836D01*
X26319Y2857D01*
X26315Y2876D01*
X26310Y2895D01*
X26303Y2912D01*
X26297Y2928D01*
X26289Y2942D01*
X26281Y2956D01*
X26274Y2967D01*
X26266Y2978D01*
X26259Y2988D01*
X26253Y2995D01*
X26248Y3001D01*
X26243Y3006D01*
X26241Y3008D01*
X26240Y3009D01*
X26224Y3022D01*
X26206Y3035D01*
X26188Y3045D01*
X26170Y3055D01*
X26150Y3062D01*
X26132Y3068D01*
X26113Y3073D01*
X26095Y3077D01*
X26078Y3081D01*
X26063Y3083D01*
X26049Y3085D01*
X26037Y3087D01*
X26027D01*
X26020Y3088D01*
X26013D01*
X25989Y3087D01*
X25966Y3085D01*
X25944Y3082D01*
X25924Y3077D01*
X25904Y3072D01*
X25886Y3066D01*
X25869Y3060D01*
X25854Y3054D01*
X25840Y3048D01*
X25828Y3041D01*
X25818Y3036D01*
X25809Y3031D01*
X25803Y3026D01*
X25798Y3022D01*
X25794Y3021D01*
X25793Y3020D01*
X25778Y3006D01*
X25764Y2991D01*
X25751Y2975D01*
X25740Y2957D01*
X25730Y2939D01*
X25721Y2921D01*
X25715Y2902D01*
X25709Y2885D01*
X25703Y2868D01*
X25699Y2852D01*
X25696Y2837D01*
X25694Y2825D01*
X25691Y2814D01*
X25690Y2806D01*
X25689Y2801D01*
Y2800D01*
Y2799D01*
X25875Y2781D01*
X25877Y2795D01*
X25879Y2809D01*
X25881Y2821D01*
X25884Y2833D01*
X25887Y2844D01*
X25891Y2853D01*
X25894Y2862D01*
X25897Y2869D01*
X25901Y2876D01*
X25904Y2882D01*
X25907Y2886D01*
X25910Y2891D01*
X25912Y2894D01*
X25913Y2896D01*
X25915Y2897D01*
X25930Y2909D01*
X25945Y2918D01*
X25960Y2924D01*
X25974Y2929D01*
X25988Y2931D01*
X25994Y2932D01*
X25999D01*
X26002Y2933D01*
X26008D01*
X26029Y2931D01*
X26048Y2928D01*
X26064Y2922D01*
X26077Y2916D01*
X26088Y2910D01*
X26095Y2904D01*
X26100Y2901D01*
X26101Y2899D01*
X26112Y2885D01*
X26121Y2869D01*
X26127Y2853D01*
X26131Y2838D01*
X26133Y2825D01*
X26134Y2818D01*
Y2813D01*
X26135Y2808D01*
Y2805D01*
Y2803D01*
Y2803D01*
Y2792D01*
X26133Y2781D01*
X26129Y2761D01*
X26122Y2742D01*
X26116Y2724D01*
X26109Y2710D01*
X26105Y2704D01*
X26102Y2699D01*
X26100Y2694D01*
X26098Y2691D01*
X26097Y2689D01*
X26096Y2688D01*
X26089Y2680D01*
X26081Y2670D01*
X26072Y2658D01*
X26060Y2645D01*
X26048Y2633D01*
X26034Y2619D01*
X26008Y2593D01*
X25995Y2580D01*
X25983Y2568D01*
X25972Y2557D01*
X25962Y2548D01*
X25953Y2539D01*
X25947Y2534D01*
X25943Y2530D01*
X25941Y2529D01*
X25913Y2502D01*
X25887Y2477D01*
X25864Y2453D01*
X25842Y2430D01*
X25823Y2410D01*
X25806Y2391D01*
X25791Y2373D01*
X25777Y2357D01*
X25765Y2342D01*
X25756Y2330D01*
X25748Y2320D01*
X25742Y2310D01*
X25737Y2304D01*
X25733Y2298D01*
X25732Y2295D01*
X25731Y2294D01*
X25721Y2277D01*
X25713Y2261D01*
X25705Y2244D01*
X25699Y2228D01*
X25688Y2197D01*
X25683Y2182D01*
X25679Y2168D01*
X25676Y2155D01*
X25673Y2144D01*
X25672Y2134D01*
X25670Y2125D01*
X25669Y2117D01*
X25668Y2112D01*
X25667Y2109D01*
Y2108D01*
X26323D01*
Y3088D01*
D02*
G37*
G36*
X3870Y3102D02*
X2958D01*
Y2601D01*
X2959Y2575D01*
X2960Y2549D01*
X2963Y2525D01*
X2967Y2501D01*
X2971Y2478D01*
X2976Y2457D01*
X2981Y2437D01*
X2987Y2418D01*
X2992Y2401D01*
X2997Y2386D01*
X3001Y2372D01*
X3006Y2361D01*
X3009Y2352D01*
X3012Y2345D01*
X3014Y2342D01*
X3015Y2340D01*
X3026Y2318D01*
X3038Y2298D01*
X3052Y2279D01*
X3065Y2262D01*
X3080Y2245D01*
X3094Y2230D01*
X3108Y2216D01*
X3122Y2204D01*
X3135Y2193D01*
X3146Y2184D01*
X3157Y2175D01*
X3167Y2169D01*
X3174Y2164D01*
X3180Y2160D01*
X3185Y2158D01*
X3185Y2157D01*
X3207Y2146D01*
X3229Y2136D01*
X3252Y2127D01*
X3275Y2120D01*
X3298Y2114D01*
X3320Y2109D01*
X3342Y2104D01*
X3362Y2101D01*
X3381Y2098D01*
X3399Y2097D01*
X3414Y2095D01*
X3427Y2094D01*
X3437D01*
X3446Y2093D01*
X3453D01*
X3475Y2094D01*
X3497Y2095D01*
X3541Y2100D01*
X3561Y2103D01*
X3580Y2108D01*
X3599Y2112D01*
X3616Y2116D01*
X3632Y2120D01*
X3646Y2124D01*
X3659Y2128D01*
X3669Y2131D01*
X3678Y2134D01*
X3684Y2136D01*
X3688Y2137D01*
X3689Y2138D01*
X3711Y2147D01*
X3731Y2156D01*
X3750Y2165D01*
X3767Y2174D01*
X3783Y2183D01*
X3799Y2191D01*
X3811Y2200D01*
X3824Y2208D01*
X3834Y2216D01*
X3843Y2223D01*
X3852Y2229D01*
X3858Y2234D01*
X3863Y2238D01*
X3867Y2241D01*
X3869Y2243D01*
X3870Y2244D01*
Y2633D01*
Y2633D01*
X3445D01*
Y2468D01*
X3671D01*
Y2345D01*
X3653Y2332D01*
X3635Y2321D01*
X3618Y2311D01*
X3601Y2302D01*
X3585Y2295D01*
X3580Y2292D01*
X3574Y2290D01*
X3569Y2288D01*
X3566Y2286D01*
X3564Y2285D01*
X3563D01*
X3541Y2278D01*
X3518Y2272D01*
X3497Y2268D01*
X3479Y2265D01*
X3470Y2263D01*
X3463D01*
X3456Y2262D01*
X3451Y2262D01*
X3440D01*
X3417Y2262D01*
X3395Y2265D01*
X3375Y2269D01*
X3355Y2275D01*
X3338Y2282D01*
X3321Y2289D01*
X3305Y2297D01*
X3292Y2305D01*
X3279Y2313D01*
X3269Y2321D01*
X3260Y2328D01*
X3252Y2334D01*
X3245Y2340D01*
X3241Y2345D01*
X3239Y2347D01*
X3238Y2348D01*
X3224Y2365D01*
X3212Y2384D01*
X3202Y2405D01*
X3193Y2426D01*
X3186Y2447D01*
X3179Y2469D01*
X3174Y2490D01*
X3170Y2511D01*
X3168Y2531D01*
X3165Y2549D01*
X3163Y2565D01*
X3162Y2580D01*
Y2592D01*
X3161Y2601D01*
Y2604D01*
Y2607D01*
Y2608D01*
Y2608D01*
X3162Y2638D01*
X3164Y2665D01*
X3168Y2691D01*
X3173Y2715D01*
X3179Y2736D01*
X3185Y2756D01*
X3192Y2774D01*
X3199Y2791D01*
X3206Y2806D01*
X3213Y2817D01*
X3219Y2828D01*
X3225Y2837D01*
X3230Y2844D01*
X3234Y2848D01*
X3236Y2851D01*
X3237Y2852D01*
X3252Y2866D01*
X3267Y2879D01*
X3284Y2890D01*
X3301Y2899D01*
X3318Y2908D01*
X3335Y2914D01*
X3352Y2920D01*
X3368Y2924D01*
X3383Y2927D01*
X3397Y2930D01*
X3410Y2932D01*
X3421Y2933D01*
X3429D01*
X3436Y2934D01*
X3442D01*
X3458Y2933D01*
X3472Y2932D01*
X3500Y2927D01*
X3513Y2924D01*
X3525Y2921D01*
X3535Y2917D01*
X3545Y2913D01*
X3553Y2909D01*
X3562Y2905D01*
X3568Y2902D01*
X3574Y2899D01*
X3578Y2896D01*
X3581Y2893D01*
X3583Y2893D01*
X3584Y2892D01*
X3603Y2875D01*
X3620Y2857D01*
X3634Y2838D01*
X3644Y2820D01*
X3652Y2804D01*
X3655Y2797D01*
X3657Y2791D01*
X3659Y2786D01*
X3661Y2783D01*
X3662Y2780D01*
Y2779D01*
X3857Y2816D01*
X3851Y2840D01*
X3843Y2863D01*
X3834Y2885D01*
X3824Y2904D01*
X3813Y2924D01*
X3802Y2941D01*
X3791Y2957D01*
X3780Y2970D01*
X3769Y2983D01*
X3759Y2994D01*
X3750Y3003D01*
X3741Y3012D01*
X3734Y3018D01*
X3729Y3022D01*
X3726Y3025D01*
X3725Y3025D01*
X3705Y3039D01*
X3684Y3051D01*
X3662Y3061D01*
X3638Y3070D01*
X3614Y3077D01*
X3591Y3084D01*
X3568Y3089D01*
X3546Y3093D01*
X3525Y3096D01*
X3504Y3098D01*
X3487Y3100D01*
X3472Y3102D01*
X3459D01*
X3454Y3102D01*
X3870D01*
D02*
G37*
G36*
X47962Y3096D02*
Y2622D01*
X47961Y2647D01*
X47959Y2671D01*
X47958Y2693D01*
X47956Y2715D01*
X47953Y2737D01*
X47950Y2757D01*
X47947Y2776D01*
X47943Y2795D01*
X47940Y2812D01*
X47936Y2829D01*
X47931Y2845D01*
X47923Y2874D01*
X47914Y2900D01*
X47905Y2923D01*
X47897Y2942D01*
X47888Y2958D01*
X47881Y2972D01*
X47875Y2982D01*
X47870Y2989D01*
X47867Y2993D01*
X47866Y2995D01*
X47851Y3012D01*
X47834Y3028D01*
X47816Y3042D01*
X47798Y3053D01*
X47780Y3063D01*
X47761Y3072D01*
X47743Y3078D01*
X47726Y3083D01*
X47709Y3088D01*
X47694Y3091D01*
X47680Y3093D01*
X47668Y3094D01*
X47658Y3095D01*
X47651Y3096D01*
X47645D01*
X47618Y3095D01*
X47595Y3092D01*
X47572Y3087D01*
X47550Y3080D01*
X47530Y3072D01*
X47513Y3064D01*
X47496Y3055D01*
X47481Y3046D01*
X47468Y3036D01*
X47456Y3028D01*
X47447Y3019D01*
X47438Y3011D01*
X47432Y3005D01*
X47427Y3000D01*
X47425Y2996D01*
X47424Y2995D01*
X47415Y2984D01*
X47407Y2971D01*
X47393Y2944D01*
X47380Y2914D01*
X47369Y2882D01*
X47360Y2850D01*
X47352Y2817D01*
X47345Y2784D01*
X47340Y2752D01*
X47336Y2721D01*
X47333Y2693D01*
X47331Y2666D01*
Y2655D01*
X47330Y2644D01*
X47329Y2634D01*
Y2625D01*
X47328Y2617D01*
Y2572D01*
X47329Y2548D01*
X47331Y2524D01*
X47332Y2501D01*
X47334Y2479D01*
X47337Y2458D01*
X47339Y2439D01*
X47342Y2419D01*
X47345Y2401D01*
X47349Y2384D01*
X47352Y2368D01*
X47356Y2352D01*
X47360Y2337D01*
X47364Y2324D01*
X47368Y2310D01*
X47372Y2298D01*
X47380Y2276D01*
X47387Y2258D01*
X47395Y2243D01*
X47402Y2230D01*
X47408Y2221D01*
X47412Y2214D01*
X47415Y2210D01*
X47415Y2209D01*
X47432Y2189D01*
X47450Y2172D01*
X47469Y2158D01*
X47488Y2145D01*
X47508Y2135D01*
X47526Y2127D01*
X47545Y2119D01*
X47563Y2113D01*
X47579Y2109D01*
X47595Y2106D01*
X47609Y2103D01*
X47621Y2101D01*
X47631Y2101D01*
X47639Y2100D01*
X47645D01*
X47671Y2101D01*
X47694Y2104D01*
X47718Y2109D01*
X47739Y2115D01*
X47759Y2123D01*
X47777Y2131D01*
X47793Y2140D01*
X47809Y2150D01*
X47821Y2159D01*
X47833Y2168D01*
X47843Y2177D01*
X47851Y2184D01*
X47857Y2190D01*
X47862Y2195D01*
X47865Y2199D01*
X47865Y2199D01*
X47874Y2211D01*
X47882Y2224D01*
X47897Y2251D01*
X47910Y2282D01*
X47921Y2313D01*
X47930Y2345D01*
X47938Y2379D01*
X47945Y2412D01*
X47950Y2444D01*
X47953Y2474D01*
X47957Y2503D01*
X47959Y2529D01*
Y2541D01*
X47960Y2552D01*
X47961Y2561D01*
Y2571D01*
X47962Y2578D01*
Y2100D01*
D01*
D01*
Y3096D01*
D02*
G37*
G36*
X15810Y2841D02*
X15486D01*
X15457Y2840D01*
X15430Y2836D01*
X15404Y2831D01*
X15380Y2825D01*
X15358Y2818D01*
X15337Y2809D01*
X15319Y2801D01*
X15302Y2792D01*
X15287Y2782D01*
X15273Y2774D01*
X15262Y2765D01*
X15253Y2758D01*
X15245Y2752D01*
X15240Y2747D01*
X15237Y2743D01*
X15236Y2742D01*
X15220Y2723D01*
X15205Y2703D01*
X15193Y2682D01*
X15182Y2659D01*
X15173Y2636D01*
X15166Y2614D01*
X15160Y2591D01*
X15155Y2570D01*
X15151Y2550D01*
X15149Y2531D01*
X15146Y2514D01*
X15145Y2499D01*
X15144Y2487D01*
X15144Y2478D01*
Y2102D01*
Y2470D01*
X15144Y2439D01*
X15148Y2409D01*
X15152Y2381D01*
X15158Y2355D01*
X15165Y2331D01*
X15172Y2309D01*
X15181Y2288D01*
X15189Y2271D01*
X15198Y2254D01*
X15206Y2239D01*
X15214Y2227D01*
X15221Y2217D01*
X15226Y2210D01*
X15231Y2204D01*
X15234Y2200D01*
X15235Y2199D01*
X15253Y2183D01*
X15272Y2167D01*
X15292Y2155D01*
X15313Y2144D01*
X15333Y2134D01*
X15354Y2126D01*
X15374Y2119D01*
X15393Y2114D01*
X15412Y2111D01*
X15429Y2107D01*
X15444Y2106D01*
X15457Y2104D01*
X15468Y2103D01*
X15476Y2102D01*
X15144D01*
X15810D01*
X15483D01*
X15507Y2103D01*
X15531Y2105D01*
X15554Y2108D01*
X15574Y2112D01*
X15594Y2117D01*
X15611Y2123D01*
X15627Y2128D01*
X15643Y2134D01*
X15656Y2140D01*
X15667Y2146D01*
X15677Y2151D01*
X15686Y2156D01*
X15692Y2161D01*
X15697Y2164D01*
X15699Y2166D01*
X15700Y2166D01*
X15715Y2179D01*
X15728Y2194D01*
X15741Y2208D01*
X15752Y2223D01*
X15762Y2239D01*
X15770Y2255D01*
X15779Y2271D01*
X15786Y2287D01*
X15791Y2301D01*
X15797Y2315D01*
X15801Y2326D01*
X15804Y2336D01*
X15807Y2346D01*
X15808Y2352D01*
X15810Y2356D01*
Y2372D01*
Y2358D01*
X15627Y2389D01*
X15624Y2375D01*
X15621Y2363D01*
X15616Y2352D01*
X15613Y2342D01*
X15609Y2331D01*
X15605Y2323D01*
X15601Y2315D01*
X15597Y2309D01*
X15594Y2303D01*
X15590Y2298D01*
X15584Y2290D01*
X15580Y2286D01*
X15578Y2284D01*
X15565Y2274D01*
X15550Y2267D01*
X15536Y2262D01*
X15523Y2258D01*
X15510Y2256D01*
X15501Y2255D01*
X15496Y2254D01*
X15491D01*
X15479Y2255D01*
X15466Y2257D01*
X15454Y2260D01*
X15443Y2263D01*
X15424Y2271D01*
X15407Y2281D01*
X15400Y2285D01*
X15394Y2290D01*
X15389Y2294D01*
X15385Y2298D01*
X15381Y2301D01*
X15379Y2304D01*
X15378Y2305D01*
X15377Y2306D01*
X15369Y2316D01*
X15364Y2329D01*
X15358Y2342D01*
X15353Y2356D01*
X15346Y2385D01*
X15341Y2414D01*
X15339Y2428D01*
X15338Y2441D01*
X15337Y2453D01*
X15336Y2463D01*
X15336Y2472D01*
Y2479D01*
Y2482D01*
Y2484D01*
X15336Y2504D01*
X15337Y2523D01*
X15340Y2540D01*
X15342Y2556D01*
X15345Y2571D01*
X15349Y2584D01*
X15353Y2596D01*
X15357Y2606D01*
X15360Y2616D01*
X15364Y2623D01*
X15368Y2630D01*
X15370Y2635D01*
X15374Y2639D01*
X15375Y2642D01*
X15376Y2644D01*
X15377Y2644D01*
X15385Y2653D01*
X15394Y2660D01*
X15402Y2667D01*
X15412Y2673D01*
X15421Y2677D01*
X15430Y2682D01*
X15448Y2688D01*
X15464Y2691D01*
X15471Y2692D01*
X15476Y2693D01*
X15481Y2693D01*
X15488D01*
X15506Y2693D01*
X15523Y2689D01*
X15539Y2685D01*
X15550Y2680D01*
X15561Y2674D01*
X15567Y2670D01*
X15572Y2666D01*
X15573Y2666D01*
X15584Y2654D01*
X15594Y2641D01*
X15601Y2627D01*
X15607Y2614D01*
X15611Y2601D01*
X15615Y2592D01*
X15616Y2588D01*
Y2585D01*
X15616Y2583D01*
Y2583D01*
X15801Y2616D01*
X15794Y2636D01*
X15786Y2655D01*
X15778Y2673D01*
X15769Y2690D01*
X15760Y2705D01*
X15751Y2719D01*
X15742Y2731D01*
X15733Y2742D01*
X15725Y2753D01*
X15717Y2761D01*
X15709Y2769D01*
X15704Y2775D01*
X15698Y2779D01*
X15694Y2782D01*
X15692Y2784D01*
X15691Y2785D01*
X15676Y2795D01*
X15660Y2803D01*
X15643Y2811D01*
X15627Y2817D01*
X15610Y2823D01*
X15593Y2827D01*
X15576Y2830D01*
X15560Y2834D01*
X15545Y2836D01*
X15531Y2838D01*
X15518Y2839D01*
X15507Y2840D01*
X15499Y2841D01*
X15810D01*
D02*
G37*
G36*
X15052D02*
X14728D01*
X14700Y2840D01*
X14672Y2836D01*
X14646Y2831D01*
X14623Y2825D01*
X14601Y2818D01*
X14579Y2809D01*
X14561Y2801D01*
X14544Y2792D01*
X14529Y2782D01*
X14515Y2774D01*
X14504Y2765D01*
X14495Y2758D01*
X14487Y2752D01*
X14482Y2747D01*
X14479Y2743D01*
X14478Y2742D01*
X14462Y2723D01*
X14447Y2703D01*
X14435Y2682D01*
X14425Y2659D01*
X14415Y2636D01*
X14409Y2614D01*
X14402Y2591D01*
X14398Y2570D01*
X14393Y2550D01*
X14391Y2531D01*
X14388Y2514D01*
X14387Y2499D01*
X14387Y2487D01*
X14386Y2478D01*
Y2102D01*
Y2470D01*
X14387Y2439D01*
X14390Y2409D01*
X14394Y2381D01*
X14400Y2355D01*
X14407Y2331D01*
X14415Y2309D01*
X14423Y2288D01*
X14431Y2271D01*
X14440Y2254D01*
X14448Y2239D01*
X14456Y2227D01*
X14463Y2217D01*
X14469Y2210D01*
X14473Y2204D01*
X14476Y2200D01*
X14477Y2199D01*
X14495Y2183D01*
X14514Y2167D01*
X14535Y2155D01*
X14555Y2144D01*
X14575Y2134D01*
X14596Y2126D01*
X14616Y2119D01*
X14635Y2114D01*
X14654Y2111D01*
X14671Y2107D01*
X14686Y2106D01*
X14700Y2104D01*
X14710Y2103D01*
X14718Y2102D01*
X14386D01*
X15052D01*
X14725D01*
X14749Y2103D01*
X14773Y2105D01*
X14796Y2108D01*
X14816Y2112D01*
X14836Y2117D01*
X14853Y2123D01*
X14870Y2128D01*
X14885Y2134D01*
X14898Y2140D01*
X14909Y2146D01*
X14919Y2151D01*
X14928Y2156D01*
X14934Y2161D01*
X14939Y2164D01*
X14941Y2166D01*
X14942Y2166D01*
X14957Y2179D01*
X14970Y2194D01*
X14983Y2208D01*
X14994Y2223D01*
X15004Y2239D01*
X15012Y2255D01*
X15021Y2271D01*
X15028Y2287D01*
X15034Y2301D01*
X15039Y2315D01*
X15043Y2326D01*
X15046Y2336D01*
X15049Y2346D01*
X15051Y2352D01*
X15052Y2356D01*
Y2381D01*
Y2358D01*
X14869Y2389D01*
X14866Y2375D01*
X14863Y2363D01*
X14859Y2352D01*
X14855Y2342D01*
X14851Y2331D01*
X14848Y2323D01*
X14843Y2315D01*
X14839Y2309D01*
X14836Y2303D01*
X14832Y2298D01*
X14826Y2290D01*
X14822Y2286D01*
X14820Y2284D01*
X14807Y2274D01*
X14793Y2267D01*
X14778Y2262D01*
X14765Y2258D01*
X14752Y2256D01*
X14743Y2255D01*
X14738Y2254D01*
X14733D01*
X14721Y2255D01*
X14708Y2257D01*
X14696Y2260D01*
X14685Y2263D01*
X14666Y2271D01*
X14650Y2281D01*
X14642Y2285D01*
X14636Y2290D01*
X14631Y2294D01*
X14627Y2298D01*
X14623Y2301D01*
X14621Y2304D01*
X14620Y2305D01*
X14619Y2306D01*
X14612Y2316D01*
X14606Y2329D01*
X14600Y2342D01*
X14595Y2356D01*
X14588Y2385D01*
X14583Y2414D01*
X14581Y2428D01*
X14580Y2441D01*
X14579Y2453D01*
X14579Y2463D01*
X14578Y2472D01*
Y2479D01*
Y2482D01*
Y2484D01*
X14579Y2504D01*
X14579Y2523D01*
X14582Y2540D01*
X14585Y2556D01*
X14587Y2571D01*
X14591Y2584D01*
X14595Y2596D01*
X14599Y2606D01*
X14602Y2616D01*
X14606Y2623D01*
X14610Y2630D01*
X14612Y2635D01*
X14616Y2639D01*
X14617Y2642D01*
X14618Y2644D01*
X14619Y2644D01*
X14628Y2653D01*
X14636Y2660D01*
X14645Y2667D01*
X14654Y2673D01*
X14663Y2677D01*
X14672Y2682D01*
X14690Y2688D01*
X14706Y2691D01*
X14713Y2692D01*
X14718Y2693D01*
X14723Y2693D01*
X14730D01*
X14749Y2693D01*
X14766Y2689D01*
X14781Y2685D01*
X14793Y2680D01*
X14803Y2674D01*
X14809Y2670D01*
X14814Y2666D01*
X14815Y2666D01*
X14826Y2654D01*
X14836Y2641D01*
X14843Y2627D01*
X14849Y2614D01*
X14853Y2601D01*
X14857Y2592D01*
X14858Y2588D01*
Y2585D01*
X14859Y2583D01*
Y2583D01*
X15043Y2616D01*
X15036Y2636D01*
X15029Y2655D01*
X15020Y2673D01*
X15012Y2690D01*
X15002Y2705D01*
X14993Y2719D01*
X14985Y2731D01*
X14975Y2742D01*
X14967Y2753D01*
X14959Y2761D01*
X14952Y2769D01*
X14946Y2775D01*
X14941Y2779D01*
X14936Y2782D01*
X14934Y2784D01*
X14933Y2785D01*
X14918Y2795D01*
X14903Y2803D01*
X14886Y2811D01*
X14869Y2817D01*
X14852Y2823D01*
X14835Y2827D01*
X14818Y2830D01*
X14802Y2834D01*
X14787Y2836D01*
X14773Y2838D01*
X14760Y2839D01*
X14749Y2840D01*
X14741Y2841D01*
X15052D01*
D02*
G37*
G36*
X14328Y3094D02*
X14118D01*
X13880Y2372D01*
X13633Y3094D01*
X13420D01*
X13768Y2118D01*
X13420D01*
D01*
X14328D01*
D01*
X13980D01*
X14328Y3094D01*
D02*
G37*
G36*
X5852Y3085D02*
X5034D01*
Y2110D01*
X5852D01*
X5425D01*
X5444Y2111D01*
X5461Y2112D01*
X5478Y2114D01*
X5494Y2115D01*
X5508Y2117D01*
X5521Y2119D01*
X5533Y2120D01*
X5544Y2122D01*
X5553Y2124D01*
X5560Y2125D01*
X5567Y2127D01*
X5572Y2129D01*
X5576Y2130D01*
X5578Y2131D01*
X5579D01*
X5595Y2136D01*
X5610Y2142D01*
X5624Y2148D01*
X5637Y2154D01*
X5650Y2161D01*
X5661Y2168D01*
X5672Y2174D01*
X5681Y2180D01*
X5690Y2186D01*
X5697Y2191D01*
X5703Y2196D01*
X5708Y2200D01*
X5713Y2203D01*
X5715Y2206D01*
X5717Y2208D01*
X5718Y2208D01*
X5730Y2221D01*
X5741Y2235D01*
X5763Y2263D01*
X5780Y2292D01*
X5796Y2319D01*
X5801Y2332D01*
X5807Y2344D01*
X5812Y2354D01*
X5815Y2363D01*
X5818Y2371D01*
X5820Y2376D01*
X5822Y2380D01*
Y2381D01*
X5832Y2415D01*
X5840Y2450D01*
X5845Y2485D01*
X5847Y2501D01*
X5849Y2517D01*
X5850Y2532D01*
X5851Y2546D01*
X5851Y2558D01*
Y2568D01*
X5852Y2576D01*
Y2614D01*
X5851Y2637D01*
X5850Y2660D01*
X5847Y2682D01*
X5845Y2702D01*
X5842Y2721D01*
X5840Y2739D01*
X5836Y2755D01*
X5833Y2769D01*
X5830Y2782D01*
X5828Y2793D01*
X5825Y2801D01*
X5823Y2809D01*
X5822Y2814D01*
X5820Y2817D01*
Y2818D01*
X5807Y2852D01*
X5800Y2868D01*
X5792Y2882D01*
X5784Y2897D01*
X5776Y2910D01*
X5769Y2921D01*
X5761Y2932D01*
X5754Y2943D01*
X5747Y2951D01*
X5741Y2959D01*
X5736Y2965D01*
X5732Y2970D01*
X5729Y2974D01*
X5727Y2976D01*
X5726Y2976D01*
X5714Y2988D01*
X5703Y2999D01*
X5690Y3009D01*
X5678Y3018D01*
X5665Y3026D01*
X5653Y3033D01*
X5631Y3046D01*
X5620Y3051D01*
X5610Y3055D01*
X5602Y3058D01*
X5594Y3061D01*
X5588Y3063D01*
X5584Y3065D01*
X5581Y3066D01*
X5580D01*
X5567Y3069D01*
X5554Y3073D01*
X5524Y3077D01*
X5493Y3080D01*
X5463Y3083D01*
X5449Y3084D01*
X5436Y3085D01*
X5424D01*
X5414Y3085D01*
X5852D01*
D02*
G37*
G36*
X4827D02*
X4054D01*
Y2110D01*
X4827D01*
Y3085D01*
D02*
G37*
G36*
X37619Y3088D02*
X37467D01*
X37460Y3071D01*
X37453Y3055D01*
X37444Y3040D01*
X37435Y3025D01*
X37426Y3011D01*
X37416Y2999D01*
X37405Y2987D01*
X37396Y2976D01*
X37387Y2966D01*
X37377Y2957D01*
X37370Y2950D01*
X37363Y2943D01*
X37357Y2938D01*
X37352Y2934D01*
X37350Y2932D01*
X37349Y2931D01*
X37333Y2919D01*
X37317Y2908D01*
X37302Y2898D01*
X37288Y2889D01*
X37274Y2880D01*
X37261Y2873D01*
X37249Y2867D01*
X37238Y2861D01*
X37227Y2856D01*
X37218Y2852D01*
X37210Y2848D01*
X37203Y2846D01*
X37198Y2843D01*
X37194Y2841D01*
X37191Y2841D01*
X37191D01*
Y2671D01*
X37216Y2680D01*
X37240Y2690D01*
X37264Y2700D01*
X37287Y2712D01*
X37308Y2724D01*
X37328Y2736D01*
X37346Y2747D01*
X37364Y2759D01*
X37379Y2770D01*
X37393Y2779D01*
X37405Y2788D01*
X37414Y2797D01*
X37422Y2803D01*
X37427Y2808D01*
X37432Y2811D01*
X37432Y2812D01*
Y2108D01*
X37191D01*
D01*
X37619D01*
Y3088D01*
D02*
G37*
%LPD*%
G36*
X26323Y2282D02*
X25951D01*
X25957Y2291D01*
X25962Y2300D01*
X25969Y2309D01*
X25975Y2316D01*
X25980Y2323D01*
X25984Y2328D01*
X25988Y2331D01*
X25989Y2332D01*
X25994Y2338D01*
X26001Y2345D01*
X26008Y2353D01*
X26017Y2361D01*
X26034Y2379D01*
X26054Y2397D01*
X26072Y2413D01*
X26080Y2421D01*
X26087Y2428D01*
X26093Y2433D01*
X26097Y2437D01*
X26100Y2440D01*
X26101Y2441D01*
X26117Y2456D01*
X26132Y2469D01*
X26145Y2482D01*
X26158Y2495D01*
X26169Y2506D01*
X26179Y2516D01*
X26188Y2525D01*
X26196Y2534D01*
X26203Y2541D01*
X26209Y2548D01*
X26214Y2553D01*
X26217Y2557D01*
X26220Y2561D01*
X26222Y2564D01*
X26224Y2565D01*
Y2566D01*
X26242Y2589D01*
X26258Y2612D01*
X26270Y2633D01*
X26281Y2652D01*
X26286Y2660D01*
X26289Y2668D01*
X26292Y2674D01*
X26295Y2680D01*
X26297Y2684D01*
X26298Y2688D01*
X26299Y2689D01*
Y2690D01*
X26307Y2713D01*
X26313Y2735D01*
X26317Y2756D01*
X26320Y2775D01*
X26321Y2784D01*
X26322Y2792D01*
Y2798D01*
X26323Y2804D01*
Y2282D01*
D02*
G37*
G36*
X3416Y3102D02*
X3392Y3101D01*
X3368Y3098D01*
X3346Y3095D01*
X3326Y3091D01*
X3306Y3087D01*
X3289Y3082D01*
X3272Y3078D01*
X3258Y3074D01*
X3245Y3069D01*
X3234Y3064D01*
X3225Y3061D01*
X3218Y3058D01*
X3212Y3056D01*
X3209Y3054D01*
X3208Y3053D01*
X3185Y3041D01*
X3165Y3027D01*
X3145Y3013D01*
X3127Y2998D01*
X3110Y2983D01*
X3095Y2968D01*
X3081Y2953D01*
X3069Y2938D01*
X3058Y2925D01*
X3047Y2912D01*
X3040Y2901D01*
X3033Y2891D01*
X3028Y2882D01*
X3025Y2877D01*
X3022Y2873D01*
X3021Y2871D01*
X3010Y2849D01*
X3000Y2826D01*
X2992Y2803D01*
X2985Y2779D01*
X2978Y2756D01*
X2973Y2734D01*
X2969Y2712D01*
X2965Y2692D01*
X2963Y2673D01*
X2961Y2655D01*
X2960Y2640D01*
X2959Y2626D01*
Y2616D01*
X2958Y2608D01*
Y3102D01*
X3442D01*
X3416Y3102D01*
D02*
G37*
G36*
X47657Y2940D02*
X47668Y2938D01*
X47678Y2934D01*
X47688Y2930D01*
X47694Y2926D01*
X47700Y2923D01*
X47704Y2920D01*
X47705Y2919D01*
X47710Y2915D01*
X47714Y2909D01*
X47723Y2896D01*
X47731Y2882D01*
X47737Y2868D01*
X47742Y2854D01*
X47744Y2848D01*
X47745Y2843D01*
X47747Y2839D01*
X47748Y2836D01*
X47749Y2834D01*
Y2833D01*
X47752Y2819D01*
X47755Y2804D01*
X47757Y2787D01*
X47759Y2769D01*
X47760Y2750D01*
X47762Y2730D01*
X47764Y2691D01*
X47765Y2672D01*
X47766Y2655D01*
Y2638D01*
X47766Y2625D01*
Y2613D01*
Y2605D01*
Y2601D01*
Y2599D01*
Y2598D01*
Y2597D01*
Y2566D01*
X47766Y2537D01*
X47765Y2511D01*
X47763Y2486D01*
X47762Y2464D01*
X47760Y2445D01*
X47759Y2427D01*
X47757Y2411D01*
X47755Y2397D01*
X47753Y2386D01*
X47751Y2375D01*
X47750Y2367D01*
X47749Y2361D01*
X47748Y2357D01*
X47747Y2354D01*
Y2353D01*
X47741Y2334D01*
X47734Y2318D01*
X47727Y2304D01*
X47720Y2293D01*
X47714Y2286D01*
X47709Y2280D01*
X47705Y2276D01*
X47705Y2276D01*
X47694Y2269D01*
X47684Y2264D01*
X47674Y2260D01*
X47665Y2257D01*
X47656Y2255D01*
X47651Y2254D01*
X47645D01*
X47632Y2255D01*
X47621Y2258D01*
X47611Y2261D01*
X47602Y2265D01*
X47595Y2269D01*
X47590Y2272D01*
X47585Y2275D01*
X47585Y2276D01*
X47579Y2280D01*
X47575Y2286D01*
X47567Y2298D01*
X47559Y2312D01*
X47552Y2326D01*
X47547Y2340D01*
X47546Y2346D01*
X47544Y2351D01*
X47542Y2355D01*
X47541Y2358D01*
X47541Y2360D01*
Y2361D01*
X47538Y2375D01*
X47535Y2390D01*
X47533Y2407D01*
X47530Y2425D01*
X47530Y2444D01*
X47528Y2464D01*
X47526Y2503D01*
X47525Y2522D01*
X47524Y2539D01*
Y2556D01*
X47524Y2569D01*
Y2581D01*
Y2589D01*
Y2593D01*
Y2595D01*
Y2596D01*
Y2597D01*
Y2628D01*
X47524Y2657D01*
X47525Y2683D01*
X47526Y2708D01*
X47528Y2730D01*
X47530Y2750D01*
X47531Y2768D01*
X47533Y2784D01*
X47535Y2797D01*
X47536Y2809D01*
X47538Y2819D01*
X47540Y2827D01*
X47541Y2834D01*
X47541Y2838D01*
X47542Y2841D01*
Y2841D01*
X47548Y2861D01*
X47555Y2877D01*
X47562Y2891D01*
X47568Y2902D01*
X47574Y2909D01*
X47579Y2915D01*
X47583Y2918D01*
X47584Y2919D01*
X47594Y2927D01*
X47605Y2932D01*
X47615Y2936D01*
X47624Y2939D01*
X47633Y2940D01*
X47639Y2941D01*
X47645D01*
X47657Y2940D01*
D02*
G37*
G36*
X5379Y2920D02*
X5396Y2919D01*
X5411Y2918D01*
X5424D01*
X5436Y2917D01*
X5446Y2916D01*
X5455Y2915D01*
X5462Y2915D01*
X5468Y2914D01*
X5473Y2913D01*
X5478Y2912D01*
X5480D01*
X5481Y2911D01*
X5482D01*
X5501Y2905D01*
X5519Y2899D01*
X5534Y2891D01*
X5548Y2883D01*
X5558Y2876D01*
X5566Y2871D01*
X5571Y2866D01*
X5572Y2865D01*
X5585Y2851D01*
X5597Y2836D01*
X5606Y2820D01*
X5615Y2805D01*
X5620Y2791D01*
X5623Y2785D01*
X5626Y2780D01*
X5627Y2776D01*
X5628Y2773D01*
X5629Y2771D01*
Y2770D01*
X5632Y2758D01*
X5636Y2745D01*
X5641Y2718D01*
X5644Y2689D01*
X5647Y2661D01*
X5648Y2648D01*
X5648Y2636D01*
Y2625D01*
X5649Y2616D01*
Y2608D01*
Y2603D01*
Y2599D01*
Y2597D01*
Y2577D01*
X5648Y2557D01*
X5648Y2539D01*
X5646Y2521D01*
X5644Y2505D01*
X5642Y2491D01*
X5641Y2477D01*
X5639Y2465D01*
X5637Y2454D01*
X5636Y2445D01*
X5634Y2437D01*
X5632Y2430D01*
X5631Y2425D01*
X5630Y2421D01*
X5629Y2419D01*
Y2418D01*
X5625Y2406D01*
X5620Y2395D01*
X5612Y2376D01*
X5604Y2360D01*
X5595Y2347D01*
X5588Y2337D01*
X5582Y2330D01*
X5578Y2326D01*
X5577Y2324D01*
X5564Y2315D01*
X5551Y2306D01*
X5538Y2300D01*
X5526Y2294D01*
X5515Y2290D01*
X5505Y2287D01*
X5502Y2286D01*
X5500Y2285D01*
X5499Y2284D01*
X5498D01*
X5490Y2283D01*
X5482Y2281D01*
X5463Y2279D01*
X5444Y2278D01*
X5424Y2276D01*
X5406D01*
X5399Y2275D01*
X5231D01*
Y2921D01*
X5361D01*
X5379Y2920D01*
D02*
G37*
G36*
X4644Y2433D02*
X4245Y3085D01*
X4644D01*
Y2433D01*
D02*
G37*
G36*
X4629Y2110D02*
X4237D01*
Y2747D01*
X4629Y2110D01*
D02*
G37*
D37*
X1235Y2450D02*
D03*
X10125D02*
D03*
X11395D02*
D03*
X7585D02*
D03*
X8855D02*
D03*
X20285D02*
D03*
X17745D02*
D03*
X19015D02*
D03*
X21555D02*
D03*
X22825D02*
D03*
X30445D02*
D03*
X29175D02*
D03*
X32985D02*
D03*
X34255D02*
D03*
X31715D02*
D03*
X43145D02*
D03*
X41875D02*
D03*
X40605D02*
D03*
X50765D02*
D03*
X44415D02*
D03*
D39*
X46195Y42343D02*
D03*
X43404D02*
D03*
D40*
X5225Y16175D02*
D03*
X3775D02*
D03*
X5225Y12825D02*
D03*
X3775D02*
D03*
D41*
X33300Y36850D02*
D03*
X32500D02*
D03*
X27700D02*
D03*
X26900D02*
D03*
D42*
X31850D02*
D03*
X31350D02*
D03*
X30850D02*
D03*
X30350D02*
D03*
X29850D02*
D03*
X29350D02*
D03*
X28850D02*
D03*
X28350D02*
D03*
D43*
X38225Y23200D02*
D03*
D44*
X38825D02*
D03*
X39425D02*
D03*
X40025D02*
D03*
X40625D02*
D03*
X41225D02*
D03*
X41825D02*
D03*
X42425D02*
D03*
X43025D02*
D03*
X43625D02*
D03*
X44225D02*
D03*
X44825D02*
D03*
X45425D02*
D03*
X46025D02*
D03*
X46625D02*
D03*
X47225D02*
D03*
Y34500D02*
D03*
X46625D02*
D03*
X46025D02*
D03*
X45425D02*
D03*
X44825D02*
D03*
X44225D02*
D03*
X43625D02*
D03*
X43025D02*
D03*
X42425D02*
D03*
X41825D02*
D03*
X41225D02*
D03*
X40625D02*
D03*
X40025D02*
D03*
X39425D02*
D03*
X38825D02*
D03*
X38225D02*
D03*
D45*
X48375Y24350D02*
D03*
Y24950D02*
D03*
Y25550D02*
D03*
Y26150D02*
D03*
Y26750D02*
D03*
Y27350D02*
D03*
Y27950D02*
D03*
Y28550D02*
D03*
Y29150D02*
D03*
Y29750D02*
D03*
Y30350D02*
D03*
Y30950D02*
D03*
Y31550D02*
D03*
Y32150D02*
D03*
Y32750D02*
D03*
Y33350D02*
D03*
X37075D02*
D03*
Y32750D02*
D03*
Y32150D02*
D03*
Y31550D02*
D03*
Y30950D02*
D03*
Y30350D02*
D03*
Y29750D02*
D03*
Y29150D02*
D03*
Y28550D02*
D03*
Y27950D02*
D03*
Y27350D02*
D03*
Y26750D02*
D03*
Y26150D02*
D03*
Y25550D02*
D03*
Y24950D02*
D03*
Y24350D02*
D03*
D46*
X39925Y26050D02*
D03*
Y28850D02*
D03*
Y31650D02*
D03*
X42725Y26050D02*
D03*
Y28850D02*
D03*
Y31650D02*
D03*
X45525Y26050D02*
D03*
Y28850D02*
D03*
Y31650D02*
D03*
D47*
X29300Y31500D02*
D03*
X27000D02*
D03*
X24700D02*
D03*
D48*
X27000Y25200D02*
D03*
D49*
X4125Y36910D02*
D03*
Y35640D02*
D03*
Y34370D02*
D03*
Y33100D02*
D03*
Y31830D02*
D03*
Y30560D02*
D03*
Y29290D02*
D03*
Y28020D02*
D03*
Y26750D02*
D03*
Y25480D02*
D03*
Y24210D02*
D03*
Y22940D02*
D03*
Y21670D02*
D03*
Y20400D02*
D03*
X21625D02*
D03*
Y21670D02*
D03*
Y22940D02*
D03*
Y24210D02*
D03*
Y25480D02*
D03*
Y26750D02*
D03*
Y28020D02*
D03*
Y29290D02*
D03*
Y30560D02*
D03*
Y31830D02*
D03*
Y33100D02*
D03*
Y34370D02*
D03*
Y35640D02*
D03*
Y36910D02*
D03*
D50*
X5890Y19150D02*
D03*
X7160D02*
D03*
X8430D02*
D03*
X9700D02*
D03*
X10970D02*
D03*
X12240D02*
D03*
X13510D02*
D03*
X14780D02*
D03*
X16050D02*
D03*
X17320D02*
D03*
X18590D02*
D03*
X19860D02*
D03*
D51*
X11375Y29190D02*
D03*
Y30590D02*
D03*
X9975D02*
D03*
Y29190D02*
D03*
Y27790D02*
D03*
X11375D02*
D03*
X12775D02*
D03*
Y29190D02*
D03*
Y30590D02*
D03*
X43950Y18975D02*
D03*
X45550D02*
D03*
X33363Y28490D02*
D03*
X33200Y33000D02*
D03*
X30100Y24800D02*
D03*
X31700D02*
D03*
X23600Y33600D02*
D03*
X25200D02*
D03*
X34800Y33000D02*
D03*
X34963Y28490D02*
D03*
D52*
X40500Y36300D02*
D03*
X39500D02*
D03*
X34700Y31500D02*
D03*
X33700D02*
D03*
X34700Y30300D02*
D03*
X33700D02*
D03*
X45100Y20600D02*
D03*
X44100D02*
D03*
X40500Y37500D02*
D03*
X39500D02*
D03*
X37700Y20400D02*
D03*
X36700D02*
D03*
X45750Y38900D02*
D03*
X44750D02*
D03*
X45825Y35925D02*
D03*
X44825D02*
D03*
X26600Y17200D02*
D03*
X25600D02*
D03*
D53*
X9500Y17200D02*
D03*
Y16200D02*
D03*
X48100Y16000D02*
D03*
Y15000D02*
D03*
X8300Y17200D02*
D03*
Y16200D02*
D03*
X10700Y17200D02*
D03*
Y16200D02*
D03*
X1600Y27600D02*
D03*
Y28600D02*
D03*
X35300Y26500D02*
D03*
Y25500D02*
D03*
X45500Y14000D02*
D03*
Y13000D02*
D03*
X44200Y14000D02*
D03*
Y13000D02*
D03*
X41600Y21400D02*
D03*
Y20400D02*
D03*
X39436Y20319D02*
D03*
Y19319D02*
D03*
X42225Y16326D02*
D03*
Y15326D02*
D03*
X40663Y16326D02*
D03*
Y15325D02*
D03*
X38000Y17800D02*
D03*
Y16800D02*
D03*
X39100Y17800D02*
D03*
Y16800D02*
D03*
X12000Y17200D02*
D03*
Y16200D02*
D03*
X1600Y26100D02*
D03*
Y25100D02*
D03*
X13100Y16200D02*
D03*
X15400D02*
D03*
X14300Y17200D02*
D03*
Y16200D02*
D03*
X15400Y17200D02*
D03*
X13100D02*
D03*
D54*
X25550Y20875D02*
D03*
X29050D02*
D03*
X25550Y19125D02*
D03*
X29050D02*
D03*
D55*
X44475Y16513D02*
D03*
X46390D02*
D03*
D56*
X44800Y37800D02*
D03*
Y36800D02*
D03*
D57*
X1975Y34500D02*
D03*
Y32900D02*
D03*
X1952Y35543D02*
D03*
X38700Y42200D02*
D03*
Y40600D02*
D03*
X1952Y37143D02*
D03*
D58*
X47340Y42368D02*
D03*
X42260D02*
D03*
D59*
X44800Y41352D02*
D03*
D60*
X36800Y42550D02*
D03*
Y40450D02*
D03*
D61*
X1500Y17750D02*
D03*
Y15750D02*
D03*
Y19750D02*
D03*
X50175Y12025D02*
D03*
Y16025D02*
D03*
Y18025D02*
D03*
Y14025D02*
D03*
D62*
X1500Y13750D02*
D03*
X50175Y20025D02*
D03*
D63*
X34420Y37420D02*
D03*
X25780D02*
D03*
D64*
X34420Y41600D02*
D03*
X25780D02*
D03*
D65*
X27210Y37920D02*
D03*
X32990D02*
D03*
D66*
X36065Y13000D02*
D03*
X13205D02*
D03*
X15745D02*
D03*
X18285D02*
D03*
X20825D02*
D03*
X23365D02*
D03*
X25905D02*
D03*
X28445D02*
D03*
X30985D02*
D03*
X33525D02*
D03*
X38605D02*
D03*
D67*
X4355Y6950D02*
D03*
X14595D02*
D03*
X26005D02*
D03*
X47595D02*
D03*
X37385D02*
D03*
M02*
