G04 #@! TF.GenerationSoftware,KiCad,Pcbnew,5.1.10-88a1d61d58~90~ubuntu20.04.1*
G04 #@! TF.CreationDate,2021-07-18T21:46:05+01:00*
G04 #@! TF.ProjectId,lhc_tijolo32_board,6c68635f-7469-46a6-9f6c-6f33325f626f,rev?*
G04 #@! TF.SameCoordinates,Original*
G04 #@! TF.FileFunction,Legend,Top*
G04 #@! TF.FilePolarity,Positive*
%FSLAX46Y46*%
G04 Gerber Fmt 4.6, Leading zero omitted, Abs format (unit mm)*
G04 Created by KiCad (PCBNEW 5.1.10-88a1d61d58~90~ubuntu20.04.1) date 2021-07-18 21:46:05*
%MOMM*%
%LPD*%
G01*
G04 APERTURE LIST*
%ADD10C,0.300000*%
%ADD11C,0.200000*%
%ADD12C,0.500000*%
%ADD13C,0.152400*%
%ADD14C,0.120000*%
%ADD15C,0.010000*%
%ADD16C,0.203200*%
%ADD17C,0.150000*%
G04 APERTURE END LIST*
D10*
X111938839Y-64804857D02*
X111367410Y-64804857D01*
X111517410Y-63604857D01*
X112338839Y-64804857D02*
X112488839Y-63604857D01*
X112417410Y-64176285D02*
X113103125Y-64176285D01*
X113024553Y-64804857D02*
X113174553Y-63604857D01*
X114295982Y-64690571D02*
X114231696Y-64747714D01*
X114053125Y-64804857D01*
X113938839Y-64804857D01*
X113774553Y-64747714D01*
X113674553Y-64633428D01*
X113631696Y-64519142D01*
X113603125Y-64290571D01*
X113624553Y-64119142D01*
X113710267Y-63890571D01*
X113781696Y-63776285D01*
X113910267Y-63662000D01*
X114088839Y-63604857D01*
X114203125Y-63604857D01*
X114367410Y-63662000D01*
X114417410Y-63719142D01*
X115638839Y-64004857D02*
X116095982Y-64004857D01*
X115860267Y-63604857D02*
X115731696Y-64633428D01*
X115774553Y-64747714D01*
X115881696Y-64804857D01*
X115995982Y-64804857D01*
X116395982Y-64804857D02*
X116495982Y-64004857D01*
X116545982Y-63604857D02*
X116481696Y-63662000D01*
X116531696Y-63719142D01*
X116595982Y-63662000D01*
X116545982Y-63604857D01*
X116531696Y-63719142D01*
X117067410Y-64004857D02*
X116938839Y-65033428D01*
X116867410Y-65147714D01*
X116745982Y-65204857D01*
X116688839Y-65204857D01*
X117117410Y-63604857D02*
X117053125Y-63662000D01*
X117103125Y-63719142D01*
X117167410Y-63662000D01*
X117117410Y-63604857D01*
X117103125Y-63719142D01*
X117710267Y-64804857D02*
X117603125Y-64747714D01*
X117553125Y-64690571D01*
X117510267Y-64576285D01*
X117553125Y-64233428D01*
X117624553Y-64119142D01*
X117688839Y-64062000D01*
X117810267Y-64004857D01*
X117981696Y-64004857D01*
X118088839Y-64062000D01*
X118138839Y-64119142D01*
X118181696Y-64233428D01*
X118138839Y-64576285D01*
X118067410Y-64690571D01*
X118003125Y-64747714D01*
X117881696Y-64804857D01*
X117710267Y-64804857D01*
X118795982Y-64804857D02*
X118688839Y-64747714D01*
X118645982Y-64633428D01*
X118774553Y-63604857D01*
X119424553Y-64804857D02*
X119317410Y-64747714D01*
X119267410Y-64690571D01*
X119224553Y-64576285D01*
X119267410Y-64233428D01*
X119338839Y-64119142D01*
X119403125Y-64062000D01*
X119524553Y-64004857D01*
X119695982Y-64004857D01*
X119803125Y-64062000D01*
X119853125Y-64119142D01*
X119895982Y-64233428D01*
X119853125Y-64576285D01*
X119781696Y-64690571D01*
X119717410Y-64747714D01*
X119595982Y-64804857D01*
X119424553Y-64804857D01*
X120374553Y-63604857D02*
X121117410Y-63604857D01*
X120660267Y-64062000D01*
X120831696Y-64062000D01*
X120938839Y-64119142D01*
X120988839Y-64176285D01*
X121031696Y-64290571D01*
X120995982Y-64576285D01*
X120924553Y-64690571D01*
X120860267Y-64747714D01*
X120738839Y-64804857D01*
X120395982Y-64804857D01*
X120288839Y-64747714D01*
X120238839Y-64690571D01*
X121560267Y-63719142D02*
X121624553Y-63662000D01*
X121745982Y-63604857D01*
X122031696Y-63604857D01*
X122138839Y-63662000D01*
X122188839Y-63719142D01*
X122231696Y-63833428D01*
X122217410Y-63947714D01*
X122138839Y-64119142D01*
X121367410Y-64804857D01*
X122110267Y-64804857D01*
D11*
X117332142Y-73564523D02*
X117332142Y-72294523D01*
X117815952Y-72294523D01*
X117936904Y-72355000D01*
X117997380Y-72415476D01*
X118057857Y-72536428D01*
X118057857Y-72717857D01*
X117997380Y-72838809D01*
X117936904Y-72899285D01*
X117815952Y-72959761D01*
X117332142Y-72959761D01*
X119327857Y-73564523D02*
X118904523Y-72959761D01*
X118602142Y-73564523D02*
X118602142Y-72294523D01*
X119085952Y-72294523D01*
X119206904Y-72355000D01*
X119267380Y-72415476D01*
X119327857Y-72536428D01*
X119327857Y-72717857D01*
X119267380Y-72838809D01*
X119206904Y-72899285D01*
X119085952Y-72959761D01*
X118602142Y-72959761D01*
X120114047Y-72294523D02*
X120355952Y-72294523D01*
X120476904Y-72355000D01*
X120597857Y-72475952D01*
X120658333Y-72717857D01*
X120658333Y-73141190D01*
X120597857Y-73383095D01*
X120476904Y-73504047D01*
X120355952Y-73564523D01*
X120114047Y-73564523D01*
X119993095Y-73504047D01*
X119872142Y-73383095D01*
X119811666Y-73141190D01*
X119811666Y-72717857D01*
X119872142Y-72475952D01*
X119993095Y-72355000D01*
X120114047Y-72294523D01*
X121867857Y-72355000D02*
X121746904Y-72294523D01*
X121565476Y-72294523D01*
X121384047Y-72355000D01*
X121263095Y-72475952D01*
X121202619Y-72596904D01*
X121142142Y-72838809D01*
X121142142Y-73020238D01*
X121202619Y-73262142D01*
X121263095Y-73383095D01*
X121384047Y-73504047D01*
X121565476Y-73564523D01*
X121686428Y-73564523D01*
X121867857Y-73504047D01*
X121928333Y-73443571D01*
X121928333Y-73020238D01*
X121686428Y-73020238D01*
X105755476Y-73664523D02*
X105332142Y-73059761D01*
X105029761Y-73664523D02*
X105029761Y-72394523D01*
X105513571Y-72394523D01*
X105634523Y-72455000D01*
X105695000Y-72515476D01*
X105755476Y-72636428D01*
X105755476Y-72817857D01*
X105695000Y-72938809D01*
X105634523Y-72999285D01*
X105513571Y-73059761D01*
X105029761Y-73059761D01*
X106299761Y-72999285D02*
X106723095Y-72999285D01*
X106904523Y-73664523D02*
X106299761Y-73664523D01*
X106299761Y-72394523D01*
X106904523Y-72394523D01*
X107388333Y-73604047D02*
X107569761Y-73664523D01*
X107872142Y-73664523D01*
X107993095Y-73604047D01*
X108053571Y-73543571D01*
X108114047Y-73422619D01*
X108114047Y-73301666D01*
X108053571Y-73180714D01*
X107993095Y-73120238D01*
X107872142Y-73059761D01*
X107630238Y-72999285D01*
X107509285Y-72938809D01*
X107448809Y-72878333D01*
X107388333Y-72757380D01*
X107388333Y-72636428D01*
X107448809Y-72515476D01*
X107509285Y-72455000D01*
X107630238Y-72394523D01*
X107932619Y-72394523D01*
X108114047Y-72455000D01*
X108658333Y-72999285D02*
X109081666Y-72999285D01*
X109263095Y-73664523D02*
X108658333Y-73664523D01*
X108658333Y-72394523D01*
X109263095Y-72394523D01*
X109625952Y-72394523D02*
X110351666Y-72394523D01*
X109988809Y-73664523D02*
X109988809Y-72394523D01*
D12*
X103700000Y-90090000D02*
G75*
G02*
X101700000Y-88090000I0J2000000D01*
G01*
X125700000Y-45090000D02*
X125700000Y-88090000D01*
X103700000Y-90090000D02*
X105200000Y-90090000D01*
X101700000Y-44590000D02*
X101700000Y-88090000D01*
X123700000Y-90090000D02*
X122200000Y-90090000D01*
X125700000Y-45090000D02*
X125700000Y-29590000D01*
X123700000Y-27590000D02*
X103700000Y-27590000D01*
X123700000Y-27590000D02*
G75*
G02*
X125700000Y-29590000I0J-2000000D01*
G01*
X101700000Y-29590000D02*
G75*
G02*
X103700000Y-27590000I2000000J0D01*
G01*
X101700000Y-44590000D02*
X101700000Y-29590000D01*
X125700000Y-88090000D02*
G75*
G02*
X123700000Y-90090000I-2000000J0D01*
G01*
D13*
X106600000Y-91490000D02*
X120600000Y-91490000D01*
D14*
X121472000Y-88138000D02*
X121472000Y-89468000D01*
X121472000Y-89468000D02*
X120142000Y-89468000D01*
X118872000Y-89468000D02*
X106112000Y-89468000D01*
X106112000Y-86808000D02*
X106112000Y-89468000D01*
X118872000Y-86808000D02*
X106112000Y-86808000D01*
X118872000Y-86808000D02*
X118872000Y-89468000D01*
X121472000Y-94742000D02*
X121472000Y-96072000D01*
X121472000Y-96072000D02*
X120142000Y-96072000D01*
X118872000Y-96072000D02*
X106112000Y-96072000D01*
X106112000Y-93412000D02*
X106112000Y-96072000D01*
X118872000Y-93412000D02*
X106112000Y-93412000D01*
X118872000Y-93412000D02*
X118872000Y-96072000D01*
X108398000Y-56896000D02*
X108398000Y-55566000D01*
X108398000Y-55566000D02*
X109728000Y-55566000D01*
X110998000Y-55566000D02*
X118678000Y-55566000D01*
X118678000Y-58226000D02*
X118678000Y-55566000D01*
X110998000Y-58226000D02*
X118678000Y-58226000D01*
X110998000Y-58226000D02*
X110998000Y-55566000D01*
X101680000Y-46380000D02*
X101680000Y-44380000D01*
D15*
G36*
X109123480Y-64512500D02*
G01*
X109303820Y-64428680D01*
X109479080Y-64329620D01*
X110357920Y-65045900D01*
X110959900Y-64443920D01*
X110243620Y-63565080D01*
X110370620Y-63331400D01*
X110472220Y-63085020D01*
X110548420Y-62831020D01*
X111676180Y-62714180D01*
X111676180Y-61865820D01*
X110548420Y-61748980D01*
X110472220Y-61494980D01*
X110370620Y-61248600D01*
X110243620Y-61014920D01*
X110959900Y-60136080D01*
X110357920Y-59534100D01*
X109479080Y-60250380D01*
X109245400Y-60123380D01*
X108999020Y-60021780D01*
X108745020Y-59945580D01*
X108628180Y-58817820D01*
X107779820Y-58817820D01*
X107662980Y-59945580D01*
X107408980Y-60021780D01*
X107162600Y-60123380D01*
X106928920Y-60250380D01*
X106050080Y-59534100D01*
X105448100Y-60136080D01*
X106164380Y-61014920D01*
X106037380Y-61248600D01*
X105935780Y-61494980D01*
X105859580Y-61748980D01*
X104731820Y-61865820D01*
X104731820Y-62714180D01*
X105859580Y-62831020D01*
X105935780Y-63085020D01*
X106037380Y-63331400D01*
X106164380Y-63565080D01*
X105448100Y-64443920D01*
X106050080Y-65045900D01*
X106928920Y-64329620D01*
X107104180Y-64428680D01*
X107284520Y-64512500D01*
X107787440Y-63298380D01*
X107622340Y-63214560D01*
X107477560Y-63105340D01*
X107350560Y-62970720D01*
X107248960Y-62818320D01*
X107172760Y-62650680D01*
X107127040Y-62472880D01*
X107111800Y-62290000D01*
X107129580Y-62086800D01*
X107188000Y-61891220D01*
X107279440Y-61708340D01*
X107406440Y-61545780D01*
X107558840Y-61408620D01*
X107736640Y-61304480D01*
X107927140Y-61233360D01*
X108130340Y-61200340D01*
X108333540Y-61205420D01*
X108534200Y-61248600D01*
X108722160Y-61329880D01*
X108892340Y-61441640D01*
X109039660Y-61586420D01*
X109156500Y-61754060D01*
X109240320Y-61942020D01*
X109286040Y-62142680D01*
X109296200Y-62345880D01*
X109265720Y-62546540D01*
X109197140Y-62742120D01*
X109095540Y-62919920D01*
X108963460Y-63074860D01*
X108803440Y-63204400D01*
X108620560Y-63298380D01*
X109123480Y-64512500D01*
G37*
X109123480Y-64512500D02*
X109303820Y-64428680D01*
X109479080Y-64329620D01*
X110357920Y-65045900D01*
X110959900Y-64443920D01*
X110243620Y-63565080D01*
X110370620Y-63331400D01*
X110472220Y-63085020D01*
X110548420Y-62831020D01*
X111676180Y-62714180D01*
X111676180Y-61865820D01*
X110548420Y-61748980D01*
X110472220Y-61494980D01*
X110370620Y-61248600D01*
X110243620Y-61014920D01*
X110959900Y-60136080D01*
X110357920Y-59534100D01*
X109479080Y-60250380D01*
X109245400Y-60123380D01*
X108999020Y-60021780D01*
X108745020Y-59945580D01*
X108628180Y-58817820D01*
X107779820Y-58817820D01*
X107662980Y-59945580D01*
X107408980Y-60021780D01*
X107162600Y-60123380D01*
X106928920Y-60250380D01*
X106050080Y-59534100D01*
X105448100Y-60136080D01*
X106164380Y-61014920D01*
X106037380Y-61248600D01*
X105935780Y-61494980D01*
X105859580Y-61748980D01*
X104731820Y-61865820D01*
X104731820Y-62714180D01*
X105859580Y-62831020D01*
X105935780Y-63085020D01*
X106037380Y-63331400D01*
X106164380Y-63565080D01*
X105448100Y-64443920D01*
X106050080Y-65045900D01*
X106928920Y-64329620D01*
X107104180Y-64428680D01*
X107284520Y-64512500D01*
X107787440Y-63298380D01*
X107622340Y-63214560D01*
X107477560Y-63105340D01*
X107350560Y-62970720D01*
X107248960Y-62818320D01*
X107172760Y-62650680D01*
X107127040Y-62472880D01*
X107111800Y-62290000D01*
X107129580Y-62086800D01*
X107188000Y-61891220D01*
X107279440Y-61708340D01*
X107406440Y-61545780D01*
X107558840Y-61408620D01*
X107736640Y-61304480D01*
X107927140Y-61233360D01*
X108130340Y-61200340D01*
X108333540Y-61205420D01*
X108534200Y-61248600D01*
X108722160Y-61329880D01*
X108892340Y-61441640D01*
X109039660Y-61586420D01*
X109156500Y-61754060D01*
X109240320Y-61942020D01*
X109286040Y-62142680D01*
X109296200Y-62345880D01*
X109265720Y-62546540D01*
X109197140Y-62742120D01*
X109095540Y-62919920D01*
X108963460Y-63074860D01*
X108803440Y-63204400D01*
X108620560Y-63298380D01*
X109123480Y-64512500D01*
D14*
X116827500Y-59977258D02*
X116827500Y-59502742D01*
X117872500Y-59977258D02*
X117872500Y-59502742D01*
X108265580Y-55400000D02*
X107984420Y-55400000D01*
X108265580Y-54380000D02*
X107984420Y-54380000D01*
D16*
X118850700Y-79988600D02*
X120349300Y-79988600D01*
X118850700Y-76991400D02*
X120349300Y-76991400D01*
X118850700Y-79988600D02*
X118850700Y-76991400D01*
X120349300Y-76991400D02*
X120349300Y-79988600D01*
X118101400Y-81489740D02*
X118500180Y-81489740D01*
X120699820Y-81489740D02*
X121098600Y-81489740D01*
X120699820Y-75490260D02*
X121098600Y-75490260D01*
X118101400Y-75490260D02*
X118500180Y-75490260D01*
X117852480Y-81238280D02*
X117852480Y-75741720D01*
X121347520Y-75741720D02*
X121347520Y-81238280D01*
X118101400Y-75492800D02*
G75*
G03*
X117852480Y-75741720I0J-248920D01*
G01*
X117849940Y-81238280D02*
G75*
G03*
X118101400Y-81489740I251460J0D01*
G01*
X121098600Y-81487200D02*
G75*
G03*
X121347520Y-81238280I0J248920D01*
G01*
X121350060Y-75741720D02*
G75*
G03*
X121098600Y-75490260I-251460J0D01*
G01*
X106850700Y-79988600D02*
X108349300Y-79988600D01*
X106850700Y-76991400D02*
X108349300Y-76991400D01*
X106850700Y-79988600D02*
X106850700Y-76991400D01*
X108349300Y-76991400D02*
X108349300Y-79988600D01*
X106101400Y-81489740D02*
X106500180Y-81489740D01*
X108699820Y-81489740D02*
X109098600Y-81489740D01*
X108699820Y-75490260D02*
X109098600Y-75490260D01*
X106101400Y-75490260D02*
X106500180Y-75490260D01*
X105852480Y-81238280D02*
X105852480Y-75741720D01*
X109347520Y-75741720D02*
X109347520Y-81238280D01*
X106101400Y-75492800D02*
G75*
G03*
X105852480Y-75741720I0J-248920D01*
G01*
X105849940Y-81238280D02*
G75*
G03*
X106101400Y-81489740I251460J0D01*
G01*
X109098600Y-81487200D02*
G75*
G03*
X109347520Y-81238280I0J248920D01*
G01*
X109350060Y-75741720D02*
G75*
G03*
X109098600Y-75490260I-251460J0D01*
G01*
D14*
X116612742Y-66762500D02*
X117087258Y-66762500D01*
X116612742Y-65717500D02*
X117087258Y-65717500D01*
X112112742Y-72762500D02*
X112587258Y-72762500D01*
X112112742Y-71717500D02*
X112587258Y-71717500D01*
X123610000Y-103099420D02*
X123610000Y-103380580D01*
X122590000Y-103099420D02*
X122590000Y-103380580D01*
X113660000Y-100740000D02*
X113660000Y-98790000D01*
X113660000Y-100740000D02*
X113660000Y-102690000D01*
X103540000Y-100740000D02*
X103540000Y-98790000D01*
X103540000Y-100740000D02*
X103540000Y-104190000D01*
X116490580Y-99250000D02*
X116209420Y-99250000D01*
X116490580Y-98230000D02*
X116209420Y-98230000D01*
X122600000Y-98430000D02*
X121800000Y-98430000D01*
X122600000Y-98430000D02*
X123400000Y-98430000D01*
X122600000Y-101550000D02*
X121800000Y-101550000D01*
X122600000Y-101550000D02*
X124400000Y-101550000D01*
X103110000Y-100599420D02*
X103110000Y-100880580D01*
X102090000Y-100599420D02*
X102090000Y-100880580D01*
X122110000Y-103099420D02*
X122110000Y-103380580D01*
X121090000Y-103099420D02*
X121090000Y-103380580D01*
X122740580Y-96980000D02*
X122459420Y-96980000D01*
X122740580Y-98000000D02*
X122459420Y-98000000D01*
X118000000Y-108470000D02*
X109200000Y-108470000D01*
X119745000Y-111640000D02*
X119745000Y-112690000D01*
X107455000Y-111640000D02*
X107455000Y-112690000D01*
X118000000Y-108470000D02*
X118000000Y-107715000D01*
X115600000Y-82430000D02*
X114800000Y-82430000D01*
X115600000Y-82430000D02*
X116400000Y-82430000D01*
X115600000Y-85550000D02*
X114800000Y-85550000D01*
X115600000Y-85550000D02*
X117400000Y-85550000D01*
X108187258Y-66712500D02*
X107712742Y-66712500D01*
X108187258Y-65667500D02*
X107712742Y-65667500D01*
X116622500Y-76752742D02*
X116622500Y-77227258D01*
X115577500Y-76752742D02*
X115577500Y-77227258D01*
X117512742Y-69967500D02*
X117987258Y-69967500D01*
X117512742Y-71012500D02*
X117987258Y-71012500D01*
X114277500Y-59977258D02*
X114277500Y-59502742D01*
X115322500Y-59977258D02*
X115322500Y-59502742D01*
X115930000Y-68730000D02*
X115000000Y-68730000D01*
X112770000Y-68730000D02*
X113700000Y-68730000D01*
X112770000Y-68730000D02*
X112770000Y-70890000D01*
X115930000Y-68730000D02*
X115930000Y-70190000D01*
X111930000Y-68730000D02*
X111000000Y-68730000D01*
X108770000Y-68730000D02*
X109700000Y-68730000D01*
X108770000Y-68730000D02*
X108770000Y-70890000D01*
X111930000Y-68730000D02*
X111930000Y-70190000D01*
X115310000Y-77990000D02*
X115310000Y-75305000D01*
X115310000Y-75305000D02*
X113390000Y-75305000D01*
X113390000Y-75305000D02*
X113390000Y-77990000D01*
X116659420Y-67030000D02*
X116940580Y-67030000D01*
X116659420Y-68050000D02*
X116940580Y-68050000D01*
X108090580Y-68050000D02*
X107809420Y-68050000D01*
X108090580Y-67030000D02*
X107809420Y-67030000D01*
X121010000Y-56649420D02*
X121010000Y-56930580D01*
X119990000Y-56649420D02*
X119990000Y-56930580D01*
X106740580Y-106250000D02*
X106459420Y-106250000D01*
X106740580Y-105230000D02*
X106459420Y-105230000D01*
X110665000Y-77390000D02*
X110665000Y-81300000D01*
X110665000Y-81300000D02*
X112535000Y-81300000D01*
X112535000Y-81300000D02*
X112535000Y-77390000D01*
X102790000Y-35980580D02*
X102790000Y-35699420D01*
X103810000Y-35980580D02*
X103810000Y-35699420D01*
X111690580Y-85100000D02*
X111409420Y-85100000D01*
X111690580Y-84080000D02*
X111409420Y-84080000D01*
X111690580Y-83700000D02*
X111409420Y-83700000D01*
X111690580Y-82680000D02*
X111409420Y-82680000D01*
X116490580Y-104750000D02*
X116209420Y-104750000D01*
X116490580Y-103730000D02*
X116209420Y-103730000D01*
X115740580Y-82000000D02*
X115459420Y-82000000D01*
X115740580Y-80980000D02*
X115459420Y-80980000D01*
X115740580Y-80500000D02*
X115459420Y-80500000D01*
X115740580Y-79480000D02*
X115459420Y-79480000D01*
X123452064Y-107850000D02*
X122247936Y-107850000D01*
X123452064Y-105130000D02*
X122247936Y-105130000D01*
X105420000Y-52695000D02*
X105420000Y-53475000D01*
X105420000Y-53475000D02*
X106420000Y-53475000D01*
X123660000Y-52695000D02*
X123660000Y-53475000D01*
X123660000Y-53475000D02*
X122660000Y-53475000D01*
X105420000Y-27730000D02*
X123660000Y-27730000D01*
X123660000Y-27730000D02*
X123660000Y-34150000D01*
X105420000Y-27730000D02*
X105420000Y-34150000D01*
X105420000Y-34150000D02*
X105040000Y-34150000D01*
X118300000Y-103090000D02*
X118300000Y-99890000D01*
X118300000Y-99890000D02*
X114400000Y-99890000D01*
D17*
X122364380Y-88471333D02*
X123078666Y-88471333D01*
X123221523Y-88518952D01*
X123316761Y-88614190D01*
X123364380Y-88757047D01*
X123364380Y-88852285D01*
X122697714Y-87566571D02*
X123364380Y-87566571D01*
X122316761Y-87804666D02*
X123031047Y-88042761D01*
X123031047Y-87423714D01*
X122364380Y-95075333D02*
X123078666Y-95075333D01*
X123221523Y-95122952D01*
X123316761Y-95218190D01*
X123364380Y-95361047D01*
X123364380Y-95456285D01*
X122364380Y-94122952D02*
X122364380Y-94599142D01*
X122840571Y-94646761D01*
X122792952Y-94599142D01*
X122745333Y-94503904D01*
X122745333Y-94265809D01*
X122792952Y-94170571D01*
X122840571Y-94122952D01*
X122935809Y-94075333D01*
X123173904Y-94075333D01*
X123269142Y-94122952D01*
X123316761Y-94170571D01*
X123364380Y-94265809D01*
X123364380Y-94503904D01*
X123316761Y-94599142D01*
X123269142Y-94646761D01*
X106410380Y-57229333D02*
X107124666Y-57229333D01*
X107267523Y-57276952D01*
X107362761Y-57372190D01*
X107410380Y-57515047D01*
X107410380Y-57610285D01*
X106505619Y-56800761D02*
X106458000Y-56753142D01*
X106410380Y-56657904D01*
X106410380Y-56419809D01*
X106458000Y-56324571D01*
X106505619Y-56276952D01*
X106600857Y-56229333D01*
X106696095Y-56229333D01*
X106838952Y-56276952D01*
X107410380Y-56848380D01*
X107410380Y-56229333D01*
X112825714Y-37926666D02*
X113301904Y-37926666D01*
X112730476Y-38212380D02*
X113063809Y-37212380D01*
X113397142Y-38212380D01*
X114254285Y-38212380D02*
X113682857Y-38212380D01*
X113968571Y-38212380D02*
X113968571Y-37212380D01*
X113873333Y-37355238D01*
X113778095Y-37450476D01*
X113682857Y-37498095D01*
X117233333Y-62842380D02*
X116900000Y-62366190D01*
X116661904Y-62842380D02*
X116661904Y-61842380D01*
X117042857Y-61842380D01*
X117138095Y-61890000D01*
X117185714Y-61937619D01*
X117233333Y-62032857D01*
X117233333Y-62175714D01*
X117185714Y-62270952D01*
X117138095Y-62318571D01*
X117042857Y-62366190D01*
X116661904Y-62366190D01*
X118090476Y-61842380D02*
X117900000Y-61842380D01*
X117804761Y-61890000D01*
X117757142Y-61937619D01*
X117661904Y-62080476D01*
X117614285Y-62270952D01*
X117614285Y-62651904D01*
X117661904Y-62747142D01*
X117709523Y-62794761D01*
X117804761Y-62842380D01*
X117995238Y-62842380D01*
X118090476Y-62794761D01*
X118138095Y-62747142D01*
X118185714Y-62651904D01*
X118185714Y-62413809D01*
X118138095Y-62318571D01*
X118090476Y-62270952D01*
X117995238Y-62223333D01*
X117804761Y-62223333D01*
X117709523Y-62270952D01*
X117661904Y-62318571D01*
X117614285Y-62413809D01*
X105533333Y-55247142D02*
X105485714Y-55294761D01*
X105342857Y-55342380D01*
X105247619Y-55342380D01*
X105104761Y-55294761D01*
X105009523Y-55199523D01*
X104961904Y-55104285D01*
X104914285Y-54913809D01*
X104914285Y-54770952D01*
X104961904Y-54580476D01*
X105009523Y-54485238D01*
X105104761Y-54390000D01*
X105247619Y-54342380D01*
X105342857Y-54342380D01*
X105485714Y-54390000D01*
X105533333Y-54437619D01*
X106104761Y-54770952D02*
X106009523Y-54723333D01*
X105961904Y-54675714D01*
X105914285Y-54580476D01*
X105914285Y-54532857D01*
X105961904Y-54437619D01*
X106009523Y-54390000D01*
X106104761Y-54342380D01*
X106295238Y-54342380D01*
X106390476Y-54390000D01*
X106438095Y-54437619D01*
X106485714Y-54532857D01*
X106485714Y-54580476D01*
X106438095Y-54675714D01*
X106390476Y-54723333D01*
X106295238Y-54770952D01*
X106104761Y-54770952D01*
X106009523Y-54818571D01*
X105961904Y-54866190D01*
X105914285Y-54961428D01*
X105914285Y-55151904D01*
X105961904Y-55247142D01*
X106009523Y-55294761D01*
X106104761Y-55342380D01*
X106295238Y-55342380D01*
X106390476Y-55294761D01*
X106438095Y-55247142D01*
X106485714Y-55151904D01*
X106485714Y-54961428D01*
X106438095Y-54866190D01*
X106390476Y-54818571D01*
X106295238Y-54770952D01*
X118266666Y-84194761D02*
X118409523Y-84242380D01*
X118647619Y-84242380D01*
X118742857Y-84194761D01*
X118790476Y-84147142D01*
X118838095Y-84051904D01*
X118838095Y-83956666D01*
X118790476Y-83861428D01*
X118742857Y-83813809D01*
X118647619Y-83766190D01*
X118457142Y-83718571D01*
X118361904Y-83670952D01*
X118314285Y-83623333D01*
X118266666Y-83528095D01*
X118266666Y-83432857D01*
X118314285Y-83337619D01*
X118361904Y-83290000D01*
X118457142Y-83242380D01*
X118695238Y-83242380D01*
X118838095Y-83290000D01*
X119171428Y-83242380D02*
X119409523Y-84242380D01*
X119600000Y-83528095D01*
X119790476Y-84242380D01*
X120028571Y-83242380D01*
X120361904Y-83337619D02*
X120409523Y-83290000D01*
X120504761Y-83242380D01*
X120742857Y-83242380D01*
X120838095Y-83290000D01*
X120885714Y-83337619D01*
X120933333Y-83432857D01*
X120933333Y-83528095D01*
X120885714Y-83670952D01*
X120314285Y-84242380D01*
X120933333Y-84242380D01*
X105866666Y-84194761D02*
X106009523Y-84242380D01*
X106247619Y-84242380D01*
X106342857Y-84194761D01*
X106390476Y-84147142D01*
X106438095Y-84051904D01*
X106438095Y-83956666D01*
X106390476Y-83861428D01*
X106342857Y-83813809D01*
X106247619Y-83766190D01*
X106057142Y-83718571D01*
X105961904Y-83670952D01*
X105914285Y-83623333D01*
X105866666Y-83528095D01*
X105866666Y-83432857D01*
X105914285Y-83337619D01*
X105961904Y-83290000D01*
X106057142Y-83242380D01*
X106295238Y-83242380D01*
X106438095Y-83290000D01*
X106771428Y-83242380D02*
X107009523Y-84242380D01*
X107200000Y-83528095D01*
X107390476Y-84242380D01*
X107628571Y-83242380D01*
X108533333Y-84242380D02*
X107961904Y-84242380D01*
X108247619Y-84242380D02*
X108247619Y-83242380D01*
X108152380Y-83385238D01*
X108057142Y-83480476D01*
X107961904Y-83528095D01*
X119233333Y-66642380D02*
X118900000Y-66166190D01*
X118661904Y-66642380D02*
X118661904Y-65642380D01*
X119042857Y-65642380D01*
X119138095Y-65690000D01*
X119185714Y-65737619D01*
X119233333Y-65832857D01*
X119233333Y-65975714D01*
X119185714Y-66070952D01*
X119138095Y-66118571D01*
X119042857Y-66166190D01*
X118661904Y-66166190D01*
X119709523Y-66642380D02*
X119900000Y-66642380D01*
X119995238Y-66594761D01*
X120042857Y-66547142D01*
X120138095Y-66404285D01*
X120185714Y-66213809D01*
X120185714Y-65832857D01*
X120138095Y-65737619D01*
X120090476Y-65690000D01*
X119995238Y-65642380D01*
X119804761Y-65642380D01*
X119709523Y-65690000D01*
X119661904Y-65737619D01*
X119614285Y-65832857D01*
X119614285Y-66070952D01*
X119661904Y-66166190D01*
X119709523Y-66213809D01*
X119804761Y-66261428D01*
X119995238Y-66261428D01*
X120090476Y-66213809D01*
X120138095Y-66166190D01*
X120185714Y-66070952D01*
X112183333Y-74142380D02*
X111850000Y-73666190D01*
X111611904Y-74142380D02*
X111611904Y-73142380D01*
X111992857Y-73142380D01*
X112088095Y-73190000D01*
X112135714Y-73237619D01*
X112183333Y-73332857D01*
X112183333Y-73475714D01*
X112135714Y-73570952D01*
X112088095Y-73618571D01*
X111992857Y-73666190D01*
X111611904Y-73666190D01*
X113088095Y-73142380D02*
X112611904Y-73142380D01*
X112564285Y-73618571D01*
X112611904Y-73570952D01*
X112707142Y-73523333D01*
X112945238Y-73523333D01*
X113040476Y-73570952D01*
X113088095Y-73618571D01*
X113135714Y-73713809D01*
X113135714Y-73951904D01*
X113088095Y-74047142D01*
X113040476Y-74094761D01*
X112945238Y-74142380D01*
X112707142Y-74142380D01*
X112611904Y-74094761D01*
X112564285Y-74047142D01*
X124957142Y-103406666D02*
X125004761Y-103454285D01*
X125052380Y-103597142D01*
X125052380Y-103692380D01*
X125004761Y-103835238D01*
X124909523Y-103930476D01*
X124814285Y-103978095D01*
X124623809Y-104025714D01*
X124480952Y-104025714D01*
X124290476Y-103978095D01*
X124195238Y-103930476D01*
X124100000Y-103835238D01*
X124052380Y-103692380D01*
X124052380Y-103597142D01*
X124100000Y-103454285D01*
X124147619Y-103406666D01*
X125052380Y-102930476D02*
X125052380Y-102740000D01*
X125004761Y-102644761D01*
X124957142Y-102597142D01*
X124814285Y-102501904D01*
X124623809Y-102454285D01*
X124242857Y-102454285D01*
X124147619Y-102501904D01*
X124100000Y-102549523D01*
X124052380Y-102644761D01*
X124052380Y-102835238D01*
X124100000Y-102930476D01*
X124147619Y-102978095D01*
X124242857Y-103025714D01*
X124480952Y-103025714D01*
X124576190Y-102978095D01*
X124623809Y-102930476D01*
X124671428Y-102835238D01*
X124671428Y-102644761D01*
X124623809Y-102549523D01*
X124576190Y-102501904D01*
X124480952Y-102454285D01*
X102338095Y-104692380D02*
X102338095Y-105501904D01*
X102385714Y-105597142D01*
X102433333Y-105644761D01*
X102528571Y-105692380D01*
X102719047Y-105692380D01*
X102814285Y-105644761D01*
X102861904Y-105597142D01*
X102909523Y-105501904D01*
X102909523Y-104692380D01*
X103338095Y-104787619D02*
X103385714Y-104740000D01*
X103480952Y-104692380D01*
X103719047Y-104692380D01*
X103814285Y-104740000D01*
X103861904Y-104787619D01*
X103909523Y-104882857D01*
X103909523Y-104978095D01*
X103861904Y-105120952D01*
X103290476Y-105692380D01*
X103909523Y-105692380D01*
X118433333Y-98847142D02*
X118385714Y-98894761D01*
X118242857Y-98942380D01*
X118147619Y-98942380D01*
X118004761Y-98894761D01*
X117909523Y-98799523D01*
X117861904Y-98704285D01*
X117814285Y-98513809D01*
X117814285Y-98370952D01*
X117861904Y-98180476D01*
X117909523Y-98085238D01*
X118004761Y-97990000D01*
X118147619Y-97942380D01*
X118242857Y-97942380D01*
X118385714Y-97990000D01*
X118433333Y-98037619D01*
X118766666Y-97942380D02*
X119385714Y-97942380D01*
X119052380Y-98323333D01*
X119195238Y-98323333D01*
X119290476Y-98370952D01*
X119338095Y-98418571D01*
X119385714Y-98513809D01*
X119385714Y-98751904D01*
X119338095Y-98847142D01*
X119290476Y-98894761D01*
X119195238Y-98942380D01*
X118909523Y-98942380D01*
X118814285Y-98894761D01*
X118766666Y-98847142D01*
X121838095Y-101842380D02*
X121838095Y-102651904D01*
X121885714Y-102747142D01*
X121933333Y-102794761D01*
X122028571Y-102842380D01*
X122219047Y-102842380D01*
X122314285Y-102794761D01*
X122361904Y-102747142D01*
X122409523Y-102651904D01*
X122409523Y-101842380D01*
X123314285Y-102175714D02*
X123314285Y-102842380D01*
X123076190Y-101794761D02*
X122838095Y-102509047D01*
X123457142Y-102509047D01*
X102957142Y-98382857D02*
X103004761Y-98430476D01*
X103052380Y-98573333D01*
X103052380Y-98668571D01*
X103004761Y-98811428D01*
X102909523Y-98906666D01*
X102814285Y-98954285D01*
X102623809Y-99001904D01*
X102480952Y-99001904D01*
X102290476Y-98954285D01*
X102195238Y-98906666D01*
X102100000Y-98811428D01*
X102052380Y-98668571D01*
X102052380Y-98573333D01*
X102100000Y-98430476D01*
X102147619Y-98382857D01*
X103052380Y-97430476D02*
X103052380Y-98001904D01*
X103052380Y-97716190D02*
X102052380Y-97716190D01*
X102195238Y-97811428D01*
X102290476Y-97906666D01*
X102338095Y-98001904D01*
X103052380Y-96954285D02*
X103052380Y-96763809D01*
X103004761Y-96668571D01*
X102957142Y-96620952D01*
X102814285Y-96525714D01*
X102623809Y-96478095D01*
X102242857Y-96478095D01*
X102147619Y-96525714D01*
X102100000Y-96573333D01*
X102052380Y-96668571D01*
X102052380Y-96859047D01*
X102100000Y-96954285D01*
X102147619Y-97001904D01*
X102242857Y-97049523D01*
X102480952Y-97049523D01*
X102576190Y-97001904D01*
X102623809Y-96954285D01*
X102671428Y-96859047D01*
X102671428Y-96668571D01*
X102623809Y-96573333D01*
X102576190Y-96525714D01*
X102480952Y-96478095D01*
X118707142Y-104347142D02*
X118659523Y-104394761D01*
X118516666Y-104442380D01*
X118421428Y-104442380D01*
X118278571Y-104394761D01*
X118183333Y-104299523D01*
X118135714Y-104204285D01*
X118088095Y-104013809D01*
X118088095Y-103870952D01*
X118135714Y-103680476D01*
X118183333Y-103585238D01*
X118278571Y-103490000D01*
X118421428Y-103442380D01*
X118516666Y-103442380D01*
X118659523Y-103490000D01*
X118707142Y-103537619D01*
X119659523Y-104442380D02*
X119088095Y-104442380D01*
X119373809Y-104442380D02*
X119373809Y-103442380D01*
X119278571Y-103585238D01*
X119183333Y-103680476D01*
X119088095Y-103728095D01*
X120230952Y-103870952D02*
X120135714Y-103823333D01*
X120088095Y-103775714D01*
X120040476Y-103680476D01*
X120040476Y-103632857D01*
X120088095Y-103537619D01*
X120135714Y-103490000D01*
X120230952Y-103442380D01*
X120421428Y-103442380D01*
X120516666Y-103490000D01*
X120564285Y-103537619D01*
X120611904Y-103632857D01*
X120611904Y-103680476D01*
X120564285Y-103775714D01*
X120516666Y-103823333D01*
X120421428Y-103870952D01*
X120230952Y-103870952D01*
X120135714Y-103918571D01*
X120088095Y-103966190D01*
X120040476Y-104061428D01*
X120040476Y-104251904D01*
X120088095Y-104347142D01*
X120135714Y-104394761D01*
X120230952Y-104442380D01*
X120421428Y-104442380D01*
X120516666Y-104394761D01*
X120564285Y-104347142D01*
X120611904Y-104251904D01*
X120611904Y-104061428D01*
X120564285Y-103966190D01*
X120516666Y-103918571D01*
X120421428Y-103870952D01*
X118707142Y-97347142D02*
X118659523Y-97394761D01*
X118516666Y-97442380D01*
X118421428Y-97442380D01*
X118278571Y-97394761D01*
X118183333Y-97299523D01*
X118135714Y-97204285D01*
X118088095Y-97013809D01*
X118088095Y-96870952D01*
X118135714Y-96680476D01*
X118183333Y-96585238D01*
X118278571Y-96490000D01*
X118421428Y-96442380D01*
X118516666Y-96442380D01*
X118659523Y-96490000D01*
X118707142Y-96537619D01*
X119659523Y-97442380D02*
X119088095Y-97442380D01*
X119373809Y-97442380D02*
X119373809Y-96442380D01*
X119278571Y-96585238D01*
X119183333Y-96680476D01*
X119088095Y-96728095D01*
X119992857Y-96442380D02*
X120659523Y-96442380D01*
X120230952Y-97442380D01*
X121016666Y-110192380D02*
X121016666Y-110906666D01*
X120969047Y-111049523D01*
X120873809Y-111144761D01*
X120730952Y-111192380D01*
X120635714Y-111192380D01*
X122016666Y-111192380D02*
X121445238Y-111192380D01*
X121730952Y-111192380D02*
X121730952Y-110192380D01*
X121635714Y-110335238D01*
X121540476Y-110430476D01*
X121445238Y-110478095D01*
X118238095Y-85142380D02*
X118238095Y-85951904D01*
X118285714Y-86047142D01*
X118333333Y-86094761D01*
X118428571Y-86142380D01*
X118619047Y-86142380D01*
X118714285Y-86094761D01*
X118761904Y-86047142D01*
X118809523Y-85951904D01*
X118809523Y-85142380D01*
X119809523Y-86142380D02*
X119238095Y-86142380D01*
X119523809Y-86142380D02*
X119523809Y-85142380D01*
X119428571Y-85285238D01*
X119333333Y-85380476D01*
X119238095Y-85428095D01*
X105333333Y-66642380D02*
X105000000Y-66166190D01*
X104761904Y-66642380D02*
X104761904Y-65642380D01*
X105142857Y-65642380D01*
X105238095Y-65690000D01*
X105285714Y-65737619D01*
X105333333Y-65832857D01*
X105333333Y-65975714D01*
X105285714Y-66070952D01*
X105238095Y-66118571D01*
X105142857Y-66166190D01*
X104761904Y-66166190D01*
X105904761Y-66070952D02*
X105809523Y-66023333D01*
X105761904Y-65975714D01*
X105714285Y-65880476D01*
X105714285Y-65832857D01*
X105761904Y-65737619D01*
X105809523Y-65690000D01*
X105904761Y-65642380D01*
X106095238Y-65642380D01*
X106190476Y-65690000D01*
X106238095Y-65737619D01*
X106285714Y-65832857D01*
X106285714Y-65880476D01*
X106238095Y-65975714D01*
X106190476Y-66023333D01*
X106095238Y-66070952D01*
X105904761Y-66070952D01*
X105809523Y-66118571D01*
X105761904Y-66166190D01*
X105714285Y-66261428D01*
X105714285Y-66451904D01*
X105761904Y-66547142D01*
X105809523Y-66594761D01*
X105904761Y-66642380D01*
X106095238Y-66642380D01*
X106190476Y-66594761D01*
X106238095Y-66547142D01*
X106285714Y-66451904D01*
X106285714Y-66261428D01*
X106238095Y-66166190D01*
X106190476Y-66118571D01*
X106095238Y-66070952D01*
X116333333Y-75242380D02*
X116000000Y-74766190D01*
X115761904Y-75242380D02*
X115761904Y-74242380D01*
X116142857Y-74242380D01*
X116238095Y-74290000D01*
X116285714Y-74337619D01*
X116333333Y-74432857D01*
X116333333Y-74575714D01*
X116285714Y-74670952D01*
X116238095Y-74718571D01*
X116142857Y-74766190D01*
X115761904Y-74766190D01*
X116666666Y-74242380D02*
X117333333Y-74242380D01*
X116904761Y-75242380D01*
X117583333Y-69512380D02*
X117250000Y-69036190D01*
X117011904Y-69512380D02*
X117011904Y-68512380D01*
X117392857Y-68512380D01*
X117488095Y-68560000D01*
X117535714Y-68607619D01*
X117583333Y-68702857D01*
X117583333Y-68845714D01*
X117535714Y-68940952D01*
X117488095Y-68988571D01*
X117392857Y-69036190D01*
X117011904Y-69036190D01*
X118440476Y-68845714D02*
X118440476Y-69512380D01*
X118202380Y-68464761D02*
X117964285Y-69179047D01*
X118583333Y-69179047D01*
X114633333Y-62842380D02*
X114300000Y-62366190D01*
X114061904Y-62842380D02*
X114061904Y-61842380D01*
X114442857Y-61842380D01*
X114538095Y-61890000D01*
X114585714Y-61937619D01*
X114633333Y-62032857D01*
X114633333Y-62175714D01*
X114585714Y-62270952D01*
X114538095Y-62318571D01*
X114442857Y-62366190D01*
X114061904Y-62366190D01*
X115585714Y-62842380D02*
X115014285Y-62842380D01*
X115300000Y-62842380D02*
X115300000Y-61842380D01*
X115204761Y-61985238D01*
X115109523Y-62080476D01*
X115014285Y-62128095D01*
X113904761Y-67737619D02*
X113809523Y-67690000D01*
X113714285Y-67594761D01*
X113571428Y-67451904D01*
X113476190Y-67404285D01*
X113380952Y-67404285D01*
X113428571Y-67642380D02*
X113333333Y-67594761D01*
X113238095Y-67499523D01*
X113190476Y-67309047D01*
X113190476Y-66975714D01*
X113238095Y-66785238D01*
X113333333Y-66690000D01*
X113428571Y-66642380D01*
X113619047Y-66642380D01*
X113714285Y-66690000D01*
X113809523Y-66785238D01*
X113857142Y-66975714D01*
X113857142Y-67309047D01*
X113809523Y-67499523D01*
X113714285Y-67594761D01*
X113619047Y-67642380D01*
X113428571Y-67642380D01*
X114238095Y-66737619D02*
X114285714Y-66690000D01*
X114380952Y-66642380D01*
X114619047Y-66642380D01*
X114714285Y-66690000D01*
X114761904Y-66737619D01*
X114809523Y-66832857D01*
X114809523Y-66928095D01*
X114761904Y-67070952D01*
X114190476Y-67642380D01*
X114809523Y-67642380D01*
X110504761Y-67637619D02*
X110409523Y-67590000D01*
X110314285Y-67494761D01*
X110171428Y-67351904D01*
X110076190Y-67304285D01*
X109980952Y-67304285D01*
X110028571Y-67542380D02*
X109933333Y-67494761D01*
X109838095Y-67399523D01*
X109790476Y-67209047D01*
X109790476Y-66875714D01*
X109838095Y-66685238D01*
X109933333Y-66590000D01*
X110028571Y-66542380D01*
X110219047Y-66542380D01*
X110314285Y-66590000D01*
X110409523Y-66685238D01*
X110457142Y-66875714D01*
X110457142Y-67209047D01*
X110409523Y-67399523D01*
X110314285Y-67494761D01*
X110219047Y-67542380D01*
X110028571Y-67542380D01*
X111409523Y-67542380D02*
X110838095Y-67542380D01*
X111123809Y-67542380D02*
X111123809Y-66542380D01*
X111028571Y-66685238D01*
X110933333Y-66780476D01*
X110838095Y-66828095D01*
X113661904Y-74842380D02*
X113661904Y-73842380D01*
X113900000Y-73842380D01*
X114042857Y-73890000D01*
X114138095Y-73985238D01*
X114185714Y-74080476D01*
X114233333Y-74270952D01*
X114233333Y-74413809D01*
X114185714Y-74604285D01*
X114138095Y-74699523D01*
X114042857Y-74794761D01*
X113900000Y-74842380D01*
X113661904Y-74842380D01*
X115185714Y-74842380D02*
X114614285Y-74842380D01*
X114900000Y-74842380D02*
X114900000Y-73842380D01*
X114804761Y-73985238D01*
X114709523Y-74080476D01*
X114614285Y-74128095D01*
X119257142Y-67947142D02*
X119209523Y-67994761D01*
X119066666Y-68042380D01*
X118971428Y-68042380D01*
X118828571Y-67994761D01*
X118733333Y-67899523D01*
X118685714Y-67804285D01*
X118638095Y-67613809D01*
X118638095Y-67470952D01*
X118685714Y-67280476D01*
X118733333Y-67185238D01*
X118828571Y-67090000D01*
X118971428Y-67042380D01*
X119066666Y-67042380D01*
X119209523Y-67090000D01*
X119257142Y-67137619D01*
X120209523Y-68042380D02*
X119638095Y-68042380D01*
X119923809Y-68042380D02*
X119923809Y-67042380D01*
X119828571Y-67185238D01*
X119733333Y-67280476D01*
X119638095Y-67328095D01*
X121066666Y-67375714D02*
X121066666Y-68042380D01*
X120828571Y-66994761D02*
X120590476Y-67709047D01*
X121209523Y-67709047D01*
X105457142Y-69347142D02*
X105409523Y-69394761D01*
X105266666Y-69442380D01*
X105171428Y-69442380D01*
X105028571Y-69394761D01*
X104933333Y-69299523D01*
X104885714Y-69204285D01*
X104838095Y-69013809D01*
X104838095Y-68870952D01*
X104885714Y-68680476D01*
X104933333Y-68585238D01*
X105028571Y-68490000D01*
X105171428Y-68442380D01*
X105266666Y-68442380D01*
X105409523Y-68490000D01*
X105457142Y-68537619D01*
X106409523Y-69442380D02*
X105838095Y-69442380D01*
X106123809Y-69442380D02*
X106123809Y-68442380D01*
X106028571Y-68585238D01*
X105933333Y-68680476D01*
X105838095Y-68728095D01*
X106742857Y-68442380D02*
X107361904Y-68442380D01*
X107028571Y-68823333D01*
X107171428Y-68823333D01*
X107266666Y-68870952D01*
X107314285Y-68918571D01*
X107361904Y-69013809D01*
X107361904Y-69251904D01*
X107314285Y-69347142D01*
X107266666Y-69394761D01*
X107171428Y-69442380D01*
X106885714Y-69442380D01*
X106790476Y-69394761D01*
X106742857Y-69347142D01*
X119857142Y-59447142D02*
X119809523Y-59494761D01*
X119666666Y-59542380D01*
X119571428Y-59542380D01*
X119428571Y-59494761D01*
X119333333Y-59399523D01*
X119285714Y-59304285D01*
X119238095Y-59113809D01*
X119238095Y-58970952D01*
X119285714Y-58780476D01*
X119333333Y-58685238D01*
X119428571Y-58590000D01*
X119571428Y-58542380D01*
X119666666Y-58542380D01*
X119809523Y-58590000D01*
X119857142Y-58637619D01*
X120809523Y-59542380D02*
X120238095Y-59542380D01*
X120523809Y-59542380D02*
X120523809Y-58542380D01*
X120428571Y-58685238D01*
X120333333Y-58780476D01*
X120238095Y-58828095D01*
X121190476Y-58637619D02*
X121238095Y-58590000D01*
X121333333Y-58542380D01*
X121571428Y-58542380D01*
X121666666Y-58590000D01*
X121714285Y-58637619D01*
X121761904Y-58732857D01*
X121761904Y-58828095D01*
X121714285Y-58970952D01*
X121142857Y-59542380D01*
X121761904Y-59542380D01*
X103957142Y-107597142D02*
X103909523Y-107644761D01*
X103766666Y-107692380D01*
X103671428Y-107692380D01*
X103528571Y-107644761D01*
X103433333Y-107549523D01*
X103385714Y-107454285D01*
X103338095Y-107263809D01*
X103338095Y-107120952D01*
X103385714Y-106930476D01*
X103433333Y-106835238D01*
X103528571Y-106740000D01*
X103671428Y-106692380D01*
X103766666Y-106692380D01*
X103909523Y-106740000D01*
X103957142Y-106787619D01*
X104909523Y-107692380D02*
X104338095Y-107692380D01*
X104623809Y-107692380D02*
X104623809Y-106692380D01*
X104528571Y-106835238D01*
X104433333Y-106930476D01*
X104338095Y-106978095D01*
X105861904Y-107692380D02*
X105290476Y-107692380D01*
X105576190Y-107692380D02*
X105576190Y-106692380D01*
X105480952Y-106835238D01*
X105385714Y-106930476D01*
X105290476Y-106978095D01*
X110957142Y-76347142D02*
X110909523Y-76394761D01*
X110766666Y-76442380D01*
X110671428Y-76442380D01*
X110528571Y-76394761D01*
X110433333Y-76299523D01*
X110385714Y-76204285D01*
X110338095Y-76013809D01*
X110338095Y-75870952D01*
X110385714Y-75680476D01*
X110433333Y-75585238D01*
X110528571Y-75490000D01*
X110671428Y-75442380D01*
X110766666Y-75442380D01*
X110909523Y-75490000D01*
X110957142Y-75537619D01*
X111909523Y-76442380D02*
X111338095Y-76442380D01*
X111623809Y-76442380D02*
X111623809Y-75442380D01*
X111528571Y-75585238D01*
X111433333Y-75680476D01*
X111338095Y-75728095D01*
X112528571Y-75442380D02*
X112623809Y-75442380D01*
X112719047Y-75490000D01*
X112766666Y-75537619D01*
X112814285Y-75632857D01*
X112861904Y-75823333D01*
X112861904Y-76061428D01*
X112814285Y-76251904D01*
X112766666Y-76347142D01*
X112719047Y-76394761D01*
X112623809Y-76442380D01*
X112528571Y-76442380D01*
X112433333Y-76394761D01*
X112385714Y-76347142D01*
X112338095Y-76251904D01*
X112290476Y-76061428D01*
X112290476Y-75823333D01*
X112338095Y-75632857D01*
X112385714Y-75537619D01*
X112433333Y-75490000D01*
X112528571Y-75442380D01*
X103133333Y-39047142D02*
X103085714Y-39094761D01*
X102942857Y-39142380D01*
X102847619Y-39142380D01*
X102704761Y-39094761D01*
X102609523Y-38999523D01*
X102561904Y-38904285D01*
X102514285Y-38713809D01*
X102514285Y-38570952D01*
X102561904Y-38380476D01*
X102609523Y-38285238D01*
X102704761Y-38190000D01*
X102847619Y-38142380D01*
X102942857Y-38142380D01*
X103085714Y-38190000D01*
X103133333Y-38237619D01*
X103466666Y-38142380D02*
X104133333Y-38142380D01*
X103704761Y-39142380D01*
X108633333Y-85747142D02*
X108585714Y-85794761D01*
X108442857Y-85842380D01*
X108347619Y-85842380D01*
X108204761Y-85794761D01*
X108109523Y-85699523D01*
X108061904Y-85604285D01*
X108014285Y-85413809D01*
X108014285Y-85270952D01*
X108061904Y-85080476D01*
X108109523Y-84985238D01*
X108204761Y-84890000D01*
X108347619Y-84842380D01*
X108442857Y-84842380D01*
X108585714Y-84890000D01*
X108633333Y-84937619D01*
X109490476Y-84842380D02*
X109300000Y-84842380D01*
X109204761Y-84890000D01*
X109157142Y-84937619D01*
X109061904Y-85080476D01*
X109014285Y-85270952D01*
X109014285Y-85651904D01*
X109061904Y-85747142D01*
X109109523Y-85794761D01*
X109204761Y-85842380D01*
X109395238Y-85842380D01*
X109490476Y-85794761D01*
X109538095Y-85747142D01*
X109585714Y-85651904D01*
X109585714Y-85413809D01*
X109538095Y-85318571D01*
X109490476Y-85270952D01*
X109395238Y-85223333D01*
X109204761Y-85223333D01*
X109109523Y-85270952D01*
X109061904Y-85318571D01*
X109014285Y-85413809D01*
X109857142Y-83356666D02*
X109904761Y-83404285D01*
X109952380Y-83547142D01*
X109952380Y-83642380D01*
X109904761Y-83785238D01*
X109809523Y-83880476D01*
X109714285Y-83928095D01*
X109523809Y-83975714D01*
X109380952Y-83975714D01*
X109190476Y-83928095D01*
X109095238Y-83880476D01*
X109000000Y-83785238D01*
X108952380Y-83642380D01*
X108952380Y-83547142D01*
X109000000Y-83404285D01*
X109047619Y-83356666D01*
X108952380Y-82451904D02*
X108952380Y-82928095D01*
X109428571Y-82975714D01*
X109380952Y-82928095D01*
X109333333Y-82832857D01*
X109333333Y-82594761D01*
X109380952Y-82499523D01*
X109428571Y-82451904D01*
X109523809Y-82404285D01*
X109761904Y-82404285D01*
X109857142Y-82451904D01*
X109904761Y-82499523D01*
X109952380Y-82594761D01*
X109952380Y-82832857D01*
X109904761Y-82928095D01*
X109857142Y-82975714D01*
X118683333Y-105597142D02*
X118635714Y-105644761D01*
X118492857Y-105692380D01*
X118397619Y-105692380D01*
X118254761Y-105644761D01*
X118159523Y-105549523D01*
X118111904Y-105454285D01*
X118064285Y-105263809D01*
X118064285Y-105120952D01*
X118111904Y-104930476D01*
X118159523Y-104835238D01*
X118254761Y-104740000D01*
X118397619Y-104692380D01*
X118492857Y-104692380D01*
X118635714Y-104740000D01*
X118683333Y-104787619D01*
X119540476Y-105025714D02*
X119540476Y-105692380D01*
X119302380Y-104644761D02*
X119064285Y-105359047D01*
X119683333Y-105359047D01*
X113857142Y-81656666D02*
X113904761Y-81704285D01*
X113952380Y-81847142D01*
X113952380Y-81942380D01*
X113904761Y-82085238D01*
X113809523Y-82180476D01*
X113714285Y-82228095D01*
X113523809Y-82275714D01*
X113380952Y-82275714D01*
X113190476Y-82228095D01*
X113095238Y-82180476D01*
X113000000Y-82085238D01*
X112952380Y-81942380D01*
X112952380Y-81847142D01*
X113000000Y-81704285D01*
X113047619Y-81656666D01*
X113047619Y-81275714D02*
X113000000Y-81228095D01*
X112952380Y-81132857D01*
X112952380Y-80894761D01*
X113000000Y-80799523D01*
X113047619Y-80751904D01*
X113142857Y-80704285D01*
X113238095Y-80704285D01*
X113380952Y-80751904D01*
X113952380Y-81323333D01*
X113952380Y-80704285D01*
X113857142Y-79756666D02*
X113904761Y-79804285D01*
X113952380Y-79947142D01*
X113952380Y-80042380D01*
X113904761Y-80185238D01*
X113809523Y-80280476D01*
X113714285Y-80328095D01*
X113523809Y-80375714D01*
X113380952Y-80375714D01*
X113190476Y-80328095D01*
X113095238Y-80280476D01*
X113000000Y-80185238D01*
X112952380Y-80042380D01*
X112952380Y-79947142D01*
X113000000Y-79804285D01*
X113047619Y-79756666D01*
X113952380Y-78804285D02*
X113952380Y-79375714D01*
X113952380Y-79090000D02*
X112952380Y-79090000D01*
X113095238Y-79185238D01*
X113190476Y-79280476D01*
X113238095Y-79375714D01*
X121266666Y-108668571D02*
X120933333Y-108668571D01*
X120933333Y-109192380D02*
X120933333Y-108192380D01*
X121409523Y-108192380D01*
X122314285Y-109192380D02*
X121742857Y-109192380D01*
X122028571Y-109192380D02*
X122028571Y-108192380D01*
X121933333Y-108335238D01*
X121838095Y-108430476D01*
X121742857Y-108478095D01*
X120838095Y-54342380D02*
X120838095Y-55151904D01*
X120885714Y-55247142D01*
X120933333Y-55294761D01*
X121028571Y-55342380D01*
X121219047Y-55342380D01*
X121314285Y-55294761D01*
X121361904Y-55247142D01*
X121409523Y-55151904D01*
X121409523Y-54342380D01*
X121790476Y-54342380D02*
X122409523Y-54342380D01*
X122076190Y-54723333D01*
X122219047Y-54723333D01*
X122314285Y-54770952D01*
X122361904Y-54818571D01*
X122409523Y-54913809D01*
X122409523Y-55151904D01*
X122361904Y-55247142D01*
X122314285Y-55294761D01*
X122219047Y-55342380D01*
X121933333Y-55342380D01*
X121838095Y-55294761D01*
X121790476Y-55247142D01*
X119123809Y-101466190D02*
X119123809Y-101942380D01*
X118790476Y-100942380D02*
X119123809Y-101466190D01*
X119457142Y-100942380D01*
X120314285Y-101942380D02*
X119742857Y-101942380D01*
X120028571Y-101942380D02*
X120028571Y-100942380D01*
X119933333Y-101085238D01*
X119838095Y-101180476D01*
X119742857Y-101228095D01*
M02*
