G04 #@! TF.GenerationSoftware,KiCad,Pcbnew,5.1.10-88a1d61d58~90~ubuntu20.04.1*
G04 #@! TF.CreationDate,2021-07-18T21:46:05+01:00*
G04 #@! TF.ProjectId,lhc_tijolo32_board,6c68635f-7469-46a6-9f6c-6f33325f626f,rev?*
G04 #@! TF.SameCoordinates,Original*
G04 #@! TF.FileFunction,Paste,Bot*
G04 #@! TF.FilePolarity,Positive*
%FSLAX46Y46*%
G04 Gerber Fmt 4.6, Leading zero omitted, Abs format (unit mm)*
G04 Created by KiCad (PCBNEW 5.1.10-88a1d61d58~90~ubuntu20.04.1) date 2021-07-18 21:46:05*
%MOMM*%
%LPD*%
G01*
G04 APERTURE LIST*
%ADD10R,1.800000X1.000000*%
%ADD11R,2.400000X0.740000*%
G04 APERTURE END LIST*
D10*
X109600000Y-45990000D03*
X109600000Y-43490000D03*
D11*
X114650000Y-50030000D03*
X118550000Y-50030000D03*
X114650000Y-48760000D03*
X118550000Y-48760000D03*
X114650000Y-47490000D03*
X118550000Y-47490000D03*
X114650000Y-46220000D03*
X118550000Y-46220000D03*
X114650000Y-44950000D03*
X118550000Y-44950000D03*
G36*
G01*
X109925000Y-47740000D02*
X109925000Y-47240000D01*
G75*
G02*
X110150000Y-47015000I225000J0D01*
G01*
X110600000Y-47015000D01*
G75*
G02*
X110825000Y-47240000I0J-225000D01*
G01*
X110825000Y-47740000D01*
G75*
G02*
X110600000Y-47965000I-225000J0D01*
G01*
X110150000Y-47965000D01*
G75*
G02*
X109925000Y-47740000I0J225000D01*
G01*
G37*
G36*
G01*
X108375000Y-47740000D02*
X108375000Y-47240000D01*
G75*
G02*
X108600000Y-47015000I225000J0D01*
G01*
X109050000Y-47015000D01*
G75*
G02*
X109275000Y-47240000I0J-225000D01*
G01*
X109275000Y-47740000D01*
G75*
G02*
X109050000Y-47965000I-225000J0D01*
G01*
X108600000Y-47965000D01*
G75*
G02*
X108375000Y-47740000I0J225000D01*
G01*
G37*
G36*
G01*
X109925000Y-42240000D02*
X109925000Y-41740000D01*
G75*
G02*
X110150000Y-41515000I225000J0D01*
G01*
X110600000Y-41515000D01*
G75*
G02*
X110825000Y-41740000I0J-225000D01*
G01*
X110825000Y-42240000D01*
G75*
G02*
X110600000Y-42465000I-225000J0D01*
G01*
X110150000Y-42465000D01*
G75*
G02*
X109925000Y-42240000I0J225000D01*
G01*
G37*
G36*
G01*
X108375000Y-42240000D02*
X108375000Y-41740000D01*
G75*
G02*
X108600000Y-41515000I225000J0D01*
G01*
X109050000Y-41515000D01*
G75*
G02*
X109275000Y-41740000I0J-225000D01*
G01*
X109275000Y-42240000D01*
G75*
G02*
X109050000Y-42465000I-225000J0D01*
G01*
X108600000Y-42465000D01*
G75*
G02*
X108375000Y-42240000I0J225000D01*
G01*
G37*
M02*
