M48
; DRILL file {KiCad 5.1.10-88a1d61d58~90~ubuntu20.04.1} date Sun Jul 18 21:45:57 2021
; FORMAT={-:-/ absolute / inch / decimal}
; #@! TF.CreationDate,2021-07-18T21:45:57+01:00
; #@! TF.GenerationSoftware,Kicad,Pcbnew,5.1.10-88a1d61d58~90~ubuntu20.04.1
; #@! TF.FileFunction,Plated,1,2,PTH
FMAT,2
INCH
T1C0.0118
T2C0.0315
T3C0.0354
T4C0.0394
%
G90
G05
T1
X4.0984Y-3.9563
X4.1614Y-3.1138
X4.1673Y-3.976
X4.1748Y-1.5413
X4.1748Y-1.5913
X4.1748Y-1.6413
X4.1767Y-1.6913
X4.185Y-3.4169
X4.2165Y-2.5665
X4.2205Y-3.3854
X4.2264Y-3.976
X4.2402Y-1.8421
X4.2441Y-1.9012
X4.2512Y-1.4413
X4.2854Y-2.5587
X4.2906Y-1.4413
X4.315Y-1.7122
X4.315Y-1.8106
X4.3299Y-1.4413
X4.3386Y-2.161
X4.3445Y-1.6138
X4.3445Y-2.9327
X4.3543Y-2.0114
X4.358Y-1.9797
X4.3661Y-2.535
X4.3693Y-1.4413
X4.3819Y-1.5193
X4.3826Y-1.8291
X4.3937Y-3.1098
X4.4085Y-3.223
X4.4134Y-2.0075
X4.4214Y-1.9113
X4.4232Y-3.3756
X4.4449Y-1.8066
X4.4528Y-2.539
X4.47Y-1.61
X4.47Y-1.65
X4.47Y-1.69
X4.4823Y-2.0075
X4.4921Y-2.8146
X4.4962Y-2.4287
X4.502Y-3.3804
X4.502Y-3.8579
X4.51Y-1.61
X4.51Y-1.65
X4.51Y-1.69
X4.5138Y-1.9197
X4.5354Y-2.5744
X4.5413Y-2.0075
X4.55Y-1.61
X4.55Y-1.65
X4.55Y-1.69
X4.5533Y-2.5521
X4.5709Y-2.9524
X4.5906Y-1.8205
X4.5906Y-2.0075
X4.6299Y-2.8835
X4.6299Y-2.9228
X4.6339Y-2.5705
X4.6693Y-2.3815
X4.689Y-2.4799
X4.6968Y-2.6807
X4.6969Y-2.6413
X4.6988Y-4.0843
X4.7047Y-2.2043
X4.7344Y-2.0807
X4.7362Y-1.8461
X4.7441Y-3.0665
X4.7717Y-3.3657
X4.8441Y-1.4913
X4.8441Y-1.6413
X4.8441Y-1.7413
X4.8441Y-1.7913
X4.8441Y-1.8413
X4.8441Y-1.9913
T2
X4.0701Y-1.7866
X4.0701Y-1.8866
X4.0701Y-1.9866
X4.0701Y-2.0866
X4.0701Y-2.1866
X4.0701Y-2.2866
X4.0701Y-2.3866
X4.0701Y-2.4866
X4.0701Y-2.5866
X4.0701Y-2.6866
X4.0701Y-2.7866
X4.0701Y-2.8866
X4.0701Y-2.9866
X4.0701Y-3.0866
X4.0701Y-3.1866
X4.0701Y-3.2866
X4.8701Y-2.1866
X4.8701Y-2.2866
X4.8701Y-2.3866
X4.8701Y-2.4866
X4.8701Y-2.5866
X4.8701Y-2.6866
X4.8701Y-2.7866
X4.8701Y-2.8866
X4.8701Y-2.9866
X4.8701Y-3.0866
X4.8701Y-3.1866
X4.8701Y-3.2866
T4
X4.23Y-3.47
X4.23Y-3.73
X4.32Y-2.24
X4.33Y-3.47
X4.33Y-3.73
X4.42Y-2.24
X4.43Y-3.47
X4.43Y-3.73
X4.52Y-2.24
X4.53Y-3.47
X4.53Y-3.73
X4.62Y-2.24
X4.63Y-3.47
X4.63Y-3.73
X4.73Y-3.47
X4.73Y-3.73
T3
G00X4.248Y-4.2831
M15
G01X4.248Y-4.3461
M16
G05
G00X4.6969Y-4.2831
M15
G01X4.6969Y-4.3461
M16
G05
T0
M30
