G04 #@! TF.GenerationSoftware,KiCad,Pcbnew,5.1.10-88a1d61d58~90~ubuntu20.04.1*
G04 #@! TF.CreationDate,2021-07-18T21:46:05+01:00*
G04 #@! TF.ProjectId,lhc_tijolo32_board,6c68635f-7469-46a6-9f6c-6f33325f626f,rev?*
G04 #@! TF.SameCoordinates,Original*
G04 #@! TF.FileFunction,Copper,L2,Bot*
G04 #@! TF.FilePolarity,Positive*
%FSLAX46Y46*%
G04 Gerber Fmt 4.6, Leading zero omitted, Abs format (unit mm)*
G04 Created by KiCad (PCBNEW 5.1.10-88a1d61d58~90~ubuntu20.04.1) date 2021-07-18 21:46:05*
%MOMM*%
%LPD*%
G01*
G04 APERTURE LIST*
G04 #@! TA.AperFunction,NonConductor*
%ADD10C,0.150000*%
G04 #@! TD*
G04 #@! TA.AperFunction,ComponentPad*
%ADD11O,1.700000X1.700000*%
G04 #@! TD*
G04 #@! TA.AperFunction,ComponentPad*
%ADD12R,1.700000X1.700000*%
G04 #@! TD*
G04 #@! TA.AperFunction,ComponentPad*
%ADD13C,1.600000*%
G04 #@! TD*
G04 #@! TA.AperFunction,ComponentPad*
%ADD14R,1.600000X1.600000*%
G04 #@! TD*
G04 #@! TA.AperFunction,SMDPad,CuDef*
%ADD15R,1.000000X1.500000*%
G04 #@! TD*
G04 #@! TA.AperFunction,ComponentPad*
%ADD16O,1.900000X3.500000*%
G04 #@! TD*
G04 #@! TA.AperFunction,SMDPad,CuDef*
%ADD17R,1.800000X1.000000*%
G04 #@! TD*
G04 #@! TA.AperFunction,SMDPad,CuDef*
%ADD18R,2.400000X0.740000*%
G04 #@! TD*
G04 #@! TA.AperFunction,ViaPad*
%ADD19C,0.600000*%
G04 #@! TD*
G04 #@! TA.AperFunction,Conductor*
%ADD20C,0.203200*%
G04 #@! TD*
G04 #@! TA.AperFunction,Conductor*
%ADD21C,0.152400*%
G04 #@! TD*
G04 #@! TA.AperFunction,Conductor*
%ADD22C,0.508000*%
G04 #@! TD*
G04 #@! TA.AperFunction,Conductor*
%ADD23C,0.304800*%
G04 #@! TD*
G04 #@! TA.AperFunction,Conductor*
%ADD24C,0.200000*%
G04 #@! TD*
G04 #@! TA.AperFunction,Conductor*
%ADD25C,0.100000*%
G04 #@! TD*
G04 APERTURE END LIST*
D10*
X110814285Y-69542380D02*
X111290476Y-69542380D01*
X111290476Y-68542380D01*
X110480952Y-69542380D02*
X110480952Y-68542380D01*
X110480952Y-69018571D02*
X109909523Y-69018571D01*
X109909523Y-69542380D02*
X109909523Y-68542380D01*
X108861904Y-69447142D02*
X108909523Y-69494761D01*
X109052380Y-69542380D01*
X109147619Y-69542380D01*
X109290476Y-69494761D01*
X109385714Y-69399523D01*
X109433333Y-69304285D01*
X109480952Y-69113809D01*
X109480952Y-68970952D01*
X109433333Y-68780476D01*
X109385714Y-68685238D01*
X109290476Y-68590000D01*
X109147619Y-68542380D01*
X109052380Y-68542380D01*
X108909523Y-68590000D01*
X108861904Y-68637619D01*
D11*
X107442000Y-88138000D03*
X109982000Y-88138000D03*
X112522000Y-88138000D03*
X115062000Y-88138000D03*
X117602000Y-88138000D03*
D12*
X120142000Y-88138000D03*
D11*
X107442000Y-94742000D03*
X109982000Y-94742000D03*
X112522000Y-94742000D03*
X115062000Y-94742000D03*
X117602000Y-94742000D03*
D12*
X120142000Y-94742000D03*
D11*
X117348000Y-56896000D03*
X114808000Y-56896000D03*
X112268000Y-56896000D03*
D12*
X109728000Y-56896000D03*
D13*
X123700000Y-83480000D03*
X123700000Y-80940000D03*
X123700000Y-78400000D03*
X123700000Y-75860000D03*
X123700000Y-73320000D03*
X123700000Y-70780000D03*
X123700000Y-68240000D03*
X123700000Y-65700000D03*
X123700000Y-63160000D03*
X123700000Y-60620000D03*
X123700000Y-58080000D03*
X123700000Y-55540000D03*
D14*
X103380000Y-45380000D03*
D13*
X103380000Y-47920000D03*
X103380000Y-50460000D03*
X103380000Y-53000000D03*
X103380000Y-55540000D03*
X103380000Y-58080000D03*
X103380000Y-60620000D03*
X103380000Y-63160000D03*
X103380000Y-65700000D03*
X103380000Y-68240000D03*
X103380000Y-70780000D03*
X103380000Y-73320000D03*
X103380000Y-75860000D03*
X103380000Y-78400000D03*
X103380000Y-80940000D03*
X103380000Y-83480000D03*
D15*
X110460000Y-62992000D03*
X111760000Y-62992000D03*
X113060000Y-62992000D03*
X117886000Y-62992000D03*
X116586000Y-62992000D03*
X115286000Y-62992000D03*
D16*
X107900000Y-109590000D03*
X119300000Y-109590000D03*
D17*
X109600000Y-45990000D03*
X109600000Y-43490000D03*
D18*
X114650000Y-50030000D03*
X118550000Y-50030000D03*
X114650000Y-48760000D03*
X118550000Y-48760000D03*
X114650000Y-47490000D03*
X118550000Y-47490000D03*
X114650000Y-46220000D03*
X118550000Y-46220000D03*
X114650000Y-44950000D03*
X118550000Y-44950000D03*
G04 #@! TA.AperFunction,SMDPad,CuDef*
G36*
G01*
X109925000Y-47740000D02*
X109925000Y-47240000D01*
G75*
G02*
X110150000Y-47015000I225000J0D01*
G01*
X110600000Y-47015000D01*
G75*
G02*
X110825000Y-47240000I0J-225000D01*
G01*
X110825000Y-47740000D01*
G75*
G02*
X110600000Y-47965000I-225000J0D01*
G01*
X110150000Y-47965000D01*
G75*
G02*
X109925000Y-47740000I0J225000D01*
G01*
G37*
G04 #@! TD.AperFunction*
G04 #@! TA.AperFunction,SMDPad,CuDef*
G36*
G01*
X108375000Y-47740000D02*
X108375000Y-47240000D01*
G75*
G02*
X108600000Y-47015000I225000J0D01*
G01*
X109050000Y-47015000D01*
G75*
G02*
X109275000Y-47240000I0J-225000D01*
G01*
X109275000Y-47740000D01*
G75*
G02*
X109050000Y-47965000I-225000J0D01*
G01*
X108600000Y-47965000D01*
G75*
G02*
X108375000Y-47740000I0J225000D01*
G01*
G37*
G04 #@! TD.AperFunction*
G04 #@! TA.AperFunction,SMDPad,CuDef*
G36*
G01*
X109925000Y-42240000D02*
X109925000Y-41740000D01*
G75*
G02*
X110150000Y-41515000I225000J0D01*
G01*
X110600000Y-41515000D01*
G75*
G02*
X110825000Y-41740000I0J-225000D01*
G01*
X110825000Y-42240000D01*
G75*
G02*
X110600000Y-42465000I-225000J0D01*
G01*
X110150000Y-42465000D01*
G75*
G02*
X109925000Y-42240000I0J225000D01*
G01*
G37*
G04 #@! TD.AperFunction*
G04 #@! TA.AperFunction,SMDPad,CuDef*
G36*
G01*
X108375000Y-42240000D02*
X108375000Y-41740000D01*
G75*
G02*
X108600000Y-41515000I225000J0D01*
G01*
X109050000Y-41515000D01*
G75*
G02*
X109275000Y-41740000I0J-225000D01*
G01*
X109275000Y-42240000D01*
G75*
G02*
X109050000Y-42465000I-225000J0D01*
G01*
X108600000Y-42465000D01*
G75*
G02*
X108375000Y-42240000I0J225000D01*
G01*
G37*
G04 #@! TD.AperFunction*
D19*
X115570000Y-42926000D03*
X114554000Y-42926000D03*
X113538000Y-42926000D03*
X113538000Y-41910000D03*
X114554000Y-41910000D03*
X115570000Y-41910000D03*
X113538000Y-40894000D03*
X114554000Y-40894000D03*
X115570000Y-40894000D03*
X110350000Y-40990000D03*
X113100000Y-64490000D03*
X116600000Y-46240000D03*
X119100000Y-62990000D03*
X111319176Y-46459176D03*
X117600000Y-73240000D03*
X117600000Y-74240000D03*
X119300000Y-67090000D03*
X119299990Y-68090000D03*
X110980000Y-36610000D03*
X109980000Y-36610000D03*
X108980000Y-36610000D03*
X107980000Y-36610000D03*
X112350000Y-85740000D03*
X111600000Y-78990000D03*
X111975000Y-81865000D03*
X118600000Y-60490000D03*
X116100000Y-74990000D03*
X114203200Y-61690000D03*
X110900000Y-64390000D03*
X114350000Y-85861390D03*
X117700006Y-65290000D03*
X107100000Y-65189994D03*
X119499998Y-55990000D03*
X110200000Y-54890000D03*
X108850000Y-64990000D03*
X112100000Y-50990000D03*
X111300000Y-38590000D03*
X110694184Y-50284184D03*
X110600000Y-51090002D03*
X114650000Y-48760000D03*
X112900000Y-45886790D03*
X107800000Y-48290000D03*
X107700000Y-46790000D03*
X106089020Y-42960000D03*
X106040000Y-41690000D03*
X109600000Y-45990000D03*
X109600000Y-43490000D03*
X106040000Y-40420000D03*
X106040000Y-39150000D03*
X123040000Y-41690000D03*
X107350000Y-100990000D03*
X114350000Y-97990000D03*
X106300000Y-86790000D03*
X112303210Y-48545824D03*
X105700000Y-79090000D03*
X105850000Y-100990000D03*
X107200000Y-85990000D03*
X120299750Y-46890000D03*
X120500000Y-77890000D03*
X121200000Y-85490000D03*
X123040000Y-37880000D03*
X123040000Y-44230000D03*
X123040000Y-45500000D03*
X123040000Y-46770000D03*
X116600000Y-50990000D03*
X120255000Y-52850000D03*
X123040000Y-50580000D03*
X113850000Y-50990000D03*
X115200000Y-65390000D03*
X115350000Y-50990000D03*
X115654154Y-64822307D03*
X110350000Y-74490000D03*
X114100000Y-71490000D03*
X119350000Y-103740000D03*
X104100000Y-100490000D03*
D20*
X118550000Y-47490000D02*
X118550000Y-46220000D01*
X110375000Y-41015000D02*
X110350000Y-40990000D01*
X110375000Y-41990000D02*
X110375000Y-41015000D01*
X113150000Y-64440000D02*
X113100000Y-64490000D01*
X113150000Y-62990000D02*
X113150000Y-64440000D01*
D21*
X116620000Y-46220000D02*
X116600000Y-46240000D01*
X118550000Y-46220000D02*
X116620000Y-46220000D01*
X116879410Y-49711810D02*
X116879410Y-47769410D01*
X117197600Y-50030000D02*
X116879410Y-49711810D01*
X118550000Y-50030000D02*
X117197600Y-50030000D01*
X117158820Y-47490000D02*
X118550000Y-47490000D01*
X116879410Y-47769410D02*
X117158820Y-47490000D01*
X117900000Y-62990000D02*
X119100000Y-62990000D01*
X110375000Y-47490000D02*
X110375000Y-47403352D01*
X110375000Y-47403352D02*
X111319176Y-46459176D01*
D22*
X117600000Y-73240000D02*
X117600000Y-74240000D01*
X117600000Y-74240000D02*
X117600000Y-74240000D01*
X119300000Y-67090000D02*
X119300000Y-68089990D01*
X119300000Y-68089990D02*
X119299990Y-68090000D01*
X117600000Y-73240000D02*
X117600000Y-69789990D01*
X117600000Y-69789990D02*
X119299990Y-68090000D01*
D21*
X110550000Y-64040000D02*
X110900000Y-64390000D01*
X110550000Y-62990000D02*
X110550000Y-64040000D01*
X110900000Y-48494856D02*
X110900000Y-50078368D01*
X112000000Y-47394856D02*
X110900000Y-48494856D01*
X110900000Y-50078368D02*
X110694184Y-50284184D01*
X112000000Y-39290000D02*
X112000000Y-47394856D01*
X111300000Y-38590000D02*
X112000000Y-39290000D01*
X112100000Y-51990000D02*
X112100000Y-50990000D01*
X108350000Y-55740000D02*
X112100000Y-51990000D01*
X108350000Y-64490000D02*
X108350000Y-55740000D01*
X108850000Y-64990000D02*
X108350000Y-64490000D01*
X111200000Y-50490002D02*
X110600000Y-51090002D01*
X111200000Y-48590000D02*
X111200000Y-50490002D01*
X113570000Y-46220000D02*
X111200000Y-48590000D01*
X114650000Y-46220000D02*
X113570000Y-46220000D01*
X114650000Y-44950000D02*
X113836790Y-44950000D01*
X113836790Y-44950000D02*
X112900000Y-45886790D01*
D20*
X103380000Y-68240000D02*
X105428493Y-66191507D01*
X106551050Y-62995937D02*
X106551050Y-60922924D01*
X105428493Y-64118493D02*
X106551050Y-62995937D01*
X105428493Y-66191507D02*
X105428493Y-64118493D01*
X106551050Y-60922924D02*
X106551050Y-49590000D01*
X106551050Y-49538950D02*
X107800000Y-48290000D01*
X106551050Y-49590000D02*
X106551050Y-49538950D01*
X103380000Y-65700000D02*
X106220840Y-62859160D01*
X106220840Y-62859160D02*
X106220840Y-60786147D01*
X106220840Y-48269160D02*
X107700000Y-46790000D01*
X106220840Y-60786147D02*
X106220840Y-48269160D01*
X103380000Y-63160000D02*
X105890630Y-60649370D01*
X105890630Y-43158390D02*
X106089020Y-42960000D01*
X105890630Y-60649370D02*
X105890630Y-43158390D01*
X103380000Y-60620000D02*
X105560420Y-58439580D01*
X105560420Y-42169580D02*
X106040000Y-41690000D01*
X105560420Y-58439580D02*
X105560420Y-42169580D01*
X108825000Y-46765000D02*
X109600000Y-45990000D01*
X108825000Y-47490000D02*
X108825000Y-46765000D01*
X108825000Y-42715000D02*
X109600000Y-43490000D01*
X108825000Y-41990000D02*
X108825000Y-42715000D01*
X103380000Y-58080000D02*
X105230210Y-56229790D01*
X105230210Y-41229790D02*
X106040000Y-40420000D01*
X105230210Y-56229790D02*
X105230210Y-41229790D01*
X103380000Y-55540000D02*
X104900000Y-54020000D01*
X104900000Y-40290000D02*
X106040000Y-39150000D01*
X104900000Y-54020000D02*
X104900000Y-40290000D01*
D21*
X123700000Y-73320000D02*
X121082360Y-70702360D01*
X121082360Y-70702360D02*
X121082360Y-43647640D01*
X121082360Y-43647640D02*
X123040000Y-41690000D01*
D20*
X110350000Y-97990000D02*
X114350000Y-97990000D01*
X107350000Y-100990000D02*
X110350000Y-97990000D01*
D21*
X111503201Y-51796510D02*
X111503201Y-49345833D01*
X108000000Y-55299711D02*
X111503201Y-51796510D01*
X111503201Y-49345833D02*
X112303210Y-48545824D01*
X105733303Y-64244749D02*
X106855860Y-63122193D01*
X105733303Y-75651553D02*
X105733303Y-64244749D01*
X106855860Y-56443851D02*
X108000000Y-55299711D01*
X106855860Y-63122193D02*
X106855860Y-56443851D01*
D20*
X106300000Y-86790000D02*
X104769789Y-85259789D01*
X104769789Y-85259789D02*
X104769789Y-82329789D01*
X104769789Y-82329789D02*
X103380000Y-80940000D01*
D21*
X105733303Y-79056697D02*
X105700000Y-79090000D01*
X105733303Y-75651553D02*
X105733303Y-79056697D01*
D20*
X105850000Y-100990000D02*
X109600000Y-97240000D01*
X109600000Y-97240000D02*
X116350000Y-97240000D01*
X117560000Y-96030000D02*
X117560000Y-94590000D01*
X116350000Y-97240000D02*
X117560000Y-96030000D01*
X105100000Y-85090000D02*
X105100000Y-80120000D01*
X106000000Y-85990000D02*
X105100000Y-85090000D01*
X105100000Y-80120000D02*
X103380000Y-78400000D01*
X107200000Y-85990000D02*
X106000000Y-85990000D01*
D21*
X120299750Y-46989750D02*
X120523540Y-47213540D01*
X120299750Y-46890000D02*
X120299750Y-46989750D01*
X120523540Y-47213540D02*
X120523540Y-49992222D01*
X120523540Y-49992222D02*
X120523540Y-51666460D01*
X120523540Y-51666460D02*
X119600000Y-52590000D01*
X119600000Y-52590000D02*
X119600000Y-53290000D01*
X120120589Y-53810589D02*
X120120589Y-66369411D01*
X119600000Y-53290000D02*
X120120589Y-53810589D01*
X120120589Y-77510589D02*
X120500000Y-77890000D01*
X120120589Y-66369411D02*
X120120589Y-77510589D01*
X120060000Y-85490000D02*
X117560000Y-87990000D01*
X121200000Y-85490000D02*
X120060000Y-85490000D01*
X123700000Y-75860000D02*
X120800000Y-72960000D01*
X120800000Y-72960000D02*
X120800000Y-54290000D01*
X120802950Y-54287050D02*
X120802950Y-40117050D01*
X120800000Y-54290000D02*
X120802950Y-54287050D01*
X120802950Y-40117050D02*
X123040000Y-37880000D01*
X123700000Y-70780000D02*
X121361770Y-68441770D01*
X121361770Y-68441770D02*
X121361770Y-45908230D01*
X121361770Y-45908230D02*
X123040000Y-44230000D01*
X121641180Y-66181180D02*
X121641180Y-46898820D01*
X121641180Y-46898820D02*
X123040000Y-45500000D01*
X123700000Y-68240000D02*
X121641180Y-66181180D01*
X121920590Y-47889410D02*
X123040000Y-46770000D01*
X123700000Y-65700000D02*
X121920590Y-63920590D01*
X121920590Y-63920590D02*
X121920590Y-47889410D01*
X116100000Y-47490000D02*
X114650000Y-47490000D01*
X116600000Y-47990000D02*
X116100000Y-47490000D01*
X116600000Y-50990000D02*
X116600000Y-47990000D01*
X123700000Y-78400000D02*
X120399999Y-75099999D01*
X120399999Y-54389999D02*
X120399999Y-52994999D01*
X120399999Y-52994999D02*
X120255000Y-52850000D01*
X120399999Y-75099999D02*
X120399999Y-54389999D01*
X122200000Y-61660000D02*
X122200000Y-51420000D01*
X123700000Y-63160000D02*
X122200000Y-61660000D01*
X122200000Y-51420000D02*
X123040000Y-50580000D01*
D20*
X109730000Y-56810000D02*
X109730000Y-58620000D01*
X111850000Y-60740000D02*
X111850000Y-62990000D01*
X109730000Y-58620000D02*
X111850000Y-60740000D01*
X112270000Y-56810000D02*
X112270000Y-59410000D01*
X112270000Y-59410000D02*
X113600000Y-60740000D01*
X113600000Y-60740000D02*
X115850000Y-60740000D01*
X116600000Y-61490000D02*
X116600000Y-62990000D01*
X115850000Y-60740000D02*
X116600000Y-61490000D01*
X114810000Y-51950000D02*
X114810000Y-56810000D01*
X113850000Y-50990000D02*
X114810000Y-51950000D01*
D21*
X115200000Y-66190000D02*
X115200000Y-65390000D01*
X115500000Y-66490000D02*
X115200000Y-66190000D01*
X115500000Y-75134738D02*
X115500000Y-66490000D01*
X121305262Y-80940000D02*
X115500000Y-75134738D01*
X123700000Y-80940000D02*
X121305262Y-80940000D01*
D20*
X117350000Y-52990000D02*
X117350000Y-56810000D01*
X115350000Y-50990000D02*
X117350000Y-52990000D01*
D21*
X114696799Y-66166209D02*
X114696799Y-65148463D01*
X115022955Y-64822307D02*
X115654154Y-64822307D01*
X115200000Y-66669410D02*
X114696799Y-66166209D01*
X114696799Y-65148463D02*
X115022955Y-64822307D01*
X115200000Y-75229882D02*
X115200000Y-66669410D01*
X123450118Y-83480000D02*
X115200000Y-75229882D01*
X123700000Y-83480000D02*
X123450118Y-83480000D01*
D20*
X109940000Y-74900000D02*
X109940000Y-87990000D01*
X110350000Y-74490000D02*
X109940000Y-74900000D01*
X110350000Y-75740000D02*
X110350000Y-85860000D01*
X110350000Y-85860000D02*
X112480000Y-87990000D01*
X111600000Y-74490000D02*
X110350000Y-75740000D01*
X114100000Y-71990000D02*
X111600000Y-74490000D01*
X114100000Y-71490000D02*
X114100000Y-71990000D01*
D23*
X119350000Y-103740000D02*
X106600000Y-103740000D01*
X104100000Y-101240000D02*
X104100000Y-100490000D01*
X106600000Y-103740000D02*
X104100000Y-101240000D01*
D24*
X121350464Y-93211456D02*
X121382219Y-93224544D01*
X121413795Y-93238078D01*
X121418851Y-93239643D01*
X121699105Y-93324257D01*
X121732801Y-93330929D01*
X121766401Y-93338071D01*
X121771664Y-93338624D01*
X122063016Y-93367191D01*
X122063024Y-93367191D01*
X122081390Y-93369000D01*
X123581465Y-93369000D01*
X123914501Y-93401655D01*
X124217022Y-93492991D01*
X124496043Y-93641350D01*
X124740934Y-93841079D01*
X124942363Y-94084564D01*
X125092663Y-94362539D01*
X125186110Y-94664419D01*
X125221001Y-94996377D01*
X125221000Y-109971465D01*
X125188345Y-110304502D01*
X125097009Y-110607022D01*
X124948651Y-110886042D01*
X124748923Y-111130932D01*
X124505436Y-111332363D01*
X124227457Y-111482665D01*
X123925582Y-111576110D01*
X123593631Y-111611000D01*
X119752966Y-111611000D01*
X119774074Y-111605072D01*
X120002014Y-111489237D01*
X120202975Y-111331159D01*
X120369236Y-111136913D01*
X120494407Y-110913964D01*
X120573677Y-110670879D01*
X120604000Y-110417000D01*
X120604000Y-109841305D01*
X122090271Y-109841305D01*
X122090271Y-110138695D01*
X122148289Y-110430372D01*
X122262095Y-110705125D01*
X122427317Y-110952396D01*
X122637604Y-111162683D01*
X122884875Y-111327905D01*
X123159628Y-111441711D01*
X123451305Y-111499729D01*
X123748695Y-111499729D01*
X124040372Y-111441711D01*
X124315125Y-111327905D01*
X124562396Y-111162683D01*
X124772683Y-110952396D01*
X124937905Y-110705125D01*
X125051711Y-110430372D01*
X125109729Y-110138695D01*
X125109729Y-109841305D01*
X125051711Y-109549628D01*
X124937905Y-109274875D01*
X124772683Y-109027604D01*
X124562396Y-108817317D01*
X124315125Y-108652095D01*
X124040372Y-108538289D01*
X123748695Y-108480271D01*
X123451305Y-108480271D01*
X123159628Y-108538289D01*
X122884875Y-108652095D01*
X122637604Y-108817317D01*
X122427317Y-109027604D01*
X122262095Y-109274875D01*
X122148289Y-109549628D01*
X122090271Y-109841305D01*
X120604000Y-109841305D01*
X120604000Y-109617000D01*
X119327000Y-109617000D01*
X119327000Y-109637000D01*
X119273000Y-109637000D01*
X119273000Y-109617000D01*
X117996000Y-109617000D01*
X117996000Y-110417000D01*
X118026323Y-110670879D01*
X118105593Y-110913964D01*
X118230764Y-111136913D01*
X118397025Y-111331159D01*
X118597986Y-111489237D01*
X118825926Y-111605072D01*
X118847034Y-111611000D01*
X108352966Y-111611000D01*
X108374074Y-111605072D01*
X108602014Y-111489237D01*
X108802975Y-111331159D01*
X108969236Y-111136913D01*
X109094407Y-110913964D01*
X109173677Y-110670879D01*
X109204000Y-110417000D01*
X109204000Y-109617000D01*
X107927000Y-109617000D01*
X107927000Y-109637000D01*
X107873000Y-109637000D01*
X107873000Y-109617000D01*
X106596000Y-109617000D01*
X106596000Y-110417000D01*
X106626323Y-110670879D01*
X106705593Y-110913964D01*
X106830764Y-111136913D01*
X106997025Y-111331159D01*
X107197986Y-111489237D01*
X107425926Y-111605072D01*
X107447034Y-111611000D01*
X103618535Y-111611000D01*
X103285498Y-111578345D01*
X102982978Y-111487009D01*
X102703958Y-111338651D01*
X102459068Y-111138923D01*
X102257637Y-110895436D01*
X102107335Y-110617457D01*
X102013890Y-110315582D01*
X101979000Y-109983631D01*
X101979000Y-109841305D01*
X102090271Y-109841305D01*
X102090271Y-110138695D01*
X102148289Y-110430372D01*
X102262095Y-110705125D01*
X102427317Y-110952396D01*
X102637604Y-111162683D01*
X102884875Y-111327905D01*
X103159628Y-111441711D01*
X103451305Y-111499729D01*
X103748695Y-111499729D01*
X104040372Y-111441711D01*
X104315125Y-111327905D01*
X104562396Y-111162683D01*
X104772683Y-110952396D01*
X104937905Y-110705125D01*
X105051711Y-110430372D01*
X105109729Y-110138695D01*
X105109729Y-109841305D01*
X105051711Y-109549628D01*
X104937905Y-109274875D01*
X104772683Y-109027604D01*
X104562396Y-108817317D01*
X104481106Y-108763000D01*
X106596000Y-108763000D01*
X106596000Y-109563000D01*
X107873000Y-109563000D01*
X107873000Y-107574800D01*
X107927000Y-107574800D01*
X107927000Y-109563000D01*
X109204000Y-109563000D01*
X109204000Y-109500964D01*
X110396000Y-109500964D01*
X110396000Y-109679036D01*
X110430740Y-109853687D01*
X110498886Y-110018205D01*
X110597817Y-110166266D01*
X110723734Y-110292183D01*
X110871795Y-110391114D01*
X111036313Y-110459260D01*
X111210964Y-110494000D01*
X111389036Y-110494000D01*
X111563687Y-110459260D01*
X111728205Y-110391114D01*
X111876266Y-110292183D01*
X112002183Y-110166266D01*
X112101114Y-110018205D01*
X112169260Y-109853687D01*
X112204000Y-109679036D01*
X112204000Y-109500964D01*
X114996000Y-109500964D01*
X114996000Y-109679036D01*
X115030740Y-109853687D01*
X115098886Y-110018205D01*
X115197817Y-110166266D01*
X115323734Y-110292183D01*
X115471795Y-110391114D01*
X115636313Y-110459260D01*
X115810964Y-110494000D01*
X115989036Y-110494000D01*
X116163687Y-110459260D01*
X116328205Y-110391114D01*
X116476266Y-110292183D01*
X116602183Y-110166266D01*
X116701114Y-110018205D01*
X116769260Y-109853687D01*
X116804000Y-109679036D01*
X116804000Y-109500964D01*
X116769260Y-109326313D01*
X116701114Y-109161795D01*
X116602183Y-109013734D01*
X116476266Y-108887817D01*
X116328205Y-108788886D01*
X116265712Y-108763000D01*
X117996000Y-108763000D01*
X117996000Y-109563000D01*
X119273000Y-109563000D01*
X119273000Y-107574800D01*
X119327000Y-107574800D01*
X119327000Y-109563000D01*
X120604000Y-109563000D01*
X120604000Y-108763000D01*
X120573677Y-108509121D01*
X120494407Y-108266036D01*
X120369236Y-108043087D01*
X120202975Y-107848841D01*
X120002014Y-107690763D01*
X119774074Y-107574928D01*
X119530614Y-107506555D01*
X119327000Y-107574800D01*
X119273000Y-107574800D01*
X119069386Y-107506555D01*
X118825926Y-107574928D01*
X118597986Y-107690763D01*
X118397025Y-107848841D01*
X118230764Y-108043087D01*
X118105593Y-108266036D01*
X118026323Y-108509121D01*
X117996000Y-108763000D01*
X116265712Y-108763000D01*
X116163687Y-108720740D01*
X115989036Y-108686000D01*
X115810964Y-108686000D01*
X115636313Y-108720740D01*
X115471795Y-108788886D01*
X115323734Y-108887817D01*
X115197817Y-109013734D01*
X115098886Y-109161795D01*
X115030740Y-109326313D01*
X114996000Y-109500964D01*
X112204000Y-109500964D01*
X112169260Y-109326313D01*
X112101114Y-109161795D01*
X112002183Y-109013734D01*
X111876266Y-108887817D01*
X111728205Y-108788886D01*
X111563687Y-108720740D01*
X111389036Y-108686000D01*
X111210964Y-108686000D01*
X111036313Y-108720740D01*
X110871795Y-108788886D01*
X110723734Y-108887817D01*
X110597817Y-109013734D01*
X110498886Y-109161795D01*
X110430740Y-109326313D01*
X110396000Y-109500964D01*
X109204000Y-109500964D01*
X109204000Y-108763000D01*
X109173677Y-108509121D01*
X109094407Y-108266036D01*
X108969236Y-108043087D01*
X108802975Y-107848841D01*
X108602014Y-107690763D01*
X108374074Y-107574928D01*
X108130614Y-107506555D01*
X107927000Y-107574800D01*
X107873000Y-107574800D01*
X107669386Y-107506555D01*
X107425926Y-107574928D01*
X107197986Y-107690763D01*
X106997025Y-107848841D01*
X106830764Y-108043087D01*
X106705593Y-108266036D01*
X106626323Y-108509121D01*
X106596000Y-108763000D01*
X104481106Y-108763000D01*
X104315125Y-108652095D01*
X104040372Y-108538289D01*
X103748695Y-108480271D01*
X103451305Y-108480271D01*
X103159628Y-108538289D01*
X102884875Y-108652095D01*
X102637604Y-108817317D01*
X102427317Y-109027604D01*
X102262095Y-109274875D01*
X102148289Y-109549628D01*
X102090271Y-109841305D01*
X101979000Y-109841305D01*
X101979000Y-100425587D01*
X103446000Y-100425587D01*
X103446000Y-100554413D01*
X103471133Y-100680765D01*
X103520433Y-100799785D01*
X103592005Y-100906900D01*
X103593600Y-100908495D01*
X103593600Y-101215133D01*
X103591151Y-101240000D01*
X103593600Y-101264866D01*
X103593600Y-101264875D01*
X103600927Y-101339271D01*
X103629884Y-101434727D01*
X103676907Y-101522702D01*
X103740189Y-101599811D01*
X103759518Y-101615674D01*
X106224331Y-104080488D01*
X106240189Y-104099811D01*
X106317298Y-104163093D01*
X106405272Y-104210116D01*
X106500728Y-104239073D01*
X106575124Y-104246400D01*
X106575134Y-104246400D01*
X106600000Y-104248849D01*
X106624866Y-104246400D01*
X118931505Y-104246400D01*
X118933100Y-104247995D01*
X119040215Y-104319567D01*
X119159235Y-104368867D01*
X119285587Y-104394000D01*
X119414413Y-104394000D01*
X119540765Y-104368867D01*
X119659785Y-104319567D01*
X119766900Y-104247995D01*
X119857995Y-104156900D01*
X119929567Y-104049785D01*
X119978867Y-103930765D01*
X120004000Y-103804413D01*
X120004000Y-103675587D01*
X119978867Y-103549235D01*
X119929567Y-103430215D01*
X119857995Y-103323100D01*
X119766900Y-103232005D01*
X119659785Y-103160433D01*
X119540765Y-103111133D01*
X119414413Y-103086000D01*
X119285587Y-103086000D01*
X119159235Y-103111133D01*
X119040215Y-103160433D01*
X118933100Y-103232005D01*
X118931505Y-103233600D01*
X106809757Y-103233600D01*
X104606400Y-101030244D01*
X104606400Y-100925587D01*
X105196000Y-100925587D01*
X105196000Y-101054413D01*
X105221133Y-101180765D01*
X105270433Y-101299785D01*
X105342005Y-101406900D01*
X105433100Y-101497995D01*
X105540215Y-101569567D01*
X105659235Y-101618867D01*
X105785587Y-101644000D01*
X105914413Y-101644000D01*
X106040765Y-101618867D01*
X106159785Y-101569567D01*
X106266900Y-101497995D01*
X106357995Y-101406900D01*
X106429567Y-101299785D01*
X106478867Y-101180765D01*
X106504000Y-101054413D01*
X106504000Y-100980315D01*
X106746626Y-100737689D01*
X106721133Y-100799235D01*
X106696000Y-100925587D01*
X106696000Y-101054413D01*
X106721133Y-101180765D01*
X106770433Y-101299785D01*
X106842005Y-101406900D01*
X106933100Y-101497995D01*
X107040215Y-101569567D01*
X107159235Y-101618867D01*
X107285587Y-101644000D01*
X107414413Y-101644000D01*
X107540765Y-101618867D01*
X107659785Y-101569567D01*
X107766900Y-101497995D01*
X107857995Y-101406900D01*
X107929567Y-101299785D01*
X107978867Y-101180765D01*
X108004000Y-101054413D01*
X108004000Y-100980315D01*
X110538716Y-98445600D01*
X113880705Y-98445600D01*
X113933100Y-98497995D01*
X114040215Y-98569567D01*
X114159235Y-98618867D01*
X114285587Y-98644000D01*
X114414413Y-98644000D01*
X114540765Y-98618867D01*
X114659785Y-98569567D01*
X114766900Y-98497995D01*
X114857995Y-98406900D01*
X114929567Y-98299785D01*
X114978867Y-98180765D01*
X115004000Y-98054413D01*
X115004000Y-97925587D01*
X114978867Y-97799235D01*
X114935940Y-97695600D01*
X116327631Y-97695600D01*
X116350000Y-97697803D01*
X116372369Y-97695600D01*
X116372376Y-97695600D01*
X116439313Y-97689007D01*
X116525194Y-97662956D01*
X116604342Y-97620650D01*
X116673716Y-97563716D01*
X116687982Y-97546333D01*
X117866335Y-96367980D01*
X117883716Y-96353716D01*
X117940650Y-96284342D01*
X117982956Y-96205194D01*
X118009007Y-96119313D01*
X118015600Y-96052376D01*
X118015600Y-96052367D01*
X118017803Y-96030001D01*
X118015600Y-96007635D01*
X118015600Y-95873882D01*
X118172308Y-95808971D01*
X118369505Y-95677208D01*
X118537208Y-95509505D01*
X118668971Y-95312308D01*
X118759731Y-95093194D01*
X118806000Y-94860584D01*
X118806000Y-94623416D01*
X118759731Y-94390806D01*
X118668971Y-94171692D01*
X118537208Y-93974495D01*
X118454713Y-93892000D01*
X118936288Y-93892000D01*
X118936288Y-95592000D01*
X118943123Y-95661396D01*
X118963365Y-95728125D01*
X118996236Y-95789623D01*
X119040474Y-95843526D01*
X119094377Y-95887764D01*
X119155875Y-95920635D01*
X119222604Y-95940877D01*
X119292000Y-95947712D01*
X120992000Y-95947712D01*
X121061396Y-95940877D01*
X121128125Y-95920635D01*
X121189623Y-95887764D01*
X121243526Y-95843526D01*
X121287764Y-95789623D01*
X121320635Y-95728125D01*
X121340877Y-95661396D01*
X121347712Y-95592000D01*
X121347712Y-94841305D01*
X122090271Y-94841305D01*
X122090271Y-95138695D01*
X122148289Y-95430372D01*
X122262095Y-95705125D01*
X122427317Y-95952396D01*
X122637604Y-96162683D01*
X122884875Y-96327905D01*
X123159628Y-96441711D01*
X123451305Y-96499729D01*
X123748695Y-96499729D01*
X124040372Y-96441711D01*
X124315125Y-96327905D01*
X124562396Y-96162683D01*
X124772683Y-95952396D01*
X124937905Y-95705125D01*
X125051711Y-95430372D01*
X125109729Y-95138695D01*
X125109729Y-94841305D01*
X125051711Y-94549628D01*
X124937905Y-94274875D01*
X124772683Y-94027604D01*
X124562396Y-93817317D01*
X124315125Y-93652095D01*
X124040372Y-93538289D01*
X123748695Y-93480271D01*
X123451305Y-93480271D01*
X123159628Y-93538289D01*
X122884875Y-93652095D01*
X122637604Y-93817317D01*
X122427317Y-94027604D01*
X122262095Y-94274875D01*
X122148289Y-94549628D01*
X122090271Y-94841305D01*
X121347712Y-94841305D01*
X121347712Y-93892000D01*
X121340877Y-93822604D01*
X121320635Y-93755875D01*
X121287764Y-93694377D01*
X121243526Y-93640474D01*
X121189623Y-93596236D01*
X121128125Y-93563365D01*
X121061396Y-93543123D01*
X120992000Y-93536288D01*
X119292000Y-93536288D01*
X119222604Y-93543123D01*
X119155875Y-93563365D01*
X119094377Y-93596236D01*
X119040474Y-93640474D01*
X118996236Y-93694377D01*
X118963365Y-93755875D01*
X118943123Y-93822604D01*
X118936288Y-93892000D01*
X118454713Y-93892000D01*
X118369505Y-93806792D01*
X118172308Y-93675029D01*
X117953194Y-93584269D01*
X117720584Y-93538000D01*
X117483416Y-93538000D01*
X117250806Y-93584269D01*
X117031692Y-93675029D01*
X116834495Y-93806792D01*
X116666792Y-93974495D01*
X116535029Y-94171692D01*
X116444269Y-94390806D01*
X116398000Y-94623416D01*
X116398000Y-94860584D01*
X116444269Y-95093194D01*
X116535029Y-95312308D01*
X116666792Y-95509505D01*
X116834495Y-95677208D01*
X117031692Y-95808971D01*
X117104400Y-95839088D01*
X117104400Y-95841285D01*
X116161285Y-96784400D01*
X109622369Y-96784400D01*
X109600000Y-96782197D01*
X109577631Y-96784400D01*
X109577624Y-96784400D01*
X109519177Y-96790157D01*
X109510686Y-96790993D01*
X109424805Y-96817044D01*
X109397236Y-96831781D01*
X109345658Y-96859350D01*
X109312007Y-96886967D01*
X109293664Y-96902020D01*
X109293661Y-96902023D01*
X109276284Y-96916284D01*
X109262023Y-96933661D01*
X105859685Y-100336000D01*
X105785587Y-100336000D01*
X105659235Y-100361133D01*
X105540215Y-100410433D01*
X105433100Y-100482005D01*
X105342005Y-100573100D01*
X105270433Y-100680215D01*
X105221133Y-100799235D01*
X105196000Y-100925587D01*
X104606400Y-100925587D01*
X104606400Y-100908495D01*
X104607995Y-100906900D01*
X104679567Y-100799785D01*
X104728867Y-100680765D01*
X104754000Y-100554413D01*
X104754000Y-100425587D01*
X104728867Y-100299235D01*
X104679567Y-100180215D01*
X104607995Y-100073100D01*
X104516900Y-99982005D01*
X104409785Y-99910433D01*
X104290765Y-99861133D01*
X104164413Y-99836000D01*
X104035587Y-99836000D01*
X103909235Y-99861133D01*
X103790215Y-99910433D01*
X103683100Y-99982005D01*
X103592005Y-100073100D01*
X103520433Y-100180215D01*
X103471133Y-100299235D01*
X103446000Y-100425587D01*
X101979000Y-100425587D01*
X101979000Y-95008535D01*
X101995397Y-94841305D01*
X102090271Y-94841305D01*
X102090271Y-95138695D01*
X102148289Y-95430372D01*
X102262095Y-95705125D01*
X102427317Y-95952396D01*
X102637604Y-96162683D01*
X102884875Y-96327905D01*
X103159628Y-96441711D01*
X103451305Y-96499729D01*
X103748695Y-96499729D01*
X104040372Y-96441711D01*
X104315125Y-96327905D01*
X104562396Y-96162683D01*
X104772683Y-95952396D01*
X104937905Y-95705125D01*
X105051711Y-95430372D01*
X105109729Y-95138695D01*
X105109729Y-94956967D01*
X106257345Y-94956967D01*
X106322046Y-95183951D01*
X106429786Y-95393951D01*
X106576425Y-95578897D01*
X106756327Y-95731682D01*
X106962579Y-95846434D01*
X107187255Y-95918743D01*
X107227033Y-95926654D01*
X107415000Y-95857173D01*
X107415000Y-94769000D01*
X107469000Y-94769000D01*
X107469000Y-95857173D01*
X107656967Y-95926654D01*
X107696745Y-95918743D01*
X107921421Y-95846434D01*
X108127673Y-95731682D01*
X108307575Y-95578897D01*
X108454214Y-95393951D01*
X108561954Y-95183951D01*
X108626655Y-94956967D01*
X108557198Y-94769000D01*
X107469000Y-94769000D01*
X107415000Y-94769000D01*
X106326802Y-94769000D01*
X106257345Y-94956967D01*
X105109729Y-94956967D01*
X105109729Y-94841305D01*
X105051711Y-94549628D01*
X105042352Y-94527033D01*
X106257345Y-94527033D01*
X106326802Y-94715000D01*
X107415000Y-94715000D01*
X107415000Y-93626827D01*
X107469000Y-93626827D01*
X107469000Y-94715000D01*
X108557198Y-94715000D01*
X108591039Y-94623416D01*
X108778000Y-94623416D01*
X108778000Y-94860584D01*
X108824269Y-95093194D01*
X108915029Y-95312308D01*
X109046792Y-95509505D01*
X109214495Y-95677208D01*
X109411692Y-95808971D01*
X109630806Y-95899731D01*
X109863416Y-95946000D01*
X110100584Y-95946000D01*
X110333194Y-95899731D01*
X110552308Y-95808971D01*
X110749505Y-95677208D01*
X110917208Y-95509505D01*
X111048971Y-95312308D01*
X111139731Y-95093194D01*
X111186000Y-94860584D01*
X111186000Y-94623416D01*
X111318000Y-94623416D01*
X111318000Y-94860584D01*
X111364269Y-95093194D01*
X111455029Y-95312308D01*
X111586792Y-95509505D01*
X111754495Y-95677208D01*
X111951692Y-95808971D01*
X112170806Y-95899731D01*
X112403416Y-95946000D01*
X112640584Y-95946000D01*
X112873194Y-95899731D01*
X113092308Y-95808971D01*
X113289505Y-95677208D01*
X113457208Y-95509505D01*
X113588971Y-95312308D01*
X113679731Y-95093194D01*
X113726000Y-94860584D01*
X113726000Y-94623416D01*
X113858000Y-94623416D01*
X113858000Y-94860584D01*
X113904269Y-95093194D01*
X113995029Y-95312308D01*
X114126792Y-95509505D01*
X114294495Y-95677208D01*
X114491692Y-95808971D01*
X114710806Y-95899731D01*
X114943416Y-95946000D01*
X115180584Y-95946000D01*
X115413194Y-95899731D01*
X115632308Y-95808971D01*
X115829505Y-95677208D01*
X115997208Y-95509505D01*
X116128971Y-95312308D01*
X116219731Y-95093194D01*
X116266000Y-94860584D01*
X116266000Y-94623416D01*
X116219731Y-94390806D01*
X116128971Y-94171692D01*
X115997208Y-93974495D01*
X115829505Y-93806792D01*
X115632308Y-93675029D01*
X115413194Y-93584269D01*
X115180584Y-93538000D01*
X114943416Y-93538000D01*
X114710806Y-93584269D01*
X114491692Y-93675029D01*
X114294495Y-93806792D01*
X114126792Y-93974495D01*
X113995029Y-94171692D01*
X113904269Y-94390806D01*
X113858000Y-94623416D01*
X113726000Y-94623416D01*
X113679731Y-94390806D01*
X113588971Y-94171692D01*
X113457208Y-93974495D01*
X113289505Y-93806792D01*
X113092308Y-93675029D01*
X112873194Y-93584269D01*
X112640584Y-93538000D01*
X112403416Y-93538000D01*
X112170806Y-93584269D01*
X111951692Y-93675029D01*
X111754495Y-93806792D01*
X111586792Y-93974495D01*
X111455029Y-94171692D01*
X111364269Y-94390806D01*
X111318000Y-94623416D01*
X111186000Y-94623416D01*
X111139731Y-94390806D01*
X111048971Y-94171692D01*
X110917208Y-93974495D01*
X110749505Y-93806792D01*
X110552308Y-93675029D01*
X110333194Y-93584269D01*
X110100584Y-93538000D01*
X109863416Y-93538000D01*
X109630806Y-93584269D01*
X109411692Y-93675029D01*
X109214495Y-93806792D01*
X109046792Y-93974495D01*
X108915029Y-94171692D01*
X108824269Y-94390806D01*
X108778000Y-94623416D01*
X108591039Y-94623416D01*
X108626655Y-94527033D01*
X108561954Y-94300049D01*
X108454214Y-94090049D01*
X108307575Y-93905103D01*
X108127673Y-93752318D01*
X107921421Y-93637566D01*
X107696745Y-93565257D01*
X107656967Y-93557346D01*
X107469000Y-93626827D01*
X107415000Y-93626827D01*
X107227033Y-93557346D01*
X107187255Y-93565257D01*
X106962579Y-93637566D01*
X106756327Y-93752318D01*
X106576425Y-93905103D01*
X106429786Y-94090049D01*
X106322046Y-94300049D01*
X106257345Y-94527033D01*
X105042352Y-94527033D01*
X104937905Y-94274875D01*
X104772683Y-94027604D01*
X104562396Y-93817317D01*
X104315125Y-93652095D01*
X104040372Y-93538289D01*
X103748695Y-93480271D01*
X103451305Y-93480271D01*
X103159628Y-93538289D01*
X102884875Y-93652095D01*
X102637604Y-93817317D01*
X102427317Y-94027604D01*
X102262095Y-94274875D01*
X102148289Y-94549628D01*
X102090271Y-94841305D01*
X101995397Y-94841305D01*
X102011655Y-94675499D01*
X102102991Y-94372978D01*
X102251350Y-94093957D01*
X102451079Y-93849066D01*
X102694564Y-93647637D01*
X102972539Y-93497337D01*
X103274419Y-93403890D01*
X103606368Y-93369000D01*
X105118610Y-93369000D01*
X105119925Y-93368871D01*
X105123586Y-93368845D01*
X105140713Y-93367045D01*
X105157927Y-93367045D01*
X105163190Y-93366492D01*
X105454115Y-93333859D01*
X105487735Y-93326713D01*
X105521410Y-93320045D01*
X105526464Y-93318481D01*
X105526470Y-93318479D01*
X105805511Y-93229962D01*
X105837076Y-93216433D01*
X105868842Y-93203340D01*
X105873498Y-93200823D01*
X106075084Y-93090000D01*
X121122039Y-93090000D01*
X121350464Y-93211456D01*
G04 #@! TA.AperFunction,Conductor*
D25*
G36*
X121350464Y-93211456D02*
G01*
X121382219Y-93224544D01*
X121413795Y-93238078D01*
X121418851Y-93239643D01*
X121699105Y-93324257D01*
X121732801Y-93330929D01*
X121766401Y-93338071D01*
X121771664Y-93338624D01*
X122063016Y-93367191D01*
X122063024Y-93367191D01*
X122081390Y-93369000D01*
X123581465Y-93369000D01*
X123914501Y-93401655D01*
X124217022Y-93492991D01*
X124496043Y-93641350D01*
X124740934Y-93841079D01*
X124942363Y-94084564D01*
X125092663Y-94362539D01*
X125186110Y-94664419D01*
X125221001Y-94996377D01*
X125221000Y-109971465D01*
X125188345Y-110304502D01*
X125097009Y-110607022D01*
X124948651Y-110886042D01*
X124748923Y-111130932D01*
X124505436Y-111332363D01*
X124227457Y-111482665D01*
X123925582Y-111576110D01*
X123593631Y-111611000D01*
X119752966Y-111611000D01*
X119774074Y-111605072D01*
X120002014Y-111489237D01*
X120202975Y-111331159D01*
X120369236Y-111136913D01*
X120494407Y-110913964D01*
X120573677Y-110670879D01*
X120604000Y-110417000D01*
X120604000Y-109841305D01*
X122090271Y-109841305D01*
X122090271Y-110138695D01*
X122148289Y-110430372D01*
X122262095Y-110705125D01*
X122427317Y-110952396D01*
X122637604Y-111162683D01*
X122884875Y-111327905D01*
X123159628Y-111441711D01*
X123451305Y-111499729D01*
X123748695Y-111499729D01*
X124040372Y-111441711D01*
X124315125Y-111327905D01*
X124562396Y-111162683D01*
X124772683Y-110952396D01*
X124937905Y-110705125D01*
X125051711Y-110430372D01*
X125109729Y-110138695D01*
X125109729Y-109841305D01*
X125051711Y-109549628D01*
X124937905Y-109274875D01*
X124772683Y-109027604D01*
X124562396Y-108817317D01*
X124315125Y-108652095D01*
X124040372Y-108538289D01*
X123748695Y-108480271D01*
X123451305Y-108480271D01*
X123159628Y-108538289D01*
X122884875Y-108652095D01*
X122637604Y-108817317D01*
X122427317Y-109027604D01*
X122262095Y-109274875D01*
X122148289Y-109549628D01*
X122090271Y-109841305D01*
X120604000Y-109841305D01*
X120604000Y-109617000D01*
X119327000Y-109617000D01*
X119327000Y-109637000D01*
X119273000Y-109637000D01*
X119273000Y-109617000D01*
X117996000Y-109617000D01*
X117996000Y-110417000D01*
X118026323Y-110670879D01*
X118105593Y-110913964D01*
X118230764Y-111136913D01*
X118397025Y-111331159D01*
X118597986Y-111489237D01*
X118825926Y-111605072D01*
X118847034Y-111611000D01*
X108352966Y-111611000D01*
X108374074Y-111605072D01*
X108602014Y-111489237D01*
X108802975Y-111331159D01*
X108969236Y-111136913D01*
X109094407Y-110913964D01*
X109173677Y-110670879D01*
X109204000Y-110417000D01*
X109204000Y-109617000D01*
X107927000Y-109617000D01*
X107927000Y-109637000D01*
X107873000Y-109637000D01*
X107873000Y-109617000D01*
X106596000Y-109617000D01*
X106596000Y-110417000D01*
X106626323Y-110670879D01*
X106705593Y-110913964D01*
X106830764Y-111136913D01*
X106997025Y-111331159D01*
X107197986Y-111489237D01*
X107425926Y-111605072D01*
X107447034Y-111611000D01*
X103618535Y-111611000D01*
X103285498Y-111578345D01*
X102982978Y-111487009D01*
X102703958Y-111338651D01*
X102459068Y-111138923D01*
X102257637Y-110895436D01*
X102107335Y-110617457D01*
X102013890Y-110315582D01*
X101979000Y-109983631D01*
X101979000Y-109841305D01*
X102090271Y-109841305D01*
X102090271Y-110138695D01*
X102148289Y-110430372D01*
X102262095Y-110705125D01*
X102427317Y-110952396D01*
X102637604Y-111162683D01*
X102884875Y-111327905D01*
X103159628Y-111441711D01*
X103451305Y-111499729D01*
X103748695Y-111499729D01*
X104040372Y-111441711D01*
X104315125Y-111327905D01*
X104562396Y-111162683D01*
X104772683Y-110952396D01*
X104937905Y-110705125D01*
X105051711Y-110430372D01*
X105109729Y-110138695D01*
X105109729Y-109841305D01*
X105051711Y-109549628D01*
X104937905Y-109274875D01*
X104772683Y-109027604D01*
X104562396Y-108817317D01*
X104481106Y-108763000D01*
X106596000Y-108763000D01*
X106596000Y-109563000D01*
X107873000Y-109563000D01*
X107873000Y-107574800D01*
X107927000Y-107574800D01*
X107927000Y-109563000D01*
X109204000Y-109563000D01*
X109204000Y-109500964D01*
X110396000Y-109500964D01*
X110396000Y-109679036D01*
X110430740Y-109853687D01*
X110498886Y-110018205D01*
X110597817Y-110166266D01*
X110723734Y-110292183D01*
X110871795Y-110391114D01*
X111036313Y-110459260D01*
X111210964Y-110494000D01*
X111389036Y-110494000D01*
X111563687Y-110459260D01*
X111728205Y-110391114D01*
X111876266Y-110292183D01*
X112002183Y-110166266D01*
X112101114Y-110018205D01*
X112169260Y-109853687D01*
X112204000Y-109679036D01*
X112204000Y-109500964D01*
X114996000Y-109500964D01*
X114996000Y-109679036D01*
X115030740Y-109853687D01*
X115098886Y-110018205D01*
X115197817Y-110166266D01*
X115323734Y-110292183D01*
X115471795Y-110391114D01*
X115636313Y-110459260D01*
X115810964Y-110494000D01*
X115989036Y-110494000D01*
X116163687Y-110459260D01*
X116328205Y-110391114D01*
X116476266Y-110292183D01*
X116602183Y-110166266D01*
X116701114Y-110018205D01*
X116769260Y-109853687D01*
X116804000Y-109679036D01*
X116804000Y-109500964D01*
X116769260Y-109326313D01*
X116701114Y-109161795D01*
X116602183Y-109013734D01*
X116476266Y-108887817D01*
X116328205Y-108788886D01*
X116265712Y-108763000D01*
X117996000Y-108763000D01*
X117996000Y-109563000D01*
X119273000Y-109563000D01*
X119273000Y-107574800D01*
X119327000Y-107574800D01*
X119327000Y-109563000D01*
X120604000Y-109563000D01*
X120604000Y-108763000D01*
X120573677Y-108509121D01*
X120494407Y-108266036D01*
X120369236Y-108043087D01*
X120202975Y-107848841D01*
X120002014Y-107690763D01*
X119774074Y-107574928D01*
X119530614Y-107506555D01*
X119327000Y-107574800D01*
X119273000Y-107574800D01*
X119069386Y-107506555D01*
X118825926Y-107574928D01*
X118597986Y-107690763D01*
X118397025Y-107848841D01*
X118230764Y-108043087D01*
X118105593Y-108266036D01*
X118026323Y-108509121D01*
X117996000Y-108763000D01*
X116265712Y-108763000D01*
X116163687Y-108720740D01*
X115989036Y-108686000D01*
X115810964Y-108686000D01*
X115636313Y-108720740D01*
X115471795Y-108788886D01*
X115323734Y-108887817D01*
X115197817Y-109013734D01*
X115098886Y-109161795D01*
X115030740Y-109326313D01*
X114996000Y-109500964D01*
X112204000Y-109500964D01*
X112169260Y-109326313D01*
X112101114Y-109161795D01*
X112002183Y-109013734D01*
X111876266Y-108887817D01*
X111728205Y-108788886D01*
X111563687Y-108720740D01*
X111389036Y-108686000D01*
X111210964Y-108686000D01*
X111036313Y-108720740D01*
X110871795Y-108788886D01*
X110723734Y-108887817D01*
X110597817Y-109013734D01*
X110498886Y-109161795D01*
X110430740Y-109326313D01*
X110396000Y-109500964D01*
X109204000Y-109500964D01*
X109204000Y-108763000D01*
X109173677Y-108509121D01*
X109094407Y-108266036D01*
X108969236Y-108043087D01*
X108802975Y-107848841D01*
X108602014Y-107690763D01*
X108374074Y-107574928D01*
X108130614Y-107506555D01*
X107927000Y-107574800D01*
X107873000Y-107574800D01*
X107669386Y-107506555D01*
X107425926Y-107574928D01*
X107197986Y-107690763D01*
X106997025Y-107848841D01*
X106830764Y-108043087D01*
X106705593Y-108266036D01*
X106626323Y-108509121D01*
X106596000Y-108763000D01*
X104481106Y-108763000D01*
X104315125Y-108652095D01*
X104040372Y-108538289D01*
X103748695Y-108480271D01*
X103451305Y-108480271D01*
X103159628Y-108538289D01*
X102884875Y-108652095D01*
X102637604Y-108817317D01*
X102427317Y-109027604D01*
X102262095Y-109274875D01*
X102148289Y-109549628D01*
X102090271Y-109841305D01*
X101979000Y-109841305D01*
X101979000Y-100425587D01*
X103446000Y-100425587D01*
X103446000Y-100554413D01*
X103471133Y-100680765D01*
X103520433Y-100799785D01*
X103592005Y-100906900D01*
X103593600Y-100908495D01*
X103593600Y-101215133D01*
X103591151Y-101240000D01*
X103593600Y-101264866D01*
X103593600Y-101264875D01*
X103600927Y-101339271D01*
X103629884Y-101434727D01*
X103676907Y-101522702D01*
X103740189Y-101599811D01*
X103759518Y-101615674D01*
X106224331Y-104080488D01*
X106240189Y-104099811D01*
X106317298Y-104163093D01*
X106405272Y-104210116D01*
X106500728Y-104239073D01*
X106575124Y-104246400D01*
X106575134Y-104246400D01*
X106600000Y-104248849D01*
X106624866Y-104246400D01*
X118931505Y-104246400D01*
X118933100Y-104247995D01*
X119040215Y-104319567D01*
X119159235Y-104368867D01*
X119285587Y-104394000D01*
X119414413Y-104394000D01*
X119540765Y-104368867D01*
X119659785Y-104319567D01*
X119766900Y-104247995D01*
X119857995Y-104156900D01*
X119929567Y-104049785D01*
X119978867Y-103930765D01*
X120004000Y-103804413D01*
X120004000Y-103675587D01*
X119978867Y-103549235D01*
X119929567Y-103430215D01*
X119857995Y-103323100D01*
X119766900Y-103232005D01*
X119659785Y-103160433D01*
X119540765Y-103111133D01*
X119414413Y-103086000D01*
X119285587Y-103086000D01*
X119159235Y-103111133D01*
X119040215Y-103160433D01*
X118933100Y-103232005D01*
X118931505Y-103233600D01*
X106809757Y-103233600D01*
X104606400Y-101030244D01*
X104606400Y-100925587D01*
X105196000Y-100925587D01*
X105196000Y-101054413D01*
X105221133Y-101180765D01*
X105270433Y-101299785D01*
X105342005Y-101406900D01*
X105433100Y-101497995D01*
X105540215Y-101569567D01*
X105659235Y-101618867D01*
X105785587Y-101644000D01*
X105914413Y-101644000D01*
X106040765Y-101618867D01*
X106159785Y-101569567D01*
X106266900Y-101497995D01*
X106357995Y-101406900D01*
X106429567Y-101299785D01*
X106478867Y-101180765D01*
X106504000Y-101054413D01*
X106504000Y-100980315D01*
X106746626Y-100737689D01*
X106721133Y-100799235D01*
X106696000Y-100925587D01*
X106696000Y-101054413D01*
X106721133Y-101180765D01*
X106770433Y-101299785D01*
X106842005Y-101406900D01*
X106933100Y-101497995D01*
X107040215Y-101569567D01*
X107159235Y-101618867D01*
X107285587Y-101644000D01*
X107414413Y-101644000D01*
X107540765Y-101618867D01*
X107659785Y-101569567D01*
X107766900Y-101497995D01*
X107857995Y-101406900D01*
X107929567Y-101299785D01*
X107978867Y-101180765D01*
X108004000Y-101054413D01*
X108004000Y-100980315D01*
X110538716Y-98445600D01*
X113880705Y-98445600D01*
X113933100Y-98497995D01*
X114040215Y-98569567D01*
X114159235Y-98618867D01*
X114285587Y-98644000D01*
X114414413Y-98644000D01*
X114540765Y-98618867D01*
X114659785Y-98569567D01*
X114766900Y-98497995D01*
X114857995Y-98406900D01*
X114929567Y-98299785D01*
X114978867Y-98180765D01*
X115004000Y-98054413D01*
X115004000Y-97925587D01*
X114978867Y-97799235D01*
X114935940Y-97695600D01*
X116327631Y-97695600D01*
X116350000Y-97697803D01*
X116372369Y-97695600D01*
X116372376Y-97695600D01*
X116439313Y-97689007D01*
X116525194Y-97662956D01*
X116604342Y-97620650D01*
X116673716Y-97563716D01*
X116687982Y-97546333D01*
X117866335Y-96367980D01*
X117883716Y-96353716D01*
X117940650Y-96284342D01*
X117982956Y-96205194D01*
X118009007Y-96119313D01*
X118015600Y-96052376D01*
X118015600Y-96052367D01*
X118017803Y-96030001D01*
X118015600Y-96007635D01*
X118015600Y-95873882D01*
X118172308Y-95808971D01*
X118369505Y-95677208D01*
X118537208Y-95509505D01*
X118668971Y-95312308D01*
X118759731Y-95093194D01*
X118806000Y-94860584D01*
X118806000Y-94623416D01*
X118759731Y-94390806D01*
X118668971Y-94171692D01*
X118537208Y-93974495D01*
X118454713Y-93892000D01*
X118936288Y-93892000D01*
X118936288Y-95592000D01*
X118943123Y-95661396D01*
X118963365Y-95728125D01*
X118996236Y-95789623D01*
X119040474Y-95843526D01*
X119094377Y-95887764D01*
X119155875Y-95920635D01*
X119222604Y-95940877D01*
X119292000Y-95947712D01*
X120992000Y-95947712D01*
X121061396Y-95940877D01*
X121128125Y-95920635D01*
X121189623Y-95887764D01*
X121243526Y-95843526D01*
X121287764Y-95789623D01*
X121320635Y-95728125D01*
X121340877Y-95661396D01*
X121347712Y-95592000D01*
X121347712Y-94841305D01*
X122090271Y-94841305D01*
X122090271Y-95138695D01*
X122148289Y-95430372D01*
X122262095Y-95705125D01*
X122427317Y-95952396D01*
X122637604Y-96162683D01*
X122884875Y-96327905D01*
X123159628Y-96441711D01*
X123451305Y-96499729D01*
X123748695Y-96499729D01*
X124040372Y-96441711D01*
X124315125Y-96327905D01*
X124562396Y-96162683D01*
X124772683Y-95952396D01*
X124937905Y-95705125D01*
X125051711Y-95430372D01*
X125109729Y-95138695D01*
X125109729Y-94841305D01*
X125051711Y-94549628D01*
X124937905Y-94274875D01*
X124772683Y-94027604D01*
X124562396Y-93817317D01*
X124315125Y-93652095D01*
X124040372Y-93538289D01*
X123748695Y-93480271D01*
X123451305Y-93480271D01*
X123159628Y-93538289D01*
X122884875Y-93652095D01*
X122637604Y-93817317D01*
X122427317Y-94027604D01*
X122262095Y-94274875D01*
X122148289Y-94549628D01*
X122090271Y-94841305D01*
X121347712Y-94841305D01*
X121347712Y-93892000D01*
X121340877Y-93822604D01*
X121320635Y-93755875D01*
X121287764Y-93694377D01*
X121243526Y-93640474D01*
X121189623Y-93596236D01*
X121128125Y-93563365D01*
X121061396Y-93543123D01*
X120992000Y-93536288D01*
X119292000Y-93536288D01*
X119222604Y-93543123D01*
X119155875Y-93563365D01*
X119094377Y-93596236D01*
X119040474Y-93640474D01*
X118996236Y-93694377D01*
X118963365Y-93755875D01*
X118943123Y-93822604D01*
X118936288Y-93892000D01*
X118454713Y-93892000D01*
X118369505Y-93806792D01*
X118172308Y-93675029D01*
X117953194Y-93584269D01*
X117720584Y-93538000D01*
X117483416Y-93538000D01*
X117250806Y-93584269D01*
X117031692Y-93675029D01*
X116834495Y-93806792D01*
X116666792Y-93974495D01*
X116535029Y-94171692D01*
X116444269Y-94390806D01*
X116398000Y-94623416D01*
X116398000Y-94860584D01*
X116444269Y-95093194D01*
X116535029Y-95312308D01*
X116666792Y-95509505D01*
X116834495Y-95677208D01*
X117031692Y-95808971D01*
X117104400Y-95839088D01*
X117104400Y-95841285D01*
X116161285Y-96784400D01*
X109622369Y-96784400D01*
X109600000Y-96782197D01*
X109577631Y-96784400D01*
X109577624Y-96784400D01*
X109519177Y-96790157D01*
X109510686Y-96790993D01*
X109424805Y-96817044D01*
X109397236Y-96831781D01*
X109345658Y-96859350D01*
X109312007Y-96886967D01*
X109293664Y-96902020D01*
X109293661Y-96902023D01*
X109276284Y-96916284D01*
X109262023Y-96933661D01*
X105859685Y-100336000D01*
X105785587Y-100336000D01*
X105659235Y-100361133D01*
X105540215Y-100410433D01*
X105433100Y-100482005D01*
X105342005Y-100573100D01*
X105270433Y-100680215D01*
X105221133Y-100799235D01*
X105196000Y-100925587D01*
X104606400Y-100925587D01*
X104606400Y-100908495D01*
X104607995Y-100906900D01*
X104679567Y-100799785D01*
X104728867Y-100680765D01*
X104754000Y-100554413D01*
X104754000Y-100425587D01*
X104728867Y-100299235D01*
X104679567Y-100180215D01*
X104607995Y-100073100D01*
X104516900Y-99982005D01*
X104409785Y-99910433D01*
X104290765Y-99861133D01*
X104164413Y-99836000D01*
X104035587Y-99836000D01*
X103909235Y-99861133D01*
X103790215Y-99910433D01*
X103683100Y-99982005D01*
X103592005Y-100073100D01*
X103520433Y-100180215D01*
X103471133Y-100299235D01*
X103446000Y-100425587D01*
X101979000Y-100425587D01*
X101979000Y-95008535D01*
X101995397Y-94841305D01*
X102090271Y-94841305D01*
X102090271Y-95138695D01*
X102148289Y-95430372D01*
X102262095Y-95705125D01*
X102427317Y-95952396D01*
X102637604Y-96162683D01*
X102884875Y-96327905D01*
X103159628Y-96441711D01*
X103451305Y-96499729D01*
X103748695Y-96499729D01*
X104040372Y-96441711D01*
X104315125Y-96327905D01*
X104562396Y-96162683D01*
X104772683Y-95952396D01*
X104937905Y-95705125D01*
X105051711Y-95430372D01*
X105109729Y-95138695D01*
X105109729Y-94956967D01*
X106257345Y-94956967D01*
X106322046Y-95183951D01*
X106429786Y-95393951D01*
X106576425Y-95578897D01*
X106756327Y-95731682D01*
X106962579Y-95846434D01*
X107187255Y-95918743D01*
X107227033Y-95926654D01*
X107415000Y-95857173D01*
X107415000Y-94769000D01*
X107469000Y-94769000D01*
X107469000Y-95857173D01*
X107656967Y-95926654D01*
X107696745Y-95918743D01*
X107921421Y-95846434D01*
X108127673Y-95731682D01*
X108307575Y-95578897D01*
X108454214Y-95393951D01*
X108561954Y-95183951D01*
X108626655Y-94956967D01*
X108557198Y-94769000D01*
X107469000Y-94769000D01*
X107415000Y-94769000D01*
X106326802Y-94769000D01*
X106257345Y-94956967D01*
X105109729Y-94956967D01*
X105109729Y-94841305D01*
X105051711Y-94549628D01*
X105042352Y-94527033D01*
X106257345Y-94527033D01*
X106326802Y-94715000D01*
X107415000Y-94715000D01*
X107415000Y-93626827D01*
X107469000Y-93626827D01*
X107469000Y-94715000D01*
X108557198Y-94715000D01*
X108591039Y-94623416D01*
X108778000Y-94623416D01*
X108778000Y-94860584D01*
X108824269Y-95093194D01*
X108915029Y-95312308D01*
X109046792Y-95509505D01*
X109214495Y-95677208D01*
X109411692Y-95808971D01*
X109630806Y-95899731D01*
X109863416Y-95946000D01*
X110100584Y-95946000D01*
X110333194Y-95899731D01*
X110552308Y-95808971D01*
X110749505Y-95677208D01*
X110917208Y-95509505D01*
X111048971Y-95312308D01*
X111139731Y-95093194D01*
X111186000Y-94860584D01*
X111186000Y-94623416D01*
X111318000Y-94623416D01*
X111318000Y-94860584D01*
X111364269Y-95093194D01*
X111455029Y-95312308D01*
X111586792Y-95509505D01*
X111754495Y-95677208D01*
X111951692Y-95808971D01*
X112170806Y-95899731D01*
X112403416Y-95946000D01*
X112640584Y-95946000D01*
X112873194Y-95899731D01*
X113092308Y-95808971D01*
X113289505Y-95677208D01*
X113457208Y-95509505D01*
X113588971Y-95312308D01*
X113679731Y-95093194D01*
X113726000Y-94860584D01*
X113726000Y-94623416D01*
X113858000Y-94623416D01*
X113858000Y-94860584D01*
X113904269Y-95093194D01*
X113995029Y-95312308D01*
X114126792Y-95509505D01*
X114294495Y-95677208D01*
X114491692Y-95808971D01*
X114710806Y-95899731D01*
X114943416Y-95946000D01*
X115180584Y-95946000D01*
X115413194Y-95899731D01*
X115632308Y-95808971D01*
X115829505Y-95677208D01*
X115997208Y-95509505D01*
X116128971Y-95312308D01*
X116219731Y-95093194D01*
X116266000Y-94860584D01*
X116266000Y-94623416D01*
X116219731Y-94390806D01*
X116128971Y-94171692D01*
X115997208Y-93974495D01*
X115829505Y-93806792D01*
X115632308Y-93675029D01*
X115413194Y-93584269D01*
X115180584Y-93538000D01*
X114943416Y-93538000D01*
X114710806Y-93584269D01*
X114491692Y-93675029D01*
X114294495Y-93806792D01*
X114126792Y-93974495D01*
X113995029Y-94171692D01*
X113904269Y-94390806D01*
X113858000Y-94623416D01*
X113726000Y-94623416D01*
X113679731Y-94390806D01*
X113588971Y-94171692D01*
X113457208Y-93974495D01*
X113289505Y-93806792D01*
X113092308Y-93675029D01*
X112873194Y-93584269D01*
X112640584Y-93538000D01*
X112403416Y-93538000D01*
X112170806Y-93584269D01*
X111951692Y-93675029D01*
X111754495Y-93806792D01*
X111586792Y-93974495D01*
X111455029Y-94171692D01*
X111364269Y-94390806D01*
X111318000Y-94623416D01*
X111186000Y-94623416D01*
X111139731Y-94390806D01*
X111048971Y-94171692D01*
X110917208Y-93974495D01*
X110749505Y-93806792D01*
X110552308Y-93675029D01*
X110333194Y-93584269D01*
X110100584Y-93538000D01*
X109863416Y-93538000D01*
X109630806Y-93584269D01*
X109411692Y-93675029D01*
X109214495Y-93806792D01*
X109046792Y-93974495D01*
X108915029Y-94171692D01*
X108824269Y-94390806D01*
X108778000Y-94623416D01*
X108591039Y-94623416D01*
X108626655Y-94527033D01*
X108561954Y-94300049D01*
X108454214Y-94090049D01*
X108307575Y-93905103D01*
X108127673Y-93752318D01*
X107921421Y-93637566D01*
X107696745Y-93565257D01*
X107656967Y-93557346D01*
X107469000Y-93626827D01*
X107415000Y-93626827D01*
X107227033Y-93557346D01*
X107187255Y-93565257D01*
X106962579Y-93637566D01*
X106756327Y-93752318D01*
X106576425Y-93905103D01*
X106429786Y-94090049D01*
X106322046Y-94300049D01*
X106257345Y-94527033D01*
X105042352Y-94527033D01*
X104937905Y-94274875D01*
X104772683Y-94027604D01*
X104562396Y-93817317D01*
X104315125Y-93652095D01*
X104040372Y-93538289D01*
X103748695Y-93480271D01*
X103451305Y-93480271D01*
X103159628Y-93538289D01*
X102884875Y-93652095D01*
X102637604Y-93817317D01*
X102427317Y-94027604D01*
X102262095Y-94274875D01*
X102148289Y-94549628D01*
X102090271Y-94841305D01*
X101995397Y-94841305D01*
X102011655Y-94675499D01*
X102102991Y-94372978D01*
X102251350Y-94093957D01*
X102451079Y-93849066D01*
X102694564Y-93647637D01*
X102972539Y-93497337D01*
X103274419Y-93403890D01*
X103606368Y-93369000D01*
X105118610Y-93369000D01*
X105119925Y-93368871D01*
X105123586Y-93368845D01*
X105140713Y-93367045D01*
X105157927Y-93367045D01*
X105163190Y-93366492D01*
X105454115Y-93333859D01*
X105487735Y-93326713D01*
X105521410Y-93320045D01*
X105526464Y-93318481D01*
X105526470Y-93318479D01*
X105805511Y-93229962D01*
X105837076Y-93216433D01*
X105868842Y-93203340D01*
X105873498Y-93200823D01*
X106075084Y-93090000D01*
X121122039Y-93090000D01*
X121350464Y-93211456D01*
G37*
G04 #@! TD.AperFunction*
D24*
X125221000Y-44971390D02*
X125221000Y-44971391D01*
X125221001Y-87971455D01*
X125188345Y-88304502D01*
X125097009Y-88607022D01*
X124948651Y-88886042D01*
X124748923Y-89130932D01*
X124505436Y-89332363D01*
X124227457Y-89482665D01*
X123925582Y-89576110D01*
X123593631Y-89611000D01*
X122081390Y-89611000D01*
X122080075Y-89611129D01*
X122076415Y-89611155D01*
X122059287Y-89612955D01*
X122042072Y-89612955D01*
X122036809Y-89613508D01*
X121745885Y-89646141D01*
X121712272Y-89653286D01*
X121678589Y-89659955D01*
X121673536Y-89661519D01*
X121673530Y-89661521D01*
X121394489Y-89750038D01*
X121362926Y-89763566D01*
X121331157Y-89776660D01*
X121326502Y-89779177D01*
X121124916Y-89890000D01*
X106077961Y-89890000D01*
X105849536Y-89768544D01*
X105817794Y-89755461D01*
X105786205Y-89741922D01*
X105781150Y-89740357D01*
X105500895Y-89655743D01*
X105467199Y-89649071D01*
X105433599Y-89641929D01*
X105428337Y-89641376D01*
X105428335Y-89641376D01*
X105136984Y-89612809D01*
X105136976Y-89612809D01*
X105118610Y-89611000D01*
X103618535Y-89611000D01*
X103285498Y-89578345D01*
X102982978Y-89487009D01*
X102703958Y-89338651D01*
X102459068Y-89138923D01*
X102257637Y-88895436D01*
X102107335Y-88617457D01*
X102013890Y-88315582D01*
X101979000Y-87983631D01*
X101979000Y-78286341D01*
X102226000Y-78286341D01*
X102226000Y-78513659D01*
X102270347Y-78736609D01*
X102357338Y-78946624D01*
X102483629Y-79135632D01*
X102644368Y-79296371D01*
X102833376Y-79422662D01*
X103043391Y-79509653D01*
X103266341Y-79554000D01*
X103493659Y-79554000D01*
X103716609Y-79509653D01*
X103807634Y-79471949D01*
X104644401Y-80308716D01*
X104644401Y-81560086D01*
X104451949Y-81367634D01*
X104489653Y-81276609D01*
X104534000Y-81053659D01*
X104534000Y-80826341D01*
X104489653Y-80603391D01*
X104402662Y-80393376D01*
X104276371Y-80204368D01*
X104115632Y-80043629D01*
X103926624Y-79917338D01*
X103716609Y-79830347D01*
X103493659Y-79786000D01*
X103266341Y-79786000D01*
X103043391Y-79830347D01*
X102833376Y-79917338D01*
X102644368Y-80043629D01*
X102483629Y-80204368D01*
X102357338Y-80393376D01*
X102270347Y-80603391D01*
X102226000Y-80826341D01*
X102226000Y-81053659D01*
X102270347Y-81276609D01*
X102357338Y-81486624D01*
X102483629Y-81675632D01*
X102644368Y-81836371D01*
X102833376Y-81962662D01*
X103043391Y-82049653D01*
X103266341Y-82094000D01*
X103493659Y-82094000D01*
X103716609Y-82049653D01*
X103807634Y-82011949D01*
X104314190Y-82518505D01*
X104314190Y-82800968D01*
X104276371Y-82744368D01*
X104115632Y-82583629D01*
X103926624Y-82457338D01*
X103716609Y-82370347D01*
X103493659Y-82326000D01*
X103266341Y-82326000D01*
X103043391Y-82370347D01*
X102833376Y-82457338D01*
X102644368Y-82583629D01*
X102483629Y-82744368D01*
X102357338Y-82933376D01*
X102270347Y-83143391D01*
X102226000Y-83366341D01*
X102226000Y-83593659D01*
X102270347Y-83816609D01*
X102357338Y-84026624D01*
X102483629Y-84215632D01*
X102644368Y-84376371D01*
X102833376Y-84502662D01*
X103043391Y-84589653D01*
X103266341Y-84634000D01*
X103493659Y-84634000D01*
X103716609Y-84589653D01*
X103926624Y-84502662D01*
X104115632Y-84376371D01*
X104276371Y-84215632D01*
X104314189Y-84159033D01*
X104314189Y-85237420D01*
X104311986Y-85259789D01*
X104314189Y-85282158D01*
X104314189Y-85282164D01*
X104320782Y-85349101D01*
X104346833Y-85434982D01*
X104389139Y-85514130D01*
X104446073Y-85583505D01*
X104463456Y-85597771D01*
X105646000Y-86780315D01*
X105646000Y-86854413D01*
X105671133Y-86980765D01*
X105720433Y-87099785D01*
X105792005Y-87206900D01*
X105883100Y-87297995D01*
X105990215Y-87369567D01*
X106109235Y-87418867D01*
X106235587Y-87444000D01*
X106364413Y-87444000D01*
X106471973Y-87422605D01*
X106375029Y-87567692D01*
X106284269Y-87786806D01*
X106238000Y-88019416D01*
X106238000Y-88256584D01*
X106284269Y-88489194D01*
X106375029Y-88708308D01*
X106506792Y-88905505D01*
X106674495Y-89073208D01*
X106871692Y-89204971D01*
X107090806Y-89295731D01*
X107323416Y-89342000D01*
X107560584Y-89342000D01*
X107793194Y-89295731D01*
X108012308Y-89204971D01*
X108209505Y-89073208D01*
X108377208Y-88905505D01*
X108508971Y-88708308D01*
X108599731Y-88489194D01*
X108646000Y-88256584D01*
X108646000Y-88019416D01*
X108778000Y-88019416D01*
X108778000Y-88256584D01*
X108824269Y-88489194D01*
X108915029Y-88708308D01*
X109046792Y-88905505D01*
X109214495Y-89073208D01*
X109411692Y-89204971D01*
X109630806Y-89295731D01*
X109863416Y-89342000D01*
X110100584Y-89342000D01*
X110333194Y-89295731D01*
X110552308Y-89204971D01*
X110749505Y-89073208D01*
X110917208Y-88905505D01*
X111048971Y-88708308D01*
X111139731Y-88489194D01*
X111186000Y-88256584D01*
X111186000Y-88019416D01*
X111139731Y-87786806D01*
X111048971Y-87567692D01*
X110917208Y-87370495D01*
X110749505Y-87202792D01*
X110552308Y-87071029D01*
X110395600Y-87006118D01*
X110395600Y-86549915D01*
X111442829Y-87597145D01*
X111364269Y-87786806D01*
X111318000Y-88019416D01*
X111318000Y-88256584D01*
X111364269Y-88489194D01*
X111455029Y-88708308D01*
X111586792Y-88905505D01*
X111754495Y-89073208D01*
X111951692Y-89204971D01*
X112170806Y-89295731D01*
X112403416Y-89342000D01*
X112640584Y-89342000D01*
X112873194Y-89295731D01*
X113092308Y-89204971D01*
X113289505Y-89073208D01*
X113457208Y-88905505D01*
X113588971Y-88708308D01*
X113679731Y-88489194D01*
X113726000Y-88256584D01*
X113726000Y-88019416D01*
X113858000Y-88019416D01*
X113858000Y-88256584D01*
X113904269Y-88489194D01*
X113995029Y-88708308D01*
X114126792Y-88905505D01*
X114294495Y-89073208D01*
X114491692Y-89204971D01*
X114710806Y-89295731D01*
X114943416Y-89342000D01*
X115180584Y-89342000D01*
X115413194Y-89295731D01*
X115632308Y-89204971D01*
X115829505Y-89073208D01*
X115997208Y-88905505D01*
X116128971Y-88708308D01*
X116219731Y-88489194D01*
X116266000Y-88256584D01*
X116266000Y-88019416D01*
X116398000Y-88019416D01*
X116398000Y-88256584D01*
X116444269Y-88489194D01*
X116535029Y-88708308D01*
X116666792Y-88905505D01*
X116834495Y-89073208D01*
X117031692Y-89204971D01*
X117250806Y-89295731D01*
X117483416Y-89342000D01*
X117720584Y-89342000D01*
X117953194Y-89295731D01*
X118172308Y-89204971D01*
X118369505Y-89073208D01*
X118537208Y-88905505D01*
X118668971Y-88708308D01*
X118759731Y-88489194D01*
X118806000Y-88256584D01*
X118806000Y-88019416D01*
X118759731Y-87786806D01*
X118668971Y-87567692D01*
X118637621Y-87520773D01*
X118944575Y-87213819D01*
X118943123Y-87218604D01*
X118936288Y-87288000D01*
X118936288Y-88988000D01*
X118943123Y-89057396D01*
X118963365Y-89124125D01*
X118996236Y-89185623D01*
X119040474Y-89239526D01*
X119094377Y-89283764D01*
X119155875Y-89316635D01*
X119222604Y-89336877D01*
X119292000Y-89343712D01*
X120992000Y-89343712D01*
X121061396Y-89336877D01*
X121128125Y-89316635D01*
X121189623Y-89283764D01*
X121243526Y-89239526D01*
X121287764Y-89185623D01*
X121320635Y-89124125D01*
X121340877Y-89057396D01*
X121347712Y-88988000D01*
X121347712Y-87288000D01*
X121340877Y-87218604D01*
X121320635Y-87151875D01*
X121287764Y-87090377D01*
X121243526Y-87036474D01*
X121189623Y-86992236D01*
X121128125Y-86959365D01*
X121061396Y-86939123D01*
X120992000Y-86932288D01*
X119292000Y-86932288D01*
X119222604Y-86939123D01*
X119217819Y-86940574D01*
X120238194Y-85920200D01*
X120705305Y-85920200D01*
X120783100Y-85997995D01*
X120890215Y-86069567D01*
X121009235Y-86118867D01*
X121135587Y-86144000D01*
X121264413Y-86144000D01*
X121390765Y-86118867D01*
X121509785Y-86069567D01*
X121616900Y-85997995D01*
X121707995Y-85906900D01*
X121779567Y-85799785D01*
X121828867Y-85680765D01*
X121854000Y-85554413D01*
X121854000Y-85425587D01*
X121828867Y-85299235D01*
X121779567Y-85180215D01*
X121707995Y-85073100D01*
X121616900Y-84982005D01*
X121509785Y-84910433D01*
X121390765Y-84861133D01*
X121264413Y-84836000D01*
X121135587Y-84836000D01*
X121009235Y-84861133D01*
X120890215Y-84910433D01*
X120783100Y-84982005D01*
X120705305Y-85059800D01*
X120081127Y-85059800D01*
X120060000Y-85057719D01*
X120038873Y-85059800D01*
X120038871Y-85059800D01*
X119975666Y-85066025D01*
X119894573Y-85090624D01*
X119819838Y-85130571D01*
X119754331Y-85184331D01*
X119740858Y-85200748D01*
X117958952Y-86982654D01*
X117953194Y-86980269D01*
X117720584Y-86934000D01*
X117483416Y-86934000D01*
X117250806Y-86980269D01*
X117031692Y-87071029D01*
X116834495Y-87202792D01*
X116666792Y-87370495D01*
X116535029Y-87567692D01*
X116444269Y-87786806D01*
X116398000Y-88019416D01*
X116266000Y-88019416D01*
X116219731Y-87786806D01*
X116128971Y-87567692D01*
X115997208Y-87370495D01*
X115829505Y-87202792D01*
X115632308Y-87071029D01*
X115413194Y-86980269D01*
X115180584Y-86934000D01*
X114943416Y-86934000D01*
X114710806Y-86980269D01*
X114491692Y-87071029D01*
X114294495Y-87202792D01*
X114126792Y-87370495D01*
X113995029Y-87567692D01*
X113904269Y-87786806D01*
X113858000Y-88019416D01*
X113726000Y-88019416D01*
X113679731Y-87786806D01*
X113588971Y-87567692D01*
X113457208Y-87370495D01*
X113289505Y-87202792D01*
X113092308Y-87071029D01*
X112873194Y-86980269D01*
X112640584Y-86934000D01*
X112403416Y-86934000D01*
X112170806Y-86980269D01*
X112131052Y-86996736D01*
X110805600Y-85671285D01*
X110805600Y-75928715D01*
X111937980Y-74796336D01*
X111937985Y-74796330D01*
X114406339Y-72327977D01*
X114423716Y-72313716D01*
X114437977Y-72296339D01*
X114437980Y-72296336D01*
X114480649Y-72244343D01*
X114480650Y-72244342D01*
X114522956Y-72165194D01*
X114549007Y-72079313D01*
X114555600Y-72012376D01*
X114555600Y-72012369D01*
X114557803Y-71990000D01*
X114555600Y-71967631D01*
X114555600Y-71959295D01*
X114607995Y-71906900D01*
X114679567Y-71799785D01*
X114728867Y-71680765D01*
X114754000Y-71554413D01*
X114754000Y-71425587D01*
X114728867Y-71299235D01*
X114679567Y-71180215D01*
X114607995Y-71073100D01*
X114516900Y-70982005D01*
X114409785Y-70910433D01*
X114290765Y-70861133D01*
X114164413Y-70836000D01*
X114035587Y-70836000D01*
X113909235Y-70861133D01*
X113790215Y-70910433D01*
X113683100Y-70982005D01*
X113592005Y-71073100D01*
X113520433Y-71180215D01*
X113471133Y-71299235D01*
X113446000Y-71425587D01*
X113446000Y-71554413D01*
X113471133Y-71680765D01*
X113520433Y-71799785D01*
X113570688Y-71874996D01*
X111293670Y-74152015D01*
X111293664Y-74152020D01*
X111004000Y-74441684D01*
X111004000Y-74425587D01*
X110978867Y-74299235D01*
X110929567Y-74180215D01*
X110857995Y-74073100D01*
X110766900Y-73982005D01*
X110659785Y-73910433D01*
X110540765Y-73861133D01*
X110414413Y-73836000D01*
X110285587Y-73836000D01*
X110159235Y-73861133D01*
X110040215Y-73910433D01*
X109933100Y-73982005D01*
X109842005Y-74073100D01*
X109770433Y-74180215D01*
X109721133Y-74299235D01*
X109696000Y-74425587D01*
X109696000Y-74499685D01*
X109633666Y-74562019D01*
X109616284Y-74576284D01*
X109559350Y-74645659D01*
X109517044Y-74724807D01*
X109509297Y-74750347D01*
X109495347Y-74796336D01*
X109490993Y-74810688D01*
X109484400Y-74877625D01*
X109484400Y-74877631D01*
X109482197Y-74900000D01*
X109484400Y-74922369D01*
X109484401Y-87040912D01*
X109411692Y-87071029D01*
X109214495Y-87202792D01*
X109046792Y-87370495D01*
X108915029Y-87567692D01*
X108824269Y-87786806D01*
X108778000Y-88019416D01*
X108646000Y-88019416D01*
X108599731Y-87786806D01*
X108508971Y-87567692D01*
X108377208Y-87370495D01*
X108209505Y-87202792D01*
X108012308Y-87071029D01*
X107793194Y-86980269D01*
X107560584Y-86934000D01*
X107323416Y-86934000D01*
X107090806Y-86980269D01*
X106895576Y-87061136D01*
X106928867Y-86980765D01*
X106954000Y-86854413D01*
X106954000Y-86725587D01*
X106928867Y-86599235D01*
X106922038Y-86582749D01*
X107009235Y-86618867D01*
X107135587Y-86644000D01*
X107264413Y-86644000D01*
X107390765Y-86618867D01*
X107509785Y-86569567D01*
X107616900Y-86497995D01*
X107707995Y-86406900D01*
X107779567Y-86299785D01*
X107828867Y-86180765D01*
X107854000Y-86054413D01*
X107854000Y-85925587D01*
X107828867Y-85799235D01*
X107779567Y-85680215D01*
X107707995Y-85573100D01*
X107616900Y-85482005D01*
X107509785Y-85410433D01*
X107390765Y-85361133D01*
X107264413Y-85336000D01*
X107135587Y-85336000D01*
X107009235Y-85361133D01*
X106890215Y-85410433D01*
X106783100Y-85482005D01*
X106730705Y-85534400D01*
X106188715Y-85534400D01*
X105555600Y-84901285D01*
X105555600Y-80142366D01*
X105557803Y-80119999D01*
X105555600Y-80097633D01*
X105555600Y-80097624D01*
X105549007Y-80030687D01*
X105522956Y-79944806D01*
X105480650Y-79865658D01*
X105423716Y-79796284D01*
X105406333Y-79782018D01*
X104451949Y-78827634D01*
X104489653Y-78736609D01*
X104534000Y-78513659D01*
X104534000Y-78286341D01*
X104489653Y-78063391D01*
X104402662Y-77853376D01*
X104276371Y-77664368D01*
X104115632Y-77503629D01*
X103926624Y-77377338D01*
X103716609Y-77290347D01*
X103493659Y-77246000D01*
X103266341Y-77246000D01*
X103043391Y-77290347D01*
X102833376Y-77377338D01*
X102644368Y-77503629D01*
X102483629Y-77664368D01*
X102357338Y-77853376D01*
X102270347Y-78063391D01*
X102226000Y-78286341D01*
X101979000Y-78286341D01*
X101979000Y-75746341D01*
X102226000Y-75746341D01*
X102226000Y-75973659D01*
X102270347Y-76196609D01*
X102357338Y-76406624D01*
X102483629Y-76595632D01*
X102644368Y-76756371D01*
X102833376Y-76882662D01*
X103043391Y-76969653D01*
X103266341Y-77014000D01*
X103493659Y-77014000D01*
X103716609Y-76969653D01*
X103926624Y-76882662D01*
X104115632Y-76756371D01*
X104276371Y-76595632D01*
X104402662Y-76406624D01*
X104489653Y-76196609D01*
X104534000Y-75973659D01*
X104534000Y-75746341D01*
X104489653Y-75523391D01*
X104402662Y-75313376D01*
X104276371Y-75124368D01*
X104115632Y-74963629D01*
X103926624Y-74837338D01*
X103716609Y-74750347D01*
X103493659Y-74706000D01*
X103266341Y-74706000D01*
X103043391Y-74750347D01*
X102833376Y-74837338D01*
X102644368Y-74963629D01*
X102483629Y-75124368D01*
X102357338Y-75313376D01*
X102270347Y-75523391D01*
X102226000Y-75746341D01*
X101979000Y-75746341D01*
X101979000Y-73206341D01*
X102226000Y-73206341D01*
X102226000Y-73433659D01*
X102270347Y-73656609D01*
X102357338Y-73866624D01*
X102483629Y-74055632D01*
X102644368Y-74216371D01*
X102833376Y-74342662D01*
X103043391Y-74429653D01*
X103266341Y-74474000D01*
X103493659Y-74474000D01*
X103716609Y-74429653D01*
X103926624Y-74342662D01*
X104115632Y-74216371D01*
X104276371Y-74055632D01*
X104402662Y-73866624D01*
X104489653Y-73656609D01*
X104534000Y-73433659D01*
X104534000Y-73206341D01*
X104489653Y-72983391D01*
X104402662Y-72773376D01*
X104276371Y-72584368D01*
X104115632Y-72423629D01*
X103926624Y-72297338D01*
X103716609Y-72210347D01*
X103493659Y-72166000D01*
X103266341Y-72166000D01*
X103043391Y-72210347D01*
X102833376Y-72297338D01*
X102644368Y-72423629D01*
X102483629Y-72584368D01*
X102357338Y-72773376D01*
X102270347Y-72983391D01*
X102226000Y-73206341D01*
X101979000Y-73206341D01*
X101979000Y-70666341D01*
X102226000Y-70666341D01*
X102226000Y-70893659D01*
X102270347Y-71116609D01*
X102357338Y-71326624D01*
X102483629Y-71515632D01*
X102644368Y-71676371D01*
X102833376Y-71802662D01*
X103043391Y-71889653D01*
X103266341Y-71934000D01*
X103493659Y-71934000D01*
X103716609Y-71889653D01*
X103926624Y-71802662D01*
X104115632Y-71676371D01*
X104276371Y-71515632D01*
X104402662Y-71326624D01*
X104489653Y-71116609D01*
X104534000Y-70893659D01*
X104534000Y-70666341D01*
X104489653Y-70443391D01*
X104402662Y-70233376D01*
X104276371Y-70044368D01*
X104115632Y-69883629D01*
X103926624Y-69757338D01*
X103716609Y-69670347D01*
X103493659Y-69626000D01*
X103266341Y-69626000D01*
X103043391Y-69670347D01*
X102833376Y-69757338D01*
X102644368Y-69883629D01*
X102483629Y-70044368D01*
X102357338Y-70233376D01*
X102270347Y-70443391D01*
X102226000Y-70666341D01*
X101979000Y-70666341D01*
X101979000Y-48696222D01*
X102641962Y-48696222D01*
X102720441Y-48873739D01*
X102919180Y-48984087D01*
X103135627Y-49053542D01*
X103361466Y-49079437D01*
X103588017Y-49060774D01*
X103806573Y-48998273D01*
X104008738Y-48894334D01*
X104039559Y-48873739D01*
X104118038Y-48696222D01*
X103380000Y-47958184D01*
X102641962Y-48696222D01*
X101979000Y-48696222D01*
X101979000Y-47901466D01*
X102220563Y-47901466D01*
X102239226Y-48128017D01*
X102301727Y-48346573D01*
X102405666Y-48548738D01*
X102426261Y-48579559D01*
X102603778Y-48658038D01*
X103341816Y-47920000D01*
X102603778Y-47181962D01*
X102426261Y-47260441D01*
X102315913Y-47459180D01*
X102246458Y-47675627D01*
X102220563Y-47901466D01*
X101979000Y-47901466D01*
X101979000Y-47143778D01*
X102641962Y-47143778D01*
X103380000Y-47881816D01*
X104118038Y-47143778D01*
X104039559Y-46966261D01*
X103840820Y-46855913D01*
X103624373Y-46786458D01*
X103398534Y-46760563D01*
X103171983Y-46779226D01*
X102953427Y-46841727D01*
X102751262Y-46945666D01*
X102720441Y-46966261D01*
X102641962Y-47143778D01*
X101979000Y-47143778D01*
X101979000Y-44580000D01*
X102224288Y-44580000D01*
X102224288Y-46180000D01*
X102231123Y-46249396D01*
X102251365Y-46316125D01*
X102284236Y-46377623D01*
X102328474Y-46431526D01*
X102382377Y-46475764D01*
X102443875Y-46508635D01*
X102510604Y-46528877D01*
X102580000Y-46535712D01*
X104180000Y-46535712D01*
X104249396Y-46528877D01*
X104316125Y-46508635D01*
X104377623Y-46475764D01*
X104431526Y-46431526D01*
X104444401Y-46415839D01*
X104444400Y-47466444D01*
X104354334Y-47291262D01*
X104333739Y-47260441D01*
X104156222Y-47181962D01*
X103418184Y-47920000D01*
X104156222Y-48658038D01*
X104333739Y-48579559D01*
X104444087Y-48380820D01*
X104444400Y-48379843D01*
X104444400Y-50014141D01*
X104402662Y-49913376D01*
X104276371Y-49724368D01*
X104115632Y-49563629D01*
X103926624Y-49437338D01*
X103716609Y-49350347D01*
X103493659Y-49306000D01*
X103266341Y-49306000D01*
X103043391Y-49350347D01*
X102833376Y-49437338D01*
X102644368Y-49563629D01*
X102483629Y-49724368D01*
X102357338Y-49913376D01*
X102270347Y-50123391D01*
X102226000Y-50346341D01*
X102226000Y-50573659D01*
X102270347Y-50796609D01*
X102357338Y-51006624D01*
X102483629Y-51195632D01*
X102644368Y-51356371D01*
X102833376Y-51482662D01*
X103043391Y-51569653D01*
X103266341Y-51614000D01*
X103493659Y-51614000D01*
X103716609Y-51569653D01*
X103926624Y-51482662D01*
X104115632Y-51356371D01*
X104276371Y-51195632D01*
X104402662Y-51006624D01*
X104444400Y-50905859D01*
X104444400Y-52554141D01*
X104402662Y-52453376D01*
X104276371Y-52264368D01*
X104115632Y-52103629D01*
X103926624Y-51977338D01*
X103716609Y-51890347D01*
X103493659Y-51846000D01*
X103266341Y-51846000D01*
X103043391Y-51890347D01*
X102833376Y-51977338D01*
X102644368Y-52103629D01*
X102483629Y-52264368D01*
X102357338Y-52453376D01*
X102270347Y-52663391D01*
X102226000Y-52886341D01*
X102226000Y-53113659D01*
X102270347Y-53336609D01*
X102357338Y-53546624D01*
X102483629Y-53735632D01*
X102644368Y-53896371D01*
X102833376Y-54022662D01*
X103043391Y-54109653D01*
X103266341Y-54154000D01*
X103493659Y-54154000D01*
X103716609Y-54109653D01*
X103926624Y-54022662D01*
X104115632Y-53896371D01*
X104276371Y-53735632D01*
X104402662Y-53546624D01*
X104444400Y-53445859D01*
X104444400Y-53831284D01*
X103807634Y-54468051D01*
X103716609Y-54430347D01*
X103493659Y-54386000D01*
X103266341Y-54386000D01*
X103043391Y-54430347D01*
X102833376Y-54517338D01*
X102644368Y-54643629D01*
X102483629Y-54804368D01*
X102357338Y-54993376D01*
X102270347Y-55203391D01*
X102226000Y-55426341D01*
X102226000Y-55653659D01*
X102270347Y-55876609D01*
X102357338Y-56086624D01*
X102483629Y-56275632D01*
X102644368Y-56436371D01*
X102833376Y-56562662D01*
X103043391Y-56649653D01*
X103266341Y-56694000D01*
X103493659Y-56694000D01*
X103716609Y-56649653D01*
X103926624Y-56562662D01*
X104115632Y-56436371D01*
X104276371Y-56275632D01*
X104402662Y-56086624D01*
X104489653Y-55876609D01*
X104534000Y-55653659D01*
X104534000Y-55426341D01*
X104489653Y-55203391D01*
X104451949Y-55112366D01*
X104774610Y-54789706D01*
X104774610Y-56041074D01*
X103807634Y-57008051D01*
X103716609Y-56970347D01*
X103493659Y-56926000D01*
X103266341Y-56926000D01*
X103043391Y-56970347D01*
X102833376Y-57057338D01*
X102644368Y-57183629D01*
X102483629Y-57344368D01*
X102357338Y-57533376D01*
X102270347Y-57743391D01*
X102226000Y-57966341D01*
X102226000Y-58193659D01*
X102270347Y-58416609D01*
X102357338Y-58626624D01*
X102483629Y-58815632D01*
X102644368Y-58976371D01*
X102833376Y-59102662D01*
X103043391Y-59189653D01*
X103266341Y-59234000D01*
X103493659Y-59234000D01*
X103716609Y-59189653D01*
X103926624Y-59102662D01*
X104115632Y-58976371D01*
X104276371Y-58815632D01*
X104402662Y-58626624D01*
X104489653Y-58416609D01*
X104534000Y-58193659D01*
X104534000Y-57966341D01*
X104489653Y-57743391D01*
X104451949Y-57652366D01*
X105104820Y-56999496D01*
X105104820Y-58250864D01*
X103807634Y-59548051D01*
X103716609Y-59510347D01*
X103493659Y-59466000D01*
X103266341Y-59466000D01*
X103043391Y-59510347D01*
X102833376Y-59597338D01*
X102644368Y-59723629D01*
X102483629Y-59884368D01*
X102357338Y-60073376D01*
X102270347Y-60283391D01*
X102226000Y-60506341D01*
X102226000Y-60733659D01*
X102270347Y-60956609D01*
X102357338Y-61166624D01*
X102483629Y-61355632D01*
X102644368Y-61516371D01*
X102833376Y-61642662D01*
X103043391Y-61729653D01*
X103266341Y-61774000D01*
X103493659Y-61774000D01*
X103716609Y-61729653D01*
X103926624Y-61642662D01*
X104115632Y-61516371D01*
X104276371Y-61355632D01*
X104402662Y-61166624D01*
X104489653Y-60956609D01*
X104534000Y-60733659D01*
X104534000Y-60506341D01*
X104489653Y-60283391D01*
X104451949Y-60192366D01*
X105435030Y-59209286D01*
X105435030Y-60460654D01*
X103807634Y-62088051D01*
X103716609Y-62050347D01*
X103493659Y-62006000D01*
X103266341Y-62006000D01*
X103043391Y-62050347D01*
X102833376Y-62137338D01*
X102644368Y-62263629D01*
X102483629Y-62424368D01*
X102357338Y-62613376D01*
X102270347Y-62823391D01*
X102226000Y-63046341D01*
X102226000Y-63273659D01*
X102270347Y-63496609D01*
X102357338Y-63706624D01*
X102483629Y-63895632D01*
X102644368Y-64056371D01*
X102833376Y-64182662D01*
X103043391Y-64269653D01*
X103266341Y-64314000D01*
X103493659Y-64314000D01*
X103716609Y-64269653D01*
X103926624Y-64182662D01*
X104115632Y-64056371D01*
X104276371Y-63895632D01*
X104402662Y-63706624D01*
X104489653Y-63496609D01*
X104534000Y-63273659D01*
X104534000Y-63046341D01*
X104489653Y-62823391D01*
X104451949Y-62732366D01*
X105765241Y-61419075D01*
X105765240Y-62670445D01*
X103807634Y-64628051D01*
X103716609Y-64590347D01*
X103493659Y-64546000D01*
X103266341Y-64546000D01*
X103043391Y-64590347D01*
X102833376Y-64677338D01*
X102644368Y-64803629D01*
X102483629Y-64964368D01*
X102357338Y-65153376D01*
X102270347Y-65363391D01*
X102226000Y-65586341D01*
X102226000Y-65813659D01*
X102270347Y-66036609D01*
X102357338Y-66246624D01*
X102483629Y-66435632D01*
X102644368Y-66596371D01*
X102833376Y-66722662D01*
X103043391Y-66809653D01*
X103266341Y-66854000D01*
X103493659Y-66854000D01*
X103716609Y-66809653D01*
X103926624Y-66722662D01*
X104115632Y-66596371D01*
X104276371Y-66435632D01*
X104402662Y-66246624D01*
X104489653Y-66036609D01*
X104534000Y-65813659D01*
X104534000Y-65586341D01*
X104489653Y-65363391D01*
X104451949Y-65272366D01*
X104972894Y-64751421D01*
X104972893Y-66002791D01*
X103807634Y-67168051D01*
X103716609Y-67130347D01*
X103493659Y-67086000D01*
X103266341Y-67086000D01*
X103043391Y-67130347D01*
X102833376Y-67217338D01*
X102644368Y-67343629D01*
X102483629Y-67504368D01*
X102357338Y-67693376D01*
X102270347Y-67903391D01*
X102226000Y-68126341D01*
X102226000Y-68353659D01*
X102270347Y-68576609D01*
X102357338Y-68786624D01*
X102483629Y-68975632D01*
X102644368Y-69136371D01*
X102833376Y-69262662D01*
X103043391Y-69349653D01*
X103266341Y-69394000D01*
X103493659Y-69394000D01*
X103716609Y-69349653D01*
X103926624Y-69262662D01*
X104115632Y-69136371D01*
X104276371Y-68975632D01*
X104402662Y-68786624D01*
X104489653Y-68576609D01*
X104534000Y-68353659D01*
X104534000Y-68126341D01*
X104489653Y-67903391D01*
X104451949Y-67812366D01*
X105303104Y-66961212D01*
X105303103Y-75630424D01*
X105303103Y-75630425D01*
X105303104Y-78568639D01*
X105283100Y-78582005D01*
X105192005Y-78673100D01*
X105120433Y-78780215D01*
X105071133Y-78899235D01*
X105046000Y-79025587D01*
X105046000Y-79154413D01*
X105071133Y-79280765D01*
X105120433Y-79399785D01*
X105192005Y-79506900D01*
X105283100Y-79597995D01*
X105390215Y-79669567D01*
X105509235Y-79718867D01*
X105635587Y-79744000D01*
X105764413Y-79744000D01*
X105890765Y-79718867D01*
X106009785Y-79669567D01*
X106116900Y-79597995D01*
X106207995Y-79506900D01*
X106279567Y-79399785D01*
X106328867Y-79280765D01*
X106354000Y-79154413D01*
X106354000Y-79025587D01*
X106328867Y-78899235D01*
X106279567Y-78780215D01*
X106207995Y-78673100D01*
X106163503Y-78628608D01*
X106163503Y-67978500D01*
X108242429Y-67978500D01*
X108242429Y-70336500D01*
X111957572Y-70336500D01*
X111957572Y-67978500D01*
X108242429Y-67978500D01*
X106163503Y-67978500D01*
X106163503Y-64422942D01*
X107145113Y-63441334D01*
X107161529Y-63427862D01*
X107215289Y-63362355D01*
X107255236Y-63287620D01*
X107266563Y-63250279D01*
X107279835Y-63206528D01*
X107288141Y-63122193D01*
X107286060Y-63101064D01*
X107286060Y-56622044D01*
X107919801Y-55988304D01*
X107919800Y-64468873D01*
X107917719Y-64490000D01*
X107919800Y-64511127D01*
X107919800Y-64511128D01*
X107926025Y-64574333D01*
X107950624Y-64655426D01*
X107990571Y-64730161D01*
X108044331Y-64795669D01*
X108060753Y-64809146D01*
X108196000Y-64944393D01*
X108196000Y-65054413D01*
X108221133Y-65180765D01*
X108270433Y-65299785D01*
X108342005Y-65406900D01*
X108433100Y-65497995D01*
X108540215Y-65569567D01*
X108659235Y-65618867D01*
X108785587Y-65644000D01*
X108914413Y-65644000D01*
X109040765Y-65618867D01*
X109159785Y-65569567D01*
X109266900Y-65497995D01*
X109357995Y-65406900D01*
X109429567Y-65299785D01*
X109478867Y-65180765D01*
X109485292Y-65148463D01*
X114264518Y-65148463D01*
X114266600Y-65169599D01*
X114266599Y-66145082D01*
X114264518Y-66166209D01*
X114266599Y-66187336D01*
X114266599Y-66187337D01*
X114272824Y-66250542D01*
X114297423Y-66331635D01*
X114337370Y-66406370D01*
X114391130Y-66471878D01*
X114407552Y-66485355D01*
X114769801Y-66847605D01*
X114769800Y-75208755D01*
X114767719Y-75229882D01*
X114769800Y-75251009D01*
X114769800Y-75251010D01*
X114776025Y-75314215D01*
X114800624Y-75395308D01*
X114840571Y-75470043D01*
X114894331Y-75535551D01*
X114910754Y-75549029D01*
X122576206Y-83214482D01*
X122546000Y-83366341D01*
X122546000Y-83593659D01*
X122590347Y-83816609D01*
X122677338Y-84026624D01*
X122803629Y-84215632D01*
X122964368Y-84376371D01*
X123153376Y-84502662D01*
X123363391Y-84589653D01*
X123586341Y-84634000D01*
X123813659Y-84634000D01*
X124036609Y-84589653D01*
X124246624Y-84502662D01*
X124435632Y-84376371D01*
X124596371Y-84215632D01*
X124722662Y-84026624D01*
X124809653Y-83816609D01*
X124854000Y-83593659D01*
X124854000Y-83366341D01*
X124809653Y-83143391D01*
X124722662Y-82933376D01*
X124596371Y-82744368D01*
X124435632Y-82583629D01*
X124246624Y-82457338D01*
X124036609Y-82370347D01*
X123813659Y-82326000D01*
X123586341Y-82326000D01*
X123363391Y-82370347D01*
X123153376Y-82457338D01*
X123082924Y-82504412D01*
X121948712Y-81370200D01*
X122629114Y-81370200D01*
X122677338Y-81486624D01*
X122803629Y-81675632D01*
X122964368Y-81836371D01*
X123153376Y-81962662D01*
X123363391Y-82049653D01*
X123586341Y-82094000D01*
X123813659Y-82094000D01*
X124036609Y-82049653D01*
X124246624Y-81962662D01*
X124435632Y-81836371D01*
X124596371Y-81675632D01*
X124722662Y-81486624D01*
X124809653Y-81276609D01*
X124854000Y-81053659D01*
X124854000Y-80826341D01*
X124809653Y-80603391D01*
X124722662Y-80393376D01*
X124596371Y-80204368D01*
X124435632Y-80043629D01*
X124246624Y-79917338D01*
X124036609Y-79830347D01*
X123813659Y-79786000D01*
X123586341Y-79786000D01*
X123363391Y-79830347D01*
X123153376Y-79917338D01*
X122964368Y-80043629D01*
X122803629Y-80204368D01*
X122677338Y-80393376D01*
X122629114Y-80509800D01*
X121483457Y-80509800D01*
X115930200Y-74956545D01*
X115930200Y-66511126D01*
X115932281Y-66489999D01*
X115929438Y-66461133D01*
X115923975Y-66405666D01*
X115899376Y-66324573D01*
X115859429Y-66249838D01*
X115805669Y-66184331D01*
X115789251Y-66170857D01*
X115630200Y-66011807D01*
X115630200Y-65884695D01*
X115707995Y-65806900D01*
X115779567Y-65699785D01*
X115828867Y-65580765D01*
X115854000Y-65454413D01*
X115854000Y-65447413D01*
X115963939Y-65401874D01*
X116071054Y-65330302D01*
X116162149Y-65239207D01*
X116233721Y-65132092D01*
X116283021Y-65013072D01*
X116308154Y-64886720D01*
X116308154Y-64757894D01*
X116283021Y-64631542D01*
X116233721Y-64512522D01*
X116162149Y-64405407D01*
X116071054Y-64314312D01*
X115963939Y-64242740D01*
X115844919Y-64193440D01*
X115718567Y-64168307D01*
X115589741Y-64168307D01*
X115463389Y-64193440D01*
X115344369Y-64242740D01*
X115237254Y-64314312D01*
X115159459Y-64392107D01*
X115044081Y-64392107D01*
X115022954Y-64390026D01*
X115001827Y-64392107D01*
X115001826Y-64392107D01*
X114938621Y-64398332D01*
X114857528Y-64422931D01*
X114782793Y-64462878D01*
X114717286Y-64516638D01*
X114703817Y-64533051D01*
X114407547Y-64829322D01*
X114391131Y-64842794D01*
X114345986Y-64897804D01*
X114337371Y-64908301D01*
X114297423Y-64983037D01*
X114272825Y-65064129D01*
X114264518Y-65148463D01*
X109485292Y-65148463D01*
X109504000Y-65054413D01*
X109504000Y-64925587D01*
X109478867Y-64799235D01*
X109429567Y-64680215D01*
X109357995Y-64573100D01*
X109266900Y-64482005D01*
X109159785Y-64410433D01*
X109040765Y-64361133D01*
X108914413Y-64336000D01*
X108804393Y-64336000D01*
X108780200Y-64311807D01*
X108780200Y-63742000D01*
X109604287Y-63742000D01*
X109611122Y-63811396D01*
X109631364Y-63878125D01*
X109664235Y-63939624D01*
X109708473Y-63993527D01*
X109762376Y-64037765D01*
X109823875Y-64070636D01*
X109890604Y-64090878D01*
X109960000Y-64097713D01*
X110344500Y-64096000D01*
X110433000Y-64007500D01*
X110433000Y-63019000D01*
X109694500Y-63019000D01*
X109606000Y-63107500D01*
X109604287Y-63742000D01*
X108780200Y-63742000D01*
X108780200Y-62242000D01*
X109604287Y-62242000D01*
X109606000Y-62876500D01*
X109694500Y-62965000D01*
X110433000Y-62965000D01*
X110433000Y-61976500D01*
X110344500Y-61888000D01*
X109960000Y-61886287D01*
X109890604Y-61893122D01*
X109823875Y-61913364D01*
X109762376Y-61946235D01*
X109708473Y-61990473D01*
X109664235Y-62044376D01*
X109631364Y-62105875D01*
X109611122Y-62172604D01*
X109604287Y-62242000D01*
X108780200Y-62242000D01*
X108780200Y-58086261D01*
X108808604Y-58094877D01*
X108878000Y-58101712D01*
X109274401Y-58101712D01*
X109274401Y-58597621D01*
X109272197Y-58620000D01*
X109280993Y-58709313D01*
X109307045Y-58795194D01*
X109349351Y-58874342D01*
X109392020Y-58926335D01*
X109392024Y-58926339D01*
X109406285Y-58943716D01*
X109423662Y-58957977D01*
X111394400Y-60928716D01*
X111394401Y-61886288D01*
X111260000Y-61886288D01*
X111190604Y-61893123D01*
X111123875Y-61913365D01*
X111110001Y-61920781D01*
X111096125Y-61913364D01*
X111029396Y-61893122D01*
X110960000Y-61886287D01*
X110575500Y-61888000D01*
X110487000Y-61976500D01*
X110487000Y-62965000D01*
X110507000Y-62965000D01*
X110507000Y-63019000D01*
X110487000Y-63019000D01*
X110487000Y-64007500D01*
X110575500Y-64096000D01*
X110960000Y-64097713D01*
X111029396Y-64090878D01*
X111096125Y-64070636D01*
X111110001Y-64063219D01*
X111123875Y-64070635D01*
X111190604Y-64090877D01*
X111260000Y-64097712D01*
X112260000Y-64097712D01*
X112329396Y-64090877D01*
X112396125Y-64070635D01*
X112410000Y-64063219D01*
X112423875Y-64070635D01*
X112490604Y-64090877D01*
X112560000Y-64097712D01*
X112575560Y-64097712D01*
X112520433Y-64180215D01*
X112471133Y-64299235D01*
X112446000Y-64425587D01*
X112446000Y-64554413D01*
X112471133Y-64680765D01*
X112520433Y-64799785D01*
X112592005Y-64906900D01*
X112683100Y-64997995D01*
X112790215Y-65069567D01*
X112909235Y-65118867D01*
X113035587Y-65144000D01*
X113164413Y-65144000D01*
X113290765Y-65118867D01*
X113409785Y-65069567D01*
X113516900Y-64997995D01*
X113607995Y-64906900D01*
X113679567Y-64799785D01*
X113728867Y-64680765D01*
X113754000Y-64554413D01*
X113754000Y-64425587D01*
X113728867Y-64299235D01*
X113679567Y-64180215D01*
X113620461Y-64091757D01*
X113629396Y-64090877D01*
X113696125Y-64070635D01*
X113757623Y-64037764D01*
X113811526Y-63993526D01*
X113855764Y-63939623D01*
X113888635Y-63878125D01*
X113908877Y-63811396D01*
X113915712Y-63742000D01*
X114430287Y-63742000D01*
X114437122Y-63811396D01*
X114457364Y-63878125D01*
X114490235Y-63939624D01*
X114534473Y-63993527D01*
X114588376Y-64037765D01*
X114649875Y-64070636D01*
X114716604Y-64090878D01*
X114786000Y-64097713D01*
X115170500Y-64096000D01*
X115259000Y-64007500D01*
X115259000Y-63019000D01*
X114520500Y-63019000D01*
X114432000Y-63107500D01*
X114430287Y-63742000D01*
X113915712Y-63742000D01*
X113915712Y-62242000D01*
X114430287Y-62242000D01*
X114432000Y-62876500D01*
X114520500Y-62965000D01*
X115259000Y-62965000D01*
X115259000Y-61976500D01*
X115170500Y-61888000D01*
X114786000Y-61886287D01*
X114716604Y-61893122D01*
X114649875Y-61913364D01*
X114588376Y-61946235D01*
X114534473Y-61990473D01*
X114490235Y-62044376D01*
X114457364Y-62105875D01*
X114437122Y-62172604D01*
X114430287Y-62242000D01*
X113915712Y-62242000D01*
X113908877Y-62172604D01*
X113888635Y-62105875D01*
X113855764Y-62044377D01*
X113811526Y-61990474D01*
X113757623Y-61946236D01*
X113696125Y-61913365D01*
X113629396Y-61893123D01*
X113560000Y-61886288D01*
X112560000Y-61886288D01*
X112490604Y-61893123D01*
X112423875Y-61913365D01*
X112410000Y-61920781D01*
X112396125Y-61913365D01*
X112329396Y-61893123D01*
X112305600Y-61890779D01*
X112305600Y-60762369D01*
X112307803Y-60740000D01*
X112305600Y-60717631D01*
X112305600Y-60717624D01*
X112299007Y-60650687D01*
X112298608Y-60649370D01*
X112272956Y-60564805D01*
X112241705Y-60506341D01*
X112230650Y-60485658D01*
X112203033Y-60452007D01*
X112187980Y-60433664D01*
X112187977Y-60433661D01*
X112173716Y-60416284D01*
X112156340Y-60402024D01*
X110185600Y-58431285D01*
X110185600Y-58101712D01*
X110578000Y-58101712D01*
X110647396Y-58094877D01*
X110714125Y-58074635D01*
X110775623Y-58041764D01*
X110829526Y-57997526D01*
X110873764Y-57943623D01*
X110906635Y-57882125D01*
X110926877Y-57815396D01*
X110933712Y-57746000D01*
X110933712Y-56046000D01*
X110926877Y-55976604D01*
X110906635Y-55909875D01*
X110873764Y-55848377D01*
X110829526Y-55794474D01*
X110775623Y-55750236D01*
X110714125Y-55717365D01*
X110647396Y-55697123D01*
X110578000Y-55690288D01*
X109008105Y-55690288D01*
X112389253Y-52309141D01*
X112405669Y-52295669D01*
X112459429Y-52230162D01*
X112499376Y-52155427D01*
X112523975Y-52074334D01*
X112530200Y-52011129D01*
X112530200Y-52011127D01*
X112532281Y-51990000D01*
X112530200Y-51968873D01*
X112530200Y-51484695D01*
X112607995Y-51406900D01*
X112679567Y-51299785D01*
X112728867Y-51180765D01*
X112754000Y-51054413D01*
X112754000Y-50925587D01*
X112728867Y-50799235D01*
X112679567Y-50680215D01*
X112607995Y-50573100D01*
X112516900Y-50482005D01*
X112409785Y-50410433D01*
X112290765Y-50361133D01*
X112164413Y-50336000D01*
X112035587Y-50336000D01*
X111933401Y-50356326D01*
X111933401Y-49524026D01*
X112257604Y-49199824D01*
X112367623Y-49199824D01*
X112493975Y-49174691D01*
X112612995Y-49125391D01*
X112720110Y-49053819D01*
X112811205Y-48962724D01*
X112882777Y-48855609D01*
X112932077Y-48736589D01*
X112957210Y-48610237D01*
X112957210Y-48481411D01*
X112932077Y-48355059D01*
X112882777Y-48236039D01*
X112811205Y-48128924D01*
X112720110Y-48037829D01*
X112612995Y-47966257D01*
X112493975Y-47916957D01*
X112483517Y-47914877D01*
X113094288Y-47304106D01*
X113094288Y-47860000D01*
X113101123Y-47929396D01*
X113121365Y-47996125D01*
X113154236Y-48057623D01*
X113198474Y-48111526D01*
X113214892Y-48125000D01*
X113198474Y-48138474D01*
X113154236Y-48192377D01*
X113121365Y-48253875D01*
X113101123Y-48320604D01*
X113094288Y-48390000D01*
X113094288Y-49130000D01*
X113101123Y-49199396D01*
X113121365Y-49266125D01*
X113154236Y-49327623D01*
X113198474Y-49381526D01*
X113214892Y-49395000D01*
X113198474Y-49408474D01*
X113154236Y-49462377D01*
X113121365Y-49523875D01*
X113101123Y-49590604D01*
X113094288Y-49660000D01*
X113094288Y-50400000D01*
X113101123Y-50469396D01*
X113121365Y-50536125D01*
X113154236Y-50597623D01*
X113198474Y-50651526D01*
X113252377Y-50695764D01*
X113261887Y-50700847D01*
X113221133Y-50799235D01*
X113196000Y-50925587D01*
X113196000Y-51054413D01*
X113221133Y-51180765D01*
X113270433Y-51299785D01*
X113342005Y-51406900D01*
X113433100Y-51497995D01*
X113540215Y-51569567D01*
X113659235Y-51618867D01*
X113785587Y-51644000D01*
X113859685Y-51644000D01*
X114354400Y-52138716D01*
X114354401Y-55780687D01*
X114237692Y-55829029D01*
X114040495Y-55960792D01*
X113872792Y-56128495D01*
X113741029Y-56325692D01*
X113650269Y-56544806D01*
X113604000Y-56777416D01*
X113604000Y-57014584D01*
X113650269Y-57247194D01*
X113741029Y-57466308D01*
X113872792Y-57663505D01*
X114040495Y-57831208D01*
X114237692Y-57962971D01*
X114456806Y-58053731D01*
X114689416Y-58100000D01*
X114926584Y-58100000D01*
X115159194Y-58053731D01*
X115378308Y-57962971D01*
X115575505Y-57831208D01*
X115743208Y-57663505D01*
X115874971Y-57466308D01*
X115965731Y-57247194D01*
X116012000Y-57014584D01*
X116012000Y-56777416D01*
X115965731Y-56544806D01*
X115874971Y-56325692D01*
X115743208Y-56128495D01*
X115575505Y-55960792D01*
X115378308Y-55829029D01*
X115265600Y-55782344D01*
X115265600Y-51972368D01*
X115267803Y-51949999D01*
X115265600Y-51927630D01*
X115265600Y-51927624D01*
X115259007Y-51860687D01*
X115232956Y-51774806D01*
X115190650Y-51695658D01*
X115161519Y-51660162D01*
X115147980Y-51643664D01*
X115147977Y-51643661D01*
X115133716Y-51626284D01*
X115116340Y-51612024D01*
X115097690Y-51593374D01*
X115159235Y-51618867D01*
X115285587Y-51644000D01*
X115359685Y-51644000D01*
X116894400Y-53178715D01*
X116894401Y-55780687D01*
X116777692Y-55829029D01*
X116580495Y-55960792D01*
X116412792Y-56128495D01*
X116281029Y-56325692D01*
X116190269Y-56544806D01*
X116144000Y-56777416D01*
X116144000Y-57014584D01*
X116190269Y-57247194D01*
X116281029Y-57466308D01*
X116412792Y-57663505D01*
X116580495Y-57831208D01*
X116777692Y-57962971D01*
X116996806Y-58053731D01*
X117229416Y-58100000D01*
X117466584Y-58100000D01*
X117699194Y-58053731D01*
X117918308Y-57962971D01*
X118115505Y-57831208D01*
X118283208Y-57663505D01*
X118414971Y-57466308D01*
X118505731Y-57247194D01*
X118552000Y-57014584D01*
X118552000Y-56777416D01*
X118505731Y-56544806D01*
X118414971Y-56325692D01*
X118283208Y-56128495D01*
X118115505Y-55960792D01*
X117918308Y-55829029D01*
X117805600Y-55782344D01*
X117805600Y-53012368D01*
X117807803Y-52989999D01*
X117805600Y-52967630D01*
X117805600Y-52967624D01*
X117799007Y-52900687D01*
X117772956Y-52814806D01*
X117730650Y-52735658D01*
X117673716Y-52666284D01*
X117656335Y-52652020D01*
X116648315Y-51644000D01*
X116664413Y-51644000D01*
X116790765Y-51618867D01*
X116909785Y-51569567D01*
X117016900Y-51497995D01*
X117107995Y-51406900D01*
X117179567Y-51299785D01*
X117228867Y-51180765D01*
X117254000Y-51054413D01*
X117254000Y-50925587D01*
X117228867Y-50799235D01*
X117195571Y-50718851D01*
X117213875Y-50728635D01*
X117280604Y-50748877D01*
X117350000Y-50755712D01*
X119750000Y-50755712D01*
X119819396Y-50748877D01*
X119886125Y-50728635D01*
X119947623Y-50695764D01*
X120001526Y-50651526D01*
X120045764Y-50597623D01*
X120078635Y-50536125D01*
X120093340Y-50487648D01*
X120093341Y-51488265D01*
X119310754Y-52270853D01*
X119294331Y-52284331D01*
X119240571Y-52349839D01*
X119200624Y-52424574D01*
X119176025Y-52505667D01*
X119172546Y-52540993D01*
X119167719Y-52590000D01*
X119169800Y-52611127D01*
X119169801Y-53268864D01*
X119167719Y-53290000D01*
X119176026Y-53374334D01*
X119200624Y-53455426D01*
X119200625Y-53455427D01*
X119240572Y-53530162D01*
X119294332Y-53595669D01*
X119310749Y-53609142D01*
X119690389Y-53988783D01*
X119690390Y-62706343D01*
X119679567Y-62680215D01*
X119607995Y-62573100D01*
X119516900Y-62482005D01*
X119409785Y-62410433D01*
X119290765Y-62361133D01*
X119164413Y-62336000D01*
X119035587Y-62336000D01*
X118909235Y-62361133D01*
X118790215Y-62410433D01*
X118741712Y-62442842D01*
X118741712Y-62242000D01*
X118734877Y-62172604D01*
X118714635Y-62105875D01*
X118681764Y-62044377D01*
X118637526Y-61990474D01*
X118583623Y-61946236D01*
X118522125Y-61913365D01*
X118455396Y-61893123D01*
X118386000Y-61886288D01*
X117386000Y-61886288D01*
X117316604Y-61893123D01*
X117249875Y-61913365D01*
X117236000Y-61920781D01*
X117222125Y-61913365D01*
X117155396Y-61893123D01*
X117086000Y-61886288D01*
X117055600Y-61886288D01*
X117055600Y-61512368D01*
X117057803Y-61489999D01*
X117055600Y-61467630D01*
X117055600Y-61467624D01*
X117049007Y-61400687D01*
X117022956Y-61314806D01*
X116980650Y-61235658D01*
X116923716Y-61166284D01*
X116906335Y-61152020D01*
X116187979Y-60433664D01*
X116173716Y-60416284D01*
X116104342Y-60359350D01*
X116025194Y-60317044D01*
X115939313Y-60290993D01*
X115872376Y-60284400D01*
X115872369Y-60284400D01*
X115850000Y-60282197D01*
X115827631Y-60284400D01*
X113788716Y-60284400D01*
X112725600Y-59221285D01*
X112725600Y-58009656D01*
X112838308Y-57962971D01*
X113035505Y-57831208D01*
X113203208Y-57663505D01*
X113334971Y-57466308D01*
X113425731Y-57247194D01*
X113472000Y-57014584D01*
X113472000Y-56777416D01*
X113425731Y-56544806D01*
X113334971Y-56325692D01*
X113203208Y-56128495D01*
X113035505Y-55960792D01*
X112838308Y-55829029D01*
X112619194Y-55738269D01*
X112386584Y-55692000D01*
X112149416Y-55692000D01*
X111916806Y-55738269D01*
X111697692Y-55829029D01*
X111500495Y-55960792D01*
X111332792Y-56128495D01*
X111201029Y-56325692D01*
X111110269Y-56544806D01*
X111064000Y-56777416D01*
X111064000Y-57014584D01*
X111110269Y-57247194D01*
X111201029Y-57466308D01*
X111332792Y-57663505D01*
X111500495Y-57831208D01*
X111697692Y-57962971D01*
X111814400Y-58011313D01*
X111814401Y-59387621D01*
X111812197Y-59410000D01*
X111820993Y-59499313D01*
X111847045Y-59585194D01*
X111889351Y-59664342D01*
X111932020Y-59716335D01*
X111932024Y-59716339D01*
X111946285Y-59733716D01*
X111963662Y-59747977D01*
X113262023Y-61046339D01*
X113276284Y-61063716D01*
X113293661Y-61077977D01*
X113293664Y-61077980D01*
X113331889Y-61109350D01*
X113345658Y-61120650D01*
X113424806Y-61162956D01*
X113484635Y-61181104D01*
X113510686Y-61189007D01*
X113520069Y-61189931D01*
X113577624Y-61195600D01*
X113577630Y-61195600D01*
X113599999Y-61197803D01*
X113622368Y-61195600D01*
X115661285Y-61195600D01*
X116144400Y-61678715D01*
X116144400Y-61886288D01*
X116086000Y-61886288D01*
X116016604Y-61893123D01*
X115949875Y-61913365D01*
X115936001Y-61920781D01*
X115922125Y-61913364D01*
X115855396Y-61893122D01*
X115786000Y-61886287D01*
X115401500Y-61888000D01*
X115313000Y-61976500D01*
X115313000Y-62965000D01*
X115333000Y-62965000D01*
X115333000Y-63019000D01*
X115313000Y-63019000D01*
X115313000Y-64007500D01*
X115401500Y-64096000D01*
X115786000Y-64097713D01*
X115855396Y-64090878D01*
X115922125Y-64070636D01*
X115936001Y-64063219D01*
X115949875Y-64070635D01*
X116016604Y-64090877D01*
X116086000Y-64097712D01*
X117086000Y-64097712D01*
X117155396Y-64090877D01*
X117222125Y-64070635D01*
X117236000Y-64063219D01*
X117249875Y-64070635D01*
X117316604Y-64090877D01*
X117386000Y-64097712D01*
X118386000Y-64097712D01*
X118455396Y-64090877D01*
X118522125Y-64070635D01*
X118583623Y-64037764D01*
X118637526Y-63993526D01*
X118681764Y-63939623D01*
X118714635Y-63878125D01*
X118734877Y-63811396D01*
X118741712Y-63742000D01*
X118741712Y-63537158D01*
X118790215Y-63569567D01*
X118909235Y-63618867D01*
X119035587Y-63644000D01*
X119164413Y-63644000D01*
X119290765Y-63618867D01*
X119409785Y-63569567D01*
X119516900Y-63497995D01*
X119607995Y-63406900D01*
X119679567Y-63299785D01*
X119690390Y-63273657D01*
X119690390Y-66348273D01*
X119690389Y-66348283D01*
X119690389Y-66564291D01*
X119609785Y-66510433D01*
X119490765Y-66461133D01*
X119364413Y-66436000D01*
X119235587Y-66436000D01*
X119109235Y-66461133D01*
X118990215Y-66510433D01*
X118883100Y-66582005D01*
X118792005Y-66673100D01*
X118720433Y-66780215D01*
X118671133Y-66899235D01*
X118646000Y-67025587D01*
X118646000Y-67154413D01*
X118671133Y-67280765D01*
X118692000Y-67331143D01*
X118692001Y-67838148D01*
X117191198Y-69338951D01*
X117168000Y-69357989D01*
X117138447Y-69394000D01*
X117092021Y-69450570D01*
X117035565Y-69556193D01*
X117000798Y-69670802D01*
X116989059Y-69789990D01*
X116992001Y-69819860D01*
X116992000Y-72998858D01*
X116971133Y-73049235D01*
X116946000Y-73175587D01*
X116946000Y-73304413D01*
X116971133Y-73430765D01*
X116992000Y-73481143D01*
X116992001Y-73998856D01*
X116971133Y-74049235D01*
X116946000Y-74175587D01*
X116946000Y-74304413D01*
X116971133Y-74430765D01*
X117020433Y-74549785D01*
X117092005Y-74656900D01*
X117183100Y-74747995D01*
X117290215Y-74819567D01*
X117409235Y-74868867D01*
X117535587Y-74894000D01*
X117664413Y-74894000D01*
X117790765Y-74868867D01*
X117909785Y-74819567D01*
X118016900Y-74747995D01*
X118107995Y-74656900D01*
X118179567Y-74549785D01*
X118228867Y-74430765D01*
X118254000Y-74304413D01*
X118254000Y-74175587D01*
X118228867Y-74049235D01*
X118208000Y-73998858D01*
X118208000Y-73481142D01*
X118228867Y-73430765D01*
X118254000Y-73304413D01*
X118254000Y-73175587D01*
X118228867Y-73049235D01*
X118208000Y-72998858D01*
X118208000Y-70041831D01*
X119559396Y-68690435D01*
X119609775Y-68669567D01*
X119690389Y-68615702D01*
X119690390Y-77489452D01*
X119688308Y-77510589D01*
X119696615Y-77594923D01*
X119721213Y-77676015D01*
X119721214Y-77676016D01*
X119761161Y-77750751D01*
X119814921Y-77816258D01*
X119831337Y-77829731D01*
X119846000Y-77844393D01*
X119846000Y-77954413D01*
X119871133Y-78080765D01*
X119920433Y-78199785D01*
X119992005Y-78306900D01*
X120083100Y-78397995D01*
X120190215Y-78469567D01*
X120309235Y-78518867D01*
X120435587Y-78544000D01*
X120564413Y-78544000D01*
X120690765Y-78518867D01*
X120809785Y-78469567D01*
X120916900Y-78397995D01*
X121007995Y-78306900D01*
X121079567Y-78199785D01*
X121128867Y-78080765D01*
X121154000Y-77954413D01*
X121154000Y-77825587D01*
X121128867Y-77699235D01*
X121079567Y-77580215D01*
X121007995Y-77473100D01*
X120916900Y-77382005D01*
X120809785Y-77310433D01*
X120690765Y-77261133D01*
X120564413Y-77236000D01*
X120550789Y-77236000D01*
X120550789Y-75859182D01*
X122638572Y-77946966D01*
X122590347Y-78063391D01*
X122546000Y-78286341D01*
X122546000Y-78513659D01*
X122590347Y-78736609D01*
X122677338Y-78946624D01*
X122803629Y-79135632D01*
X122964368Y-79296371D01*
X123153376Y-79422662D01*
X123363391Y-79509653D01*
X123586341Y-79554000D01*
X123813659Y-79554000D01*
X124036609Y-79509653D01*
X124246624Y-79422662D01*
X124435632Y-79296371D01*
X124596371Y-79135632D01*
X124722662Y-78946624D01*
X124809653Y-78736609D01*
X124854000Y-78513659D01*
X124854000Y-78286341D01*
X124809653Y-78063391D01*
X124722662Y-77853376D01*
X124596371Y-77664368D01*
X124435632Y-77503629D01*
X124246624Y-77377338D01*
X124036609Y-77290347D01*
X123813659Y-77246000D01*
X123586341Y-77246000D01*
X123363391Y-77290347D01*
X123246966Y-77338572D01*
X120830199Y-74921806D01*
X120830199Y-73598592D01*
X122638572Y-75406966D01*
X122590347Y-75523391D01*
X122546000Y-75746341D01*
X122546000Y-75973659D01*
X122590347Y-76196609D01*
X122677338Y-76406624D01*
X122803629Y-76595632D01*
X122964368Y-76756371D01*
X123153376Y-76882662D01*
X123363391Y-76969653D01*
X123586341Y-77014000D01*
X123813659Y-77014000D01*
X124036609Y-76969653D01*
X124246624Y-76882662D01*
X124435632Y-76756371D01*
X124596371Y-76595632D01*
X124722662Y-76406624D01*
X124809653Y-76196609D01*
X124854000Y-75973659D01*
X124854000Y-75746341D01*
X124809653Y-75523391D01*
X124722662Y-75313376D01*
X124596371Y-75124368D01*
X124435632Y-74963629D01*
X124246624Y-74837338D01*
X124036609Y-74750347D01*
X123813659Y-74706000D01*
X123586341Y-74706000D01*
X123363391Y-74750347D01*
X123246966Y-74798572D01*
X121230200Y-72781807D01*
X121230200Y-71458593D01*
X122638572Y-72866966D01*
X122590347Y-72983391D01*
X122546000Y-73206341D01*
X122546000Y-73433659D01*
X122590347Y-73656609D01*
X122677338Y-73866624D01*
X122803629Y-74055632D01*
X122964368Y-74216371D01*
X123153376Y-74342662D01*
X123363391Y-74429653D01*
X123586341Y-74474000D01*
X123813659Y-74474000D01*
X124036609Y-74429653D01*
X124246624Y-74342662D01*
X124435632Y-74216371D01*
X124596371Y-74055632D01*
X124722662Y-73866624D01*
X124809653Y-73656609D01*
X124854000Y-73433659D01*
X124854000Y-73206341D01*
X124809653Y-72983391D01*
X124722662Y-72773376D01*
X124596371Y-72584368D01*
X124435632Y-72423629D01*
X124246624Y-72297338D01*
X124036609Y-72210347D01*
X123813659Y-72166000D01*
X123586341Y-72166000D01*
X123363391Y-72210347D01*
X123246966Y-72258572D01*
X121512560Y-70524167D01*
X121512560Y-69200953D01*
X122638572Y-70326966D01*
X122590347Y-70443391D01*
X122546000Y-70666341D01*
X122546000Y-70893659D01*
X122590347Y-71116609D01*
X122677338Y-71326624D01*
X122803629Y-71515632D01*
X122964368Y-71676371D01*
X123153376Y-71802662D01*
X123363391Y-71889653D01*
X123586341Y-71934000D01*
X123813659Y-71934000D01*
X124036609Y-71889653D01*
X124246624Y-71802662D01*
X124435632Y-71676371D01*
X124596371Y-71515632D01*
X124722662Y-71326624D01*
X124809653Y-71116609D01*
X124854000Y-70893659D01*
X124854000Y-70666341D01*
X124809653Y-70443391D01*
X124722662Y-70233376D01*
X124596371Y-70044368D01*
X124435632Y-69883629D01*
X124246624Y-69757338D01*
X124036609Y-69670347D01*
X123813659Y-69626000D01*
X123586341Y-69626000D01*
X123363391Y-69670347D01*
X123246966Y-69718572D01*
X121791970Y-68263577D01*
X121791970Y-66940363D01*
X122638572Y-67786966D01*
X122590347Y-67903391D01*
X122546000Y-68126341D01*
X122546000Y-68353659D01*
X122590347Y-68576609D01*
X122677338Y-68786624D01*
X122803629Y-68975632D01*
X122964368Y-69136371D01*
X123153376Y-69262662D01*
X123363391Y-69349653D01*
X123586341Y-69394000D01*
X123813659Y-69394000D01*
X124036609Y-69349653D01*
X124246624Y-69262662D01*
X124435632Y-69136371D01*
X124596371Y-68975632D01*
X124722662Y-68786624D01*
X124809653Y-68576609D01*
X124854000Y-68353659D01*
X124854000Y-68126341D01*
X124809653Y-67903391D01*
X124722662Y-67693376D01*
X124596371Y-67504368D01*
X124435632Y-67343629D01*
X124246624Y-67217338D01*
X124036609Y-67130347D01*
X123813659Y-67086000D01*
X123586341Y-67086000D01*
X123363391Y-67130347D01*
X123246966Y-67178572D01*
X122071380Y-66002987D01*
X122071380Y-64679773D01*
X122638572Y-65246966D01*
X122590347Y-65363391D01*
X122546000Y-65586341D01*
X122546000Y-65813659D01*
X122590347Y-66036609D01*
X122677338Y-66246624D01*
X122803629Y-66435632D01*
X122964368Y-66596371D01*
X123153376Y-66722662D01*
X123363391Y-66809653D01*
X123586341Y-66854000D01*
X123813659Y-66854000D01*
X124036609Y-66809653D01*
X124246624Y-66722662D01*
X124435632Y-66596371D01*
X124596371Y-66435632D01*
X124722662Y-66246624D01*
X124809653Y-66036609D01*
X124854000Y-65813659D01*
X124854000Y-65586341D01*
X124809653Y-65363391D01*
X124722662Y-65153376D01*
X124596371Y-64964368D01*
X124435632Y-64803629D01*
X124246624Y-64677338D01*
X124036609Y-64590347D01*
X123813659Y-64546000D01*
X123586341Y-64546000D01*
X123363391Y-64590347D01*
X123246966Y-64638572D01*
X122350790Y-63742397D01*
X122350790Y-62419184D01*
X122638572Y-62706966D01*
X122590347Y-62823391D01*
X122546000Y-63046341D01*
X122546000Y-63273659D01*
X122590347Y-63496609D01*
X122677338Y-63706624D01*
X122803629Y-63895632D01*
X122964368Y-64056371D01*
X123153376Y-64182662D01*
X123363391Y-64269653D01*
X123586341Y-64314000D01*
X123813659Y-64314000D01*
X124036609Y-64269653D01*
X124246624Y-64182662D01*
X124435632Y-64056371D01*
X124596371Y-63895632D01*
X124722662Y-63706624D01*
X124809653Y-63496609D01*
X124854000Y-63273659D01*
X124854000Y-63046341D01*
X124809653Y-62823391D01*
X124722662Y-62613376D01*
X124596371Y-62424368D01*
X124435632Y-62263629D01*
X124246624Y-62137338D01*
X124036609Y-62050347D01*
X123813659Y-62006000D01*
X123586341Y-62006000D01*
X123363391Y-62050347D01*
X123246966Y-62098572D01*
X122630200Y-61481807D01*
X122630200Y-61052823D01*
X122677338Y-61166624D01*
X122803629Y-61355632D01*
X122964368Y-61516371D01*
X123153376Y-61642662D01*
X123363391Y-61729653D01*
X123586341Y-61774000D01*
X123813659Y-61774000D01*
X124036609Y-61729653D01*
X124246624Y-61642662D01*
X124435632Y-61516371D01*
X124596371Y-61355632D01*
X124722662Y-61166624D01*
X124809653Y-60956609D01*
X124854000Y-60733659D01*
X124854000Y-60506341D01*
X124809653Y-60283391D01*
X124722662Y-60073376D01*
X124596371Y-59884368D01*
X124435632Y-59723629D01*
X124246624Y-59597338D01*
X124036609Y-59510347D01*
X123813659Y-59466000D01*
X123586341Y-59466000D01*
X123363391Y-59510347D01*
X123153376Y-59597338D01*
X122964368Y-59723629D01*
X122803629Y-59884368D01*
X122677338Y-60073376D01*
X122630200Y-60187177D01*
X122630200Y-58512823D01*
X122677338Y-58626624D01*
X122803629Y-58815632D01*
X122964368Y-58976371D01*
X123153376Y-59102662D01*
X123363391Y-59189653D01*
X123586341Y-59234000D01*
X123813659Y-59234000D01*
X124036609Y-59189653D01*
X124246624Y-59102662D01*
X124435632Y-58976371D01*
X124596371Y-58815632D01*
X124722662Y-58626624D01*
X124809653Y-58416609D01*
X124854000Y-58193659D01*
X124854000Y-57966341D01*
X124809653Y-57743391D01*
X124722662Y-57533376D01*
X124596371Y-57344368D01*
X124435632Y-57183629D01*
X124246624Y-57057338D01*
X124036609Y-56970347D01*
X123813659Y-56926000D01*
X123586341Y-56926000D01*
X123363391Y-56970347D01*
X123153376Y-57057338D01*
X122964368Y-57183629D01*
X122803629Y-57344368D01*
X122677338Y-57533376D01*
X122630200Y-57647177D01*
X122630200Y-55972823D01*
X122677338Y-56086624D01*
X122803629Y-56275632D01*
X122964368Y-56436371D01*
X123153376Y-56562662D01*
X123363391Y-56649653D01*
X123586341Y-56694000D01*
X123813659Y-56694000D01*
X124036609Y-56649653D01*
X124246624Y-56562662D01*
X124435632Y-56436371D01*
X124596371Y-56275632D01*
X124722662Y-56086624D01*
X124809653Y-55876609D01*
X124854000Y-55653659D01*
X124854000Y-55426341D01*
X124809653Y-55203391D01*
X124722662Y-54993376D01*
X124596371Y-54804368D01*
X124435632Y-54643629D01*
X124246624Y-54517338D01*
X124036609Y-54430347D01*
X123813659Y-54386000D01*
X123586341Y-54386000D01*
X123363391Y-54430347D01*
X123153376Y-54517338D01*
X122964368Y-54643629D01*
X122803629Y-54804368D01*
X122677338Y-54993376D01*
X122630200Y-55107177D01*
X122630200Y-51598193D01*
X122994394Y-51234000D01*
X123104413Y-51234000D01*
X123230765Y-51208867D01*
X123349785Y-51159567D01*
X123456900Y-51087995D01*
X123547995Y-50996900D01*
X123619567Y-50889785D01*
X123668867Y-50770765D01*
X123694000Y-50644413D01*
X123694000Y-50515587D01*
X123668867Y-50389235D01*
X123619567Y-50270215D01*
X123547995Y-50163100D01*
X123456900Y-50072005D01*
X123349785Y-50000433D01*
X123230765Y-49951133D01*
X123104413Y-49926000D01*
X122975587Y-49926000D01*
X122849235Y-49951133D01*
X122730215Y-50000433D01*
X122623100Y-50072005D01*
X122532005Y-50163100D01*
X122460433Y-50270215D01*
X122411133Y-50389235D01*
X122386000Y-50515587D01*
X122386000Y-50625606D01*
X122350790Y-50660816D01*
X122350790Y-48067603D01*
X122994394Y-47424000D01*
X123104413Y-47424000D01*
X123230765Y-47398867D01*
X123349785Y-47349567D01*
X123456900Y-47277995D01*
X123547995Y-47186900D01*
X123619567Y-47079785D01*
X123668867Y-46960765D01*
X123694000Y-46834413D01*
X123694000Y-46705587D01*
X123668867Y-46579235D01*
X123619567Y-46460215D01*
X123547995Y-46353100D01*
X123456900Y-46262005D01*
X123349785Y-46190433D01*
X123230765Y-46141133D01*
X123199932Y-46135000D01*
X123230765Y-46128867D01*
X123349785Y-46079567D01*
X123456900Y-46007995D01*
X123547995Y-45916900D01*
X123619567Y-45809785D01*
X123668867Y-45690765D01*
X123694000Y-45564413D01*
X123694000Y-45435587D01*
X123668867Y-45309235D01*
X123619567Y-45190215D01*
X123547995Y-45083100D01*
X123456900Y-44992005D01*
X123349785Y-44920433D01*
X123230765Y-44871133D01*
X123199932Y-44865000D01*
X123230765Y-44858867D01*
X123349785Y-44809567D01*
X123456900Y-44737995D01*
X123547995Y-44646900D01*
X123619567Y-44539785D01*
X123668867Y-44420765D01*
X123694000Y-44294413D01*
X123694000Y-44165587D01*
X123668867Y-44039235D01*
X123619567Y-43920215D01*
X123547995Y-43813100D01*
X123456900Y-43722005D01*
X123349785Y-43650433D01*
X123230765Y-43601133D01*
X123104413Y-43576000D01*
X122975587Y-43576000D01*
X122849235Y-43601133D01*
X122730215Y-43650433D01*
X122623100Y-43722005D01*
X122532005Y-43813100D01*
X122460433Y-43920215D01*
X122411133Y-44039235D01*
X122386000Y-44165587D01*
X122386000Y-44275605D01*
X121512560Y-45149046D01*
X121512560Y-43825833D01*
X122994394Y-42344000D01*
X123104413Y-42344000D01*
X123230765Y-42318867D01*
X123349785Y-42269567D01*
X123456900Y-42197995D01*
X123547995Y-42106900D01*
X123619567Y-41999785D01*
X123668867Y-41880765D01*
X123694000Y-41754413D01*
X123694000Y-41625587D01*
X123668867Y-41499235D01*
X123619567Y-41380215D01*
X123547995Y-41273100D01*
X123456900Y-41182005D01*
X123349785Y-41110433D01*
X123230765Y-41061133D01*
X123104413Y-41036000D01*
X122975587Y-41036000D01*
X122849235Y-41061133D01*
X122730215Y-41110433D01*
X122623100Y-41182005D01*
X122532005Y-41273100D01*
X122460433Y-41380215D01*
X122411133Y-41499235D01*
X122386000Y-41625587D01*
X122386000Y-41735606D01*
X121233150Y-42888457D01*
X121233150Y-40295243D01*
X122994395Y-38534000D01*
X123104413Y-38534000D01*
X123230765Y-38508867D01*
X123349785Y-38459567D01*
X123456900Y-38387995D01*
X123547995Y-38296900D01*
X123619567Y-38189785D01*
X123668867Y-38070765D01*
X123694000Y-37944413D01*
X123694000Y-37815587D01*
X123668867Y-37689235D01*
X123619567Y-37570215D01*
X123547995Y-37463100D01*
X123456900Y-37372005D01*
X123349785Y-37300433D01*
X123230765Y-37251133D01*
X123104413Y-37226000D01*
X122975587Y-37226000D01*
X122849235Y-37251133D01*
X122730215Y-37300433D01*
X122623100Y-37372005D01*
X122532005Y-37463100D01*
X122460433Y-37570215D01*
X122411133Y-37689235D01*
X122386000Y-37815587D01*
X122386000Y-37925605D01*
X120513699Y-39797908D01*
X120497282Y-39811381D01*
X120451601Y-39867044D01*
X120443522Y-39876888D01*
X120403574Y-39951624D01*
X120378976Y-40032716D01*
X120370669Y-40117050D01*
X120372751Y-40138187D01*
X120372751Y-46237708D01*
X120364163Y-46236000D01*
X120235337Y-46236000D01*
X120108985Y-46261133D01*
X120105712Y-46262489D01*
X120105712Y-45850000D01*
X120098877Y-45780604D01*
X120078635Y-45713875D01*
X120045764Y-45652377D01*
X120001526Y-45598474D01*
X119985109Y-45585001D01*
X120001527Y-45571527D01*
X120045765Y-45517624D01*
X120078636Y-45456125D01*
X120098878Y-45389396D01*
X120105713Y-45320000D01*
X120104000Y-45065500D01*
X120015500Y-44977000D01*
X118577000Y-44977000D01*
X118577000Y-44997000D01*
X118523000Y-44997000D01*
X118523000Y-44977000D01*
X117084500Y-44977000D01*
X116996000Y-45065500D01*
X116994287Y-45320000D01*
X117001122Y-45389396D01*
X117021364Y-45456125D01*
X117054235Y-45517624D01*
X117098473Y-45571527D01*
X117114891Y-45585001D01*
X117098474Y-45598474D01*
X117054236Y-45652377D01*
X117021365Y-45713875D01*
X117016040Y-45731430D01*
X116909785Y-45660433D01*
X116790765Y-45611133D01*
X116664413Y-45586000D01*
X116535587Y-45586000D01*
X116409235Y-45611133D01*
X116290215Y-45660433D01*
X116183960Y-45731430D01*
X116178635Y-45713875D01*
X116145764Y-45652377D01*
X116101526Y-45598474D01*
X116085108Y-45585000D01*
X116101526Y-45571526D01*
X116145764Y-45517623D01*
X116178635Y-45456125D01*
X116198877Y-45389396D01*
X116205712Y-45320000D01*
X116205712Y-44580000D01*
X116994287Y-44580000D01*
X116996000Y-44834500D01*
X117084500Y-44923000D01*
X118523000Y-44923000D01*
X118523000Y-44314500D01*
X118577000Y-44314500D01*
X118577000Y-44923000D01*
X120015500Y-44923000D01*
X120104000Y-44834500D01*
X120105713Y-44580000D01*
X120098878Y-44510604D01*
X120078636Y-44443875D01*
X120045765Y-44382376D01*
X120001527Y-44328473D01*
X119947624Y-44284235D01*
X119886125Y-44251364D01*
X119819396Y-44231122D01*
X119750000Y-44224287D01*
X118665500Y-44226000D01*
X118577000Y-44314500D01*
X118523000Y-44314500D01*
X118434500Y-44226000D01*
X117350000Y-44224287D01*
X117280604Y-44231122D01*
X117213875Y-44251364D01*
X117152376Y-44284235D01*
X117098473Y-44328473D01*
X117054235Y-44382376D01*
X117021364Y-44443875D01*
X117001122Y-44510604D01*
X116994287Y-44580000D01*
X116205712Y-44580000D01*
X116198877Y-44510604D01*
X116178635Y-44443875D01*
X116145764Y-44382377D01*
X116101526Y-44328474D01*
X116047623Y-44284236D01*
X115986125Y-44251365D01*
X115919396Y-44231123D01*
X115850000Y-44224288D01*
X113450000Y-44224288D01*
X113380604Y-44231123D01*
X113313875Y-44251365D01*
X113252377Y-44284236D01*
X113198474Y-44328474D01*
X113154236Y-44382377D01*
X113121365Y-44443875D01*
X113101123Y-44510604D01*
X113094288Y-44580000D01*
X113094288Y-45084108D01*
X112945607Y-45232790D01*
X112835587Y-45232790D01*
X112709235Y-45257923D01*
X112590215Y-45307223D01*
X112483100Y-45378795D01*
X112430200Y-45431695D01*
X112430200Y-40829587D01*
X112884000Y-40829587D01*
X112884000Y-40958413D01*
X112909133Y-41084765D01*
X112958433Y-41203785D01*
X113030005Y-41310900D01*
X113121100Y-41401995D01*
X113121107Y-41402000D01*
X113121100Y-41402005D01*
X113030005Y-41493100D01*
X112958433Y-41600215D01*
X112909133Y-41719235D01*
X112884000Y-41845587D01*
X112884000Y-41974413D01*
X112909133Y-42100765D01*
X112958433Y-42219785D01*
X113030005Y-42326900D01*
X113121100Y-42417995D01*
X113121107Y-42418000D01*
X113121100Y-42418005D01*
X113030005Y-42509100D01*
X112958433Y-42616215D01*
X112909133Y-42735235D01*
X112884000Y-42861587D01*
X112884000Y-42990413D01*
X112909133Y-43116765D01*
X112958433Y-43235785D01*
X113030005Y-43342900D01*
X113121100Y-43433995D01*
X113228215Y-43505567D01*
X113347235Y-43554867D01*
X113473587Y-43580000D01*
X113602413Y-43580000D01*
X113728765Y-43554867D01*
X113847785Y-43505567D01*
X113954900Y-43433995D01*
X114045995Y-43342900D01*
X114046000Y-43342893D01*
X114046005Y-43342900D01*
X114137100Y-43433995D01*
X114244215Y-43505567D01*
X114363235Y-43554867D01*
X114489587Y-43580000D01*
X114618413Y-43580000D01*
X114744765Y-43554867D01*
X114863785Y-43505567D01*
X114970900Y-43433995D01*
X115061995Y-43342900D01*
X115062000Y-43342893D01*
X115062005Y-43342900D01*
X115153100Y-43433995D01*
X115260215Y-43505567D01*
X115379235Y-43554867D01*
X115505587Y-43580000D01*
X115634413Y-43580000D01*
X115760765Y-43554867D01*
X115879785Y-43505567D01*
X115986900Y-43433995D01*
X116077995Y-43342900D01*
X116149567Y-43235785D01*
X116198867Y-43116765D01*
X116224000Y-42990413D01*
X116224000Y-42861587D01*
X116198867Y-42735235D01*
X116149567Y-42616215D01*
X116077995Y-42509100D01*
X115986900Y-42418005D01*
X115986893Y-42418000D01*
X115986900Y-42417995D01*
X116077995Y-42326900D01*
X116149567Y-42219785D01*
X116198867Y-42100765D01*
X116224000Y-41974413D01*
X116224000Y-41845587D01*
X116198867Y-41719235D01*
X116149567Y-41600215D01*
X116077995Y-41493100D01*
X115986900Y-41402005D01*
X115986893Y-41402000D01*
X115986900Y-41401995D01*
X116077995Y-41310900D01*
X116149567Y-41203785D01*
X116198867Y-41084765D01*
X116224000Y-40958413D01*
X116224000Y-40829587D01*
X116198867Y-40703235D01*
X116149567Y-40584215D01*
X116077995Y-40477100D01*
X115986900Y-40386005D01*
X115879785Y-40314433D01*
X115760765Y-40265133D01*
X115634413Y-40240000D01*
X115505587Y-40240000D01*
X115379235Y-40265133D01*
X115260215Y-40314433D01*
X115153100Y-40386005D01*
X115062005Y-40477100D01*
X115062000Y-40477107D01*
X115061995Y-40477100D01*
X114970900Y-40386005D01*
X114863785Y-40314433D01*
X114744765Y-40265133D01*
X114618413Y-40240000D01*
X114489587Y-40240000D01*
X114363235Y-40265133D01*
X114244215Y-40314433D01*
X114137100Y-40386005D01*
X114046005Y-40477100D01*
X114046000Y-40477107D01*
X114045995Y-40477100D01*
X113954900Y-40386005D01*
X113847785Y-40314433D01*
X113728765Y-40265133D01*
X113602413Y-40240000D01*
X113473587Y-40240000D01*
X113347235Y-40265133D01*
X113228215Y-40314433D01*
X113121100Y-40386005D01*
X113030005Y-40477100D01*
X112958433Y-40584215D01*
X112909133Y-40703235D01*
X112884000Y-40829587D01*
X112430200Y-40829587D01*
X112430200Y-39311118D01*
X112432280Y-39289999D01*
X112430200Y-39268880D01*
X112430200Y-39268871D01*
X112423975Y-39205666D01*
X112399376Y-39124573D01*
X112359429Y-39049838D01*
X112305669Y-38984331D01*
X112289258Y-38970863D01*
X111954000Y-38635606D01*
X111954000Y-38525587D01*
X111928867Y-38399235D01*
X111879567Y-38280215D01*
X111807995Y-38173100D01*
X111716900Y-38082005D01*
X111609785Y-38010433D01*
X111490765Y-37961133D01*
X111364413Y-37936000D01*
X111235587Y-37936000D01*
X111109235Y-37961133D01*
X110990215Y-38010433D01*
X110883100Y-38082005D01*
X110792005Y-38173100D01*
X110720433Y-38280215D01*
X110671133Y-38399235D01*
X110646000Y-38525587D01*
X110646000Y-38654413D01*
X110671133Y-38780765D01*
X110720433Y-38899785D01*
X110792005Y-39006900D01*
X110883100Y-39097995D01*
X110990215Y-39169567D01*
X111109235Y-39218867D01*
X111235587Y-39244000D01*
X111345606Y-39244000D01*
X111569800Y-39468195D01*
X111569801Y-45855104D01*
X111509941Y-45830309D01*
X111383589Y-45805176D01*
X111254763Y-45805176D01*
X111128411Y-45830309D01*
X111009391Y-45879609D01*
X110902276Y-45951181D01*
X110855712Y-45997745D01*
X110855712Y-45490000D01*
X110848877Y-45420604D01*
X110828635Y-45353875D01*
X110795764Y-45292377D01*
X110751526Y-45238474D01*
X110697623Y-45194236D01*
X110636125Y-45161365D01*
X110569396Y-45141123D01*
X110500000Y-45134288D01*
X108700000Y-45134288D01*
X108630604Y-45141123D01*
X108563875Y-45161365D01*
X108502377Y-45194236D01*
X108448474Y-45238474D01*
X108404236Y-45292377D01*
X108371365Y-45353875D01*
X108351123Y-45420604D01*
X108344288Y-45490000D01*
X108344288Y-46490000D01*
X108351123Y-46559396D01*
X108371365Y-46626125D01*
X108383909Y-46649593D01*
X108375993Y-46675687D01*
X108373004Y-46706040D01*
X108352312Y-46717100D01*
X108328867Y-46599235D01*
X108279567Y-46480215D01*
X108207995Y-46373100D01*
X108116900Y-46282005D01*
X108009785Y-46210433D01*
X107890765Y-46161133D01*
X107764413Y-46136000D01*
X107635587Y-46136000D01*
X107509235Y-46161133D01*
X107390215Y-46210433D01*
X107283100Y-46282005D01*
X107192005Y-46373100D01*
X107120433Y-46480215D01*
X107071133Y-46599235D01*
X107046000Y-46725587D01*
X107046000Y-46799685D01*
X106346230Y-47499455D01*
X106346230Y-43561344D01*
X106398805Y-43539567D01*
X106505920Y-43467995D01*
X106597015Y-43376900D01*
X106668587Y-43269785D01*
X106717887Y-43150765D01*
X106743020Y-43024413D01*
X106743020Y-42895587D01*
X106717887Y-42769235D01*
X106668587Y-42650215D01*
X106597015Y-42543100D01*
X106505920Y-42452005D01*
X106398805Y-42380433D01*
X106279785Y-42331133D01*
X106224442Y-42320125D01*
X106230765Y-42318867D01*
X106349785Y-42269567D01*
X106456900Y-42197995D01*
X106547995Y-42106900D01*
X106619567Y-41999785D01*
X106668867Y-41880765D01*
X106694000Y-41754413D01*
X106694000Y-41740000D01*
X108019288Y-41740000D01*
X108019288Y-42240000D01*
X108030446Y-42353291D01*
X108063492Y-42462229D01*
X108117156Y-42562626D01*
X108189375Y-42650625D01*
X108277374Y-42722844D01*
X108373004Y-42773960D01*
X108375993Y-42804313D01*
X108383909Y-42830407D01*
X108371365Y-42853875D01*
X108351123Y-42920604D01*
X108344288Y-42990000D01*
X108344288Y-43990000D01*
X108351123Y-44059396D01*
X108371365Y-44126125D01*
X108404236Y-44187623D01*
X108448474Y-44241526D01*
X108502377Y-44285764D01*
X108563875Y-44318635D01*
X108630604Y-44338877D01*
X108700000Y-44345712D01*
X110500000Y-44345712D01*
X110569396Y-44338877D01*
X110636125Y-44318635D01*
X110697623Y-44285764D01*
X110751526Y-44241526D01*
X110795764Y-44187623D01*
X110828635Y-44126125D01*
X110848877Y-44059396D01*
X110855712Y-43990000D01*
X110855712Y-42990000D01*
X110848877Y-42920604D01*
X110828635Y-42853875D01*
X110795764Y-42792377D01*
X110790612Y-42786099D01*
X110822229Y-42776508D01*
X110922626Y-42722844D01*
X111010625Y-42650625D01*
X111082844Y-42562626D01*
X111136508Y-42462229D01*
X111169554Y-42353291D01*
X111180712Y-42240000D01*
X111180712Y-41740000D01*
X111169554Y-41626709D01*
X111136508Y-41517771D01*
X111082844Y-41417374D01*
X111010625Y-41329375D01*
X110940984Y-41272222D01*
X110978867Y-41180765D01*
X111004000Y-41054413D01*
X111004000Y-40925587D01*
X110978867Y-40799235D01*
X110929567Y-40680215D01*
X110857995Y-40573100D01*
X110766900Y-40482005D01*
X110659785Y-40410433D01*
X110540765Y-40361133D01*
X110414413Y-40336000D01*
X110285587Y-40336000D01*
X110159235Y-40361133D01*
X110040215Y-40410433D01*
X109933100Y-40482005D01*
X109842005Y-40573100D01*
X109770433Y-40680215D01*
X109721133Y-40799235D01*
X109696000Y-40925587D01*
X109696000Y-41054413D01*
X109721133Y-41180765D01*
X109770433Y-41299785D01*
X109772203Y-41302434D01*
X109739375Y-41329375D01*
X109667156Y-41417374D01*
X109613492Y-41517771D01*
X109600000Y-41562248D01*
X109586508Y-41517771D01*
X109532844Y-41417374D01*
X109460625Y-41329375D01*
X109372626Y-41257156D01*
X109272229Y-41203492D01*
X109163291Y-41170446D01*
X109050000Y-41159288D01*
X108600000Y-41159288D01*
X108486709Y-41170446D01*
X108377771Y-41203492D01*
X108277374Y-41257156D01*
X108189375Y-41329375D01*
X108117156Y-41417374D01*
X108063492Y-41517771D01*
X108030446Y-41626709D01*
X108019288Y-41740000D01*
X106694000Y-41740000D01*
X106694000Y-41625587D01*
X106668867Y-41499235D01*
X106619567Y-41380215D01*
X106547995Y-41273100D01*
X106456900Y-41182005D01*
X106349785Y-41110433D01*
X106230765Y-41061133D01*
X106199932Y-41055000D01*
X106230765Y-41048867D01*
X106349785Y-40999567D01*
X106456900Y-40927995D01*
X106547995Y-40836900D01*
X106619567Y-40729785D01*
X106668867Y-40610765D01*
X106694000Y-40484413D01*
X106694000Y-40355587D01*
X106668867Y-40229235D01*
X106619567Y-40110215D01*
X106547995Y-40003100D01*
X106456900Y-39912005D01*
X106349785Y-39840433D01*
X106230765Y-39791133D01*
X106199932Y-39785000D01*
X106230765Y-39778867D01*
X106349785Y-39729567D01*
X106456900Y-39657995D01*
X106547995Y-39566900D01*
X106619567Y-39459785D01*
X106668867Y-39340765D01*
X106694000Y-39214413D01*
X106694000Y-39085587D01*
X106668867Y-38959235D01*
X106619567Y-38840215D01*
X106547995Y-38733100D01*
X106456900Y-38642005D01*
X106349785Y-38570433D01*
X106230765Y-38521133D01*
X106104413Y-38496000D01*
X105975587Y-38496000D01*
X105849235Y-38521133D01*
X105730215Y-38570433D01*
X105623100Y-38642005D01*
X105532005Y-38733100D01*
X105460433Y-38840215D01*
X105411133Y-38959235D01*
X105386000Y-39085587D01*
X105386000Y-39159685D01*
X104593662Y-39952023D01*
X104576285Y-39966284D01*
X104562024Y-39983661D01*
X104562020Y-39983665D01*
X104519351Y-40035658D01*
X104477045Y-40114806D01*
X104450993Y-40200687D01*
X104442197Y-40290000D01*
X104444401Y-40312379D01*
X104444401Y-44344162D01*
X104431526Y-44328474D01*
X104377623Y-44284236D01*
X104316125Y-44251365D01*
X104249396Y-44231123D01*
X104180000Y-44224288D01*
X102580000Y-44224288D01*
X102510604Y-44231123D01*
X102443875Y-44251365D01*
X102382377Y-44284236D01*
X102328474Y-44328474D01*
X102284236Y-44382377D01*
X102251365Y-44443875D01*
X102231123Y-44510604D01*
X102224288Y-44580000D01*
X101979000Y-44580000D01*
X101979000Y-34090000D01*
X125221001Y-34090000D01*
X125221000Y-44971390D01*
G04 #@! TA.AperFunction,Conductor*
D25*
G36*
X125221000Y-44971390D02*
G01*
X125221000Y-44971391D01*
X125221001Y-87971455D01*
X125188345Y-88304502D01*
X125097009Y-88607022D01*
X124948651Y-88886042D01*
X124748923Y-89130932D01*
X124505436Y-89332363D01*
X124227457Y-89482665D01*
X123925582Y-89576110D01*
X123593631Y-89611000D01*
X122081390Y-89611000D01*
X122080075Y-89611129D01*
X122076415Y-89611155D01*
X122059287Y-89612955D01*
X122042072Y-89612955D01*
X122036809Y-89613508D01*
X121745885Y-89646141D01*
X121712272Y-89653286D01*
X121678589Y-89659955D01*
X121673536Y-89661519D01*
X121673530Y-89661521D01*
X121394489Y-89750038D01*
X121362926Y-89763566D01*
X121331157Y-89776660D01*
X121326502Y-89779177D01*
X121124916Y-89890000D01*
X106077961Y-89890000D01*
X105849536Y-89768544D01*
X105817794Y-89755461D01*
X105786205Y-89741922D01*
X105781150Y-89740357D01*
X105500895Y-89655743D01*
X105467199Y-89649071D01*
X105433599Y-89641929D01*
X105428337Y-89641376D01*
X105428335Y-89641376D01*
X105136984Y-89612809D01*
X105136976Y-89612809D01*
X105118610Y-89611000D01*
X103618535Y-89611000D01*
X103285498Y-89578345D01*
X102982978Y-89487009D01*
X102703958Y-89338651D01*
X102459068Y-89138923D01*
X102257637Y-88895436D01*
X102107335Y-88617457D01*
X102013890Y-88315582D01*
X101979000Y-87983631D01*
X101979000Y-78286341D01*
X102226000Y-78286341D01*
X102226000Y-78513659D01*
X102270347Y-78736609D01*
X102357338Y-78946624D01*
X102483629Y-79135632D01*
X102644368Y-79296371D01*
X102833376Y-79422662D01*
X103043391Y-79509653D01*
X103266341Y-79554000D01*
X103493659Y-79554000D01*
X103716609Y-79509653D01*
X103807634Y-79471949D01*
X104644401Y-80308716D01*
X104644401Y-81560086D01*
X104451949Y-81367634D01*
X104489653Y-81276609D01*
X104534000Y-81053659D01*
X104534000Y-80826341D01*
X104489653Y-80603391D01*
X104402662Y-80393376D01*
X104276371Y-80204368D01*
X104115632Y-80043629D01*
X103926624Y-79917338D01*
X103716609Y-79830347D01*
X103493659Y-79786000D01*
X103266341Y-79786000D01*
X103043391Y-79830347D01*
X102833376Y-79917338D01*
X102644368Y-80043629D01*
X102483629Y-80204368D01*
X102357338Y-80393376D01*
X102270347Y-80603391D01*
X102226000Y-80826341D01*
X102226000Y-81053659D01*
X102270347Y-81276609D01*
X102357338Y-81486624D01*
X102483629Y-81675632D01*
X102644368Y-81836371D01*
X102833376Y-81962662D01*
X103043391Y-82049653D01*
X103266341Y-82094000D01*
X103493659Y-82094000D01*
X103716609Y-82049653D01*
X103807634Y-82011949D01*
X104314190Y-82518505D01*
X104314190Y-82800968D01*
X104276371Y-82744368D01*
X104115632Y-82583629D01*
X103926624Y-82457338D01*
X103716609Y-82370347D01*
X103493659Y-82326000D01*
X103266341Y-82326000D01*
X103043391Y-82370347D01*
X102833376Y-82457338D01*
X102644368Y-82583629D01*
X102483629Y-82744368D01*
X102357338Y-82933376D01*
X102270347Y-83143391D01*
X102226000Y-83366341D01*
X102226000Y-83593659D01*
X102270347Y-83816609D01*
X102357338Y-84026624D01*
X102483629Y-84215632D01*
X102644368Y-84376371D01*
X102833376Y-84502662D01*
X103043391Y-84589653D01*
X103266341Y-84634000D01*
X103493659Y-84634000D01*
X103716609Y-84589653D01*
X103926624Y-84502662D01*
X104115632Y-84376371D01*
X104276371Y-84215632D01*
X104314189Y-84159033D01*
X104314189Y-85237420D01*
X104311986Y-85259789D01*
X104314189Y-85282158D01*
X104314189Y-85282164D01*
X104320782Y-85349101D01*
X104346833Y-85434982D01*
X104389139Y-85514130D01*
X104446073Y-85583505D01*
X104463456Y-85597771D01*
X105646000Y-86780315D01*
X105646000Y-86854413D01*
X105671133Y-86980765D01*
X105720433Y-87099785D01*
X105792005Y-87206900D01*
X105883100Y-87297995D01*
X105990215Y-87369567D01*
X106109235Y-87418867D01*
X106235587Y-87444000D01*
X106364413Y-87444000D01*
X106471973Y-87422605D01*
X106375029Y-87567692D01*
X106284269Y-87786806D01*
X106238000Y-88019416D01*
X106238000Y-88256584D01*
X106284269Y-88489194D01*
X106375029Y-88708308D01*
X106506792Y-88905505D01*
X106674495Y-89073208D01*
X106871692Y-89204971D01*
X107090806Y-89295731D01*
X107323416Y-89342000D01*
X107560584Y-89342000D01*
X107793194Y-89295731D01*
X108012308Y-89204971D01*
X108209505Y-89073208D01*
X108377208Y-88905505D01*
X108508971Y-88708308D01*
X108599731Y-88489194D01*
X108646000Y-88256584D01*
X108646000Y-88019416D01*
X108778000Y-88019416D01*
X108778000Y-88256584D01*
X108824269Y-88489194D01*
X108915029Y-88708308D01*
X109046792Y-88905505D01*
X109214495Y-89073208D01*
X109411692Y-89204971D01*
X109630806Y-89295731D01*
X109863416Y-89342000D01*
X110100584Y-89342000D01*
X110333194Y-89295731D01*
X110552308Y-89204971D01*
X110749505Y-89073208D01*
X110917208Y-88905505D01*
X111048971Y-88708308D01*
X111139731Y-88489194D01*
X111186000Y-88256584D01*
X111186000Y-88019416D01*
X111139731Y-87786806D01*
X111048971Y-87567692D01*
X110917208Y-87370495D01*
X110749505Y-87202792D01*
X110552308Y-87071029D01*
X110395600Y-87006118D01*
X110395600Y-86549915D01*
X111442829Y-87597145D01*
X111364269Y-87786806D01*
X111318000Y-88019416D01*
X111318000Y-88256584D01*
X111364269Y-88489194D01*
X111455029Y-88708308D01*
X111586792Y-88905505D01*
X111754495Y-89073208D01*
X111951692Y-89204971D01*
X112170806Y-89295731D01*
X112403416Y-89342000D01*
X112640584Y-89342000D01*
X112873194Y-89295731D01*
X113092308Y-89204971D01*
X113289505Y-89073208D01*
X113457208Y-88905505D01*
X113588971Y-88708308D01*
X113679731Y-88489194D01*
X113726000Y-88256584D01*
X113726000Y-88019416D01*
X113858000Y-88019416D01*
X113858000Y-88256584D01*
X113904269Y-88489194D01*
X113995029Y-88708308D01*
X114126792Y-88905505D01*
X114294495Y-89073208D01*
X114491692Y-89204971D01*
X114710806Y-89295731D01*
X114943416Y-89342000D01*
X115180584Y-89342000D01*
X115413194Y-89295731D01*
X115632308Y-89204971D01*
X115829505Y-89073208D01*
X115997208Y-88905505D01*
X116128971Y-88708308D01*
X116219731Y-88489194D01*
X116266000Y-88256584D01*
X116266000Y-88019416D01*
X116398000Y-88019416D01*
X116398000Y-88256584D01*
X116444269Y-88489194D01*
X116535029Y-88708308D01*
X116666792Y-88905505D01*
X116834495Y-89073208D01*
X117031692Y-89204971D01*
X117250806Y-89295731D01*
X117483416Y-89342000D01*
X117720584Y-89342000D01*
X117953194Y-89295731D01*
X118172308Y-89204971D01*
X118369505Y-89073208D01*
X118537208Y-88905505D01*
X118668971Y-88708308D01*
X118759731Y-88489194D01*
X118806000Y-88256584D01*
X118806000Y-88019416D01*
X118759731Y-87786806D01*
X118668971Y-87567692D01*
X118637621Y-87520773D01*
X118944575Y-87213819D01*
X118943123Y-87218604D01*
X118936288Y-87288000D01*
X118936288Y-88988000D01*
X118943123Y-89057396D01*
X118963365Y-89124125D01*
X118996236Y-89185623D01*
X119040474Y-89239526D01*
X119094377Y-89283764D01*
X119155875Y-89316635D01*
X119222604Y-89336877D01*
X119292000Y-89343712D01*
X120992000Y-89343712D01*
X121061396Y-89336877D01*
X121128125Y-89316635D01*
X121189623Y-89283764D01*
X121243526Y-89239526D01*
X121287764Y-89185623D01*
X121320635Y-89124125D01*
X121340877Y-89057396D01*
X121347712Y-88988000D01*
X121347712Y-87288000D01*
X121340877Y-87218604D01*
X121320635Y-87151875D01*
X121287764Y-87090377D01*
X121243526Y-87036474D01*
X121189623Y-86992236D01*
X121128125Y-86959365D01*
X121061396Y-86939123D01*
X120992000Y-86932288D01*
X119292000Y-86932288D01*
X119222604Y-86939123D01*
X119217819Y-86940574D01*
X120238194Y-85920200D01*
X120705305Y-85920200D01*
X120783100Y-85997995D01*
X120890215Y-86069567D01*
X121009235Y-86118867D01*
X121135587Y-86144000D01*
X121264413Y-86144000D01*
X121390765Y-86118867D01*
X121509785Y-86069567D01*
X121616900Y-85997995D01*
X121707995Y-85906900D01*
X121779567Y-85799785D01*
X121828867Y-85680765D01*
X121854000Y-85554413D01*
X121854000Y-85425587D01*
X121828867Y-85299235D01*
X121779567Y-85180215D01*
X121707995Y-85073100D01*
X121616900Y-84982005D01*
X121509785Y-84910433D01*
X121390765Y-84861133D01*
X121264413Y-84836000D01*
X121135587Y-84836000D01*
X121009235Y-84861133D01*
X120890215Y-84910433D01*
X120783100Y-84982005D01*
X120705305Y-85059800D01*
X120081127Y-85059800D01*
X120060000Y-85057719D01*
X120038873Y-85059800D01*
X120038871Y-85059800D01*
X119975666Y-85066025D01*
X119894573Y-85090624D01*
X119819838Y-85130571D01*
X119754331Y-85184331D01*
X119740858Y-85200748D01*
X117958952Y-86982654D01*
X117953194Y-86980269D01*
X117720584Y-86934000D01*
X117483416Y-86934000D01*
X117250806Y-86980269D01*
X117031692Y-87071029D01*
X116834495Y-87202792D01*
X116666792Y-87370495D01*
X116535029Y-87567692D01*
X116444269Y-87786806D01*
X116398000Y-88019416D01*
X116266000Y-88019416D01*
X116219731Y-87786806D01*
X116128971Y-87567692D01*
X115997208Y-87370495D01*
X115829505Y-87202792D01*
X115632308Y-87071029D01*
X115413194Y-86980269D01*
X115180584Y-86934000D01*
X114943416Y-86934000D01*
X114710806Y-86980269D01*
X114491692Y-87071029D01*
X114294495Y-87202792D01*
X114126792Y-87370495D01*
X113995029Y-87567692D01*
X113904269Y-87786806D01*
X113858000Y-88019416D01*
X113726000Y-88019416D01*
X113679731Y-87786806D01*
X113588971Y-87567692D01*
X113457208Y-87370495D01*
X113289505Y-87202792D01*
X113092308Y-87071029D01*
X112873194Y-86980269D01*
X112640584Y-86934000D01*
X112403416Y-86934000D01*
X112170806Y-86980269D01*
X112131052Y-86996736D01*
X110805600Y-85671285D01*
X110805600Y-75928715D01*
X111937980Y-74796336D01*
X111937985Y-74796330D01*
X114406339Y-72327977D01*
X114423716Y-72313716D01*
X114437977Y-72296339D01*
X114437980Y-72296336D01*
X114480649Y-72244343D01*
X114480650Y-72244342D01*
X114522956Y-72165194D01*
X114549007Y-72079313D01*
X114555600Y-72012376D01*
X114555600Y-72012369D01*
X114557803Y-71990000D01*
X114555600Y-71967631D01*
X114555600Y-71959295D01*
X114607995Y-71906900D01*
X114679567Y-71799785D01*
X114728867Y-71680765D01*
X114754000Y-71554413D01*
X114754000Y-71425587D01*
X114728867Y-71299235D01*
X114679567Y-71180215D01*
X114607995Y-71073100D01*
X114516900Y-70982005D01*
X114409785Y-70910433D01*
X114290765Y-70861133D01*
X114164413Y-70836000D01*
X114035587Y-70836000D01*
X113909235Y-70861133D01*
X113790215Y-70910433D01*
X113683100Y-70982005D01*
X113592005Y-71073100D01*
X113520433Y-71180215D01*
X113471133Y-71299235D01*
X113446000Y-71425587D01*
X113446000Y-71554413D01*
X113471133Y-71680765D01*
X113520433Y-71799785D01*
X113570688Y-71874996D01*
X111293670Y-74152015D01*
X111293664Y-74152020D01*
X111004000Y-74441684D01*
X111004000Y-74425587D01*
X110978867Y-74299235D01*
X110929567Y-74180215D01*
X110857995Y-74073100D01*
X110766900Y-73982005D01*
X110659785Y-73910433D01*
X110540765Y-73861133D01*
X110414413Y-73836000D01*
X110285587Y-73836000D01*
X110159235Y-73861133D01*
X110040215Y-73910433D01*
X109933100Y-73982005D01*
X109842005Y-74073100D01*
X109770433Y-74180215D01*
X109721133Y-74299235D01*
X109696000Y-74425587D01*
X109696000Y-74499685D01*
X109633666Y-74562019D01*
X109616284Y-74576284D01*
X109559350Y-74645659D01*
X109517044Y-74724807D01*
X109509297Y-74750347D01*
X109495347Y-74796336D01*
X109490993Y-74810688D01*
X109484400Y-74877625D01*
X109484400Y-74877631D01*
X109482197Y-74900000D01*
X109484400Y-74922369D01*
X109484401Y-87040912D01*
X109411692Y-87071029D01*
X109214495Y-87202792D01*
X109046792Y-87370495D01*
X108915029Y-87567692D01*
X108824269Y-87786806D01*
X108778000Y-88019416D01*
X108646000Y-88019416D01*
X108599731Y-87786806D01*
X108508971Y-87567692D01*
X108377208Y-87370495D01*
X108209505Y-87202792D01*
X108012308Y-87071029D01*
X107793194Y-86980269D01*
X107560584Y-86934000D01*
X107323416Y-86934000D01*
X107090806Y-86980269D01*
X106895576Y-87061136D01*
X106928867Y-86980765D01*
X106954000Y-86854413D01*
X106954000Y-86725587D01*
X106928867Y-86599235D01*
X106922038Y-86582749D01*
X107009235Y-86618867D01*
X107135587Y-86644000D01*
X107264413Y-86644000D01*
X107390765Y-86618867D01*
X107509785Y-86569567D01*
X107616900Y-86497995D01*
X107707995Y-86406900D01*
X107779567Y-86299785D01*
X107828867Y-86180765D01*
X107854000Y-86054413D01*
X107854000Y-85925587D01*
X107828867Y-85799235D01*
X107779567Y-85680215D01*
X107707995Y-85573100D01*
X107616900Y-85482005D01*
X107509785Y-85410433D01*
X107390765Y-85361133D01*
X107264413Y-85336000D01*
X107135587Y-85336000D01*
X107009235Y-85361133D01*
X106890215Y-85410433D01*
X106783100Y-85482005D01*
X106730705Y-85534400D01*
X106188715Y-85534400D01*
X105555600Y-84901285D01*
X105555600Y-80142366D01*
X105557803Y-80119999D01*
X105555600Y-80097633D01*
X105555600Y-80097624D01*
X105549007Y-80030687D01*
X105522956Y-79944806D01*
X105480650Y-79865658D01*
X105423716Y-79796284D01*
X105406333Y-79782018D01*
X104451949Y-78827634D01*
X104489653Y-78736609D01*
X104534000Y-78513659D01*
X104534000Y-78286341D01*
X104489653Y-78063391D01*
X104402662Y-77853376D01*
X104276371Y-77664368D01*
X104115632Y-77503629D01*
X103926624Y-77377338D01*
X103716609Y-77290347D01*
X103493659Y-77246000D01*
X103266341Y-77246000D01*
X103043391Y-77290347D01*
X102833376Y-77377338D01*
X102644368Y-77503629D01*
X102483629Y-77664368D01*
X102357338Y-77853376D01*
X102270347Y-78063391D01*
X102226000Y-78286341D01*
X101979000Y-78286341D01*
X101979000Y-75746341D01*
X102226000Y-75746341D01*
X102226000Y-75973659D01*
X102270347Y-76196609D01*
X102357338Y-76406624D01*
X102483629Y-76595632D01*
X102644368Y-76756371D01*
X102833376Y-76882662D01*
X103043391Y-76969653D01*
X103266341Y-77014000D01*
X103493659Y-77014000D01*
X103716609Y-76969653D01*
X103926624Y-76882662D01*
X104115632Y-76756371D01*
X104276371Y-76595632D01*
X104402662Y-76406624D01*
X104489653Y-76196609D01*
X104534000Y-75973659D01*
X104534000Y-75746341D01*
X104489653Y-75523391D01*
X104402662Y-75313376D01*
X104276371Y-75124368D01*
X104115632Y-74963629D01*
X103926624Y-74837338D01*
X103716609Y-74750347D01*
X103493659Y-74706000D01*
X103266341Y-74706000D01*
X103043391Y-74750347D01*
X102833376Y-74837338D01*
X102644368Y-74963629D01*
X102483629Y-75124368D01*
X102357338Y-75313376D01*
X102270347Y-75523391D01*
X102226000Y-75746341D01*
X101979000Y-75746341D01*
X101979000Y-73206341D01*
X102226000Y-73206341D01*
X102226000Y-73433659D01*
X102270347Y-73656609D01*
X102357338Y-73866624D01*
X102483629Y-74055632D01*
X102644368Y-74216371D01*
X102833376Y-74342662D01*
X103043391Y-74429653D01*
X103266341Y-74474000D01*
X103493659Y-74474000D01*
X103716609Y-74429653D01*
X103926624Y-74342662D01*
X104115632Y-74216371D01*
X104276371Y-74055632D01*
X104402662Y-73866624D01*
X104489653Y-73656609D01*
X104534000Y-73433659D01*
X104534000Y-73206341D01*
X104489653Y-72983391D01*
X104402662Y-72773376D01*
X104276371Y-72584368D01*
X104115632Y-72423629D01*
X103926624Y-72297338D01*
X103716609Y-72210347D01*
X103493659Y-72166000D01*
X103266341Y-72166000D01*
X103043391Y-72210347D01*
X102833376Y-72297338D01*
X102644368Y-72423629D01*
X102483629Y-72584368D01*
X102357338Y-72773376D01*
X102270347Y-72983391D01*
X102226000Y-73206341D01*
X101979000Y-73206341D01*
X101979000Y-70666341D01*
X102226000Y-70666341D01*
X102226000Y-70893659D01*
X102270347Y-71116609D01*
X102357338Y-71326624D01*
X102483629Y-71515632D01*
X102644368Y-71676371D01*
X102833376Y-71802662D01*
X103043391Y-71889653D01*
X103266341Y-71934000D01*
X103493659Y-71934000D01*
X103716609Y-71889653D01*
X103926624Y-71802662D01*
X104115632Y-71676371D01*
X104276371Y-71515632D01*
X104402662Y-71326624D01*
X104489653Y-71116609D01*
X104534000Y-70893659D01*
X104534000Y-70666341D01*
X104489653Y-70443391D01*
X104402662Y-70233376D01*
X104276371Y-70044368D01*
X104115632Y-69883629D01*
X103926624Y-69757338D01*
X103716609Y-69670347D01*
X103493659Y-69626000D01*
X103266341Y-69626000D01*
X103043391Y-69670347D01*
X102833376Y-69757338D01*
X102644368Y-69883629D01*
X102483629Y-70044368D01*
X102357338Y-70233376D01*
X102270347Y-70443391D01*
X102226000Y-70666341D01*
X101979000Y-70666341D01*
X101979000Y-48696222D01*
X102641962Y-48696222D01*
X102720441Y-48873739D01*
X102919180Y-48984087D01*
X103135627Y-49053542D01*
X103361466Y-49079437D01*
X103588017Y-49060774D01*
X103806573Y-48998273D01*
X104008738Y-48894334D01*
X104039559Y-48873739D01*
X104118038Y-48696222D01*
X103380000Y-47958184D01*
X102641962Y-48696222D01*
X101979000Y-48696222D01*
X101979000Y-47901466D01*
X102220563Y-47901466D01*
X102239226Y-48128017D01*
X102301727Y-48346573D01*
X102405666Y-48548738D01*
X102426261Y-48579559D01*
X102603778Y-48658038D01*
X103341816Y-47920000D01*
X102603778Y-47181962D01*
X102426261Y-47260441D01*
X102315913Y-47459180D01*
X102246458Y-47675627D01*
X102220563Y-47901466D01*
X101979000Y-47901466D01*
X101979000Y-47143778D01*
X102641962Y-47143778D01*
X103380000Y-47881816D01*
X104118038Y-47143778D01*
X104039559Y-46966261D01*
X103840820Y-46855913D01*
X103624373Y-46786458D01*
X103398534Y-46760563D01*
X103171983Y-46779226D01*
X102953427Y-46841727D01*
X102751262Y-46945666D01*
X102720441Y-46966261D01*
X102641962Y-47143778D01*
X101979000Y-47143778D01*
X101979000Y-44580000D01*
X102224288Y-44580000D01*
X102224288Y-46180000D01*
X102231123Y-46249396D01*
X102251365Y-46316125D01*
X102284236Y-46377623D01*
X102328474Y-46431526D01*
X102382377Y-46475764D01*
X102443875Y-46508635D01*
X102510604Y-46528877D01*
X102580000Y-46535712D01*
X104180000Y-46535712D01*
X104249396Y-46528877D01*
X104316125Y-46508635D01*
X104377623Y-46475764D01*
X104431526Y-46431526D01*
X104444401Y-46415839D01*
X104444400Y-47466444D01*
X104354334Y-47291262D01*
X104333739Y-47260441D01*
X104156222Y-47181962D01*
X103418184Y-47920000D01*
X104156222Y-48658038D01*
X104333739Y-48579559D01*
X104444087Y-48380820D01*
X104444400Y-48379843D01*
X104444400Y-50014141D01*
X104402662Y-49913376D01*
X104276371Y-49724368D01*
X104115632Y-49563629D01*
X103926624Y-49437338D01*
X103716609Y-49350347D01*
X103493659Y-49306000D01*
X103266341Y-49306000D01*
X103043391Y-49350347D01*
X102833376Y-49437338D01*
X102644368Y-49563629D01*
X102483629Y-49724368D01*
X102357338Y-49913376D01*
X102270347Y-50123391D01*
X102226000Y-50346341D01*
X102226000Y-50573659D01*
X102270347Y-50796609D01*
X102357338Y-51006624D01*
X102483629Y-51195632D01*
X102644368Y-51356371D01*
X102833376Y-51482662D01*
X103043391Y-51569653D01*
X103266341Y-51614000D01*
X103493659Y-51614000D01*
X103716609Y-51569653D01*
X103926624Y-51482662D01*
X104115632Y-51356371D01*
X104276371Y-51195632D01*
X104402662Y-51006624D01*
X104444400Y-50905859D01*
X104444400Y-52554141D01*
X104402662Y-52453376D01*
X104276371Y-52264368D01*
X104115632Y-52103629D01*
X103926624Y-51977338D01*
X103716609Y-51890347D01*
X103493659Y-51846000D01*
X103266341Y-51846000D01*
X103043391Y-51890347D01*
X102833376Y-51977338D01*
X102644368Y-52103629D01*
X102483629Y-52264368D01*
X102357338Y-52453376D01*
X102270347Y-52663391D01*
X102226000Y-52886341D01*
X102226000Y-53113659D01*
X102270347Y-53336609D01*
X102357338Y-53546624D01*
X102483629Y-53735632D01*
X102644368Y-53896371D01*
X102833376Y-54022662D01*
X103043391Y-54109653D01*
X103266341Y-54154000D01*
X103493659Y-54154000D01*
X103716609Y-54109653D01*
X103926624Y-54022662D01*
X104115632Y-53896371D01*
X104276371Y-53735632D01*
X104402662Y-53546624D01*
X104444400Y-53445859D01*
X104444400Y-53831284D01*
X103807634Y-54468051D01*
X103716609Y-54430347D01*
X103493659Y-54386000D01*
X103266341Y-54386000D01*
X103043391Y-54430347D01*
X102833376Y-54517338D01*
X102644368Y-54643629D01*
X102483629Y-54804368D01*
X102357338Y-54993376D01*
X102270347Y-55203391D01*
X102226000Y-55426341D01*
X102226000Y-55653659D01*
X102270347Y-55876609D01*
X102357338Y-56086624D01*
X102483629Y-56275632D01*
X102644368Y-56436371D01*
X102833376Y-56562662D01*
X103043391Y-56649653D01*
X103266341Y-56694000D01*
X103493659Y-56694000D01*
X103716609Y-56649653D01*
X103926624Y-56562662D01*
X104115632Y-56436371D01*
X104276371Y-56275632D01*
X104402662Y-56086624D01*
X104489653Y-55876609D01*
X104534000Y-55653659D01*
X104534000Y-55426341D01*
X104489653Y-55203391D01*
X104451949Y-55112366D01*
X104774610Y-54789706D01*
X104774610Y-56041074D01*
X103807634Y-57008051D01*
X103716609Y-56970347D01*
X103493659Y-56926000D01*
X103266341Y-56926000D01*
X103043391Y-56970347D01*
X102833376Y-57057338D01*
X102644368Y-57183629D01*
X102483629Y-57344368D01*
X102357338Y-57533376D01*
X102270347Y-57743391D01*
X102226000Y-57966341D01*
X102226000Y-58193659D01*
X102270347Y-58416609D01*
X102357338Y-58626624D01*
X102483629Y-58815632D01*
X102644368Y-58976371D01*
X102833376Y-59102662D01*
X103043391Y-59189653D01*
X103266341Y-59234000D01*
X103493659Y-59234000D01*
X103716609Y-59189653D01*
X103926624Y-59102662D01*
X104115632Y-58976371D01*
X104276371Y-58815632D01*
X104402662Y-58626624D01*
X104489653Y-58416609D01*
X104534000Y-58193659D01*
X104534000Y-57966341D01*
X104489653Y-57743391D01*
X104451949Y-57652366D01*
X105104820Y-56999496D01*
X105104820Y-58250864D01*
X103807634Y-59548051D01*
X103716609Y-59510347D01*
X103493659Y-59466000D01*
X103266341Y-59466000D01*
X103043391Y-59510347D01*
X102833376Y-59597338D01*
X102644368Y-59723629D01*
X102483629Y-59884368D01*
X102357338Y-60073376D01*
X102270347Y-60283391D01*
X102226000Y-60506341D01*
X102226000Y-60733659D01*
X102270347Y-60956609D01*
X102357338Y-61166624D01*
X102483629Y-61355632D01*
X102644368Y-61516371D01*
X102833376Y-61642662D01*
X103043391Y-61729653D01*
X103266341Y-61774000D01*
X103493659Y-61774000D01*
X103716609Y-61729653D01*
X103926624Y-61642662D01*
X104115632Y-61516371D01*
X104276371Y-61355632D01*
X104402662Y-61166624D01*
X104489653Y-60956609D01*
X104534000Y-60733659D01*
X104534000Y-60506341D01*
X104489653Y-60283391D01*
X104451949Y-60192366D01*
X105435030Y-59209286D01*
X105435030Y-60460654D01*
X103807634Y-62088051D01*
X103716609Y-62050347D01*
X103493659Y-62006000D01*
X103266341Y-62006000D01*
X103043391Y-62050347D01*
X102833376Y-62137338D01*
X102644368Y-62263629D01*
X102483629Y-62424368D01*
X102357338Y-62613376D01*
X102270347Y-62823391D01*
X102226000Y-63046341D01*
X102226000Y-63273659D01*
X102270347Y-63496609D01*
X102357338Y-63706624D01*
X102483629Y-63895632D01*
X102644368Y-64056371D01*
X102833376Y-64182662D01*
X103043391Y-64269653D01*
X103266341Y-64314000D01*
X103493659Y-64314000D01*
X103716609Y-64269653D01*
X103926624Y-64182662D01*
X104115632Y-64056371D01*
X104276371Y-63895632D01*
X104402662Y-63706624D01*
X104489653Y-63496609D01*
X104534000Y-63273659D01*
X104534000Y-63046341D01*
X104489653Y-62823391D01*
X104451949Y-62732366D01*
X105765241Y-61419075D01*
X105765240Y-62670445D01*
X103807634Y-64628051D01*
X103716609Y-64590347D01*
X103493659Y-64546000D01*
X103266341Y-64546000D01*
X103043391Y-64590347D01*
X102833376Y-64677338D01*
X102644368Y-64803629D01*
X102483629Y-64964368D01*
X102357338Y-65153376D01*
X102270347Y-65363391D01*
X102226000Y-65586341D01*
X102226000Y-65813659D01*
X102270347Y-66036609D01*
X102357338Y-66246624D01*
X102483629Y-66435632D01*
X102644368Y-66596371D01*
X102833376Y-66722662D01*
X103043391Y-66809653D01*
X103266341Y-66854000D01*
X103493659Y-66854000D01*
X103716609Y-66809653D01*
X103926624Y-66722662D01*
X104115632Y-66596371D01*
X104276371Y-66435632D01*
X104402662Y-66246624D01*
X104489653Y-66036609D01*
X104534000Y-65813659D01*
X104534000Y-65586341D01*
X104489653Y-65363391D01*
X104451949Y-65272366D01*
X104972894Y-64751421D01*
X104972893Y-66002791D01*
X103807634Y-67168051D01*
X103716609Y-67130347D01*
X103493659Y-67086000D01*
X103266341Y-67086000D01*
X103043391Y-67130347D01*
X102833376Y-67217338D01*
X102644368Y-67343629D01*
X102483629Y-67504368D01*
X102357338Y-67693376D01*
X102270347Y-67903391D01*
X102226000Y-68126341D01*
X102226000Y-68353659D01*
X102270347Y-68576609D01*
X102357338Y-68786624D01*
X102483629Y-68975632D01*
X102644368Y-69136371D01*
X102833376Y-69262662D01*
X103043391Y-69349653D01*
X103266341Y-69394000D01*
X103493659Y-69394000D01*
X103716609Y-69349653D01*
X103926624Y-69262662D01*
X104115632Y-69136371D01*
X104276371Y-68975632D01*
X104402662Y-68786624D01*
X104489653Y-68576609D01*
X104534000Y-68353659D01*
X104534000Y-68126341D01*
X104489653Y-67903391D01*
X104451949Y-67812366D01*
X105303104Y-66961212D01*
X105303103Y-75630424D01*
X105303103Y-75630425D01*
X105303104Y-78568639D01*
X105283100Y-78582005D01*
X105192005Y-78673100D01*
X105120433Y-78780215D01*
X105071133Y-78899235D01*
X105046000Y-79025587D01*
X105046000Y-79154413D01*
X105071133Y-79280765D01*
X105120433Y-79399785D01*
X105192005Y-79506900D01*
X105283100Y-79597995D01*
X105390215Y-79669567D01*
X105509235Y-79718867D01*
X105635587Y-79744000D01*
X105764413Y-79744000D01*
X105890765Y-79718867D01*
X106009785Y-79669567D01*
X106116900Y-79597995D01*
X106207995Y-79506900D01*
X106279567Y-79399785D01*
X106328867Y-79280765D01*
X106354000Y-79154413D01*
X106354000Y-79025587D01*
X106328867Y-78899235D01*
X106279567Y-78780215D01*
X106207995Y-78673100D01*
X106163503Y-78628608D01*
X106163503Y-67978500D01*
X108242429Y-67978500D01*
X108242429Y-70336500D01*
X111957572Y-70336500D01*
X111957572Y-67978500D01*
X108242429Y-67978500D01*
X106163503Y-67978500D01*
X106163503Y-64422942D01*
X107145113Y-63441334D01*
X107161529Y-63427862D01*
X107215289Y-63362355D01*
X107255236Y-63287620D01*
X107266563Y-63250279D01*
X107279835Y-63206528D01*
X107288141Y-63122193D01*
X107286060Y-63101064D01*
X107286060Y-56622044D01*
X107919801Y-55988304D01*
X107919800Y-64468873D01*
X107917719Y-64490000D01*
X107919800Y-64511127D01*
X107919800Y-64511128D01*
X107926025Y-64574333D01*
X107950624Y-64655426D01*
X107990571Y-64730161D01*
X108044331Y-64795669D01*
X108060753Y-64809146D01*
X108196000Y-64944393D01*
X108196000Y-65054413D01*
X108221133Y-65180765D01*
X108270433Y-65299785D01*
X108342005Y-65406900D01*
X108433100Y-65497995D01*
X108540215Y-65569567D01*
X108659235Y-65618867D01*
X108785587Y-65644000D01*
X108914413Y-65644000D01*
X109040765Y-65618867D01*
X109159785Y-65569567D01*
X109266900Y-65497995D01*
X109357995Y-65406900D01*
X109429567Y-65299785D01*
X109478867Y-65180765D01*
X109485292Y-65148463D01*
X114264518Y-65148463D01*
X114266600Y-65169599D01*
X114266599Y-66145082D01*
X114264518Y-66166209D01*
X114266599Y-66187336D01*
X114266599Y-66187337D01*
X114272824Y-66250542D01*
X114297423Y-66331635D01*
X114337370Y-66406370D01*
X114391130Y-66471878D01*
X114407552Y-66485355D01*
X114769801Y-66847605D01*
X114769800Y-75208755D01*
X114767719Y-75229882D01*
X114769800Y-75251009D01*
X114769800Y-75251010D01*
X114776025Y-75314215D01*
X114800624Y-75395308D01*
X114840571Y-75470043D01*
X114894331Y-75535551D01*
X114910754Y-75549029D01*
X122576206Y-83214482D01*
X122546000Y-83366341D01*
X122546000Y-83593659D01*
X122590347Y-83816609D01*
X122677338Y-84026624D01*
X122803629Y-84215632D01*
X122964368Y-84376371D01*
X123153376Y-84502662D01*
X123363391Y-84589653D01*
X123586341Y-84634000D01*
X123813659Y-84634000D01*
X124036609Y-84589653D01*
X124246624Y-84502662D01*
X124435632Y-84376371D01*
X124596371Y-84215632D01*
X124722662Y-84026624D01*
X124809653Y-83816609D01*
X124854000Y-83593659D01*
X124854000Y-83366341D01*
X124809653Y-83143391D01*
X124722662Y-82933376D01*
X124596371Y-82744368D01*
X124435632Y-82583629D01*
X124246624Y-82457338D01*
X124036609Y-82370347D01*
X123813659Y-82326000D01*
X123586341Y-82326000D01*
X123363391Y-82370347D01*
X123153376Y-82457338D01*
X123082924Y-82504412D01*
X121948712Y-81370200D01*
X122629114Y-81370200D01*
X122677338Y-81486624D01*
X122803629Y-81675632D01*
X122964368Y-81836371D01*
X123153376Y-81962662D01*
X123363391Y-82049653D01*
X123586341Y-82094000D01*
X123813659Y-82094000D01*
X124036609Y-82049653D01*
X124246624Y-81962662D01*
X124435632Y-81836371D01*
X124596371Y-81675632D01*
X124722662Y-81486624D01*
X124809653Y-81276609D01*
X124854000Y-81053659D01*
X124854000Y-80826341D01*
X124809653Y-80603391D01*
X124722662Y-80393376D01*
X124596371Y-80204368D01*
X124435632Y-80043629D01*
X124246624Y-79917338D01*
X124036609Y-79830347D01*
X123813659Y-79786000D01*
X123586341Y-79786000D01*
X123363391Y-79830347D01*
X123153376Y-79917338D01*
X122964368Y-80043629D01*
X122803629Y-80204368D01*
X122677338Y-80393376D01*
X122629114Y-80509800D01*
X121483457Y-80509800D01*
X115930200Y-74956545D01*
X115930200Y-66511126D01*
X115932281Y-66489999D01*
X115929438Y-66461133D01*
X115923975Y-66405666D01*
X115899376Y-66324573D01*
X115859429Y-66249838D01*
X115805669Y-66184331D01*
X115789251Y-66170857D01*
X115630200Y-66011807D01*
X115630200Y-65884695D01*
X115707995Y-65806900D01*
X115779567Y-65699785D01*
X115828867Y-65580765D01*
X115854000Y-65454413D01*
X115854000Y-65447413D01*
X115963939Y-65401874D01*
X116071054Y-65330302D01*
X116162149Y-65239207D01*
X116233721Y-65132092D01*
X116283021Y-65013072D01*
X116308154Y-64886720D01*
X116308154Y-64757894D01*
X116283021Y-64631542D01*
X116233721Y-64512522D01*
X116162149Y-64405407D01*
X116071054Y-64314312D01*
X115963939Y-64242740D01*
X115844919Y-64193440D01*
X115718567Y-64168307D01*
X115589741Y-64168307D01*
X115463389Y-64193440D01*
X115344369Y-64242740D01*
X115237254Y-64314312D01*
X115159459Y-64392107D01*
X115044081Y-64392107D01*
X115022954Y-64390026D01*
X115001827Y-64392107D01*
X115001826Y-64392107D01*
X114938621Y-64398332D01*
X114857528Y-64422931D01*
X114782793Y-64462878D01*
X114717286Y-64516638D01*
X114703817Y-64533051D01*
X114407547Y-64829322D01*
X114391131Y-64842794D01*
X114345986Y-64897804D01*
X114337371Y-64908301D01*
X114297423Y-64983037D01*
X114272825Y-65064129D01*
X114264518Y-65148463D01*
X109485292Y-65148463D01*
X109504000Y-65054413D01*
X109504000Y-64925587D01*
X109478867Y-64799235D01*
X109429567Y-64680215D01*
X109357995Y-64573100D01*
X109266900Y-64482005D01*
X109159785Y-64410433D01*
X109040765Y-64361133D01*
X108914413Y-64336000D01*
X108804393Y-64336000D01*
X108780200Y-64311807D01*
X108780200Y-63742000D01*
X109604287Y-63742000D01*
X109611122Y-63811396D01*
X109631364Y-63878125D01*
X109664235Y-63939624D01*
X109708473Y-63993527D01*
X109762376Y-64037765D01*
X109823875Y-64070636D01*
X109890604Y-64090878D01*
X109960000Y-64097713D01*
X110344500Y-64096000D01*
X110433000Y-64007500D01*
X110433000Y-63019000D01*
X109694500Y-63019000D01*
X109606000Y-63107500D01*
X109604287Y-63742000D01*
X108780200Y-63742000D01*
X108780200Y-62242000D01*
X109604287Y-62242000D01*
X109606000Y-62876500D01*
X109694500Y-62965000D01*
X110433000Y-62965000D01*
X110433000Y-61976500D01*
X110344500Y-61888000D01*
X109960000Y-61886287D01*
X109890604Y-61893122D01*
X109823875Y-61913364D01*
X109762376Y-61946235D01*
X109708473Y-61990473D01*
X109664235Y-62044376D01*
X109631364Y-62105875D01*
X109611122Y-62172604D01*
X109604287Y-62242000D01*
X108780200Y-62242000D01*
X108780200Y-58086261D01*
X108808604Y-58094877D01*
X108878000Y-58101712D01*
X109274401Y-58101712D01*
X109274401Y-58597621D01*
X109272197Y-58620000D01*
X109280993Y-58709313D01*
X109307045Y-58795194D01*
X109349351Y-58874342D01*
X109392020Y-58926335D01*
X109392024Y-58926339D01*
X109406285Y-58943716D01*
X109423662Y-58957977D01*
X111394400Y-60928716D01*
X111394401Y-61886288D01*
X111260000Y-61886288D01*
X111190604Y-61893123D01*
X111123875Y-61913365D01*
X111110001Y-61920781D01*
X111096125Y-61913364D01*
X111029396Y-61893122D01*
X110960000Y-61886287D01*
X110575500Y-61888000D01*
X110487000Y-61976500D01*
X110487000Y-62965000D01*
X110507000Y-62965000D01*
X110507000Y-63019000D01*
X110487000Y-63019000D01*
X110487000Y-64007500D01*
X110575500Y-64096000D01*
X110960000Y-64097713D01*
X111029396Y-64090878D01*
X111096125Y-64070636D01*
X111110001Y-64063219D01*
X111123875Y-64070635D01*
X111190604Y-64090877D01*
X111260000Y-64097712D01*
X112260000Y-64097712D01*
X112329396Y-64090877D01*
X112396125Y-64070635D01*
X112410000Y-64063219D01*
X112423875Y-64070635D01*
X112490604Y-64090877D01*
X112560000Y-64097712D01*
X112575560Y-64097712D01*
X112520433Y-64180215D01*
X112471133Y-64299235D01*
X112446000Y-64425587D01*
X112446000Y-64554413D01*
X112471133Y-64680765D01*
X112520433Y-64799785D01*
X112592005Y-64906900D01*
X112683100Y-64997995D01*
X112790215Y-65069567D01*
X112909235Y-65118867D01*
X113035587Y-65144000D01*
X113164413Y-65144000D01*
X113290765Y-65118867D01*
X113409785Y-65069567D01*
X113516900Y-64997995D01*
X113607995Y-64906900D01*
X113679567Y-64799785D01*
X113728867Y-64680765D01*
X113754000Y-64554413D01*
X113754000Y-64425587D01*
X113728867Y-64299235D01*
X113679567Y-64180215D01*
X113620461Y-64091757D01*
X113629396Y-64090877D01*
X113696125Y-64070635D01*
X113757623Y-64037764D01*
X113811526Y-63993526D01*
X113855764Y-63939623D01*
X113888635Y-63878125D01*
X113908877Y-63811396D01*
X113915712Y-63742000D01*
X114430287Y-63742000D01*
X114437122Y-63811396D01*
X114457364Y-63878125D01*
X114490235Y-63939624D01*
X114534473Y-63993527D01*
X114588376Y-64037765D01*
X114649875Y-64070636D01*
X114716604Y-64090878D01*
X114786000Y-64097713D01*
X115170500Y-64096000D01*
X115259000Y-64007500D01*
X115259000Y-63019000D01*
X114520500Y-63019000D01*
X114432000Y-63107500D01*
X114430287Y-63742000D01*
X113915712Y-63742000D01*
X113915712Y-62242000D01*
X114430287Y-62242000D01*
X114432000Y-62876500D01*
X114520500Y-62965000D01*
X115259000Y-62965000D01*
X115259000Y-61976500D01*
X115170500Y-61888000D01*
X114786000Y-61886287D01*
X114716604Y-61893122D01*
X114649875Y-61913364D01*
X114588376Y-61946235D01*
X114534473Y-61990473D01*
X114490235Y-62044376D01*
X114457364Y-62105875D01*
X114437122Y-62172604D01*
X114430287Y-62242000D01*
X113915712Y-62242000D01*
X113908877Y-62172604D01*
X113888635Y-62105875D01*
X113855764Y-62044377D01*
X113811526Y-61990474D01*
X113757623Y-61946236D01*
X113696125Y-61913365D01*
X113629396Y-61893123D01*
X113560000Y-61886288D01*
X112560000Y-61886288D01*
X112490604Y-61893123D01*
X112423875Y-61913365D01*
X112410000Y-61920781D01*
X112396125Y-61913365D01*
X112329396Y-61893123D01*
X112305600Y-61890779D01*
X112305600Y-60762369D01*
X112307803Y-60740000D01*
X112305600Y-60717631D01*
X112305600Y-60717624D01*
X112299007Y-60650687D01*
X112298608Y-60649370D01*
X112272956Y-60564805D01*
X112241705Y-60506341D01*
X112230650Y-60485658D01*
X112203033Y-60452007D01*
X112187980Y-60433664D01*
X112187977Y-60433661D01*
X112173716Y-60416284D01*
X112156340Y-60402024D01*
X110185600Y-58431285D01*
X110185600Y-58101712D01*
X110578000Y-58101712D01*
X110647396Y-58094877D01*
X110714125Y-58074635D01*
X110775623Y-58041764D01*
X110829526Y-57997526D01*
X110873764Y-57943623D01*
X110906635Y-57882125D01*
X110926877Y-57815396D01*
X110933712Y-57746000D01*
X110933712Y-56046000D01*
X110926877Y-55976604D01*
X110906635Y-55909875D01*
X110873764Y-55848377D01*
X110829526Y-55794474D01*
X110775623Y-55750236D01*
X110714125Y-55717365D01*
X110647396Y-55697123D01*
X110578000Y-55690288D01*
X109008105Y-55690288D01*
X112389253Y-52309141D01*
X112405669Y-52295669D01*
X112459429Y-52230162D01*
X112499376Y-52155427D01*
X112523975Y-52074334D01*
X112530200Y-52011129D01*
X112530200Y-52011127D01*
X112532281Y-51990000D01*
X112530200Y-51968873D01*
X112530200Y-51484695D01*
X112607995Y-51406900D01*
X112679567Y-51299785D01*
X112728867Y-51180765D01*
X112754000Y-51054413D01*
X112754000Y-50925587D01*
X112728867Y-50799235D01*
X112679567Y-50680215D01*
X112607995Y-50573100D01*
X112516900Y-50482005D01*
X112409785Y-50410433D01*
X112290765Y-50361133D01*
X112164413Y-50336000D01*
X112035587Y-50336000D01*
X111933401Y-50356326D01*
X111933401Y-49524026D01*
X112257604Y-49199824D01*
X112367623Y-49199824D01*
X112493975Y-49174691D01*
X112612995Y-49125391D01*
X112720110Y-49053819D01*
X112811205Y-48962724D01*
X112882777Y-48855609D01*
X112932077Y-48736589D01*
X112957210Y-48610237D01*
X112957210Y-48481411D01*
X112932077Y-48355059D01*
X112882777Y-48236039D01*
X112811205Y-48128924D01*
X112720110Y-48037829D01*
X112612995Y-47966257D01*
X112493975Y-47916957D01*
X112483517Y-47914877D01*
X113094288Y-47304106D01*
X113094288Y-47860000D01*
X113101123Y-47929396D01*
X113121365Y-47996125D01*
X113154236Y-48057623D01*
X113198474Y-48111526D01*
X113214892Y-48125000D01*
X113198474Y-48138474D01*
X113154236Y-48192377D01*
X113121365Y-48253875D01*
X113101123Y-48320604D01*
X113094288Y-48390000D01*
X113094288Y-49130000D01*
X113101123Y-49199396D01*
X113121365Y-49266125D01*
X113154236Y-49327623D01*
X113198474Y-49381526D01*
X113214892Y-49395000D01*
X113198474Y-49408474D01*
X113154236Y-49462377D01*
X113121365Y-49523875D01*
X113101123Y-49590604D01*
X113094288Y-49660000D01*
X113094288Y-50400000D01*
X113101123Y-50469396D01*
X113121365Y-50536125D01*
X113154236Y-50597623D01*
X113198474Y-50651526D01*
X113252377Y-50695764D01*
X113261887Y-50700847D01*
X113221133Y-50799235D01*
X113196000Y-50925587D01*
X113196000Y-51054413D01*
X113221133Y-51180765D01*
X113270433Y-51299785D01*
X113342005Y-51406900D01*
X113433100Y-51497995D01*
X113540215Y-51569567D01*
X113659235Y-51618867D01*
X113785587Y-51644000D01*
X113859685Y-51644000D01*
X114354400Y-52138716D01*
X114354401Y-55780687D01*
X114237692Y-55829029D01*
X114040495Y-55960792D01*
X113872792Y-56128495D01*
X113741029Y-56325692D01*
X113650269Y-56544806D01*
X113604000Y-56777416D01*
X113604000Y-57014584D01*
X113650269Y-57247194D01*
X113741029Y-57466308D01*
X113872792Y-57663505D01*
X114040495Y-57831208D01*
X114237692Y-57962971D01*
X114456806Y-58053731D01*
X114689416Y-58100000D01*
X114926584Y-58100000D01*
X115159194Y-58053731D01*
X115378308Y-57962971D01*
X115575505Y-57831208D01*
X115743208Y-57663505D01*
X115874971Y-57466308D01*
X115965731Y-57247194D01*
X116012000Y-57014584D01*
X116012000Y-56777416D01*
X115965731Y-56544806D01*
X115874971Y-56325692D01*
X115743208Y-56128495D01*
X115575505Y-55960792D01*
X115378308Y-55829029D01*
X115265600Y-55782344D01*
X115265600Y-51972368D01*
X115267803Y-51949999D01*
X115265600Y-51927630D01*
X115265600Y-51927624D01*
X115259007Y-51860687D01*
X115232956Y-51774806D01*
X115190650Y-51695658D01*
X115161519Y-51660162D01*
X115147980Y-51643664D01*
X115147977Y-51643661D01*
X115133716Y-51626284D01*
X115116340Y-51612024D01*
X115097690Y-51593374D01*
X115159235Y-51618867D01*
X115285587Y-51644000D01*
X115359685Y-51644000D01*
X116894400Y-53178715D01*
X116894401Y-55780687D01*
X116777692Y-55829029D01*
X116580495Y-55960792D01*
X116412792Y-56128495D01*
X116281029Y-56325692D01*
X116190269Y-56544806D01*
X116144000Y-56777416D01*
X116144000Y-57014584D01*
X116190269Y-57247194D01*
X116281029Y-57466308D01*
X116412792Y-57663505D01*
X116580495Y-57831208D01*
X116777692Y-57962971D01*
X116996806Y-58053731D01*
X117229416Y-58100000D01*
X117466584Y-58100000D01*
X117699194Y-58053731D01*
X117918308Y-57962971D01*
X118115505Y-57831208D01*
X118283208Y-57663505D01*
X118414971Y-57466308D01*
X118505731Y-57247194D01*
X118552000Y-57014584D01*
X118552000Y-56777416D01*
X118505731Y-56544806D01*
X118414971Y-56325692D01*
X118283208Y-56128495D01*
X118115505Y-55960792D01*
X117918308Y-55829029D01*
X117805600Y-55782344D01*
X117805600Y-53012368D01*
X117807803Y-52989999D01*
X117805600Y-52967630D01*
X117805600Y-52967624D01*
X117799007Y-52900687D01*
X117772956Y-52814806D01*
X117730650Y-52735658D01*
X117673716Y-52666284D01*
X117656335Y-52652020D01*
X116648315Y-51644000D01*
X116664413Y-51644000D01*
X116790765Y-51618867D01*
X116909785Y-51569567D01*
X117016900Y-51497995D01*
X117107995Y-51406900D01*
X117179567Y-51299785D01*
X117228867Y-51180765D01*
X117254000Y-51054413D01*
X117254000Y-50925587D01*
X117228867Y-50799235D01*
X117195571Y-50718851D01*
X117213875Y-50728635D01*
X117280604Y-50748877D01*
X117350000Y-50755712D01*
X119750000Y-50755712D01*
X119819396Y-50748877D01*
X119886125Y-50728635D01*
X119947623Y-50695764D01*
X120001526Y-50651526D01*
X120045764Y-50597623D01*
X120078635Y-50536125D01*
X120093340Y-50487648D01*
X120093341Y-51488265D01*
X119310754Y-52270853D01*
X119294331Y-52284331D01*
X119240571Y-52349839D01*
X119200624Y-52424574D01*
X119176025Y-52505667D01*
X119172546Y-52540993D01*
X119167719Y-52590000D01*
X119169800Y-52611127D01*
X119169801Y-53268864D01*
X119167719Y-53290000D01*
X119176026Y-53374334D01*
X119200624Y-53455426D01*
X119200625Y-53455427D01*
X119240572Y-53530162D01*
X119294332Y-53595669D01*
X119310749Y-53609142D01*
X119690389Y-53988783D01*
X119690390Y-62706343D01*
X119679567Y-62680215D01*
X119607995Y-62573100D01*
X119516900Y-62482005D01*
X119409785Y-62410433D01*
X119290765Y-62361133D01*
X119164413Y-62336000D01*
X119035587Y-62336000D01*
X118909235Y-62361133D01*
X118790215Y-62410433D01*
X118741712Y-62442842D01*
X118741712Y-62242000D01*
X118734877Y-62172604D01*
X118714635Y-62105875D01*
X118681764Y-62044377D01*
X118637526Y-61990474D01*
X118583623Y-61946236D01*
X118522125Y-61913365D01*
X118455396Y-61893123D01*
X118386000Y-61886288D01*
X117386000Y-61886288D01*
X117316604Y-61893123D01*
X117249875Y-61913365D01*
X117236000Y-61920781D01*
X117222125Y-61913365D01*
X117155396Y-61893123D01*
X117086000Y-61886288D01*
X117055600Y-61886288D01*
X117055600Y-61512368D01*
X117057803Y-61489999D01*
X117055600Y-61467630D01*
X117055600Y-61467624D01*
X117049007Y-61400687D01*
X117022956Y-61314806D01*
X116980650Y-61235658D01*
X116923716Y-61166284D01*
X116906335Y-61152020D01*
X116187979Y-60433664D01*
X116173716Y-60416284D01*
X116104342Y-60359350D01*
X116025194Y-60317044D01*
X115939313Y-60290993D01*
X115872376Y-60284400D01*
X115872369Y-60284400D01*
X115850000Y-60282197D01*
X115827631Y-60284400D01*
X113788716Y-60284400D01*
X112725600Y-59221285D01*
X112725600Y-58009656D01*
X112838308Y-57962971D01*
X113035505Y-57831208D01*
X113203208Y-57663505D01*
X113334971Y-57466308D01*
X113425731Y-57247194D01*
X113472000Y-57014584D01*
X113472000Y-56777416D01*
X113425731Y-56544806D01*
X113334971Y-56325692D01*
X113203208Y-56128495D01*
X113035505Y-55960792D01*
X112838308Y-55829029D01*
X112619194Y-55738269D01*
X112386584Y-55692000D01*
X112149416Y-55692000D01*
X111916806Y-55738269D01*
X111697692Y-55829029D01*
X111500495Y-55960792D01*
X111332792Y-56128495D01*
X111201029Y-56325692D01*
X111110269Y-56544806D01*
X111064000Y-56777416D01*
X111064000Y-57014584D01*
X111110269Y-57247194D01*
X111201029Y-57466308D01*
X111332792Y-57663505D01*
X111500495Y-57831208D01*
X111697692Y-57962971D01*
X111814400Y-58011313D01*
X111814401Y-59387621D01*
X111812197Y-59410000D01*
X111820993Y-59499313D01*
X111847045Y-59585194D01*
X111889351Y-59664342D01*
X111932020Y-59716335D01*
X111932024Y-59716339D01*
X111946285Y-59733716D01*
X111963662Y-59747977D01*
X113262023Y-61046339D01*
X113276284Y-61063716D01*
X113293661Y-61077977D01*
X113293664Y-61077980D01*
X113331889Y-61109350D01*
X113345658Y-61120650D01*
X113424806Y-61162956D01*
X113484635Y-61181104D01*
X113510686Y-61189007D01*
X113520069Y-61189931D01*
X113577624Y-61195600D01*
X113577630Y-61195600D01*
X113599999Y-61197803D01*
X113622368Y-61195600D01*
X115661285Y-61195600D01*
X116144400Y-61678715D01*
X116144400Y-61886288D01*
X116086000Y-61886288D01*
X116016604Y-61893123D01*
X115949875Y-61913365D01*
X115936001Y-61920781D01*
X115922125Y-61913364D01*
X115855396Y-61893122D01*
X115786000Y-61886287D01*
X115401500Y-61888000D01*
X115313000Y-61976500D01*
X115313000Y-62965000D01*
X115333000Y-62965000D01*
X115333000Y-63019000D01*
X115313000Y-63019000D01*
X115313000Y-64007500D01*
X115401500Y-64096000D01*
X115786000Y-64097713D01*
X115855396Y-64090878D01*
X115922125Y-64070636D01*
X115936001Y-64063219D01*
X115949875Y-64070635D01*
X116016604Y-64090877D01*
X116086000Y-64097712D01*
X117086000Y-64097712D01*
X117155396Y-64090877D01*
X117222125Y-64070635D01*
X117236000Y-64063219D01*
X117249875Y-64070635D01*
X117316604Y-64090877D01*
X117386000Y-64097712D01*
X118386000Y-64097712D01*
X118455396Y-64090877D01*
X118522125Y-64070635D01*
X118583623Y-64037764D01*
X118637526Y-63993526D01*
X118681764Y-63939623D01*
X118714635Y-63878125D01*
X118734877Y-63811396D01*
X118741712Y-63742000D01*
X118741712Y-63537158D01*
X118790215Y-63569567D01*
X118909235Y-63618867D01*
X119035587Y-63644000D01*
X119164413Y-63644000D01*
X119290765Y-63618867D01*
X119409785Y-63569567D01*
X119516900Y-63497995D01*
X119607995Y-63406900D01*
X119679567Y-63299785D01*
X119690390Y-63273657D01*
X119690390Y-66348273D01*
X119690389Y-66348283D01*
X119690389Y-66564291D01*
X119609785Y-66510433D01*
X119490765Y-66461133D01*
X119364413Y-66436000D01*
X119235587Y-66436000D01*
X119109235Y-66461133D01*
X118990215Y-66510433D01*
X118883100Y-66582005D01*
X118792005Y-66673100D01*
X118720433Y-66780215D01*
X118671133Y-66899235D01*
X118646000Y-67025587D01*
X118646000Y-67154413D01*
X118671133Y-67280765D01*
X118692000Y-67331143D01*
X118692001Y-67838148D01*
X117191198Y-69338951D01*
X117168000Y-69357989D01*
X117138447Y-69394000D01*
X117092021Y-69450570D01*
X117035565Y-69556193D01*
X117000798Y-69670802D01*
X116989059Y-69789990D01*
X116992001Y-69819860D01*
X116992000Y-72998858D01*
X116971133Y-73049235D01*
X116946000Y-73175587D01*
X116946000Y-73304413D01*
X116971133Y-73430765D01*
X116992000Y-73481143D01*
X116992001Y-73998856D01*
X116971133Y-74049235D01*
X116946000Y-74175587D01*
X116946000Y-74304413D01*
X116971133Y-74430765D01*
X117020433Y-74549785D01*
X117092005Y-74656900D01*
X117183100Y-74747995D01*
X117290215Y-74819567D01*
X117409235Y-74868867D01*
X117535587Y-74894000D01*
X117664413Y-74894000D01*
X117790765Y-74868867D01*
X117909785Y-74819567D01*
X118016900Y-74747995D01*
X118107995Y-74656900D01*
X118179567Y-74549785D01*
X118228867Y-74430765D01*
X118254000Y-74304413D01*
X118254000Y-74175587D01*
X118228867Y-74049235D01*
X118208000Y-73998858D01*
X118208000Y-73481142D01*
X118228867Y-73430765D01*
X118254000Y-73304413D01*
X118254000Y-73175587D01*
X118228867Y-73049235D01*
X118208000Y-72998858D01*
X118208000Y-70041831D01*
X119559396Y-68690435D01*
X119609775Y-68669567D01*
X119690389Y-68615702D01*
X119690390Y-77489452D01*
X119688308Y-77510589D01*
X119696615Y-77594923D01*
X119721213Y-77676015D01*
X119721214Y-77676016D01*
X119761161Y-77750751D01*
X119814921Y-77816258D01*
X119831337Y-77829731D01*
X119846000Y-77844393D01*
X119846000Y-77954413D01*
X119871133Y-78080765D01*
X119920433Y-78199785D01*
X119992005Y-78306900D01*
X120083100Y-78397995D01*
X120190215Y-78469567D01*
X120309235Y-78518867D01*
X120435587Y-78544000D01*
X120564413Y-78544000D01*
X120690765Y-78518867D01*
X120809785Y-78469567D01*
X120916900Y-78397995D01*
X121007995Y-78306900D01*
X121079567Y-78199785D01*
X121128867Y-78080765D01*
X121154000Y-77954413D01*
X121154000Y-77825587D01*
X121128867Y-77699235D01*
X121079567Y-77580215D01*
X121007995Y-77473100D01*
X120916900Y-77382005D01*
X120809785Y-77310433D01*
X120690765Y-77261133D01*
X120564413Y-77236000D01*
X120550789Y-77236000D01*
X120550789Y-75859182D01*
X122638572Y-77946966D01*
X122590347Y-78063391D01*
X122546000Y-78286341D01*
X122546000Y-78513659D01*
X122590347Y-78736609D01*
X122677338Y-78946624D01*
X122803629Y-79135632D01*
X122964368Y-79296371D01*
X123153376Y-79422662D01*
X123363391Y-79509653D01*
X123586341Y-79554000D01*
X123813659Y-79554000D01*
X124036609Y-79509653D01*
X124246624Y-79422662D01*
X124435632Y-79296371D01*
X124596371Y-79135632D01*
X124722662Y-78946624D01*
X124809653Y-78736609D01*
X124854000Y-78513659D01*
X124854000Y-78286341D01*
X124809653Y-78063391D01*
X124722662Y-77853376D01*
X124596371Y-77664368D01*
X124435632Y-77503629D01*
X124246624Y-77377338D01*
X124036609Y-77290347D01*
X123813659Y-77246000D01*
X123586341Y-77246000D01*
X123363391Y-77290347D01*
X123246966Y-77338572D01*
X120830199Y-74921806D01*
X120830199Y-73598592D01*
X122638572Y-75406966D01*
X122590347Y-75523391D01*
X122546000Y-75746341D01*
X122546000Y-75973659D01*
X122590347Y-76196609D01*
X122677338Y-76406624D01*
X122803629Y-76595632D01*
X122964368Y-76756371D01*
X123153376Y-76882662D01*
X123363391Y-76969653D01*
X123586341Y-77014000D01*
X123813659Y-77014000D01*
X124036609Y-76969653D01*
X124246624Y-76882662D01*
X124435632Y-76756371D01*
X124596371Y-76595632D01*
X124722662Y-76406624D01*
X124809653Y-76196609D01*
X124854000Y-75973659D01*
X124854000Y-75746341D01*
X124809653Y-75523391D01*
X124722662Y-75313376D01*
X124596371Y-75124368D01*
X124435632Y-74963629D01*
X124246624Y-74837338D01*
X124036609Y-74750347D01*
X123813659Y-74706000D01*
X123586341Y-74706000D01*
X123363391Y-74750347D01*
X123246966Y-74798572D01*
X121230200Y-72781807D01*
X121230200Y-71458593D01*
X122638572Y-72866966D01*
X122590347Y-72983391D01*
X122546000Y-73206341D01*
X122546000Y-73433659D01*
X122590347Y-73656609D01*
X122677338Y-73866624D01*
X122803629Y-74055632D01*
X122964368Y-74216371D01*
X123153376Y-74342662D01*
X123363391Y-74429653D01*
X123586341Y-74474000D01*
X123813659Y-74474000D01*
X124036609Y-74429653D01*
X124246624Y-74342662D01*
X124435632Y-74216371D01*
X124596371Y-74055632D01*
X124722662Y-73866624D01*
X124809653Y-73656609D01*
X124854000Y-73433659D01*
X124854000Y-73206341D01*
X124809653Y-72983391D01*
X124722662Y-72773376D01*
X124596371Y-72584368D01*
X124435632Y-72423629D01*
X124246624Y-72297338D01*
X124036609Y-72210347D01*
X123813659Y-72166000D01*
X123586341Y-72166000D01*
X123363391Y-72210347D01*
X123246966Y-72258572D01*
X121512560Y-70524167D01*
X121512560Y-69200953D01*
X122638572Y-70326966D01*
X122590347Y-70443391D01*
X122546000Y-70666341D01*
X122546000Y-70893659D01*
X122590347Y-71116609D01*
X122677338Y-71326624D01*
X122803629Y-71515632D01*
X122964368Y-71676371D01*
X123153376Y-71802662D01*
X123363391Y-71889653D01*
X123586341Y-71934000D01*
X123813659Y-71934000D01*
X124036609Y-71889653D01*
X124246624Y-71802662D01*
X124435632Y-71676371D01*
X124596371Y-71515632D01*
X124722662Y-71326624D01*
X124809653Y-71116609D01*
X124854000Y-70893659D01*
X124854000Y-70666341D01*
X124809653Y-70443391D01*
X124722662Y-70233376D01*
X124596371Y-70044368D01*
X124435632Y-69883629D01*
X124246624Y-69757338D01*
X124036609Y-69670347D01*
X123813659Y-69626000D01*
X123586341Y-69626000D01*
X123363391Y-69670347D01*
X123246966Y-69718572D01*
X121791970Y-68263577D01*
X121791970Y-66940363D01*
X122638572Y-67786966D01*
X122590347Y-67903391D01*
X122546000Y-68126341D01*
X122546000Y-68353659D01*
X122590347Y-68576609D01*
X122677338Y-68786624D01*
X122803629Y-68975632D01*
X122964368Y-69136371D01*
X123153376Y-69262662D01*
X123363391Y-69349653D01*
X123586341Y-69394000D01*
X123813659Y-69394000D01*
X124036609Y-69349653D01*
X124246624Y-69262662D01*
X124435632Y-69136371D01*
X124596371Y-68975632D01*
X124722662Y-68786624D01*
X124809653Y-68576609D01*
X124854000Y-68353659D01*
X124854000Y-68126341D01*
X124809653Y-67903391D01*
X124722662Y-67693376D01*
X124596371Y-67504368D01*
X124435632Y-67343629D01*
X124246624Y-67217338D01*
X124036609Y-67130347D01*
X123813659Y-67086000D01*
X123586341Y-67086000D01*
X123363391Y-67130347D01*
X123246966Y-67178572D01*
X122071380Y-66002987D01*
X122071380Y-64679773D01*
X122638572Y-65246966D01*
X122590347Y-65363391D01*
X122546000Y-65586341D01*
X122546000Y-65813659D01*
X122590347Y-66036609D01*
X122677338Y-66246624D01*
X122803629Y-66435632D01*
X122964368Y-66596371D01*
X123153376Y-66722662D01*
X123363391Y-66809653D01*
X123586341Y-66854000D01*
X123813659Y-66854000D01*
X124036609Y-66809653D01*
X124246624Y-66722662D01*
X124435632Y-66596371D01*
X124596371Y-66435632D01*
X124722662Y-66246624D01*
X124809653Y-66036609D01*
X124854000Y-65813659D01*
X124854000Y-65586341D01*
X124809653Y-65363391D01*
X124722662Y-65153376D01*
X124596371Y-64964368D01*
X124435632Y-64803629D01*
X124246624Y-64677338D01*
X124036609Y-64590347D01*
X123813659Y-64546000D01*
X123586341Y-64546000D01*
X123363391Y-64590347D01*
X123246966Y-64638572D01*
X122350790Y-63742397D01*
X122350790Y-62419184D01*
X122638572Y-62706966D01*
X122590347Y-62823391D01*
X122546000Y-63046341D01*
X122546000Y-63273659D01*
X122590347Y-63496609D01*
X122677338Y-63706624D01*
X122803629Y-63895632D01*
X122964368Y-64056371D01*
X123153376Y-64182662D01*
X123363391Y-64269653D01*
X123586341Y-64314000D01*
X123813659Y-64314000D01*
X124036609Y-64269653D01*
X124246624Y-64182662D01*
X124435632Y-64056371D01*
X124596371Y-63895632D01*
X124722662Y-63706624D01*
X124809653Y-63496609D01*
X124854000Y-63273659D01*
X124854000Y-63046341D01*
X124809653Y-62823391D01*
X124722662Y-62613376D01*
X124596371Y-62424368D01*
X124435632Y-62263629D01*
X124246624Y-62137338D01*
X124036609Y-62050347D01*
X123813659Y-62006000D01*
X123586341Y-62006000D01*
X123363391Y-62050347D01*
X123246966Y-62098572D01*
X122630200Y-61481807D01*
X122630200Y-61052823D01*
X122677338Y-61166624D01*
X122803629Y-61355632D01*
X122964368Y-61516371D01*
X123153376Y-61642662D01*
X123363391Y-61729653D01*
X123586341Y-61774000D01*
X123813659Y-61774000D01*
X124036609Y-61729653D01*
X124246624Y-61642662D01*
X124435632Y-61516371D01*
X124596371Y-61355632D01*
X124722662Y-61166624D01*
X124809653Y-60956609D01*
X124854000Y-60733659D01*
X124854000Y-60506341D01*
X124809653Y-60283391D01*
X124722662Y-60073376D01*
X124596371Y-59884368D01*
X124435632Y-59723629D01*
X124246624Y-59597338D01*
X124036609Y-59510347D01*
X123813659Y-59466000D01*
X123586341Y-59466000D01*
X123363391Y-59510347D01*
X123153376Y-59597338D01*
X122964368Y-59723629D01*
X122803629Y-59884368D01*
X122677338Y-60073376D01*
X122630200Y-60187177D01*
X122630200Y-58512823D01*
X122677338Y-58626624D01*
X122803629Y-58815632D01*
X122964368Y-58976371D01*
X123153376Y-59102662D01*
X123363391Y-59189653D01*
X123586341Y-59234000D01*
X123813659Y-59234000D01*
X124036609Y-59189653D01*
X124246624Y-59102662D01*
X124435632Y-58976371D01*
X124596371Y-58815632D01*
X124722662Y-58626624D01*
X124809653Y-58416609D01*
X124854000Y-58193659D01*
X124854000Y-57966341D01*
X124809653Y-57743391D01*
X124722662Y-57533376D01*
X124596371Y-57344368D01*
X124435632Y-57183629D01*
X124246624Y-57057338D01*
X124036609Y-56970347D01*
X123813659Y-56926000D01*
X123586341Y-56926000D01*
X123363391Y-56970347D01*
X123153376Y-57057338D01*
X122964368Y-57183629D01*
X122803629Y-57344368D01*
X122677338Y-57533376D01*
X122630200Y-57647177D01*
X122630200Y-55972823D01*
X122677338Y-56086624D01*
X122803629Y-56275632D01*
X122964368Y-56436371D01*
X123153376Y-56562662D01*
X123363391Y-56649653D01*
X123586341Y-56694000D01*
X123813659Y-56694000D01*
X124036609Y-56649653D01*
X124246624Y-56562662D01*
X124435632Y-56436371D01*
X124596371Y-56275632D01*
X124722662Y-56086624D01*
X124809653Y-55876609D01*
X124854000Y-55653659D01*
X124854000Y-55426341D01*
X124809653Y-55203391D01*
X124722662Y-54993376D01*
X124596371Y-54804368D01*
X124435632Y-54643629D01*
X124246624Y-54517338D01*
X124036609Y-54430347D01*
X123813659Y-54386000D01*
X123586341Y-54386000D01*
X123363391Y-54430347D01*
X123153376Y-54517338D01*
X122964368Y-54643629D01*
X122803629Y-54804368D01*
X122677338Y-54993376D01*
X122630200Y-55107177D01*
X122630200Y-51598193D01*
X122994394Y-51234000D01*
X123104413Y-51234000D01*
X123230765Y-51208867D01*
X123349785Y-51159567D01*
X123456900Y-51087995D01*
X123547995Y-50996900D01*
X123619567Y-50889785D01*
X123668867Y-50770765D01*
X123694000Y-50644413D01*
X123694000Y-50515587D01*
X123668867Y-50389235D01*
X123619567Y-50270215D01*
X123547995Y-50163100D01*
X123456900Y-50072005D01*
X123349785Y-50000433D01*
X123230765Y-49951133D01*
X123104413Y-49926000D01*
X122975587Y-49926000D01*
X122849235Y-49951133D01*
X122730215Y-50000433D01*
X122623100Y-50072005D01*
X122532005Y-50163100D01*
X122460433Y-50270215D01*
X122411133Y-50389235D01*
X122386000Y-50515587D01*
X122386000Y-50625606D01*
X122350790Y-50660816D01*
X122350790Y-48067603D01*
X122994394Y-47424000D01*
X123104413Y-47424000D01*
X123230765Y-47398867D01*
X123349785Y-47349567D01*
X123456900Y-47277995D01*
X123547995Y-47186900D01*
X123619567Y-47079785D01*
X123668867Y-46960765D01*
X123694000Y-46834413D01*
X123694000Y-46705587D01*
X123668867Y-46579235D01*
X123619567Y-46460215D01*
X123547995Y-46353100D01*
X123456900Y-46262005D01*
X123349785Y-46190433D01*
X123230765Y-46141133D01*
X123199932Y-46135000D01*
X123230765Y-46128867D01*
X123349785Y-46079567D01*
X123456900Y-46007995D01*
X123547995Y-45916900D01*
X123619567Y-45809785D01*
X123668867Y-45690765D01*
X123694000Y-45564413D01*
X123694000Y-45435587D01*
X123668867Y-45309235D01*
X123619567Y-45190215D01*
X123547995Y-45083100D01*
X123456900Y-44992005D01*
X123349785Y-44920433D01*
X123230765Y-44871133D01*
X123199932Y-44865000D01*
X123230765Y-44858867D01*
X123349785Y-44809567D01*
X123456900Y-44737995D01*
X123547995Y-44646900D01*
X123619567Y-44539785D01*
X123668867Y-44420765D01*
X123694000Y-44294413D01*
X123694000Y-44165587D01*
X123668867Y-44039235D01*
X123619567Y-43920215D01*
X123547995Y-43813100D01*
X123456900Y-43722005D01*
X123349785Y-43650433D01*
X123230765Y-43601133D01*
X123104413Y-43576000D01*
X122975587Y-43576000D01*
X122849235Y-43601133D01*
X122730215Y-43650433D01*
X122623100Y-43722005D01*
X122532005Y-43813100D01*
X122460433Y-43920215D01*
X122411133Y-44039235D01*
X122386000Y-44165587D01*
X122386000Y-44275605D01*
X121512560Y-45149046D01*
X121512560Y-43825833D01*
X122994394Y-42344000D01*
X123104413Y-42344000D01*
X123230765Y-42318867D01*
X123349785Y-42269567D01*
X123456900Y-42197995D01*
X123547995Y-42106900D01*
X123619567Y-41999785D01*
X123668867Y-41880765D01*
X123694000Y-41754413D01*
X123694000Y-41625587D01*
X123668867Y-41499235D01*
X123619567Y-41380215D01*
X123547995Y-41273100D01*
X123456900Y-41182005D01*
X123349785Y-41110433D01*
X123230765Y-41061133D01*
X123104413Y-41036000D01*
X122975587Y-41036000D01*
X122849235Y-41061133D01*
X122730215Y-41110433D01*
X122623100Y-41182005D01*
X122532005Y-41273100D01*
X122460433Y-41380215D01*
X122411133Y-41499235D01*
X122386000Y-41625587D01*
X122386000Y-41735606D01*
X121233150Y-42888457D01*
X121233150Y-40295243D01*
X122994395Y-38534000D01*
X123104413Y-38534000D01*
X123230765Y-38508867D01*
X123349785Y-38459567D01*
X123456900Y-38387995D01*
X123547995Y-38296900D01*
X123619567Y-38189785D01*
X123668867Y-38070765D01*
X123694000Y-37944413D01*
X123694000Y-37815587D01*
X123668867Y-37689235D01*
X123619567Y-37570215D01*
X123547995Y-37463100D01*
X123456900Y-37372005D01*
X123349785Y-37300433D01*
X123230765Y-37251133D01*
X123104413Y-37226000D01*
X122975587Y-37226000D01*
X122849235Y-37251133D01*
X122730215Y-37300433D01*
X122623100Y-37372005D01*
X122532005Y-37463100D01*
X122460433Y-37570215D01*
X122411133Y-37689235D01*
X122386000Y-37815587D01*
X122386000Y-37925605D01*
X120513699Y-39797908D01*
X120497282Y-39811381D01*
X120451601Y-39867044D01*
X120443522Y-39876888D01*
X120403574Y-39951624D01*
X120378976Y-40032716D01*
X120370669Y-40117050D01*
X120372751Y-40138187D01*
X120372751Y-46237708D01*
X120364163Y-46236000D01*
X120235337Y-46236000D01*
X120108985Y-46261133D01*
X120105712Y-46262489D01*
X120105712Y-45850000D01*
X120098877Y-45780604D01*
X120078635Y-45713875D01*
X120045764Y-45652377D01*
X120001526Y-45598474D01*
X119985109Y-45585001D01*
X120001527Y-45571527D01*
X120045765Y-45517624D01*
X120078636Y-45456125D01*
X120098878Y-45389396D01*
X120105713Y-45320000D01*
X120104000Y-45065500D01*
X120015500Y-44977000D01*
X118577000Y-44977000D01*
X118577000Y-44997000D01*
X118523000Y-44997000D01*
X118523000Y-44977000D01*
X117084500Y-44977000D01*
X116996000Y-45065500D01*
X116994287Y-45320000D01*
X117001122Y-45389396D01*
X117021364Y-45456125D01*
X117054235Y-45517624D01*
X117098473Y-45571527D01*
X117114891Y-45585001D01*
X117098474Y-45598474D01*
X117054236Y-45652377D01*
X117021365Y-45713875D01*
X117016040Y-45731430D01*
X116909785Y-45660433D01*
X116790765Y-45611133D01*
X116664413Y-45586000D01*
X116535587Y-45586000D01*
X116409235Y-45611133D01*
X116290215Y-45660433D01*
X116183960Y-45731430D01*
X116178635Y-45713875D01*
X116145764Y-45652377D01*
X116101526Y-45598474D01*
X116085108Y-45585000D01*
X116101526Y-45571526D01*
X116145764Y-45517623D01*
X116178635Y-45456125D01*
X116198877Y-45389396D01*
X116205712Y-45320000D01*
X116205712Y-44580000D01*
X116994287Y-44580000D01*
X116996000Y-44834500D01*
X117084500Y-44923000D01*
X118523000Y-44923000D01*
X118523000Y-44314500D01*
X118577000Y-44314500D01*
X118577000Y-44923000D01*
X120015500Y-44923000D01*
X120104000Y-44834500D01*
X120105713Y-44580000D01*
X120098878Y-44510604D01*
X120078636Y-44443875D01*
X120045765Y-44382376D01*
X120001527Y-44328473D01*
X119947624Y-44284235D01*
X119886125Y-44251364D01*
X119819396Y-44231122D01*
X119750000Y-44224287D01*
X118665500Y-44226000D01*
X118577000Y-44314500D01*
X118523000Y-44314500D01*
X118434500Y-44226000D01*
X117350000Y-44224287D01*
X117280604Y-44231122D01*
X117213875Y-44251364D01*
X117152376Y-44284235D01*
X117098473Y-44328473D01*
X117054235Y-44382376D01*
X117021364Y-44443875D01*
X117001122Y-44510604D01*
X116994287Y-44580000D01*
X116205712Y-44580000D01*
X116198877Y-44510604D01*
X116178635Y-44443875D01*
X116145764Y-44382377D01*
X116101526Y-44328474D01*
X116047623Y-44284236D01*
X115986125Y-44251365D01*
X115919396Y-44231123D01*
X115850000Y-44224288D01*
X113450000Y-44224288D01*
X113380604Y-44231123D01*
X113313875Y-44251365D01*
X113252377Y-44284236D01*
X113198474Y-44328474D01*
X113154236Y-44382377D01*
X113121365Y-44443875D01*
X113101123Y-44510604D01*
X113094288Y-44580000D01*
X113094288Y-45084108D01*
X112945607Y-45232790D01*
X112835587Y-45232790D01*
X112709235Y-45257923D01*
X112590215Y-45307223D01*
X112483100Y-45378795D01*
X112430200Y-45431695D01*
X112430200Y-40829587D01*
X112884000Y-40829587D01*
X112884000Y-40958413D01*
X112909133Y-41084765D01*
X112958433Y-41203785D01*
X113030005Y-41310900D01*
X113121100Y-41401995D01*
X113121107Y-41402000D01*
X113121100Y-41402005D01*
X113030005Y-41493100D01*
X112958433Y-41600215D01*
X112909133Y-41719235D01*
X112884000Y-41845587D01*
X112884000Y-41974413D01*
X112909133Y-42100765D01*
X112958433Y-42219785D01*
X113030005Y-42326900D01*
X113121100Y-42417995D01*
X113121107Y-42418000D01*
X113121100Y-42418005D01*
X113030005Y-42509100D01*
X112958433Y-42616215D01*
X112909133Y-42735235D01*
X112884000Y-42861587D01*
X112884000Y-42990413D01*
X112909133Y-43116765D01*
X112958433Y-43235785D01*
X113030005Y-43342900D01*
X113121100Y-43433995D01*
X113228215Y-43505567D01*
X113347235Y-43554867D01*
X113473587Y-43580000D01*
X113602413Y-43580000D01*
X113728765Y-43554867D01*
X113847785Y-43505567D01*
X113954900Y-43433995D01*
X114045995Y-43342900D01*
X114046000Y-43342893D01*
X114046005Y-43342900D01*
X114137100Y-43433995D01*
X114244215Y-43505567D01*
X114363235Y-43554867D01*
X114489587Y-43580000D01*
X114618413Y-43580000D01*
X114744765Y-43554867D01*
X114863785Y-43505567D01*
X114970900Y-43433995D01*
X115061995Y-43342900D01*
X115062000Y-43342893D01*
X115062005Y-43342900D01*
X115153100Y-43433995D01*
X115260215Y-43505567D01*
X115379235Y-43554867D01*
X115505587Y-43580000D01*
X115634413Y-43580000D01*
X115760765Y-43554867D01*
X115879785Y-43505567D01*
X115986900Y-43433995D01*
X116077995Y-43342900D01*
X116149567Y-43235785D01*
X116198867Y-43116765D01*
X116224000Y-42990413D01*
X116224000Y-42861587D01*
X116198867Y-42735235D01*
X116149567Y-42616215D01*
X116077995Y-42509100D01*
X115986900Y-42418005D01*
X115986893Y-42418000D01*
X115986900Y-42417995D01*
X116077995Y-42326900D01*
X116149567Y-42219785D01*
X116198867Y-42100765D01*
X116224000Y-41974413D01*
X116224000Y-41845587D01*
X116198867Y-41719235D01*
X116149567Y-41600215D01*
X116077995Y-41493100D01*
X115986900Y-41402005D01*
X115986893Y-41402000D01*
X115986900Y-41401995D01*
X116077995Y-41310900D01*
X116149567Y-41203785D01*
X116198867Y-41084765D01*
X116224000Y-40958413D01*
X116224000Y-40829587D01*
X116198867Y-40703235D01*
X116149567Y-40584215D01*
X116077995Y-40477100D01*
X115986900Y-40386005D01*
X115879785Y-40314433D01*
X115760765Y-40265133D01*
X115634413Y-40240000D01*
X115505587Y-40240000D01*
X115379235Y-40265133D01*
X115260215Y-40314433D01*
X115153100Y-40386005D01*
X115062005Y-40477100D01*
X115062000Y-40477107D01*
X115061995Y-40477100D01*
X114970900Y-40386005D01*
X114863785Y-40314433D01*
X114744765Y-40265133D01*
X114618413Y-40240000D01*
X114489587Y-40240000D01*
X114363235Y-40265133D01*
X114244215Y-40314433D01*
X114137100Y-40386005D01*
X114046005Y-40477100D01*
X114046000Y-40477107D01*
X114045995Y-40477100D01*
X113954900Y-40386005D01*
X113847785Y-40314433D01*
X113728765Y-40265133D01*
X113602413Y-40240000D01*
X113473587Y-40240000D01*
X113347235Y-40265133D01*
X113228215Y-40314433D01*
X113121100Y-40386005D01*
X113030005Y-40477100D01*
X112958433Y-40584215D01*
X112909133Y-40703235D01*
X112884000Y-40829587D01*
X112430200Y-40829587D01*
X112430200Y-39311118D01*
X112432280Y-39289999D01*
X112430200Y-39268880D01*
X112430200Y-39268871D01*
X112423975Y-39205666D01*
X112399376Y-39124573D01*
X112359429Y-39049838D01*
X112305669Y-38984331D01*
X112289258Y-38970863D01*
X111954000Y-38635606D01*
X111954000Y-38525587D01*
X111928867Y-38399235D01*
X111879567Y-38280215D01*
X111807995Y-38173100D01*
X111716900Y-38082005D01*
X111609785Y-38010433D01*
X111490765Y-37961133D01*
X111364413Y-37936000D01*
X111235587Y-37936000D01*
X111109235Y-37961133D01*
X110990215Y-38010433D01*
X110883100Y-38082005D01*
X110792005Y-38173100D01*
X110720433Y-38280215D01*
X110671133Y-38399235D01*
X110646000Y-38525587D01*
X110646000Y-38654413D01*
X110671133Y-38780765D01*
X110720433Y-38899785D01*
X110792005Y-39006900D01*
X110883100Y-39097995D01*
X110990215Y-39169567D01*
X111109235Y-39218867D01*
X111235587Y-39244000D01*
X111345606Y-39244000D01*
X111569800Y-39468195D01*
X111569801Y-45855104D01*
X111509941Y-45830309D01*
X111383589Y-45805176D01*
X111254763Y-45805176D01*
X111128411Y-45830309D01*
X111009391Y-45879609D01*
X110902276Y-45951181D01*
X110855712Y-45997745D01*
X110855712Y-45490000D01*
X110848877Y-45420604D01*
X110828635Y-45353875D01*
X110795764Y-45292377D01*
X110751526Y-45238474D01*
X110697623Y-45194236D01*
X110636125Y-45161365D01*
X110569396Y-45141123D01*
X110500000Y-45134288D01*
X108700000Y-45134288D01*
X108630604Y-45141123D01*
X108563875Y-45161365D01*
X108502377Y-45194236D01*
X108448474Y-45238474D01*
X108404236Y-45292377D01*
X108371365Y-45353875D01*
X108351123Y-45420604D01*
X108344288Y-45490000D01*
X108344288Y-46490000D01*
X108351123Y-46559396D01*
X108371365Y-46626125D01*
X108383909Y-46649593D01*
X108375993Y-46675687D01*
X108373004Y-46706040D01*
X108352312Y-46717100D01*
X108328867Y-46599235D01*
X108279567Y-46480215D01*
X108207995Y-46373100D01*
X108116900Y-46282005D01*
X108009785Y-46210433D01*
X107890765Y-46161133D01*
X107764413Y-46136000D01*
X107635587Y-46136000D01*
X107509235Y-46161133D01*
X107390215Y-46210433D01*
X107283100Y-46282005D01*
X107192005Y-46373100D01*
X107120433Y-46480215D01*
X107071133Y-46599235D01*
X107046000Y-46725587D01*
X107046000Y-46799685D01*
X106346230Y-47499455D01*
X106346230Y-43561344D01*
X106398805Y-43539567D01*
X106505920Y-43467995D01*
X106597015Y-43376900D01*
X106668587Y-43269785D01*
X106717887Y-43150765D01*
X106743020Y-43024413D01*
X106743020Y-42895587D01*
X106717887Y-42769235D01*
X106668587Y-42650215D01*
X106597015Y-42543100D01*
X106505920Y-42452005D01*
X106398805Y-42380433D01*
X106279785Y-42331133D01*
X106224442Y-42320125D01*
X106230765Y-42318867D01*
X106349785Y-42269567D01*
X106456900Y-42197995D01*
X106547995Y-42106900D01*
X106619567Y-41999785D01*
X106668867Y-41880765D01*
X106694000Y-41754413D01*
X106694000Y-41740000D01*
X108019288Y-41740000D01*
X108019288Y-42240000D01*
X108030446Y-42353291D01*
X108063492Y-42462229D01*
X108117156Y-42562626D01*
X108189375Y-42650625D01*
X108277374Y-42722844D01*
X108373004Y-42773960D01*
X108375993Y-42804313D01*
X108383909Y-42830407D01*
X108371365Y-42853875D01*
X108351123Y-42920604D01*
X108344288Y-42990000D01*
X108344288Y-43990000D01*
X108351123Y-44059396D01*
X108371365Y-44126125D01*
X108404236Y-44187623D01*
X108448474Y-44241526D01*
X108502377Y-44285764D01*
X108563875Y-44318635D01*
X108630604Y-44338877D01*
X108700000Y-44345712D01*
X110500000Y-44345712D01*
X110569396Y-44338877D01*
X110636125Y-44318635D01*
X110697623Y-44285764D01*
X110751526Y-44241526D01*
X110795764Y-44187623D01*
X110828635Y-44126125D01*
X110848877Y-44059396D01*
X110855712Y-43990000D01*
X110855712Y-42990000D01*
X110848877Y-42920604D01*
X110828635Y-42853875D01*
X110795764Y-42792377D01*
X110790612Y-42786099D01*
X110822229Y-42776508D01*
X110922626Y-42722844D01*
X111010625Y-42650625D01*
X111082844Y-42562626D01*
X111136508Y-42462229D01*
X111169554Y-42353291D01*
X111180712Y-42240000D01*
X111180712Y-41740000D01*
X111169554Y-41626709D01*
X111136508Y-41517771D01*
X111082844Y-41417374D01*
X111010625Y-41329375D01*
X110940984Y-41272222D01*
X110978867Y-41180765D01*
X111004000Y-41054413D01*
X111004000Y-40925587D01*
X110978867Y-40799235D01*
X110929567Y-40680215D01*
X110857995Y-40573100D01*
X110766900Y-40482005D01*
X110659785Y-40410433D01*
X110540765Y-40361133D01*
X110414413Y-40336000D01*
X110285587Y-40336000D01*
X110159235Y-40361133D01*
X110040215Y-40410433D01*
X109933100Y-40482005D01*
X109842005Y-40573100D01*
X109770433Y-40680215D01*
X109721133Y-40799235D01*
X109696000Y-40925587D01*
X109696000Y-41054413D01*
X109721133Y-41180765D01*
X109770433Y-41299785D01*
X109772203Y-41302434D01*
X109739375Y-41329375D01*
X109667156Y-41417374D01*
X109613492Y-41517771D01*
X109600000Y-41562248D01*
X109586508Y-41517771D01*
X109532844Y-41417374D01*
X109460625Y-41329375D01*
X109372626Y-41257156D01*
X109272229Y-41203492D01*
X109163291Y-41170446D01*
X109050000Y-41159288D01*
X108600000Y-41159288D01*
X108486709Y-41170446D01*
X108377771Y-41203492D01*
X108277374Y-41257156D01*
X108189375Y-41329375D01*
X108117156Y-41417374D01*
X108063492Y-41517771D01*
X108030446Y-41626709D01*
X108019288Y-41740000D01*
X106694000Y-41740000D01*
X106694000Y-41625587D01*
X106668867Y-41499235D01*
X106619567Y-41380215D01*
X106547995Y-41273100D01*
X106456900Y-41182005D01*
X106349785Y-41110433D01*
X106230765Y-41061133D01*
X106199932Y-41055000D01*
X106230765Y-41048867D01*
X106349785Y-40999567D01*
X106456900Y-40927995D01*
X106547995Y-40836900D01*
X106619567Y-40729785D01*
X106668867Y-40610765D01*
X106694000Y-40484413D01*
X106694000Y-40355587D01*
X106668867Y-40229235D01*
X106619567Y-40110215D01*
X106547995Y-40003100D01*
X106456900Y-39912005D01*
X106349785Y-39840433D01*
X106230765Y-39791133D01*
X106199932Y-39785000D01*
X106230765Y-39778867D01*
X106349785Y-39729567D01*
X106456900Y-39657995D01*
X106547995Y-39566900D01*
X106619567Y-39459785D01*
X106668867Y-39340765D01*
X106694000Y-39214413D01*
X106694000Y-39085587D01*
X106668867Y-38959235D01*
X106619567Y-38840215D01*
X106547995Y-38733100D01*
X106456900Y-38642005D01*
X106349785Y-38570433D01*
X106230765Y-38521133D01*
X106104413Y-38496000D01*
X105975587Y-38496000D01*
X105849235Y-38521133D01*
X105730215Y-38570433D01*
X105623100Y-38642005D01*
X105532005Y-38733100D01*
X105460433Y-38840215D01*
X105411133Y-38959235D01*
X105386000Y-39085587D01*
X105386000Y-39159685D01*
X104593662Y-39952023D01*
X104576285Y-39966284D01*
X104562024Y-39983661D01*
X104562020Y-39983665D01*
X104519351Y-40035658D01*
X104477045Y-40114806D01*
X104450993Y-40200687D01*
X104442197Y-40290000D01*
X104444401Y-40312379D01*
X104444401Y-44344162D01*
X104431526Y-44328474D01*
X104377623Y-44284236D01*
X104316125Y-44251365D01*
X104249396Y-44231123D01*
X104180000Y-44224288D01*
X102580000Y-44224288D01*
X102510604Y-44231123D01*
X102443875Y-44251365D01*
X102382377Y-44284236D01*
X102328474Y-44328474D01*
X102284236Y-44382377D01*
X102251365Y-44443875D01*
X102231123Y-44510604D01*
X102224288Y-44580000D01*
X101979000Y-44580000D01*
X101979000Y-34090000D01*
X125221001Y-34090000D01*
X125221000Y-44971390D01*
G37*
G04 #@! TD.AperFunction*
M02*
