G04 #@! TF.GenerationSoftware,KiCad,Pcbnew,5.1.10-88a1d61d58~90~ubuntu20.04.1*
G04 #@! TF.CreationDate,2021-07-18T21:46:05+01:00*
G04 #@! TF.ProjectId,lhc_tijolo32_board,6c68635f-7469-46a6-9f6c-6f33325f626f,rev?*
G04 #@! TF.SameCoordinates,Original*
G04 #@! TF.FileFunction,Paste,Top*
G04 #@! TF.FilePolarity,Positive*
%FSLAX46Y46*%
G04 Gerber Fmt 4.6, Leading zero omitted, Abs format (unit mm)*
G04 Created by KiCad (PCBNEW 5.1.10-88a1d61d58~90~ubuntu20.04.1) date 2021-07-18 21:46:05*
%MOMM*%
%LPD*%
G01*
G04 APERTURE LIST*
%ADD10R,1.597660X2.298700*%
%ADD11R,1.100000X2.500000*%
%ADD12R,0.800000X0.900000*%
%ADD13R,5.000000X5.000000*%
%ADD14R,2.000000X0.900000*%
%ADD15R,0.900000X2.000000*%
%ADD16R,1.300000X1.000000*%
G04 APERTURE END LIST*
G36*
G01*
X117625000Y-59315000D02*
X117075000Y-59315000D01*
G75*
G02*
X116875000Y-59115000I0J200000D01*
G01*
X116875000Y-58715000D01*
G75*
G02*
X117075000Y-58515000I200000J0D01*
G01*
X117625000Y-58515000D01*
G75*
G02*
X117825000Y-58715000I0J-200000D01*
G01*
X117825000Y-59115000D01*
G75*
G02*
X117625000Y-59315000I-200000J0D01*
G01*
G37*
G36*
G01*
X117625000Y-60965000D02*
X117075000Y-60965000D01*
G75*
G02*
X116875000Y-60765000I0J200000D01*
G01*
X116875000Y-60365000D01*
G75*
G02*
X117075000Y-60165000I200000J0D01*
G01*
X117625000Y-60165000D01*
G75*
G02*
X117825000Y-60365000I0J-200000D01*
G01*
X117825000Y-60765000D01*
G75*
G02*
X117625000Y-60965000I-200000J0D01*
G01*
G37*
G36*
G01*
X107800000Y-54640000D02*
X107800000Y-55140000D01*
G75*
G02*
X107575000Y-55365000I-225000J0D01*
G01*
X107125000Y-55365000D01*
G75*
G02*
X106900000Y-55140000I0J225000D01*
G01*
X106900000Y-54640000D01*
G75*
G02*
X107125000Y-54415000I225000J0D01*
G01*
X107575000Y-54415000D01*
G75*
G02*
X107800000Y-54640000I0J-225000D01*
G01*
G37*
G36*
G01*
X109350000Y-54640000D02*
X109350000Y-55140000D01*
G75*
G02*
X109125000Y-55365000I-225000J0D01*
G01*
X108675000Y-55365000D01*
G75*
G02*
X108450000Y-55140000I0J225000D01*
G01*
X108450000Y-54640000D01*
G75*
G02*
X108675000Y-54415000I225000J0D01*
G01*
X109125000Y-54415000D01*
G75*
G02*
X109350000Y-54640000I0J-225000D01*
G01*
G37*
D10*
X119600000Y-81639600D03*
X119600000Y-75340400D03*
X107600000Y-81639600D03*
X107600000Y-75340400D03*
G36*
G01*
X117275000Y-66515000D02*
X117275000Y-65965000D01*
G75*
G02*
X117475000Y-65765000I200000J0D01*
G01*
X117875000Y-65765000D01*
G75*
G02*
X118075000Y-65965000I0J-200000D01*
G01*
X118075000Y-66515000D01*
G75*
G02*
X117875000Y-66715000I-200000J0D01*
G01*
X117475000Y-66715000D01*
G75*
G02*
X117275000Y-66515000I0J200000D01*
G01*
G37*
G36*
G01*
X115625000Y-66515000D02*
X115625000Y-65965000D01*
G75*
G02*
X115825000Y-65765000I200000J0D01*
G01*
X116225000Y-65765000D01*
G75*
G02*
X116425000Y-65965000I0J-200000D01*
G01*
X116425000Y-66515000D01*
G75*
G02*
X116225000Y-66715000I-200000J0D01*
G01*
X115825000Y-66715000D01*
G75*
G02*
X115625000Y-66515000I0J200000D01*
G01*
G37*
G36*
G01*
X112775000Y-72515000D02*
X112775000Y-71965000D01*
G75*
G02*
X112975000Y-71765000I200000J0D01*
G01*
X113375000Y-71765000D01*
G75*
G02*
X113575000Y-71965000I0J-200000D01*
G01*
X113575000Y-72515000D01*
G75*
G02*
X113375000Y-72715000I-200000J0D01*
G01*
X112975000Y-72715000D01*
G75*
G02*
X112775000Y-72515000I0J200000D01*
G01*
G37*
G36*
G01*
X111125000Y-72515000D02*
X111125000Y-71965000D01*
G75*
G02*
X111325000Y-71765000I200000J0D01*
G01*
X111725000Y-71765000D01*
G75*
G02*
X111925000Y-71965000I0J-200000D01*
G01*
X111925000Y-72515000D01*
G75*
G02*
X111725000Y-72715000I-200000J0D01*
G01*
X111325000Y-72715000D01*
G75*
G02*
X111125000Y-72515000I0J200000D01*
G01*
G37*
G36*
G01*
X122850000Y-103565000D02*
X123350000Y-103565000D01*
G75*
G02*
X123575000Y-103790000I0J-225000D01*
G01*
X123575000Y-104240000D01*
G75*
G02*
X123350000Y-104465000I-225000J0D01*
G01*
X122850000Y-104465000D01*
G75*
G02*
X122625000Y-104240000I0J225000D01*
G01*
X122625000Y-103790000D01*
G75*
G02*
X122850000Y-103565000I225000J0D01*
G01*
G37*
G36*
G01*
X122850000Y-102015000D02*
X123350000Y-102015000D01*
G75*
G02*
X123575000Y-102240000I0J-225000D01*
G01*
X123575000Y-102690000D01*
G75*
G02*
X123350000Y-102915000I-225000J0D01*
G01*
X122850000Y-102915000D01*
G75*
G02*
X122625000Y-102690000I0J225000D01*
G01*
X122625000Y-102240000D01*
G75*
G02*
X122850000Y-102015000I225000J0D01*
G01*
G37*
G36*
G01*
X104305000Y-104190000D02*
X104005000Y-104190000D01*
G75*
G02*
X103855000Y-104040000I0J150000D01*
G01*
X103855000Y-102390000D01*
G75*
G02*
X104005000Y-102240000I150000J0D01*
G01*
X104305000Y-102240000D01*
G75*
G02*
X104455000Y-102390000I0J-150000D01*
G01*
X104455000Y-104040000D01*
G75*
G02*
X104305000Y-104190000I-150000J0D01*
G01*
G37*
G36*
G01*
X105575000Y-104190000D02*
X105275000Y-104190000D01*
G75*
G02*
X105125000Y-104040000I0J150000D01*
G01*
X105125000Y-102390000D01*
G75*
G02*
X105275000Y-102240000I150000J0D01*
G01*
X105575000Y-102240000D01*
G75*
G02*
X105725000Y-102390000I0J-150000D01*
G01*
X105725000Y-104040000D01*
G75*
G02*
X105575000Y-104190000I-150000J0D01*
G01*
G37*
G36*
G01*
X106845000Y-104190000D02*
X106545000Y-104190000D01*
G75*
G02*
X106395000Y-104040000I0J150000D01*
G01*
X106395000Y-102390000D01*
G75*
G02*
X106545000Y-102240000I150000J0D01*
G01*
X106845000Y-102240000D01*
G75*
G02*
X106995000Y-102390000I0J-150000D01*
G01*
X106995000Y-104040000D01*
G75*
G02*
X106845000Y-104190000I-150000J0D01*
G01*
G37*
G36*
G01*
X108115000Y-104190000D02*
X107815000Y-104190000D01*
G75*
G02*
X107665000Y-104040000I0J150000D01*
G01*
X107665000Y-102390000D01*
G75*
G02*
X107815000Y-102240000I150000J0D01*
G01*
X108115000Y-102240000D01*
G75*
G02*
X108265000Y-102390000I0J-150000D01*
G01*
X108265000Y-104040000D01*
G75*
G02*
X108115000Y-104190000I-150000J0D01*
G01*
G37*
G36*
G01*
X109385000Y-104190000D02*
X109085000Y-104190000D01*
G75*
G02*
X108935000Y-104040000I0J150000D01*
G01*
X108935000Y-102390000D01*
G75*
G02*
X109085000Y-102240000I150000J0D01*
G01*
X109385000Y-102240000D01*
G75*
G02*
X109535000Y-102390000I0J-150000D01*
G01*
X109535000Y-104040000D01*
G75*
G02*
X109385000Y-104190000I-150000J0D01*
G01*
G37*
G36*
G01*
X110655000Y-104190000D02*
X110355000Y-104190000D01*
G75*
G02*
X110205000Y-104040000I0J150000D01*
G01*
X110205000Y-102390000D01*
G75*
G02*
X110355000Y-102240000I150000J0D01*
G01*
X110655000Y-102240000D01*
G75*
G02*
X110805000Y-102390000I0J-150000D01*
G01*
X110805000Y-104040000D01*
G75*
G02*
X110655000Y-104190000I-150000J0D01*
G01*
G37*
G36*
G01*
X111925000Y-104190000D02*
X111625000Y-104190000D01*
G75*
G02*
X111475000Y-104040000I0J150000D01*
G01*
X111475000Y-102390000D01*
G75*
G02*
X111625000Y-102240000I150000J0D01*
G01*
X111925000Y-102240000D01*
G75*
G02*
X112075000Y-102390000I0J-150000D01*
G01*
X112075000Y-104040000D01*
G75*
G02*
X111925000Y-104190000I-150000J0D01*
G01*
G37*
G36*
G01*
X113195000Y-104190000D02*
X112895000Y-104190000D01*
G75*
G02*
X112745000Y-104040000I0J150000D01*
G01*
X112745000Y-102390000D01*
G75*
G02*
X112895000Y-102240000I150000J0D01*
G01*
X113195000Y-102240000D01*
G75*
G02*
X113345000Y-102390000I0J-150000D01*
G01*
X113345000Y-104040000D01*
G75*
G02*
X113195000Y-104190000I-150000J0D01*
G01*
G37*
G36*
G01*
X113195000Y-99240000D02*
X112895000Y-99240000D01*
G75*
G02*
X112745000Y-99090000I0J150000D01*
G01*
X112745000Y-97440000D01*
G75*
G02*
X112895000Y-97290000I150000J0D01*
G01*
X113195000Y-97290000D01*
G75*
G02*
X113345000Y-97440000I0J-150000D01*
G01*
X113345000Y-99090000D01*
G75*
G02*
X113195000Y-99240000I-150000J0D01*
G01*
G37*
G36*
G01*
X111925000Y-99240000D02*
X111625000Y-99240000D01*
G75*
G02*
X111475000Y-99090000I0J150000D01*
G01*
X111475000Y-97440000D01*
G75*
G02*
X111625000Y-97290000I150000J0D01*
G01*
X111925000Y-97290000D01*
G75*
G02*
X112075000Y-97440000I0J-150000D01*
G01*
X112075000Y-99090000D01*
G75*
G02*
X111925000Y-99240000I-150000J0D01*
G01*
G37*
G36*
G01*
X110655000Y-99240000D02*
X110355000Y-99240000D01*
G75*
G02*
X110205000Y-99090000I0J150000D01*
G01*
X110205000Y-97440000D01*
G75*
G02*
X110355000Y-97290000I150000J0D01*
G01*
X110655000Y-97290000D01*
G75*
G02*
X110805000Y-97440000I0J-150000D01*
G01*
X110805000Y-99090000D01*
G75*
G02*
X110655000Y-99240000I-150000J0D01*
G01*
G37*
G36*
G01*
X109385000Y-99240000D02*
X109085000Y-99240000D01*
G75*
G02*
X108935000Y-99090000I0J150000D01*
G01*
X108935000Y-97440000D01*
G75*
G02*
X109085000Y-97290000I150000J0D01*
G01*
X109385000Y-97290000D01*
G75*
G02*
X109535000Y-97440000I0J-150000D01*
G01*
X109535000Y-99090000D01*
G75*
G02*
X109385000Y-99240000I-150000J0D01*
G01*
G37*
G36*
G01*
X108115000Y-99240000D02*
X107815000Y-99240000D01*
G75*
G02*
X107665000Y-99090000I0J150000D01*
G01*
X107665000Y-97440000D01*
G75*
G02*
X107815000Y-97290000I150000J0D01*
G01*
X108115000Y-97290000D01*
G75*
G02*
X108265000Y-97440000I0J-150000D01*
G01*
X108265000Y-99090000D01*
G75*
G02*
X108115000Y-99240000I-150000J0D01*
G01*
G37*
G36*
G01*
X106845000Y-99240000D02*
X106545000Y-99240000D01*
G75*
G02*
X106395000Y-99090000I0J150000D01*
G01*
X106395000Y-97440000D01*
G75*
G02*
X106545000Y-97290000I150000J0D01*
G01*
X106845000Y-97290000D01*
G75*
G02*
X106995000Y-97440000I0J-150000D01*
G01*
X106995000Y-99090000D01*
G75*
G02*
X106845000Y-99240000I-150000J0D01*
G01*
G37*
G36*
G01*
X105575000Y-99240000D02*
X105275000Y-99240000D01*
G75*
G02*
X105125000Y-99090000I0J150000D01*
G01*
X105125000Y-97440000D01*
G75*
G02*
X105275000Y-97290000I150000J0D01*
G01*
X105575000Y-97290000D01*
G75*
G02*
X105725000Y-97440000I0J-150000D01*
G01*
X105725000Y-99090000D01*
G75*
G02*
X105575000Y-99240000I-150000J0D01*
G01*
G37*
G36*
G01*
X104305000Y-99240000D02*
X104005000Y-99240000D01*
G75*
G02*
X103855000Y-99090000I0J150000D01*
G01*
X103855000Y-97440000D01*
G75*
G02*
X104005000Y-97290000I150000J0D01*
G01*
X104305000Y-97290000D01*
G75*
G02*
X104455000Y-97440000I0J-150000D01*
G01*
X104455000Y-99090000D01*
G75*
G02*
X104305000Y-99240000I-150000J0D01*
G01*
G37*
G36*
G01*
X116025000Y-98490000D02*
X116025000Y-98990000D01*
G75*
G02*
X115800000Y-99215000I-225000J0D01*
G01*
X115350000Y-99215000D01*
G75*
G02*
X115125000Y-98990000I0J225000D01*
G01*
X115125000Y-98490000D01*
G75*
G02*
X115350000Y-98265000I225000J0D01*
G01*
X115800000Y-98265000D01*
G75*
G02*
X116025000Y-98490000I0J-225000D01*
G01*
G37*
G36*
G01*
X117575000Y-98490000D02*
X117575000Y-98990000D01*
G75*
G02*
X117350000Y-99215000I-225000J0D01*
G01*
X116900000Y-99215000D01*
G75*
G02*
X116675000Y-98990000I0J225000D01*
G01*
X116675000Y-98490000D01*
G75*
G02*
X116900000Y-98265000I225000J0D01*
G01*
X117350000Y-98265000D01*
G75*
G02*
X117575000Y-98490000I0J-225000D01*
G01*
G37*
G36*
G01*
X122125000Y-100790000D02*
X122125000Y-101090000D01*
G75*
G02*
X121975000Y-101240000I-150000J0D01*
G01*
X120950000Y-101240000D01*
G75*
G02*
X120800000Y-101090000I0J150000D01*
G01*
X120800000Y-100790000D01*
G75*
G02*
X120950000Y-100640000I150000J0D01*
G01*
X121975000Y-100640000D01*
G75*
G02*
X122125000Y-100790000I0J-150000D01*
G01*
G37*
G36*
G01*
X122125000Y-98890000D02*
X122125000Y-99190000D01*
G75*
G02*
X121975000Y-99340000I-150000J0D01*
G01*
X120950000Y-99340000D01*
G75*
G02*
X120800000Y-99190000I0J150000D01*
G01*
X120800000Y-98890000D01*
G75*
G02*
X120950000Y-98740000I150000J0D01*
G01*
X121975000Y-98740000D01*
G75*
G02*
X122125000Y-98890000I0J-150000D01*
G01*
G37*
G36*
G01*
X124400000Y-98890000D02*
X124400000Y-99190000D01*
G75*
G02*
X124250000Y-99340000I-150000J0D01*
G01*
X123225000Y-99340000D01*
G75*
G02*
X123075000Y-99190000I0J150000D01*
G01*
X123075000Y-98890000D01*
G75*
G02*
X123225000Y-98740000I150000J0D01*
G01*
X124250000Y-98740000D01*
G75*
G02*
X124400000Y-98890000I0J-150000D01*
G01*
G37*
G36*
G01*
X124400000Y-99840000D02*
X124400000Y-100140000D01*
G75*
G02*
X124250000Y-100290000I-150000J0D01*
G01*
X123225000Y-100290000D01*
G75*
G02*
X123075000Y-100140000I0J150000D01*
G01*
X123075000Y-99840000D01*
G75*
G02*
X123225000Y-99690000I150000J0D01*
G01*
X124250000Y-99690000D01*
G75*
G02*
X124400000Y-99840000I0J-150000D01*
G01*
G37*
G36*
G01*
X124400000Y-100790000D02*
X124400000Y-101090000D01*
G75*
G02*
X124250000Y-101240000I-150000J0D01*
G01*
X123225000Y-101240000D01*
G75*
G02*
X123075000Y-101090000I0J150000D01*
G01*
X123075000Y-100790000D01*
G75*
G02*
X123225000Y-100640000I150000J0D01*
G01*
X124250000Y-100640000D01*
G75*
G02*
X124400000Y-100790000I0J-150000D01*
G01*
G37*
G36*
G01*
X102350000Y-101065000D02*
X102850000Y-101065000D01*
G75*
G02*
X103075000Y-101290000I0J-225000D01*
G01*
X103075000Y-101740000D01*
G75*
G02*
X102850000Y-101965000I-225000J0D01*
G01*
X102350000Y-101965000D01*
G75*
G02*
X102125000Y-101740000I0J225000D01*
G01*
X102125000Y-101290000D01*
G75*
G02*
X102350000Y-101065000I225000J0D01*
G01*
G37*
G36*
G01*
X102350000Y-99515000D02*
X102850000Y-99515000D01*
G75*
G02*
X103075000Y-99740000I0J-225000D01*
G01*
X103075000Y-100190000D01*
G75*
G02*
X102850000Y-100415000I-225000J0D01*
G01*
X102350000Y-100415000D01*
G75*
G02*
X102125000Y-100190000I0J225000D01*
G01*
X102125000Y-99740000D01*
G75*
G02*
X102350000Y-99515000I225000J0D01*
G01*
G37*
G36*
G01*
X121350000Y-103565000D02*
X121850000Y-103565000D01*
G75*
G02*
X122075000Y-103790000I0J-225000D01*
G01*
X122075000Y-104240000D01*
G75*
G02*
X121850000Y-104465000I-225000J0D01*
G01*
X121350000Y-104465000D01*
G75*
G02*
X121125000Y-104240000I0J225000D01*
G01*
X121125000Y-103790000D01*
G75*
G02*
X121350000Y-103565000I225000J0D01*
G01*
G37*
G36*
G01*
X121350000Y-102015000D02*
X121850000Y-102015000D01*
G75*
G02*
X122075000Y-102240000I0J-225000D01*
G01*
X122075000Y-102690000D01*
G75*
G02*
X121850000Y-102915000I-225000J0D01*
G01*
X121350000Y-102915000D01*
G75*
G02*
X121125000Y-102690000I0J225000D01*
G01*
X121125000Y-102240000D01*
G75*
G02*
X121350000Y-102015000I225000J0D01*
G01*
G37*
G36*
G01*
X123825000Y-97240000D02*
X123825000Y-97740000D01*
G75*
G02*
X123600000Y-97965000I-225000J0D01*
G01*
X123150000Y-97965000D01*
G75*
G02*
X122925000Y-97740000I0J225000D01*
G01*
X122925000Y-97240000D01*
G75*
G02*
X123150000Y-97015000I225000J0D01*
G01*
X123600000Y-97015000D01*
G75*
G02*
X123825000Y-97240000I0J-225000D01*
G01*
G37*
G36*
G01*
X122275000Y-97240000D02*
X122275000Y-97740000D01*
G75*
G02*
X122050000Y-97965000I-225000J0D01*
G01*
X121600000Y-97965000D01*
G75*
G02*
X121375000Y-97740000I0J225000D01*
G01*
X121375000Y-97240000D01*
G75*
G02*
X121600000Y-97015000I225000J0D01*
G01*
X122050000Y-97015000D01*
G75*
G02*
X122275000Y-97240000I0J-225000D01*
G01*
G37*
D11*
X110100000Y-106840000D03*
X117100000Y-106840000D03*
X112600000Y-106840000D03*
X114600000Y-106840000D03*
G36*
G01*
X115125000Y-84790000D02*
X115125000Y-85090000D01*
G75*
G02*
X114975000Y-85240000I-150000J0D01*
G01*
X113950000Y-85240000D01*
G75*
G02*
X113800000Y-85090000I0J150000D01*
G01*
X113800000Y-84790000D01*
G75*
G02*
X113950000Y-84640000I150000J0D01*
G01*
X114975000Y-84640000D01*
G75*
G02*
X115125000Y-84790000I0J-150000D01*
G01*
G37*
G36*
G01*
X115125000Y-82890000D02*
X115125000Y-83190000D01*
G75*
G02*
X114975000Y-83340000I-150000J0D01*
G01*
X113950000Y-83340000D01*
G75*
G02*
X113800000Y-83190000I0J150000D01*
G01*
X113800000Y-82890000D01*
G75*
G02*
X113950000Y-82740000I150000J0D01*
G01*
X114975000Y-82740000D01*
G75*
G02*
X115125000Y-82890000I0J-150000D01*
G01*
G37*
G36*
G01*
X117400000Y-82890000D02*
X117400000Y-83190000D01*
G75*
G02*
X117250000Y-83340000I-150000J0D01*
G01*
X116225000Y-83340000D01*
G75*
G02*
X116075000Y-83190000I0J150000D01*
G01*
X116075000Y-82890000D01*
G75*
G02*
X116225000Y-82740000I150000J0D01*
G01*
X117250000Y-82740000D01*
G75*
G02*
X117400000Y-82890000I0J-150000D01*
G01*
G37*
G36*
G01*
X117400000Y-83840000D02*
X117400000Y-84140000D01*
G75*
G02*
X117250000Y-84290000I-150000J0D01*
G01*
X116225000Y-84290000D01*
G75*
G02*
X116075000Y-84140000I0J150000D01*
G01*
X116075000Y-83840000D01*
G75*
G02*
X116225000Y-83690000I150000J0D01*
G01*
X117250000Y-83690000D01*
G75*
G02*
X117400000Y-83840000I0J-150000D01*
G01*
G37*
G36*
G01*
X117400000Y-84790000D02*
X117400000Y-85090000D01*
G75*
G02*
X117250000Y-85240000I-150000J0D01*
G01*
X116225000Y-85240000D01*
G75*
G02*
X116075000Y-85090000I0J150000D01*
G01*
X116075000Y-84790000D01*
G75*
G02*
X116225000Y-84640000I150000J0D01*
G01*
X117250000Y-84640000D01*
G75*
G02*
X117400000Y-84790000I0J-150000D01*
G01*
G37*
G36*
G01*
X107525000Y-65915000D02*
X107525000Y-66465000D01*
G75*
G02*
X107325000Y-66665000I-200000J0D01*
G01*
X106925000Y-66665000D01*
G75*
G02*
X106725000Y-66465000I0J200000D01*
G01*
X106725000Y-65915000D01*
G75*
G02*
X106925000Y-65715000I200000J0D01*
G01*
X107325000Y-65715000D01*
G75*
G02*
X107525000Y-65915000I0J-200000D01*
G01*
G37*
G36*
G01*
X109175000Y-65915000D02*
X109175000Y-66465000D01*
G75*
G02*
X108975000Y-66665000I-200000J0D01*
G01*
X108575000Y-66665000D01*
G75*
G02*
X108375000Y-66465000I0J200000D01*
G01*
X108375000Y-65915000D01*
G75*
G02*
X108575000Y-65715000I200000J0D01*
G01*
X108975000Y-65715000D01*
G75*
G02*
X109175000Y-65915000I0J-200000D01*
G01*
G37*
G36*
G01*
X115825000Y-77415000D02*
X116375000Y-77415000D01*
G75*
G02*
X116575000Y-77615000I0J-200000D01*
G01*
X116575000Y-78015000D01*
G75*
G02*
X116375000Y-78215000I-200000J0D01*
G01*
X115825000Y-78215000D01*
G75*
G02*
X115625000Y-78015000I0J200000D01*
G01*
X115625000Y-77615000D01*
G75*
G02*
X115825000Y-77415000I200000J0D01*
G01*
G37*
G36*
G01*
X115825000Y-75765000D02*
X116375000Y-75765000D01*
G75*
G02*
X116575000Y-75965000I0J-200000D01*
G01*
X116575000Y-76365000D01*
G75*
G02*
X116375000Y-76565000I-200000J0D01*
G01*
X115825000Y-76565000D01*
G75*
G02*
X115625000Y-76365000I0J200000D01*
G01*
X115625000Y-75965000D01*
G75*
G02*
X115825000Y-75765000I200000J0D01*
G01*
G37*
G36*
G01*
X118175000Y-70765000D02*
X118175000Y-70215000D01*
G75*
G02*
X118375000Y-70015000I200000J0D01*
G01*
X118775000Y-70015000D01*
G75*
G02*
X118975000Y-70215000I0J-200000D01*
G01*
X118975000Y-70765000D01*
G75*
G02*
X118775000Y-70965000I-200000J0D01*
G01*
X118375000Y-70965000D01*
G75*
G02*
X118175000Y-70765000I0J200000D01*
G01*
G37*
G36*
G01*
X116525000Y-70765000D02*
X116525000Y-70215000D01*
G75*
G02*
X116725000Y-70015000I200000J0D01*
G01*
X117125000Y-70015000D01*
G75*
G02*
X117325000Y-70215000I0J-200000D01*
G01*
X117325000Y-70765000D01*
G75*
G02*
X117125000Y-70965000I-200000J0D01*
G01*
X116725000Y-70965000D01*
G75*
G02*
X116525000Y-70765000I0J200000D01*
G01*
G37*
G36*
G01*
X115075000Y-59315000D02*
X114525000Y-59315000D01*
G75*
G02*
X114325000Y-59115000I0J200000D01*
G01*
X114325000Y-58715000D01*
G75*
G02*
X114525000Y-58515000I200000J0D01*
G01*
X115075000Y-58515000D01*
G75*
G02*
X115275000Y-58715000I0J-200000D01*
G01*
X115275000Y-59115000D01*
G75*
G02*
X115075000Y-59315000I-200000J0D01*
G01*
G37*
G36*
G01*
X115075000Y-60965000D02*
X114525000Y-60965000D01*
G75*
G02*
X114325000Y-60765000I0J200000D01*
G01*
X114325000Y-60365000D01*
G75*
G02*
X114525000Y-60165000I200000J0D01*
G01*
X115075000Y-60165000D01*
G75*
G02*
X115275000Y-60365000I0J-200000D01*
G01*
X115275000Y-60765000D01*
G75*
G02*
X115075000Y-60965000I-200000J0D01*
G01*
G37*
D12*
X114350000Y-68490000D03*
X115300000Y-70490000D03*
X113400000Y-70490000D03*
X110350000Y-68490000D03*
X111300000Y-70490000D03*
X109400000Y-70490000D03*
G36*
G01*
X113893750Y-77440000D02*
X114806250Y-77440000D01*
G75*
G02*
X115050000Y-77683750I0J-243750D01*
G01*
X115050000Y-78171250D01*
G75*
G02*
X114806250Y-78415000I-243750J0D01*
G01*
X113893750Y-78415000D01*
G75*
G02*
X113650000Y-78171250I0J243750D01*
G01*
X113650000Y-77683750D01*
G75*
G02*
X113893750Y-77440000I243750J0D01*
G01*
G37*
G36*
G01*
X113893750Y-75565000D02*
X114806250Y-75565000D01*
G75*
G02*
X115050000Y-75808750I0J-243750D01*
G01*
X115050000Y-76296250D01*
G75*
G02*
X114806250Y-76540000I-243750J0D01*
G01*
X113893750Y-76540000D01*
G75*
G02*
X113650000Y-76296250I0J243750D01*
G01*
X113650000Y-75808750D01*
G75*
G02*
X113893750Y-75565000I243750J0D01*
G01*
G37*
G36*
G01*
X117125000Y-67790000D02*
X117125000Y-67290000D01*
G75*
G02*
X117350000Y-67065000I225000J0D01*
G01*
X117800000Y-67065000D01*
G75*
G02*
X118025000Y-67290000I0J-225000D01*
G01*
X118025000Y-67790000D01*
G75*
G02*
X117800000Y-68015000I-225000J0D01*
G01*
X117350000Y-68015000D01*
G75*
G02*
X117125000Y-67790000I0J225000D01*
G01*
G37*
G36*
G01*
X115575000Y-67790000D02*
X115575000Y-67290000D01*
G75*
G02*
X115800000Y-67065000I225000J0D01*
G01*
X116250000Y-67065000D01*
G75*
G02*
X116475000Y-67290000I0J-225000D01*
G01*
X116475000Y-67790000D01*
G75*
G02*
X116250000Y-68015000I-225000J0D01*
G01*
X115800000Y-68015000D01*
G75*
G02*
X115575000Y-67790000I0J225000D01*
G01*
G37*
G36*
G01*
X107625000Y-67290000D02*
X107625000Y-67790000D01*
G75*
G02*
X107400000Y-68015000I-225000J0D01*
G01*
X106950000Y-68015000D01*
G75*
G02*
X106725000Y-67790000I0J225000D01*
G01*
X106725000Y-67290000D01*
G75*
G02*
X106950000Y-67065000I225000J0D01*
G01*
X107400000Y-67065000D01*
G75*
G02*
X107625000Y-67290000I0J-225000D01*
G01*
G37*
G36*
G01*
X109175000Y-67290000D02*
X109175000Y-67790000D01*
G75*
G02*
X108950000Y-68015000I-225000J0D01*
G01*
X108500000Y-68015000D01*
G75*
G02*
X108275000Y-67790000I0J225000D01*
G01*
X108275000Y-67290000D01*
G75*
G02*
X108500000Y-67065000I225000J0D01*
G01*
X108950000Y-67065000D01*
G75*
G02*
X109175000Y-67290000I0J-225000D01*
G01*
G37*
G36*
G01*
X120250000Y-57115000D02*
X120750000Y-57115000D01*
G75*
G02*
X120975000Y-57340000I0J-225000D01*
G01*
X120975000Y-57790000D01*
G75*
G02*
X120750000Y-58015000I-225000J0D01*
G01*
X120250000Y-58015000D01*
G75*
G02*
X120025000Y-57790000I0J225000D01*
G01*
X120025000Y-57340000D01*
G75*
G02*
X120250000Y-57115000I225000J0D01*
G01*
G37*
G36*
G01*
X120250000Y-55565000D02*
X120750000Y-55565000D01*
G75*
G02*
X120975000Y-55790000I0J-225000D01*
G01*
X120975000Y-56240000D01*
G75*
G02*
X120750000Y-56465000I-225000J0D01*
G01*
X120250000Y-56465000D01*
G75*
G02*
X120025000Y-56240000I0J225000D01*
G01*
X120025000Y-55790000D01*
G75*
G02*
X120250000Y-55565000I225000J0D01*
G01*
G37*
G36*
G01*
X106275000Y-105490000D02*
X106275000Y-105990000D01*
G75*
G02*
X106050000Y-106215000I-225000J0D01*
G01*
X105600000Y-106215000D01*
G75*
G02*
X105375000Y-105990000I0J225000D01*
G01*
X105375000Y-105490000D01*
G75*
G02*
X105600000Y-105265000I225000J0D01*
G01*
X106050000Y-105265000D01*
G75*
G02*
X106275000Y-105490000I0J-225000D01*
G01*
G37*
G36*
G01*
X107825000Y-105490000D02*
X107825000Y-105990000D01*
G75*
G02*
X107600000Y-106215000I-225000J0D01*
G01*
X107150000Y-106215000D01*
G75*
G02*
X106925000Y-105990000I0J225000D01*
G01*
X106925000Y-105490000D01*
G75*
G02*
X107150000Y-105265000I225000J0D01*
G01*
X107600000Y-105265000D01*
G75*
G02*
X107825000Y-105490000I0J-225000D01*
G01*
G37*
G36*
G01*
X112025001Y-78340000D02*
X111174999Y-78340000D01*
G75*
G02*
X110925000Y-78090001I0J249999D01*
G01*
X110925000Y-77189999D01*
G75*
G02*
X111174999Y-76940000I249999J0D01*
G01*
X112025001Y-76940000D01*
G75*
G02*
X112275000Y-77189999I0J-249999D01*
G01*
X112275000Y-78090001D01*
G75*
G02*
X112025001Y-78340000I-249999J0D01*
G01*
G37*
G36*
G01*
X112025001Y-81040000D02*
X111174999Y-81040000D01*
G75*
G02*
X110925000Y-80790001I0J249999D01*
G01*
X110925000Y-79889999D01*
G75*
G02*
X111174999Y-79640000I249999J0D01*
G01*
X112025001Y-79640000D01*
G75*
G02*
X112275000Y-79889999I0J-249999D01*
G01*
X112275000Y-80790001D01*
G75*
G02*
X112025001Y-81040000I-249999J0D01*
G01*
G37*
G36*
G01*
X103550000Y-35515000D02*
X103050000Y-35515000D01*
G75*
G02*
X102825000Y-35290000I0J225000D01*
G01*
X102825000Y-34840000D01*
G75*
G02*
X103050000Y-34615000I225000J0D01*
G01*
X103550000Y-34615000D01*
G75*
G02*
X103775000Y-34840000I0J-225000D01*
G01*
X103775000Y-35290000D01*
G75*
G02*
X103550000Y-35515000I-225000J0D01*
G01*
G37*
G36*
G01*
X103550000Y-37065000D02*
X103050000Y-37065000D01*
G75*
G02*
X102825000Y-36840000I0J225000D01*
G01*
X102825000Y-36390000D01*
G75*
G02*
X103050000Y-36165000I225000J0D01*
G01*
X103550000Y-36165000D01*
G75*
G02*
X103775000Y-36390000I0J-225000D01*
G01*
X103775000Y-36840000D01*
G75*
G02*
X103550000Y-37065000I-225000J0D01*
G01*
G37*
G36*
G01*
X111225000Y-84340000D02*
X111225000Y-84840000D01*
G75*
G02*
X111000000Y-85065000I-225000J0D01*
G01*
X110550000Y-85065000D01*
G75*
G02*
X110325000Y-84840000I0J225000D01*
G01*
X110325000Y-84340000D01*
G75*
G02*
X110550000Y-84115000I225000J0D01*
G01*
X111000000Y-84115000D01*
G75*
G02*
X111225000Y-84340000I0J-225000D01*
G01*
G37*
G36*
G01*
X112775000Y-84340000D02*
X112775000Y-84840000D01*
G75*
G02*
X112550000Y-85065000I-225000J0D01*
G01*
X112100000Y-85065000D01*
G75*
G02*
X111875000Y-84840000I0J225000D01*
G01*
X111875000Y-84340000D01*
G75*
G02*
X112100000Y-84115000I225000J0D01*
G01*
X112550000Y-84115000D01*
G75*
G02*
X112775000Y-84340000I0J-225000D01*
G01*
G37*
G36*
G01*
X111225000Y-82940000D02*
X111225000Y-83440000D01*
G75*
G02*
X111000000Y-83665000I-225000J0D01*
G01*
X110550000Y-83665000D01*
G75*
G02*
X110325000Y-83440000I0J225000D01*
G01*
X110325000Y-82940000D01*
G75*
G02*
X110550000Y-82715000I225000J0D01*
G01*
X111000000Y-82715000D01*
G75*
G02*
X111225000Y-82940000I0J-225000D01*
G01*
G37*
G36*
G01*
X112775000Y-82940000D02*
X112775000Y-83440000D01*
G75*
G02*
X112550000Y-83665000I-225000J0D01*
G01*
X112100000Y-83665000D01*
G75*
G02*
X111875000Y-83440000I0J225000D01*
G01*
X111875000Y-82940000D01*
G75*
G02*
X112100000Y-82715000I225000J0D01*
G01*
X112550000Y-82715000D01*
G75*
G02*
X112775000Y-82940000I0J-225000D01*
G01*
G37*
G36*
G01*
X116025000Y-103990000D02*
X116025000Y-104490000D01*
G75*
G02*
X115800000Y-104715000I-225000J0D01*
G01*
X115350000Y-104715000D01*
G75*
G02*
X115125000Y-104490000I0J225000D01*
G01*
X115125000Y-103990000D01*
G75*
G02*
X115350000Y-103765000I225000J0D01*
G01*
X115800000Y-103765000D01*
G75*
G02*
X116025000Y-103990000I0J-225000D01*
G01*
G37*
G36*
G01*
X117575000Y-103990000D02*
X117575000Y-104490000D01*
G75*
G02*
X117350000Y-104715000I-225000J0D01*
G01*
X116900000Y-104715000D01*
G75*
G02*
X116675000Y-104490000I0J225000D01*
G01*
X116675000Y-103990000D01*
G75*
G02*
X116900000Y-103765000I225000J0D01*
G01*
X117350000Y-103765000D01*
G75*
G02*
X117575000Y-103990000I0J-225000D01*
G01*
G37*
G36*
G01*
X115275000Y-81240000D02*
X115275000Y-81740000D01*
G75*
G02*
X115050000Y-81965000I-225000J0D01*
G01*
X114600000Y-81965000D01*
G75*
G02*
X114375000Y-81740000I0J225000D01*
G01*
X114375000Y-81240000D01*
G75*
G02*
X114600000Y-81015000I225000J0D01*
G01*
X115050000Y-81015000D01*
G75*
G02*
X115275000Y-81240000I0J-225000D01*
G01*
G37*
G36*
G01*
X116825000Y-81240000D02*
X116825000Y-81740000D01*
G75*
G02*
X116600000Y-81965000I-225000J0D01*
G01*
X116150000Y-81965000D01*
G75*
G02*
X115925000Y-81740000I0J225000D01*
G01*
X115925000Y-81240000D01*
G75*
G02*
X116150000Y-81015000I225000J0D01*
G01*
X116600000Y-81015000D01*
G75*
G02*
X116825000Y-81240000I0J-225000D01*
G01*
G37*
G36*
G01*
X115275000Y-79740000D02*
X115275000Y-80240000D01*
G75*
G02*
X115050000Y-80465000I-225000J0D01*
G01*
X114600000Y-80465000D01*
G75*
G02*
X114375000Y-80240000I0J225000D01*
G01*
X114375000Y-79740000D01*
G75*
G02*
X114600000Y-79515000I225000J0D01*
G01*
X115050000Y-79515000D01*
G75*
G02*
X115275000Y-79740000I0J-225000D01*
G01*
G37*
G36*
G01*
X116825000Y-79740000D02*
X116825000Y-80240000D01*
G75*
G02*
X116600000Y-80465000I-225000J0D01*
G01*
X116150000Y-80465000D01*
G75*
G02*
X115925000Y-80240000I0J225000D01*
G01*
X115925000Y-79740000D01*
G75*
G02*
X116150000Y-79515000I225000J0D01*
G01*
X116600000Y-79515000D01*
G75*
G02*
X116825000Y-79740000I0J-225000D01*
G01*
G37*
G36*
G01*
X124875000Y-105415000D02*
X124875000Y-107565000D01*
G75*
G02*
X124625000Y-107815000I-250000J0D01*
G01*
X123875000Y-107815000D01*
G75*
G02*
X123625000Y-107565000I0J250000D01*
G01*
X123625000Y-105415000D01*
G75*
G02*
X123875000Y-105165000I250000J0D01*
G01*
X124625000Y-105165000D01*
G75*
G02*
X124875000Y-105415000I0J-250000D01*
G01*
G37*
G36*
G01*
X122075000Y-105415000D02*
X122075000Y-107565000D01*
G75*
G02*
X121825000Y-107815000I-250000J0D01*
G01*
X121075000Y-107815000D01*
G75*
G02*
X120825000Y-107565000I0J250000D01*
G01*
X120825000Y-105415000D01*
G75*
G02*
X121075000Y-105165000I250000J0D01*
G01*
X121825000Y-105165000D01*
G75*
G02*
X122075000Y-105415000I0J-250000D01*
G01*
G37*
D13*
X113540000Y-42840000D03*
D14*
X106040000Y-35340000D03*
X106040000Y-36610000D03*
X106040000Y-37880000D03*
X106040000Y-39150000D03*
X106040000Y-40420000D03*
X106040000Y-41690000D03*
X106040000Y-42960000D03*
X106040000Y-44230000D03*
X106040000Y-45500000D03*
X106040000Y-46770000D03*
X106040000Y-48040000D03*
X106040000Y-49310000D03*
X106040000Y-50580000D03*
X106040000Y-51850000D03*
D15*
X108825000Y-52850000D03*
X110095000Y-52850000D03*
X111365000Y-52850000D03*
X112635000Y-52850000D03*
X113905000Y-52850000D03*
X115175000Y-52850000D03*
X116445000Y-52850000D03*
X117715000Y-52850000D03*
X118985000Y-52850000D03*
X120255000Y-52850000D03*
D14*
X123040000Y-51850000D03*
X123040000Y-50580000D03*
X123040000Y-49310000D03*
X123040000Y-48040000D03*
X123040000Y-46770000D03*
X123040000Y-45500000D03*
X123040000Y-44230000D03*
X123040000Y-42960000D03*
X123040000Y-41690000D03*
X123040000Y-40420000D03*
X123040000Y-39150000D03*
X123040000Y-37880000D03*
X123040000Y-36610000D03*
X123040000Y-35340000D03*
D16*
X117450000Y-100590000D03*
X115250000Y-100590000D03*
X115250000Y-102390000D03*
X117450000Y-102390000D03*
M02*
