G04 #@! TF.GenerationSoftware,KiCad,Pcbnew,5.1.10-88a1d61d58~90~ubuntu20.04.1*
G04 #@! TF.CreationDate,2021-07-18T21:46:05+01:00*
G04 #@! TF.ProjectId,lhc_tijolo32_board,6c68635f-7469-46a6-9f6c-6f33325f626f,rev?*
G04 #@! TF.SameCoordinates,Original*
G04 #@! TF.FileFunction,Profile,NP*
%FSLAX46Y46*%
G04 Gerber Fmt 4.6, Leading zero omitted, Abs format (unit mm)*
G04 Created by KiCad (PCBNEW 5.1.10-88a1d61d58~90~ubuntu20.04.1) date 2021-07-18 21:46:05*
%MOMM*%
%LPD*%
G01*
G04 APERTURE LIST*
G04 #@! TA.AperFunction,Profile*
%ADD10C,0.050000*%
G04 #@! TD*
G04 APERTURE END LIST*
D10*
X119600000Y-91490000D02*
G75*
G03*
X119600000Y-91490000I-800000J0D01*
G01*
X109600000Y-91490000D02*
G75*
G03*
X109600000Y-91490000I-800000J0D01*
G01*
X112000000Y-91490000D02*
G75*
G03*
X112000000Y-91490000I-800000J0D01*
G01*
X117200000Y-91490000D02*
G75*
G03*
X117200000Y-91490000I-800000J0D01*
G01*
X114600000Y-91490000D02*
G75*
G03*
X114600000Y-91490000I-800000J0D01*
G01*
X124718034Y-94990000D02*
G75*
G03*
X124718034Y-94990000I-1118034J0D01*
G01*
X124718034Y-109990000D02*
G75*
G03*
X124718034Y-109990000I-1118034J0D01*
G01*
X104718034Y-109990000D02*
G75*
G03*
X104718034Y-109990000I-1118034J0D01*
G01*
X104718034Y-94990000D02*
G75*
G03*
X104718034Y-94990000I-1118034J0D01*
G01*
X101600000Y-29490000D02*
G75*
G02*
X103600000Y-27490000I2000000J0D01*
G01*
X123600000Y-27490000D02*
G75*
G02*
X125600000Y-29490000I0J-2000000D01*
G01*
X125600000Y-87990000D02*
G75*
G02*
X123600000Y-89990000I-2000000J0D01*
G01*
X103600000Y-89990000D02*
G75*
G02*
X101600000Y-87990000I0J2000000D01*
G01*
X123600000Y-92990000D02*
G75*
G02*
X125600000Y-94990000I0J-2000000D01*
G01*
X125600000Y-109990000D02*
G75*
G02*
X123600000Y-111990000I-2000000J0D01*
G01*
X103600000Y-111990000D02*
G75*
G02*
X101600000Y-109990000I0J2000000D01*
G01*
X101600000Y-94990000D02*
G75*
G02*
X103600000Y-92990000I2000000J0D01*
G01*
X122100000Y-92990000D02*
G75*
G02*
X122100000Y-89990000I0J1500000D01*
G01*
X105100000Y-89990000D02*
G75*
G02*
X105100000Y-92990000I0J-1500000D01*
G01*
X103600000Y-89990000D02*
X105100000Y-89990000D01*
X105100000Y-92990000D02*
X103600000Y-92990000D01*
X125600000Y-109990000D02*
X125600000Y-94990000D01*
X101600000Y-94990000D02*
X101600000Y-109990000D01*
X122100000Y-92990000D02*
X123600000Y-92990000D01*
X123600000Y-89990000D02*
X122100000Y-89990000D01*
X101600000Y-44490000D02*
X101600000Y-87990000D01*
X125600000Y-44990000D02*
X125600000Y-87990000D01*
X123600000Y-111990000D02*
X103600000Y-111990000D01*
X123600000Y-27490000D02*
X103600000Y-27490000D01*
X125600000Y-44990000D02*
X125600000Y-29490000D01*
X101600000Y-44490000D02*
X101600000Y-29490000D01*
M02*
