G04 #@! TF.GenerationSoftware,KiCad,Pcbnew,5.1.10-88a1d61d58~90~ubuntu20.04.1*
G04 #@! TF.CreationDate,2021-07-18T21:46:05+01:00*
G04 #@! TF.ProjectId,lhc_tijolo32_board,6c68635f-7469-46a6-9f6c-6f33325f626f,rev?*
G04 #@! TF.SameCoordinates,Original*
G04 #@! TF.FileFunction,Legend,Bot*
G04 #@! TF.FilePolarity,Positive*
%FSLAX46Y46*%
G04 Gerber Fmt 4.6, Leading zero omitted, Abs format (unit mm)*
G04 Created by KiCad (PCBNEW 5.1.10-88a1d61d58~90~ubuntu20.04.1) date 2021-07-18 21:46:05*
%MOMM*%
%LPD*%
G01*
G04 APERTURE LIST*
%ADD10C,0.200000*%
%ADD11C,0.152400*%
%ADD12C,0.010000*%
%ADD13C,0.120000*%
%ADD14C,0.150000*%
G04 APERTURE END LIST*
D10*
X118838095Y-43942380D02*
X118838095Y-42942380D01*
X118600000Y-42942380D01*
X118457142Y-42990000D01*
X118361904Y-43085238D01*
X118314285Y-43180476D01*
X118266666Y-43370952D01*
X118266666Y-43513809D01*
X118314285Y-43704285D01*
X118361904Y-43799523D01*
X118457142Y-43894761D01*
X118600000Y-43942380D01*
X118838095Y-43942380D01*
X117838095Y-43418571D02*
X117504761Y-43418571D01*
X117361904Y-43942380D02*
X117838095Y-43942380D01*
X117838095Y-42942380D01*
X117361904Y-42942380D01*
X116600000Y-43418571D02*
X116457142Y-43466190D01*
X116409523Y-43513809D01*
X116361904Y-43609047D01*
X116361904Y-43751904D01*
X116409523Y-43847142D01*
X116457142Y-43894761D01*
X116552380Y-43942380D01*
X116933333Y-43942380D01*
X116933333Y-42942380D01*
X116600000Y-42942380D01*
X116504761Y-42990000D01*
X116457142Y-43037619D01*
X116409523Y-43132857D01*
X116409523Y-43228095D01*
X116457142Y-43323333D01*
X116504761Y-43370952D01*
X116600000Y-43418571D01*
X116933333Y-43418571D01*
X115933333Y-42942380D02*
X115933333Y-43751904D01*
X115885714Y-43847142D01*
X115838095Y-43894761D01*
X115742857Y-43942380D01*
X115552380Y-43942380D01*
X115457142Y-43894761D01*
X115409523Y-43847142D01*
X115361904Y-43751904D01*
X115361904Y-42942380D01*
X114361904Y-42990000D02*
X114457142Y-42942380D01*
X114600000Y-42942380D01*
X114742857Y-42990000D01*
X114838095Y-43085238D01*
X114885714Y-43180476D01*
X114933333Y-43370952D01*
X114933333Y-43513809D01*
X114885714Y-43704285D01*
X114838095Y-43799523D01*
X114742857Y-43894761D01*
X114600000Y-43942380D01*
X114504761Y-43942380D01*
X114361904Y-43894761D01*
X114314285Y-43847142D01*
X114314285Y-43513809D01*
X114504761Y-43513809D01*
X122176190Y-83942380D02*
X122176190Y-82942380D01*
X121509523Y-82942380D02*
X121319047Y-82942380D01*
X121223809Y-82990000D01*
X121128571Y-83085238D01*
X121080952Y-83275714D01*
X121080952Y-83609047D01*
X121128571Y-83799523D01*
X121223809Y-83894761D01*
X121319047Y-83942380D01*
X121509523Y-83942380D01*
X121604761Y-83894761D01*
X121700000Y-83799523D01*
X121747619Y-83609047D01*
X121747619Y-83275714D01*
X121700000Y-83085238D01*
X121604761Y-82990000D01*
X121509523Y-82942380D01*
X120128571Y-83942380D02*
X120700000Y-83942380D01*
X120414285Y-83942380D02*
X120414285Y-82942380D01*
X120509523Y-83085238D01*
X120604761Y-83180476D01*
X120700000Y-83228095D01*
X119271428Y-82942380D02*
X119461904Y-82942380D01*
X119557142Y-82990000D01*
X119604761Y-83037619D01*
X119700000Y-83180476D01*
X119747619Y-83370952D01*
X119747619Y-83751904D01*
X119700000Y-83847142D01*
X119652380Y-83894761D01*
X119557142Y-83942380D01*
X119366666Y-83942380D01*
X119271428Y-83894761D01*
X119223809Y-83847142D01*
X119176190Y-83751904D01*
X119176190Y-83513809D01*
X119223809Y-83418571D01*
X119271428Y-83370952D01*
X119366666Y-83323333D01*
X119557142Y-83323333D01*
X119652380Y-83370952D01*
X119700000Y-83418571D01*
X119747619Y-83513809D01*
X122176190Y-81442380D02*
X122176190Y-80442380D01*
X121509523Y-80442380D02*
X121319047Y-80442380D01*
X121223809Y-80490000D01*
X121128571Y-80585238D01*
X121080952Y-80775714D01*
X121080952Y-81109047D01*
X121128571Y-81299523D01*
X121223809Y-81394761D01*
X121319047Y-81442380D01*
X121509523Y-81442380D01*
X121604761Y-81394761D01*
X121700000Y-81299523D01*
X121747619Y-81109047D01*
X121747619Y-80775714D01*
X121700000Y-80585238D01*
X121604761Y-80490000D01*
X121509523Y-80442380D01*
X120128571Y-81442380D02*
X120700000Y-81442380D01*
X120414285Y-81442380D02*
X120414285Y-80442380D01*
X120509523Y-80585238D01*
X120604761Y-80680476D01*
X120700000Y-80728095D01*
X119795238Y-80442380D02*
X119128571Y-80442380D01*
X119557142Y-81442380D01*
X122176190Y-78842380D02*
X122176190Y-77842380D01*
X121509523Y-77842380D02*
X121319047Y-77842380D01*
X121223809Y-77890000D01*
X121128571Y-77985238D01*
X121080952Y-78175714D01*
X121080952Y-78509047D01*
X121128571Y-78699523D01*
X121223809Y-78794761D01*
X121319047Y-78842380D01*
X121509523Y-78842380D01*
X121604761Y-78794761D01*
X121700000Y-78699523D01*
X121747619Y-78509047D01*
X121747619Y-78175714D01*
X121700000Y-77985238D01*
X121604761Y-77890000D01*
X121509523Y-77842380D01*
X120461904Y-77842380D02*
X120366666Y-77842380D01*
X120271428Y-77890000D01*
X120223809Y-77937619D01*
X120176190Y-78032857D01*
X120128571Y-78223333D01*
X120128571Y-78461428D01*
X120176190Y-78651904D01*
X120223809Y-78747142D01*
X120271428Y-78794761D01*
X120366666Y-78842380D01*
X120461904Y-78842380D01*
X120557142Y-78794761D01*
X120604761Y-78747142D01*
X120652380Y-78651904D01*
X120700000Y-78461428D01*
X120700000Y-78223333D01*
X120652380Y-78032857D01*
X120604761Y-77937619D01*
X120557142Y-77890000D01*
X120461904Y-77842380D01*
X119747619Y-77937619D02*
X119700000Y-77890000D01*
X119604761Y-77842380D01*
X119366666Y-77842380D01*
X119271428Y-77890000D01*
X119223809Y-77937619D01*
X119176190Y-78032857D01*
X119176190Y-78128095D01*
X119223809Y-78270952D01*
X119795238Y-78842380D01*
X119176190Y-78842380D01*
X122176190Y-76342380D02*
X122176190Y-75342380D01*
X121509523Y-75342380D02*
X121319047Y-75342380D01*
X121223809Y-75390000D01*
X121128571Y-75485238D01*
X121080952Y-75675714D01*
X121080952Y-76009047D01*
X121128571Y-76199523D01*
X121223809Y-76294761D01*
X121319047Y-76342380D01*
X121509523Y-76342380D01*
X121604761Y-76294761D01*
X121700000Y-76199523D01*
X121747619Y-76009047D01*
X121747619Y-75675714D01*
X121700000Y-75485238D01*
X121604761Y-75390000D01*
X121509523Y-75342380D01*
X120700000Y-75437619D02*
X120652380Y-75390000D01*
X120557142Y-75342380D01*
X120319047Y-75342380D01*
X120223809Y-75390000D01*
X120176190Y-75437619D01*
X120128571Y-75532857D01*
X120128571Y-75628095D01*
X120176190Y-75770952D01*
X120747619Y-76342380D01*
X120128571Y-76342380D01*
X119747619Y-75437619D02*
X119700000Y-75390000D01*
X119604761Y-75342380D01*
X119366666Y-75342380D01*
X119271428Y-75390000D01*
X119223809Y-75437619D01*
X119176190Y-75532857D01*
X119176190Y-75628095D01*
X119223809Y-75770952D01*
X119795238Y-76342380D01*
X119176190Y-76342380D01*
X122176190Y-73742380D02*
X122176190Y-72742380D01*
X121509523Y-72742380D02*
X121319047Y-72742380D01*
X121223809Y-72790000D01*
X121128571Y-72885238D01*
X121080952Y-73075714D01*
X121080952Y-73409047D01*
X121128571Y-73599523D01*
X121223809Y-73694761D01*
X121319047Y-73742380D01*
X121509523Y-73742380D01*
X121604761Y-73694761D01*
X121700000Y-73599523D01*
X121747619Y-73409047D01*
X121747619Y-73075714D01*
X121700000Y-72885238D01*
X121604761Y-72790000D01*
X121509523Y-72742380D01*
X120700000Y-72837619D02*
X120652380Y-72790000D01*
X120557142Y-72742380D01*
X120319047Y-72742380D01*
X120223809Y-72790000D01*
X120176190Y-72837619D01*
X120128571Y-72932857D01*
X120128571Y-73028095D01*
X120176190Y-73170952D01*
X120747619Y-73742380D01*
X120128571Y-73742380D01*
X119176190Y-73742380D02*
X119747619Y-73742380D01*
X119461904Y-73742380D02*
X119461904Y-72742380D01*
X119557142Y-72885238D01*
X119652380Y-72980476D01*
X119747619Y-73028095D01*
X122176190Y-71242380D02*
X122176190Y-70242380D01*
X121509523Y-70242380D02*
X121319047Y-70242380D01*
X121223809Y-70290000D01*
X121128571Y-70385238D01*
X121080952Y-70575714D01*
X121080952Y-70909047D01*
X121128571Y-71099523D01*
X121223809Y-71194761D01*
X121319047Y-71242380D01*
X121509523Y-71242380D01*
X121604761Y-71194761D01*
X121700000Y-71099523D01*
X121747619Y-70909047D01*
X121747619Y-70575714D01*
X121700000Y-70385238D01*
X121604761Y-70290000D01*
X121509523Y-70242380D01*
X120128571Y-71242380D02*
X120700000Y-71242380D01*
X120414285Y-71242380D02*
X120414285Y-70242380D01*
X120509523Y-70385238D01*
X120604761Y-70480476D01*
X120700000Y-70528095D01*
X119652380Y-71242380D02*
X119461904Y-71242380D01*
X119366666Y-71194761D01*
X119319047Y-71147142D01*
X119223809Y-71004285D01*
X119176190Y-70813809D01*
X119176190Y-70432857D01*
X119223809Y-70337619D01*
X119271428Y-70290000D01*
X119366666Y-70242380D01*
X119557142Y-70242380D01*
X119652380Y-70290000D01*
X119700000Y-70337619D01*
X119747619Y-70432857D01*
X119747619Y-70670952D01*
X119700000Y-70766190D01*
X119652380Y-70813809D01*
X119557142Y-70861428D01*
X119366666Y-70861428D01*
X119271428Y-70813809D01*
X119223809Y-70766190D01*
X119176190Y-70670952D01*
X122176190Y-68742380D02*
X122176190Y-67742380D01*
X121509523Y-67742380D02*
X121319047Y-67742380D01*
X121223809Y-67790000D01*
X121128571Y-67885238D01*
X121080952Y-68075714D01*
X121080952Y-68409047D01*
X121128571Y-68599523D01*
X121223809Y-68694761D01*
X121319047Y-68742380D01*
X121509523Y-68742380D01*
X121604761Y-68694761D01*
X121700000Y-68599523D01*
X121747619Y-68409047D01*
X121747619Y-68075714D01*
X121700000Y-67885238D01*
X121604761Y-67790000D01*
X121509523Y-67742380D01*
X120128571Y-68742380D02*
X120700000Y-68742380D01*
X120414285Y-68742380D02*
X120414285Y-67742380D01*
X120509523Y-67885238D01*
X120604761Y-67980476D01*
X120700000Y-68028095D01*
X119557142Y-68170952D02*
X119652380Y-68123333D01*
X119700000Y-68075714D01*
X119747619Y-67980476D01*
X119747619Y-67932857D01*
X119700000Y-67837619D01*
X119652380Y-67790000D01*
X119557142Y-67742380D01*
X119366666Y-67742380D01*
X119271428Y-67790000D01*
X119223809Y-67837619D01*
X119176190Y-67932857D01*
X119176190Y-67980476D01*
X119223809Y-68075714D01*
X119271428Y-68123333D01*
X119366666Y-68170952D01*
X119557142Y-68170952D01*
X119652380Y-68218571D01*
X119700000Y-68266190D01*
X119747619Y-68361428D01*
X119747619Y-68551904D01*
X119700000Y-68647142D01*
X119652380Y-68694761D01*
X119557142Y-68742380D01*
X119366666Y-68742380D01*
X119271428Y-68694761D01*
X119223809Y-68647142D01*
X119176190Y-68551904D01*
X119176190Y-68361428D01*
X119223809Y-68266190D01*
X119271428Y-68218571D01*
X119366666Y-68170952D01*
X122176190Y-66242380D02*
X122176190Y-65242380D01*
X121509523Y-65242380D02*
X121319047Y-65242380D01*
X121223809Y-65290000D01*
X121128571Y-65385238D01*
X121080952Y-65575714D01*
X121080952Y-65909047D01*
X121128571Y-66099523D01*
X121223809Y-66194761D01*
X121319047Y-66242380D01*
X121509523Y-66242380D01*
X121604761Y-66194761D01*
X121700000Y-66099523D01*
X121747619Y-65909047D01*
X121747619Y-65575714D01*
X121700000Y-65385238D01*
X121604761Y-65290000D01*
X121509523Y-65242380D01*
X120461904Y-65242380D02*
X120366666Y-65242380D01*
X120271428Y-65290000D01*
X120223809Y-65337619D01*
X120176190Y-65432857D01*
X120128571Y-65623333D01*
X120128571Y-65861428D01*
X120176190Y-66051904D01*
X120223809Y-66147142D01*
X120271428Y-66194761D01*
X120366666Y-66242380D01*
X120461904Y-66242380D01*
X120557142Y-66194761D01*
X120604761Y-66147142D01*
X120652380Y-66051904D01*
X120700000Y-65861428D01*
X120700000Y-65623333D01*
X120652380Y-65432857D01*
X120604761Y-65337619D01*
X120557142Y-65290000D01*
X120461904Y-65242380D01*
X119223809Y-65242380D02*
X119700000Y-65242380D01*
X119747619Y-65718571D01*
X119700000Y-65670952D01*
X119604761Y-65623333D01*
X119366666Y-65623333D01*
X119271428Y-65670952D01*
X119223809Y-65718571D01*
X119176190Y-65813809D01*
X119176190Y-66051904D01*
X119223809Y-66147142D01*
X119271428Y-66194761D01*
X119366666Y-66242380D01*
X119604761Y-66242380D01*
X119700000Y-66194761D01*
X119747619Y-66147142D01*
X122176190Y-63642380D02*
X122176190Y-62642380D01*
X121509523Y-62642380D02*
X121319047Y-62642380D01*
X121223809Y-62690000D01*
X121128571Y-62785238D01*
X121080952Y-62975714D01*
X121080952Y-63309047D01*
X121128571Y-63499523D01*
X121223809Y-63594761D01*
X121319047Y-63642380D01*
X121509523Y-63642380D01*
X121604761Y-63594761D01*
X121700000Y-63499523D01*
X121747619Y-63309047D01*
X121747619Y-62975714D01*
X121700000Y-62785238D01*
X121604761Y-62690000D01*
X121509523Y-62642380D01*
X120461904Y-62642380D02*
X120366666Y-62642380D01*
X120271428Y-62690000D01*
X120223809Y-62737619D01*
X120176190Y-62832857D01*
X120128571Y-63023333D01*
X120128571Y-63261428D01*
X120176190Y-63451904D01*
X120223809Y-63547142D01*
X120271428Y-63594761D01*
X120366666Y-63642380D01*
X120461904Y-63642380D01*
X120557142Y-63594761D01*
X120604761Y-63547142D01*
X120652380Y-63451904D01*
X120700000Y-63261428D01*
X120700000Y-63023333D01*
X120652380Y-62832857D01*
X120604761Y-62737619D01*
X120557142Y-62690000D01*
X120461904Y-62642380D01*
X119271428Y-62975714D02*
X119271428Y-63642380D01*
X119509523Y-62594761D02*
X119747619Y-63309047D01*
X119128571Y-63309047D01*
X121366666Y-60142380D02*
X121842857Y-60142380D01*
X121890476Y-60618571D01*
X121842857Y-60570952D01*
X121747619Y-60523333D01*
X121509523Y-60523333D01*
X121414285Y-60570952D01*
X121366666Y-60618571D01*
X121319047Y-60713809D01*
X121319047Y-60951904D01*
X121366666Y-61047142D01*
X121414285Y-61094761D01*
X121509523Y-61142380D01*
X121747619Y-61142380D01*
X121842857Y-61094761D01*
X121890476Y-61047142D01*
X121033333Y-60142380D02*
X120700000Y-61142380D01*
X120366666Y-60142380D01*
X119842857Y-60142380D02*
X119747619Y-60142380D01*
X119652380Y-60190000D01*
X119604761Y-60237619D01*
X119557142Y-60332857D01*
X119509523Y-60523333D01*
X119509523Y-60761428D01*
X119557142Y-60951904D01*
X119604761Y-61047142D01*
X119652380Y-61094761D01*
X119747619Y-61142380D01*
X119842857Y-61142380D01*
X119938095Y-61094761D01*
X119985714Y-61047142D01*
X120033333Y-60951904D01*
X120080952Y-60761428D01*
X120080952Y-60523333D01*
X120033333Y-60332857D01*
X119985714Y-60237619D01*
X119938095Y-60190000D01*
X119842857Y-60142380D01*
X121700000Y-58542380D02*
X121700000Y-57542380D01*
X121033333Y-57542380D02*
X120842857Y-57542380D01*
X120747619Y-57590000D01*
X120652380Y-57685238D01*
X120604761Y-57875714D01*
X120604761Y-58209047D01*
X120652380Y-58399523D01*
X120747619Y-58494761D01*
X120842857Y-58542380D01*
X121033333Y-58542380D01*
X121128571Y-58494761D01*
X121223809Y-58399523D01*
X121271428Y-58209047D01*
X121271428Y-57875714D01*
X121223809Y-57685238D01*
X121128571Y-57590000D01*
X121033333Y-57542380D01*
X119985714Y-57542380D02*
X119890476Y-57542380D01*
X119795238Y-57590000D01*
X119747619Y-57637619D01*
X119700000Y-57732857D01*
X119652380Y-57923333D01*
X119652380Y-58161428D01*
X119700000Y-58351904D01*
X119747619Y-58447142D01*
X119795238Y-58494761D01*
X119890476Y-58542380D01*
X119985714Y-58542380D01*
X120080952Y-58494761D01*
X120128571Y-58447142D01*
X120176190Y-58351904D01*
X120223809Y-58161428D01*
X120223809Y-57923333D01*
X120176190Y-57732857D01*
X120128571Y-57637619D01*
X120080952Y-57590000D01*
X119985714Y-57542380D01*
X107261904Y-80442380D02*
X106690476Y-80442380D01*
X106976190Y-81442380D02*
X106976190Y-80442380D01*
X106452380Y-80442380D02*
X105785714Y-81442380D01*
X105785714Y-80442380D02*
X106452380Y-81442380D01*
X106666666Y-78742380D02*
X107000000Y-78266190D01*
X107238095Y-78742380D02*
X107238095Y-77742380D01*
X106857142Y-77742380D01*
X106761904Y-77790000D01*
X106714285Y-77837619D01*
X106666666Y-77932857D01*
X106666666Y-78075714D01*
X106714285Y-78170952D01*
X106761904Y-78218571D01*
X106857142Y-78266190D01*
X107238095Y-78266190D01*
X106333333Y-77742380D02*
X105666666Y-78742380D01*
X105666666Y-77742380D02*
X106333333Y-78742380D01*
X107976190Y-68742380D02*
X107976190Y-67742380D01*
X107309523Y-67742380D02*
X107119047Y-67742380D01*
X107023809Y-67790000D01*
X106928571Y-67885238D01*
X106880952Y-68075714D01*
X106880952Y-68409047D01*
X106928571Y-68599523D01*
X107023809Y-68694761D01*
X107119047Y-68742380D01*
X107309523Y-68742380D01*
X107404761Y-68694761D01*
X107500000Y-68599523D01*
X107547619Y-68409047D01*
X107547619Y-68075714D01*
X107500000Y-67885238D01*
X107404761Y-67790000D01*
X107309523Y-67742380D01*
X106500000Y-67837619D02*
X106452380Y-67790000D01*
X106357142Y-67742380D01*
X106119047Y-67742380D01*
X106023809Y-67790000D01*
X105976190Y-67837619D01*
X105928571Y-67932857D01*
X105928571Y-68028095D01*
X105976190Y-68170952D01*
X106547619Y-68742380D01*
X105928571Y-68742380D01*
X105071428Y-67742380D02*
X105261904Y-67742380D01*
X105357142Y-67790000D01*
X105404761Y-67837619D01*
X105500000Y-67980476D01*
X105547619Y-68170952D01*
X105547619Y-68551904D01*
X105500000Y-68647142D01*
X105452380Y-68694761D01*
X105357142Y-68742380D01*
X105166666Y-68742380D01*
X105071428Y-68694761D01*
X105023809Y-68647142D01*
X104976190Y-68551904D01*
X104976190Y-68313809D01*
X105023809Y-68218571D01*
X105071428Y-68170952D01*
X105166666Y-68123333D01*
X105357142Y-68123333D01*
X105452380Y-68170952D01*
X105500000Y-68218571D01*
X105547619Y-68313809D01*
X107976190Y-66142380D02*
X107976190Y-65142380D01*
X107309523Y-65142380D02*
X107119047Y-65142380D01*
X107023809Y-65190000D01*
X106928571Y-65285238D01*
X106880952Y-65475714D01*
X106880952Y-65809047D01*
X106928571Y-65999523D01*
X107023809Y-66094761D01*
X107119047Y-66142380D01*
X107309523Y-66142380D01*
X107404761Y-66094761D01*
X107500000Y-65999523D01*
X107547619Y-65809047D01*
X107547619Y-65475714D01*
X107500000Y-65285238D01*
X107404761Y-65190000D01*
X107309523Y-65142380D01*
X106500000Y-65237619D02*
X106452380Y-65190000D01*
X106357142Y-65142380D01*
X106119047Y-65142380D01*
X106023809Y-65190000D01*
X105976190Y-65237619D01*
X105928571Y-65332857D01*
X105928571Y-65428095D01*
X105976190Y-65570952D01*
X106547619Y-66142380D01*
X105928571Y-66142380D01*
X105023809Y-65142380D02*
X105500000Y-65142380D01*
X105547619Y-65618571D01*
X105500000Y-65570952D01*
X105404761Y-65523333D01*
X105166666Y-65523333D01*
X105071428Y-65570952D01*
X105023809Y-65618571D01*
X104976190Y-65713809D01*
X104976190Y-65951904D01*
X105023809Y-66047142D01*
X105071428Y-66094761D01*
X105166666Y-66142380D01*
X105404761Y-66142380D01*
X105500000Y-66094761D01*
X105547619Y-66047142D01*
X107976190Y-63642380D02*
X107976190Y-62642380D01*
X107309523Y-62642380D02*
X107119047Y-62642380D01*
X107023809Y-62690000D01*
X106928571Y-62785238D01*
X106880952Y-62975714D01*
X106880952Y-63309047D01*
X106928571Y-63499523D01*
X107023809Y-63594761D01*
X107119047Y-63642380D01*
X107309523Y-63642380D01*
X107404761Y-63594761D01*
X107500000Y-63499523D01*
X107547619Y-63309047D01*
X107547619Y-62975714D01*
X107500000Y-62785238D01*
X107404761Y-62690000D01*
X107309523Y-62642380D01*
X106547619Y-62642380D02*
X105928571Y-62642380D01*
X106261904Y-63023333D01*
X106119047Y-63023333D01*
X106023809Y-63070952D01*
X105976190Y-63118571D01*
X105928571Y-63213809D01*
X105928571Y-63451904D01*
X105976190Y-63547142D01*
X106023809Y-63594761D01*
X106119047Y-63642380D01*
X106404761Y-63642380D01*
X106500000Y-63594761D01*
X106547619Y-63547142D01*
X105023809Y-62642380D02*
X105500000Y-62642380D01*
X105547619Y-63118571D01*
X105500000Y-63070952D01*
X105404761Y-63023333D01*
X105166666Y-63023333D01*
X105071428Y-63070952D01*
X105023809Y-63118571D01*
X104976190Y-63213809D01*
X104976190Y-63451904D01*
X105023809Y-63547142D01*
X105071428Y-63594761D01*
X105166666Y-63642380D01*
X105404761Y-63642380D01*
X105500000Y-63594761D01*
X105547619Y-63547142D01*
X107976190Y-61142380D02*
X107976190Y-60142380D01*
X107309523Y-60142380D02*
X107119047Y-60142380D01*
X107023809Y-60190000D01*
X106928571Y-60285238D01*
X106880952Y-60475714D01*
X106880952Y-60809047D01*
X106928571Y-60999523D01*
X107023809Y-61094761D01*
X107119047Y-61142380D01*
X107309523Y-61142380D01*
X107404761Y-61094761D01*
X107500000Y-60999523D01*
X107547619Y-60809047D01*
X107547619Y-60475714D01*
X107500000Y-60285238D01*
X107404761Y-60190000D01*
X107309523Y-60142380D01*
X106547619Y-60142380D02*
X105928571Y-60142380D01*
X106261904Y-60523333D01*
X106119047Y-60523333D01*
X106023809Y-60570952D01*
X105976190Y-60618571D01*
X105928571Y-60713809D01*
X105928571Y-60951904D01*
X105976190Y-61047142D01*
X106023809Y-61094761D01*
X106119047Y-61142380D01*
X106404761Y-61142380D01*
X106500000Y-61094761D01*
X106547619Y-61047142D01*
X105071428Y-60475714D02*
X105071428Y-61142380D01*
X105309523Y-60094761D02*
X105547619Y-60809047D01*
X104928571Y-60809047D01*
X107638095Y-58494761D02*
X107495238Y-58542380D01*
X107257142Y-58542380D01*
X107161904Y-58494761D01*
X107114285Y-58447142D01*
X107066666Y-58351904D01*
X107066666Y-58256666D01*
X107114285Y-58161428D01*
X107161904Y-58113809D01*
X107257142Y-58066190D01*
X107447619Y-58018571D01*
X107542857Y-57970952D01*
X107590476Y-57923333D01*
X107638095Y-57828095D01*
X107638095Y-57732857D01*
X107590476Y-57637619D01*
X107542857Y-57590000D01*
X107447619Y-57542380D01*
X107209523Y-57542380D01*
X107066666Y-57590000D01*
X106780952Y-57542380D02*
X106447619Y-58542380D01*
X106114285Y-57542380D01*
X105780952Y-58542380D02*
X105780952Y-57542380D01*
X105209523Y-58542380D01*
X105209523Y-57542380D01*
X107514285Y-55994761D02*
X107371428Y-56042380D01*
X107133333Y-56042380D01*
X107038095Y-55994761D01*
X106990476Y-55947142D01*
X106942857Y-55851904D01*
X106942857Y-55756666D01*
X106990476Y-55661428D01*
X107038095Y-55613809D01*
X107133333Y-55566190D01*
X107323809Y-55518571D01*
X107419047Y-55470952D01*
X107466666Y-55423333D01*
X107514285Y-55328095D01*
X107514285Y-55232857D01*
X107466666Y-55137619D01*
X107419047Y-55090000D01*
X107323809Y-55042380D01*
X107085714Y-55042380D01*
X106942857Y-55090000D01*
X106657142Y-55042380D02*
X106323809Y-56042380D01*
X105990476Y-55042380D01*
X105657142Y-56042380D02*
X105657142Y-55042380D01*
X105276190Y-55042380D01*
X105180952Y-55090000D01*
X105133333Y-55137619D01*
X105085714Y-55232857D01*
X105085714Y-55375714D01*
X105133333Y-55470952D01*
X105180952Y-55518571D01*
X105276190Y-55566190D01*
X105657142Y-55566190D01*
X107061904Y-52490000D02*
X107157142Y-52442380D01*
X107300000Y-52442380D01*
X107442857Y-52490000D01*
X107538095Y-52585238D01*
X107585714Y-52680476D01*
X107633333Y-52870952D01*
X107633333Y-53013809D01*
X107585714Y-53204285D01*
X107538095Y-53299523D01*
X107442857Y-53394761D01*
X107300000Y-53442380D01*
X107204761Y-53442380D01*
X107061904Y-53394761D01*
X107014285Y-53347142D01*
X107014285Y-53013809D01*
X107204761Y-53013809D01*
X106585714Y-53442380D02*
X106585714Y-52442380D01*
X106014285Y-53442380D01*
X106014285Y-52442380D01*
X105538095Y-53442380D02*
X105538095Y-52442380D01*
X105300000Y-52442380D01*
X105157142Y-52490000D01*
X105061904Y-52585238D01*
X105014285Y-52680476D01*
X104966666Y-52870952D01*
X104966666Y-53013809D01*
X105014285Y-53204285D01*
X105061904Y-53299523D01*
X105157142Y-53394761D01*
X105300000Y-53442380D01*
X105538095Y-53442380D01*
X107776190Y-50942380D02*
X107776190Y-49942380D01*
X107109523Y-49942380D02*
X106919047Y-49942380D01*
X106823809Y-49990000D01*
X106728571Y-50085238D01*
X106680952Y-50275714D01*
X106680952Y-50609047D01*
X106728571Y-50799523D01*
X106823809Y-50894761D01*
X106919047Y-50942380D01*
X107109523Y-50942380D01*
X107204761Y-50894761D01*
X107300000Y-50799523D01*
X107347619Y-50609047D01*
X107347619Y-50275714D01*
X107300000Y-50085238D01*
X107204761Y-49990000D01*
X107109523Y-49942380D01*
X106300000Y-50037619D02*
X106252380Y-49990000D01*
X106157142Y-49942380D01*
X105919047Y-49942380D01*
X105823809Y-49990000D01*
X105776190Y-50037619D01*
X105728571Y-50132857D01*
X105728571Y-50228095D01*
X105776190Y-50370952D01*
X106347619Y-50942380D01*
X105728571Y-50942380D01*
X105395238Y-49942380D02*
X104728571Y-49942380D01*
X105157142Y-50942380D01*
X107538095Y-47442380D02*
X106919047Y-47442380D01*
X107252380Y-47823333D01*
X107109523Y-47823333D01*
X107014285Y-47870952D01*
X106966666Y-47918571D01*
X106919047Y-48013809D01*
X106919047Y-48251904D01*
X106966666Y-48347142D01*
X107014285Y-48394761D01*
X107109523Y-48442380D01*
X107395238Y-48442380D01*
X107490476Y-48394761D01*
X107538095Y-48347142D01*
X106633333Y-47442380D02*
X106300000Y-48442380D01*
X105966666Y-47442380D01*
X105728571Y-47442380D02*
X105109523Y-47442380D01*
X105442857Y-47823333D01*
X105300000Y-47823333D01*
X105204761Y-47870952D01*
X105157142Y-47918571D01*
X105109523Y-48013809D01*
X105109523Y-48251904D01*
X105157142Y-48347142D01*
X105204761Y-48394761D01*
X105300000Y-48442380D01*
X105585714Y-48442380D01*
X105680952Y-48394761D01*
X105728571Y-48347142D01*
X106847619Y-45842380D02*
X107180952Y-45366190D01*
X107419047Y-45842380D02*
X107419047Y-44842380D01*
X107038095Y-44842380D01*
X106942857Y-44890000D01*
X106895238Y-44937619D01*
X106847619Y-45032857D01*
X106847619Y-45175714D01*
X106895238Y-45270952D01*
X106942857Y-45318571D01*
X107038095Y-45366190D01*
X107419047Y-45366190D01*
X106466666Y-45794761D02*
X106323809Y-45842380D01*
X106085714Y-45842380D01*
X105990476Y-45794761D01*
X105942857Y-45747142D01*
X105895238Y-45651904D01*
X105895238Y-45556666D01*
X105942857Y-45461428D01*
X105990476Y-45413809D01*
X106085714Y-45366190D01*
X106276190Y-45318571D01*
X106371428Y-45270952D01*
X106419047Y-45223333D01*
X106466666Y-45128095D01*
X106466666Y-45032857D01*
X106419047Y-44937619D01*
X106371428Y-44890000D01*
X106276190Y-44842380D01*
X106038095Y-44842380D01*
X105895238Y-44890000D01*
X105609523Y-44842380D02*
X105038095Y-44842380D01*
X105323809Y-45842380D02*
X105323809Y-44842380D01*
X120790476Y-50542380D02*
X120600000Y-50542380D01*
X120504761Y-50494761D01*
X120457142Y-50447142D01*
X120361904Y-50304285D01*
X120314285Y-50113809D01*
X120314285Y-49732857D01*
X120361904Y-49637619D01*
X120409523Y-49590000D01*
X120504761Y-49542380D01*
X120695238Y-49542380D01*
X120790476Y-49590000D01*
X120838095Y-49637619D01*
X120885714Y-49732857D01*
X120885714Y-49970952D01*
X120838095Y-50066190D01*
X120790476Y-50113809D01*
X120695238Y-50161428D01*
X120504761Y-50161428D01*
X120409523Y-50113809D01*
X120361904Y-50066190D01*
X120314285Y-49970952D01*
X120314285Y-45442380D02*
X120885714Y-45442380D01*
X120600000Y-45442380D02*
X120600000Y-44442380D01*
X120695238Y-44585238D01*
X120790476Y-44680476D01*
X120885714Y-44728095D01*
X119552380Y-96723333D02*
X119552380Y-96247142D01*
X120028571Y-96199523D01*
X119980952Y-96247142D01*
X119933333Y-96342380D01*
X119933333Y-96580476D01*
X119980952Y-96675714D01*
X120028571Y-96723333D01*
X120123809Y-96770952D01*
X120361904Y-96770952D01*
X120457142Y-96723333D01*
X120504761Y-96675714D01*
X120552380Y-96580476D01*
X120552380Y-96342380D01*
X120504761Y-96247142D01*
X120457142Y-96199523D01*
X119552380Y-97056666D02*
X120552380Y-97390000D01*
X119552380Y-97723333D01*
X119552380Y-98247142D02*
X119552380Y-98342380D01*
X119600000Y-98437619D01*
X119647619Y-98485238D01*
X119742857Y-98532857D01*
X119933333Y-98580476D01*
X120171428Y-98580476D01*
X120361904Y-98532857D01*
X120457142Y-98485238D01*
X120504761Y-98437619D01*
X120552380Y-98342380D01*
X120552380Y-98247142D01*
X120504761Y-98151904D01*
X120457142Y-98104285D01*
X120361904Y-98056666D01*
X120171428Y-98009047D01*
X119933333Y-98009047D01*
X119742857Y-98056666D01*
X119647619Y-98104285D01*
X119600000Y-98151904D01*
X119552380Y-98247142D01*
X117052380Y-96528095D02*
X117052380Y-97099523D01*
X118052380Y-96813809D02*
X117052380Y-96813809D01*
X117052380Y-97337619D02*
X118052380Y-98004285D01*
X117052380Y-98004285D02*
X118052380Y-97337619D01*
X115452380Y-97323333D02*
X114976190Y-96990000D01*
X115452380Y-96751904D02*
X114452380Y-96751904D01*
X114452380Y-97132857D01*
X114500000Y-97228095D01*
X114547619Y-97275714D01*
X114642857Y-97323333D01*
X114785714Y-97323333D01*
X114880952Y-97275714D01*
X114928571Y-97228095D01*
X114976190Y-97132857D01*
X114976190Y-96751904D01*
X114452380Y-97656666D02*
X115452380Y-98323333D01*
X114452380Y-98323333D02*
X115452380Y-97656666D01*
X112952380Y-96347142D02*
X111952380Y-96347142D01*
X111952380Y-96585238D01*
X112000000Y-96728095D01*
X112095238Y-96823333D01*
X112190476Y-96870952D01*
X112380952Y-96918571D01*
X112523809Y-96918571D01*
X112714285Y-96870952D01*
X112809523Y-96823333D01*
X112904761Y-96728095D01*
X112952380Y-96585238D01*
X112952380Y-96347142D01*
X111952380Y-97204285D02*
X111952380Y-97775714D01*
X112952380Y-97490000D02*
X111952380Y-97490000D01*
X112952380Y-98680476D02*
X112476190Y-98347142D01*
X112952380Y-98109047D02*
X111952380Y-98109047D01*
X111952380Y-98490000D01*
X112000000Y-98585238D01*
X112047619Y-98632857D01*
X112142857Y-98680476D01*
X112285714Y-98680476D01*
X112380952Y-98632857D01*
X112428571Y-98585238D01*
X112476190Y-98490000D01*
X112476190Y-98109047D01*
X110352380Y-96942380D02*
X109876190Y-96609047D01*
X110352380Y-96370952D02*
X109352380Y-96370952D01*
X109352380Y-96751904D01*
X109400000Y-96847142D01*
X109447619Y-96894761D01*
X109542857Y-96942380D01*
X109685714Y-96942380D01*
X109780952Y-96894761D01*
X109828571Y-96847142D01*
X109876190Y-96751904D01*
X109876190Y-96370952D01*
X109352380Y-97228095D02*
X109352380Y-97799523D01*
X110352380Y-97513809D02*
X109352380Y-97513809D01*
X110304761Y-98085238D02*
X110352380Y-98228095D01*
X110352380Y-98466190D01*
X110304761Y-98561428D01*
X110257142Y-98609047D01*
X110161904Y-98656666D01*
X110066666Y-98656666D01*
X109971428Y-98609047D01*
X109923809Y-98561428D01*
X109876190Y-98466190D01*
X109828571Y-98275714D01*
X109780952Y-98180476D01*
X109733333Y-98132857D01*
X109638095Y-98085238D01*
X109542857Y-98085238D01*
X109447619Y-98132857D01*
X109400000Y-98180476D01*
X109352380Y-98275714D01*
X109352380Y-98513809D01*
X109400000Y-98656666D01*
X106900000Y-96828095D02*
X106852380Y-96732857D01*
X106852380Y-96590000D01*
X106900000Y-96447142D01*
X106995238Y-96351904D01*
X107090476Y-96304285D01*
X107280952Y-96256666D01*
X107423809Y-96256666D01*
X107614285Y-96304285D01*
X107709523Y-96351904D01*
X107804761Y-96447142D01*
X107852380Y-96590000D01*
X107852380Y-96685238D01*
X107804761Y-96828095D01*
X107757142Y-96875714D01*
X107423809Y-96875714D01*
X107423809Y-96685238D01*
X107852380Y-97304285D02*
X106852380Y-97304285D01*
X107852380Y-97875714D01*
X106852380Y-97875714D01*
X107852380Y-98351904D02*
X106852380Y-98351904D01*
X106852380Y-98590000D01*
X106900000Y-98732857D01*
X106995238Y-98828095D01*
X107090476Y-98875714D01*
X107280952Y-98923333D01*
X107423809Y-98923333D01*
X107614285Y-98875714D01*
X107709523Y-98828095D01*
X107804761Y-98732857D01*
X107852380Y-98590000D01*
X107852380Y-98351904D01*
X120766666Y-84942380D02*
X121242857Y-84942380D01*
X121290476Y-85418571D01*
X121242857Y-85370952D01*
X121147619Y-85323333D01*
X120909523Y-85323333D01*
X120814285Y-85370952D01*
X120766666Y-85418571D01*
X120719047Y-85513809D01*
X120719047Y-85751904D01*
X120766666Y-85847142D01*
X120814285Y-85894761D01*
X120909523Y-85942380D01*
X121147619Y-85942380D01*
X121242857Y-85894761D01*
X121290476Y-85847142D01*
X120433333Y-84942380D02*
X120100000Y-85942380D01*
X119766666Y-84942380D01*
X119242857Y-84942380D02*
X119147619Y-84942380D01*
X119052380Y-84990000D01*
X119004761Y-85037619D01*
X118957142Y-85132857D01*
X118909523Y-85323333D01*
X118909523Y-85561428D01*
X118957142Y-85751904D01*
X119004761Y-85847142D01*
X119052380Y-85894761D01*
X119147619Y-85942380D01*
X119242857Y-85942380D01*
X119338095Y-85894761D01*
X119385714Y-85847142D01*
X119433333Y-85751904D01*
X119480952Y-85561428D01*
X119480952Y-85323333D01*
X119433333Y-85132857D01*
X119385714Y-85037619D01*
X119338095Y-84990000D01*
X119242857Y-84942380D01*
X118052380Y-84023333D02*
X117576190Y-83690000D01*
X118052380Y-83451904D02*
X117052380Y-83451904D01*
X117052380Y-83832857D01*
X117100000Y-83928095D01*
X117147619Y-83975714D01*
X117242857Y-84023333D01*
X117385714Y-84023333D01*
X117480952Y-83975714D01*
X117528571Y-83928095D01*
X117576190Y-83832857D01*
X117576190Y-83451904D01*
X117052380Y-84356666D02*
X118052380Y-85023333D01*
X117052380Y-85023333D02*
X118052380Y-84356666D01*
X114452380Y-83328095D02*
X114452380Y-83899523D01*
X115452380Y-83613809D02*
X114452380Y-83613809D01*
X114452380Y-84137619D02*
X115452380Y-84804285D01*
X114452380Y-84804285D02*
X115452380Y-84137619D01*
X112952380Y-82947142D02*
X111952380Y-82947142D01*
X111952380Y-83185238D01*
X112000000Y-83328095D01*
X112095238Y-83423333D01*
X112190476Y-83470952D01*
X112380952Y-83518571D01*
X112523809Y-83518571D01*
X112714285Y-83470952D01*
X112809523Y-83423333D01*
X112904761Y-83328095D01*
X112952380Y-83185238D01*
X112952380Y-82947142D01*
X111952380Y-83804285D02*
X111952380Y-84375714D01*
X112952380Y-84090000D02*
X111952380Y-84090000D01*
X112952380Y-85280476D02*
X112476190Y-84947142D01*
X112952380Y-84709047D02*
X111952380Y-84709047D01*
X111952380Y-85090000D01*
X112000000Y-85185238D01*
X112047619Y-85232857D01*
X112142857Y-85280476D01*
X112285714Y-85280476D01*
X112380952Y-85232857D01*
X112428571Y-85185238D01*
X112476190Y-85090000D01*
X112476190Y-84709047D01*
X110352380Y-83542380D02*
X109876190Y-83209047D01*
X110352380Y-82970952D02*
X109352380Y-82970952D01*
X109352380Y-83351904D01*
X109400000Y-83447142D01*
X109447619Y-83494761D01*
X109542857Y-83542380D01*
X109685714Y-83542380D01*
X109780952Y-83494761D01*
X109828571Y-83447142D01*
X109876190Y-83351904D01*
X109876190Y-82970952D01*
X109352380Y-83828095D02*
X109352380Y-84399523D01*
X110352380Y-84113809D02*
X109352380Y-84113809D01*
X110304761Y-84685238D02*
X110352380Y-84828095D01*
X110352380Y-85066190D01*
X110304761Y-85161428D01*
X110257142Y-85209047D01*
X110161904Y-85256666D01*
X110066666Y-85256666D01*
X109971428Y-85209047D01*
X109923809Y-85161428D01*
X109876190Y-85066190D01*
X109828571Y-84875714D01*
X109780952Y-84780476D01*
X109733333Y-84732857D01*
X109638095Y-84685238D01*
X109542857Y-84685238D01*
X109447619Y-84732857D01*
X109400000Y-84780476D01*
X109352380Y-84875714D01*
X109352380Y-85113809D01*
X109400000Y-85256666D01*
X108161904Y-84890000D02*
X108257142Y-84842380D01*
X108400000Y-84842380D01*
X108542857Y-84890000D01*
X108638095Y-84985238D01*
X108685714Y-85080476D01*
X108733333Y-85270952D01*
X108733333Y-85413809D01*
X108685714Y-85604285D01*
X108638095Y-85699523D01*
X108542857Y-85794761D01*
X108400000Y-85842380D01*
X108304761Y-85842380D01*
X108161904Y-85794761D01*
X108114285Y-85747142D01*
X108114285Y-85413809D01*
X108304761Y-85413809D01*
X107685714Y-85842380D02*
X107685714Y-84842380D01*
X107114285Y-85842380D01*
X107114285Y-84842380D01*
X106638095Y-85842380D02*
X106638095Y-84842380D01*
X106400000Y-84842380D01*
X106257142Y-84890000D01*
X106161904Y-84985238D01*
X106114285Y-85080476D01*
X106066666Y-85270952D01*
X106066666Y-85413809D01*
X106114285Y-85604285D01*
X106161904Y-85699523D01*
X106257142Y-85794761D01*
X106400000Y-85842380D01*
X106638095Y-85842380D01*
X115252380Y-52113809D02*
X114252380Y-52113809D01*
X114252380Y-52780476D02*
X114252380Y-52970952D01*
X114300000Y-53066190D01*
X114395238Y-53161428D01*
X114585714Y-53209047D01*
X114919047Y-53209047D01*
X115109523Y-53161428D01*
X115204761Y-53066190D01*
X115252380Y-52970952D01*
X115252380Y-52780476D01*
X115204761Y-52685238D01*
X115109523Y-52590000D01*
X114919047Y-52542380D01*
X114585714Y-52542380D01*
X114395238Y-52590000D01*
X114300000Y-52685238D01*
X114252380Y-52780476D01*
X115252380Y-54161428D02*
X115252380Y-53590000D01*
X115252380Y-53875714D02*
X114252380Y-53875714D01*
X114395238Y-53780476D01*
X114490476Y-53685238D01*
X114538095Y-53590000D01*
X114252380Y-54494761D02*
X114252380Y-55161428D01*
X115252380Y-54732857D01*
X117852380Y-52113809D02*
X116852380Y-52113809D01*
X116852380Y-52780476D02*
X116852380Y-52970952D01*
X116900000Y-53066190D01*
X116995238Y-53161428D01*
X117185714Y-53209047D01*
X117519047Y-53209047D01*
X117709523Y-53161428D01*
X117804761Y-53066190D01*
X117852380Y-52970952D01*
X117852380Y-52780476D01*
X117804761Y-52685238D01*
X117709523Y-52590000D01*
X117519047Y-52542380D01*
X117185714Y-52542380D01*
X116995238Y-52590000D01*
X116900000Y-52685238D01*
X116852380Y-52780476D01*
X117852380Y-54161428D02*
X117852380Y-53590000D01*
X117852380Y-53875714D02*
X116852380Y-53875714D01*
X116995238Y-53780476D01*
X117090476Y-53685238D01*
X117138095Y-53590000D01*
X116852380Y-55018571D02*
X116852380Y-54828095D01*
X116900000Y-54732857D01*
X116947619Y-54685238D01*
X117090476Y-54590000D01*
X117280952Y-54542380D01*
X117661904Y-54542380D01*
X117757142Y-54590000D01*
X117804761Y-54637619D01*
X117852380Y-54732857D01*
X117852380Y-54923333D01*
X117804761Y-55018571D01*
X117757142Y-55066190D01*
X117661904Y-55113809D01*
X117423809Y-55113809D01*
X117328571Y-55066190D01*
X117280952Y-55018571D01*
X117233333Y-54923333D01*
X117233333Y-54732857D01*
X117280952Y-54637619D01*
X117328571Y-54590000D01*
X117423809Y-54542380D01*
X112500000Y-59428095D02*
X112452380Y-59332857D01*
X112452380Y-59190000D01*
X112500000Y-59047142D01*
X112595238Y-58951904D01*
X112690476Y-58904285D01*
X112880952Y-58856666D01*
X113023809Y-58856666D01*
X113214285Y-58904285D01*
X113309523Y-58951904D01*
X113404761Y-59047142D01*
X113452380Y-59190000D01*
X113452380Y-59285238D01*
X113404761Y-59428095D01*
X113357142Y-59475714D01*
X113023809Y-59475714D01*
X113023809Y-59285238D01*
X113452380Y-59904285D02*
X112452380Y-59904285D01*
X113452380Y-60475714D01*
X112452380Y-60475714D01*
X113452380Y-60951904D02*
X112452380Y-60951904D01*
X112452380Y-61190000D01*
X112500000Y-61332857D01*
X112595238Y-61428095D01*
X112690476Y-61475714D01*
X112880952Y-61523333D01*
X113023809Y-61523333D01*
X113214285Y-61475714D01*
X113309523Y-61428095D01*
X113404761Y-61332857D01*
X113452380Y-61190000D01*
X113452380Y-60951904D01*
X109952380Y-58951904D02*
X109952380Y-59570952D01*
X110333333Y-59237619D01*
X110333333Y-59380476D01*
X110380952Y-59475714D01*
X110428571Y-59523333D01*
X110523809Y-59570952D01*
X110761904Y-59570952D01*
X110857142Y-59523333D01*
X110904761Y-59475714D01*
X110952380Y-59380476D01*
X110952380Y-59094761D01*
X110904761Y-58999523D01*
X110857142Y-58951904D01*
X109952380Y-59856666D02*
X110952380Y-60190000D01*
X109952380Y-60523333D01*
X109952380Y-60761428D02*
X109952380Y-61380476D01*
X110333333Y-61047142D01*
X110333333Y-61190000D01*
X110380952Y-61285238D01*
X110428571Y-61332857D01*
X110523809Y-61380476D01*
X110761904Y-61380476D01*
X110857142Y-61332857D01*
X110904761Y-61285238D01*
X110952380Y-61190000D01*
X110952380Y-60904285D01*
X110904761Y-60809047D01*
X110857142Y-60761428D01*
D11*
X109700000Y-63990000D02*
X113810000Y-63992000D01*
X109700000Y-58490000D02*
X109700000Y-63990000D01*
X113800000Y-58490000D02*
X109700000Y-58490000D01*
X113800000Y-58490000D02*
X113800000Y-63990000D01*
X114500000Y-58490000D02*
X118700000Y-58490000D01*
X114500000Y-63990000D02*
X114500000Y-58490000D01*
X118700000Y-63990000D02*
X114500000Y-63990000D01*
X118700000Y-58490000D02*
X118700000Y-63990000D01*
D10*
X117400000Y-59428095D02*
X117352380Y-59332857D01*
X117352380Y-59190000D01*
X117400000Y-59047142D01*
X117495238Y-58951904D01*
X117590476Y-58904285D01*
X117780952Y-58856666D01*
X117923809Y-58856666D01*
X118114285Y-58904285D01*
X118209523Y-58951904D01*
X118304761Y-59047142D01*
X118352380Y-59190000D01*
X118352380Y-59285238D01*
X118304761Y-59428095D01*
X118257142Y-59475714D01*
X117923809Y-59475714D01*
X117923809Y-59285238D01*
X118352380Y-59904285D02*
X117352380Y-59904285D01*
X118352380Y-60475714D01*
X117352380Y-60475714D01*
X118352380Y-60951904D02*
X117352380Y-60951904D01*
X117352380Y-61190000D01*
X117400000Y-61332857D01*
X117495238Y-61428095D01*
X117590476Y-61475714D01*
X117780952Y-61523333D01*
X117923809Y-61523333D01*
X118114285Y-61475714D01*
X118209523Y-61428095D01*
X118304761Y-61332857D01*
X118352380Y-61190000D01*
X118352380Y-60951904D01*
X114752380Y-58951904D02*
X114752380Y-59570952D01*
X115133333Y-59237619D01*
X115133333Y-59380476D01*
X115180952Y-59475714D01*
X115228571Y-59523333D01*
X115323809Y-59570952D01*
X115561904Y-59570952D01*
X115657142Y-59523333D01*
X115704761Y-59475714D01*
X115752380Y-59380476D01*
X115752380Y-59094761D01*
X115704761Y-58999523D01*
X115657142Y-58951904D01*
X114752380Y-59856666D02*
X115752380Y-60190000D01*
X114752380Y-60523333D01*
X114752380Y-60761428D02*
X114752380Y-61380476D01*
X115133333Y-61047142D01*
X115133333Y-61190000D01*
X115180952Y-61285238D01*
X115228571Y-61332857D01*
X115323809Y-61380476D01*
X115561904Y-61380476D01*
X115657142Y-61332857D01*
X115704761Y-61285238D01*
X115752380Y-61190000D01*
X115752380Y-60904285D01*
X115704761Y-60809047D01*
X115657142Y-60761428D01*
X122176190Y-56042380D02*
X122176190Y-55042380D01*
X121509523Y-55042380D02*
X121319047Y-55042380D01*
X121223809Y-55090000D01*
X121128571Y-55185238D01*
X121080952Y-55375714D01*
X121080952Y-55709047D01*
X121128571Y-55899523D01*
X121223809Y-55994761D01*
X121319047Y-56042380D01*
X121509523Y-56042380D01*
X121604761Y-55994761D01*
X121700000Y-55899523D01*
X121747619Y-55709047D01*
X121747619Y-55375714D01*
X121700000Y-55185238D01*
X121604761Y-55090000D01*
X121509523Y-55042380D01*
X120700000Y-55137619D02*
X120652380Y-55090000D01*
X120557142Y-55042380D01*
X120319047Y-55042380D01*
X120223809Y-55090000D01*
X120176190Y-55137619D01*
X120128571Y-55232857D01*
X120128571Y-55328095D01*
X120176190Y-55470952D01*
X120747619Y-56042380D01*
X120128571Y-56042380D01*
X119795238Y-55042380D02*
X119176190Y-55042380D01*
X119509523Y-55423333D01*
X119366666Y-55423333D01*
X119271428Y-55470952D01*
X119223809Y-55518571D01*
X119176190Y-55613809D01*
X119176190Y-55851904D01*
X119223809Y-55947142D01*
X119271428Y-55994761D01*
X119366666Y-56042380D01*
X119652380Y-56042380D01*
X119747619Y-55994761D01*
X119795238Y-55947142D01*
D11*
X106600000Y-91490000D02*
X120600000Y-91490000D01*
D12*
G36*
X106244680Y-104777500D02*
G01*
X105990680Y-104645420D01*
X105363300Y-105158500D01*
X104931500Y-104726700D01*
X105444580Y-104099320D01*
X105312500Y-103845320D01*
X105226140Y-103576080D01*
X104420960Y-103492260D01*
X104420960Y-102887740D01*
X105226140Y-102803920D01*
X105312500Y-102534680D01*
X105444580Y-102280680D01*
X104931500Y-101653300D01*
X105363300Y-101221500D01*
X105990680Y-101734580D01*
X106244680Y-101602500D01*
X106513920Y-101516140D01*
X106597740Y-100710960D01*
X107202260Y-100710960D01*
X107286080Y-101516140D01*
X107555320Y-101602500D01*
X107809320Y-101734580D01*
X108436700Y-101221500D01*
X108868500Y-101653300D01*
X108355420Y-102280680D01*
X108487500Y-102534680D01*
X108573860Y-102803920D01*
X109379040Y-102887740D01*
X109379040Y-103492260D01*
X108573860Y-103576080D01*
X108487500Y-103845320D01*
X108355420Y-104099320D01*
X108868500Y-104726700D01*
X108436700Y-105158500D01*
X107809320Y-104645420D01*
X107555320Y-104777500D01*
X107197180Y-103911360D01*
X107331800Y-103837700D01*
X107451180Y-103741180D01*
X107547700Y-103621800D01*
X107621360Y-103487180D01*
X107664540Y-103342400D01*
X107679780Y-103190000D01*
X107664540Y-103032520D01*
X107613740Y-102877580D01*
X107535000Y-102740420D01*
X107430860Y-102618500D01*
X107301320Y-102521980D01*
X107156540Y-102453400D01*
X107001600Y-102417840D01*
X106844120Y-102412760D01*
X106684100Y-102440700D01*
X106536780Y-102501660D01*
X106402160Y-102590560D01*
X106290400Y-102704860D01*
X106204040Y-102839480D01*
X106145620Y-102989340D01*
X106120220Y-103146820D01*
X106127840Y-103304300D01*
X106168480Y-103459240D01*
X106239600Y-103604020D01*
X106338660Y-103731020D01*
X106460580Y-103835160D01*
X106602820Y-103911360D01*
X106244680Y-104777500D01*
G37*
X106244680Y-104777500D02*
X105990680Y-104645420D01*
X105363300Y-105158500D01*
X104931500Y-104726700D01*
X105444580Y-104099320D01*
X105312500Y-103845320D01*
X105226140Y-103576080D01*
X104420960Y-103492260D01*
X104420960Y-102887740D01*
X105226140Y-102803920D01*
X105312500Y-102534680D01*
X105444580Y-102280680D01*
X104931500Y-101653300D01*
X105363300Y-101221500D01*
X105990680Y-101734580D01*
X106244680Y-101602500D01*
X106513920Y-101516140D01*
X106597740Y-100710960D01*
X107202260Y-100710960D01*
X107286080Y-101516140D01*
X107555320Y-101602500D01*
X107809320Y-101734580D01*
X108436700Y-101221500D01*
X108868500Y-101653300D01*
X108355420Y-102280680D01*
X108487500Y-102534680D01*
X108573860Y-102803920D01*
X109379040Y-102887740D01*
X109379040Y-103492260D01*
X108573860Y-103576080D01*
X108487500Y-103845320D01*
X108355420Y-104099320D01*
X108868500Y-104726700D01*
X108436700Y-105158500D01*
X107809320Y-104645420D01*
X107555320Y-104777500D01*
X107197180Y-103911360D01*
X107331800Y-103837700D01*
X107451180Y-103741180D01*
X107547700Y-103621800D01*
X107621360Y-103487180D01*
X107664540Y-103342400D01*
X107679780Y-103190000D01*
X107664540Y-103032520D01*
X107613740Y-102877580D01*
X107535000Y-102740420D01*
X107430860Y-102618500D01*
X107301320Y-102521980D01*
X107156540Y-102453400D01*
X107001600Y-102417840D01*
X106844120Y-102412760D01*
X106684100Y-102440700D01*
X106536780Y-102501660D01*
X106402160Y-102590560D01*
X106290400Y-102704860D01*
X106204040Y-102839480D01*
X106145620Y-102989340D01*
X106120220Y-103146820D01*
X106127840Y-103304300D01*
X106168480Y-103459240D01*
X106239600Y-103604020D01*
X106338660Y-103731020D01*
X106460580Y-103835160D01*
X106602820Y-103911360D01*
X106244680Y-104777500D01*
G36*
X115809250Y-106265000D02*
G01*
X118095250Y-106265000D01*
X118095250Y-105915750D01*
X115809250Y-105915750D01*
X115809250Y-106265000D01*
G37*
X115809250Y-106265000D02*
X118095250Y-106265000D01*
X118095250Y-105915750D01*
X115809250Y-105915750D01*
X115809250Y-106265000D01*
G36*
X118222250Y-105788750D02*
G01*
X123873750Y-105788750D01*
X123873750Y-105439500D01*
X118222250Y-105439500D01*
X118222250Y-105788750D01*
G37*
X118222250Y-105788750D02*
X123873750Y-105788750D01*
X123873750Y-105439500D01*
X118222250Y-105439500D01*
X118222250Y-105788750D01*
G36*
X111967500Y-105788750D02*
G01*
X115682250Y-105788750D01*
X115682250Y-105439500D01*
X111967500Y-105439500D01*
X111967500Y-105788750D01*
G37*
X111967500Y-105788750D02*
X115682250Y-105788750D01*
X115682250Y-105439500D01*
X111967500Y-105439500D01*
X111967500Y-105788750D01*
G36*
X118127000Y-101978750D02*
G01*
X116190250Y-101978750D01*
X116190250Y-105407750D01*
X117714250Y-105407750D01*
X117714250Y-102994750D01*
X118127000Y-102994750D01*
X118127000Y-104931500D01*
X119651000Y-104931500D01*
X119651000Y-100994500D01*
X118127000Y-100994500D01*
X118127000Y-101978750D01*
G37*
X118127000Y-101978750D02*
X116190250Y-101978750D01*
X116190250Y-105407750D01*
X117714250Y-105407750D01*
X117714250Y-102994750D01*
X118127000Y-102994750D01*
X118127000Y-104931500D01*
X119651000Y-104931500D01*
X119651000Y-100994500D01*
X118127000Y-100994500D01*
X118127000Y-101978750D01*
G36*
X124000750Y-105312500D02*
G01*
X124350000Y-105312500D01*
X124350000Y-100613500D01*
X124000750Y-100613500D01*
X124000750Y-105312500D01*
G37*
X124000750Y-105312500D02*
X124350000Y-105312500D01*
X124350000Y-100613500D01*
X124000750Y-100613500D01*
X124000750Y-105312500D01*
G36*
X111491250Y-105312500D02*
G01*
X111840500Y-105312500D01*
X111840500Y-100613500D01*
X111491250Y-100613500D01*
X111491250Y-105312500D01*
G37*
X111491250Y-105312500D02*
X111840500Y-105312500D01*
X111840500Y-100613500D01*
X111491250Y-100613500D01*
X111491250Y-105312500D01*
G36*
X121961091Y-102685187D02*
G01*
X121952875Y-104375875D01*
X121571875Y-104375875D01*
X121563472Y-103415437D01*
X121555069Y-102455000D01*
X120032000Y-102455000D01*
X120032000Y-104931500D01*
X123492750Y-104931500D01*
X123492750Y-100994500D01*
X121969307Y-100994500D01*
X121961091Y-102685187D01*
G37*
X121961091Y-102685187D02*
X121952875Y-104375875D01*
X121571875Y-104375875D01*
X121563472Y-103415437D01*
X121555069Y-102455000D01*
X120032000Y-102455000D01*
X120032000Y-104931500D01*
X123492750Y-104931500D01*
X123492750Y-100994500D01*
X121969307Y-100994500D01*
X121961091Y-102685187D01*
G36*
X112348500Y-102518500D02*
G01*
X113872500Y-102518500D01*
X113872500Y-101566000D01*
X114285911Y-101566000D01*
X114277643Y-102970937D01*
X114269375Y-104375875D01*
X113888375Y-104375875D01*
X113879611Y-103891687D01*
X113870847Y-103407500D01*
X112348500Y-103407500D01*
X112348500Y-104931500D01*
X114043729Y-104931500D01*
X114417764Y-104931349D01*
X114733261Y-104930802D01*
X114995178Y-104929713D01*
X115208478Y-104927936D01*
X115378119Y-104925327D01*
X115509062Y-104921739D01*
X115606268Y-104917028D01*
X115674696Y-104911048D01*
X115719308Y-104903654D01*
X115745064Y-104894701D01*
X115756923Y-104884043D01*
X115758229Y-104881278D01*
X115761679Y-104841269D01*
X115764932Y-104743422D01*
X115767931Y-104593397D01*
X115770622Y-104396855D01*
X115772948Y-104159459D01*
X115774854Y-103886867D01*
X115776285Y-103584743D01*
X115777186Y-103258747D01*
X115777500Y-102914540D01*
X115777500Y-100994500D01*
X112348500Y-100994500D01*
X112348500Y-102518500D01*
G37*
X112348500Y-102518500D02*
X113872500Y-102518500D01*
X113872500Y-101566000D01*
X114285911Y-101566000D01*
X114277643Y-102970937D01*
X114269375Y-104375875D01*
X113888375Y-104375875D01*
X113879611Y-103891687D01*
X113870847Y-103407500D01*
X112348500Y-103407500D01*
X112348500Y-104931500D01*
X114043729Y-104931500D01*
X114417764Y-104931349D01*
X114733261Y-104930802D01*
X114995178Y-104929713D01*
X115208478Y-104927936D01*
X115378119Y-104925327D01*
X115509062Y-104921739D01*
X115606268Y-104917028D01*
X115674696Y-104911048D01*
X115719308Y-104903654D01*
X115745064Y-104894701D01*
X115756923Y-104884043D01*
X115758229Y-104881278D01*
X115761679Y-104841269D01*
X115764932Y-104743422D01*
X115767931Y-104593397D01*
X115770622Y-104396855D01*
X115772948Y-104159459D01*
X115774854Y-103886867D01*
X115776285Y-103584743D01*
X115777186Y-103258747D01*
X115777500Y-102914540D01*
X115777500Y-100994500D01*
X112348500Y-100994500D01*
X112348500Y-102518500D01*
G36*
X121111500Y-101597750D02*
G01*
X120508250Y-101597750D01*
X120508250Y-100137250D01*
X117269750Y-100137250D01*
X117269750Y-101121500D01*
X116666500Y-101121500D01*
X116666500Y-100137250D01*
X111967500Y-100137250D01*
X111967500Y-100486500D01*
X116285500Y-100486500D01*
X116285500Y-101470750D01*
X117619000Y-101470750D01*
X117619000Y-100485771D01*
X118881063Y-100494073D01*
X120143125Y-100502375D01*
X120151659Y-101224687D01*
X120160193Y-101947000D01*
X121460750Y-101947000D01*
X121460750Y-100486500D01*
X123873750Y-100486500D01*
X123873750Y-100137250D01*
X121111500Y-100137250D01*
X121111500Y-101597750D01*
G37*
X121111500Y-101597750D02*
X120508250Y-101597750D01*
X120508250Y-100137250D01*
X117269750Y-100137250D01*
X117269750Y-101121500D01*
X116666500Y-101121500D01*
X116666500Y-100137250D01*
X111967500Y-100137250D01*
X111967500Y-100486500D01*
X116285500Y-100486500D01*
X116285500Y-101470750D01*
X117619000Y-101470750D01*
X117619000Y-100485771D01*
X118881063Y-100494073D01*
X120143125Y-100502375D01*
X120151659Y-101224687D01*
X120160193Y-101947000D01*
X121460750Y-101947000D01*
X121460750Y-100486500D01*
X123873750Y-100486500D01*
X123873750Y-100137250D01*
X121111500Y-100137250D01*
X121111500Y-101597750D01*
G36*
X118678400Y-31102400D02*
G01*
X117713200Y-31102400D01*
X117713200Y-28765600D01*
X112531600Y-28765600D01*
X112531600Y-30340400D01*
X111566400Y-30340400D01*
X111566400Y-28765600D01*
X104048000Y-28765600D01*
X104048000Y-29324400D01*
X110956800Y-29324400D01*
X110956800Y-30899200D01*
X113090400Y-30899200D01*
X113090400Y-29323234D01*
X117129000Y-29349800D01*
X117156308Y-31661200D01*
X119237200Y-31661200D01*
X119237200Y-29324400D01*
X123098000Y-29324400D01*
X123098000Y-28765600D01*
X118678400Y-28765600D01*
X118678400Y-31102400D01*
G37*
X118678400Y-31102400D02*
X117713200Y-31102400D01*
X117713200Y-28765600D01*
X112531600Y-28765600D01*
X112531600Y-30340400D01*
X111566400Y-30340400D01*
X111566400Y-28765600D01*
X104048000Y-28765600D01*
X104048000Y-29324400D01*
X110956800Y-29324400D01*
X110956800Y-30899200D01*
X113090400Y-30899200D01*
X113090400Y-29323234D01*
X117129000Y-29349800D01*
X117156308Y-31661200D01*
X119237200Y-31661200D01*
X119237200Y-29324400D01*
X123098000Y-29324400D01*
X123098000Y-28765600D01*
X118678400Y-28765600D01*
X118678400Y-31102400D01*
G36*
X104657600Y-32575600D02*
G01*
X107096000Y-32575600D01*
X107096000Y-31051600D01*
X107757457Y-31051600D01*
X107744229Y-33299500D01*
X107731000Y-35547400D01*
X107121400Y-35547400D01*
X107093354Y-33998000D01*
X104657600Y-33998000D01*
X104657600Y-36436400D01*
X107369965Y-36436400D01*
X107968423Y-36436159D01*
X108473217Y-36435284D01*
X108892285Y-36433541D01*
X109233564Y-36430699D01*
X109504990Y-36426523D01*
X109714499Y-36420783D01*
X109870028Y-36413245D01*
X109979514Y-36403677D01*
X110050893Y-36391847D01*
X110092102Y-36377521D01*
X110111077Y-36360468D01*
X110113165Y-36356045D01*
X110118687Y-36292031D01*
X110123891Y-36135475D01*
X110128690Y-35895435D01*
X110132994Y-35580969D01*
X110136716Y-35201134D01*
X110139766Y-34764988D01*
X110142056Y-34281589D01*
X110143497Y-33759995D01*
X110144000Y-33209264D01*
X110144000Y-30137200D01*
X104657600Y-30137200D01*
X104657600Y-32575600D01*
G37*
X104657600Y-32575600D02*
X107096000Y-32575600D01*
X107096000Y-31051600D01*
X107757457Y-31051600D01*
X107744229Y-33299500D01*
X107731000Y-35547400D01*
X107121400Y-35547400D01*
X107093354Y-33998000D01*
X104657600Y-33998000D01*
X104657600Y-36436400D01*
X107369965Y-36436400D01*
X107968423Y-36436159D01*
X108473217Y-36435284D01*
X108892285Y-36433541D01*
X109233564Y-36430699D01*
X109504990Y-36426523D01*
X109714499Y-36420783D01*
X109870028Y-36413245D01*
X109979514Y-36403677D01*
X110050893Y-36391847D01*
X110092102Y-36377521D01*
X110111077Y-36360468D01*
X110113165Y-36356045D01*
X110118687Y-36292031D01*
X110123891Y-36135475D01*
X110128690Y-35895435D01*
X110132994Y-35580969D01*
X110136716Y-35201134D01*
X110139766Y-34764988D01*
X110142056Y-34281589D01*
X110143497Y-33759995D01*
X110144000Y-33209264D01*
X110144000Y-30137200D01*
X104657600Y-30137200D01*
X104657600Y-32575600D01*
G36*
X120037746Y-32842300D02*
G01*
X120024600Y-35547400D01*
X119415000Y-35547400D01*
X119401556Y-34010700D01*
X119388111Y-32474000D01*
X116951200Y-32474000D01*
X116951200Y-36436400D01*
X122488400Y-36436400D01*
X122488400Y-30137200D01*
X120050891Y-30137200D01*
X120037746Y-32842300D01*
G37*
X120037746Y-32842300D02*
X120024600Y-35547400D01*
X119415000Y-35547400D01*
X119401556Y-34010700D01*
X119388111Y-32474000D01*
X116951200Y-32474000D01*
X116951200Y-36436400D01*
X122488400Y-36436400D01*
X122488400Y-30137200D01*
X120050891Y-30137200D01*
X120037746Y-32842300D01*
G36*
X103286000Y-37046000D02*
G01*
X103844800Y-37046000D01*
X103844800Y-29527600D01*
X103286000Y-29527600D01*
X103286000Y-37046000D01*
G37*
X103286000Y-37046000D02*
X103844800Y-37046000D01*
X103844800Y-29527600D01*
X103286000Y-29527600D01*
X103286000Y-37046000D01*
G36*
X123301200Y-37046000D02*
G01*
X123860000Y-37046000D01*
X123860000Y-29527600D01*
X123301200Y-29527600D01*
X123301200Y-37046000D01*
G37*
X123301200Y-37046000D02*
X123860000Y-37046000D01*
X123860000Y-29527600D01*
X123301200Y-29527600D01*
X123301200Y-37046000D01*
G36*
X113903200Y-31712000D02*
G01*
X110804400Y-31712000D01*
X110804400Y-37198400D01*
X113242800Y-37198400D01*
X113242800Y-33337600D01*
X113903200Y-33337600D01*
X113903200Y-36436400D01*
X116341600Y-36436400D01*
X116341600Y-30137200D01*
X113903200Y-30137200D01*
X113903200Y-31712000D01*
G37*
X113903200Y-31712000D02*
X110804400Y-31712000D01*
X110804400Y-37198400D01*
X113242800Y-37198400D01*
X113242800Y-33337600D01*
X113903200Y-33337600D01*
X113903200Y-36436400D01*
X116341600Y-36436400D01*
X116341600Y-30137200D01*
X113903200Y-30137200D01*
X113903200Y-31712000D01*
G36*
X104048000Y-37808000D02*
G01*
X109991600Y-37808000D01*
X109991600Y-37249200D01*
X104048000Y-37249200D01*
X104048000Y-37808000D01*
G37*
X104048000Y-37808000D02*
X109991600Y-37808000D01*
X109991600Y-37249200D01*
X104048000Y-37249200D01*
X104048000Y-37808000D01*
G36*
X114055600Y-37808000D02*
G01*
X123098000Y-37808000D01*
X123098000Y-37249200D01*
X114055600Y-37249200D01*
X114055600Y-37808000D01*
G37*
X114055600Y-37808000D02*
X123098000Y-37808000D01*
X123098000Y-37249200D01*
X114055600Y-37249200D01*
X114055600Y-37808000D01*
G36*
X110194800Y-38570000D02*
G01*
X113852400Y-38570000D01*
X113852400Y-38011200D01*
X110194800Y-38011200D01*
X110194800Y-38570000D01*
G37*
X110194800Y-38570000D02*
X113852400Y-38570000D01*
X113852400Y-38011200D01*
X110194800Y-38011200D01*
X110194800Y-38570000D01*
D13*
X109710000Y-63992000D02*
X113810000Y-63992000D01*
X113810000Y-63992000D02*
X113810000Y-61992000D01*
X113810000Y-61992000D02*
X109710000Y-61992000D01*
X109710000Y-61992000D02*
X109710000Y-63992000D01*
X118636000Y-61992000D02*
X114536000Y-61992000D01*
X114536000Y-61992000D02*
X114536000Y-63992000D01*
X114536000Y-63992000D02*
X118636000Y-63992000D01*
X118636000Y-63992000D02*
X118636000Y-61992000D01*
X108725000Y-45415000D02*
X108725000Y-44065000D01*
X110475000Y-45415000D02*
X110475000Y-44065000D01*
X118365000Y-44255000D02*
X114835000Y-44255000D01*
X118365000Y-50725000D02*
X114835000Y-50725000D01*
X119690000Y-44320000D02*
X118365000Y-44320000D01*
X118365000Y-44255000D02*
X118365000Y-44320000D01*
X114835000Y-44255000D02*
X114835000Y-44320000D01*
X118365000Y-50660000D02*
X118365000Y-50725000D01*
X114835000Y-50660000D02*
X114835000Y-50725000D01*
X109459420Y-48000000D02*
X109740580Y-48000000D01*
X109459420Y-46980000D02*
X109740580Y-46980000D01*
X109459420Y-42500000D02*
X109740580Y-42500000D01*
X109459420Y-41480000D02*
X109740580Y-41480000D01*
D14*
X112593333Y-64342380D02*
X112593333Y-65056666D01*
X112640952Y-65199523D01*
X112736190Y-65294761D01*
X112879047Y-65342380D01*
X112974285Y-65342380D01*
X112117142Y-65342380D02*
X112117142Y-64342380D01*
X111736190Y-64342380D01*
X111640952Y-64390000D01*
X111593333Y-64437619D01*
X111545714Y-64532857D01*
X111545714Y-64675714D01*
X111593333Y-64770952D01*
X111640952Y-64818571D01*
X111736190Y-64866190D01*
X112117142Y-64866190D01*
X111164761Y-64437619D02*
X111117142Y-64390000D01*
X111021904Y-64342380D01*
X110783809Y-64342380D01*
X110688571Y-64390000D01*
X110640952Y-64437619D01*
X110593333Y-64532857D01*
X110593333Y-64628095D01*
X110640952Y-64770952D01*
X111212380Y-65342380D01*
X110593333Y-65342380D01*
X117419333Y-64342380D02*
X117419333Y-65056666D01*
X117466952Y-65199523D01*
X117562190Y-65294761D01*
X117705047Y-65342380D01*
X117800285Y-65342380D01*
X116943142Y-65342380D02*
X116943142Y-64342380D01*
X116562190Y-64342380D01*
X116466952Y-64390000D01*
X116419333Y-64437619D01*
X116371714Y-64532857D01*
X116371714Y-64675714D01*
X116419333Y-64770952D01*
X116466952Y-64818571D01*
X116562190Y-64866190D01*
X116943142Y-64866190D01*
X115419333Y-65342380D02*
X115990761Y-65342380D01*
X115705047Y-65342380D02*
X115705047Y-64342380D01*
X115800285Y-64485238D01*
X115895523Y-64580476D01*
X115990761Y-64628095D01*
X112376190Y-44716190D02*
X112376190Y-45192380D01*
X112709523Y-44192380D02*
X112376190Y-44716190D01*
X112042857Y-44192380D01*
X111757142Y-44287619D02*
X111709523Y-44240000D01*
X111614285Y-44192380D01*
X111376190Y-44192380D01*
X111280952Y-44240000D01*
X111233333Y-44287619D01*
X111185714Y-44382857D01*
X111185714Y-44478095D01*
X111233333Y-44620952D01*
X111804761Y-45192380D01*
X111185714Y-45192380D01*
X119733333Y-51242380D02*
X119733333Y-51956666D01*
X119780952Y-52099523D01*
X119876190Y-52194761D01*
X120019047Y-52242380D01*
X120114285Y-52242380D01*
X119352380Y-51242380D02*
X118733333Y-51242380D01*
X119066666Y-51623333D01*
X118923809Y-51623333D01*
X118828571Y-51670952D01*
X118780952Y-51718571D01*
X118733333Y-51813809D01*
X118733333Y-52051904D01*
X118780952Y-52147142D01*
X118828571Y-52194761D01*
X118923809Y-52242380D01*
X119209523Y-52242380D01*
X119304761Y-52194761D01*
X119352380Y-52147142D01*
X112257142Y-46847142D02*
X112304761Y-46799523D01*
X112352380Y-46656666D01*
X112352380Y-46561428D01*
X112304761Y-46418571D01*
X112209523Y-46323333D01*
X112114285Y-46275714D01*
X111923809Y-46228095D01*
X111780952Y-46228095D01*
X111590476Y-46275714D01*
X111495238Y-46323333D01*
X111400000Y-46418571D01*
X111352380Y-46561428D01*
X111352380Y-46656666D01*
X111400000Y-46799523D01*
X111447619Y-46847142D01*
X112352380Y-47799523D02*
X112352380Y-47228095D01*
X112352380Y-47513809D02*
X111352380Y-47513809D01*
X111495238Y-47418571D01*
X111590476Y-47323333D01*
X111638095Y-47228095D01*
X111352380Y-48656666D02*
X111352380Y-48466190D01*
X111400000Y-48370952D01*
X111447619Y-48323333D01*
X111590476Y-48228095D01*
X111780952Y-48180476D01*
X112161904Y-48180476D01*
X112257142Y-48228095D01*
X112304761Y-48275714D01*
X112352380Y-48370952D01*
X112352380Y-48561428D01*
X112304761Y-48656666D01*
X112257142Y-48704285D01*
X112161904Y-48751904D01*
X111923809Y-48751904D01*
X111828571Y-48704285D01*
X111780952Y-48656666D01*
X111733333Y-48561428D01*
X111733333Y-48370952D01*
X111780952Y-48275714D01*
X111828571Y-48228095D01*
X111923809Y-48180476D01*
X112257142Y-41347142D02*
X112304761Y-41299523D01*
X112352380Y-41156666D01*
X112352380Y-41061428D01*
X112304761Y-40918571D01*
X112209523Y-40823333D01*
X112114285Y-40775714D01*
X111923809Y-40728095D01*
X111780952Y-40728095D01*
X111590476Y-40775714D01*
X111495238Y-40823333D01*
X111400000Y-40918571D01*
X111352380Y-41061428D01*
X111352380Y-41156666D01*
X111400000Y-41299523D01*
X111447619Y-41347142D01*
X112352380Y-42299523D02*
X112352380Y-41728095D01*
X112352380Y-42013809D02*
X111352380Y-42013809D01*
X111495238Y-41918571D01*
X111590476Y-41823333D01*
X111638095Y-41728095D01*
X111352380Y-43204285D02*
X111352380Y-42728095D01*
X111828571Y-42680476D01*
X111780952Y-42728095D01*
X111733333Y-42823333D01*
X111733333Y-43061428D01*
X111780952Y-43156666D01*
X111828571Y-43204285D01*
X111923809Y-43251904D01*
X112161904Y-43251904D01*
X112257142Y-43204285D01*
X112304761Y-43156666D01*
X112352380Y-43061428D01*
X112352380Y-42823333D01*
X112304761Y-42728095D01*
X112257142Y-42680476D01*
M02*
