M48
;Layer_Color=9474304
;FILE_FORMAT=4:3
METRIC
;TYPE=PLATED
T01F00S00C0.300
T03F00S00C0.800
T04F00S00C1.000
T05F00S00C4.000
;TYPE=NON_PLATED
T06F00S00C0.650
%
T01
X0001500Y0010700
X0003000
X0004500
X0006000
X0007500
X0005250Y0012200
X0003750
X0002250
X0001500Y0013700
X0003000
X0004500
X0010500
X0012000
X0011200Y0009100
X0011000Y0005700
X0018100Y0005900
X0019500Y0007700
X0020300Y0007000
X0021500Y0008300
X0022500Y0008600
X0018750Y0009200
X0019500Y0013700
X0027200Y0013900
X0028500Y0010700
X0025500
X0036000
X0037500
X0039000
X0040500
X0039750Y0012200
X0045000Y0010700
X0046500
X0049500
X0048750Y0012200
X0045750Y0015200
X0044250Y0017750
X0041225Y0017770
X0039900Y0018400
X0037600Y0018700
X0036389Y0019185
X0038500Y0019750
X0039500Y0021100
X0037178Y0021863
X0036496Y0022600
X0035225Y0021850
X0035100Y0020700
X0032700Y0021600
X0033254Y0022568
X0033108Y0024615
X0034137Y0024841
X0033975Y0026350
X0033863Y0027491
X0032250Y0027200
X0032500Y0025500
X0035250Y0024200
X0038250Y0027200
Y0030200
X0038600Y0031300
X0039750Y0030200
X0041225Y0030330
X0042725
X0044225Y0030350
X0044225Y0028850
Y0027331
X0042725Y0027350
X0041272
X0047250Y0027200
Y0030200
X0045750
Y0033200
X0048000Y0034700
X0049500
X0050250Y0033200
X0049425Y0032152
X0049985Y0031515
X0050250Y0030200
X0049500Y0028700
X0050250Y0027200
X0049500Y0025700
X0050250Y0024200
X0049500Y0022700
X0048000
X0048750Y0021200
X0050250
X0048000Y0019700
X0043700Y0021400
X0041600Y0019500
X0035400Y0015600
X0034700Y0015300
X0034000Y0015600
X0033300Y0015300
X0032600Y0015600
X0031800Y0015300
X0031000Y0015600
X0029200Y0015700
X0028000Y0015100
X0027750Y0018200
X0029250
X0027000Y0019700
X0027750Y0021200
X0029100Y0023500
X0024000Y0024500
X0023400Y0023000
X0023000Y0022400
X0024300Y0021500
X0024100Y0020000
X0024750Y0018200
X0024750Y0017250
X0023250Y0018200
X0021750
X0018600Y0020700
X0017600
X0016500Y0021300
X0015300Y0021800
X0017900Y0023200
X0018000Y0025700
X0016500
X0017250Y0027200
X0018750
X0020250
X0019900Y0026200
Y0024400
X0023000Y0025600
X0023200Y0026816
X0023600Y0028100
X0023900Y0028800
Y0029600
X0027000Y0029900
X0030850
X0031500
X0032200Y0030000
X0030750Y0033200
X0031300Y0034900
X0033200Y0034200
X0034500Y0034700
X0036000
X0037500
X0036750Y0036200
X0035250
X0036000Y0037700
X0037500
X0038400Y0036500
X0038250Y0039200
X0036750
X0035250
X0033750
X0032250
X0030750
X0030000Y0040700
X0031500
X0033000
X0032250Y0042200
X0030750
X0029250
X0027750
X0027000Y0040700
X0028500
X0024000
X0022500
X0021000
X0019500
X0018000
X0016500
X0015000
X0015750Y0039200
X0014250
X0015000Y0037700
X0016500
X0018000
X0019500
X0020250Y0039200
X0021750
X0023250
Y0042200
X0024750
X0021750
X0020250
X0018750
X0017250
X0015750
X0014250
Y0036200
X0015750
X0017250
Y0039200
X0018750
Y0033200
X0020250
X0020100Y0034500
X0019500Y0031700
X0020250Y0030200
X0018750
X0018000Y0028700
X0019500
X0015000
X0015125Y0027400
X0015775
X0014250Y0027200
Y0030200
X0015750
X0015000Y0031700
X0015750Y0033200
X0014250
X0015000Y0034700
X0023200Y0035300
X0024200Y0036040
Y0036690
X0026131Y0035597
X0027700Y0035900
X0027000Y0033800
X0039200Y0033100
X0041400Y0035800
X0042750Y0036200
X0042000Y0037700
X0043500
X0042750Y0039200
X0041250
X0039750
X0040500Y0040700
X0039750Y0042200
X0038700Y0043200
X0048750Y0042200
X0050250
X0049500Y0040700
X0050250Y0039200
X0048750
X0046875Y0038825
X0046500Y0037700
X0047025Y0037100
X0047250Y0036200
X0048750
X0050250
X0049500Y0037700
X0048000
X0018600Y0015100
X0017400Y0015400
X0015400
X0016400Y0017200
X0012600Y0017900
X0013100Y0015400
X0010700
X0009500
X0008300
X0003750Y0015200
X0002250
X0001500Y0016700
X0003000
X0003750Y0018200
X0002250
X0001500Y0019700
X0002250Y0021200
X0001500Y0022700
X0002250Y0024200
X0001500Y0029500
X0001500Y0031700
X0007100Y0031900
X0006900Y0033000
X0007500Y0034700
X0006000
X0006250Y0036250
X0006000Y0037700
X0007500
X0009000
X0010500
X0012000
X0013500
X0012750Y0039200
X0011250
X0009750
X0008250
X0006750
X0005250
X0003750
X0002250
X0001500Y0040700
X0003000
X0004500
X0006000
X0007500
X0009000
X0010500
X0012000
X0013500
X0012750Y0042200
X0011250
X0009750
X0008250
X0006750
X0005250
X0003750
X0002250
X0000875Y0037450
X0008250Y0036200
X0009750
X0011250
X0012750
X0012000Y0034700
X0010500
X0009000
X0011250Y0033200
X0012750
X0013500Y0031700
X0010500
X0008250Y0030200
X0007300Y0030600
Y0029200
Y0028000
Y0026700
Y0026000
X0008250Y0027200
X0009000Y0028700
X0009400Y0025000
X0011800Y0024400
X0011250Y0021200
X0012750
X0013500Y0020900
X0009700Y0022000
X0007600Y0023300
X0013500Y0034700
T03
X0050175Y0012025
Y0014025
Y0016025
Y0018025
Y0020025
T04
X0013195Y0013000
X0015735
X0018275
X0020815
X0023355
X0025895
X0028435
X0030975
X0033515
X0036055
X0038595
T05
X0004355Y0006950
X0014595
X0026005
X0037385
X0047595
T06
X0027210Y0037920
X0032990
M30
