G04*
G04 #@! TF.GenerationSoftware,Altium Limited,Altium Designer,24.2.2 (26)*
G04*
G04 Layer_Color=16711935*
%FSLAX43Y43*%
%MOMM*%
G71*
G04*
G04 #@! TF.SameCoordinates,64C95865-F52C-4F6A-8C26-E1CD83AD4D4F*
G04*
G04*
G04 #@! TF.FilePolarity,Negative*
G04*
G01*
G75*
%ADD19R,1.000X5.000*%
%ADD54R,1.724X4.264*%
%ADD59C,6.200*%
%ADD60C,1.876*%
%ADD61C,1.500*%
%ADD62C,0.850*%
%ADD63O,1.100X2.000*%
%ADD64O,1.250X2.300*%
%ADD65R,1.500X1.500*%
%ADD85R,1.500X1.750*%
G36*
X6716Y6459D02*
Y6437D01*
Y6416D01*
Y6395D01*
Y6374D01*
Y6353D01*
Y6332D01*
Y6310D01*
Y6289D01*
Y6268D01*
Y6247D01*
Y6226D01*
Y6205D01*
Y6183D01*
Y6162D01*
Y6141D01*
Y6120D01*
Y6099D01*
Y6078D01*
Y6056D01*
X2081D01*
Y6078D01*
Y6099D01*
Y6120D01*
Y6141D01*
Y6162D01*
Y6183D01*
Y6205D01*
Y6226D01*
Y6247D01*
Y6268D01*
Y6289D01*
Y6310D01*
Y6332D01*
Y6353D01*
Y6374D01*
Y6395D01*
Y6416D01*
Y6437D01*
Y6459D01*
Y6480D01*
X6716D01*
Y6459D01*
D02*
G37*
G36*
X28306D02*
Y6437D01*
Y6416D01*
Y6395D01*
Y6374D01*
Y6353D01*
Y6332D01*
Y6310D01*
Y6289D01*
Y6268D01*
Y6247D01*
Y6226D01*
Y6205D01*
Y6183D01*
Y6162D01*
Y6141D01*
Y6120D01*
Y6099D01*
Y6078D01*
Y6056D01*
Y6035D01*
Y6014D01*
Y5993D01*
Y5972D01*
Y5951D01*
Y5929D01*
Y5908D01*
Y5887D01*
Y5866D01*
X23694D01*
Y5887D01*
Y5908D01*
Y5929D01*
Y5951D01*
Y5972D01*
Y5993D01*
Y6014D01*
Y6035D01*
Y6056D01*
Y6078D01*
Y6099D01*
Y6120D01*
Y6141D01*
Y6162D01*
Y6183D01*
Y6205D01*
Y6226D01*
Y6247D01*
Y6268D01*
Y6289D01*
Y6310D01*
Y6332D01*
Y6353D01*
Y6374D01*
Y6395D01*
Y6416D01*
Y6437D01*
Y6459D01*
Y6480D01*
X28306D01*
Y6459D01*
D02*
G37*
G36*
X49896D02*
Y6437D01*
Y6416D01*
Y6395D01*
Y6374D01*
Y6353D01*
Y6332D01*
Y6310D01*
Y6289D01*
Y6268D01*
Y6247D01*
Y6226D01*
Y6205D01*
Y6183D01*
Y6162D01*
Y6141D01*
Y6120D01*
Y6099D01*
Y6078D01*
Y6056D01*
Y6035D01*
Y6014D01*
Y5993D01*
Y5972D01*
Y5951D01*
Y5929D01*
Y5908D01*
Y5887D01*
Y5866D01*
Y5845D01*
Y5824D01*
Y5802D01*
Y5781D01*
Y5760D01*
Y5739D01*
Y5718D01*
X45284D01*
Y5739D01*
Y5760D01*
Y5781D01*
Y5802D01*
Y5824D01*
Y5845D01*
Y5866D01*
Y5887D01*
Y5908D01*
Y5929D01*
Y5951D01*
Y5972D01*
Y5993D01*
Y6014D01*
Y6035D01*
Y6056D01*
Y6078D01*
Y6099D01*
Y6120D01*
Y6141D01*
Y6162D01*
Y6183D01*
Y6205D01*
Y6226D01*
Y6247D01*
Y6268D01*
Y6289D01*
Y6310D01*
Y6332D01*
Y6353D01*
Y6374D01*
Y6395D01*
Y6416D01*
Y6437D01*
Y6459D01*
Y6480D01*
X49896D01*
Y6459D01*
D02*
G37*
G36*
X39696D02*
Y6437D01*
Y6416D01*
Y6395D01*
Y6374D01*
Y6353D01*
Y6332D01*
Y6310D01*
Y6289D01*
Y6268D01*
Y6247D01*
Y6226D01*
Y6205D01*
Y6183D01*
Y6162D01*
Y6141D01*
Y6120D01*
Y6099D01*
Y6078D01*
Y6056D01*
Y6035D01*
Y6014D01*
Y5993D01*
Y5972D01*
Y5951D01*
Y5929D01*
Y5908D01*
Y5887D01*
Y5866D01*
Y5845D01*
Y5824D01*
Y5802D01*
Y5781D01*
Y5760D01*
Y5739D01*
Y5718D01*
Y5697D01*
Y5675D01*
Y5654D01*
Y5633D01*
Y5612D01*
Y5591D01*
Y5570D01*
Y5548D01*
Y5527D01*
Y5506D01*
Y5485D01*
Y5464D01*
Y5443D01*
Y5421D01*
X35081D01*
Y5443D01*
Y5464D01*
Y5485D01*
Y5506D01*
Y5527D01*
Y5548D01*
Y5570D01*
Y5591D01*
Y5612D01*
Y5633D01*
Y5654D01*
Y5675D01*
Y5697D01*
Y5718D01*
Y5739D01*
Y5760D01*
Y5781D01*
Y5802D01*
Y5824D01*
Y5845D01*
Y5866D01*
Y5887D01*
Y5908D01*
Y5929D01*
Y5951D01*
Y5972D01*
Y5993D01*
Y6014D01*
Y6035D01*
Y6056D01*
Y6078D01*
Y6099D01*
Y6120D01*
Y6141D01*
Y6162D01*
Y6183D01*
Y6205D01*
Y6226D01*
Y6247D01*
Y6268D01*
Y6289D01*
Y6310D01*
Y6332D01*
Y6353D01*
Y6374D01*
Y6395D01*
Y6416D01*
Y6437D01*
Y6459D01*
Y6480D01*
X39696D01*
Y6459D01*
D02*
G37*
G36*
X16899D02*
Y6437D01*
Y6416D01*
Y6395D01*
Y6374D01*
Y6353D01*
Y6332D01*
Y6310D01*
Y6289D01*
Y6268D01*
Y6247D01*
Y6226D01*
Y6205D01*
Y6183D01*
Y6162D01*
Y6141D01*
Y6120D01*
Y6099D01*
Y6078D01*
Y6056D01*
Y6035D01*
Y6014D01*
Y5993D01*
Y5972D01*
Y5951D01*
Y5929D01*
Y5908D01*
Y5887D01*
Y5866D01*
Y5845D01*
Y5824D01*
Y5802D01*
Y5781D01*
Y5760D01*
Y5739D01*
Y5718D01*
Y5697D01*
Y5675D01*
Y5654D01*
Y5633D01*
Y5612D01*
Y5591D01*
Y5570D01*
Y5548D01*
Y5527D01*
Y5506D01*
Y5485D01*
Y5464D01*
Y5443D01*
Y5421D01*
Y5400D01*
Y5379D01*
X12284D01*
Y5400D01*
Y5421D01*
Y5443D01*
Y5464D01*
Y5485D01*
Y5506D01*
Y5527D01*
Y5548D01*
Y5570D01*
Y5591D01*
Y5612D01*
Y5633D01*
Y5654D01*
Y5675D01*
Y5697D01*
Y5718D01*
Y5739D01*
Y5760D01*
Y5781D01*
Y5802D01*
Y5824D01*
Y5845D01*
Y5866D01*
Y5887D01*
Y5908D01*
Y5929D01*
Y5951D01*
Y5972D01*
Y5993D01*
Y6014D01*
Y6035D01*
Y6056D01*
Y6078D01*
Y6099D01*
Y6120D01*
Y6141D01*
Y6162D01*
Y6183D01*
Y6205D01*
Y6226D01*
Y6247D01*
Y6268D01*
Y6289D01*
Y6310D01*
Y6332D01*
Y6353D01*
Y6374D01*
Y6395D01*
Y6416D01*
Y6437D01*
Y6459D01*
Y6480D01*
X16899D01*
Y6459D01*
D02*
G37*
G36*
X49900Y5030D02*
X52162D01*
Y-50D01*
X49622D01*
Y-40D01*
X45558D01*
Y-50D01*
X39462D01*
Y-40D01*
X35398D01*
Y-50D01*
X28032D01*
Y-40D01*
X23968D01*
Y-50D01*
X16602D01*
Y-40D01*
X12855D01*
Y-50D01*
X6505D01*
Y-40D01*
X2378D01*
Y-50D01*
X-162D01*
Y5030D01*
X2050D01*
Y5235D01*
X6660D01*
Y5030D01*
X12290D01*
Y5235D01*
X16900D01*
Y5030D01*
X23700D01*
Y5235D01*
X28310D01*
Y5030D01*
X35080D01*
Y5235D01*
X39690D01*
Y5030D01*
X45290D01*
Y5235D01*
X49900D01*
Y5030D01*
D02*
G37*
%LPC*%
G36*
X37599Y3087D02*
D01*
Y2840D01*
X37598D01*
X37596Y2841D01*
X37592Y2842D01*
X37586Y2844D01*
X37579Y2847D01*
X37572Y2850D01*
X37562Y2855D01*
X37551Y2860D01*
X37528Y2872D01*
X37502Y2887D01*
X37472Y2906D01*
X37441Y2930D01*
X37439Y2931D01*
X37436Y2933D01*
X37432Y2936D01*
X37427Y2941D01*
X37419Y2948D01*
X37412Y2956D01*
X37404Y2965D01*
X37394Y2975D01*
X37374Y2998D01*
X37355Y3025D01*
X37337Y3054D01*
X37330Y3070D01*
X37323Y3087D01*
X37599D01*
X37171D01*
Y2109D01*
X37358D01*
Y2811D01*
X37359Y2810D01*
X37362Y2807D01*
X37369Y2802D01*
X37376Y2795D01*
X37386Y2788D01*
X37398Y2779D01*
X37411Y2768D01*
X37427Y2757D01*
X37444Y2746D01*
X37462Y2734D01*
X37482Y2723D01*
X37503Y2711D01*
X37525Y2699D01*
X37549Y2689D01*
X37574Y2679D01*
X37599Y2670D01*
Y2109D01*
D01*
D01*
Y3087D01*
D02*
G37*
G36*
X26333D02*
X26008D01*
X26333D01*
Y2110D01*
X26331Y2113D01*
Y2118D01*
X26330Y2126D01*
X26328Y2134D01*
X26326Y2145D01*
X26324Y2156D01*
X26321Y2169D01*
X26312Y2197D01*
X26301Y2229D01*
X26287Y2262D01*
X26269Y2295D01*
X26268Y2296D01*
X26267Y2299D01*
X26263Y2304D01*
X26259Y2310D01*
X26252Y2319D01*
X26244Y2331D01*
X26234Y2342D01*
X26223Y2357D01*
X26210Y2373D01*
X26194Y2390D01*
X26177Y2410D01*
X26158Y2430D01*
X26137Y2452D01*
X26113Y2476D01*
X26087Y2502D01*
X26059Y2528D01*
X26058Y2529D01*
X26054Y2533D01*
X26047Y2540D01*
X26039Y2547D01*
X26028Y2557D01*
X26018Y2567D01*
X26005Y2580D01*
X25992Y2593D01*
X25965Y2619D01*
X25939Y2645D01*
X25929Y2657D01*
X25918Y2669D01*
X25910Y2679D01*
X25904Y2688D01*
Y2689D01*
X25901Y2690D01*
X25900Y2693D01*
X25897Y2697D01*
X25891Y2709D01*
X25883Y2724D01*
X25877Y2740D01*
X25871Y2760D01*
X25867Y2781D01*
X25864Y2802D01*
Y2803D01*
Y2805D01*
Y2808D01*
Y2812D01*
X25867Y2823D01*
X25869Y2838D01*
X25873Y2853D01*
X25878Y2868D01*
X25887Y2884D01*
X25898Y2898D01*
X25899Y2899D01*
X25905Y2903D01*
X25912Y2909D01*
X25923Y2915D01*
X25936Y2921D01*
X25952Y2926D01*
X25970Y2931D01*
X25991Y2932D01*
X26001D01*
X26011Y2930D01*
X26025Y2928D01*
X26040Y2923D01*
X26056Y2917D01*
X26072Y2907D01*
X26085Y2896D01*
X26086Y2894D01*
X26091Y2889D01*
X26096Y2881D01*
X26103Y2868D01*
X26110Y2853D01*
X26116Y2832D01*
X26121Y2808D01*
X26123Y2794D01*
X26124Y2780D01*
X26310Y2798D01*
Y2800D01*
X26309Y2804D01*
X26308Y2812D01*
X26306Y2823D01*
X26304Y2836D01*
X26301Y2850D01*
X26297Y2866D01*
X26291Y2883D01*
X26285Y2901D01*
X26278Y2919D01*
X26269Y2938D01*
X26260Y2956D01*
X26249Y2974D01*
X26236Y2991D01*
X26223Y3006D01*
X26207Y3019D01*
X26206Y3021D01*
X26203Y3023D01*
X26197Y3026D01*
X26191Y3030D01*
X26182Y3035D01*
X26172Y3041D01*
X26160Y3047D01*
X26147Y3053D01*
X26131Y3060D01*
X26115Y3066D01*
X26097Y3071D01*
X26077Y3077D01*
X26057Y3081D01*
X26035Y3084D01*
X26011Y3086D01*
X25987Y3087D01*
X25677D01*
X25973D01*
X25963Y3086D01*
X25951Y3085D01*
X25937Y3083D01*
X25921Y3081D01*
X25905Y3078D01*
X25887Y3073D01*
X25869Y3068D01*
X25850Y3062D01*
X25831Y3054D01*
X25813Y3045D01*
X25795Y3034D01*
X25777Y3023D01*
X25761Y3009D01*
X25760Y3008D01*
X25758Y3006D01*
X25753Y3000D01*
X25748Y2995D01*
X25742Y2988D01*
X25734Y2978D01*
X25727Y2968D01*
X25719Y2955D01*
X25711Y2942D01*
X25704Y2928D01*
X25696Y2912D01*
X25690Y2895D01*
X25685Y2876D01*
X25681Y2857D01*
X25678Y2837D01*
X25677Y2816D01*
Y2804D01*
X25678Y2799D01*
Y2791D01*
X25681Y2775D01*
X25684Y2755D01*
X25688Y2734D01*
X25693Y2712D01*
X25702Y2690D01*
Y2689D01*
X25703Y2688D01*
X25704Y2683D01*
X25706Y2679D01*
X25709Y2674D01*
X25712Y2668D01*
X25720Y2652D01*
X25730Y2634D01*
X25743Y2613D01*
X25759Y2589D01*
X25777Y2565D01*
X25779Y2563D01*
X25783Y2557D01*
X25793Y2547D01*
X25804Y2533D01*
X25813Y2525D01*
X25821Y2515D01*
X25832Y2506D01*
X25842Y2494D01*
X25855Y2483D01*
X25869Y2469D01*
X25883Y2455D01*
X25899Y2440D01*
X25900Y2439D01*
X25904Y2437D01*
X25908Y2433D01*
X25913Y2428D01*
X25920Y2421D01*
X25929Y2414D01*
X25947Y2397D01*
X25966Y2379D01*
X25984Y2361D01*
X25992Y2353D01*
X26000Y2345D01*
X26006Y2338D01*
X26011Y2333D01*
X26012Y2332D01*
X26016Y2328D01*
X26020Y2323D01*
X26025Y2317D01*
X26030Y2308D01*
X26037Y2300D01*
X26049Y2282D01*
X25677D01*
Y2109D01*
X26333D01*
Y3087D01*
D02*
G37*
G36*
X47595Y3096D02*
X47589D01*
X47582Y3095D01*
X47572D01*
X47561Y3093D01*
X47547Y3091D01*
X47531Y3088D01*
X47514Y3083D01*
X47497Y3078D01*
X47479Y3072D01*
X47460Y3063D01*
X47442Y3054D01*
X47424Y3042D01*
X47406Y3028D01*
X47389Y3013D01*
X47374Y2995D01*
X47373Y2994D01*
X47369Y2989D01*
X47365Y2982D01*
X47359Y2971D01*
X47351Y2959D01*
X47343Y2942D01*
X47334Y2923D01*
X47326Y2900D01*
X47318Y2874D01*
X47308Y2845D01*
X47301Y2812D01*
X47293Y2776D01*
X47287Y2737D01*
X47283Y2693D01*
X47280Y2647D01*
X47278Y2597D01*
Y2100D01*
D01*
Y2578D01*
X47280Y2571D01*
Y2562D01*
Y2552D01*
X47282Y2530D01*
X47284Y2503D01*
X47287Y2475D01*
X47290Y2444D01*
X47295Y2411D01*
X47302Y2379D01*
X47310Y2345D01*
X47319Y2312D01*
X47330Y2281D01*
X47343Y2251D01*
X47358Y2223D01*
X47375Y2199D01*
X47376Y2198D01*
X47378Y2195D01*
X47383Y2189D01*
X47389Y2183D01*
X47397Y2176D01*
X47407Y2167D01*
X47419Y2159D01*
X47432Y2149D01*
X47446Y2140D01*
X47463Y2131D01*
X47481Y2123D01*
X47501Y2115D01*
X47523Y2109D01*
X47546Y2104D01*
X47570Y2101D01*
X47595Y2100D01*
X47278D01*
X47602D01*
X47609Y2101D01*
X47619Y2102D01*
X47631Y2103D01*
X47645Y2105D01*
X47661Y2109D01*
X47678Y2113D01*
X47696Y2119D01*
X47714Y2126D01*
X47733Y2136D01*
X47752Y2145D01*
X47771Y2158D01*
X47790Y2173D01*
X47808Y2189D01*
X47825Y2208D01*
X47826Y2210D01*
X47828Y2214D01*
X47833Y2220D01*
X47839Y2230D01*
X47845Y2242D01*
X47852Y2258D01*
X47860Y2277D01*
X47868Y2298D01*
X47877Y2324D01*
X47884Y2352D01*
X47891Y2384D01*
X47898Y2420D01*
X47903Y2459D01*
X47907Y2502D01*
X47910Y2549D01*
X47911Y2599D01*
Y2537D01*
Y2628D01*
Y2618D01*
X47910Y2626D01*
Y2634D01*
Y2644D01*
X47908Y2667D01*
X47906Y2692D01*
X47903Y2721D01*
X47900Y2752D01*
X47895Y2784D01*
X47888Y2817D01*
X47881Y2850D01*
X47871Y2883D01*
X47861Y2914D01*
X47848Y2944D01*
X47833Y2971D01*
X47816Y2996D01*
X47815Y2997D01*
X47812Y3000D01*
X47808Y3005D01*
X47802Y3012D01*
X47793Y3019D01*
X47784Y3027D01*
X47772Y3037D01*
X47759Y3046D01*
X47744Y3055D01*
X47728Y3064D01*
X47710Y3073D01*
X47690Y3080D01*
X47668Y3087D01*
X47645Y3092D01*
X47621Y3095D01*
X47595Y3096D01*
D02*
G37*
G36*
X14824Y2841D02*
D01*
Y2477D01*
X14823Y2487D01*
Y2499D01*
X14821Y2513D01*
X14818Y2530D01*
X14816Y2549D01*
X14812Y2570D01*
X14807Y2592D01*
X14802Y2614D01*
X14794Y2636D01*
X14785Y2659D01*
X14774Y2681D01*
X14762Y2704D01*
X14748Y2724D01*
X14732Y2743D01*
X14731Y2744D01*
X14728Y2747D01*
X14722Y2752D01*
X14715Y2758D01*
X14705Y2766D01*
X14695Y2773D01*
X14681Y2783D01*
X14666Y2792D01*
X14649Y2801D01*
X14630Y2810D01*
X14610Y2818D01*
X14588Y2826D01*
X14564Y2831D01*
X14538Y2837D01*
X14511Y2840D01*
X14482Y2841D01*
X14158D01*
X14470D01*
X14461Y2840D01*
X14450Y2839D01*
X14438Y2838D01*
X14423Y2837D01*
X14409Y2833D01*
X14376Y2827D01*
X14342Y2818D01*
X14325Y2811D01*
X14308Y2804D01*
X14292Y2794D01*
X14278Y2785D01*
X14276Y2784D01*
X14274Y2783D01*
X14270Y2780D01*
X14265Y2774D01*
X14258Y2769D01*
X14251Y2762D01*
X14244Y2753D01*
X14235Y2744D01*
X14227Y2732D01*
X14217Y2719D01*
X14208Y2706D01*
X14199Y2691D01*
X14190Y2674D01*
X14182Y2657D01*
X14174Y2637D01*
X14168Y2617D01*
X14351Y2584D01*
Y2585D01*
Y2586D01*
X14354Y2593D01*
X14357Y2603D01*
X14360Y2615D01*
X14366Y2627D01*
X14374Y2641D01*
X14383Y2654D01*
X14395Y2665D01*
X14396Y2667D01*
X14401Y2670D01*
X14407Y2675D01*
X14418Y2680D01*
X14430Y2684D01*
X14444Y2690D01*
X14461Y2693D01*
X14480Y2694D01*
X14487D01*
X14492Y2693D01*
X14497D01*
X14505Y2692D01*
X14521Y2688D01*
X14538Y2682D01*
X14556Y2674D01*
X14574Y2661D01*
X14583Y2654D01*
X14591Y2645D01*
Y2644D01*
X14593Y2643D01*
X14596Y2640D01*
X14598Y2636D01*
X14601Y2631D01*
X14604Y2624D01*
X14608Y2616D01*
X14611Y2607D01*
X14616Y2597D01*
X14620Y2584D01*
X14623Y2571D01*
X14626Y2557D01*
X14628Y2541D01*
X14630Y2523D01*
X14633Y2504D01*
Y2484D01*
Y2483D01*
Y2478D01*
Y2472D01*
X14631Y2464D01*
Y2453D01*
X14630Y2441D01*
X14629Y2429D01*
X14627Y2414D01*
X14622Y2385D01*
X14616Y2356D01*
X14610Y2342D01*
X14605Y2328D01*
X14599Y2317D01*
X14591Y2306D01*
Y2305D01*
X14589Y2304D01*
X14584Y2298D01*
X14574Y2290D01*
X14561Y2281D01*
X14545Y2271D01*
X14526Y2263D01*
X14503Y2257D01*
X14490Y2256D01*
X14477Y2254D01*
X14469D01*
X14458Y2257D01*
X14447Y2259D01*
X14433Y2262D01*
X14418Y2267D01*
X14404Y2275D01*
X14391Y2284D01*
X14389Y2285D01*
X14385Y2290D01*
X14379Y2298D01*
X14372Y2308D01*
X14364Y2323D01*
X14356Y2341D01*
X14348Y2363D01*
X14342Y2389D01*
X14158Y2357D01*
Y2356D01*
X14159Y2352D01*
X14161Y2345D01*
X14164Y2336D01*
X14168Y2325D01*
X14172Y2314D01*
X14177Y2300D01*
X14183Y2285D01*
X14198Y2254D01*
X14207Y2239D01*
X14217Y2223D01*
X14229Y2207D01*
X14241Y2192D01*
X14254Y2178D01*
X14269Y2166D01*
X14270Y2165D01*
X14272Y2163D01*
X14278Y2159D01*
X14284Y2156D01*
X14292Y2151D01*
X14302Y2146D01*
X14313Y2140D01*
X14326Y2134D01*
X14341Y2128D01*
X14357Y2122D01*
X14375Y2117D01*
X14395Y2112D01*
X14415Y2109D01*
X14437Y2105D01*
X14460Y2103D01*
X14486Y2102D01*
X14158D01*
X14492D01*
X14500Y2103D01*
X14511D01*
X14524Y2105D01*
X14540Y2108D01*
X14556Y2111D01*
X14574Y2115D01*
X14593Y2119D01*
X14614Y2126D01*
X14634Y2134D01*
X14655Y2144D01*
X14675Y2154D01*
X14695Y2168D01*
X14714Y2183D01*
X14732Y2200D01*
X14733Y2201D01*
X14736Y2204D01*
X14740Y2210D01*
X14747Y2217D01*
X14753Y2228D01*
X14760Y2240D01*
X14769Y2254D01*
X14777Y2270D01*
X14787Y2288D01*
X14794Y2308D01*
X14803Y2331D01*
X14809Y2355D01*
X14815Y2381D01*
X14820Y2409D01*
X14823Y2438D01*
X14824Y2470D01*
Y2102D01*
D01*
D01*
Y2841D01*
D02*
G37*
G36*
X14066D02*
D01*
Y2477D01*
X14065Y2487D01*
Y2499D01*
X14063Y2513D01*
X14061Y2530D01*
X14059Y2549D01*
X14055Y2570D01*
X14049Y2592D01*
X14044Y2614D01*
X14037Y2636D01*
X14027Y2659D01*
X14017Y2681D01*
X14005Y2704D01*
X13990Y2724D01*
X13974Y2743D01*
X13973Y2744D01*
X13970Y2747D01*
X13965Y2752D01*
X13957Y2758D01*
X13948Y2766D01*
X13937Y2773D01*
X13924Y2783D01*
X13909Y2792D01*
X13892Y2801D01*
X13873Y2810D01*
X13853Y2818D01*
X13831Y2826D01*
X13806Y2831D01*
X13781Y2837D01*
X13753Y2840D01*
X13725Y2841D01*
X13400D01*
X13712D01*
X13704Y2840D01*
X13692Y2839D01*
X13681Y2838D01*
X13666Y2837D01*
X13651Y2833D01*
X13618Y2827D01*
X13584Y2818D01*
X13567Y2811D01*
X13551Y2804D01*
X13535Y2794D01*
X13520Y2785D01*
X13519Y2784D01*
X13517Y2783D01*
X13512Y2780D01*
X13507Y2774D01*
X13501Y2769D01*
X13493Y2762D01*
X13486Y2753D01*
X13478Y2744D01*
X13469Y2732D01*
X13460Y2719D01*
X13450Y2706D01*
X13442Y2691D01*
X13432Y2674D01*
X13425Y2657D01*
X13416Y2637D01*
X13410Y2617D01*
X13594Y2584D01*
Y2585D01*
Y2586D01*
X13596Y2593D01*
X13599Y2603D01*
X13602Y2615D01*
X13609Y2627D01*
X13616Y2641D01*
X13626Y2654D01*
X13637Y2665D01*
X13638Y2667D01*
X13644Y2670D01*
X13650Y2675D01*
X13660Y2680D01*
X13672Y2684D01*
X13687Y2690D01*
X13704Y2693D01*
X13723Y2694D01*
X13729D01*
X13734Y2693D01*
X13740D01*
X13747Y2692D01*
X13763Y2688D01*
X13781Y2682D01*
X13799Y2674D01*
X13817Y2661D01*
X13825Y2654D01*
X13834Y2645D01*
Y2644D01*
X13836Y2643D01*
X13838Y2640D01*
X13840Y2636D01*
X13843Y2631D01*
X13846Y2624D01*
X13851Y2616D01*
X13854Y2607D01*
X13858Y2597D01*
X13862Y2584D01*
X13865Y2571D01*
X13869Y2557D01*
X13871Y2541D01*
X13873Y2523D01*
X13875Y2504D01*
Y2484D01*
Y2483D01*
Y2478D01*
Y2472D01*
X13874Y2464D01*
Y2453D01*
X13873Y2441D01*
X13872Y2429D01*
X13870Y2414D01*
X13864Y2385D01*
X13858Y2356D01*
X13853Y2342D01*
X13847Y2328D01*
X13841Y2317D01*
X13834Y2306D01*
Y2305D01*
X13832Y2304D01*
X13826Y2298D01*
X13817Y2290D01*
X13803Y2281D01*
X13787Y2271D01*
X13768Y2263D01*
X13745Y2257D01*
X13732Y2256D01*
X13720Y2254D01*
X13711D01*
X13701Y2257D01*
X13689Y2259D01*
X13675Y2262D01*
X13660Y2267D01*
X13647Y2275D01*
X13633Y2284D01*
X13632Y2285D01*
X13628Y2290D01*
X13621Y2298D01*
X13614Y2308D01*
X13607Y2323D01*
X13598Y2341D01*
X13591Y2363D01*
X13584Y2389D01*
X13400Y2357D01*
Y2356D01*
X13402Y2352D01*
X13404Y2345D01*
X13407Y2336D01*
X13410Y2325D01*
X13414Y2314D01*
X13420Y2300D01*
X13426Y2285D01*
X13441Y2254D01*
X13449Y2239D01*
X13460Y2223D01*
X13471Y2207D01*
X13483Y2192D01*
X13497Y2178D01*
X13511Y2166D01*
X13512Y2165D01*
X13515Y2163D01*
X13520Y2159D01*
X13526Y2156D01*
X13535Y2151D01*
X13544Y2146D01*
X13556Y2140D01*
X13568Y2134D01*
X13583Y2128D01*
X13599Y2122D01*
X13617Y2117D01*
X13637Y2112D01*
X13657Y2109D01*
X13679Y2105D01*
X13703Y2103D01*
X13728Y2102D01*
X13400D01*
X13734D01*
X13743Y2103D01*
X13753D01*
X13766Y2105D01*
X13782Y2108D01*
X13799Y2111D01*
X13817Y2115D01*
X13836Y2119D01*
X13856Y2126D01*
X13876Y2134D01*
X13897Y2144D01*
X13917Y2154D01*
X13937Y2168D01*
X13956Y2183D01*
X13974Y2200D01*
X13975Y2201D01*
X13978Y2204D01*
X13983Y2210D01*
X13989Y2217D01*
X13995Y2228D01*
X14003Y2240D01*
X14011Y2254D01*
X14020Y2270D01*
X14029Y2288D01*
X14037Y2308D01*
X14045Y2331D01*
X14051Y2355D01*
X14058Y2381D01*
X14062Y2409D01*
X14065Y2438D01*
X14066Y2470D01*
Y2102D01*
D01*
D01*
Y2841D01*
D02*
G37*
G36*
X4706Y3087D02*
X4161D01*
X4516D01*
X4115Y2431D01*
Y3087D01*
X3933D01*
Y2111D01*
X4129D01*
X4525Y2752D01*
Y2111D01*
X4706D01*
Y3087D01*
D02*
G37*
G36*
X15790Y3093D02*
X15577D01*
X15330Y2372D01*
X15091Y3093D01*
X15261D01*
X14882D01*
D01*
X15231Y2118D01*
X15442D01*
X15790Y3093D01*
D02*
G37*
G36*
X5802Y3102D02*
X4890D01*
X5300D01*
X5289Y3101D01*
X5273Y3100D01*
X5255Y3098D01*
X5236Y3096D01*
X5215Y3093D01*
X5192Y3089D01*
X5169Y3083D01*
X5146Y3078D01*
X5122Y3071D01*
X5098Y3061D01*
X5076Y3052D01*
X5055Y3040D01*
X5035Y3026D01*
X5034Y3025D01*
X5031Y3023D01*
X5025Y3019D01*
X5018Y3013D01*
X5011Y3004D01*
X5001Y2996D01*
X4991Y2984D01*
X4980Y2971D01*
X4968Y2958D01*
X4958Y2942D01*
X4946Y2924D01*
X4936Y2906D01*
X4926Y2886D01*
X4917Y2864D01*
X4909Y2840D01*
X4903Y2816D01*
X5098Y2779D01*
Y2780D01*
X5099Y2782D01*
X5100Y2786D01*
X5103Y2791D01*
X5105Y2797D01*
X5108Y2804D01*
X5116Y2820D01*
X5127Y2838D01*
X5141Y2857D01*
X5156Y2875D01*
X5177Y2892D01*
X5178D01*
X5179Y2894D01*
X5182Y2896D01*
X5187Y2898D01*
X5192Y2902D01*
X5199Y2906D01*
X5207Y2909D01*
X5216Y2913D01*
X5236Y2921D01*
X5260Y2928D01*
X5287Y2932D01*
X5318Y2934D01*
X5331D01*
X5339Y2933D01*
X5350Y2932D01*
X5362Y2930D01*
X5377Y2927D01*
X5392Y2924D01*
X5408Y2920D01*
X5425Y2914D01*
X5442Y2908D01*
X5459Y2900D01*
X5476Y2890D01*
X5492Y2879D01*
X5508Y2867D01*
X5523Y2852D01*
X5524Y2851D01*
X5526Y2848D01*
X5530Y2844D01*
X5535Y2836D01*
X5541Y2828D01*
X5547Y2817D01*
X5554Y2805D01*
X5561Y2791D01*
X5569Y2775D01*
X5575Y2757D01*
X5581Y2737D01*
X5588Y2715D01*
X5592Y2691D01*
X5596Y2666D01*
X5598Y2639D01*
X5599Y2609D01*
Y2607D01*
Y2602D01*
X5598Y2592D01*
Y2580D01*
X5597Y2566D01*
X5595Y2550D01*
X5593Y2531D01*
X5590Y2511D01*
X5585Y2491D01*
X5580Y2468D01*
X5574Y2447D01*
X5566Y2425D01*
X5558Y2404D01*
X5547Y2384D01*
X5536Y2365D01*
X5522Y2348D01*
X5521Y2347D01*
X5519Y2345D01*
X5514Y2340D01*
X5508Y2334D01*
X5500Y2328D01*
X5491Y2320D01*
X5480Y2313D01*
X5468Y2305D01*
X5454Y2296D01*
X5439Y2289D01*
X5423Y2281D01*
X5405Y2275D01*
X5385Y2270D01*
X5365Y2266D01*
X5343Y2262D01*
X5320Y2261D01*
X5310D01*
X5304Y2262D01*
X5297D01*
X5281Y2264D01*
X5262Y2268D01*
X5242Y2272D01*
X5220Y2277D01*
X5197Y2286D01*
X5196D01*
X5193Y2287D01*
X5190Y2288D01*
X5186Y2290D01*
X5174Y2295D01*
X5160Y2303D01*
X5143Y2311D01*
X5125Y2320D01*
X5107Y2331D01*
X5089Y2344D01*
Y2468D01*
X5314D01*
Y2633D01*
X4890D01*
Y2243D01*
X4891Y2242D01*
X4893Y2241D01*
X4897Y2238D01*
X4902Y2234D01*
X4908Y2229D01*
X4916Y2222D01*
X4925Y2216D01*
X4936Y2208D01*
X4948Y2200D01*
X4961Y2192D01*
X4976Y2183D01*
X4993Y2175D01*
X5010Y2165D01*
X5029Y2157D01*
X5049Y2147D01*
X5070Y2139D01*
X5071D01*
X5075Y2137D01*
X5081Y2135D01*
X5090Y2131D01*
X5100Y2128D01*
X5113Y2124D01*
X5128Y2121D01*
X5144Y2117D01*
X5161Y2112D01*
X5180Y2108D01*
X5199Y2104D01*
X5220Y2101D01*
X5263Y2095D01*
X5285Y2094D01*
X5308Y2093D01*
X5322D01*
X5333Y2094D01*
X5347Y2095D01*
X5362Y2096D01*
X5379Y2099D01*
X5398Y2102D01*
X5418Y2105D01*
X5440Y2109D01*
X5462Y2114D01*
X5485Y2120D01*
X5508Y2127D01*
X5530Y2136D01*
X5553Y2145D01*
X5575Y2157D01*
X5576Y2158D01*
X5580Y2160D01*
X5585Y2163D01*
X5594Y2168D01*
X5602Y2176D01*
X5614Y2183D01*
X5626Y2193D01*
X5638Y2204D01*
X5652Y2216D01*
X5666Y2230D01*
X5681Y2245D01*
X5694Y2261D01*
X5708Y2279D01*
X5722Y2298D01*
X5733Y2318D01*
X5745Y2341D01*
X5746Y2342D01*
X5747Y2346D01*
X5750Y2352D01*
X5753Y2362D01*
X5758Y2372D01*
X5763Y2386D01*
X5768Y2401D01*
X5774Y2418D01*
X5779Y2437D01*
X5784Y2457D01*
X5788Y2478D01*
X5794Y2500D01*
X5797Y2524D01*
X5800Y2549D01*
X5801Y2574D01*
X5802Y2601D01*
Y2615D01*
X5801Y2626D01*
X5800Y2640D01*
X5799Y2655D01*
X5797Y2672D01*
X5794Y2691D01*
X5790Y2711D01*
X5786Y2734D01*
X5781Y2756D01*
X5776Y2779D01*
X5768Y2802D01*
X5760Y2826D01*
X5750Y2849D01*
X5739Y2871D01*
X5738Y2872D01*
X5735Y2876D01*
X5732Y2883D01*
X5727Y2891D01*
X5720Y2901D01*
X5712Y2912D01*
X5703Y2925D01*
X5691Y2939D01*
X5679Y2953D01*
X5665Y2968D01*
X5650Y2983D01*
X5633Y2999D01*
X5615Y3014D01*
X5595Y3027D01*
X5574Y3041D01*
X5552Y3054D01*
X5551Y3055D01*
X5547Y3056D01*
X5542Y3058D01*
X5535Y3061D01*
X5525Y3065D01*
X5515Y3070D01*
X5502Y3074D01*
X5487Y3078D01*
X5471Y3082D01*
X5453Y3087D01*
X5434Y3091D01*
X5413Y3095D01*
X5391Y3098D01*
X5368Y3100D01*
X5343Y3102D01*
X5802D01*
D01*
D02*
G37*
G36*
X15790Y3093D02*
D01*
Y2118D01*
D01*
D01*
Y3093D01*
D02*
G37*
G36*
X3725Y3087D02*
X2908D01*
X3345D01*
X3335Y3086D01*
X3310D01*
X3297Y3084D01*
X3267Y3082D01*
X3237Y3078D01*
X3207Y3074D01*
X3193Y3071D01*
X3181Y3068D01*
X3179D01*
X3176Y3066D01*
X3172Y3064D01*
X3166Y3062D01*
X3158Y3060D01*
X3150Y3056D01*
X3130Y3046D01*
X3107Y3035D01*
X3082Y3019D01*
X3058Y3000D01*
X3034Y2978D01*
X3033Y2977D01*
X3030Y2975D01*
X3027Y2971D01*
X3023Y2966D01*
X3019Y2960D01*
X3013Y2952D01*
X3006Y2944D01*
X2999Y2933D01*
X2991Y2923D01*
X2984Y2911D01*
X2968Y2884D01*
X2953Y2853D01*
X2941Y2819D01*
Y2818D01*
X2940Y2815D01*
X2938Y2810D01*
X2935Y2802D01*
X2933Y2794D01*
X2930Y2782D01*
X2927Y2770D01*
X2924Y2756D01*
X2922Y2740D01*
X2918Y2722D01*
X2915Y2703D01*
X2913Y2683D01*
X2911Y2661D01*
X2909Y2639D01*
X2908Y2614D01*
Y2569D01*
X2909Y2558D01*
Y2547D01*
X2910Y2533D01*
X2912Y2518D01*
X2915Y2485D01*
X2921Y2450D01*
X2928Y2416D01*
X2939Y2382D01*
Y2381D01*
X2941Y2378D01*
X2943Y2371D01*
X2945Y2364D01*
X2949Y2355D01*
X2953Y2345D01*
X2959Y2333D01*
X2965Y2320D01*
X2980Y2293D01*
X2998Y2264D01*
X3019Y2236D01*
X3043Y2210D01*
X3044Y2208D01*
X3045Y2207D01*
X3048Y2204D01*
X3053Y2201D01*
X3058Y2197D01*
X3063Y2192D01*
X3071Y2186D01*
X3079Y2181D01*
X3099Y2168D01*
X3122Y2156D01*
X3150Y2143D01*
X3181Y2131D01*
X3182D01*
X3184Y2130D01*
X3187Y2129D01*
X3192Y2128D01*
X3198Y2127D01*
X3207Y2125D01*
X3216Y2123D01*
X3227Y2122D01*
X3239Y2120D01*
X3251Y2118D01*
X3266Y2115D01*
X3282Y2114D01*
X3298Y2113D01*
X3316Y2112D01*
X3335Y2111D01*
X3725D01*
Y3087D01*
D02*
G37*
%LPD*%
G36*
X47607Y2940D02*
X47616Y2938D01*
X47625Y2935D01*
X47636Y2931D01*
X47645Y2926D01*
X47656Y2919D01*
X47657Y2917D01*
X47660Y2914D01*
X47665Y2909D01*
X47671Y2901D01*
X47677Y2890D01*
X47684Y2877D01*
X47691Y2860D01*
X47697Y2841D01*
Y2840D01*
X47698Y2838D01*
X47699Y2834D01*
X47700Y2828D01*
X47701Y2819D01*
X47703Y2810D01*
X47704Y2797D01*
X47706Y2783D01*
X47709Y2767D01*
X47710Y2749D01*
X47712Y2729D01*
X47713Y2707D01*
X47714Y2684D01*
X47715Y2657D01*
X47716Y2628D01*
Y2597D01*
Y2595D01*
Y2590D01*
Y2581D01*
Y2570D01*
X47715Y2555D01*
Y2539D01*
Y2522D01*
X47714Y2503D01*
X47712Y2464D01*
X47709Y2425D01*
X47706Y2406D01*
X47704Y2389D01*
X47702Y2374D01*
X47699Y2361D01*
Y2360D01*
X47698Y2357D01*
X47697Y2354D01*
X47696Y2350D01*
X47693Y2340D01*
X47687Y2327D01*
X47681Y2312D01*
X47674Y2298D01*
X47665Y2286D01*
X47656Y2276D01*
X47655Y2275D01*
X47651Y2273D01*
X47645Y2270D01*
X47638Y2266D01*
X47629Y2261D01*
X47619Y2258D01*
X47608Y2256D01*
X47595Y2255D01*
X47590D01*
X47584Y2256D01*
X47575Y2258D01*
X47566Y2260D01*
X47555Y2263D01*
X47546Y2269D01*
X47535Y2276D01*
X47534Y2277D01*
X47531Y2280D01*
X47526Y2286D01*
X47520Y2294D01*
X47513Y2305D01*
X47507Y2317D01*
X47500Y2334D01*
X47494Y2353D01*
Y2354D01*
X47493Y2356D01*
X47492Y2361D01*
X47491Y2367D01*
X47490Y2375D01*
X47488Y2385D01*
X47486Y2397D01*
X47483Y2410D01*
X47482Y2426D01*
X47480Y2444D01*
X47478Y2464D01*
X47477Y2486D01*
X47476Y2511D01*
X47475Y2537D01*
X47474Y2567D01*
Y2597D01*
Y2599D01*
Y2605D01*
Y2613D01*
Y2625D01*
Y2639D01*
X47475Y2655D01*
Y2672D01*
X47476Y2691D01*
X47478Y2730D01*
X47481Y2769D01*
X47483Y2788D01*
X47486Y2804D01*
X47489Y2819D01*
X47492Y2833D01*
Y2834D01*
X47493Y2836D01*
X47494Y2839D01*
X47495Y2844D01*
X47498Y2854D01*
X47504Y2868D01*
X47510Y2883D01*
X47517Y2896D01*
X47526Y2909D01*
X47535Y2919D01*
X47536Y2920D01*
X47539Y2922D01*
X47546Y2926D01*
X47552Y2930D01*
X47562Y2933D01*
X47572Y2938D01*
X47583Y2940D01*
X47595Y2941D01*
X47601D01*
X47607Y2940D01*
D02*
G37*
G36*
X3528Y2276D02*
X3353D01*
X3336Y2277D01*
X3316Y2278D01*
X3296Y2279D01*
X3278Y2281D01*
X3269Y2284D01*
X3262Y2285D01*
X3261D01*
X3260Y2286D01*
X3253Y2287D01*
X3245Y2290D01*
X3234Y2294D01*
X3222Y2300D01*
X3208Y2308D01*
X3195Y2316D01*
X3183Y2326D01*
X3182Y2327D01*
X3177Y2331D01*
X3171Y2338D01*
X3165Y2348D01*
X3156Y2362D01*
X3148Y2378D01*
X3139Y2397D01*
X3131Y2420D01*
Y2421D01*
X3130Y2423D01*
X3129Y2426D01*
X3128Y2431D01*
X3127Y2439D01*
X3125Y2446D01*
X3122Y2456D01*
X3120Y2466D01*
X3119Y2479D01*
X3117Y2493D01*
X3115Y2506D01*
X3114Y2522D01*
X3113Y2540D01*
X3112Y2558D01*
X3111Y2578D01*
Y2598D01*
Y2599D01*
Y2604D01*
Y2609D01*
Y2617D01*
X3112Y2627D01*
Y2637D01*
X3113Y2649D01*
Y2663D01*
X3116Y2690D01*
X3119Y2719D01*
X3125Y2747D01*
X3128Y2760D01*
X3131Y2772D01*
Y2773D01*
X3132Y2775D01*
X3133Y2778D01*
X3134Y2781D01*
X3139Y2793D01*
X3146Y2807D01*
X3153Y2821D01*
X3163Y2837D01*
X3174Y2852D01*
X3187Y2866D01*
X3189Y2867D01*
X3193Y2871D01*
X3202Y2877D01*
X3212Y2885D01*
X3225Y2892D01*
X3241Y2900D01*
X3259Y2907D01*
X3279Y2912D01*
X3281D01*
X3283Y2913D01*
X3287D01*
X3291Y2914D01*
X3298Y2915D01*
X3305Y2916D01*
X3315Y2917D01*
X3324D01*
X3336Y2919D01*
X3350Y2920D01*
X3364Y2921D01*
X3381D01*
X3399Y2922D01*
X3528D01*
Y2276D01*
D02*
G37*
D19*
X17745Y2450D02*
D03*
X11395D02*
D03*
X1235D02*
D03*
X10125D02*
D03*
X7585D02*
D03*
X8855D02*
D03*
X19015D02*
D03*
X21555D02*
D03*
X22825D02*
D03*
X20285D02*
D03*
X30445D02*
D03*
X29175D02*
D03*
X32985D02*
D03*
X34255D02*
D03*
X31715D02*
D03*
X41875D02*
D03*
X43145D02*
D03*
X40605D02*
D03*
X50765D02*
D03*
X44415D02*
D03*
D54*
X47340Y42368D02*
D03*
X42260D02*
D03*
D59*
X14595Y6950D02*
D03*
X4355D02*
D03*
X26005D02*
D03*
X47595D02*
D03*
X37385D02*
D03*
D60*
X13195Y13000D02*
D03*
X15735D02*
D03*
X18275D02*
D03*
X20815D02*
D03*
X23355D02*
D03*
X25895D02*
D03*
X28435D02*
D03*
X30975D02*
D03*
X33515D02*
D03*
X36055D02*
D03*
X38595D02*
D03*
D61*
X50175Y14025D02*
D03*
Y12025D02*
D03*
Y16025D02*
D03*
Y18025D02*
D03*
D62*
X32990Y37920D02*
D03*
X27210D02*
D03*
D63*
X25780Y41600D02*
D03*
X34420D02*
D03*
D64*
X25780Y37420D02*
D03*
X34420D02*
D03*
D65*
X50175Y20025D02*
D03*
D85*
X8250Y24525D02*
D03*
X3750D02*
D03*
X8250Y32475D02*
D03*
X3750D02*
D03*
X43500D02*
D03*
X48000D02*
D03*
X43500Y24525D02*
D03*
X48000D02*
D03*
M02*
