G04*
G04 #@! TF.GenerationSoftware,Altium Limited,Altium Designer,24.2.2 (26)*
G04*
G04 Layer_Color=32896*
%FSLAX43Y43*%
%MOMM*%
G71*
G04*
G04 #@! TF.SameCoordinates,FF286A8D-2D74-404F-B011-C83B2EBF38CC*
G04*
G04*
G04 #@! TF.FilePolarity,Positive*
G04*
G01*
G75*
%ADD11C,0.200*%
%ADD13C,0.254*%
%ADD14C,0.150*%
%ADD69C,0.500*%
G36*
X33234Y51331D02*
X33226D01*
Y51347D01*
X33234D01*
Y51331D01*
D02*
G37*
G36*
X33226Y51306D02*
Y51297D01*
X33217D01*
Y51322D01*
X33226D01*
Y51306D01*
D02*
G37*
G36*
X24569Y43615D02*
X22439D01*
Y42337D01*
X21218D01*
Y43615D01*
X18974D01*
Y42763D01*
X17781D01*
Y43615D01*
X13919D01*
Y43956D01*
X18122D01*
Y43104D01*
X18633D01*
Y43956D01*
X21558D01*
Y42678D01*
X22070D01*
Y43956D01*
X24569D01*
Y43615D01*
D02*
G37*
G36*
X24228Y39668D02*
X21132D01*
Y41599D01*
Y41627D01*
Y41883D01*
X22496D01*
Y40179D01*
X22865D01*
Y43189D01*
X24228D01*
Y39668D01*
D02*
G37*
G36*
X17327Y39696D02*
X17298D01*
Y39668D01*
X14260D01*
Y41031D01*
X15623D01*
Y40179D01*
X15992D01*
Y42678D01*
X15623D01*
Y41826D01*
X14260D01*
Y43189D01*
X17327D01*
Y39696D01*
D02*
G37*
G36*
X20792Y39668D02*
X19428D01*
Y41372D01*
X19400D01*
Y41400D01*
X19059D01*
Y39242D01*
X17696D01*
Y42309D01*
X19428D01*
Y43189D01*
X20792D01*
Y39668D01*
D02*
G37*
G36*
X24995Y39327D02*
X24654D01*
Y43132D01*
Y43161D01*
Y43530D01*
X24995D01*
Y39327D01*
D02*
G37*
G36*
X13834Y42337D02*
Y42309D01*
Y39327D01*
X13464D01*
Y43530D01*
X13834D01*
Y42337D01*
D02*
G37*
G36*
X24569Y38872D02*
X19514D01*
Y39242D01*
X24569D01*
Y38872D01*
D02*
G37*
G36*
X17242Y39213D02*
X17270D01*
Y38901D01*
X17242D01*
Y38872D01*
X13919D01*
Y39242D01*
X17242D01*
Y39213D01*
D02*
G37*
G36*
X19400Y38759D02*
Y38730D01*
Y38446D01*
X17355D01*
Y38787D01*
X19400D01*
Y38759D01*
D02*
G37*
G36*
X38940Y16329D02*
X38439D01*
X38940Y15994D01*
Y15908D01*
X38302D01*
Y15988D01*
X38803D01*
X38302Y16323D01*
Y16410D01*
X38940D01*
Y16329D01*
D02*
G37*
G36*
Y15674D02*
X38302D01*
Y15759D01*
X38940D01*
Y15674D01*
D02*
G37*
G36*
Y15498D02*
X38476Y15325D01*
X38457Y15318D01*
X38438Y15312D01*
X38420Y15306D01*
X38412Y15303D01*
X38404Y15301D01*
X38397Y15298D01*
X38391Y15296D01*
X38386Y15295D01*
X38381Y15293D01*
X38377Y15292D01*
X38374Y15291D01*
X38372Y15291D01*
X38372D01*
X38390Y15286D01*
X38409Y15280D01*
X38427Y15274D01*
X38434Y15271D01*
X38443Y15269D01*
X38450Y15266D01*
X38456Y15264D01*
X38462Y15262D01*
X38467Y15260D01*
X38471Y15259D01*
X38474Y15258D01*
X38476Y15257D01*
X38476D01*
X38940Y15091D01*
Y14999D01*
X38302Y15247D01*
Y15334D01*
X38940Y15584D01*
Y15498D01*
D02*
G37*
G36*
X18206Y16347D02*
X18191Y16343D01*
X18177Y16339D01*
X18165Y16334D01*
X18153Y16329D01*
X18142Y16324D01*
X18132Y16318D01*
X18123Y16313D01*
X18115Y16307D01*
X18108Y16302D01*
X18102Y16297D01*
X18097Y16292D01*
X18092Y16288D01*
X18089Y16285D01*
X18086Y16282D01*
X18085Y16281D01*
X18084Y16280D01*
X18077Y16271D01*
X18071Y16261D01*
X18066Y16251D01*
X18061Y16241D01*
X18057Y16230D01*
X18054Y16220D01*
X18051Y16211D01*
X18049Y16202D01*
X18047Y16193D01*
X18046Y16185D01*
X18045Y16178D01*
X18045Y16172D01*
Y16167D01*
X18044Y16163D01*
Y16160D01*
X18045Y16150D01*
X18045Y16138D01*
X18048Y16119D01*
X18051Y16109D01*
X18053Y16100D01*
X18056Y16092D01*
X18059Y16084D01*
X18062Y16077D01*
X18065Y16070D01*
X18067Y16065D01*
X18069Y16060D01*
X18071Y16056D01*
X18073Y16054D01*
X18073Y16052D01*
X18074Y16052D01*
X18080Y16043D01*
X18087Y16034D01*
X18093Y16026D01*
X18100Y16019D01*
X18108Y16012D01*
X18115Y16006D01*
X18123Y16001D01*
X18130Y15996D01*
X18137Y15992D01*
X18144Y15988D01*
X18149Y15985D01*
X18154Y15982D01*
X18159Y15981D01*
X18161Y15979D01*
X18164Y15978D01*
X18164Y15978D01*
X18188Y15970D01*
X18212Y15965D01*
X18236Y15960D01*
X18247Y15959D01*
X18258Y15957D01*
X18268Y15957D01*
X18278Y15956D01*
X18286Y15955D01*
X18293D01*
X18299Y15955D01*
X18303D01*
X18305D01*
X18306D01*
X18330Y15956D01*
X18352Y15958D01*
X18363Y15959D01*
X18373Y15961D01*
X18382Y15963D01*
X18391Y15965D01*
X18399Y15966D01*
X18407Y15968D01*
X18413Y15970D01*
X18419Y15971D01*
X18423Y15973D01*
X18426Y15973D01*
X18428Y15975D01*
X18429D01*
X18440Y15978D01*
X18450Y15983D01*
X18460Y15988D01*
X18469Y15994D01*
X18477Y15999D01*
X18485Y16005D01*
X18492Y16011D01*
X18499Y16017D01*
X18504Y16022D01*
X18509Y16027D01*
X18514Y16032D01*
X18517Y16036D01*
X18520Y16039D01*
X18522Y16042D01*
X18523Y16043D01*
X18524Y16044D01*
X18530Y16053D01*
X18535Y16063D01*
X18540Y16074D01*
X18544Y16084D01*
X18547Y16094D01*
X18550Y16104D01*
X18553Y16114D01*
X18555Y16124D01*
X18556Y16132D01*
X18557Y16141D01*
X18558Y16148D01*
X18558Y16154D01*
X18559Y16159D01*
Y16167D01*
X18558Y16178D01*
X18558Y16190D01*
X18556Y16200D01*
X18554Y16210D01*
X18552Y16220D01*
X18549Y16229D01*
X18546Y16236D01*
X18543Y16244D01*
X18540Y16250D01*
X18537Y16256D01*
X18534Y16261D01*
X18532Y16265D01*
X18530Y16269D01*
X18529Y16271D01*
X18527Y16272D01*
X18527Y16273D01*
X18521Y16281D01*
X18514Y16288D01*
X18506Y16295D01*
X18498Y16301D01*
X18481Y16312D01*
X18464Y16321D01*
X18457Y16325D01*
X18449Y16328D01*
X18443Y16331D01*
X18437Y16333D01*
X18432Y16336D01*
X18429Y16337D01*
X18426Y16338D01*
X18426D01*
X18445Y16421D01*
X18461Y16415D01*
X18476Y16409D01*
X18490Y16403D01*
X18504Y16395D01*
X18516Y16388D01*
X18527Y16380D01*
X18537Y16373D01*
X18547Y16365D01*
X18555Y16358D01*
X18562Y16352D01*
X18568Y16346D01*
X18573Y16340D01*
X18577Y16336D01*
X18580Y16332D01*
X18582Y16330D01*
X18582Y16329D01*
X18591Y16317D01*
X18598Y16304D01*
X18605Y16290D01*
X18610Y16277D01*
X18615Y16263D01*
X18619Y16250D01*
X18623Y16237D01*
X18625Y16224D01*
X18628Y16213D01*
X18629Y16202D01*
X18630Y16193D01*
X18631Y16184D01*
Y16178D01*
X18632Y16173D01*
Y16168D01*
X18631Y16153D01*
X18630Y16137D01*
X18628Y16123D01*
X18625Y16109D01*
X18623Y16095D01*
X18619Y16083D01*
X18616Y16070D01*
X18612Y16060D01*
X18609Y16049D01*
X18605Y16040D01*
X18602Y16033D01*
X18599Y16026D01*
X18596Y16021D01*
X18594Y16017D01*
X18593Y16014D01*
X18593Y16014D01*
X18585Y16001D01*
X18577Y15989D01*
X18568Y15978D01*
X18559Y15967D01*
X18550Y15957D01*
X18540Y15949D01*
X18531Y15941D01*
X18522Y15933D01*
X18513Y15927D01*
X18505Y15921D01*
X18498Y15916D01*
X18492Y15913D01*
X18487Y15909D01*
X18483Y15907D01*
X18481Y15906D01*
X18480Y15905D01*
X18465Y15899D01*
X18451Y15893D01*
X18436Y15888D01*
X18421Y15884D01*
X18407Y15880D01*
X18392Y15877D01*
X18378Y15874D01*
X18365Y15873D01*
X18352Y15871D01*
X18341Y15870D01*
X18331Y15869D01*
X18323Y15868D01*
X18316Y15868D01*
X18310D01*
X18307D01*
X18306D01*
X18306D01*
X18289Y15868D01*
X18272Y15869D01*
X18256Y15871D01*
X18241Y15873D01*
X18226Y15875D01*
X18212Y15878D01*
X18198Y15881D01*
X18186Y15884D01*
X18175Y15888D01*
X18165Y15890D01*
X18156Y15893D01*
X18149Y15896D01*
X18143Y15898D01*
X18139Y15899D01*
X18136Y15900D01*
X18135Y15901D01*
X18120Y15908D01*
X18107Y15915D01*
X18094Y15922D01*
X18082Y15931D01*
X18071Y15939D01*
X18061Y15947D01*
X18052Y15955D01*
X18044Y15963D01*
X18037Y15970D01*
X18031Y15977D01*
X18025Y15983D01*
X18021Y15989D01*
X18017Y15993D01*
X18015Y15997D01*
X18014Y15999D01*
X18013Y15999D01*
X18006Y16012D01*
X17999Y16025D01*
X17994Y16039D01*
X17989Y16053D01*
X17985Y16067D01*
X17981Y16081D01*
X17979Y16095D01*
X17976Y16107D01*
X17975Y16120D01*
X17974Y16131D01*
X17973Y16141D01*
X17972Y16150D01*
Y16157D01*
X17971Y16163D01*
Y16167D01*
X17972Y16186D01*
X17974Y16203D01*
X17976Y16220D01*
X17980Y16236D01*
X17984Y16251D01*
X17989Y16265D01*
X17994Y16277D01*
X17999Y16289D01*
X18004Y16300D01*
X18009Y16309D01*
X18013Y16317D01*
X18017Y16324D01*
X18021Y16329D01*
X18024Y16333D01*
X18025Y16336D01*
X18026Y16336D01*
X18037Y16349D01*
X18048Y16360D01*
X18061Y16370D01*
X18074Y16380D01*
X18087Y16389D01*
X18100Y16397D01*
X18113Y16404D01*
X18126Y16410D01*
X18138Y16415D01*
X18149Y16420D01*
X18159Y16424D01*
X18167Y16427D01*
X18175Y16429D01*
X18180Y16431D01*
X18182Y16431D01*
X18184D01*
X18184Y16432D01*
X18185D01*
X18206Y16347D01*
D02*
G37*
G36*
X18632Y15760D02*
X17971Y15575D01*
Y15638D01*
X18632Y15823D01*
Y15760D01*
D02*
G37*
G36*
X18335Y15527D02*
X18350Y15525D01*
X18364Y15524D01*
X18377Y15522D01*
X18390Y15519D01*
X18401Y15517D01*
X18412Y15515D01*
X18422Y15513D01*
X18431Y15511D01*
X18438Y15508D01*
X18444Y15506D01*
X18449Y15504D01*
X18453Y15503D01*
X18455Y15503D01*
X18456Y15502D01*
X18468Y15497D01*
X18480Y15492D01*
X18491Y15486D01*
X18501Y15480D01*
X18511Y15474D01*
X18520Y15467D01*
X18528Y15461D01*
X18536Y15455D01*
X18542Y15450D01*
X18548Y15444D01*
X18553Y15440D01*
X18557Y15435D01*
X18561Y15432D01*
X18563Y15429D01*
X18565Y15427D01*
X18565Y15427D01*
X18577Y15412D01*
X18586Y15396D01*
X18594Y15380D01*
X18601Y15365D01*
X18603Y15359D01*
X18605Y15353D01*
X18607Y15347D01*
X18609Y15343D01*
X18610Y15339D01*
X18610Y15336D01*
X18611Y15334D01*
Y15333D01*
X18613Y15326D01*
X18614Y15317D01*
X18617Y15299D01*
X18618Y15280D01*
X18619Y15262D01*
X18620Y15253D01*
Y15245D01*
X18620Y15238D01*
Y15000D01*
X17982D01*
Y15230D01*
X17983Y15251D01*
X17984Y15270D01*
X17984Y15279D01*
X17985Y15288D01*
X17986Y15296D01*
X17988Y15303D01*
X17988Y15310D01*
X17989Y15315D01*
X17990Y15320D01*
X17991Y15324D01*
X17991Y15328D01*
X17992Y15330D01*
X17993Y15332D01*
Y15332D01*
X17997Y15348D01*
X18002Y15363D01*
X18007Y15376D01*
X18013Y15387D01*
X18015Y15392D01*
X18017Y15396D01*
X18020Y15400D01*
X18021Y15403D01*
X18022Y15405D01*
X18024Y15407D01*
X18025Y15408D01*
Y15409D01*
X18033Y15420D01*
X18042Y15431D01*
X18052Y15441D01*
X18061Y15450D01*
X18069Y15457D01*
X18076Y15462D01*
X18079Y15464D01*
X18081Y15466D01*
X18082Y15466D01*
X18082Y15467D01*
X18097Y15476D01*
X18113Y15485D01*
X18128Y15492D01*
X18143Y15499D01*
X18149Y15501D01*
X18156Y15504D01*
X18161Y15506D01*
X18166Y15507D01*
X18170Y15509D01*
X18173Y15510D01*
X18175Y15511D01*
X18175D01*
X18197Y15516D01*
X18219Y15520D01*
X18241Y15523D01*
X18251Y15525D01*
X18261Y15525D01*
X18270Y15526D01*
X18278Y15527D01*
X18286Y15527D01*
X18292Y15528D01*
X18297D01*
X18301D01*
X18304D01*
X18304D01*
X18320D01*
X18335Y15527D01*
D02*
G37*
G36*
X33575Y16885D02*
X33590Y16884D01*
X33604Y16883D01*
X33617Y16880D01*
X33630Y16878D01*
X33641Y16876D01*
X33652Y16874D01*
X33662Y16872D01*
X33671Y16869D01*
X33678Y16867D01*
X33684Y16865D01*
X33689Y16863D01*
X33693Y16862D01*
X33695Y16862D01*
X33696Y16861D01*
X33708Y16856D01*
X33720Y16851D01*
X33731Y16845D01*
X33741Y16839D01*
X33751Y16833D01*
X33760Y16826D01*
X33768Y16820D01*
X33776Y16814D01*
X33782Y16808D01*
X33788Y16803D01*
X33793Y16798D01*
X33797Y16794D01*
X33801Y16791D01*
X33803Y16788D01*
X33805Y16786D01*
X33805Y16786D01*
X33817Y16771D01*
X33826Y16755D01*
X33834Y16739D01*
X33840Y16724D01*
X33843Y16718D01*
X33845Y16712D01*
X33847Y16706D01*
X33849Y16702D01*
X33850Y16698D01*
X33850Y16694D01*
X33851Y16693D01*
Y16692D01*
X33853Y16684D01*
X33854Y16676D01*
X33857Y16658D01*
X33858Y16639D01*
X33859Y16621D01*
X33860Y16612D01*
Y16604D01*
X33860Y16597D01*
Y16359D01*
X33222D01*
Y16589D01*
X33223Y16610D01*
X33224Y16629D01*
X33224Y16638D01*
X33225Y16647D01*
X33226Y16655D01*
X33228Y16662D01*
X33228Y16668D01*
X33229Y16674D01*
X33230Y16679D01*
X33231Y16683D01*
X33231Y16687D01*
X33232Y16689D01*
X33233Y16691D01*
Y16691D01*
X33237Y16707D01*
X33242Y16722D01*
X33247Y16735D01*
X33253Y16746D01*
X33255Y16751D01*
X33257Y16755D01*
X33260Y16759D01*
X33261Y16762D01*
X33262Y16764D01*
X33264Y16766D01*
X33265Y16767D01*
Y16767D01*
X33273Y16779D01*
X33282Y16790D01*
X33292Y16800D01*
X33301Y16808D01*
X33309Y16816D01*
X33316Y16821D01*
X33319Y16823D01*
X33321Y16825D01*
X33322Y16825D01*
X33322Y16826D01*
X33337Y16835D01*
X33353Y16844D01*
X33368Y16851D01*
X33383Y16858D01*
X33389Y16860D01*
X33396Y16863D01*
X33401Y16864D01*
X33406Y16866D01*
X33410Y16868D01*
X33413Y16869D01*
X33415Y16869D01*
X33415D01*
X33437Y16875D01*
X33459Y16879D01*
X33481Y16882D01*
X33491Y16884D01*
X33501Y16884D01*
X33510Y16885D01*
X33518Y16885D01*
X33526Y16886D01*
X33532Y16887D01*
X33537D01*
X33541D01*
X33544D01*
X33544D01*
X33560D01*
X33575Y16885D01*
D02*
G37*
G36*
X33860Y16136D02*
X33359D01*
X33860Y15801D01*
Y15714D01*
X33222D01*
Y15795D01*
X33723D01*
X33222Y16130D01*
Y16217D01*
X33860D01*
Y16136D01*
D02*
G37*
G36*
X33548Y15320D02*
X33472D01*
Y15508D01*
X33354D01*
X33349Y15502D01*
X33345Y15497D01*
X33337Y15484D01*
X33329Y15471D01*
X33322Y15458D01*
X33317Y15446D01*
X33314Y15441D01*
X33313Y15437D01*
X33311Y15433D01*
X33310Y15430D01*
X33309Y15429D01*
Y15428D01*
X33302Y15409D01*
X33297Y15389D01*
X33293Y15372D01*
X33292Y15363D01*
X33291Y15355D01*
X33290Y15348D01*
X33289Y15341D01*
X33288Y15336D01*
Y15331D01*
X33288Y15327D01*
Y15321D01*
X33288Y15310D01*
X33289Y15298D01*
X33292Y15276D01*
X33295Y15265D01*
X33297Y15256D01*
X33299Y15246D01*
X33302Y15238D01*
X33305Y15230D01*
X33307Y15223D01*
X33309Y15217D01*
X33311Y15212D01*
X33313Y15207D01*
X33314Y15204D01*
X33315Y15202D01*
X33316Y15202D01*
X33321Y15192D01*
X33327Y15182D01*
X33334Y15173D01*
X33340Y15164D01*
X33348Y15157D01*
X33354Y15150D01*
X33362Y15143D01*
X33368Y15138D01*
X33375Y15133D01*
X33381Y15128D01*
X33386Y15125D01*
X33391Y15122D01*
X33395Y15120D01*
X33398Y15118D01*
X33400Y15117D01*
X33400Y15116D01*
X33411Y15111D01*
X33423Y15107D01*
X33435Y15102D01*
X33447Y15099D01*
X33471Y15094D01*
X33482Y15092D01*
X33493Y15091D01*
X33504Y15089D01*
X33513Y15089D01*
X33522Y15088D01*
X33529Y15087D01*
X33535Y15087D01*
X33539D01*
X33542D01*
X33543D01*
X33556Y15087D01*
X33569Y15088D01*
X33592Y15091D01*
X33604Y15092D01*
X33614Y15095D01*
X33624Y15097D01*
X33633Y15099D01*
X33642Y15101D01*
X33649Y15104D01*
X33656Y15106D01*
X33661Y15107D01*
X33666Y15109D01*
X33669Y15110D01*
X33671Y15111D01*
X33672D01*
X33684Y15117D01*
X33696Y15123D01*
X33707Y15130D01*
X33716Y15137D01*
X33724Y15142D01*
X33730Y15147D01*
X33732Y15149D01*
X33734Y15150D01*
X33734Y15151D01*
X33735D01*
X33745Y15162D01*
X33754Y15173D01*
X33762Y15184D01*
X33769Y15195D01*
X33774Y15205D01*
X33776Y15209D01*
X33778Y15212D01*
X33780Y15215D01*
X33781Y15218D01*
X33781Y15219D01*
Y15219D01*
X33787Y15236D01*
X33792Y15253D01*
X33795Y15270D01*
X33797Y15285D01*
X33797Y15292D01*
X33798Y15299D01*
X33798Y15305D01*
X33799Y15310D01*
Y15319D01*
X33798Y15337D01*
X33796Y15354D01*
X33793Y15369D01*
X33792Y15375D01*
X33791Y15382D01*
X33789Y15388D01*
X33787Y15393D01*
X33786Y15397D01*
X33785Y15401D01*
X33783Y15404D01*
X33782Y15406D01*
X33782Y15407D01*
Y15408D01*
X33775Y15421D01*
X33768Y15434D01*
X33760Y15444D01*
X33753Y15453D01*
X33747Y15460D01*
X33741Y15465D01*
X33738Y15467D01*
X33738Y15468D01*
X33737D01*
X33726Y15476D01*
X33713Y15483D01*
X33700Y15489D01*
X33688Y15494D01*
X33678Y15499D01*
X33673Y15501D01*
X33669Y15502D01*
X33665Y15503D01*
X33663Y15504D01*
X33661Y15504D01*
X33661D01*
X33682Y15580D01*
X33693Y15577D01*
X33704Y15574D01*
X33715Y15570D01*
X33725Y15566D01*
X33734Y15562D01*
X33743Y15558D01*
X33751Y15554D01*
X33758Y15550D01*
X33764Y15547D01*
X33770Y15543D01*
X33775Y15540D01*
X33778Y15537D01*
X33782Y15535D01*
X33784Y15534D01*
X33785Y15533D01*
X33786Y15532D01*
X33793Y15526D01*
X33800Y15519D01*
X33813Y15505D01*
X33823Y15491D01*
X33832Y15477D01*
X33836Y15470D01*
X33839Y15464D01*
X33842Y15458D01*
X33844Y15454D01*
X33847Y15450D01*
X33848Y15447D01*
X33849Y15445D01*
Y15445D01*
X33857Y15423D01*
X33862Y15401D01*
X33866Y15380D01*
X33868Y15370D01*
X33869Y15361D01*
X33870Y15352D01*
X33870Y15344D01*
X33871Y15337D01*
Y15331D01*
X33872Y15326D01*
Y15319D01*
X33871Y15302D01*
X33870Y15285D01*
X33868Y15269D01*
X33865Y15252D01*
X33863Y15238D01*
X33859Y15224D01*
X33855Y15211D01*
X33852Y15199D01*
X33848Y15188D01*
X33844Y15179D01*
X33841Y15171D01*
X33838Y15163D01*
X33836Y15158D01*
X33834Y15154D01*
X33833Y15152D01*
X33832Y15151D01*
X33824Y15137D01*
X33816Y15125D01*
X33807Y15113D01*
X33797Y15102D01*
X33787Y15092D01*
X33777Y15083D01*
X33767Y15075D01*
X33757Y15068D01*
X33748Y15061D01*
X33740Y15055D01*
X33732Y15050D01*
X33725Y15046D01*
X33720Y15043D01*
X33715Y15040D01*
X33713Y15039D01*
X33712Y15039D01*
X33697Y15032D01*
X33682Y15026D01*
X33666Y15021D01*
X33651Y15017D01*
X33636Y15013D01*
X33622Y15009D01*
X33608Y15007D01*
X33595Y15005D01*
X33583Y15003D01*
X33572Y15002D01*
X33562Y15001D01*
X33554Y15001D01*
X33547Y15000D01*
X33543D01*
X33539D01*
X33538D01*
X33521Y15001D01*
X33504Y15002D01*
X33487Y15003D01*
X33472Y15006D01*
X33457Y15009D01*
X33443Y15012D01*
X33430Y15016D01*
X33417Y15019D01*
X33406Y15023D01*
X33397Y15027D01*
X33388Y15030D01*
X33381Y15033D01*
X33375Y15035D01*
X33371Y15037D01*
X33369Y15038D01*
X33368Y15039D01*
X33354Y15047D01*
X33341Y15055D01*
X33329Y15064D01*
X33317Y15074D01*
X33307Y15083D01*
X33297Y15093D01*
X33289Y15102D01*
X33281Y15112D01*
X33274Y15121D01*
X33268Y15128D01*
X33263Y15136D01*
X33259Y15142D01*
X33256Y15148D01*
X33253Y15152D01*
X33252Y15154D01*
X33251Y15155D01*
X33244Y15169D01*
X33238Y15184D01*
X33233Y15199D01*
X33228Y15214D01*
X33224Y15229D01*
X33221Y15243D01*
X33219Y15256D01*
X33216Y15269D01*
X33215Y15281D01*
X33214Y15292D01*
X33213Y15302D01*
X33212Y15310D01*
Y15317D01*
X33211Y15321D01*
Y15326D01*
X33212Y15339D01*
X33213Y15352D01*
X33215Y15376D01*
X33217Y15388D01*
X33219Y15399D01*
X33221Y15410D01*
X33224Y15420D01*
X33226Y15429D01*
X33229Y15437D01*
X33231Y15444D01*
X33233Y15450D01*
X33234Y15455D01*
X33235Y15458D01*
X33236Y15461D01*
Y15461D01*
X33241Y15473D01*
X33247Y15486D01*
X33259Y15509D01*
X33265Y15520D01*
X33271Y15531D01*
X33277Y15542D01*
X33283Y15551D01*
X33288Y15559D01*
X33293Y15567D01*
X33298Y15574D01*
X33302Y15580D01*
X33306Y15584D01*
X33308Y15587D01*
X33310Y15590D01*
X33311Y15590D01*
X33548D01*
Y15320D01*
D02*
G37*
G36*
X31061Y16513D02*
X31320Y16781D01*
Y16666D01*
X31004Y16349D01*
X31320D01*
Y16265D01*
X30682D01*
Y16349D01*
X30903D01*
X31004Y16454D01*
X30682Y16681D01*
Y16792D01*
X31061Y16513D01*
D02*
G37*
G36*
X30906Y16079D02*
X30891Y16075D01*
X30877Y16071D01*
X30865Y16066D01*
X30853Y16061D01*
X30842Y16056D01*
X30832Y16050D01*
X30823Y16045D01*
X30815Y16039D01*
X30808Y16034D01*
X30802Y16029D01*
X30797Y16024D01*
X30792Y16020D01*
X30789Y16017D01*
X30786Y16014D01*
X30785Y16013D01*
X30784Y16012D01*
X30777Y16003D01*
X30771Y15993D01*
X30766Y15983D01*
X30761Y15973D01*
X30757Y15962D01*
X30754Y15952D01*
X30751Y15943D01*
X30749Y15934D01*
X30747Y15925D01*
X30746Y15917D01*
X30745Y15910D01*
X30745Y15904D01*
Y15899D01*
X30744Y15895D01*
Y15892D01*
X30745Y15882D01*
X30745Y15870D01*
X30748Y15851D01*
X30751Y15841D01*
X30753Y15832D01*
X30756Y15824D01*
X30759Y15816D01*
X30762Y15809D01*
X30764Y15802D01*
X30767Y15797D01*
X30769Y15792D01*
X30771Y15788D01*
X30773Y15786D01*
X30773Y15784D01*
X30774Y15784D01*
X30780Y15775D01*
X30787Y15766D01*
X30793Y15758D01*
X30800Y15751D01*
X30808Y15744D01*
X30815Y15738D01*
X30823Y15733D01*
X30830Y15728D01*
X30837Y15724D01*
X30844Y15720D01*
X30849Y15717D01*
X30854Y15714D01*
X30859Y15713D01*
X30861Y15711D01*
X30864Y15710D01*
X30864Y15710D01*
X30888Y15702D01*
X30912Y15697D01*
X30936Y15692D01*
X30947Y15691D01*
X30958Y15689D01*
X30968Y15689D01*
X30978Y15688D01*
X30986Y15687D01*
X30993D01*
X30999Y15687D01*
X31003D01*
X31005D01*
X31006D01*
X31030Y15688D01*
X31052Y15690D01*
X31063Y15691D01*
X31073Y15693D01*
X31082Y15695D01*
X31091Y15697D01*
X31100Y15698D01*
X31107Y15700D01*
X31113Y15702D01*
X31119Y15703D01*
X31123Y15705D01*
X31126Y15705D01*
X31128Y15707D01*
X31129D01*
X31140Y15710D01*
X31150Y15715D01*
X31160Y15720D01*
X31169Y15726D01*
X31177Y15731D01*
X31185Y15737D01*
X31192Y15743D01*
X31199Y15749D01*
X31204Y15754D01*
X31209Y15759D01*
X31214Y15764D01*
X31217Y15768D01*
X31220Y15771D01*
X31222Y15774D01*
X31223Y15775D01*
X31224Y15776D01*
X31230Y15785D01*
X31235Y15795D01*
X31240Y15806D01*
X31244Y15816D01*
X31247Y15826D01*
X31250Y15836D01*
X31253Y15846D01*
X31255Y15856D01*
X31256Y15864D01*
X31257Y15873D01*
X31258Y15880D01*
X31258Y15887D01*
X31259Y15891D01*
Y15899D01*
X31258Y15910D01*
X31258Y15922D01*
X31256Y15932D01*
X31254Y15942D01*
X31252Y15952D01*
X31249Y15961D01*
X31246Y15968D01*
X31243Y15976D01*
X31240Y15982D01*
X31237Y15988D01*
X31234Y15993D01*
X31232Y15997D01*
X31230Y16001D01*
X31229Y16003D01*
X31227Y16004D01*
X31227Y16005D01*
X31221Y16013D01*
X31214Y16020D01*
X31206Y16027D01*
X31198Y16033D01*
X31181Y16044D01*
X31164Y16053D01*
X31157Y16057D01*
X31149Y16060D01*
X31143Y16063D01*
X31137Y16065D01*
X31132Y16068D01*
X31129Y16069D01*
X31126Y16070D01*
X31126D01*
X31145Y16153D01*
X31161Y16147D01*
X31176Y16141D01*
X31190Y16135D01*
X31204Y16127D01*
X31216Y16120D01*
X31227Y16112D01*
X31237Y16105D01*
X31247Y16097D01*
X31255Y16090D01*
X31262Y16084D01*
X31268Y16078D01*
X31273Y16072D01*
X31277Y16068D01*
X31280Y16064D01*
X31282Y16062D01*
X31282Y16061D01*
X31291Y16049D01*
X31298Y16036D01*
X31305Y16022D01*
X31310Y16009D01*
X31315Y15995D01*
X31319Y15982D01*
X31323Y15969D01*
X31325Y15956D01*
X31328Y15945D01*
X31329Y15934D01*
X31330Y15925D01*
X31331Y15916D01*
Y15910D01*
X31332Y15905D01*
Y15900D01*
X31331Y15885D01*
X31330Y15869D01*
X31328Y15855D01*
X31325Y15841D01*
X31323Y15827D01*
X31319Y15815D01*
X31316Y15802D01*
X31312Y15792D01*
X31309Y15781D01*
X31305Y15772D01*
X31302Y15765D01*
X31299Y15758D01*
X31296Y15753D01*
X31294Y15749D01*
X31293Y15746D01*
X31293Y15746D01*
X31285Y15733D01*
X31277Y15721D01*
X31268Y15710D01*
X31259Y15699D01*
X31250Y15689D01*
X31240Y15681D01*
X31231Y15673D01*
X31222Y15665D01*
X31213Y15659D01*
X31205Y15653D01*
X31198Y15648D01*
X31192Y15645D01*
X31187Y15641D01*
X31183Y15639D01*
X31181Y15638D01*
X31180Y15637D01*
X31165Y15631D01*
X31151Y15625D01*
X31136Y15620D01*
X31121Y15616D01*
X31107Y15612D01*
X31092Y15609D01*
X31078Y15606D01*
X31065Y15605D01*
X31052Y15603D01*
X31041Y15602D01*
X31031Y15601D01*
X31023Y15600D01*
X31016Y15600D01*
X31010D01*
X31007D01*
X31006D01*
X31006D01*
X30989Y15600D01*
X30972Y15601D01*
X30956Y15603D01*
X30941Y15605D01*
X30926Y15607D01*
X30912Y15610D01*
X30899Y15613D01*
X30886Y15616D01*
X30875Y15620D01*
X30865Y15622D01*
X30856Y15625D01*
X30849Y15628D01*
X30843Y15630D01*
X30839Y15631D01*
X30836Y15632D01*
X30835Y15633D01*
X30820Y15640D01*
X30807Y15647D01*
X30794Y15654D01*
X30782Y15663D01*
X30771Y15671D01*
X30761Y15679D01*
X30752Y15687D01*
X30744Y15695D01*
X30737Y15702D01*
X30731Y15709D01*
X30725Y15715D01*
X30721Y15721D01*
X30717Y15725D01*
X30715Y15729D01*
X30714Y15731D01*
X30713Y15731D01*
X30706Y15744D01*
X30699Y15757D01*
X30694Y15771D01*
X30689Y15785D01*
X30685Y15799D01*
X30681Y15813D01*
X30679Y15827D01*
X30676Y15839D01*
X30675Y15852D01*
X30674Y15863D01*
X30673Y15873D01*
X30672Y15882D01*
Y15889D01*
X30671Y15895D01*
Y15899D01*
X30672Y15918D01*
X30674Y15935D01*
X30676Y15952D01*
X30680Y15968D01*
X30684Y15983D01*
X30689Y15997D01*
X30694Y16009D01*
X30699Y16021D01*
X30704Y16032D01*
X30709Y16041D01*
X30713Y16049D01*
X30717Y16056D01*
X30721Y16061D01*
X30724Y16065D01*
X30725Y16068D01*
X30726Y16068D01*
X30737Y16081D01*
X30748Y16092D01*
X30761Y16102D01*
X30774Y16112D01*
X30787Y16121D01*
X30800Y16129D01*
X30813Y16136D01*
X30826Y16142D01*
X30838Y16147D01*
X30849Y16152D01*
X30859Y16156D01*
X30867Y16159D01*
X30875Y16161D01*
X30880Y16163D01*
X30882Y16163D01*
X30884D01*
X30884Y16164D01*
X30885D01*
X30906Y16079D01*
D02*
G37*
G36*
X30871Y15508D02*
X30881Y15508D01*
X30898Y15504D01*
X30913Y15501D01*
X30920Y15498D01*
X30927Y15496D01*
X30932Y15493D01*
X30938Y15491D01*
X30942Y15488D01*
X30946Y15486D01*
X30949Y15484D01*
X30951Y15483D01*
X30952Y15482D01*
X30953Y15482D01*
X30960Y15476D01*
X30967Y15471D01*
X30979Y15458D01*
X30991Y15444D01*
X31000Y15431D01*
X31004Y15425D01*
X31008Y15419D01*
X31011Y15414D01*
X31014Y15409D01*
X31015Y15405D01*
X31017Y15402D01*
X31018Y15400D01*
X31018Y15400D01*
X31021Y15392D01*
X31025Y15383D01*
X31028Y15372D01*
X31032Y15361D01*
X31039Y15338D01*
X31045Y15314D01*
X31047Y15303D01*
X31050Y15292D01*
X31052Y15283D01*
X31055Y15274D01*
X31056Y15267D01*
X31057Y15262D01*
X31059Y15259D01*
Y15257D01*
X31063Y15239D01*
X31067Y15223D01*
X31071Y15208D01*
X31076Y15194D01*
X31080Y15182D01*
X31083Y15172D01*
X31087Y15163D01*
X31090Y15155D01*
X31093Y15149D01*
X31096Y15143D01*
X31098Y15139D01*
X31100Y15136D01*
X31102Y15133D01*
X31103Y15131D01*
X31104Y15131D01*
Y15130D01*
X31108Y15126D01*
X31113Y15122D01*
X31122Y15116D01*
X31132Y15111D01*
X31140Y15109D01*
X31148Y15106D01*
X31155Y15106D01*
X31157Y15105D01*
X31159D01*
X31160D01*
X31160D01*
X31168Y15106D01*
X31175Y15107D01*
X31181Y15109D01*
X31188Y15111D01*
X31200Y15116D01*
X31210Y15123D01*
X31217Y15129D01*
X31221Y15132D01*
X31224Y15135D01*
X31226Y15137D01*
X31227Y15138D01*
X31228Y15140D01*
X31229Y15140D01*
X31233Y15147D01*
X31238Y15155D01*
X31242Y15164D01*
X31245Y15173D01*
X31250Y15191D01*
X31253Y15210D01*
X31255Y15218D01*
X31255Y15226D01*
X31256Y15234D01*
X31256Y15240D01*
X31257Y15245D01*
Y15252D01*
X31256Y15266D01*
X31256Y15279D01*
X31254Y15290D01*
X31252Y15301D01*
X31250Y15311D01*
X31247Y15320D01*
X31244Y15328D01*
X31241Y15336D01*
X31238Y15342D01*
X31236Y15348D01*
X31233Y15353D01*
X31231Y15357D01*
X31229Y15360D01*
X31227Y15362D01*
X31226Y15363D01*
X31226Y15364D01*
X31220Y15370D01*
X31213Y15377D01*
X31206Y15382D01*
X31199Y15387D01*
X31191Y15391D01*
X31183Y15395D01*
X31169Y15400D01*
X31162Y15403D01*
X31155Y15405D01*
X31149Y15406D01*
X31144Y15407D01*
X31140Y15408D01*
X31137Y15408D01*
X31135Y15409D01*
X31134D01*
X31140Y15489D01*
X31151Y15489D01*
X31161Y15487D01*
X31180Y15483D01*
X31189Y15481D01*
X31197Y15478D01*
X31205Y15476D01*
X31211Y15473D01*
X31218Y15470D01*
X31224Y15467D01*
X31229Y15465D01*
X31233Y15462D01*
X31236Y15461D01*
X31238Y15459D01*
X31240Y15458D01*
X31241Y15458D01*
X31249Y15452D01*
X31257Y15446D01*
X31270Y15432D01*
X31282Y15419D01*
X31291Y15405D01*
X31296Y15399D01*
X31299Y15393D01*
X31302Y15388D01*
X31304Y15383D01*
X31306Y15379D01*
X31307Y15377D01*
X31308Y15375D01*
Y15374D01*
X31316Y15353D01*
X31322Y15332D01*
X31326Y15311D01*
X31328Y15301D01*
X31329Y15291D01*
X31330Y15282D01*
X31330Y15274D01*
X31331Y15267D01*
Y15261D01*
X31332Y15256D01*
Y15249D01*
X31330Y15225D01*
X31328Y15203D01*
X31327Y15193D01*
X31324Y15183D01*
X31323Y15174D01*
X31320Y15166D01*
X31318Y15158D01*
X31317Y15152D01*
X31314Y15146D01*
X31313Y15141D01*
X31312Y15137D01*
X31310Y15133D01*
X31309Y15132D01*
Y15131D01*
X31305Y15122D01*
X31301Y15113D01*
X31296Y15104D01*
X31291Y15096D01*
X31285Y15089D01*
X31280Y15083D01*
X31274Y15077D01*
X31270Y15071D01*
X31265Y15066D01*
X31260Y15063D01*
X31256Y15059D01*
X31253Y15056D01*
X31250Y15054D01*
X31247Y15052D01*
X31246Y15051D01*
X31246Y15051D01*
X31238Y15046D01*
X31230Y15042D01*
X31222Y15038D01*
X31214Y15035D01*
X31199Y15030D01*
X31185Y15027D01*
X31178Y15026D01*
X31173Y15025D01*
X31168Y15025D01*
X31163Y15024D01*
X31160Y15024D01*
X31157D01*
X31155D01*
X31155D01*
X31139Y15025D01*
X31124Y15027D01*
X31111Y15031D01*
X31099Y15035D01*
X31094Y15037D01*
X31089Y15039D01*
X31085Y15041D01*
X31082Y15043D01*
X31079Y15044D01*
X31077Y15045D01*
X31076Y15046D01*
X31076D01*
X31063Y15055D01*
X31051Y15066D01*
X31041Y15078D01*
X31032Y15089D01*
X31025Y15099D01*
X31023Y15103D01*
X31020Y15107D01*
X31019Y15110D01*
X31017Y15112D01*
X31016Y15114D01*
X31016Y15114D01*
X31013Y15121D01*
X31009Y15130D01*
X31005Y15138D01*
X31002Y15148D01*
X30995Y15169D01*
X30989Y15189D01*
X30987Y15199D01*
X30984Y15208D01*
X30982Y15216D01*
X30980Y15223D01*
X30978Y15229D01*
X30977Y15234D01*
X30976Y15236D01*
Y15238D01*
X30972Y15254D01*
X30969Y15268D01*
X30965Y15281D01*
X30962Y15293D01*
X30959Y15303D01*
X30957Y15313D01*
X30954Y15321D01*
X30953Y15328D01*
X30951Y15334D01*
X30949Y15339D01*
X30948Y15343D01*
X30947Y15347D01*
X30946Y15349D01*
X30946Y15351D01*
X30945Y15352D01*
Y15352D01*
X30939Y15366D01*
X30933Y15378D01*
X30927Y15388D01*
X30921Y15396D01*
X30915Y15402D01*
X30911Y15406D01*
X30908Y15409D01*
X30907Y15410D01*
X30899Y15416D01*
X30890Y15420D01*
X30881Y15423D01*
X30873Y15425D01*
X30866Y15426D01*
X30860Y15427D01*
X30858D01*
X30856D01*
X30856D01*
X30855D01*
X30844Y15427D01*
X30834Y15425D01*
X30825Y15422D01*
X30817Y15419D01*
X30810Y15415D01*
X30805Y15412D01*
X30802Y15410D01*
X30801Y15409D01*
X30800D01*
X30792Y15401D01*
X30784Y15393D01*
X30777Y15384D01*
X30772Y15375D01*
X30767Y15367D01*
X30764Y15360D01*
X30763Y15357D01*
X30762Y15355D01*
X30761Y15354D01*
Y15354D01*
X30756Y15339D01*
X30753Y15325D01*
X30750Y15311D01*
X30748Y15297D01*
X30748Y15291D01*
X30747Y15286D01*
Y15281D01*
X30747Y15277D01*
Y15269D01*
X30747Y15249D01*
X30750Y15230D01*
X30753Y15213D01*
X30755Y15206D01*
X30756Y15199D01*
X30758Y15192D01*
X30760Y15187D01*
X30761Y15182D01*
X30763Y15178D01*
X30764Y15174D01*
X30765Y15172D01*
X30766Y15171D01*
Y15170D01*
X30773Y15155D01*
X30781Y15142D01*
X30789Y15131D01*
X30798Y15122D01*
X30805Y15115D01*
X30810Y15110D01*
X30813Y15108D01*
X30814Y15107D01*
X30815Y15106D01*
X30815D01*
X30828Y15099D01*
X30841Y15093D01*
X30854Y15089D01*
X30867Y15085D01*
X30872Y15084D01*
X30878Y15083D01*
X30882Y15081D01*
X30887Y15081D01*
X30890Y15080D01*
X30892D01*
X30894Y15080D01*
X30895D01*
X30887Y15000D01*
X30876Y15001D01*
X30864Y15002D01*
X30843Y15006D01*
X30832Y15009D01*
X30823Y15012D01*
X30814Y15015D01*
X30806Y15018D01*
X30798Y15021D01*
X30792Y15024D01*
X30786Y15027D01*
X30781Y15030D01*
X30777Y15032D01*
X30774Y15033D01*
X30773Y15034D01*
X30772Y15035D01*
X30763Y15042D01*
X30755Y15048D01*
X30747Y15056D01*
X30739Y15063D01*
X30732Y15071D01*
X30726Y15079D01*
X30721Y15086D01*
X30715Y15094D01*
X30711Y15100D01*
X30707Y15106D01*
X30704Y15112D01*
X30701Y15117D01*
X30699Y15121D01*
X30698Y15124D01*
X30697Y15126D01*
X30696Y15127D01*
X30692Y15138D01*
X30688Y15150D01*
X30682Y15174D01*
X30678Y15199D01*
X30676Y15210D01*
X30675Y15221D01*
X30674Y15232D01*
X30673Y15242D01*
X30672Y15250D01*
Y15258D01*
X30671Y15264D01*
Y15272D01*
X30672Y15285D01*
X30673Y15297D01*
X30674Y15309D01*
X30675Y15321D01*
X30677Y15331D01*
X30679Y15341D01*
X30681Y15351D01*
X30684Y15359D01*
X30686Y15367D01*
X30689Y15374D01*
X30691Y15380D01*
X30693Y15386D01*
X30694Y15390D01*
X30695Y15393D01*
X30696Y15395D01*
Y15395D01*
X30701Y15405D01*
X30706Y15415D01*
X30712Y15424D01*
X30718Y15432D01*
X30724Y15439D01*
X30730Y15446D01*
X30735Y15452D01*
X30741Y15458D01*
X30746Y15463D01*
X30751Y15467D01*
X30755Y15471D01*
X30759Y15474D01*
X30762Y15476D01*
X30764Y15478D01*
X30766Y15479D01*
X30766Y15480D01*
X30774Y15484D01*
X30783Y15489D01*
X30792Y15493D01*
X30800Y15497D01*
X30816Y15502D01*
X30831Y15505D01*
X30838Y15507D01*
X30844Y15507D01*
X30849Y15508D01*
X30853Y15508D01*
X30857Y15509D01*
X30860D01*
X30861D01*
X30862D01*
X30871Y15508D01*
D02*
G37*
G36*
X23251Y17806D02*
X23261Y17805D01*
X23278Y17802D01*
X23293Y17798D01*
X23300Y17795D01*
X23307Y17793D01*
X23312Y17790D01*
X23318Y17788D01*
X23322Y17785D01*
X23326Y17784D01*
X23329Y17782D01*
X23331Y17780D01*
X23332Y17780D01*
X23333Y17779D01*
X23340Y17774D01*
X23347Y17768D01*
X23359Y17755D01*
X23371Y17741D01*
X23380Y17728D01*
X23384Y17722D01*
X23388Y17716D01*
X23391Y17711D01*
X23394Y17706D01*
X23395Y17703D01*
X23397Y17699D01*
X23398Y17698D01*
X23398Y17697D01*
X23401Y17689D01*
X23405Y17680D01*
X23408Y17669D01*
X23412Y17658D01*
X23419Y17635D01*
X23425Y17611D01*
X23427Y17600D01*
X23430Y17590D01*
X23432Y17580D01*
X23435Y17571D01*
X23436Y17565D01*
X23437Y17559D01*
X23439Y17556D01*
Y17555D01*
X23443Y17537D01*
X23447Y17520D01*
X23451Y17505D01*
X23456Y17492D01*
X23460Y17480D01*
X23463Y17470D01*
X23467Y17460D01*
X23470Y17452D01*
X23473Y17446D01*
X23476Y17441D01*
X23478Y17436D01*
X23480Y17433D01*
X23482Y17430D01*
X23483Y17429D01*
X23484Y17428D01*
Y17428D01*
X23488Y17423D01*
X23493Y17419D01*
X23502Y17413D01*
X23512Y17409D01*
X23520Y17406D01*
X23528Y17404D01*
X23535Y17403D01*
X23537Y17403D01*
X23539D01*
X23540D01*
X23540D01*
X23548Y17403D01*
X23555Y17404D01*
X23561Y17406D01*
X23568Y17408D01*
X23580Y17414D01*
X23590Y17420D01*
X23597Y17426D01*
X23601Y17429D01*
X23604Y17432D01*
X23606Y17434D01*
X23607Y17436D01*
X23608Y17437D01*
X23609Y17437D01*
X23614Y17445D01*
X23618Y17452D01*
X23622Y17461D01*
X23625Y17470D01*
X23630Y17488D01*
X23633Y17507D01*
X23635Y17516D01*
X23635Y17524D01*
X23636Y17531D01*
X23636Y17537D01*
X23637Y17543D01*
Y17550D01*
X23636Y17563D01*
X23636Y17576D01*
X23634Y17588D01*
X23632Y17599D01*
X23630Y17609D01*
X23627Y17617D01*
X23624Y17626D01*
X23621Y17633D01*
X23618Y17640D01*
X23616Y17646D01*
X23613Y17650D01*
X23611Y17654D01*
X23609Y17657D01*
X23607Y17660D01*
X23606Y17661D01*
X23606Y17661D01*
X23600Y17668D01*
X23593Y17674D01*
X23586Y17679D01*
X23579Y17684D01*
X23571Y17688D01*
X23563Y17692D01*
X23549Y17698D01*
X23542Y17700D01*
X23535Y17702D01*
X23529Y17703D01*
X23524Y17704D01*
X23520Y17705D01*
X23517Y17705D01*
X23515Y17706D01*
X23514D01*
X23520Y17787D01*
X23531Y17786D01*
X23541Y17785D01*
X23560Y17781D01*
X23569Y17779D01*
X23577Y17776D01*
X23585Y17773D01*
X23591Y17770D01*
X23598Y17767D01*
X23604Y17765D01*
X23609Y17762D01*
X23613Y17760D01*
X23616Y17758D01*
X23618Y17756D01*
X23620Y17756D01*
X23621Y17755D01*
X23629Y17750D01*
X23637Y17743D01*
X23650Y17730D01*
X23662Y17716D01*
X23671Y17703D01*
X23676Y17696D01*
X23679Y17691D01*
X23682Y17685D01*
X23684Y17681D01*
X23686Y17677D01*
X23687Y17674D01*
X23688Y17672D01*
Y17672D01*
X23696Y17651D01*
X23702Y17629D01*
X23706Y17608D01*
X23708Y17598D01*
X23709Y17589D01*
X23710Y17580D01*
X23710Y17571D01*
X23711Y17564D01*
Y17558D01*
X23712Y17553D01*
Y17546D01*
X23710Y17523D01*
X23708Y17501D01*
X23707Y17490D01*
X23704Y17481D01*
X23703Y17472D01*
X23700Y17463D01*
X23698Y17456D01*
X23697Y17449D01*
X23694Y17443D01*
X23693Y17438D01*
X23692Y17434D01*
X23690Y17431D01*
X23689Y17429D01*
Y17429D01*
X23685Y17419D01*
X23681Y17410D01*
X23676Y17401D01*
X23671Y17394D01*
X23665Y17387D01*
X23660Y17380D01*
X23654Y17374D01*
X23649Y17369D01*
X23645Y17364D01*
X23640Y17360D01*
X23636Y17357D01*
X23633Y17353D01*
X23630Y17351D01*
X23627Y17349D01*
X23626Y17349D01*
X23626Y17348D01*
X23618Y17343D01*
X23610Y17339D01*
X23602Y17336D01*
X23594Y17333D01*
X23579Y17328D01*
X23565Y17325D01*
X23558Y17323D01*
X23553Y17323D01*
X23548Y17322D01*
X23543Y17322D01*
X23540Y17321D01*
X23537D01*
X23535D01*
X23535D01*
X23519Y17322D01*
X23504Y17325D01*
X23491Y17328D01*
X23479Y17332D01*
X23474Y17334D01*
X23469Y17336D01*
X23465Y17338D01*
X23462Y17340D01*
X23459Y17341D01*
X23457Y17342D01*
X23456Y17343D01*
X23456D01*
X23443Y17353D01*
X23431Y17364D01*
X23421Y17375D01*
X23413Y17386D01*
X23405Y17396D01*
X23403Y17400D01*
X23400Y17404D01*
X23399Y17407D01*
X23397Y17409D01*
X23396Y17411D01*
X23396Y17411D01*
X23393Y17419D01*
X23389Y17427D01*
X23385Y17436D01*
X23382Y17446D01*
X23375Y17466D01*
X23369Y17487D01*
X23367Y17496D01*
X23364Y17505D01*
X23362Y17513D01*
X23360Y17521D01*
X23358Y17527D01*
X23357Y17531D01*
X23356Y17534D01*
Y17535D01*
X23352Y17551D01*
X23349Y17565D01*
X23346Y17579D01*
X23342Y17590D01*
X23339Y17601D01*
X23337Y17610D01*
X23334Y17619D01*
X23333Y17626D01*
X23331Y17632D01*
X23329Y17637D01*
X23328Y17641D01*
X23327Y17644D01*
X23326Y17647D01*
X23326Y17648D01*
X23325Y17649D01*
Y17650D01*
X23319Y17663D01*
X23313Y17676D01*
X23307Y17686D01*
X23301Y17693D01*
X23295Y17699D01*
X23291Y17704D01*
X23288Y17707D01*
X23287Y17707D01*
X23279Y17713D01*
X23270Y17718D01*
X23261Y17720D01*
X23253Y17723D01*
X23246Y17724D01*
X23240Y17725D01*
X23238D01*
X23236D01*
X23236D01*
X23235D01*
X23224Y17724D01*
X23214Y17722D01*
X23205Y17719D01*
X23197Y17716D01*
X23190Y17712D01*
X23185Y17709D01*
X23182Y17707D01*
X23181Y17707D01*
X23180D01*
X23172Y17699D01*
X23164Y17690D01*
X23157Y17681D01*
X23152Y17672D01*
X23147Y17664D01*
X23144Y17657D01*
X23143Y17655D01*
X23142Y17653D01*
X23141Y17652D01*
Y17651D01*
X23136Y17637D01*
X23133Y17622D01*
X23130Y17608D01*
X23128Y17595D01*
X23128Y17589D01*
X23127Y17583D01*
Y17578D01*
X23127Y17574D01*
Y17566D01*
X23127Y17546D01*
X23130Y17527D01*
X23133Y17511D01*
X23135Y17503D01*
X23136Y17496D01*
X23138Y17490D01*
X23140Y17484D01*
X23141Y17479D01*
X23143Y17475D01*
X23144Y17472D01*
X23145Y17470D01*
X23146Y17468D01*
Y17467D01*
X23153Y17452D01*
X23161Y17439D01*
X23169Y17428D01*
X23178Y17419D01*
X23185Y17412D01*
X23190Y17407D01*
X23193Y17405D01*
X23194Y17404D01*
X23195Y17403D01*
X23195D01*
X23208Y17396D01*
X23221Y17390D01*
X23234Y17386D01*
X23247Y17383D01*
X23252Y17381D01*
X23258Y17380D01*
X23262Y17379D01*
X23267Y17378D01*
X23270Y17378D01*
X23272D01*
X23274Y17377D01*
X23275D01*
X23267Y17297D01*
X23256Y17298D01*
X23244Y17300D01*
X23223Y17303D01*
X23212Y17306D01*
X23203Y17309D01*
X23194Y17312D01*
X23186Y17316D01*
X23178Y17318D01*
X23172Y17322D01*
X23166Y17325D01*
X23161Y17327D01*
X23157Y17329D01*
X23154Y17331D01*
X23153Y17332D01*
X23152Y17332D01*
X23143Y17339D01*
X23135Y17346D01*
X23127Y17353D01*
X23119Y17361D01*
X23112Y17368D01*
X23106Y17376D01*
X23101Y17383D01*
X23095Y17391D01*
X23091Y17398D01*
X23087Y17404D01*
X23084Y17410D01*
X23081Y17415D01*
X23079Y17419D01*
X23077Y17421D01*
X23077Y17424D01*
X23076Y17424D01*
X23072Y17435D01*
X23068Y17447D01*
X23062Y17472D01*
X23058Y17496D01*
X23056Y17508D01*
X23055Y17519D01*
X23054Y17529D01*
X23053Y17539D01*
X23052Y17548D01*
Y17555D01*
X23051Y17562D01*
Y17570D01*
X23052Y17583D01*
X23053Y17595D01*
X23054Y17606D01*
X23055Y17618D01*
X23057Y17629D01*
X23059Y17638D01*
X23061Y17648D01*
X23064Y17657D01*
X23066Y17664D01*
X23069Y17672D01*
X23071Y17678D01*
X23073Y17683D01*
X23074Y17687D01*
X23075Y17691D01*
X23076Y17692D01*
Y17693D01*
X23081Y17703D01*
X23086Y17712D01*
X23092Y17721D01*
X23098Y17729D01*
X23104Y17736D01*
X23110Y17744D01*
X23115Y17750D01*
X23121Y17755D01*
X23126Y17760D01*
X23131Y17765D01*
X23135Y17769D01*
X23139Y17771D01*
X23142Y17774D01*
X23144Y17776D01*
X23146Y17776D01*
X23146Y17777D01*
X23154Y17782D01*
X23163Y17787D01*
X23172Y17791D01*
X23180Y17794D01*
X23196Y17799D01*
X23211Y17802D01*
X23218Y17804D01*
X23224Y17805D01*
X23229Y17805D01*
X23233Y17806D01*
X23237Y17806D01*
X23240D01*
X23241D01*
X23242D01*
X23251Y17806D01*
D02*
G37*
G36*
X23286Y17137D02*
X23271Y17133D01*
X23257Y17130D01*
X23245Y17125D01*
X23233Y17120D01*
X23222Y17114D01*
X23212Y17109D01*
X23203Y17103D01*
X23195Y17097D01*
X23188Y17092D01*
X23182Y17087D01*
X23177Y17083D01*
X23172Y17078D01*
X23169Y17075D01*
X23166Y17073D01*
X23165Y17071D01*
X23164Y17070D01*
X23157Y17061D01*
X23151Y17051D01*
X23146Y17041D01*
X23141Y17031D01*
X23137Y17021D01*
X23134Y17011D01*
X23131Y17001D01*
X23129Y16992D01*
X23127Y16983D01*
X23126Y16975D01*
X23125Y16968D01*
X23125Y16962D01*
Y16957D01*
X23124Y16954D01*
Y16950D01*
X23125Y16940D01*
X23125Y16929D01*
X23128Y16909D01*
X23131Y16899D01*
X23133Y16890D01*
X23136Y16882D01*
X23139Y16874D01*
X23142Y16867D01*
X23145Y16861D01*
X23147Y16855D01*
X23149Y16851D01*
X23151Y16847D01*
X23153Y16844D01*
X23153Y16842D01*
X23154Y16842D01*
X23160Y16833D01*
X23167Y16824D01*
X23173Y16816D01*
X23180Y16809D01*
X23188Y16802D01*
X23195Y16796D01*
X23203Y16791D01*
X23210Y16786D01*
X23217Y16782D01*
X23224Y16778D01*
X23229Y16775D01*
X23234Y16772D01*
X23239Y16771D01*
X23241Y16769D01*
X23244Y16769D01*
X23244Y16768D01*
X23268Y16760D01*
X23292Y16755D01*
X23316Y16750D01*
X23327Y16749D01*
X23338Y16748D01*
X23348Y16747D01*
X23358Y16746D01*
X23366Y16745D01*
X23373D01*
X23379Y16745D01*
X23383D01*
X23385D01*
X23386D01*
X23410Y16746D01*
X23432Y16748D01*
X23443Y16749D01*
X23453Y16751D01*
X23462Y16753D01*
X23471Y16755D01*
X23479Y16756D01*
X23487Y16759D01*
X23493Y16760D01*
X23499Y16761D01*
X23503Y16763D01*
X23506Y16764D01*
X23508Y16765D01*
X23509D01*
X23520Y16769D01*
X23530Y16774D01*
X23540Y16779D01*
X23549Y16784D01*
X23557Y16790D01*
X23565Y16795D01*
X23572Y16801D01*
X23579Y16807D01*
X23584Y16812D01*
X23589Y16817D01*
X23594Y16822D01*
X23597Y16826D01*
X23600Y16829D01*
X23602Y16832D01*
X23603Y16833D01*
X23604Y16834D01*
X23610Y16843D01*
X23615Y16853D01*
X23620Y16864D01*
X23624Y16874D01*
X23627Y16884D01*
X23630Y16894D01*
X23633Y16904D01*
X23635Y16914D01*
X23636Y16923D01*
X23637Y16931D01*
X23638Y16938D01*
X23638Y16945D01*
X23639Y16950D01*
Y16957D01*
X23638Y16968D01*
X23638Y16980D01*
X23636Y16991D01*
X23634Y17001D01*
X23632Y17010D01*
X23629Y17019D01*
X23626Y17027D01*
X23623Y17034D01*
X23620Y17040D01*
X23617Y17047D01*
X23614Y17052D01*
X23612Y17055D01*
X23610Y17059D01*
X23609Y17062D01*
X23607Y17063D01*
X23607Y17063D01*
X23601Y17071D01*
X23594Y17078D01*
X23586Y17085D01*
X23578Y17091D01*
X23561Y17102D01*
X23544Y17111D01*
X23537Y17115D01*
X23529Y17119D01*
X23523Y17121D01*
X23517Y17124D01*
X23512Y17126D01*
X23509Y17127D01*
X23506Y17128D01*
X23506D01*
X23525Y17211D01*
X23541Y17205D01*
X23556Y17199D01*
X23570Y17193D01*
X23584Y17186D01*
X23596Y17178D01*
X23607Y17171D01*
X23617Y17163D01*
X23627Y17156D01*
X23635Y17148D01*
X23642Y17142D01*
X23648Y17136D01*
X23653Y17130D01*
X23657Y17126D01*
X23660Y17122D01*
X23662Y17120D01*
X23662Y17120D01*
X23671Y17107D01*
X23678Y17094D01*
X23685Y17080D01*
X23690Y17067D01*
X23695Y17053D01*
X23699Y17040D01*
X23703Y17027D01*
X23705Y17014D01*
X23708Y17003D01*
X23709Y16992D01*
X23710Y16983D01*
X23711Y16975D01*
Y16968D01*
X23712Y16963D01*
Y16959D01*
X23711Y16943D01*
X23710Y16927D01*
X23708Y16913D01*
X23705Y16899D01*
X23703Y16885D01*
X23699Y16873D01*
X23696Y16861D01*
X23692Y16850D01*
X23689Y16839D01*
X23685Y16831D01*
X23682Y16823D01*
X23679Y16816D01*
X23676Y16811D01*
X23674Y16807D01*
X23673Y16805D01*
X23673Y16804D01*
X23665Y16791D01*
X23657Y16779D01*
X23648Y16768D01*
X23639Y16758D01*
X23630Y16748D01*
X23620Y16739D01*
X23611Y16731D01*
X23602Y16723D01*
X23593Y16717D01*
X23585Y16712D01*
X23578Y16707D01*
X23572Y16703D01*
X23567Y16699D01*
X23563Y16697D01*
X23561Y16696D01*
X23560Y16695D01*
X23545Y16689D01*
X23531Y16683D01*
X23516Y16678D01*
X23501Y16674D01*
X23487Y16670D01*
X23472Y16667D01*
X23458Y16664D01*
X23445Y16663D01*
X23432Y16661D01*
X23421Y16660D01*
X23411Y16659D01*
X23403Y16658D01*
X23396Y16658D01*
X23390D01*
X23387D01*
X23386D01*
X23386D01*
X23369Y16658D01*
X23352Y16660D01*
X23336Y16661D01*
X23321Y16663D01*
X23306Y16666D01*
X23292Y16668D01*
X23278Y16671D01*
X23266Y16674D01*
X23255Y16678D01*
X23245Y16681D01*
X23236Y16683D01*
X23229Y16686D01*
X23223Y16688D01*
X23219Y16689D01*
X23216Y16691D01*
X23215Y16691D01*
X23200Y16698D01*
X23187Y16705D01*
X23174Y16713D01*
X23162Y16721D01*
X23151Y16729D01*
X23141Y16737D01*
X23132Y16745D01*
X23124Y16753D01*
X23117Y16760D01*
X23111Y16767D01*
X23105Y16774D01*
X23101Y16779D01*
X23097Y16784D01*
X23095Y16787D01*
X23094Y16789D01*
X23093Y16790D01*
X23086Y16802D01*
X23079Y16816D01*
X23074Y16829D01*
X23069Y16843D01*
X23065Y16857D01*
X23061Y16871D01*
X23059Y16885D01*
X23056Y16898D01*
X23055Y16910D01*
X23054Y16921D01*
X23053Y16931D01*
X23052Y16940D01*
Y16947D01*
X23051Y16953D01*
Y16957D01*
X23052Y16976D01*
X23054Y16993D01*
X23056Y17010D01*
X23060Y17026D01*
X23064Y17041D01*
X23069Y17055D01*
X23074Y17068D01*
X23079Y17079D01*
X23084Y17090D01*
X23089Y17099D01*
X23093Y17107D01*
X23097Y17114D01*
X23101Y17119D01*
X23104Y17123D01*
X23105Y17126D01*
X23106Y17126D01*
X23117Y17139D01*
X23128Y17150D01*
X23141Y17161D01*
X23154Y17171D01*
X23167Y17179D01*
X23180Y17187D01*
X23193Y17194D01*
X23206Y17200D01*
X23218Y17205D01*
X23229Y17210D01*
X23239Y17214D01*
X23247Y17217D01*
X23255Y17219D01*
X23260Y17221D01*
X23262Y17222D01*
X23264D01*
X23264Y17222D01*
X23265D01*
X23286Y17137D01*
D02*
G37*
G36*
X23700Y16090D02*
X23625D01*
Y16300D01*
X23062D01*
Y16385D01*
X23625D01*
Y16596D01*
X23700D01*
Y16090D01*
D02*
G37*
G36*
Y15597D02*
X23062D01*
Y15682D01*
X23352D01*
Y15981D01*
X23427D01*
Y15682D01*
X23625D01*
Y16028D01*
X23700D01*
Y15597D01*
D02*
G37*
G36*
Y15000D02*
X23625D01*
Y15210D01*
X23062D01*
Y15295D01*
X23625D01*
Y15507D01*
X23700D01*
Y15000D01*
D02*
G37*
G36*
X28732Y17173D02*
X28749Y17172D01*
X28765Y17171D01*
X28781Y17168D01*
X28796Y17165D01*
X28810Y17162D01*
X28823Y17158D01*
X28836Y17155D01*
X28846Y17152D01*
X28856Y17148D01*
X28864Y17145D01*
X28872Y17142D01*
X28877Y17140D01*
X28882Y17138D01*
X28884Y17137D01*
X28885Y17136D01*
X28899Y17129D01*
X28912Y17121D01*
X28924Y17112D01*
X28935Y17104D01*
X28946Y17095D01*
X28956Y17086D01*
X28965Y17077D01*
X28972Y17068D01*
X28980Y17060D01*
X28986Y17053D01*
X28991Y17046D01*
X28995Y17040D01*
X28998Y17035D01*
X29001Y17032D01*
X29002Y17029D01*
X29003Y17028D01*
X29011Y17015D01*
X29017Y17001D01*
X29023Y16987D01*
X29028Y16973D01*
X29032Y16960D01*
X29035Y16947D01*
X29038Y16934D01*
X29040Y16922D01*
X29042Y16911D01*
X29043Y16900D01*
X29044Y16892D01*
X29045Y16884D01*
X29046Y16878D01*
Y16869D01*
X29044Y16844D01*
X29042Y16821D01*
X29037Y16798D01*
X29032Y16777D01*
X29024Y16758D01*
X29017Y16740D01*
X29009Y16723D01*
X29001Y16708D01*
X28992Y16694D01*
X28984Y16683D01*
X28976Y16672D01*
X28970Y16664D01*
X28964Y16657D01*
X28959Y16652D01*
X28956Y16650D01*
X28955Y16648D01*
X28938Y16633D01*
X28919Y16620D01*
X28899Y16609D01*
X28879Y16599D01*
X28858Y16591D01*
X28837Y16584D01*
X28817Y16578D01*
X28797Y16574D01*
X28779Y16570D01*
X28761Y16568D01*
X28747Y16566D01*
X28739Y16565D01*
X28733Y16564D01*
X28727D01*
X28722Y16564D01*
X28717D01*
X28714Y16563D01*
X28711D01*
X28708D01*
X28707D01*
X28707D01*
X28691Y16564D01*
X28676Y16565D01*
X28661Y16566D01*
X28646Y16569D01*
X28633Y16571D01*
X28620Y16575D01*
X28608Y16578D01*
X28596Y16581D01*
X28585Y16585D01*
X28576Y16588D01*
X28568Y16591D01*
X28561Y16594D01*
X28555Y16596D01*
X28551Y16598D01*
X28549Y16599D01*
X28548Y16600D01*
X28534Y16607D01*
X28521Y16615D01*
X28509Y16623D01*
X28497Y16632D01*
X28487Y16641D01*
X28477Y16650D01*
X28468Y16658D01*
X28460Y16667D01*
X28453Y16675D01*
X28446Y16683D01*
X28441Y16689D01*
X28437Y16695D01*
X28433Y16700D01*
X28431Y16704D01*
X28429Y16707D01*
X28429Y16707D01*
X28421Y16720D01*
X28414Y16734D01*
X28409Y16748D01*
X28404Y16762D01*
X28399Y16776D01*
X28396Y16789D01*
X28393Y16802D01*
X28391Y16815D01*
X28389Y16826D01*
X28388Y16836D01*
X28387Y16845D01*
X28386Y16853D01*
Y16859D01*
X28385Y16864D01*
Y16868D01*
X28386Y16884D01*
X28387Y16899D01*
X28389Y16914D01*
X28392Y16927D01*
X28394Y16941D01*
X28398Y16954D01*
X28402Y16966D01*
X28405Y16977D01*
X28409Y16987D01*
X28413Y16996D01*
X28416Y17004D01*
X28419Y17011D01*
X28421Y17016D01*
X28423Y17020D01*
X28424Y17023D01*
X28425Y17023D01*
X28433Y17037D01*
X28441Y17049D01*
X28450Y17060D01*
X28460Y17071D01*
X28469Y17081D01*
X28479Y17090D01*
X28488Y17099D01*
X28497Y17106D01*
X28506Y17112D01*
X28514Y17119D01*
X28522Y17124D01*
X28528Y17127D01*
X28533Y17131D01*
X28537Y17133D01*
X28539Y17134D01*
X28541Y17135D01*
X28555Y17142D01*
X28570Y17147D01*
X28585Y17153D01*
X28600Y17157D01*
X28615Y17161D01*
X28629Y17164D01*
X28643Y17167D01*
X28656Y17169D01*
X28668Y17171D01*
X28680Y17172D01*
X28689Y17173D01*
X28698Y17173D01*
X28705Y17174D01*
X28710D01*
X28713D01*
X28714D01*
X28732Y17173D01*
D02*
G37*
G36*
X28585Y16473D02*
X28595Y16472D01*
X28612Y16469D01*
X28627Y16465D01*
X28634Y16462D01*
X28641Y16460D01*
X28646Y16457D01*
X28652Y16455D01*
X28656Y16452D01*
X28660Y16451D01*
X28663Y16449D01*
X28665Y16447D01*
X28666Y16447D01*
X28667Y16446D01*
X28674Y16441D01*
X28681Y16435D01*
X28693Y16423D01*
X28705Y16409D01*
X28714Y16395D01*
X28718Y16389D01*
X28722Y16383D01*
X28725Y16378D01*
X28728Y16373D01*
X28729Y16370D01*
X28731Y16367D01*
X28732Y16365D01*
X28732Y16364D01*
X28735Y16357D01*
X28739Y16347D01*
X28742Y16337D01*
X28746Y16326D01*
X28753Y16302D01*
X28759Y16279D01*
X28761Y16267D01*
X28764Y16257D01*
X28766Y16248D01*
X28769Y16239D01*
X28770Y16232D01*
X28771Y16226D01*
X28773Y16223D01*
Y16222D01*
X28777Y16204D01*
X28781Y16187D01*
X28785Y16172D01*
X28790Y16159D01*
X28794Y16147D01*
X28797Y16137D01*
X28801Y16127D01*
X28804Y16120D01*
X28807Y16114D01*
X28810Y16108D01*
X28812Y16104D01*
X28814Y16100D01*
X28816Y16097D01*
X28817Y16096D01*
X28818Y16095D01*
Y16095D01*
X28822Y16090D01*
X28827Y16086D01*
X28836Y16080D01*
X28846Y16076D01*
X28854Y16073D01*
X28862Y16071D01*
X28869Y16070D01*
X28871Y16070D01*
X28873D01*
X28874D01*
X28874D01*
X28882Y16070D01*
X28889Y16071D01*
X28895Y16073D01*
X28902Y16075D01*
X28914Y16081D01*
X28924Y16087D01*
X28931Y16094D01*
X28935Y16096D01*
X28938Y16099D01*
X28940Y16101D01*
X28941Y16103D01*
X28942Y16104D01*
X28943Y16105D01*
X28948Y16112D01*
X28952Y16120D01*
X28956Y16128D01*
X28959Y16137D01*
X28964Y16156D01*
X28967Y16174D01*
X28969Y16183D01*
X28969Y16191D01*
X28970Y16198D01*
X28970Y16204D01*
X28971Y16210D01*
Y16217D01*
X28970Y16230D01*
X28970Y16243D01*
X28968Y16255D01*
X28966Y16266D01*
X28964Y16276D01*
X28961Y16285D01*
X28958Y16293D01*
X28955Y16300D01*
X28952Y16307D01*
X28950Y16313D01*
X28947Y16317D01*
X28945Y16321D01*
X28943Y16324D01*
X28941Y16327D01*
X28940Y16328D01*
X28940Y16328D01*
X28934Y16335D01*
X28927Y16341D01*
X28920Y16347D01*
X28913Y16352D01*
X28905Y16355D01*
X28897Y16359D01*
X28883Y16365D01*
X28876Y16367D01*
X28869Y16369D01*
X28863Y16370D01*
X28858Y16372D01*
X28854Y16372D01*
X28851Y16373D01*
X28849Y16373D01*
X28848D01*
X28854Y16454D01*
X28865Y16454D01*
X28875Y16452D01*
X28894Y16448D01*
X28903Y16446D01*
X28911Y16443D01*
X28919Y16440D01*
X28925Y16437D01*
X28932Y16435D01*
X28938Y16432D01*
X28943Y16429D01*
X28947Y16427D01*
X28950Y16425D01*
X28952Y16424D01*
X28954Y16423D01*
X28955Y16423D01*
X28963Y16417D01*
X28971Y16410D01*
X28984Y16397D01*
X28996Y16383D01*
X29005Y16370D01*
X29010Y16363D01*
X29013Y16358D01*
X29016Y16352D01*
X29018Y16348D01*
X29020Y16344D01*
X29021Y16341D01*
X29022Y16339D01*
Y16339D01*
X29030Y16318D01*
X29036Y16296D01*
X29040Y16275D01*
X29042Y16265D01*
X29043Y16256D01*
X29044Y16247D01*
X29044Y16239D01*
X29045Y16231D01*
Y16225D01*
X29046Y16220D01*
Y16213D01*
X29044Y16190D01*
X29042Y16168D01*
X29041Y16157D01*
X29038Y16148D01*
X29037Y16139D01*
X29034Y16131D01*
X29032Y16123D01*
X29031Y16116D01*
X29028Y16110D01*
X29027Y16105D01*
X29026Y16101D01*
X29024Y16098D01*
X29023Y16096D01*
Y16096D01*
X29019Y16086D01*
X29014Y16078D01*
X29010Y16069D01*
X29005Y16061D01*
X28999Y16054D01*
X28994Y16047D01*
X28988Y16042D01*
X28983Y16036D01*
X28979Y16031D01*
X28974Y16027D01*
X28970Y16024D01*
X28967Y16021D01*
X28964Y16018D01*
X28961Y16017D01*
X28960Y16016D01*
X28960Y16016D01*
X28952Y16011D01*
X28944Y16007D01*
X28936Y16003D01*
X28928Y16000D01*
X28913Y15995D01*
X28899Y15992D01*
X28892Y15991D01*
X28887Y15990D01*
X28882Y15990D01*
X28877Y15989D01*
X28874Y15988D01*
X28871D01*
X28869D01*
X28869D01*
X28853Y15990D01*
X28838Y15992D01*
X28825Y15996D01*
X28813Y15999D01*
X28808Y16002D01*
X28803Y16003D01*
X28799Y16006D01*
X28796Y16007D01*
X28793Y16008D01*
X28791Y16009D01*
X28790Y16011D01*
X28790D01*
X28777Y16020D01*
X28765Y16031D01*
X28755Y16042D01*
X28747Y16053D01*
X28739Y16063D01*
X28737Y16068D01*
X28734Y16071D01*
X28733Y16074D01*
X28731Y16076D01*
X28730Y16078D01*
X28730Y16079D01*
X28727Y16086D01*
X28723Y16094D01*
X28719Y16103D01*
X28716Y16113D01*
X28709Y16133D01*
X28703Y16154D01*
X28701Y16163D01*
X28698Y16172D01*
X28696Y16181D01*
X28694Y16188D01*
X28692Y16194D01*
X28691Y16198D01*
X28690Y16201D01*
Y16202D01*
X28686Y16218D01*
X28683Y16233D01*
X28680Y16246D01*
X28676Y16257D01*
X28673Y16268D01*
X28671Y16277D01*
X28668Y16286D01*
X28667Y16293D01*
X28665Y16299D01*
X28663Y16304D01*
X28662Y16308D01*
X28661Y16311D01*
X28660Y16314D01*
X28660Y16316D01*
X28659Y16316D01*
Y16317D01*
X28653Y16331D01*
X28647Y16343D01*
X28641Y16353D01*
X28635Y16360D01*
X28629Y16367D01*
X28625Y16371D01*
X28622Y16374D01*
X28621Y16374D01*
X28613Y16380D01*
X28604Y16385D01*
X28595Y16388D01*
X28587Y16390D01*
X28580Y16391D01*
X28574Y16392D01*
X28572D01*
X28570D01*
X28570D01*
X28569D01*
X28558Y16392D01*
X28548Y16389D01*
X28539Y16387D01*
X28531Y16383D01*
X28524Y16379D01*
X28519Y16377D01*
X28516Y16374D01*
X28515Y16374D01*
X28514D01*
X28506Y16366D01*
X28498Y16357D01*
X28491Y16348D01*
X28486Y16339D01*
X28481Y16331D01*
X28478Y16324D01*
X28477Y16322D01*
X28476Y16320D01*
X28475Y16319D01*
Y16318D01*
X28470Y16304D01*
X28467Y16290D01*
X28464Y16275D01*
X28462Y16262D01*
X28462Y16256D01*
X28461Y16250D01*
Y16245D01*
X28461Y16241D01*
Y16233D01*
X28461Y16213D01*
X28464Y16194D01*
X28467Y16178D01*
X28469Y16171D01*
X28470Y16163D01*
X28472Y16157D01*
X28474Y16151D01*
X28475Y16146D01*
X28477Y16142D01*
X28478Y16139D01*
X28479Y16137D01*
X28480Y16135D01*
Y16135D01*
X28487Y16120D01*
X28495Y16106D01*
X28503Y16095D01*
X28512Y16086D01*
X28519Y16079D01*
X28524Y16074D01*
X28527Y16073D01*
X28528Y16071D01*
X28529Y16070D01*
X28529D01*
X28542Y16063D01*
X28555Y16058D01*
X28568Y16053D01*
X28581Y16050D01*
X28586Y16048D01*
X28592Y16047D01*
X28596Y16046D01*
X28601Y16045D01*
X28604Y16045D01*
X28606D01*
X28608Y16044D01*
X28609D01*
X28601Y15965D01*
X28590Y15965D01*
X28578Y15967D01*
X28557Y15971D01*
X28546Y15973D01*
X28537Y15976D01*
X28528Y15980D01*
X28520Y15983D01*
X28512Y15986D01*
X28506Y15989D01*
X28500Y15992D01*
X28495Y15994D01*
X28491Y15996D01*
X28488Y15998D01*
X28487Y15999D01*
X28486Y15999D01*
X28477Y16006D01*
X28469Y16013D01*
X28461Y16021D01*
X28453Y16028D01*
X28446Y16035D01*
X28440Y16043D01*
X28435Y16050D01*
X28429Y16058D01*
X28425Y16065D01*
X28421Y16071D01*
X28418Y16077D01*
X28415Y16082D01*
X28413Y16086D01*
X28412Y16089D01*
X28411Y16091D01*
X28410Y16091D01*
X28406Y16102D01*
X28402Y16115D01*
X28396Y16139D01*
X28392Y16163D01*
X28390Y16175D01*
X28389Y16186D01*
X28388Y16197D01*
X28387Y16207D01*
X28386Y16215D01*
Y16223D01*
X28385Y16229D01*
Y16237D01*
X28386Y16250D01*
X28387Y16262D01*
X28388Y16274D01*
X28389Y16285D01*
X28391Y16296D01*
X28393Y16306D01*
X28395Y16315D01*
X28398Y16324D01*
X28400Y16332D01*
X28403Y16339D01*
X28405Y16345D01*
X28407Y16351D01*
X28408Y16354D01*
X28409Y16358D01*
X28410Y16359D01*
Y16360D01*
X28415Y16370D01*
X28420Y16379D01*
X28426Y16388D01*
X28432Y16396D01*
X28438Y16404D01*
X28444Y16411D01*
X28449Y16417D01*
X28455Y16423D01*
X28460Y16427D01*
X28465Y16432D01*
X28469Y16436D01*
X28473Y16439D01*
X28476Y16441D01*
X28478Y16443D01*
X28480Y16444D01*
X28480Y16444D01*
X28488Y16449D01*
X28497Y16454D01*
X28506Y16458D01*
X28514Y16461D01*
X28530Y16466D01*
X28545Y16470D01*
X28552Y16471D01*
X28558Y16472D01*
X28563Y16472D01*
X28567Y16473D01*
X28571Y16473D01*
X28574D01*
X28575D01*
X28576D01*
X28585Y16473D01*
D02*
G37*
G36*
X29034Y15760D02*
X28396D01*
Y15844D01*
X29034D01*
Y15760D01*
D02*
G37*
G36*
Y15496D02*
X28590Y15343D01*
X28578Y15338D01*
X28566Y15334D01*
X28555Y15331D01*
X28545Y15328D01*
X28536Y15324D01*
X28528Y15322D01*
X28520Y15319D01*
X28513Y15317D01*
X28507Y15315D01*
X28502Y15313D01*
X28497Y15312D01*
X28494Y15311D01*
X28491Y15310D01*
X28489Y15309D01*
X28488Y15308D01*
X28487D01*
X28493Y15307D01*
X28501Y15305D01*
X28516Y15300D01*
X28531Y15295D01*
X28547Y15290D01*
X28554Y15287D01*
X28560Y15285D01*
X28567Y15283D01*
X28572Y15281D01*
X28576Y15280D01*
X28579Y15279D01*
X28581Y15278D01*
X28582D01*
X29034Y15127D01*
Y15000D01*
X28396D01*
Y15081D01*
X28940D01*
X28396Y15266D01*
Y15342D01*
X28930Y15528D01*
X28396D01*
Y15610D01*
X29034D01*
Y15496D01*
D02*
G37*
G36*
X26240Y17049D02*
X25602D01*
Y17133D01*
X26240D01*
Y17049D01*
D02*
G37*
G36*
X25791Y16919D02*
X25801Y16918D01*
X25818Y16915D01*
X25833Y16911D01*
X25840Y16908D01*
X25847Y16906D01*
X25852Y16903D01*
X25858Y16901D01*
X25862Y16898D01*
X25866Y16896D01*
X25869Y16895D01*
X25871Y16893D01*
X25872Y16893D01*
X25873Y16892D01*
X25880Y16887D01*
X25887Y16881D01*
X25899Y16868D01*
X25911Y16854D01*
X25920Y16841D01*
X25924Y16835D01*
X25928Y16829D01*
X25931Y16824D01*
X25934Y16819D01*
X25935Y16816D01*
X25937Y16812D01*
X25938Y16811D01*
X25938Y16810D01*
X25941Y16802D01*
X25945Y16793D01*
X25948Y16782D01*
X25952Y16771D01*
X25959Y16748D01*
X25965Y16724D01*
X25967Y16713D01*
X25970Y16703D01*
X25972Y16693D01*
X25975Y16684D01*
X25976Y16678D01*
X25977Y16672D01*
X25979Y16669D01*
Y16668D01*
X25983Y16650D01*
X25987Y16633D01*
X25991Y16618D01*
X25996Y16605D01*
X26000Y16593D01*
X26003Y16583D01*
X26007Y16573D01*
X26010Y16565D01*
X26013Y16559D01*
X26016Y16554D01*
X26018Y16549D01*
X26020Y16546D01*
X26022Y16543D01*
X26023Y16542D01*
X26024Y16541D01*
Y16540D01*
X26028Y16536D01*
X26033Y16532D01*
X26042Y16526D01*
X26052Y16522D01*
X26060Y16519D01*
X26068Y16517D01*
X26075Y16516D01*
X26077Y16516D01*
X26079D01*
X26080D01*
X26080D01*
X26088Y16516D01*
X26095Y16517D01*
X26101Y16519D01*
X26108Y16521D01*
X26120Y16527D01*
X26130Y16533D01*
X26137Y16539D01*
X26141Y16542D01*
X26144Y16545D01*
X26146Y16547D01*
X26147Y16549D01*
X26148Y16550D01*
X26149Y16550D01*
X26153Y16558D01*
X26158Y16565D01*
X26162Y16574D01*
X26165Y16583D01*
X26170Y16601D01*
X26173Y16620D01*
X26175Y16628D01*
X26175Y16637D01*
X26176Y16644D01*
X26176Y16650D01*
X26177Y16656D01*
Y16663D01*
X26176Y16676D01*
X26176Y16689D01*
X26174Y16700D01*
X26172Y16712D01*
X26170Y16722D01*
X26167Y16730D01*
X26164Y16739D01*
X26161Y16746D01*
X26158Y16753D01*
X26156Y16759D01*
X26153Y16763D01*
X26151Y16767D01*
X26149Y16770D01*
X26147Y16772D01*
X26146Y16774D01*
X26146Y16774D01*
X26140Y16781D01*
X26133Y16787D01*
X26126Y16792D01*
X26119Y16797D01*
X26111Y16801D01*
X26103Y16805D01*
X26089Y16811D01*
X26082Y16813D01*
X26075Y16815D01*
X26069Y16816D01*
X26064Y16817D01*
X26060Y16818D01*
X26057Y16818D01*
X26055Y16819D01*
X26054D01*
X26060Y16900D01*
X26071Y16899D01*
X26081Y16898D01*
X26100Y16894D01*
X26109Y16892D01*
X26117Y16889D01*
X26125Y16886D01*
X26131Y16883D01*
X26138Y16880D01*
X26144Y16878D01*
X26149Y16875D01*
X26153Y16873D01*
X26156Y16871D01*
X26158Y16869D01*
X26160Y16869D01*
X26161Y16868D01*
X26169Y16863D01*
X26177Y16856D01*
X26190Y16843D01*
X26202Y16829D01*
X26211Y16816D01*
X26216Y16809D01*
X26219Y16803D01*
X26222Y16798D01*
X26224Y16794D01*
X26226Y16790D01*
X26227Y16787D01*
X26228Y16785D01*
Y16785D01*
X26236Y16764D01*
X26242Y16742D01*
X26246Y16721D01*
X26248Y16711D01*
X26249Y16702D01*
X26250Y16693D01*
X26250Y16684D01*
X26251Y16677D01*
Y16671D01*
X26252Y16666D01*
Y16659D01*
X26250Y16636D01*
X26248Y16614D01*
X26247Y16603D01*
X26244Y16594D01*
X26243Y16585D01*
X26240Y16576D01*
X26238Y16569D01*
X26237Y16562D01*
X26234Y16556D01*
X26233Y16551D01*
X26232Y16547D01*
X26230Y16544D01*
X26229Y16542D01*
Y16542D01*
X26225Y16532D01*
X26221Y16523D01*
X26216Y16514D01*
X26211Y16507D01*
X26205Y16499D01*
X26200Y16493D01*
X26194Y16487D01*
X26190Y16482D01*
X26185Y16477D01*
X26180Y16473D01*
X26176Y16470D01*
X26173Y16466D01*
X26170Y16464D01*
X26167Y16462D01*
X26166Y16462D01*
X26166Y16461D01*
X26158Y16456D01*
X26150Y16452D01*
X26142Y16449D01*
X26134Y16446D01*
X26119Y16441D01*
X26105Y16437D01*
X26098Y16436D01*
X26093Y16436D01*
X26088Y16435D01*
X26083Y16435D01*
X26080Y16434D01*
X26077D01*
X26075D01*
X26075D01*
X26059Y16435D01*
X26044Y16437D01*
X26031Y16441D01*
X26019Y16445D01*
X26014Y16447D01*
X26009Y16449D01*
X26005Y16451D01*
X26002Y16453D01*
X25999Y16454D01*
X25997Y16455D01*
X25996Y16456D01*
X25996D01*
X25983Y16466D01*
X25971Y16477D01*
X25961Y16488D01*
X25952Y16499D01*
X25945Y16509D01*
X25943Y16513D01*
X25940Y16517D01*
X25939Y16520D01*
X25937Y16522D01*
X25936Y16524D01*
X25936Y16524D01*
X25933Y16532D01*
X25929Y16540D01*
X25925Y16549D01*
X25922Y16559D01*
X25915Y16579D01*
X25909Y16600D01*
X25907Y16609D01*
X25904Y16618D01*
X25902Y16626D01*
X25900Y16633D01*
X25898Y16640D01*
X25897Y16644D01*
X25896Y16647D01*
Y16648D01*
X25892Y16664D01*
X25889Y16678D01*
X25885Y16692D01*
X25882Y16703D01*
X25879Y16714D01*
X25877Y16723D01*
X25874Y16731D01*
X25873Y16739D01*
X25871Y16745D01*
X25869Y16750D01*
X25868Y16754D01*
X25867Y16757D01*
X25866Y16760D01*
X25866Y16761D01*
X25865Y16762D01*
Y16762D01*
X25859Y16776D01*
X25853Y16789D01*
X25847Y16798D01*
X25841Y16806D01*
X25835Y16812D01*
X25831Y16817D01*
X25828Y16820D01*
X25827Y16820D01*
X25819Y16826D01*
X25810Y16831D01*
X25801Y16833D01*
X25793Y16836D01*
X25786Y16837D01*
X25780Y16838D01*
X25778D01*
X25776D01*
X25776D01*
X25775D01*
X25764Y16837D01*
X25754Y16835D01*
X25745Y16832D01*
X25737Y16829D01*
X25730Y16825D01*
X25725Y16822D01*
X25722Y16820D01*
X25721Y16820D01*
X25720D01*
X25712Y16812D01*
X25704Y16803D01*
X25697Y16794D01*
X25692Y16785D01*
X25687Y16777D01*
X25684Y16770D01*
X25683Y16767D01*
X25682Y16766D01*
X25681Y16765D01*
Y16764D01*
X25676Y16750D01*
X25673Y16735D01*
X25670Y16721D01*
X25668Y16708D01*
X25668Y16702D01*
X25667Y16696D01*
Y16691D01*
X25667Y16687D01*
Y16679D01*
X25667Y16659D01*
X25670Y16640D01*
X25673Y16624D01*
X25675Y16616D01*
X25676Y16609D01*
X25678Y16602D01*
X25680Y16597D01*
X25681Y16592D01*
X25683Y16588D01*
X25684Y16585D01*
X25685Y16583D01*
X25686Y16581D01*
Y16580D01*
X25693Y16565D01*
X25701Y16552D01*
X25709Y16541D01*
X25718Y16532D01*
X25725Y16525D01*
X25730Y16520D01*
X25733Y16518D01*
X25734Y16517D01*
X25735Y16516D01*
X25735D01*
X25748Y16509D01*
X25761Y16503D01*
X25774Y16499D01*
X25787Y16496D01*
X25792Y16494D01*
X25798Y16493D01*
X25802Y16492D01*
X25807Y16491D01*
X25810Y16491D01*
X25812D01*
X25814Y16490D01*
X25815D01*
X25807Y16410D01*
X25796Y16411D01*
X25784Y16413D01*
X25763Y16416D01*
X25752Y16419D01*
X25743Y16422D01*
X25734Y16425D01*
X25726Y16429D01*
X25718Y16431D01*
X25712Y16435D01*
X25706Y16437D01*
X25701Y16440D01*
X25697Y16442D01*
X25694Y16444D01*
X25693Y16445D01*
X25692Y16445D01*
X25683Y16452D01*
X25675Y16458D01*
X25667Y16466D01*
X25659Y16473D01*
X25652Y16481D01*
X25646Y16489D01*
X25641Y16496D01*
X25635Y16504D01*
X25631Y16511D01*
X25627Y16517D01*
X25624Y16523D01*
X25621Y16528D01*
X25619Y16532D01*
X25618Y16534D01*
X25617Y16537D01*
X25616Y16537D01*
X25612Y16548D01*
X25608Y16560D01*
X25602Y16585D01*
X25598Y16609D01*
X25596Y16621D01*
X25595Y16632D01*
X25594Y16642D01*
X25593Y16652D01*
X25592Y16661D01*
Y16668D01*
X25591Y16674D01*
Y16683D01*
X25592Y16695D01*
X25593Y16708D01*
X25594Y16719D01*
X25595Y16731D01*
X25597Y16741D01*
X25599Y16751D01*
X25601Y16761D01*
X25604Y16770D01*
X25606Y16777D01*
X25609Y16785D01*
X25611Y16791D01*
X25613Y16796D01*
X25614Y16800D01*
X25615Y16803D01*
X25616Y16805D01*
Y16806D01*
X25621Y16816D01*
X25626Y16825D01*
X25632Y16834D01*
X25638Y16842D01*
X25644Y16849D01*
X25650Y16857D01*
X25655Y16863D01*
X25661Y16868D01*
X25666Y16873D01*
X25671Y16878D01*
X25675Y16882D01*
X25679Y16884D01*
X25682Y16887D01*
X25684Y16889D01*
X25686Y16889D01*
X25686Y16890D01*
X25694Y16895D01*
X25703Y16900D01*
X25712Y16904D01*
X25720Y16907D01*
X25736Y16912D01*
X25751Y16915D01*
X25758Y16917D01*
X25764Y16918D01*
X25769Y16918D01*
X25773Y16919D01*
X25777Y16919D01*
X25780D01*
X25781D01*
X25782D01*
X25791Y16919D01*
D02*
G37*
G36*
X25938Y16330D02*
X25955Y16329D01*
X25971Y16327D01*
X25987Y16324D01*
X26002Y16322D01*
X26016Y16319D01*
X26029Y16315D01*
X26042Y16312D01*
X26052Y16308D01*
X26062Y16305D01*
X26070Y16302D01*
X26078Y16299D01*
X26083Y16296D01*
X26088Y16295D01*
X26090Y16293D01*
X26091Y16293D01*
X26105Y16286D01*
X26118Y16277D01*
X26130Y16269D01*
X26141Y16260D01*
X26152Y16251D01*
X26162Y16243D01*
X26171Y16234D01*
X26178Y16225D01*
X26186Y16217D01*
X26192Y16209D01*
X26197Y16203D01*
X26201Y16197D01*
X26204Y16192D01*
X26207Y16188D01*
X26208Y16186D01*
X26209Y16185D01*
X26217Y16172D01*
X26223Y16158D01*
X26229Y16144D01*
X26234Y16130D01*
X26238Y16117D01*
X26241Y16104D01*
X26244Y16091D01*
X26246Y16079D01*
X26248Y16068D01*
X26249Y16057D01*
X26250Y16048D01*
X26251Y16040D01*
X26252Y16034D01*
Y16025D01*
X26250Y16001D01*
X26248Y15977D01*
X26243Y15955D01*
X26238Y15934D01*
X26230Y15915D01*
X26223Y15896D01*
X26215Y15880D01*
X26207Y15865D01*
X26198Y15851D01*
X26190Y15839D01*
X26182Y15829D01*
X26176Y15821D01*
X26170Y15814D01*
X26165Y15809D01*
X26162Y15806D01*
X26161Y15805D01*
X26144Y15790D01*
X26125Y15777D01*
X26105Y15766D01*
X26085Y15756D01*
X26064Y15748D01*
X26043Y15741D01*
X26023Y15735D01*
X26003Y15730D01*
X25985Y15727D01*
X25967Y15724D01*
X25952Y15723D01*
X25945Y15722D01*
X25939Y15721D01*
X25933D01*
X25928Y15720D01*
X25923D01*
X25920Y15720D01*
X25917D01*
X25914D01*
X25913D01*
X25913D01*
X25897Y15720D01*
X25882Y15722D01*
X25867Y15723D01*
X25852Y15725D01*
X25839Y15728D01*
X25826Y15731D01*
X25814Y15735D01*
X25802Y15738D01*
X25791Y15741D01*
X25782Y15745D01*
X25774Y15748D01*
X25767Y15751D01*
X25761Y15753D01*
X25757Y15755D01*
X25755Y15756D01*
X25754Y15756D01*
X25740Y15764D01*
X25727Y15771D01*
X25715Y15780D01*
X25703Y15788D01*
X25693Y15797D01*
X25683Y15806D01*
X25674Y15815D01*
X25666Y15824D01*
X25659Y15832D01*
X25652Y15839D01*
X25647Y15846D01*
X25643Y15852D01*
X25639Y15857D01*
X25637Y15860D01*
X25635Y15863D01*
X25635Y15864D01*
X25627Y15877D01*
X25620Y15891D01*
X25615Y15905D01*
X25610Y15919D01*
X25605Y15932D01*
X25602Y15946D01*
X25599Y15959D01*
X25597Y15971D01*
X25595Y15982D01*
X25594Y15993D01*
X25593Y16002D01*
X25592Y16010D01*
Y16016D01*
X25591Y16021D01*
Y16025D01*
X25592Y16040D01*
X25593Y16055D01*
X25595Y16070D01*
X25598Y16084D01*
X25600Y16097D01*
X25604Y16111D01*
X25608Y16122D01*
X25611Y16133D01*
X25615Y16144D01*
X25619Y16153D01*
X25622Y16161D01*
X25625Y16167D01*
X25627Y16173D01*
X25629Y16177D01*
X25630Y16179D01*
X25631Y16180D01*
X25639Y16193D01*
X25647Y16205D01*
X25656Y16217D01*
X25666Y16228D01*
X25675Y16238D01*
X25684Y16247D01*
X25694Y16255D01*
X25703Y16262D01*
X25712Y16269D01*
X25720Y16275D01*
X25728Y16280D01*
X25734Y16284D01*
X25739Y16287D01*
X25743Y16290D01*
X25745Y16291D01*
X25747Y16291D01*
X25761Y16298D01*
X25776Y16304D01*
X25791Y16310D01*
X25806Y16314D01*
X25821Y16318D01*
X25835Y16321D01*
X25849Y16323D01*
X25862Y16326D01*
X25874Y16327D01*
X25885Y16328D01*
X25895Y16329D01*
X25904Y16330D01*
X25911Y16331D01*
X25916D01*
X25919D01*
X25920D01*
X25938Y16330D01*
D02*
G37*
G36*
X26240Y15496D02*
X25796Y15343D01*
X25784Y15338D01*
X25772Y15334D01*
X25761Y15331D01*
X25751Y15328D01*
X25742Y15324D01*
X25734Y15322D01*
X25726Y15319D01*
X25719Y15317D01*
X25713Y15315D01*
X25708Y15313D01*
X25703Y15312D01*
X25700Y15311D01*
X25697Y15310D01*
X25695Y15309D01*
X25694Y15308D01*
X25693D01*
X25699Y15307D01*
X25707Y15305D01*
X25722Y15300D01*
X25737Y15295D01*
X25753Y15290D01*
X25760Y15287D01*
X25766Y15285D01*
X25773Y15283D01*
X25778Y15281D01*
X25782Y15280D01*
X25785Y15279D01*
X25787Y15278D01*
X25788D01*
X26240Y15127D01*
Y15000D01*
X25602D01*
Y15081D01*
X26146D01*
X25602Y15266D01*
Y15342D01*
X26136Y15528D01*
X25602D01*
Y15610D01*
X26240D01*
Y15496D01*
D02*
G37*
G36*
X21160Y16190D02*
X21085D01*
Y16400D01*
X20522D01*
Y16485D01*
X21085D01*
Y16697D01*
X21160D01*
Y16190D01*
D02*
G37*
G36*
X20711Y16122D02*
X20721Y16121D01*
X20738Y16118D01*
X20753Y16114D01*
X20760Y16111D01*
X20767Y16109D01*
X20772Y16106D01*
X20778Y16104D01*
X20782Y16101D01*
X20786Y16100D01*
X20789Y16098D01*
X20791Y16096D01*
X20792Y16096D01*
X20793Y16095D01*
X20800Y16090D01*
X20807Y16084D01*
X20819Y16071D01*
X20831Y16058D01*
X20840Y16044D01*
X20844Y16038D01*
X20848Y16032D01*
X20851Y16027D01*
X20854Y16022D01*
X20855Y16019D01*
X20857Y16016D01*
X20858Y16014D01*
X20858Y16013D01*
X20861Y16006D01*
X20865Y15996D01*
X20868Y15986D01*
X20872Y15975D01*
X20879Y15951D01*
X20885Y15927D01*
X20887Y15916D01*
X20890Y15906D01*
X20892Y15896D01*
X20895Y15888D01*
X20896Y15881D01*
X20897Y15875D01*
X20899Y15872D01*
Y15871D01*
X20903Y15853D01*
X20907Y15836D01*
X20911Y15821D01*
X20916Y15808D01*
X20920Y15796D01*
X20923Y15786D01*
X20927Y15776D01*
X20930Y15769D01*
X20933Y15762D01*
X20936Y15757D01*
X20938Y15752D01*
X20940Y15749D01*
X20942Y15746D01*
X20943Y15745D01*
X20944Y15744D01*
Y15744D01*
X20948Y15739D01*
X20953Y15735D01*
X20962Y15729D01*
X20972Y15725D01*
X20980Y15722D01*
X20988Y15720D01*
X20995Y15719D01*
X20997Y15719D01*
X20999D01*
X21000D01*
X21000D01*
X21008Y15719D01*
X21015Y15720D01*
X21021Y15722D01*
X21028Y15724D01*
X21040Y15730D01*
X21050Y15736D01*
X21057Y15743D01*
X21061Y15745D01*
X21064Y15748D01*
X21066Y15750D01*
X21067Y15752D01*
X21068Y15753D01*
X21069Y15754D01*
X21073Y15761D01*
X21078Y15769D01*
X21082Y15777D01*
X21085Y15786D01*
X21090Y15805D01*
X21093Y15823D01*
X21095Y15832D01*
X21095Y15840D01*
X21096Y15847D01*
X21096Y15853D01*
X21097Y15859D01*
Y15866D01*
X21096Y15879D01*
X21096Y15892D01*
X21094Y15904D01*
X21092Y15915D01*
X21090Y15925D01*
X21087Y15934D01*
X21084Y15942D01*
X21081Y15949D01*
X21078Y15956D01*
X21076Y15962D01*
X21073Y15966D01*
X21071Y15970D01*
X21069Y15973D01*
X21067Y15976D01*
X21066Y15977D01*
X21066Y15977D01*
X21060Y15984D01*
X21053Y15990D01*
X21046Y15996D01*
X21039Y16001D01*
X21031Y16004D01*
X21023Y16008D01*
X21009Y16014D01*
X21002Y16016D01*
X20995Y16018D01*
X20989Y16019D01*
X20984Y16021D01*
X20980Y16021D01*
X20977Y16022D01*
X20975Y16022D01*
X20974D01*
X20980Y16103D01*
X20991Y16102D01*
X21001Y16101D01*
X21020Y16097D01*
X21029Y16095D01*
X21037Y16092D01*
X21045Y16089D01*
X21051Y16086D01*
X21058Y16084D01*
X21064Y16081D01*
X21069Y16078D01*
X21073Y16076D01*
X21076Y16074D01*
X21078Y16073D01*
X21080Y16072D01*
X21081Y16071D01*
X21089Y16066D01*
X21097Y16059D01*
X21110Y16046D01*
X21122Y16032D01*
X21131Y16019D01*
X21136Y16012D01*
X21139Y16007D01*
X21142Y16001D01*
X21144Y15997D01*
X21146Y15993D01*
X21147Y15990D01*
X21148Y15988D01*
Y15988D01*
X21156Y15967D01*
X21162Y15945D01*
X21166Y15924D01*
X21168Y15914D01*
X21169Y15905D01*
X21170Y15896D01*
X21170Y15888D01*
X21171Y15880D01*
Y15874D01*
X21172Y15869D01*
Y15862D01*
X21170Y15839D01*
X21168Y15817D01*
X21167Y15806D01*
X21164Y15797D01*
X21163Y15788D01*
X21160Y15780D01*
X21158Y15772D01*
X21157Y15765D01*
X21154Y15759D01*
X21153Y15754D01*
X21152Y15750D01*
X21150Y15747D01*
X21149Y15745D01*
Y15745D01*
X21145Y15735D01*
X21140Y15726D01*
X21136Y15718D01*
X21131Y15710D01*
X21125Y15703D01*
X21120Y15696D01*
X21114Y15690D01*
X21110Y15685D01*
X21105Y15680D01*
X21100Y15676D01*
X21096Y15673D01*
X21093Y15669D01*
X21090Y15667D01*
X21087Y15666D01*
X21086Y15665D01*
X21086Y15664D01*
X21078Y15659D01*
X21070Y15656D01*
X21062Y15652D01*
X21054Y15649D01*
X21039Y15644D01*
X21025Y15641D01*
X21018Y15640D01*
X21013Y15639D01*
X21008Y15638D01*
X21003Y15638D01*
X21000Y15637D01*
X20997D01*
X20995D01*
X20995D01*
X20979Y15638D01*
X20964Y15641D01*
X20951Y15645D01*
X20939Y15648D01*
X20934Y15651D01*
X20929Y15652D01*
X20925Y15654D01*
X20922Y15656D01*
X20919Y15657D01*
X20917Y15658D01*
X20916Y15659D01*
X20916D01*
X20903Y15669D01*
X20891Y15680D01*
X20881Y15691D01*
X20872Y15702D01*
X20865Y15712D01*
X20863Y15717D01*
X20860Y15720D01*
X20859Y15723D01*
X20857Y15725D01*
X20856Y15727D01*
X20856Y15728D01*
X20853Y15735D01*
X20849Y15743D01*
X20845Y15752D01*
X20842Y15762D01*
X20835Y15782D01*
X20829Y15803D01*
X20827Y15812D01*
X20824Y15821D01*
X20822Y15829D01*
X20820Y15837D01*
X20818Y15843D01*
X20817Y15847D01*
X20816Y15850D01*
Y15851D01*
X20812Y15867D01*
X20809Y15882D01*
X20806Y15895D01*
X20802Y15906D01*
X20799Y15917D01*
X20797Y15926D01*
X20794Y15935D01*
X20793Y15942D01*
X20791Y15948D01*
X20789Y15953D01*
X20788Y15957D01*
X20787Y15960D01*
X20786Y15963D01*
X20786Y15965D01*
X20785Y15965D01*
Y15966D01*
X20779Y15980D01*
X20773Y15992D01*
X20767Y16002D01*
X20761Y16009D01*
X20755Y16016D01*
X20751Y16020D01*
X20748Y16023D01*
X20747Y16023D01*
X20739Y16029D01*
X20730Y16034D01*
X20721Y16037D01*
X20713Y16039D01*
X20706Y16040D01*
X20700Y16041D01*
X20698D01*
X20696D01*
X20696D01*
X20695D01*
X20684Y16040D01*
X20674Y16038D01*
X20665Y16035D01*
X20657Y16032D01*
X20650Y16028D01*
X20645Y16025D01*
X20642Y16023D01*
X20641Y16023D01*
X20640D01*
X20632Y16015D01*
X20624Y16006D01*
X20617Y15997D01*
X20612Y15988D01*
X20607Y15980D01*
X20604Y15973D01*
X20603Y15971D01*
X20602Y15969D01*
X20601Y15968D01*
Y15967D01*
X20596Y15953D01*
X20593Y15939D01*
X20590Y15924D01*
X20588Y15911D01*
X20588Y15905D01*
X20587Y15899D01*
Y15894D01*
X20587Y15890D01*
Y15882D01*
X20587Y15862D01*
X20590Y15843D01*
X20593Y15827D01*
X20595Y15819D01*
X20596Y15812D01*
X20598Y15806D01*
X20600Y15800D01*
X20601Y15795D01*
X20603Y15791D01*
X20604Y15788D01*
X20605Y15786D01*
X20606Y15784D01*
Y15784D01*
X20613Y15769D01*
X20621Y15755D01*
X20629Y15744D01*
X20638Y15735D01*
X20645Y15728D01*
X20650Y15723D01*
X20653Y15722D01*
X20654Y15720D01*
X20655Y15719D01*
X20655D01*
X20668Y15712D01*
X20681Y15707D01*
X20694Y15702D01*
X20707Y15699D01*
X20712Y15697D01*
X20718Y15696D01*
X20722Y15695D01*
X20727Y15694D01*
X20730Y15694D01*
X20732D01*
X20734Y15693D01*
X20735D01*
X20727Y15614D01*
X20716Y15614D01*
X20704Y15616D01*
X20683Y15620D01*
X20672Y15622D01*
X20663Y15625D01*
X20654Y15628D01*
X20646Y15632D01*
X20638Y15635D01*
X20632Y15638D01*
X20626Y15641D01*
X20621Y15643D01*
X20617Y15645D01*
X20614Y15647D01*
X20613Y15648D01*
X20612Y15648D01*
X20603Y15655D01*
X20595Y15662D01*
X20587Y15669D01*
X20579Y15677D01*
X20572Y15684D01*
X20566Y15692D01*
X20561Y15699D01*
X20555Y15707D01*
X20551Y15714D01*
X20547Y15720D01*
X20544Y15726D01*
X20541Y15731D01*
X20539Y15735D01*
X20538Y15738D01*
X20537Y15740D01*
X20536Y15740D01*
X20532Y15751D01*
X20528Y15764D01*
X20522Y15788D01*
X20518Y15812D01*
X20516Y15824D01*
X20515Y15835D01*
X20514Y15846D01*
X20513Y15856D01*
X20512Y15864D01*
Y15872D01*
X20511Y15878D01*
Y15886D01*
X20512Y15899D01*
X20513Y15911D01*
X20514Y15922D01*
X20515Y15934D01*
X20517Y15945D01*
X20519Y15955D01*
X20521Y15964D01*
X20524Y15973D01*
X20526Y15981D01*
X20529Y15988D01*
X20531Y15994D01*
X20533Y15999D01*
X20534Y16003D01*
X20535Y16007D01*
X20536Y16008D01*
Y16009D01*
X20541Y16019D01*
X20546Y16028D01*
X20552Y16037D01*
X20558Y16045D01*
X20564Y16053D01*
X20570Y16060D01*
X20575Y16066D01*
X20581Y16071D01*
X20586Y16076D01*
X20591Y16081D01*
X20595Y16085D01*
X20599Y16087D01*
X20602Y16090D01*
X20604Y16092D01*
X20606Y16092D01*
X20606Y16093D01*
X20614Y16098D01*
X20623Y16103D01*
X20632Y16107D01*
X20640Y16110D01*
X20656Y16115D01*
X20671Y16119D01*
X20678Y16120D01*
X20684Y16121D01*
X20689Y16121D01*
X20693Y16122D01*
X20697Y16122D01*
X20700D01*
X20701D01*
X20702D01*
X20711Y16122D01*
D02*
G37*
G36*
X20696Y15451D02*
X20714Y15439D01*
X20731Y15426D01*
X20745Y15414D01*
X20751Y15409D01*
X20757Y15404D01*
X20763Y15399D01*
X20767Y15394D01*
X20771Y15390D01*
X20774Y15387D01*
X20777Y15385D01*
X20779Y15383D01*
X20780Y15382D01*
X20781Y15381D01*
X20787Y15374D01*
X20792Y15366D01*
X20798Y15357D01*
X20803Y15349D01*
X20807Y15342D01*
X20810Y15336D01*
X20811Y15333D01*
X20812Y15332D01*
X20813Y15331D01*
Y15330D01*
X20815Y15347D01*
X20819Y15362D01*
X20823Y15377D01*
X20827Y15390D01*
X20832Y15402D01*
X20837Y15414D01*
X20841Y15424D01*
X20846Y15432D01*
X20851Y15440D01*
X20856Y15447D01*
X20860Y15453D01*
X20864Y15457D01*
X20867Y15461D01*
X20869Y15463D01*
X20871Y15465D01*
X20871Y15466D01*
X20880Y15473D01*
X20890Y15480D01*
X20900Y15486D01*
X20909Y15491D01*
X20919Y15496D01*
X20928Y15499D01*
X20938Y15502D01*
X20946Y15504D01*
X20954Y15506D01*
X20962Y15508D01*
X20969Y15509D01*
X20975Y15509D01*
X20979Y15510D01*
X20983D01*
X20985D01*
X20986D01*
X20996Y15509D01*
X21005Y15509D01*
X21023Y15506D01*
X21040Y15502D01*
X21047Y15499D01*
X21054Y15497D01*
X21060Y15494D01*
X21065Y15492D01*
X21070Y15489D01*
X21074Y15488D01*
X21077Y15486D01*
X21080Y15484D01*
X21081Y15484D01*
X21082Y15483D01*
X21090Y15478D01*
X21097Y15473D01*
X21104Y15467D01*
X21110Y15461D01*
X21116Y15455D01*
X21121Y15449D01*
X21129Y15438D01*
X21135Y15428D01*
X21137Y15424D01*
X21139Y15420D01*
X21141Y15417D01*
X21142Y15415D01*
X21143Y15413D01*
Y15413D01*
X21146Y15404D01*
X21149Y15394D01*
X21151Y15384D01*
X21153Y15374D01*
X21156Y15352D01*
X21158Y15331D01*
X21159Y15321D01*
X21159Y15312D01*
X21160Y15304D01*
X21160Y15297D01*
Y15000D01*
X20522D01*
Y15085D01*
X20806D01*
Y15194D01*
X20805Y15203D01*
X20804Y15212D01*
X20804Y15218D01*
X20803Y15223D01*
X20803Y15226D01*
X20802Y15229D01*
Y15229D01*
X20800Y15236D01*
X20797Y15244D01*
X20794Y15250D01*
X20792Y15256D01*
X20789Y15260D01*
X20787Y15264D01*
X20786Y15267D01*
X20785Y15267D01*
X20780Y15275D01*
X20773Y15282D01*
X20766Y15290D01*
X20760Y15296D01*
X20753Y15302D01*
X20747Y15307D01*
X20745Y15308D01*
X20743Y15310D01*
X20743Y15311D01*
X20742D01*
X20736Y15315D01*
X20730Y15320D01*
X20716Y15330D01*
X20701Y15341D01*
X20687Y15350D01*
X20681Y15354D01*
X20675Y15359D01*
X20669Y15362D01*
X20664Y15365D01*
X20660Y15368D01*
X20658Y15370D01*
X20655Y15371D01*
X20655Y15372D01*
X20522Y15456D01*
Y15561D01*
X20696Y15451D01*
D02*
G37*
G36*
X35832Y18614D02*
X35831Y18606D01*
X35830Y18600D01*
X35830Y18594D01*
Y18589D01*
X35829Y18585D01*
Y18574D01*
X35830Y18568D01*
X35831Y18563D01*
X35832Y18560D01*
X35833Y18557D01*
X35833Y18554D01*
X35835Y18553D01*
Y18553D01*
X35839Y18547D01*
X35844Y18543D01*
X35846Y18541D01*
X35848Y18540D01*
X35849Y18539D01*
X35849D01*
X35854Y18538D01*
X35861Y18537D01*
X35868Y18537D01*
X35875Y18536D01*
X35882Y18535D01*
X35887D01*
X35889D01*
X35891D01*
X35892D01*
X35893D01*
X36164D01*
Y18614D01*
X36225D01*
Y18535D01*
X36386D01*
X36339Y18457D01*
X36225D01*
Y18399D01*
X36164D01*
Y18457D01*
X35897D01*
X35884D01*
X35873Y18457D01*
X35862Y18458D01*
X35853Y18459D01*
X35845Y18459D01*
X35837Y18460D01*
X35830Y18461D01*
X35825Y18462D01*
X35820Y18462D01*
X35815Y18464D01*
X35812Y18464D01*
X35809Y18465D01*
X35807Y18465D01*
X35806Y18466D01*
X35805Y18466D01*
X35805D01*
X35797Y18470D01*
X35790Y18475D01*
X35784Y18481D01*
X35779Y18486D01*
X35775Y18491D01*
X35771Y18495D01*
X35770Y18498D01*
X35769Y18499D01*
X35765Y18509D01*
X35761Y18519D01*
X35759Y18531D01*
X35758Y18541D01*
X35756Y18550D01*
Y18555D01*
X35756Y18558D01*
Y18565D01*
X35756Y18575D01*
X35757Y18586D01*
X35758Y18596D01*
X35759Y18605D01*
X35760Y18614D01*
X35761Y18620D01*
X35762Y18622D01*
X35763Y18624D01*
Y18625D01*
X35832Y18614D01*
D02*
G37*
G36*
X36225Y18241D02*
X35977D01*
X35966D01*
X35956Y18240D01*
X35946Y18240D01*
X35938Y18239D01*
X35929Y18238D01*
X35922Y18236D01*
X35915Y18235D01*
X35909Y18234D01*
X35904Y18233D01*
X35899Y18232D01*
X35895Y18231D01*
X35892Y18230D01*
X35889Y18229D01*
X35888Y18228D01*
X35887Y18228D01*
X35886D01*
X35875Y18222D01*
X35866Y18215D01*
X35857Y18208D01*
X35850Y18201D01*
X35844Y18194D01*
X35840Y18189D01*
X35838Y18187D01*
X35838Y18185D01*
X35837Y18184D01*
Y18184D01*
X35831Y18172D01*
X35827Y18161D01*
X35823Y18150D01*
X35821Y18140D01*
X35820Y18131D01*
X35820Y18127D01*
Y18124D01*
X35819Y18121D01*
Y18118D01*
X35820Y18105D01*
X35822Y18094D01*
X35825Y18084D01*
X35828Y18075D01*
X35831Y18068D01*
X35833Y18063D01*
X35836Y18060D01*
X35836Y18059D01*
Y18059D01*
X35843Y18050D01*
X35851Y18044D01*
X35859Y18038D01*
X35867Y18034D01*
X35874Y18031D01*
X35880Y18029D01*
X35882Y18029D01*
X35884Y18028D01*
X35884Y18028D01*
X35885D01*
X35889Y18027D01*
X35895Y18026D01*
X35900Y18026D01*
X35907Y18025D01*
X35921Y18024D01*
X35935Y18024D01*
X35947Y18023D01*
X35953D01*
X35958D01*
X35962D01*
X35965D01*
X35967D01*
X35968D01*
X36225D01*
Y17945D01*
X35938D01*
X35929D01*
X35920D01*
X35912Y17945D01*
X35905D01*
X35899Y17946D01*
X35893Y17946D01*
X35887D01*
X35882Y17947D01*
X35878Y17947D01*
X35874Y17948D01*
X35872D01*
X35869Y17949D01*
X35867D01*
X35866Y17949D01*
X35865D01*
X35864D01*
X35852Y17952D01*
X35841Y17956D01*
X35831Y17960D01*
X35822Y17964D01*
X35816Y17968D01*
X35811Y17971D01*
X35807Y17973D01*
X35807Y17973D01*
X35806D01*
X35798Y17981D01*
X35790Y17989D01*
X35784Y17998D01*
X35778Y18006D01*
X35773Y18014D01*
X35770Y18021D01*
X35769Y18023D01*
X35768Y18024D01*
X35767Y18026D01*
Y18026D01*
X35762Y18039D01*
X35758Y18053D01*
X35755Y18066D01*
X35754Y18078D01*
X35753Y18088D01*
X35752Y18092D01*
X35751Y18095D01*
Y18102D01*
X35753Y18120D01*
X35755Y18135D01*
X35759Y18151D01*
X35764Y18165D01*
X35770Y18177D01*
X35776Y18189D01*
X35783Y18201D01*
X35791Y18210D01*
X35798Y18219D01*
X35805Y18227D01*
X35811Y18234D01*
X35817Y18239D01*
X35822Y18244D01*
X35826Y18246D01*
X35828Y18249D01*
X35830Y18249D01*
X35762D01*
Y18320D01*
X36225D01*
Y18241D01*
D02*
G37*
G36*
X36098Y17847D02*
X36115Y17846D01*
X36131Y17844D01*
X36147Y17842D01*
X36162Y17839D01*
X36176Y17836D01*
X36189Y17832D01*
X36202Y17829D01*
X36212Y17826D01*
X36222Y17822D01*
X36230Y17819D01*
X36238Y17816D01*
X36243Y17813D01*
X36248Y17812D01*
X36250Y17811D01*
X36251Y17810D01*
X36265Y17803D01*
X36278Y17795D01*
X36290Y17786D01*
X36301Y17777D01*
X36312Y17769D01*
X36322Y17760D01*
X36331Y17751D01*
X36338Y17742D01*
X36346Y17734D01*
X36352Y17727D01*
X36357Y17720D01*
X36361Y17714D01*
X36364Y17709D01*
X36367Y17705D01*
X36368Y17703D01*
X36369Y17702D01*
X36377Y17689D01*
X36383Y17675D01*
X36389Y17661D01*
X36394Y17647D01*
X36398Y17634D01*
X36401Y17621D01*
X36404Y17608D01*
X36406Y17596D01*
X36408Y17585D01*
X36409Y17574D01*
X36410Y17565D01*
X36411Y17558D01*
X36412Y17552D01*
Y17543D01*
X36410Y17518D01*
X36408Y17495D01*
X36403Y17472D01*
X36398Y17451D01*
X36390Y17432D01*
X36383Y17414D01*
X36375Y17397D01*
X36367Y17382D01*
X36358Y17368D01*
X36350Y17357D01*
X36342Y17346D01*
X36336Y17338D01*
X36330Y17331D01*
X36325Y17326D01*
X36322Y17323D01*
X36321Y17322D01*
X36304Y17307D01*
X36285Y17294D01*
X36265Y17283D01*
X36245Y17273D01*
X36224Y17265D01*
X36203Y17258D01*
X36183Y17252D01*
X36163Y17248D01*
X36145Y17244D01*
X36127Y17241D01*
X36112Y17240D01*
X36105Y17239D01*
X36099Y17238D01*
X36093D01*
X36088Y17238D01*
X36083D01*
X36080Y17237D01*
X36077D01*
X36074D01*
X36073D01*
X36073D01*
X36057Y17238D01*
X36042Y17239D01*
X36027Y17240D01*
X36012Y17243D01*
X35999Y17245D01*
X35986Y17249D01*
X35974Y17252D01*
X35962Y17255D01*
X35951Y17259D01*
X35942Y17262D01*
X35934Y17265D01*
X35927Y17268D01*
X35921Y17270D01*
X35917Y17272D01*
X35915Y17273D01*
X35914Y17274D01*
X35900Y17281D01*
X35887Y17289D01*
X35875Y17297D01*
X35863Y17306D01*
X35853Y17315D01*
X35843Y17323D01*
X35834Y17332D01*
X35826Y17341D01*
X35819Y17349D01*
X35812Y17357D01*
X35807Y17363D01*
X35803Y17369D01*
X35799Y17374D01*
X35797Y17378D01*
X35795Y17380D01*
X35795Y17381D01*
X35787Y17394D01*
X35780Y17408D01*
X35775Y17422D01*
X35770Y17436D01*
X35765Y17450D01*
X35762Y17463D01*
X35759Y17476D01*
X35757Y17488D01*
X35755Y17499D01*
X35754Y17510D01*
X35753Y17519D01*
X35752Y17527D01*
Y17533D01*
X35751Y17538D01*
Y17542D01*
X35752Y17558D01*
X35753Y17573D01*
X35755Y17588D01*
X35758Y17601D01*
X35760Y17615D01*
X35764Y17628D01*
X35768Y17640D01*
X35771Y17651D01*
X35775Y17661D01*
X35779Y17670D01*
X35782Y17678D01*
X35785Y17684D01*
X35787Y17690D01*
X35789Y17694D01*
X35790Y17697D01*
X35791Y17697D01*
X35799Y17710D01*
X35807Y17723D01*
X35816Y17734D01*
X35826Y17745D01*
X35835Y17755D01*
X35845Y17764D01*
X35854Y17772D01*
X35863Y17780D01*
X35872Y17786D01*
X35880Y17792D01*
X35888Y17797D01*
X35894Y17801D01*
X35899Y17805D01*
X35903Y17807D01*
X35905Y17808D01*
X35907Y17808D01*
X35921Y17816D01*
X35936Y17821D01*
X35951Y17827D01*
X35966Y17831D01*
X35981Y17835D01*
X35995Y17838D01*
X36009Y17841D01*
X36022Y17843D01*
X36034Y17844D01*
X36046Y17846D01*
X36055Y17847D01*
X36064Y17847D01*
X36071Y17848D01*
X36076D01*
X36079D01*
X36080D01*
X36098Y17847D01*
D02*
G37*
G36*
X36032Y16677D02*
X35954D01*
Y16918D01*
X36032D01*
Y16677D01*
D02*
G37*
G36*
X35962Y16360D02*
X35972Y16359D01*
X35983Y16358D01*
X35992Y16355D01*
X36002Y16353D01*
X36010Y16351D01*
X36018Y16348D01*
X36025Y16345D01*
X36032Y16342D01*
X36037Y16339D01*
X36042Y16336D01*
X36046Y16334D01*
X36049Y16332D01*
X36052Y16330D01*
X36053Y16329D01*
X36053Y16329D01*
X36060Y16323D01*
X36067Y16316D01*
X36074Y16309D01*
X36079Y16302D01*
X36084Y16295D01*
X36089Y16287D01*
X36096Y16273D01*
X36099Y16266D01*
X36101Y16260D01*
X36103Y16255D01*
X36105Y16250D01*
X36106Y16246D01*
X36107Y16244D01*
X36108Y16241D01*
Y16241D01*
X36116Y16256D01*
X36124Y16269D01*
X36134Y16281D01*
X36142Y16290D01*
X36150Y16297D01*
X36156Y16302D01*
X36158Y16304D01*
X36160Y16305D01*
X36161Y16306D01*
X36161D01*
X36175Y16314D01*
X36187Y16320D01*
X36200Y16323D01*
X36212Y16326D01*
X36222Y16328D01*
X36226Y16328D01*
X36230D01*
X36233Y16329D01*
X36235D01*
X36236D01*
X36237D01*
X36245D01*
X36253Y16328D01*
X36268Y16325D01*
X36282Y16321D01*
X36294Y16317D01*
X36300Y16315D01*
X36305Y16313D01*
X36309Y16311D01*
X36312Y16309D01*
X36315Y16307D01*
X36317Y16306D01*
X36318Y16306D01*
X36319Y16305D01*
X36333Y16296D01*
X36345Y16285D01*
X36356Y16274D01*
X36364Y16263D01*
X36371Y16253D01*
X36374Y16249D01*
X36376Y16245D01*
X36378Y16243D01*
X36379Y16240D01*
X36380Y16239D01*
Y16238D01*
X36388Y16222D01*
X36393Y16205D01*
X36397Y16188D01*
X36400Y16173D01*
X36401Y16167D01*
X36402Y16161D01*
X36402Y16155D01*
Y16151D01*
X36403Y16147D01*
Y16142D01*
X36402Y16128D01*
X36401Y16115D01*
X36399Y16102D01*
X36396Y16090D01*
X36393Y16079D01*
X36389Y16068D01*
X36385Y16059D01*
X36381Y16050D01*
X36377Y16042D01*
X36373Y16035D01*
X36369Y16029D01*
X36366Y16024D01*
X36363Y16020D01*
X36361Y16017D01*
X36359Y16016D01*
X36359Y16015D01*
X36351Y16006D01*
X36341Y15998D01*
X36332Y15990D01*
X36322Y15983D01*
X36311Y15977D01*
X36301Y15972D01*
X36291Y15967D01*
X36282Y15963D01*
X36273Y15960D01*
X36264Y15957D01*
X36256Y15955D01*
X36250Y15953D01*
X36245Y15952D01*
X36240Y15951D01*
X36238Y15950D01*
X36237D01*
X36223Y16029D01*
X36234Y16030D01*
X36244Y16033D01*
X36253Y16035D01*
X36261Y16038D01*
X36269Y16042D01*
X36276Y16045D01*
X36283Y16048D01*
X36288Y16052D01*
X36293Y16054D01*
X36297Y16058D01*
X36301Y16060D01*
X36304Y16063D01*
X36307Y16065D01*
X36309Y16066D01*
X36309Y16067D01*
X36310Y16068D01*
X36315Y16074D01*
X36319Y16080D01*
X36323Y16086D01*
X36326Y16092D01*
X36331Y16105D01*
X36335Y16117D01*
X36337Y16127D01*
X36337Y16132D01*
X36338Y16136D01*
X36338Y16139D01*
Y16143D01*
X36338Y16152D01*
X36337Y16160D01*
X36334Y16174D01*
X36330Y16188D01*
X36324Y16198D01*
X36321Y16203D01*
X36318Y16207D01*
X36316Y16210D01*
X36314Y16213D01*
X36312Y16216D01*
X36311Y16218D01*
X36310Y16218D01*
X36310Y16219D01*
X36304Y16224D01*
X36299Y16229D01*
X36292Y16233D01*
X36287Y16236D01*
X36275Y16241D01*
X36264Y16244D01*
X36254Y16246D01*
X36249Y16247D01*
X36246Y16248D01*
X36243Y16248D01*
X36240D01*
X36239D01*
X36239D01*
X36229Y16248D01*
X36219Y16246D01*
X36211Y16244D01*
X36203Y16242D01*
X36196Y16239D01*
X36189Y16235D01*
X36183Y16232D01*
X36178Y16228D01*
X36173Y16224D01*
X36169Y16221D01*
X36166Y16218D01*
X36163Y16214D01*
X36161Y16212D01*
X36159Y16210D01*
X36158Y16209D01*
X36158Y16208D01*
X36153Y16200D01*
X36150Y16193D01*
X36143Y16177D01*
X36139Y16162D01*
X36135Y16148D01*
X36134Y16142D01*
X36134Y16136D01*
X36132Y16131D01*
Y16127D01*
X36132Y16124D01*
Y16115D01*
X36132Y16110D01*
X36133Y16107D01*
Y16106D01*
X36064Y16097D01*
X36067Y16109D01*
X36069Y16120D01*
X36070Y16129D01*
X36072Y16137D01*
X36072Y16143D01*
X36073Y16148D01*
Y16152D01*
X36072Y16162D01*
X36071Y16172D01*
X36069Y16181D01*
X36067Y16189D01*
X36064Y16197D01*
X36062Y16204D01*
X36058Y16212D01*
X36055Y16218D01*
X36052Y16223D01*
X36049Y16228D01*
X36046Y16232D01*
X36043Y16236D01*
X36041Y16238D01*
X36039Y16240D01*
X36038Y16241D01*
X36038Y16242D01*
X36031Y16248D01*
X36024Y16254D01*
X36017Y16259D01*
X36009Y16262D01*
X36002Y16266D01*
X35994Y16269D01*
X35980Y16273D01*
X35974Y16275D01*
X35967Y16276D01*
X35962Y16276D01*
X35957Y16277D01*
X35954Y16277D01*
X35951D01*
X35949D01*
X35949D01*
X35938Y16277D01*
X35928Y16276D01*
X35919Y16274D01*
X35910Y16271D01*
X35902Y16269D01*
X35894Y16265D01*
X35887Y16262D01*
X35880Y16259D01*
X35874Y16255D01*
X35869Y16251D01*
X35864Y16248D01*
X35861Y16245D01*
X35858Y16243D01*
X35856Y16241D01*
X35854Y16240D01*
X35854Y16239D01*
X35847Y16232D01*
X35841Y16224D01*
X35836Y16217D01*
X35832Y16209D01*
X35828Y16200D01*
X35825Y16193D01*
X35822Y16186D01*
X35821Y16178D01*
X35819Y16171D01*
X35818Y16165D01*
X35817Y16159D01*
X35816Y16155D01*
X35816Y16151D01*
Y16146D01*
X35816Y16137D01*
X35817Y16129D01*
X35820Y16114D01*
X35825Y16100D01*
X35831Y16089D01*
X35833Y16084D01*
X35836Y16079D01*
X35838Y16075D01*
X35841Y16073D01*
X35842Y16070D01*
X35844Y16068D01*
X35845Y16067D01*
X35845Y16066D01*
X35851Y16061D01*
X35858Y16055D01*
X35865Y16050D01*
X35873Y16046D01*
X35888Y16038D01*
X35904Y16032D01*
X35911Y16029D01*
X35919Y16027D01*
X35925Y16025D01*
X35930Y16024D01*
X35935Y16023D01*
X35939Y16022D01*
X35941Y16021D01*
X35941D01*
X35931Y15942D01*
X35916Y15945D01*
X35903Y15947D01*
X35889Y15951D01*
X35877Y15956D01*
X35866Y15961D01*
X35854Y15966D01*
X35845Y15971D01*
X35836Y15977D01*
X35828Y15982D01*
X35821Y15988D01*
X35815Y15992D01*
X35810Y15997D01*
X35806Y16001D01*
X35803Y16003D01*
X35801Y16005D01*
X35801Y16006D01*
X35792Y16016D01*
X35784Y16028D01*
X35778Y16039D01*
X35772Y16051D01*
X35767Y16063D01*
X35763Y16074D01*
X35760Y16085D01*
X35757Y16096D01*
X35755Y16106D01*
X35754Y16116D01*
X35753Y16124D01*
X35751Y16131D01*
Y16137D01*
X35751Y16141D01*
Y16145D01*
X35751Y16162D01*
X35754Y16178D01*
X35756Y16194D01*
X35760Y16208D01*
X35764Y16222D01*
X35769Y16235D01*
X35774Y16246D01*
X35780Y16257D01*
X35785Y16266D01*
X35790Y16275D01*
X35795Y16282D01*
X35800Y16288D01*
X35803Y16293D01*
X35806Y16296D01*
X35808Y16298D01*
X35809Y16299D01*
X35820Y16310D01*
X35831Y16320D01*
X35843Y16327D01*
X35855Y16334D01*
X35867Y16341D01*
X35879Y16346D01*
X35890Y16349D01*
X35901Y16353D01*
X35911Y16355D01*
X35921Y16357D01*
X35929Y16359D01*
X35936Y16359D01*
X35942Y16360D01*
X35946Y16360D01*
X35949D01*
X35950D01*
X35962Y16360D01*
D02*
G37*
G36*
X36225Y15813D02*
X35942Y15710D01*
X35924Y15704D01*
X35907Y15698D01*
X35892Y15693D01*
X35885Y15690D01*
X35879Y15689D01*
X35873Y15687D01*
X35868Y15686D01*
X35864Y15684D01*
X35861Y15683D01*
X35858Y15682D01*
X35856Y15682D01*
X35854Y15681D01*
X35854D01*
X35872Y15676D01*
X35889Y15671D01*
X35905Y15666D01*
X35912Y15663D01*
X35919Y15661D01*
X35925Y15659D01*
X35931Y15657D01*
X35936Y15656D01*
X35940Y15654D01*
X35943Y15653D01*
X35945Y15652D01*
X35947Y15651D01*
X35947D01*
X36225Y15552D01*
Y15470D01*
X35762Y15645D01*
Y15719D01*
X36225Y15894D01*
Y15813D01*
D02*
G37*
G36*
X35962Y15417D02*
X35972Y15417D01*
X35983Y15415D01*
X35992Y15413D01*
X36002Y15411D01*
X36010Y15408D01*
X36018Y15405D01*
X36025Y15403D01*
X36032Y15399D01*
X36037Y15396D01*
X36042Y15394D01*
X36046Y15391D01*
X36049Y15389D01*
X36052Y15388D01*
X36053Y15387D01*
X36053Y15386D01*
X36060Y15380D01*
X36067Y15374D01*
X36074Y15367D01*
X36079Y15359D01*
X36084Y15352D01*
X36089Y15345D01*
X36096Y15331D01*
X36099Y15324D01*
X36101Y15318D01*
X36103Y15312D01*
X36105Y15308D01*
X36106Y15304D01*
X36107Y15301D01*
X36108Y15299D01*
Y15298D01*
X36116Y15313D01*
X36124Y15327D01*
X36134Y15338D01*
X36142Y15347D01*
X36150Y15354D01*
X36156Y15360D01*
X36158Y15362D01*
X36160Y15363D01*
X36161Y15364D01*
X36161D01*
X36175Y15372D01*
X36187Y15377D01*
X36200Y15381D01*
X36212Y15384D01*
X36222Y15385D01*
X36226Y15386D01*
X36230D01*
X36233Y15386D01*
X36235D01*
X36236D01*
X36237D01*
X36245D01*
X36253Y15385D01*
X36268Y15383D01*
X36282Y15379D01*
X36294Y15375D01*
X36300Y15373D01*
X36305Y15370D01*
X36309Y15368D01*
X36312Y15367D01*
X36315Y15365D01*
X36317Y15364D01*
X36318Y15363D01*
X36319Y15363D01*
X36333Y15353D01*
X36345Y15342D01*
X36356Y15331D01*
X36364Y15321D01*
X36371Y15311D01*
X36374Y15307D01*
X36376Y15303D01*
X36378Y15300D01*
X36379Y15298D01*
X36380Y15296D01*
Y15296D01*
X36388Y15279D01*
X36393Y15262D01*
X36397Y15246D01*
X36400Y15231D01*
X36401Y15224D01*
X36402Y15218D01*
X36402Y15213D01*
Y15208D01*
X36403Y15204D01*
Y15199D01*
X36402Y15185D01*
X36401Y15172D01*
X36399Y15159D01*
X36396Y15147D01*
X36393Y15136D01*
X36389Y15126D01*
X36385Y15116D01*
X36381Y15107D01*
X36377Y15100D01*
X36373Y15092D01*
X36369Y15087D01*
X36366Y15082D01*
X36363Y15078D01*
X36361Y15075D01*
X36359Y15073D01*
X36359Y15073D01*
X36351Y15064D01*
X36341Y15055D01*
X36332Y15048D01*
X36322Y15041D01*
X36311Y15035D01*
X36301Y15030D01*
X36291Y15025D01*
X36282Y15021D01*
X36273Y15018D01*
X36264Y15015D01*
X36256Y15013D01*
X36250Y15011D01*
X36245Y15009D01*
X36240Y15008D01*
X36238Y15008D01*
X36237D01*
X36223Y15086D01*
X36234Y15088D01*
X36244Y15090D01*
X36253Y15093D01*
X36261Y15096D01*
X36269Y15099D01*
X36276Y15102D01*
X36283Y15106D01*
X36288Y15109D01*
X36293Y15112D01*
X36297Y15115D01*
X36301Y15118D01*
X36304Y15120D01*
X36307Y15122D01*
X36309Y15124D01*
X36309Y15125D01*
X36310Y15125D01*
X36315Y15131D01*
X36319Y15137D01*
X36323Y15143D01*
X36326Y15150D01*
X36331Y15163D01*
X36335Y15174D01*
X36337Y15185D01*
X36337Y15189D01*
X36338Y15193D01*
X36338Y15197D01*
Y15201D01*
X36338Y15209D01*
X36337Y15218D01*
X36334Y15232D01*
X36330Y15245D01*
X36324Y15256D01*
X36321Y15261D01*
X36318Y15265D01*
X36316Y15268D01*
X36314Y15271D01*
X36312Y15274D01*
X36311Y15275D01*
X36310Y15276D01*
X36310Y15276D01*
X36304Y15281D01*
X36299Y15286D01*
X36292Y15290D01*
X36287Y15293D01*
X36275Y15298D01*
X36264Y15302D01*
X36254Y15304D01*
X36249Y15305D01*
X36246Y15305D01*
X36243Y15306D01*
X36240D01*
X36239D01*
X36239D01*
X36229Y15305D01*
X36219Y15304D01*
X36211Y15302D01*
X36203Y15300D01*
X36196Y15296D01*
X36189Y15293D01*
X36183Y15290D01*
X36178Y15286D01*
X36173Y15282D01*
X36169Y15279D01*
X36166Y15275D01*
X36163Y15272D01*
X36161Y15270D01*
X36159Y15267D01*
X36158Y15266D01*
X36158Y15266D01*
X36153Y15258D01*
X36150Y15250D01*
X36143Y15235D01*
X36139Y15220D01*
X36135Y15206D01*
X36134Y15200D01*
X36134Y15194D01*
X36132Y15189D01*
Y15184D01*
X36132Y15181D01*
Y15172D01*
X36132Y15168D01*
X36133Y15164D01*
Y15163D01*
X36064Y15154D01*
X36067Y15167D01*
X36069Y15177D01*
X36070Y15187D01*
X36072Y15195D01*
X36072Y15201D01*
X36073Y15206D01*
Y15210D01*
X36072Y15220D01*
X36071Y15229D01*
X36069Y15238D01*
X36067Y15247D01*
X36064Y15255D01*
X36062Y15262D01*
X36058Y15269D01*
X36055Y15275D01*
X36052Y15281D01*
X36049Y15286D01*
X36046Y15290D01*
X36043Y15293D01*
X36041Y15296D01*
X36039Y15298D01*
X36038Y15299D01*
X36038Y15300D01*
X36031Y15306D01*
X36024Y15311D01*
X36017Y15316D01*
X36009Y15320D01*
X36002Y15323D01*
X35994Y15326D01*
X35980Y15331D01*
X35974Y15332D01*
X35967Y15333D01*
X35962Y15334D01*
X35957Y15334D01*
X35954Y15335D01*
X35951D01*
X35949D01*
X35949D01*
X35938Y15334D01*
X35928Y15333D01*
X35919Y15332D01*
X35910Y15329D01*
X35902Y15326D01*
X35894Y15323D01*
X35887Y15319D01*
X35880Y15316D01*
X35874Y15312D01*
X35869Y15309D01*
X35864Y15306D01*
X35861Y15303D01*
X35858Y15300D01*
X35856Y15298D01*
X35854Y15297D01*
X35854Y15297D01*
X35847Y15290D01*
X35841Y15282D01*
X35836Y15274D01*
X35832Y15266D01*
X35828Y15258D01*
X35825Y15250D01*
X35822Y15243D01*
X35821Y15236D01*
X35819Y15229D01*
X35818Y15223D01*
X35817Y15217D01*
X35816Y15213D01*
X35816Y15209D01*
Y15203D01*
X35816Y15195D01*
X35817Y15187D01*
X35820Y15171D01*
X35825Y15158D01*
X35831Y15146D01*
X35833Y15141D01*
X35836Y15137D01*
X35838Y15133D01*
X35841Y15130D01*
X35842Y15127D01*
X35844Y15126D01*
X35845Y15125D01*
X35845Y15124D01*
X35851Y15118D01*
X35858Y15113D01*
X35865Y15108D01*
X35873Y15104D01*
X35888Y15096D01*
X35904Y15089D01*
X35911Y15087D01*
X35919Y15085D01*
X35925Y15083D01*
X35930Y15081D01*
X35935Y15080D01*
X35939Y15079D01*
X35941Y15079D01*
X35941D01*
X35931Y15000D01*
X35916Y15002D01*
X35903Y15005D01*
X35889Y15009D01*
X35877Y15013D01*
X35866Y15018D01*
X35854Y15023D01*
X35845Y15029D01*
X35836Y15034D01*
X35828Y15040D01*
X35821Y15045D01*
X35815Y15050D01*
X35810Y15054D01*
X35806Y15058D01*
X35803Y15061D01*
X35801Y15063D01*
X35801Y15063D01*
X35792Y15074D01*
X35784Y15085D01*
X35778Y15096D01*
X35772Y15109D01*
X35767Y15120D01*
X35763Y15132D01*
X35760Y15143D01*
X35757Y15154D01*
X35755Y15164D01*
X35754Y15173D01*
X35753Y15182D01*
X35751Y15189D01*
Y15194D01*
X35751Y15199D01*
Y15203D01*
X35751Y15220D01*
X35754Y15236D01*
X35756Y15251D01*
X35760Y15266D01*
X35764Y15280D01*
X35769Y15292D01*
X35774Y15304D01*
X35780Y15315D01*
X35785Y15324D01*
X35790Y15332D01*
X35795Y15339D01*
X35800Y15346D01*
X35803Y15351D01*
X35806Y15354D01*
X35808Y15356D01*
X35809Y15357D01*
X35820Y15368D01*
X35831Y15377D01*
X35843Y15385D01*
X35855Y15392D01*
X35867Y15398D01*
X35879Y15403D01*
X35890Y15407D01*
X35901Y15410D01*
X35911Y15413D01*
X35921Y15415D01*
X35929Y15416D01*
X35936Y15417D01*
X35942Y15417D01*
X35946Y15418D01*
X35949D01*
X35950D01*
X35962Y15417D01*
D02*
G37*
G36*
X13794Y18228D02*
X13719D01*
Y18439D01*
X13156D01*
Y18523D01*
X13719D01*
Y18735D01*
X13794D01*
Y18228D01*
D02*
G37*
G36*
Y18050D02*
X13532D01*
Y17720D01*
X13794D01*
Y17635D01*
X13156D01*
Y17720D01*
X13457D01*
Y18050D01*
X13156D01*
Y18135D01*
X13794D01*
Y18050D01*
D02*
G37*
G36*
X13482Y17237D02*
X13406D01*
Y17425D01*
X13288D01*
X13283Y17419D01*
X13279Y17414D01*
X13271Y17401D01*
X13263Y17388D01*
X13256Y17375D01*
X13251Y17363D01*
X13248Y17358D01*
X13247Y17354D01*
X13245Y17350D01*
X13244Y17347D01*
X13243Y17346D01*
Y17345D01*
X13236Y17326D01*
X13231Y17306D01*
X13227Y17289D01*
X13226Y17280D01*
X13225Y17272D01*
X13224Y17265D01*
X13223Y17258D01*
X13222Y17253D01*
Y17248D01*
X13222Y17244D01*
Y17238D01*
X13222Y17227D01*
X13223Y17215D01*
X13226Y17193D01*
X13229Y17182D01*
X13231Y17173D01*
X13233Y17163D01*
X13236Y17155D01*
X13238Y17147D01*
X13241Y17140D01*
X13243Y17133D01*
X13245Y17128D01*
X13247Y17124D01*
X13248Y17121D01*
X13249Y17119D01*
X13250Y17119D01*
X13255Y17109D01*
X13261Y17099D01*
X13268Y17090D01*
X13274Y17081D01*
X13282Y17074D01*
X13288Y17067D01*
X13296Y17060D01*
X13302Y17055D01*
X13309Y17050D01*
X13315Y17045D01*
X13320Y17042D01*
X13325Y17039D01*
X13329Y17037D01*
X13332Y17035D01*
X13334Y17034D01*
X13334Y17033D01*
X13345Y17028D01*
X13357Y17024D01*
X13369Y17019D01*
X13381Y17016D01*
X13405Y17011D01*
X13416Y17009D01*
X13427Y17008D01*
X13438Y17006D01*
X13447Y17006D01*
X13456Y17005D01*
X13463Y17004D01*
X13469Y17004D01*
X13473D01*
X13476D01*
X13477D01*
X13490Y17004D01*
X13503Y17005D01*
X13526Y17008D01*
X13538Y17009D01*
X13548Y17012D01*
X13558Y17014D01*
X13567Y17016D01*
X13576Y17018D01*
X13583Y17021D01*
X13590Y17023D01*
X13595Y17024D01*
X13600Y17026D01*
X13603Y17027D01*
X13605Y17028D01*
X13606D01*
X13618Y17034D01*
X13630Y17040D01*
X13641Y17047D01*
X13650Y17054D01*
X13658Y17059D01*
X13664Y17064D01*
X13666Y17066D01*
X13668Y17067D01*
X13668Y17068D01*
X13669D01*
X13679Y17079D01*
X13688Y17090D01*
X13696Y17101D01*
X13703Y17112D01*
X13708Y17122D01*
X13710Y17126D01*
X13712Y17129D01*
X13714Y17132D01*
X13715Y17135D01*
X13715Y17136D01*
Y17136D01*
X13721Y17153D01*
X13726Y17170D01*
X13729Y17187D01*
X13731Y17202D01*
X13731Y17209D01*
X13732Y17216D01*
X13732Y17222D01*
X13733Y17227D01*
Y17236D01*
X13732Y17254D01*
X13730Y17271D01*
X13727Y17286D01*
X13726Y17292D01*
X13725Y17299D01*
X13723Y17305D01*
X13721Y17310D01*
X13720Y17314D01*
X13719Y17318D01*
X13717Y17321D01*
X13716Y17323D01*
X13716Y17324D01*
Y17325D01*
X13709Y17338D01*
X13702Y17351D01*
X13694Y17361D01*
X13687Y17370D01*
X13681Y17377D01*
X13675Y17382D01*
X13672Y17384D01*
X13672Y17385D01*
X13671D01*
X13660Y17393D01*
X13647Y17400D01*
X13634Y17406D01*
X13622Y17411D01*
X13612Y17416D01*
X13607Y17418D01*
X13603Y17419D01*
X13599Y17420D01*
X13597Y17421D01*
X13595Y17421D01*
X13595D01*
X13616Y17497D01*
X13627Y17494D01*
X13638Y17491D01*
X13649Y17487D01*
X13659Y17483D01*
X13668Y17479D01*
X13677Y17475D01*
X13685Y17471D01*
X13692Y17467D01*
X13698Y17463D01*
X13704Y17460D01*
X13709Y17457D01*
X13712Y17454D01*
X13716Y17452D01*
X13718Y17451D01*
X13719Y17450D01*
X13720Y17449D01*
X13727Y17443D01*
X13734Y17436D01*
X13747Y17422D01*
X13757Y17408D01*
X13766Y17394D01*
X13770Y17387D01*
X13773Y17381D01*
X13776Y17375D01*
X13778Y17371D01*
X13781Y17367D01*
X13782Y17364D01*
X13783Y17362D01*
Y17362D01*
X13791Y17340D01*
X13796Y17318D01*
X13800Y17297D01*
X13802Y17287D01*
X13803Y17278D01*
X13804Y17269D01*
X13804Y17261D01*
X13805Y17254D01*
Y17248D01*
X13806Y17243D01*
Y17236D01*
X13805Y17219D01*
X13804Y17202D01*
X13802Y17186D01*
X13799Y17169D01*
X13797Y17155D01*
X13793Y17141D01*
X13789Y17128D01*
X13786Y17116D01*
X13782Y17105D01*
X13778Y17096D01*
X13775Y17088D01*
X13772Y17080D01*
X13770Y17075D01*
X13768Y17071D01*
X13767Y17069D01*
X13766Y17068D01*
X13758Y17054D01*
X13750Y17042D01*
X13741Y17030D01*
X13731Y17019D01*
X13721Y17009D01*
X13711Y17000D01*
X13701Y16992D01*
X13691Y16985D01*
X13682Y16978D01*
X13674Y16972D01*
X13666Y16967D01*
X13659Y16963D01*
X13654Y16960D01*
X13649Y16957D01*
X13647Y16956D01*
X13646Y16956D01*
X13631Y16949D01*
X13616Y16943D01*
X13600Y16938D01*
X13585Y16934D01*
X13570Y16930D01*
X13556Y16926D01*
X13542Y16924D01*
X13529Y16922D01*
X13517Y16920D01*
X13506Y16919D01*
X13496Y16918D01*
X13488Y16918D01*
X13481Y16917D01*
X13477D01*
X13473D01*
X13472D01*
X13455Y16918D01*
X13438Y16919D01*
X13421Y16920D01*
X13406Y16923D01*
X13391Y16926D01*
X13377Y16929D01*
X13364Y16933D01*
X13351Y16936D01*
X13340Y16940D01*
X13331Y16944D01*
X13322Y16947D01*
X13315Y16950D01*
X13309Y16952D01*
X13305Y16954D01*
X13303Y16955D01*
X13302Y16956D01*
X13288Y16963D01*
X13275Y16972D01*
X13263Y16981D01*
X13251Y16991D01*
X13241Y17000D01*
X13231Y17010D01*
X13223Y17019D01*
X13215Y17029D01*
X13208Y17038D01*
X13202Y17045D01*
X13197Y17053D01*
X13193Y17059D01*
X13190Y17065D01*
X13187Y17069D01*
X13186Y17071D01*
X13185Y17072D01*
X13178Y17086D01*
X13172Y17101D01*
X13167Y17116D01*
X13162Y17131D01*
X13158Y17146D01*
X13155Y17160D01*
X13153Y17173D01*
X13150Y17186D01*
X13149Y17198D01*
X13148Y17209D01*
X13147Y17219D01*
X13146Y17227D01*
Y17234D01*
X13145Y17238D01*
Y17243D01*
X13146Y17256D01*
X13147Y17269D01*
X13149Y17293D01*
X13151Y17305D01*
X13153Y17316D01*
X13155Y17327D01*
X13158Y17337D01*
X13160Y17346D01*
X13163Y17354D01*
X13165Y17361D01*
X13167Y17367D01*
X13168Y17372D01*
X13169Y17375D01*
X13170Y17378D01*
Y17378D01*
X13175Y17390D01*
X13181Y17403D01*
X13193Y17426D01*
X13199Y17437D01*
X13205Y17448D01*
X13211Y17459D01*
X13217Y17468D01*
X13222Y17476D01*
X13227Y17484D01*
X13232Y17491D01*
X13236Y17497D01*
X13240Y17501D01*
X13242Y17504D01*
X13244Y17507D01*
X13245Y17507D01*
X13482D01*
Y17237D01*
D02*
G37*
G36*
X13794Y16704D02*
X13156D01*
Y16789D01*
X13794D01*
Y16704D01*
D02*
G37*
G36*
X13231Y16275D02*
X13794D01*
Y16191D01*
X13156D01*
Y16590D01*
X13231D01*
Y16275D01*
D02*
G37*
G36*
X13535Y15843D02*
X13794Y16111D01*
Y15997D01*
X13478Y15680D01*
X13794D01*
Y15595D01*
X13156D01*
Y15680D01*
X13377D01*
X13478Y15784D01*
X13156Y16011D01*
Y16123D01*
X13535Y15843D01*
D02*
G37*
G36*
X13351Y15482D02*
X13361Y15481D01*
X13370Y15480D01*
X13379Y15477D01*
X13388Y15475D01*
X13396Y15472D01*
X13403Y15470D01*
X13410Y15467D01*
X13416Y15463D01*
X13421Y15461D01*
X13426Y15458D01*
X13430Y15456D01*
X13433Y15453D01*
X13436Y15452D01*
X13437Y15451D01*
X13437Y15451D01*
X13444Y15445D01*
X13452Y15438D01*
X13464Y15424D01*
X13474Y15409D01*
X13482Y15395D01*
X13485Y15388D01*
X13488Y15382D01*
X13490Y15376D01*
X13492Y15371D01*
X13494Y15367D01*
X13495Y15364D01*
X13495Y15362D01*
Y15362D01*
X13504Y15377D01*
X13514Y15391D01*
X13524Y15403D01*
X13533Y15412D01*
X13541Y15419D01*
X13547Y15425D01*
X13550Y15426D01*
X13552Y15427D01*
X13553Y15429D01*
X13554D01*
X13567Y15436D01*
X13581Y15442D01*
X13594Y15446D01*
X13606Y15449D01*
X13611Y15450D01*
X13616Y15450D01*
X13620Y15451D01*
X13623D01*
X13627Y15451D01*
X13629D01*
X13630D01*
X13631D01*
X13639D01*
X13647Y15450D01*
X13663Y15447D01*
X13677Y15443D01*
X13689Y15439D01*
X13695Y15436D01*
X13700Y15434D01*
X13704Y15432D01*
X13708Y15430D01*
X13711Y15428D01*
X13713Y15427D01*
X13714Y15426D01*
X13715Y15426D01*
X13729Y15416D01*
X13741Y15405D01*
X13751Y15393D01*
X13760Y15382D01*
X13766Y15372D01*
X13769Y15368D01*
X13771Y15364D01*
X13772Y15361D01*
X13773Y15359D01*
X13774Y15357D01*
Y15357D01*
X13778Y15348D01*
X13781Y15339D01*
X13786Y15319D01*
X13789Y15300D01*
X13792Y15281D01*
X13793Y15272D01*
X13793Y15265D01*
X13794Y15257D01*
Y15251D01*
X13794Y15246D01*
Y15000D01*
X13156D01*
Y15243D01*
X13157Y15265D01*
X13157Y15275D01*
X13158Y15285D01*
X13158Y15294D01*
X13159Y15302D01*
X13160Y15310D01*
X13162Y15317D01*
X13162Y15324D01*
X13163Y15329D01*
X13164Y15334D01*
X13165Y15338D01*
X13165Y15342D01*
X13166Y15344D01*
X13167Y15346D01*
Y15346D01*
X13171Y15361D01*
X13176Y15375D01*
X13181Y15386D01*
X13186Y15397D01*
X13190Y15405D01*
X13193Y15408D01*
X13194Y15411D01*
X13195Y15413D01*
X13196Y15415D01*
X13198Y15415D01*
Y15416D01*
X13206Y15426D01*
X13216Y15435D01*
X13226Y15443D01*
X13235Y15450D01*
X13244Y15456D01*
X13248Y15458D01*
X13251Y15460D01*
X13253Y15461D01*
X13256Y15462D01*
X13257Y15463D01*
X13257D01*
X13272Y15470D01*
X13287Y15474D01*
X13301Y15477D01*
X13314Y15480D01*
X13319Y15481D01*
X13325Y15481D01*
X13329Y15482D01*
X13333D01*
X13337Y15482D01*
X13339D01*
X13340D01*
X13341D01*
X13351Y15482D01*
D02*
G37*
G36*
X15631Y17392D02*
X15641Y17391D01*
X15658Y17388D01*
X15673Y17384D01*
X15680Y17381D01*
X15687Y17379D01*
X15692Y17376D01*
X15698Y17374D01*
X15702Y17371D01*
X15706Y17369D01*
X15709Y17368D01*
X15711Y17366D01*
X15712Y17365D01*
X15713Y17365D01*
X15720Y17359D01*
X15727Y17354D01*
X15739Y17341D01*
X15751Y17327D01*
X15760Y17314D01*
X15764Y17308D01*
X15768Y17302D01*
X15771Y17297D01*
X15774Y17292D01*
X15775Y17289D01*
X15777Y17285D01*
X15778Y17284D01*
X15778Y17283D01*
X15781Y17275D01*
X15785Y17266D01*
X15788Y17255D01*
X15792Y17244D01*
X15799Y17221D01*
X15805Y17197D01*
X15807Y17186D01*
X15810Y17176D01*
X15812Y17166D01*
X15815Y17157D01*
X15816Y17151D01*
X15817Y17145D01*
X15819Y17142D01*
Y17141D01*
X15823Y17122D01*
X15827Y17106D01*
X15831Y17091D01*
X15836Y17078D01*
X15840Y17065D01*
X15843Y17055D01*
X15847Y17046D01*
X15850Y17038D01*
X15853Y17032D01*
X15856Y17027D01*
X15858Y17022D01*
X15860Y17019D01*
X15862Y17016D01*
X15863Y17014D01*
X15864Y17014D01*
Y17013D01*
X15868Y17009D01*
X15873Y17005D01*
X15882Y16999D01*
X15892Y16994D01*
X15900Y16992D01*
X15908Y16990D01*
X15915Y16989D01*
X15917Y16988D01*
X15919D01*
X15920D01*
X15920D01*
X15928Y16989D01*
X15935Y16990D01*
X15941Y16992D01*
X15948Y16994D01*
X15960Y16999D01*
X15970Y17006D01*
X15977Y17012D01*
X15981Y17015D01*
X15984Y17018D01*
X15986Y17020D01*
X15987Y17022D01*
X15988Y17023D01*
X15989Y17023D01*
X15993Y17030D01*
X15998Y17038D01*
X16002Y17047D01*
X16005Y17056D01*
X16010Y17074D01*
X16013Y17093D01*
X16015Y17101D01*
X16015Y17110D01*
X16016Y17117D01*
X16016Y17123D01*
X16017Y17128D01*
Y17136D01*
X16016Y17149D01*
X16016Y17162D01*
X16014Y17173D01*
X16012Y17184D01*
X16010Y17194D01*
X16007Y17203D01*
X16004Y17212D01*
X16001Y17219D01*
X15998Y17225D01*
X15996Y17231D01*
X15993Y17236D01*
X15991Y17240D01*
X15989Y17243D01*
X15987Y17245D01*
X15986Y17246D01*
X15986Y17247D01*
X15980Y17254D01*
X15973Y17260D01*
X15966Y17265D01*
X15959Y17270D01*
X15951Y17274D01*
X15943Y17278D01*
X15929Y17284D01*
X15922Y17286D01*
X15915Y17288D01*
X15909Y17289D01*
X15904Y17290D01*
X15900Y17291D01*
X15897Y17291D01*
X15895Y17292D01*
X15894D01*
X15900Y17373D01*
X15911Y17372D01*
X15921Y17370D01*
X15940Y17367D01*
X15949Y17364D01*
X15957Y17362D01*
X15965Y17359D01*
X15971Y17356D01*
X15978Y17353D01*
X15984Y17351D01*
X15989Y17348D01*
X15993Y17346D01*
X15996Y17344D01*
X15998Y17342D01*
X16000Y17342D01*
X16001Y17341D01*
X16009Y17336D01*
X16017Y17329D01*
X16030Y17316D01*
X16042Y17302D01*
X16051Y17289D01*
X16056Y17282D01*
X16059Y17276D01*
X16062Y17271D01*
X16064Y17266D01*
X16066Y17263D01*
X16067Y17260D01*
X16068Y17258D01*
Y17258D01*
X16076Y17236D01*
X16082Y17215D01*
X16086Y17194D01*
X16088Y17184D01*
X16089Y17174D01*
X16090Y17166D01*
X16090Y17157D01*
X16091Y17150D01*
Y17144D01*
X16092Y17139D01*
Y17132D01*
X16090Y17109D01*
X16088Y17086D01*
X16087Y17076D01*
X16084Y17066D01*
X16083Y17058D01*
X16080Y17049D01*
X16078Y17042D01*
X16077Y17035D01*
X16074Y17029D01*
X16073Y17024D01*
X16072Y17020D01*
X16070Y17017D01*
X16069Y17015D01*
Y17014D01*
X16065Y17005D01*
X16060Y16996D01*
X16056Y16987D01*
X16051Y16980D01*
X16045Y16972D01*
X16040Y16966D01*
X16034Y16960D01*
X16029Y16955D01*
X16025Y16950D01*
X16020Y16946D01*
X16016Y16942D01*
X16013Y16939D01*
X16010Y16937D01*
X16007Y16935D01*
X16006Y16935D01*
X16006Y16934D01*
X15998Y16929D01*
X15990Y16925D01*
X15982Y16921D01*
X15974Y16919D01*
X15959Y16914D01*
X15945Y16910D01*
X15938Y16909D01*
X15933Y16909D01*
X15928Y16908D01*
X15923Y16908D01*
X15920Y16907D01*
X15917D01*
X15915D01*
X15915D01*
X15899Y16908D01*
X15884Y16910D01*
X15871Y16914D01*
X15859Y16918D01*
X15854Y16920D01*
X15849Y16922D01*
X15845Y16924D01*
X15842Y16926D01*
X15839Y16927D01*
X15837Y16928D01*
X15836Y16929D01*
X15836D01*
X15823Y16939D01*
X15811Y16950D01*
X15801Y16961D01*
X15792Y16972D01*
X15785Y16982D01*
X15783Y16986D01*
X15780Y16990D01*
X15779Y16993D01*
X15777Y16995D01*
X15776Y16997D01*
X15776Y16997D01*
X15773Y17004D01*
X15769Y17013D01*
X15765Y17022D01*
X15762Y17032D01*
X15755Y17052D01*
X15749Y17073D01*
X15747Y17082D01*
X15744Y17091D01*
X15742Y17099D01*
X15740Y17106D01*
X15738Y17112D01*
X15737Y17117D01*
X15736Y17120D01*
Y17121D01*
X15732Y17137D01*
X15729Y17151D01*
X15726Y17164D01*
X15722Y17176D01*
X15719Y17187D01*
X15717Y17196D01*
X15714Y17204D01*
X15713Y17212D01*
X15711Y17218D01*
X15709Y17223D01*
X15708Y17227D01*
X15707Y17230D01*
X15706Y17233D01*
X15706Y17234D01*
X15705Y17235D01*
Y17235D01*
X15699Y17249D01*
X15693Y17261D01*
X15687Y17271D01*
X15681Y17279D01*
X15675Y17285D01*
X15671Y17290D01*
X15668Y17292D01*
X15667Y17293D01*
X15659Y17299D01*
X15650Y17303D01*
X15641Y17306D01*
X15633Y17308D01*
X15626Y17310D01*
X15620Y17311D01*
X15618D01*
X15616D01*
X15616D01*
X15615D01*
X15604Y17310D01*
X15594Y17308D01*
X15585Y17305D01*
X15577Y17302D01*
X15570Y17298D01*
X15565Y17295D01*
X15562Y17293D01*
X15561Y17292D01*
X15560D01*
X15552Y17285D01*
X15544Y17276D01*
X15537Y17267D01*
X15532Y17258D01*
X15527Y17250D01*
X15524Y17243D01*
X15523Y17240D01*
X15522Y17239D01*
X15521Y17238D01*
Y17237D01*
X15516Y17223D01*
X15513Y17208D01*
X15510Y17194D01*
X15508Y17181D01*
X15508Y17174D01*
X15507Y17169D01*
Y17164D01*
X15507Y17160D01*
Y17152D01*
X15507Y17132D01*
X15510Y17113D01*
X15513Y17096D01*
X15515Y17089D01*
X15516Y17082D01*
X15518Y17075D01*
X15520Y17070D01*
X15521Y17065D01*
X15523Y17061D01*
X15524Y17058D01*
X15525Y17055D01*
X15526Y17054D01*
Y17053D01*
X15533Y17038D01*
X15541Y17025D01*
X15549Y17014D01*
X15558Y17005D01*
X15565Y16998D01*
X15570Y16993D01*
X15573Y16991D01*
X15574Y16990D01*
X15575Y16989D01*
X15575D01*
X15588Y16982D01*
X15601Y16976D01*
X15614Y16972D01*
X15627Y16968D01*
X15632Y16967D01*
X15638Y16966D01*
X15642Y16965D01*
X15647Y16964D01*
X15650Y16963D01*
X15652D01*
X15654Y16963D01*
X15655D01*
X15647Y16883D01*
X15636Y16884D01*
X15624Y16885D01*
X15603Y16889D01*
X15592Y16892D01*
X15583Y16895D01*
X15574Y16898D01*
X15566Y16901D01*
X15558Y16904D01*
X15552Y16908D01*
X15546Y16910D01*
X15541Y16913D01*
X15537Y16915D01*
X15534Y16916D01*
X15533Y16918D01*
X15532Y16918D01*
X15523Y16925D01*
X15515Y16931D01*
X15507Y16939D01*
X15499Y16946D01*
X15492Y16954D01*
X15486Y16962D01*
X15481Y16969D01*
X15475Y16977D01*
X15471Y16983D01*
X15467Y16990D01*
X15464Y16996D01*
X15461Y17001D01*
X15459Y17004D01*
X15458Y17007D01*
X15457Y17009D01*
X15456Y17010D01*
X15452Y17021D01*
X15448Y17033D01*
X15442Y17058D01*
X15438Y17082D01*
X15436Y17094D01*
X15435Y17105D01*
X15434Y17115D01*
X15433Y17125D01*
X15432Y17133D01*
Y17141D01*
X15431Y17147D01*
Y17156D01*
X15432Y17168D01*
X15433Y17181D01*
X15434Y17192D01*
X15435Y17204D01*
X15437Y17214D01*
X15439Y17224D01*
X15441Y17234D01*
X15444Y17243D01*
X15446Y17250D01*
X15449Y17258D01*
X15451Y17264D01*
X15453Y17269D01*
X15454Y17273D01*
X15455Y17276D01*
X15456Y17278D01*
Y17279D01*
X15461Y17289D01*
X15466Y17298D01*
X15472Y17307D01*
X15478Y17315D01*
X15484Y17322D01*
X15490Y17330D01*
X15495Y17336D01*
X15501Y17341D01*
X15506Y17346D01*
X15511Y17351D01*
X15515Y17354D01*
X15519Y17357D01*
X15522Y17359D01*
X15524Y17362D01*
X15526Y17362D01*
X15526Y17363D01*
X15534Y17368D01*
X15543Y17373D01*
X15552Y17377D01*
X15560Y17380D01*
X15576Y17385D01*
X15591Y17388D01*
X15598Y17390D01*
X15604Y17390D01*
X15609Y17391D01*
X15613Y17392D01*
X15617Y17392D01*
X15620D01*
X15621D01*
X15622D01*
X15631Y17392D01*
D02*
G37*
G36*
X15666Y16723D02*
X15651Y16719D01*
X15637Y16715D01*
X15625Y16710D01*
X15613Y16705D01*
X15602Y16700D01*
X15592Y16694D01*
X15583Y16689D01*
X15575Y16683D01*
X15568Y16678D01*
X15562Y16673D01*
X15557Y16668D01*
X15552Y16664D01*
X15549Y16661D01*
X15546Y16658D01*
X15545Y16657D01*
X15544Y16656D01*
X15537Y16647D01*
X15531Y16637D01*
X15526Y16627D01*
X15521Y16617D01*
X15517Y16606D01*
X15514Y16596D01*
X15511Y16587D01*
X15509Y16578D01*
X15507Y16569D01*
X15506Y16561D01*
X15505Y16554D01*
X15505Y16548D01*
Y16543D01*
X15504Y16539D01*
Y16536D01*
X15505Y16525D01*
X15505Y16514D01*
X15508Y16494D01*
X15511Y16485D01*
X15513Y16476D01*
X15516Y16468D01*
X15519Y16460D01*
X15522Y16453D01*
X15524Y16446D01*
X15527Y16441D01*
X15529Y16436D01*
X15531Y16432D01*
X15533Y16430D01*
X15533Y16428D01*
X15534Y16427D01*
X15540Y16419D01*
X15547Y16410D01*
X15553Y16402D01*
X15560Y16395D01*
X15568Y16388D01*
X15575Y16382D01*
X15583Y16377D01*
X15590Y16372D01*
X15597Y16368D01*
X15604Y16364D01*
X15609Y16361D01*
X15614Y16358D01*
X15619Y16357D01*
X15621Y16355D01*
X15624Y16354D01*
X15624Y16354D01*
X15648Y16346D01*
X15672Y16341D01*
X15696Y16336D01*
X15707Y16335D01*
X15718Y16333D01*
X15728Y16333D01*
X15738Y16332D01*
X15746Y16331D01*
X15753D01*
X15759Y16331D01*
X15763D01*
X15765D01*
X15766D01*
X15790Y16332D01*
X15812Y16334D01*
X15823Y16335D01*
X15833Y16337D01*
X15842Y16339D01*
X15851Y16341D01*
X15859Y16342D01*
X15867Y16344D01*
X15873Y16346D01*
X15879Y16347D01*
X15883Y16349D01*
X15886Y16349D01*
X15888Y16351D01*
X15889D01*
X15900Y16354D01*
X15910Y16359D01*
X15920Y16364D01*
X15929Y16370D01*
X15937Y16375D01*
X15945Y16381D01*
X15952Y16387D01*
X15959Y16393D01*
X15964Y16398D01*
X15969Y16403D01*
X15974Y16408D01*
X15977Y16412D01*
X15980Y16415D01*
X15982Y16418D01*
X15983Y16419D01*
X15984Y16420D01*
X15990Y16429D01*
X15995Y16439D01*
X16000Y16450D01*
X16004Y16460D01*
X16007Y16470D01*
X16010Y16480D01*
X16013Y16490D01*
X16015Y16499D01*
X16016Y16508D01*
X16017Y16517D01*
X16018Y16524D01*
X16018Y16530D01*
X16019Y16535D01*
Y16543D01*
X16018Y16554D01*
X16018Y16566D01*
X16016Y16576D01*
X16014Y16586D01*
X16012Y16596D01*
X16009Y16605D01*
X16006Y16612D01*
X16003Y16620D01*
X16000Y16626D01*
X15997Y16632D01*
X15994Y16637D01*
X15992Y16641D01*
X15990Y16645D01*
X15989Y16647D01*
X15987Y16648D01*
X15987Y16649D01*
X15981Y16657D01*
X15974Y16664D01*
X15966Y16671D01*
X15958Y16677D01*
X15941Y16688D01*
X15924Y16697D01*
X15917Y16701D01*
X15909Y16704D01*
X15903Y16707D01*
X15897Y16709D01*
X15892Y16712D01*
X15889Y16713D01*
X15886Y16714D01*
X15886D01*
X15905Y16797D01*
X15921Y16791D01*
X15936Y16785D01*
X15950Y16779D01*
X15964Y16771D01*
X15976Y16764D01*
X15987Y16756D01*
X15997Y16749D01*
X16007Y16741D01*
X16015Y16734D01*
X16022Y16728D01*
X16028Y16722D01*
X16033Y16716D01*
X16037Y16712D01*
X16040Y16708D01*
X16042Y16706D01*
X16042Y16705D01*
X16051Y16693D01*
X16058Y16680D01*
X16065Y16666D01*
X16070Y16653D01*
X16075Y16639D01*
X16079Y16626D01*
X16083Y16613D01*
X16085Y16600D01*
X16088Y16589D01*
X16089Y16578D01*
X16090Y16569D01*
X16091Y16560D01*
Y16554D01*
X16092Y16549D01*
Y16544D01*
X16091Y16529D01*
X16090Y16513D01*
X16088Y16499D01*
X16085Y16485D01*
X16083Y16471D01*
X16079Y16458D01*
X16076Y16446D01*
X16072Y16436D01*
X16069Y16425D01*
X16065Y16416D01*
X16062Y16409D01*
X16059Y16402D01*
X16056Y16397D01*
X16054Y16393D01*
X16053Y16390D01*
X16053Y16390D01*
X16045Y16377D01*
X16037Y16365D01*
X16028Y16354D01*
X16019Y16343D01*
X16010Y16333D01*
X16000Y16324D01*
X15991Y16317D01*
X15982Y16309D01*
X15973Y16303D01*
X15965Y16297D01*
X15958Y16292D01*
X15952Y16288D01*
X15947Y16285D01*
X15943Y16283D01*
X15941Y16282D01*
X15940Y16281D01*
X15925Y16275D01*
X15911Y16269D01*
X15896Y16264D01*
X15881Y16260D01*
X15867Y16256D01*
X15852Y16253D01*
X15838Y16250D01*
X15825Y16249D01*
X15812Y16247D01*
X15801Y16246D01*
X15791Y16245D01*
X15783Y16244D01*
X15776Y16244D01*
X15770D01*
X15767D01*
X15766D01*
X15766D01*
X15749Y16244D01*
X15732Y16245D01*
X15716Y16247D01*
X15701Y16249D01*
X15686Y16251D01*
X15672Y16254D01*
X15658Y16257D01*
X15646Y16260D01*
X15635Y16264D01*
X15625Y16266D01*
X15616Y16269D01*
X15609Y16272D01*
X15603Y16274D01*
X15599Y16275D01*
X15596Y16276D01*
X15595Y16277D01*
X15580Y16284D01*
X15567Y16291D01*
X15554Y16298D01*
X15542Y16307D01*
X15531Y16315D01*
X15521Y16323D01*
X15512Y16331D01*
X15504Y16339D01*
X15497Y16346D01*
X15491Y16353D01*
X15485Y16359D01*
X15481Y16365D01*
X15477Y16369D01*
X15475Y16373D01*
X15474Y16375D01*
X15473Y16375D01*
X15466Y16388D01*
X15459Y16401D01*
X15454Y16415D01*
X15449Y16429D01*
X15445Y16443D01*
X15441Y16457D01*
X15439Y16471D01*
X15436Y16483D01*
X15435Y16496D01*
X15434Y16507D01*
X15433Y16517D01*
X15432Y16526D01*
Y16533D01*
X15431Y16539D01*
Y16543D01*
X15432Y16561D01*
X15434Y16579D01*
X15436Y16596D01*
X15440Y16612D01*
X15444Y16627D01*
X15449Y16641D01*
X15454Y16653D01*
X15459Y16665D01*
X15464Y16676D01*
X15469Y16685D01*
X15473Y16693D01*
X15477Y16700D01*
X15481Y16705D01*
X15484Y16709D01*
X15485Y16712D01*
X15486Y16712D01*
X15497Y16725D01*
X15508Y16736D01*
X15521Y16746D01*
X15534Y16756D01*
X15547Y16765D01*
X15560Y16773D01*
X15573Y16780D01*
X15586Y16786D01*
X15598Y16791D01*
X15609Y16796D01*
X15619Y16800D01*
X15627Y16803D01*
X15635Y16805D01*
X15640Y16807D01*
X15642Y16807D01*
X15644D01*
X15644Y16808D01*
X15645D01*
X15666Y16723D01*
D02*
G37*
G36*
X15795Y16151D02*
X15810Y16150D01*
X15824Y16148D01*
X15837Y16146D01*
X15850Y16143D01*
X15861Y16141D01*
X15872Y16139D01*
X15882Y16137D01*
X15891Y16135D01*
X15898Y16132D01*
X15904Y16130D01*
X15909Y16128D01*
X15913Y16127D01*
X15915Y16127D01*
X15916Y16126D01*
X15928Y16121D01*
X15940Y16116D01*
X15951Y16110D01*
X15961Y16104D01*
X15971Y16098D01*
X15980Y16091D01*
X15988Y16085D01*
X15996Y16079D01*
X16002Y16074D01*
X16008Y16068D01*
X16013Y16064D01*
X16017Y16059D01*
X16021Y16056D01*
X16023Y16053D01*
X16025Y16052D01*
X16025Y16051D01*
X16037Y16036D01*
X16046Y16020D01*
X16054Y16004D01*
X16060Y15990D01*
X16063Y15983D01*
X16065Y15977D01*
X16067Y15971D01*
X16069Y15967D01*
X16070Y15963D01*
X16070Y15960D01*
X16071Y15958D01*
Y15957D01*
X16073Y15950D01*
X16074Y15941D01*
X16077Y15923D01*
X16078Y15904D01*
X16079Y15886D01*
X16080Y15877D01*
Y15869D01*
X16080Y15862D01*
Y15624D01*
X15442D01*
Y15854D01*
X15443Y15875D01*
X15444Y15894D01*
X15444Y15903D01*
X15445Y15912D01*
X15446Y15920D01*
X15448Y15927D01*
X15448Y15934D01*
X15449Y15939D01*
X15450Y15944D01*
X15451Y15949D01*
X15451Y15952D01*
X15452Y15954D01*
X15453Y15956D01*
Y15956D01*
X15457Y15972D01*
X15462Y15987D01*
X15467Y16000D01*
X15473Y16011D01*
X15475Y16016D01*
X15477Y16021D01*
X15480Y16024D01*
X15481Y16027D01*
X15482Y16029D01*
X15484Y16031D01*
X15485Y16032D01*
Y16033D01*
X15493Y16044D01*
X15502Y16055D01*
X15512Y16065D01*
X15521Y16074D01*
X15529Y16081D01*
X15536Y16086D01*
X15539Y16088D01*
X15541Y16090D01*
X15542Y16090D01*
X15542Y16091D01*
X15557Y16100D01*
X15573Y16109D01*
X15588Y16116D01*
X15603Y16123D01*
X15609Y16125D01*
X15616Y16128D01*
X15621Y16130D01*
X15626Y16131D01*
X15630Y16133D01*
X15633Y16134D01*
X15635Y16135D01*
X15635D01*
X15657Y16140D01*
X15679Y16145D01*
X15701Y16147D01*
X15711Y16149D01*
X15721Y16150D01*
X15730Y16150D01*
X15738Y16151D01*
X15746Y16151D01*
X15752Y16152D01*
X15757D01*
X15761D01*
X15764D01*
X15764D01*
X15780D01*
X15795Y16151D01*
D02*
G37*
G36*
X15631Y15508D02*
X15641Y15508D01*
X15658Y15504D01*
X15673Y15501D01*
X15680Y15498D01*
X15687Y15496D01*
X15692Y15493D01*
X15698Y15491D01*
X15702Y15488D01*
X15706Y15486D01*
X15709Y15484D01*
X15711Y15483D01*
X15712Y15482D01*
X15713Y15482D01*
X15720Y15476D01*
X15727Y15471D01*
X15739Y15458D01*
X15751Y15444D01*
X15760Y15431D01*
X15764Y15425D01*
X15768Y15419D01*
X15771Y15414D01*
X15774Y15409D01*
X15775Y15405D01*
X15777Y15402D01*
X15778Y15400D01*
X15778Y15400D01*
X15781Y15392D01*
X15785Y15383D01*
X15788Y15372D01*
X15792Y15361D01*
X15799Y15338D01*
X15805Y15314D01*
X15807Y15303D01*
X15810Y15292D01*
X15812Y15283D01*
X15815Y15274D01*
X15816Y15267D01*
X15817Y15262D01*
X15819Y15259D01*
Y15257D01*
X15823Y15239D01*
X15827Y15223D01*
X15831Y15208D01*
X15836Y15194D01*
X15840Y15182D01*
X15843Y15172D01*
X15847Y15163D01*
X15850Y15155D01*
X15853Y15149D01*
X15856Y15143D01*
X15858Y15139D01*
X15860Y15136D01*
X15862Y15133D01*
X15863Y15131D01*
X15864Y15131D01*
Y15130D01*
X15868Y15126D01*
X15873Y15122D01*
X15882Y15116D01*
X15892Y15111D01*
X15900Y15109D01*
X15908Y15106D01*
X15915Y15106D01*
X15917Y15105D01*
X15919D01*
X15920D01*
X15920D01*
X15928Y15106D01*
X15935Y15107D01*
X15941Y15109D01*
X15948Y15111D01*
X15960Y15116D01*
X15970Y15123D01*
X15977Y15129D01*
X15981Y15132D01*
X15984Y15135D01*
X15986Y15137D01*
X15987Y15138D01*
X15988Y15140D01*
X15989Y15140D01*
X15993Y15147D01*
X15998Y15155D01*
X16002Y15164D01*
X16005Y15173D01*
X16010Y15191D01*
X16013Y15210D01*
X16015Y15218D01*
X16015Y15226D01*
X16016Y15234D01*
X16016Y15240D01*
X16017Y15245D01*
Y15252D01*
X16016Y15266D01*
X16016Y15279D01*
X16014Y15290D01*
X16012Y15301D01*
X16010Y15311D01*
X16007Y15320D01*
X16004Y15328D01*
X16001Y15336D01*
X15998Y15342D01*
X15996Y15348D01*
X15993Y15353D01*
X15991Y15357D01*
X15989Y15360D01*
X15987Y15362D01*
X15986Y15363D01*
X15986Y15364D01*
X15980Y15370D01*
X15973Y15377D01*
X15966Y15382D01*
X15959Y15387D01*
X15951Y15391D01*
X15943Y15395D01*
X15929Y15400D01*
X15922Y15403D01*
X15915Y15405D01*
X15909Y15406D01*
X15904Y15407D01*
X15900Y15408D01*
X15897Y15408D01*
X15895Y15409D01*
X15894D01*
X15900Y15489D01*
X15911Y15489D01*
X15921Y15487D01*
X15940Y15483D01*
X15949Y15481D01*
X15957Y15478D01*
X15965Y15476D01*
X15971Y15473D01*
X15978Y15470D01*
X15984Y15467D01*
X15989Y15465D01*
X15993Y15462D01*
X15996Y15461D01*
X15998Y15459D01*
X16000Y15458D01*
X16001Y15458D01*
X16009Y15452D01*
X16017Y15446D01*
X16030Y15432D01*
X16042Y15419D01*
X16051Y15405D01*
X16056Y15399D01*
X16059Y15393D01*
X16062Y15388D01*
X16064Y15383D01*
X16066Y15379D01*
X16067Y15377D01*
X16068Y15375D01*
Y15374D01*
X16076Y15353D01*
X16082Y15332D01*
X16086Y15311D01*
X16088Y15301D01*
X16089Y15291D01*
X16090Y15282D01*
X16090Y15274D01*
X16091Y15267D01*
Y15261D01*
X16092Y15256D01*
Y15249D01*
X16090Y15225D01*
X16088Y15203D01*
X16087Y15193D01*
X16084Y15183D01*
X16083Y15174D01*
X16080Y15166D01*
X16078Y15158D01*
X16077Y15152D01*
X16074Y15146D01*
X16073Y15141D01*
X16072Y15137D01*
X16070Y15133D01*
X16069Y15132D01*
Y15131D01*
X16065Y15122D01*
X16060Y15113D01*
X16056Y15104D01*
X16051Y15096D01*
X16045Y15089D01*
X16040Y15083D01*
X16034Y15077D01*
X16029Y15071D01*
X16025Y15066D01*
X16020Y15063D01*
X16016Y15059D01*
X16013Y15056D01*
X16010Y15054D01*
X16007Y15052D01*
X16006Y15051D01*
X16006Y15051D01*
X15998Y15046D01*
X15990Y15042D01*
X15982Y15038D01*
X15974Y15035D01*
X15959Y15030D01*
X15945Y15027D01*
X15938Y15026D01*
X15933Y15025D01*
X15928Y15025D01*
X15923Y15024D01*
X15920Y15024D01*
X15917D01*
X15915D01*
X15915D01*
X15899Y15025D01*
X15884Y15027D01*
X15871Y15031D01*
X15859Y15035D01*
X15854Y15037D01*
X15849Y15039D01*
X15845Y15041D01*
X15842Y15043D01*
X15839Y15044D01*
X15837Y15045D01*
X15836Y15046D01*
X15836D01*
X15823Y15055D01*
X15811Y15066D01*
X15801Y15078D01*
X15792Y15089D01*
X15785Y15099D01*
X15783Y15103D01*
X15780Y15107D01*
X15779Y15110D01*
X15777Y15112D01*
X15776Y15114D01*
X15776Y15114D01*
X15773Y15121D01*
X15769Y15130D01*
X15765Y15138D01*
X15762Y15148D01*
X15755Y15169D01*
X15749Y15189D01*
X15747Y15199D01*
X15744Y15208D01*
X15742Y15216D01*
X15740Y15223D01*
X15738Y15229D01*
X15737Y15234D01*
X15736Y15236D01*
Y15238D01*
X15732Y15254D01*
X15729Y15268D01*
X15726Y15281D01*
X15722Y15293D01*
X15719Y15303D01*
X15717Y15313D01*
X15714Y15321D01*
X15713Y15328D01*
X15711Y15334D01*
X15709Y15339D01*
X15708Y15343D01*
X15707Y15347D01*
X15706Y15349D01*
X15706Y15351D01*
X15705Y15352D01*
Y15352D01*
X15699Y15366D01*
X15693Y15378D01*
X15687Y15388D01*
X15681Y15396D01*
X15675Y15402D01*
X15671Y15406D01*
X15668Y15409D01*
X15667Y15410D01*
X15659Y15416D01*
X15650Y15420D01*
X15641Y15423D01*
X15633Y15425D01*
X15626Y15426D01*
X15620Y15427D01*
X15618D01*
X15616D01*
X15616D01*
X15615D01*
X15604Y15427D01*
X15594Y15425D01*
X15585Y15422D01*
X15577Y15419D01*
X15570Y15415D01*
X15565Y15412D01*
X15562Y15410D01*
X15561Y15409D01*
X15560D01*
X15552Y15401D01*
X15544Y15393D01*
X15537Y15384D01*
X15532Y15375D01*
X15527Y15367D01*
X15524Y15360D01*
X15523Y15357D01*
X15522Y15355D01*
X15521Y15354D01*
Y15354D01*
X15516Y15339D01*
X15513Y15325D01*
X15510Y15311D01*
X15508Y15297D01*
X15508Y15291D01*
X15507Y15286D01*
Y15281D01*
X15507Y15277D01*
Y15269D01*
X15507Y15249D01*
X15510Y15230D01*
X15513Y15213D01*
X15515Y15206D01*
X15516Y15199D01*
X15518Y15192D01*
X15520Y15187D01*
X15521Y15182D01*
X15523Y15178D01*
X15524Y15174D01*
X15525Y15172D01*
X15526Y15171D01*
Y15170D01*
X15533Y15155D01*
X15541Y15142D01*
X15549Y15131D01*
X15558Y15122D01*
X15565Y15115D01*
X15570Y15110D01*
X15573Y15108D01*
X15574Y15107D01*
X15575Y15106D01*
X15575D01*
X15588Y15099D01*
X15601Y15093D01*
X15614Y15089D01*
X15627Y15085D01*
X15632Y15084D01*
X15638Y15083D01*
X15642Y15081D01*
X15647Y15081D01*
X15650Y15080D01*
X15652D01*
X15654Y15080D01*
X15655D01*
X15647Y15000D01*
X15636Y15001D01*
X15624Y15002D01*
X15603Y15006D01*
X15592Y15009D01*
X15583Y15012D01*
X15574Y15015D01*
X15566Y15018D01*
X15558Y15021D01*
X15552Y15024D01*
X15546Y15027D01*
X15541Y15030D01*
X15537Y15032D01*
X15534Y15033D01*
X15533Y15034D01*
X15532Y15035D01*
X15523Y15042D01*
X15515Y15048D01*
X15507Y15056D01*
X15499Y15063D01*
X15492Y15071D01*
X15486Y15079D01*
X15481Y15086D01*
X15475Y15094D01*
X15471Y15100D01*
X15467Y15106D01*
X15464Y15112D01*
X15461Y15117D01*
X15459Y15121D01*
X15458Y15124D01*
X15457Y15126D01*
X15456Y15127D01*
X15452Y15138D01*
X15448Y15150D01*
X15442Y15174D01*
X15438Y15199D01*
X15436Y15210D01*
X15435Y15221D01*
X15434Y15232D01*
X15433Y15242D01*
X15432Y15250D01*
Y15258D01*
X15431Y15264D01*
Y15272D01*
X15432Y15285D01*
X15433Y15297D01*
X15434Y15309D01*
X15435Y15321D01*
X15437Y15331D01*
X15439Y15341D01*
X15441Y15351D01*
X15444Y15359D01*
X15446Y15367D01*
X15449Y15374D01*
X15451Y15380D01*
X15453Y15386D01*
X15454Y15390D01*
X15455Y15393D01*
X15456Y15395D01*
Y15395D01*
X15461Y15405D01*
X15466Y15415D01*
X15472Y15424D01*
X15478Y15432D01*
X15484Y15439D01*
X15490Y15446D01*
X15495Y15452D01*
X15501Y15458D01*
X15506Y15463D01*
X15511Y15467D01*
X15515Y15471D01*
X15519Y15474D01*
X15522Y15476D01*
X15524Y15478D01*
X15526Y15479D01*
X15526Y15480D01*
X15534Y15484D01*
X15543Y15489D01*
X15552Y15493D01*
X15560Y15497D01*
X15576Y15502D01*
X15591Y15505D01*
X15598Y15507D01*
X15604Y15507D01*
X15609Y15508D01*
X15613Y15508D01*
X15617Y15509D01*
X15620D01*
X15621D01*
X15622D01*
X15631Y15508D01*
D02*
G37*
%LPC*%
G36*
X18315Y15441D02*
X18310D01*
X18307D01*
X18306D01*
X18306D01*
X18293D01*
X18280Y15440D01*
X18268Y15439D01*
X18256Y15438D01*
X18245Y15437D01*
X18235Y15435D01*
X18226Y15434D01*
X18217Y15432D01*
X18209Y15431D01*
X18202Y15429D01*
X18196Y15427D01*
X18191Y15426D01*
X18187Y15425D01*
X18185Y15424D01*
X18183Y15424D01*
X18182D01*
X18165Y15417D01*
X18149Y15409D01*
X18141Y15405D01*
X18135Y15401D01*
X18129Y15398D01*
X18123Y15394D01*
X18119Y15391D01*
X18114Y15388D01*
X18110Y15384D01*
X18108Y15382D01*
X18105Y15380D01*
X18104Y15378D01*
X18103Y15378D01*
X18102Y15377D01*
X18094Y15368D01*
X18088Y15359D01*
X18082Y15349D01*
X18077Y15340D01*
X18074Y15332D01*
X18071Y15326D01*
X18070Y15323D01*
X18069Y15321D01*
X18069Y15320D01*
Y15319D01*
X18067Y15312D01*
X18065Y15305D01*
X18062Y15289D01*
X18060Y15273D01*
X18059Y15257D01*
X18058Y15250D01*
X18058Y15243D01*
Y15236D01*
X18057Y15231D01*
Y15085D01*
X18545D01*
Y15233D01*
X18545Y15245D01*
X18544Y15257D01*
X18543Y15267D01*
X18542Y15277D01*
X18541Y15286D01*
X18540Y15295D01*
X18538Y15302D01*
X18537Y15308D01*
X18536Y15313D01*
X18535Y15318D01*
X18534Y15321D01*
X18533Y15324D01*
X18532Y15326D01*
X18532Y15327D01*
Y15328D01*
X18528Y15337D01*
X18524Y15345D01*
X18519Y15353D01*
X18513Y15360D01*
X18501Y15374D01*
X18489Y15385D01*
X18483Y15390D01*
X18478Y15395D01*
X18473Y15399D01*
X18469Y15401D01*
X18465Y15404D01*
X18462Y15406D01*
X18460Y15407D01*
X18460Y15408D01*
X18449Y15414D01*
X18438Y15419D01*
X18426Y15423D01*
X18413Y15427D01*
X18401Y15430D01*
X18387Y15432D01*
X18375Y15435D01*
X18363Y15437D01*
X18351Y15438D01*
X18340Y15439D01*
X18331Y15440D01*
X18323Y15440D01*
X18315Y15441D01*
D02*
G37*
G36*
X33555Y16800D02*
X33550D01*
X33547D01*
X33546D01*
X33546D01*
X33533D01*
X33520Y16799D01*
X33508Y16798D01*
X33496Y16797D01*
X33485Y16796D01*
X33475Y16794D01*
X33466Y16792D01*
X33457Y16791D01*
X33449Y16790D01*
X33442Y16788D01*
X33436Y16786D01*
X33431Y16785D01*
X33427Y16784D01*
X33425Y16783D01*
X33423Y16782D01*
X33422D01*
X33405Y16776D01*
X33389Y16768D01*
X33381Y16764D01*
X33375Y16760D01*
X33369Y16756D01*
X33363Y16753D01*
X33359Y16750D01*
X33354Y16746D01*
X33350Y16743D01*
X33348Y16741D01*
X33345Y16739D01*
X33344Y16737D01*
X33343Y16736D01*
X33342Y16736D01*
X33334Y16727D01*
X33328Y16718D01*
X33322Y16708D01*
X33317Y16699D01*
X33314Y16691D01*
X33311Y16684D01*
X33310Y16682D01*
X33309Y16680D01*
X33309Y16679D01*
Y16678D01*
X33307Y16671D01*
X33305Y16664D01*
X33302Y16648D01*
X33300Y16632D01*
X33299Y16616D01*
X33298Y16609D01*
X33298Y16601D01*
Y16595D01*
X33297Y16590D01*
Y16444D01*
X33785D01*
Y16591D01*
X33785Y16604D01*
X33784Y16616D01*
X33783Y16626D01*
X33782Y16636D01*
X33781Y16645D01*
X33780Y16653D01*
X33778Y16661D01*
X33777Y16667D01*
X33776Y16672D01*
X33775Y16677D01*
X33774Y16680D01*
X33773Y16683D01*
X33772Y16685D01*
X33772Y16686D01*
Y16687D01*
X33768Y16695D01*
X33764Y16704D01*
X33759Y16712D01*
X33753Y16719D01*
X33741Y16733D01*
X33729Y16744D01*
X33723Y16749D01*
X33718Y16754D01*
X33713Y16758D01*
X33709Y16760D01*
X33705Y16763D01*
X33702Y16765D01*
X33700Y16766D01*
X33700Y16766D01*
X33689Y16772D01*
X33678Y16777D01*
X33666Y16782D01*
X33653Y16786D01*
X33641Y16789D01*
X33627Y16791D01*
X33615Y16794D01*
X33603Y16796D01*
X33591Y16797D01*
X33580Y16798D01*
X33571Y16798D01*
X33563Y16799D01*
X33555Y16800D01*
D02*
G37*
G36*
X28723Y17087D02*
X28718D01*
X28716D01*
X28715D01*
X28692Y17086D01*
X28671Y17084D01*
X28651Y17081D01*
X28633Y17078D01*
X28616Y17073D01*
X28600Y17068D01*
X28586Y17062D01*
X28573Y17056D01*
X28562Y17050D01*
X28552Y17044D01*
X28544Y17039D01*
X28537Y17035D01*
X28532Y17030D01*
X28528Y17028D01*
X28525Y17026D01*
X28524Y17025D01*
X28513Y17013D01*
X28502Y17001D01*
X28493Y16988D01*
X28486Y16975D01*
X28480Y16961D01*
X28474Y16948D01*
X28470Y16935D01*
X28466Y16923D01*
X28464Y16912D01*
X28461Y16901D01*
X28460Y16892D01*
X28459Y16884D01*
X28459Y16877D01*
X28458Y16872D01*
Y16868D01*
X28459Y16851D01*
X28461Y16834D01*
X28464Y16818D01*
X28469Y16804D01*
X28474Y16790D01*
X28479Y16777D01*
X28485Y16766D01*
X28491Y16755D01*
X28497Y16745D01*
X28503Y16736D01*
X28508Y16729D01*
X28513Y16723D01*
X28518Y16718D01*
X28521Y16715D01*
X28523Y16713D01*
X28524Y16712D01*
X28537Y16701D01*
X28551Y16692D01*
X28565Y16683D01*
X28580Y16676D01*
X28595Y16670D01*
X28611Y16665D01*
X28625Y16661D01*
X28640Y16658D01*
X28653Y16655D01*
X28666Y16653D01*
X28677Y16652D01*
X28687Y16651D01*
X28694Y16651D01*
X28698Y16650D01*
X28701D01*
X28703D01*
X28704D01*
X28705D01*
X28706D01*
X28732Y16651D01*
X28756Y16653D01*
X28778Y16656D01*
X28799Y16660D01*
X28817Y16665D01*
X28834Y16671D01*
X28849Y16676D01*
X28862Y16682D01*
X28874Y16688D01*
X28884Y16694D01*
X28892Y16699D01*
X28899Y16704D01*
X28904Y16708D01*
X28908Y16712D01*
X28910Y16714D01*
X28911Y16714D01*
X28922Y16726D01*
X28931Y16740D01*
X28940Y16753D01*
X28947Y16766D01*
X28953Y16779D01*
X28958Y16792D01*
X28962Y16805D01*
X28965Y16816D01*
X28968Y16827D01*
X28970Y16837D01*
X28971Y16847D01*
X28972Y16854D01*
X28972Y16861D01*
X28973Y16865D01*
Y16869D01*
X28972Y16881D01*
X28972Y16893D01*
X28970Y16903D01*
X28968Y16914D01*
X28966Y16924D01*
X28963Y16933D01*
X28960Y16942D01*
X28957Y16950D01*
X28954Y16957D01*
X28951Y16963D01*
X28948Y16969D01*
X28946Y16974D01*
X28944Y16978D01*
X28943Y16981D01*
X28941Y16982D01*
X28941Y16983D01*
X28935Y16992D01*
X28928Y17001D01*
X28920Y17009D01*
X28913Y17017D01*
X28906Y17023D01*
X28898Y17030D01*
X28891Y17035D01*
X28884Y17041D01*
X28877Y17045D01*
X28871Y17049D01*
X28865Y17053D01*
X28860Y17055D01*
X28856Y17058D01*
X28853Y17059D01*
X28851Y17060D01*
X28851Y17060D01*
X28840Y17065D01*
X28828Y17069D01*
X28805Y17076D01*
X28782Y17080D01*
X28771Y17082D01*
X28761Y17084D01*
X28751Y17085D01*
X28743Y17086D01*
X28735Y17086D01*
X28728D01*
X28723Y17087D01*
D02*
G37*
G36*
X25929Y16244D02*
X25924D01*
X25922D01*
X25921D01*
X25898Y16243D01*
X25877Y16241D01*
X25857Y16238D01*
X25839Y16234D01*
X25822Y16229D01*
X25806Y16224D01*
X25792Y16218D01*
X25779Y16213D01*
X25768Y16207D01*
X25758Y16201D01*
X25750Y16196D01*
X25743Y16192D01*
X25738Y16187D01*
X25734Y16184D01*
X25731Y16182D01*
X25730Y16182D01*
X25719Y16170D01*
X25708Y16157D01*
X25699Y16145D01*
X25692Y16131D01*
X25686Y16118D01*
X25680Y16105D01*
X25676Y16092D01*
X25672Y16080D01*
X25670Y16069D01*
X25667Y16058D01*
X25666Y16049D01*
X25665Y16040D01*
X25665Y16034D01*
X25664Y16029D01*
Y16024D01*
X25665Y16007D01*
X25667Y15991D01*
X25670Y15975D01*
X25675Y15961D01*
X25680Y15947D01*
X25685Y15934D01*
X25691Y15922D01*
X25697Y15911D01*
X25703Y15902D01*
X25709Y15893D01*
X25714Y15886D01*
X25719Y15880D01*
X25724Y15875D01*
X25727Y15872D01*
X25729Y15869D01*
X25730Y15869D01*
X25743Y15858D01*
X25757Y15848D01*
X25771Y15840D01*
X25786Y15833D01*
X25801Y15827D01*
X25817Y15822D01*
X25831Y15818D01*
X25846Y15815D01*
X25859Y15812D01*
X25872Y15810D01*
X25883Y15808D01*
X25893Y15808D01*
X25900Y15807D01*
X25904Y15807D01*
X25907D01*
X25909D01*
X25910D01*
X25911D01*
X25912D01*
X25938Y15807D01*
X25962Y15810D01*
X25984Y15813D01*
X26005Y15817D01*
X26023Y15822D01*
X26040Y15827D01*
X26055Y15833D01*
X26068Y15839D01*
X26080Y15845D01*
X26090Y15851D01*
X26098Y15856D01*
X26105Y15861D01*
X26110Y15865D01*
X26114Y15868D01*
X26116Y15870D01*
X26117Y15871D01*
X26128Y15883D01*
X26137Y15896D01*
X26146Y15909D01*
X26153Y15922D01*
X26159Y15936D01*
X26164Y15949D01*
X26168Y15961D01*
X26171Y15973D01*
X26174Y15984D01*
X26176Y15994D01*
X26177Y16003D01*
X26178Y16011D01*
X26178Y16017D01*
X26179Y16022D01*
Y16026D01*
X26178Y16038D01*
X26178Y16049D01*
X26176Y16060D01*
X26174Y16070D01*
X26172Y16080D01*
X26169Y16090D01*
X26166Y16099D01*
X26163Y16106D01*
X26160Y16114D01*
X26157Y16120D01*
X26154Y16126D01*
X26152Y16131D01*
X26150Y16135D01*
X26149Y16137D01*
X26147Y16139D01*
X26147Y16140D01*
X26141Y16149D01*
X26134Y16157D01*
X26126Y16166D01*
X26119Y16173D01*
X26112Y16180D01*
X26104Y16187D01*
X26097Y16192D01*
X26090Y16198D01*
X26083Y16202D01*
X26077Y16206D01*
X26071Y16209D01*
X26066Y16212D01*
X26062Y16214D01*
X26059Y16216D01*
X26057Y16217D01*
X26057Y16217D01*
X26046Y16222D01*
X26034Y16226D01*
X26011Y16233D01*
X25988Y16237D01*
X25977Y16239D01*
X25967Y16240D01*
X25957Y16241D01*
X25949Y16243D01*
X25941Y16243D01*
X25934D01*
X25929Y16244D01*
D02*
G37*
G36*
X20990Y15423D02*
X20988D01*
X20987D01*
X20986D01*
X20974Y15422D01*
X20964Y15420D01*
X20954Y15417D01*
X20946Y15415D01*
X20938Y15411D01*
X20933Y15409D01*
X20931Y15408D01*
X20930Y15406D01*
X20929Y15406D01*
X20928D01*
X20920Y15399D01*
X20911Y15391D01*
X20905Y15383D01*
X20900Y15374D01*
X20895Y15367D01*
X20892Y15362D01*
X20891Y15359D01*
X20891Y15358D01*
X20890Y15357D01*
Y15356D01*
X20888Y15349D01*
X20886Y15343D01*
X20884Y15328D01*
X20881Y15313D01*
X20880Y15298D01*
X20880Y15292D01*
X20879Y15286D01*
Y15280D01*
X20879Y15275D01*
Y15085D01*
X21090D01*
Y15286D01*
X21090Y15299D01*
X21089Y15311D01*
X21087Y15322D01*
X21086Y15332D01*
X21083Y15342D01*
X21081Y15350D01*
X21078Y15358D01*
X21076Y15365D01*
X21073Y15370D01*
X21070Y15376D01*
X21067Y15380D01*
X21065Y15384D01*
X21064Y15386D01*
X21062Y15388D01*
X21061Y15389D01*
X21061Y15390D01*
X21055Y15396D01*
X21049Y15401D01*
X21043Y15405D01*
X21037Y15409D01*
X21030Y15413D01*
X21024Y15415D01*
X21013Y15419D01*
X21002Y15421D01*
X20998Y15422D01*
X20994Y15422D01*
X20990Y15423D01*
D02*
G37*
G36*
X36089Y17761D02*
X36084D01*
X36082D01*
X36081D01*
X36058Y17760D01*
X36037Y17758D01*
X36017Y17755D01*
X35999Y17751D01*
X35982Y17746D01*
X35966Y17741D01*
X35952Y17735D01*
X35939Y17730D01*
X35928Y17724D01*
X35918Y17718D01*
X35910Y17713D01*
X35903Y17709D01*
X35898Y17704D01*
X35894Y17702D01*
X35891Y17699D01*
X35890Y17699D01*
X35879Y17687D01*
X35868Y17674D01*
X35859Y17662D01*
X35852Y17648D01*
X35846Y17635D01*
X35840Y17622D01*
X35836Y17609D01*
X35832Y17597D01*
X35830Y17586D01*
X35827Y17575D01*
X35826Y17566D01*
X35825Y17558D01*
X35825Y17551D01*
X35824Y17546D01*
Y17542D01*
X35825Y17524D01*
X35827Y17508D01*
X35830Y17492D01*
X35835Y17478D01*
X35840Y17464D01*
X35845Y17451D01*
X35851Y17440D01*
X35857Y17429D01*
X35863Y17419D01*
X35869Y17410D01*
X35874Y17403D01*
X35879Y17397D01*
X35884Y17392D01*
X35887Y17389D01*
X35889Y17387D01*
X35890Y17386D01*
X35903Y17375D01*
X35917Y17365D01*
X35931Y17357D01*
X35946Y17350D01*
X35961Y17344D01*
X35977Y17339D01*
X35991Y17335D01*
X36006Y17332D01*
X36019Y17329D01*
X36032Y17327D01*
X36043Y17326D01*
X36053Y17325D01*
X36060Y17325D01*
X36064Y17324D01*
X36067D01*
X36069D01*
X36070D01*
X36071D01*
X36072D01*
X36098Y17325D01*
X36122Y17327D01*
X36144Y17330D01*
X36165Y17334D01*
X36183Y17339D01*
X36200Y17344D01*
X36215Y17350D01*
X36228Y17356D01*
X36240Y17362D01*
X36250Y17368D01*
X36258Y17373D01*
X36265Y17378D01*
X36270Y17382D01*
X36274Y17385D01*
X36276Y17388D01*
X36277Y17388D01*
X36288Y17400D01*
X36297Y17414D01*
X36306Y17426D01*
X36313Y17440D01*
X36319Y17453D01*
X36324Y17466D01*
X36328Y17478D01*
X36331Y17490D01*
X36334Y17501D01*
X36336Y17511D01*
X36337Y17521D01*
X36338Y17528D01*
X36338Y17534D01*
X36339Y17539D01*
Y17543D01*
X36338Y17555D01*
X36338Y17566D01*
X36336Y17577D01*
X36334Y17588D01*
X36332Y17597D01*
X36329Y17607D01*
X36326Y17616D01*
X36323Y17624D01*
X36320Y17631D01*
X36317Y17637D01*
X36314Y17643D01*
X36312Y17648D01*
X36310Y17652D01*
X36309Y17655D01*
X36307Y17656D01*
X36307Y17657D01*
X36301Y17666D01*
X36294Y17674D01*
X36286Y17683D01*
X36279Y17691D01*
X36272Y17697D01*
X36264Y17704D01*
X36257Y17709D01*
X36250Y17715D01*
X36243Y17719D01*
X36237Y17723D01*
X36231Y17727D01*
X36226Y17729D01*
X36222Y17732D01*
X36219Y17733D01*
X36217Y17734D01*
X36217Y17734D01*
X36206Y17739D01*
X36194Y17743D01*
X36171Y17750D01*
X36148Y17754D01*
X36137Y17756D01*
X36127Y17758D01*
X36117Y17759D01*
X36109Y17760D01*
X36101Y17760D01*
X36094D01*
X36089Y17761D01*
D02*
G37*
G36*
X13626Y15368D02*
X13624D01*
X13622D01*
X13621D01*
X13621D01*
X13608Y15368D01*
X13598Y15365D01*
X13588Y15363D01*
X13580Y15360D01*
X13573Y15357D01*
X13569Y15354D01*
X13566Y15352D01*
X13565Y15352D01*
X13557Y15345D01*
X13550Y15337D01*
X13545Y15329D01*
X13541Y15321D01*
X13538Y15314D01*
X13535Y15308D01*
X13534Y15306D01*
X13534Y15305D01*
X13533Y15303D01*
Y15303D01*
X13532Y15298D01*
X13531Y15292D01*
X13529Y15280D01*
X13528Y15267D01*
X13527Y15254D01*
X13526Y15241D01*
X13526Y15236D01*
Y15085D01*
X13719D01*
Y15224D01*
X13719Y15236D01*
X13718Y15246D01*
X13717Y15256D01*
X13717Y15265D01*
X13716Y15273D01*
X13715Y15280D01*
X13715Y15286D01*
X13714Y15292D01*
X13712Y15296D01*
X13712Y15300D01*
X13711Y15303D01*
X13711Y15306D01*
X13710Y15308D01*
X13710Y15308D01*
Y15309D01*
X13706Y15319D01*
X13701Y15328D01*
X13695Y15335D01*
X13690Y15342D01*
X13685Y15346D01*
X13680Y15350D01*
X13678Y15352D01*
X13677Y15353D01*
X13677D01*
X13667Y15358D01*
X13658Y15362D01*
X13648Y15364D01*
X13639Y15367D01*
X13632Y15368D01*
X13626Y15368D01*
D02*
G37*
G36*
X13347Y15395D02*
X13344D01*
X13343D01*
X13341D01*
X13341D01*
X13330Y15395D01*
X13320Y15393D01*
X13310Y15391D01*
X13302Y15389D01*
X13296Y15386D01*
X13291Y15385D01*
X13288Y15383D01*
X13287Y15383D01*
X13287D01*
X13278Y15378D01*
X13271Y15372D01*
X13265Y15367D01*
X13260Y15362D01*
X13256Y15357D01*
X13253Y15353D01*
X13252Y15351D01*
X13251Y15350D01*
X13247Y15342D01*
X13243Y15334D01*
X13241Y15326D01*
X13238Y15318D01*
X13236Y15312D01*
X13235Y15306D01*
X13235Y15304D01*
X13234Y15302D01*
Y15301D01*
X13234Y15298D01*
X13233Y15294D01*
X13232Y15285D01*
X13232Y15276D01*
Y15266D01*
X13231Y15257D01*
Y15085D01*
X13451D01*
Y15243D01*
X13450Y15254D01*
X13449Y15263D01*
X13449Y15272D01*
X13448Y15281D01*
X13447Y15288D01*
X13446Y15295D01*
X13445Y15301D01*
X13444Y15307D01*
X13443Y15312D01*
X13442Y15316D01*
X13441Y15319D01*
X13441Y15322D01*
X13440Y15323D01*
X13439Y15324D01*
Y15325D01*
X13435Y15337D01*
X13430Y15347D01*
X13423Y15355D01*
X13417Y15363D01*
X13411Y15369D01*
X13407Y15373D01*
X13404Y15375D01*
X13403Y15377D01*
X13402D01*
X13392Y15383D01*
X13382Y15388D01*
X13371Y15391D01*
X13362Y15393D01*
X13354Y15394D01*
X13350Y15395D01*
X13347Y15395D01*
D02*
G37*
G36*
X15775Y16065D02*
X15770D01*
X15767D01*
X15766D01*
X15766D01*
X15753D01*
X15740Y16064D01*
X15728Y16063D01*
X15716Y16062D01*
X15705Y16061D01*
X15695Y16059D01*
X15686Y16058D01*
X15677Y16056D01*
X15669Y16055D01*
X15662Y16053D01*
X15656Y16052D01*
X15651Y16050D01*
X15647Y16049D01*
X15645Y16048D01*
X15643Y16048D01*
X15642D01*
X15625Y16041D01*
X15609Y16033D01*
X15601Y16029D01*
X15595Y16025D01*
X15589Y16022D01*
X15583Y16018D01*
X15579Y16015D01*
X15574Y16012D01*
X15570Y16008D01*
X15568Y16006D01*
X15565Y16004D01*
X15564Y16002D01*
X15563Y16002D01*
X15562Y16001D01*
X15554Y15992D01*
X15548Y15983D01*
X15542Y15973D01*
X15537Y15964D01*
X15534Y15956D01*
X15531Y15950D01*
X15530Y15947D01*
X15529Y15945D01*
X15529Y15944D01*
Y15944D01*
X15527Y15936D01*
X15525Y15929D01*
X15522Y15913D01*
X15520Y15897D01*
X15519Y15881D01*
X15518Y15874D01*
X15518Y15867D01*
Y15860D01*
X15517Y15856D01*
Y15709D01*
X16005D01*
Y15857D01*
X16005Y15869D01*
X16004Y15881D01*
X16003Y15891D01*
X16002Y15901D01*
X16001Y15910D01*
X16000Y15919D01*
X15998Y15926D01*
X15997Y15932D01*
X15996Y15937D01*
X15995Y15942D01*
X15994Y15945D01*
X15993Y15949D01*
X15992Y15950D01*
X15992Y15951D01*
Y15952D01*
X15988Y15961D01*
X15984Y15969D01*
X15979Y15977D01*
X15973Y15984D01*
X15961Y15998D01*
X15949Y16009D01*
X15943Y16014D01*
X15938Y16019D01*
X15933Y16023D01*
X15929Y16025D01*
X15925Y16028D01*
X15922Y16030D01*
X15920Y16031D01*
X15920Y16032D01*
X15909Y16038D01*
X15898Y16043D01*
X15886Y16047D01*
X15873Y16051D01*
X15861Y16054D01*
X15847Y16056D01*
X15835Y16059D01*
X15823Y16061D01*
X15811Y16062D01*
X15800Y16063D01*
X15791Y16064D01*
X15783Y16064D01*
X15775Y16065D01*
D02*
G37*
%LPD*%
D11*
X10025Y13127D02*
G03*
X12565Y10587I2540J0D01*
G01*
X39235D02*
G03*
X41775Y13127I0J2540D01*
G01*
X10025D02*
Y33320D01*
X41775Y33320D01*
Y13127D02*
Y33320D01*
X11875Y11725D02*
Y14225D01*
Y11725D02*
X12355D01*
X31795Y14225D02*
X35295D01*
X11875D02*
X14955D01*
X14475D02*
X14955D01*
X26715D02*
X30215D01*
X21635D02*
X25135D01*
X16555D02*
X20055D01*
X14225Y11725D02*
X17305D01*
X29215D02*
X32715D01*
X34295D02*
X37795D01*
X19055D02*
X22555D01*
X12565Y10587D02*
X39235D01*
X24135Y11725D02*
X27635D01*
X39875D02*
Y14225D01*
X36795D02*
X39875D01*
X39395Y11725D02*
X39875D01*
D13*
X9100Y25500D02*
Y31500D01*
X2900D02*
X9100D01*
X2900Y25500D02*
Y31500D01*
Y25500D02*
X9100D01*
X48850D02*
Y31500D01*
X42650D02*
X48850D01*
X42650Y25500D02*
Y31500D01*
Y25500D02*
X48850D01*
X13100Y39483D02*
X12983Y39600D01*
X12750D01*
X12633Y39483D01*
Y39017D01*
X12750Y38900D01*
X12983D01*
X13100Y39017D01*
Y39483D01*
X12400Y38900D02*
X12167D01*
X12284D01*
Y39600D01*
X12400Y39483D01*
X11817Y38900D02*
X11584D01*
X11700D01*
Y39600D01*
X11817Y39483D01*
X11234D02*
X11117Y39600D01*
X10884D01*
X10767Y39483D01*
Y39017D01*
X10884Y38900D01*
X11117D01*
X11234Y39017D01*
Y39483D01*
X10534D02*
X10418Y39600D01*
X10184D01*
X10068Y39483D01*
Y39017D01*
X10184Y38900D01*
X10418D01*
X10534Y39017D01*
Y39483D01*
X9834D02*
X9718Y39600D01*
X9484D01*
X9368Y39483D01*
Y39017D01*
X9484Y38900D01*
X9718D01*
X9834Y39017D01*
Y39483D01*
X9135Y38900D02*
X8901D01*
X9018D01*
Y39600D01*
X9135Y39483D01*
X8551D02*
X8435Y39600D01*
X8202D01*
X8085Y39483D01*
Y39017D01*
X8202Y38900D01*
X8435D01*
X8551Y39017D01*
Y39483D01*
X7852D02*
X7735Y39600D01*
X7502D01*
X7385Y39483D01*
Y39017D01*
X7502Y38900D01*
X7735D01*
X7852Y39017D01*
Y39483D01*
X7152Y38900D02*
X6919D01*
X7035D01*
Y39600D01*
X7152Y39483D01*
X6569Y38900D02*
X6336D01*
X6452D01*
Y39600D01*
X6569Y39483D01*
X5986D02*
X5869Y39600D01*
X5636D01*
X5519Y39483D01*
Y39017D01*
X5636Y38900D01*
X5869D01*
X5986Y39017D01*
Y39483D01*
D14*
X50750Y40500D02*
Y40233D01*
Y40367D01*
X49950D01*
Y40500D01*
Y39834D02*
X50750D01*
X50350D01*
X50217Y39700D01*
Y39434D01*
X50350Y39300D01*
X50750D01*
X50217Y38501D02*
Y38901D01*
X50350Y39034D01*
X50617D01*
X50750Y38901D01*
Y38501D01*
Y38234D02*
X50617D01*
Y38101D01*
X50750D01*
Y38234D01*
Y37568D02*
X50217D01*
Y37168D01*
X50350Y37034D01*
X50750D01*
Y36368D02*
Y36635D01*
X50617Y36768D01*
X50350D01*
X50217Y36635D01*
Y36368D01*
X50350Y36235D01*
X50483D01*
Y36768D01*
X50084Y35835D02*
X50217D01*
Y35968D01*
Y35702D01*
Y35835D01*
X50617D01*
X50750Y35702D01*
Y35302D02*
X50617D01*
Y35168D01*
X50750D01*
Y35302D01*
X49950Y34635D02*
X50750D01*
Y34235D01*
X50617Y34102D01*
X50483D01*
X50350D01*
X50217Y34235D01*
Y34635D01*
Y33835D02*
X50750D01*
X50483D01*
X50350Y33702D01*
X50217Y33569D01*
Y33436D01*
X12083Y32350D02*
Y31650D01*
X11617D01*
X10917Y32233D02*
X11033Y32350D01*
X11267D01*
X11383Y32233D01*
Y31767D01*
X11267Y31650D01*
X11033D01*
X10917Y31767D01*
X10683Y32350D02*
Y31650D01*
X10334D01*
X10217Y31767D01*
Y32233D01*
X10334Y32350D01*
X10683D01*
X45917Y28633D02*
X46033Y28750D01*
X46267D01*
X46383Y28633D01*
Y28517D01*
X46267Y28400D01*
X46033D01*
X45917Y28283D01*
Y28167D01*
X46033Y28050D01*
X46267D01*
X46383Y28167D01*
X45217Y28050D02*
X45683D01*
X45217Y28517D01*
Y28633D01*
X45333Y28750D01*
X45567D01*
X45683Y28633D01*
X5900D02*
X6017Y28750D01*
X6250D01*
X6367Y28633D01*
Y28517D01*
X6250Y28400D01*
X6017D01*
X5900Y28283D01*
Y28167D01*
X6017Y28050D01*
X6250D01*
X6367Y28167D01*
X5667Y28050D02*
X5433D01*
X5550D01*
Y28750D01*
X5667Y28633D01*
D69*
X40772Y13500D02*
G03*
X40772Y13500I-122J0D01*
G01*
M02*
