G04*
G04 #@! TF.GenerationSoftware,Altium Limited,Altium Designer,24.2.2 (26)*
G04*
G04 Layer_Color=16711935*
%FSLAX43Y43*%
%MOMM*%
G71*
G04*
G04 #@! TF.SameCoordinates,FF286A8D-2D74-404F-B011-C83B2EBF38CC*
G04*
G04*
G04 #@! TF.FilePolarity,Negative*
G04*
G01*
G75*
%ADD19R,1.000X5.000*%
%ADD54R,1.724X4.264*%
%ADD59C,1.876*%
%ADD60C,6.200*%
%ADD61C,1.500*%
%ADD62C,0.850*%
%ADD63O,1.100X2.000*%
%ADD64O,1.250X2.300*%
%ADD65R,1.500X1.500*%
%ADD86R,1.500X1.750*%
G36*
X6716Y6459D02*
Y6437D01*
Y6416D01*
Y6395D01*
Y6374D01*
Y6353D01*
Y6332D01*
Y6310D01*
Y6289D01*
Y6268D01*
Y6247D01*
Y6226D01*
Y6205D01*
Y6183D01*
Y6162D01*
Y6141D01*
Y6120D01*
Y6099D01*
Y6078D01*
Y6056D01*
X2081D01*
Y6078D01*
Y6099D01*
Y6120D01*
Y6141D01*
Y6162D01*
Y6183D01*
Y6205D01*
Y6226D01*
Y6247D01*
Y6268D01*
Y6289D01*
Y6310D01*
Y6332D01*
Y6353D01*
Y6374D01*
Y6395D01*
Y6416D01*
Y6437D01*
Y6459D01*
Y6480D01*
X6716D01*
Y6459D01*
D02*
G37*
G36*
X28306D02*
Y6437D01*
Y6416D01*
Y6395D01*
Y6374D01*
Y6353D01*
Y6332D01*
Y6310D01*
Y6289D01*
Y6268D01*
Y6247D01*
Y6226D01*
Y6205D01*
Y6183D01*
Y6162D01*
Y6141D01*
Y6120D01*
Y6099D01*
Y6078D01*
Y6056D01*
Y6035D01*
Y6014D01*
Y5993D01*
Y5972D01*
Y5951D01*
Y5929D01*
Y5908D01*
Y5887D01*
Y5866D01*
X23694D01*
Y5887D01*
Y5908D01*
Y5929D01*
Y5951D01*
Y5972D01*
Y5993D01*
Y6014D01*
Y6035D01*
Y6056D01*
Y6078D01*
Y6099D01*
Y6120D01*
Y6141D01*
Y6162D01*
Y6183D01*
Y6205D01*
Y6226D01*
Y6247D01*
Y6268D01*
Y6289D01*
Y6310D01*
Y6332D01*
Y6353D01*
Y6374D01*
Y6395D01*
Y6416D01*
Y6437D01*
Y6459D01*
Y6480D01*
X28306D01*
Y6459D01*
D02*
G37*
G36*
X49896D02*
Y6437D01*
Y6416D01*
Y6395D01*
Y6374D01*
Y6353D01*
Y6332D01*
Y6310D01*
Y6289D01*
Y6268D01*
Y6247D01*
Y6226D01*
Y6205D01*
Y6183D01*
Y6162D01*
Y6141D01*
Y6120D01*
Y6099D01*
Y6078D01*
Y6056D01*
Y6035D01*
Y6014D01*
Y5993D01*
Y5972D01*
Y5951D01*
Y5929D01*
Y5908D01*
Y5887D01*
Y5866D01*
Y5845D01*
Y5824D01*
Y5802D01*
Y5781D01*
Y5760D01*
Y5739D01*
Y5718D01*
X45284D01*
Y5739D01*
Y5760D01*
Y5781D01*
Y5802D01*
Y5824D01*
Y5845D01*
Y5866D01*
Y5887D01*
Y5908D01*
Y5929D01*
Y5951D01*
Y5972D01*
Y5993D01*
Y6014D01*
Y6035D01*
Y6056D01*
Y6078D01*
Y6099D01*
Y6120D01*
Y6141D01*
Y6162D01*
Y6183D01*
Y6205D01*
Y6226D01*
Y6247D01*
Y6268D01*
Y6289D01*
Y6310D01*
Y6332D01*
Y6353D01*
Y6374D01*
Y6395D01*
Y6416D01*
Y6437D01*
Y6459D01*
Y6480D01*
X49896D01*
Y6459D01*
D02*
G37*
G36*
X39696D02*
Y6437D01*
Y6416D01*
Y6395D01*
Y6374D01*
Y6353D01*
Y6332D01*
Y6310D01*
Y6289D01*
Y6268D01*
Y6247D01*
Y6226D01*
Y6205D01*
Y6183D01*
Y6162D01*
Y6141D01*
Y6120D01*
Y6099D01*
Y6078D01*
Y6056D01*
Y6035D01*
Y6014D01*
Y5993D01*
Y5972D01*
Y5951D01*
Y5929D01*
Y5908D01*
Y5887D01*
Y5866D01*
Y5845D01*
Y5824D01*
Y5802D01*
Y5781D01*
Y5760D01*
Y5739D01*
Y5718D01*
Y5697D01*
Y5675D01*
Y5654D01*
Y5633D01*
Y5612D01*
Y5591D01*
Y5570D01*
Y5548D01*
Y5527D01*
Y5506D01*
Y5485D01*
Y5464D01*
Y5443D01*
Y5421D01*
X35081D01*
Y5443D01*
Y5464D01*
Y5485D01*
Y5506D01*
Y5527D01*
Y5548D01*
Y5570D01*
Y5591D01*
Y5612D01*
Y5633D01*
Y5654D01*
Y5675D01*
Y5697D01*
Y5718D01*
Y5739D01*
Y5760D01*
Y5781D01*
Y5802D01*
Y5824D01*
Y5845D01*
Y5866D01*
Y5887D01*
Y5908D01*
Y5929D01*
Y5951D01*
Y5972D01*
Y5993D01*
Y6014D01*
Y6035D01*
Y6056D01*
Y6078D01*
Y6099D01*
Y6120D01*
Y6141D01*
Y6162D01*
Y6183D01*
Y6205D01*
Y6226D01*
Y6247D01*
Y6268D01*
Y6289D01*
Y6310D01*
Y6332D01*
Y6353D01*
Y6374D01*
Y6395D01*
Y6416D01*
Y6437D01*
Y6459D01*
Y6480D01*
X39696D01*
Y6459D01*
D02*
G37*
G36*
X16899D02*
Y6437D01*
Y6416D01*
Y6395D01*
Y6374D01*
Y6353D01*
Y6332D01*
Y6310D01*
Y6289D01*
Y6268D01*
Y6247D01*
Y6226D01*
Y6205D01*
Y6183D01*
Y6162D01*
Y6141D01*
Y6120D01*
Y6099D01*
Y6078D01*
Y6056D01*
Y6035D01*
Y6014D01*
Y5993D01*
Y5972D01*
Y5951D01*
Y5929D01*
Y5908D01*
Y5887D01*
Y5866D01*
Y5845D01*
Y5824D01*
Y5802D01*
Y5781D01*
Y5760D01*
Y5739D01*
Y5718D01*
Y5697D01*
Y5675D01*
Y5654D01*
Y5633D01*
Y5612D01*
Y5591D01*
Y5570D01*
Y5548D01*
Y5527D01*
Y5506D01*
Y5485D01*
Y5464D01*
Y5443D01*
Y5421D01*
Y5400D01*
Y5379D01*
X12284D01*
Y5400D01*
Y5421D01*
Y5443D01*
Y5464D01*
Y5485D01*
Y5506D01*
Y5527D01*
Y5548D01*
Y5570D01*
Y5591D01*
Y5612D01*
Y5633D01*
Y5654D01*
Y5675D01*
Y5697D01*
Y5718D01*
Y5739D01*
Y5760D01*
Y5781D01*
Y5802D01*
Y5824D01*
Y5845D01*
Y5866D01*
Y5887D01*
Y5908D01*
Y5929D01*
Y5951D01*
Y5972D01*
Y5993D01*
Y6014D01*
Y6035D01*
Y6056D01*
Y6078D01*
Y6099D01*
Y6120D01*
Y6141D01*
Y6162D01*
Y6183D01*
Y6205D01*
Y6226D01*
Y6247D01*
Y6268D01*
Y6289D01*
Y6310D01*
Y6332D01*
Y6353D01*
Y6374D01*
Y6395D01*
Y6416D01*
Y6437D01*
Y6459D01*
Y6480D01*
X16899D01*
Y6459D01*
D02*
G37*
G36*
X49900Y5030D02*
X52162D01*
Y-50D01*
X49622D01*
Y-40D01*
X45558D01*
Y-50D01*
X39462D01*
Y-40D01*
X35398D01*
Y-50D01*
X28032D01*
Y-40D01*
X23968D01*
Y-50D01*
X16602D01*
Y-40D01*
X12855D01*
Y-50D01*
X6505D01*
Y-40D01*
X2378D01*
Y-50D01*
X-162D01*
Y5030D01*
X2050D01*
Y5235D01*
X6660D01*
Y5030D01*
X12290D01*
Y5235D01*
X16900D01*
Y5030D01*
X23700D01*
Y5235D01*
X28310D01*
Y5030D01*
X35080D01*
Y5235D01*
X39690D01*
Y5030D01*
X45290D01*
Y5235D01*
X49900D01*
Y5030D01*
D02*
G37*
%LPC*%
G36*
X37599Y3088D02*
D01*
Y2841D01*
X37599D01*
X37596Y2841D01*
X37592Y2843D01*
X37587Y2846D01*
X37580Y2848D01*
X37572Y2852D01*
X37563Y2856D01*
X37552Y2861D01*
X37541Y2867D01*
X37529Y2873D01*
X37516Y2880D01*
X37502Y2889D01*
X37488Y2898D01*
X37473Y2908D01*
X37457Y2919D01*
X37441Y2931D01*
X37440Y2932D01*
X37438Y2934D01*
X37433Y2938D01*
X37427Y2943D01*
X37420Y2950D01*
X37413Y2957D01*
X37403Y2966D01*
X37394Y2976D01*
X37385Y2987D01*
X37374Y2999D01*
X37364Y3011D01*
X37355Y3025D01*
X37346Y3040D01*
X37337Y3055D01*
X37330Y3071D01*
X37323Y3088D01*
X37171D01*
Y2108D01*
X37599D01*
Y3088D01*
D02*
G37*
G36*
X4706Y3085D02*
X4515D01*
X4116Y2433D01*
Y3085D01*
X3933D01*
Y2110D01*
X4131D01*
X4523Y2747D01*
Y2110D01*
X4706D01*
Y3085D01*
D02*
G37*
G36*
X15790Y3094D02*
X15577D01*
X15330Y2372D01*
X15092Y3094D01*
X15252D01*
X14882D01*
X15230Y2118D01*
X14882D01*
X15442D01*
X15790Y3094D01*
D02*
G37*
G36*
X14824Y2841D02*
X14469D01*
X14461Y2840D01*
X14450Y2839D01*
X14437Y2838D01*
X14423Y2836D01*
X14408Y2834D01*
X14392Y2830D01*
X14375Y2827D01*
X14358Y2823D01*
X14341Y2817D01*
X14324Y2811D01*
X14307Y2803D01*
X14292Y2795D01*
X14277Y2785D01*
X14276Y2784D01*
X14274Y2782D01*
X14269Y2779D01*
X14264Y2775D01*
X14258Y2769D01*
X14251Y2761D01*
X14243Y2753D01*
X14235Y2742D01*
X14225Y2731D01*
X14217Y2719D01*
X14208Y2705D01*
X14198Y2690D01*
X14190Y2673D01*
X14181Y2655D01*
X14174Y2636D01*
X14167Y2616D01*
X14351Y2583D01*
Y2583D01*
X14352Y2585D01*
Y2588D01*
X14353Y2592D01*
X14356Y2601D01*
X14361Y2614D01*
X14367Y2627D01*
X14374Y2641D01*
X14384Y2654D01*
X14395Y2666D01*
X14396Y2666D01*
X14400Y2670D01*
X14407Y2674D01*
X14417Y2680D01*
X14429Y2685D01*
X14444Y2689D01*
X14461Y2693D01*
X14480Y2693D01*
X14487D01*
X14492Y2693D01*
X14497Y2692D01*
X14504Y2691D01*
X14520Y2688D01*
X14538Y2682D01*
X14547Y2677D01*
X14556Y2673D01*
X14565Y2667D01*
X14574Y2660D01*
X14582Y2653D01*
X14591Y2644D01*
X14592Y2644D01*
X14592Y2642D01*
X14594Y2639D01*
X14598Y2635D01*
X14600Y2630D01*
X14603Y2623D01*
X14608Y2616D01*
X14611Y2606D01*
X14615Y2596D01*
X14619Y2584D01*
X14623Y2571D01*
X14625Y2556D01*
X14628Y2540D01*
X14631Y2523D01*
X14631Y2504D01*
X14632Y2484D01*
Y2482D01*
Y2479D01*
Y2472D01*
X14631Y2463D01*
X14631Y2453D01*
X14630Y2441D01*
X14629Y2428D01*
X14627Y2414D01*
X14622Y2385D01*
X14614Y2356D01*
X14610Y2342D01*
X14604Y2329D01*
X14598Y2316D01*
X14591Y2306D01*
X14590Y2305D01*
X14589Y2304D01*
X14587Y2301D01*
X14583Y2298D01*
X14579Y2294D01*
X14574Y2290D01*
X14568Y2285D01*
X14560Y2281D01*
X14544Y2271D01*
X14525Y2263D01*
X14514Y2260D01*
X14502Y2257D01*
X14489Y2255D01*
X14477Y2254D01*
X14472D01*
X14467Y2255D01*
X14458Y2256D01*
X14445Y2258D01*
X14432Y2262D01*
X14417Y2267D01*
X14403Y2274D01*
X14389Y2284D01*
X14388Y2286D01*
X14384Y2290D01*
X14378Y2298D01*
X14374Y2303D01*
X14371Y2309D01*
X14367Y2315D01*
X14362Y2323D01*
X14359Y2331D01*
X14355Y2342D01*
X14351Y2352D01*
X14347Y2363D01*
X14344Y2375D01*
X14341Y2389D01*
X14158Y2358D01*
Y2356D01*
X14159Y2352D01*
X14161Y2346D01*
X14164Y2336D01*
X14167Y2326D01*
X14171Y2315D01*
X14176Y2301D01*
X14182Y2287D01*
X14189Y2271D01*
X14197Y2255D01*
X14206Y2239D01*
X14216Y2223D01*
X14227Y2208D01*
X14240Y2194D01*
X14253Y2179D01*
X14268Y2166D01*
X14269Y2166D01*
X14271Y2164D01*
X14276Y2161D01*
X14282Y2156D01*
X14291Y2151D01*
X14301Y2146D01*
X14312Y2140D01*
X14325Y2134D01*
X14340Y2128D01*
X14356Y2123D01*
X14374Y2117D01*
X14394Y2112D01*
X14414Y2108D01*
X14437Y2105D01*
X14461Y2103D01*
X14485Y2102D01*
X14492D01*
X14500Y2103D01*
X14510Y2104D01*
X14524Y2106D01*
X14539Y2107D01*
X14556Y2111D01*
X14575Y2114D01*
X14594Y2119D01*
X14614Y2126D01*
X14635Y2134D01*
X14655Y2144D01*
X14675Y2155D01*
X14696Y2167D01*
X14715Y2183D01*
X14733Y2199D01*
X14734Y2200D01*
X14737Y2204D01*
X14741Y2210D01*
X14747Y2217D01*
X14754Y2227D01*
X14762Y2239D01*
X14770Y2254D01*
X14779Y2271D01*
X14787Y2288D01*
X14795Y2309D01*
X14803Y2331D01*
X14810Y2355D01*
X14816Y2381D01*
X14820Y2409D01*
X14823Y2439D01*
X14824Y2470D01*
Y2478D01*
X14823Y2487D01*
X14823Y2499D01*
X14822Y2514D01*
X14819Y2531D01*
X14817Y2550D01*
X14812Y2570D01*
X14808Y2591D01*
X14801Y2614D01*
X14795Y2636D01*
X14785Y2659D01*
X14775Y2682D01*
X14762Y2703D01*
X14748Y2723D01*
X14732Y2742D01*
X14731Y2743D01*
X14728Y2747D01*
X14723Y2752D01*
X14715Y2758D01*
X14706Y2765D01*
X14695Y2774D01*
X14681Y2782D01*
X14666Y2792D01*
X14649Y2801D01*
X14631Y2809D01*
X14609Y2818D01*
X14587Y2825D01*
X14564Y2831D01*
X14538Y2836D01*
X14510Y2840D01*
X14482Y2841D01*
X14824D01*
D02*
G37*
G36*
X14066D02*
X13711D01*
X13703Y2840D01*
X13692Y2839D01*
X13679Y2838D01*
X13665Y2836D01*
X13650Y2834D01*
X13634Y2830D01*
X13617Y2827D01*
X13600Y2823D01*
X13583Y2817D01*
X13566Y2811D01*
X13550Y2803D01*
X13534Y2795D01*
X13519Y2785D01*
X13518Y2784D01*
X13516Y2782D01*
X13512Y2779D01*
X13506Y2775D01*
X13501Y2769D01*
X13493Y2761D01*
X13485Y2753D01*
X13477Y2742D01*
X13468Y2731D01*
X13459Y2719D01*
X13450Y2705D01*
X13440Y2690D01*
X13432Y2673D01*
X13424Y2655D01*
X13416Y2636D01*
X13409Y2616D01*
X13594Y2583D01*
Y2583D01*
X13594Y2585D01*
Y2588D01*
X13595Y2592D01*
X13599Y2601D01*
X13603Y2614D01*
X13609Y2627D01*
X13616Y2641D01*
X13626Y2654D01*
X13637Y2666D01*
X13638Y2666D01*
X13643Y2670D01*
X13649Y2674D01*
X13660Y2680D01*
X13671Y2685D01*
X13687Y2689D01*
X13704Y2693D01*
X13722Y2693D01*
X13729D01*
X13734Y2693D01*
X13739Y2692D01*
X13746Y2691D01*
X13762Y2688D01*
X13780Y2682D01*
X13789Y2677D01*
X13798Y2673D01*
X13808Y2667D01*
X13816Y2660D01*
X13824Y2653D01*
X13833Y2644D01*
X13834Y2644D01*
X13835Y2642D01*
X13836Y2639D01*
X13840Y2635D01*
X13842Y2630D01*
X13846Y2623D01*
X13850Y2616D01*
X13853Y2606D01*
X13857Y2596D01*
X13861Y2584D01*
X13865Y2571D01*
X13868Y2556D01*
X13870Y2540D01*
X13873Y2523D01*
X13874Y2504D01*
X13874Y2484D01*
Y2482D01*
Y2479D01*
Y2472D01*
X13874Y2463D01*
X13873Y2453D01*
X13872Y2441D01*
X13871Y2428D01*
X13869Y2414D01*
X13864Y2385D01*
X13857Y2356D01*
X13852Y2342D01*
X13846Y2329D01*
X13841Y2316D01*
X13833Y2306D01*
X13832Y2305D01*
X13831Y2304D01*
X13829Y2301D01*
X13825Y2298D01*
X13821Y2294D01*
X13816Y2290D01*
X13810Y2285D01*
X13802Y2281D01*
X13786Y2271D01*
X13767Y2263D01*
X13756Y2260D01*
X13744Y2257D01*
X13731Y2255D01*
X13719Y2254D01*
X13714D01*
X13709Y2255D01*
X13700Y2256D01*
X13687Y2258D01*
X13674Y2262D01*
X13660Y2267D01*
X13645Y2274D01*
X13632Y2284D01*
X13630Y2286D01*
X13626Y2290D01*
X13620Y2298D01*
X13616Y2303D01*
X13613Y2309D01*
X13609Y2315D01*
X13605Y2323D01*
X13601Y2331D01*
X13597Y2342D01*
X13594Y2352D01*
X13589Y2363D01*
X13586Y2375D01*
X13583Y2389D01*
X13400Y2358D01*
Y2356D01*
X13402Y2352D01*
X13403Y2346D01*
X13406Y2336D01*
X13409Y2326D01*
X13413Y2315D01*
X13418Y2301D01*
X13424Y2287D01*
X13431Y2271D01*
X13440Y2255D01*
X13448Y2239D01*
X13458Y2223D01*
X13469Y2208D01*
X13482Y2194D01*
X13495Y2179D01*
X13510Y2166D01*
X13511Y2166D01*
X13513Y2164D01*
X13518Y2161D01*
X13524Y2156D01*
X13533Y2151D01*
X13543Y2146D01*
X13554Y2140D01*
X13567Y2134D01*
X13583Y2128D01*
X13599Y2123D01*
X13616Y2117D01*
X13636Y2112D01*
X13656Y2108D01*
X13679Y2105D01*
X13703Y2103D01*
X13727Y2102D01*
X13734D01*
X13742Y2103D01*
X13753Y2104D01*
X13766Y2106D01*
X13781Y2107D01*
X13798Y2111D01*
X13817Y2114D01*
X13836Y2119D01*
X13856Y2126D01*
X13877Y2134D01*
X13897Y2144D01*
X13918Y2155D01*
X13938Y2167D01*
X13957Y2183D01*
X13975Y2199D01*
X13976Y2200D01*
X13979Y2204D01*
X13983Y2210D01*
X13989Y2217D01*
X13996Y2227D01*
X14004Y2239D01*
X14012Y2254D01*
X14021Y2271D01*
X14029Y2288D01*
X14038Y2309D01*
X14045Y2331D01*
X14052Y2355D01*
X14058Y2381D01*
X14062Y2409D01*
X14066Y2439D01*
X14066Y2470D01*
Y2478D01*
X14066Y2487D01*
X14065Y2499D01*
X14064Y2514D01*
X14061Y2531D01*
X14059Y2550D01*
X14055Y2570D01*
X14050Y2591D01*
X14044Y2614D01*
X14037Y2636D01*
X14027Y2659D01*
X14017Y2682D01*
X14005Y2703D01*
X13990Y2723D01*
X13974Y2742D01*
X13973Y2743D01*
X13970Y2747D01*
X13965Y2752D01*
X13957Y2758D01*
X13948Y2765D01*
X13937Y2774D01*
X13923Y2782D01*
X13908Y2792D01*
X13891Y2801D01*
X13873Y2809D01*
X13852Y2818D01*
X13830Y2825D01*
X13806Y2831D01*
X13780Y2836D01*
X13753Y2840D01*
X13724Y2841D01*
X14066D01*
D02*
G37*
G36*
X5802Y3102D02*
X4890D01*
Y2093D01*
Y2244D01*
X4891Y2243D01*
X4893Y2241D01*
X4897Y2238D01*
X4902Y2234D01*
X4908Y2229D01*
X4917Y2223D01*
X4926Y2216D01*
X4936Y2208D01*
X4949Y2200D01*
X4961Y2191D01*
X4977Y2183D01*
X4993Y2174D01*
X5010Y2165D01*
X5029Y2156D01*
X5049Y2147D01*
X5071Y2138D01*
X5072Y2137D01*
X5076Y2136D01*
X5082Y2134D01*
X5091Y2131D01*
X5101Y2128D01*
X5114Y2124D01*
X5128Y2120D01*
X5144Y2116D01*
X5161Y2112D01*
X5180Y2108D01*
X5199Y2103D01*
X5219Y2100D01*
X5263Y2095D01*
X5285Y2094D01*
X5307Y2093D01*
X5314D01*
X5323Y2094D01*
X5333D01*
X5346Y2095D01*
X5362Y2097D01*
X5379Y2098D01*
X5398Y2101D01*
X5418Y2104D01*
X5440Y2109D01*
X5462Y2114D01*
X5485Y2120D01*
X5508Y2127D01*
X5531Y2136D01*
X5553Y2146D01*
X5575Y2157D01*
X5576Y2158D01*
X5580Y2160D01*
X5586Y2164D01*
X5593Y2169D01*
X5603Y2175D01*
X5614Y2184D01*
X5625Y2193D01*
X5638Y2204D01*
X5652Y2216D01*
X5666Y2230D01*
X5680Y2245D01*
X5695Y2262D01*
X5708Y2279D01*
X5722Y2298D01*
X5734Y2318D01*
X5746Y2340D01*
X5746Y2342D01*
X5748Y2345D01*
X5751Y2352D01*
X5754Y2361D01*
X5759Y2372D01*
X5763Y2386D01*
X5768Y2401D01*
X5773Y2418D01*
X5779Y2437D01*
X5784Y2457D01*
X5789Y2478D01*
X5793Y2501D01*
X5797Y2525D01*
X5800Y2549D01*
X5801Y2575D01*
X5802Y2601D01*
Y2243D01*
Y2608D01*
X5801Y2616D01*
Y2626D01*
X5800Y2640D01*
X5799Y2655D01*
X5797Y2673D01*
X5795Y2692D01*
X5791Y2712D01*
X5787Y2734D01*
X5782Y2756D01*
X5775Y2779D01*
X5768Y2803D01*
X5760Y2826D01*
X5750Y2849D01*
X5739Y2871D01*
X5738Y2873D01*
X5735Y2877D01*
X5732Y2882D01*
X5727Y2891D01*
X5720Y2901D01*
X5713Y2912D01*
X5702Y2925D01*
X5691Y2938D01*
X5679Y2953D01*
X5665Y2968D01*
X5650Y2983D01*
X5633Y2998D01*
X5615Y3013D01*
X5595Y3027D01*
X5575Y3041D01*
X5552Y3053D01*
X5551Y3054D01*
X5548Y3056D01*
X5543Y3058D01*
X5535Y3061D01*
X5526Y3064D01*
X5515Y3069D01*
X5502Y3074D01*
X5488Y3078D01*
X5471Y3082D01*
X5454Y3087D01*
X5434Y3091D01*
X5414Y3095D01*
X5392Y3098D01*
X5368Y3101D01*
X5344Y3102D01*
X5318Y3102D01*
X5802D01*
D01*
D02*
G37*
G36*
X3726Y3085D02*
X2908D01*
Y2110D01*
Y2576D01*
X2909Y2568D01*
Y2558D01*
X2909Y2546D01*
X2910Y2532D01*
X2911Y2517D01*
X2913Y2501D01*
X2915Y2485D01*
X2920Y2450D01*
X2928Y2415D01*
X2938Y2381D01*
Y2380D01*
X2940Y2376D01*
X2942Y2371D01*
X2945Y2363D01*
X2948Y2354D01*
X2953Y2344D01*
X2959Y2332D01*
X2964Y2319D01*
X2980Y2292D01*
X2997Y2263D01*
X3019Y2235D01*
X3030Y2221D01*
X3042Y2208D01*
X3043Y2208D01*
X3045Y2206D01*
X3047Y2203D01*
X3052Y2200D01*
X3057Y2196D01*
X3063Y2191D01*
X3070Y2186D01*
X3079Y2180D01*
X3088Y2174D01*
X3099Y2168D01*
X3110Y2161D01*
X3123Y2154D01*
X3136Y2148D01*
X3150Y2142D01*
X3165Y2136D01*
X3181Y2131D01*
X3182D01*
X3184Y2130D01*
X3188Y2129D01*
X3193Y2127D01*
X3200Y2125D01*
X3207Y2124D01*
X3217Y2122D01*
X3227Y2120D01*
X3239Y2119D01*
X3252Y2117D01*
X3266Y2115D01*
X3282Y2114D01*
X3299Y2112D01*
X3316Y2111D01*
X3335Y2110D01*
X3726D01*
Y3085D01*
D02*
G37*
G36*
X26333Y3088D02*
X25980D01*
X25973Y3087D01*
X25963D01*
X25951Y3085D01*
X25937Y3083D01*
X25922Y3081D01*
X25905Y3077D01*
X25887Y3073D01*
X25868Y3068D01*
X25850Y3062D01*
X25830Y3055D01*
X25812Y3045D01*
X25794Y3035D01*
X25776Y3022D01*
X25760Y3009D01*
X25759Y3008D01*
X25757Y3006D01*
X25752Y3001D01*
X25747Y2995D01*
X25741Y2988D01*
X25734Y2978D01*
X25726Y2967D01*
X25719Y2956D01*
X25711Y2942D01*
X25703Y2928D01*
X25697Y2912D01*
X25690Y2895D01*
X25685Y2876D01*
X25681Y2857D01*
X25678Y2836D01*
X25677Y2815D01*
Y2804D01*
X25678Y2798D01*
Y2792D01*
X25679Y2784D01*
X25680Y2775D01*
X25683Y2756D01*
X25687Y2735D01*
X25693Y2713D01*
X25701Y2690D01*
Y2689D01*
X25702Y2688D01*
X25703Y2684D01*
X25705Y2680D01*
X25708Y2674D01*
X25711Y2668D01*
X25714Y2660D01*
X25719Y2652D01*
X25730Y2633D01*
X25742Y2612D01*
X25758Y2589D01*
X25776Y2566D01*
Y2565D01*
X25778Y2564D01*
X25780Y2561D01*
X25783Y2557D01*
X25786Y2553D01*
X25791Y2548D01*
X25797Y2541D01*
X25804Y2534D01*
X25812Y2525D01*
X25821Y2516D01*
X25831Y2506D01*
X25842Y2495D01*
X25855Y2482D01*
X25868Y2469D01*
X25883Y2456D01*
X25899Y2441D01*
X25900Y2440D01*
X25903Y2437D01*
X25907Y2433D01*
X25913Y2428D01*
X25920Y2421D01*
X25928Y2413D01*
X25946Y2397D01*
X25966Y2379D01*
X25983Y2361D01*
X25992Y2353D01*
X25999Y2345D01*
X26006Y2338D01*
X26011Y2332D01*
X26012Y2331D01*
X26016Y2328D01*
X26020Y2323D01*
X26025Y2316D01*
X26031Y2309D01*
X26038Y2300D01*
X26043Y2291D01*
X26049Y2282D01*
X25677D01*
Y2108D01*
X26333D01*
Y3088D01*
D02*
G37*
G36*
X47912Y3096D02*
X47278D01*
D01*
X47589D01*
X47582Y3095D01*
X47572Y3094D01*
X47560Y3093D01*
X47546Y3091D01*
X47531Y3088D01*
X47514Y3083D01*
X47497Y3078D01*
X47479Y3072D01*
X47460Y3063D01*
X47442Y3053D01*
X47424Y3042D01*
X47406Y3028D01*
X47389Y3012D01*
X47374Y2995D01*
X47373Y2993D01*
X47370Y2989D01*
X47365Y2982D01*
X47359Y2972D01*
X47352Y2958D01*
X47343Y2942D01*
X47335Y2923D01*
X47326Y2900D01*
X47317Y2874D01*
X47309Y2845D01*
X47304Y2829D01*
X47300Y2812D01*
X47297Y2795D01*
X47293Y2776D01*
X47290Y2757D01*
X47287Y2737D01*
X47284Y2715D01*
X47282Y2693D01*
X47281Y2671D01*
X47279Y2647D01*
X47278Y2622D01*
Y2578D01*
X47279Y2571D01*
Y2561D01*
X47280Y2552D01*
X47281Y2541D01*
Y2529D01*
X47283Y2503D01*
X47287Y2474D01*
X47290Y2444D01*
X47295Y2412D01*
X47302Y2379D01*
X47309Y2345D01*
X47319Y2313D01*
X47330Y2282D01*
X47342Y2251D01*
X47358Y2224D01*
X47366Y2211D01*
X47375Y2199D01*
X47375Y2199D01*
X47378Y2195D01*
X47383Y2190D01*
X47389Y2184D01*
X47397Y2177D01*
X47407Y2168D01*
X47419Y2159D01*
X47431Y2150D01*
X47447Y2140D01*
X47463Y2131D01*
X47481Y2123D01*
X47501Y2115D01*
X47522Y2109D01*
X47545Y2104D01*
X47569Y2101D01*
X47595Y2100D01*
X47278D01*
X47912D01*
Y2617D01*
X47911Y2625D01*
Y2634D01*
X47910Y2644D01*
X47909Y2655D01*
Y2666D01*
X47907Y2693D01*
X47904Y2721D01*
X47900Y2752D01*
X47895Y2784D01*
X47888Y2817D01*
X47880Y2850D01*
X47871Y2882D01*
X47860Y2914D01*
X47847Y2944D01*
X47833Y2971D01*
X47825Y2984D01*
X47816Y2995D01*
X47815Y2996D01*
X47813Y3000D01*
X47808Y3005D01*
X47802Y3011D01*
X47793Y3019D01*
X47784Y3028D01*
X47772Y3036D01*
X47759Y3046D01*
X47744Y3055D01*
X47727Y3064D01*
X47710Y3072D01*
X47690Y3080D01*
X47668Y3087D01*
X47645Y3092D01*
X47622Y3095D01*
X47595Y3096D01*
X47912D01*
D02*
G37*
%LPD*%
G36*
X37358Y2811D02*
X37363Y2808D01*
X37368Y2803D01*
X37376Y2797D01*
X37385Y2788D01*
X37397Y2779D01*
X37411Y2770D01*
X37426Y2759D01*
X37444Y2747D01*
X37462Y2736D01*
X37482Y2724D01*
X37503Y2712D01*
X37526Y2700D01*
X37550Y2690D01*
X37574Y2680D01*
X37599Y2671D01*
Y2108D01*
X37358D01*
Y2812D01*
X37358Y2811D01*
D02*
G37*
G36*
X5301Y3102D02*
X5288D01*
X5273Y3100D01*
X5256Y3098D01*
X5235Y3096D01*
X5214Y3093D01*
X5192Y3089D01*
X5170Y3084D01*
X5146Y3077D01*
X5122Y3070D01*
X5098Y3061D01*
X5076Y3051D01*
X5055Y3039D01*
X5035Y3025D01*
X5034Y3025D01*
X5031Y3022D01*
X5026Y3018D01*
X5019Y3012D01*
X5010Y3003D01*
X5001Y2994D01*
X4991Y2983D01*
X4980Y2970D01*
X4969Y2957D01*
X4958Y2941D01*
X4947Y2924D01*
X4936Y2904D01*
X4926Y2885D01*
X4917Y2863D01*
X4909Y2840D01*
X4903Y2816D01*
X5098Y2779D01*
Y2780D01*
X5099Y2783D01*
X5101Y2786D01*
X5103Y2791D01*
X5105Y2797D01*
X5108Y2804D01*
X5116Y2820D01*
X5126Y2838D01*
X5140Y2857D01*
X5157Y2875D01*
X5176Y2892D01*
X5177Y2893D01*
X5179Y2893D01*
X5182Y2896D01*
X5186Y2899D01*
X5192Y2902D01*
X5198Y2905D01*
X5207Y2909D01*
X5215Y2913D01*
X5225Y2917D01*
X5235Y2921D01*
X5247Y2924D01*
X5260Y2927D01*
X5288Y2932D01*
X5302Y2933D01*
X5318Y2934D01*
X5324D01*
X5331Y2933D01*
X5340D01*
X5351Y2932D01*
X5363Y2930D01*
X5377Y2927D01*
X5392Y2924D01*
X5408Y2920D01*
X5425Y2914D01*
X5442Y2908D01*
X5459Y2899D01*
X5476Y2890D01*
X5493Y2879D01*
X5508Y2866D01*
X5523Y2852D01*
X5524Y2851D01*
X5526Y2848D01*
X5530Y2844D01*
X5535Y2837D01*
X5541Y2828D01*
X5547Y2817D01*
X5554Y2806D01*
X5561Y2791D01*
X5568Y2774D01*
X5575Y2756D01*
X5581Y2736D01*
X5587Y2715D01*
X5592Y2691D01*
X5596Y2665D01*
X5598Y2638D01*
X5599Y2608D01*
Y2608D01*
Y2607D01*
Y2604D01*
Y2601D01*
X5598Y2592D01*
Y2580D01*
X5597Y2565D01*
X5595Y2549D01*
X5592Y2531D01*
X5590Y2511D01*
X5586Y2490D01*
X5581Y2469D01*
X5574Y2447D01*
X5567Y2426D01*
X5558Y2405D01*
X5548Y2384D01*
X5536Y2365D01*
X5522Y2348D01*
X5521Y2347D01*
X5519Y2345D01*
X5515Y2340D01*
X5508Y2334D01*
X5500Y2328D01*
X5491Y2321D01*
X5481Y2313D01*
X5468Y2305D01*
X5455Y2297D01*
X5439Y2289D01*
X5422Y2282D01*
X5405Y2275D01*
X5385Y2269D01*
X5365Y2265D01*
X5343Y2262D01*
X5320Y2262D01*
X5309D01*
X5304Y2262D01*
X5297Y2263D01*
X5290D01*
X5281Y2265D01*
X5263Y2268D01*
X5242Y2272D01*
X5219Y2278D01*
X5197Y2285D01*
X5196D01*
X5194Y2286D01*
X5191Y2288D01*
X5186Y2290D01*
X5181Y2292D01*
X5175Y2295D01*
X5159Y2302D01*
X5142Y2311D01*
X5125Y2321D01*
X5107Y2332D01*
X5089Y2345D01*
Y2468D01*
X5315D01*
Y2633D01*
X4890D01*
Y3102D01*
X5306D01*
X5301Y3102D01*
D02*
G37*
G36*
X3336Y3085D02*
X3324D01*
X3311Y3084D01*
X3297Y3083D01*
X3267Y3080D01*
X3236Y3077D01*
X3206Y3073D01*
X3193Y3069D01*
X3180Y3066D01*
X3179D01*
X3176Y3065D01*
X3172Y3063D01*
X3166Y3061D01*
X3158Y3058D01*
X3150Y3055D01*
X3140Y3051D01*
X3129Y3046D01*
X3107Y3033D01*
X3095Y3026D01*
X3082Y3018D01*
X3070Y3009D01*
X3057Y2999D01*
X3046Y2988D01*
X3034Y2976D01*
X3033Y2976D01*
X3031Y2974D01*
X3028Y2970D01*
X3024Y2965D01*
X3019Y2959D01*
X3013Y2951D01*
X3006Y2943D01*
X2999Y2932D01*
X2992Y2921D01*
X2984Y2910D01*
X2976Y2897D01*
X2968Y2882D01*
X2960Y2868D01*
X2953Y2852D01*
X2940Y2818D01*
Y2817D01*
X2938Y2814D01*
X2937Y2809D01*
X2935Y2801D01*
X2932Y2793D01*
X2930Y2782D01*
X2927Y2769D01*
X2924Y2755D01*
X2920Y2739D01*
X2918Y2721D01*
X2915Y2702D01*
X2913Y2682D01*
X2910Y2660D01*
X2909Y2637D01*
X2908Y2614D01*
Y3085D01*
X3346D01*
X3336Y3085D01*
D02*
G37*
G36*
X3529Y2275D02*
X3361D01*
X3354Y2276D01*
X3336D01*
X3316Y2278D01*
X3297Y2279D01*
X3278Y2281D01*
X3270Y2283D01*
X3262Y2284D01*
X3261D01*
X3260Y2285D01*
X3258Y2286D01*
X3255Y2287D01*
X3245Y2290D01*
X3234Y2294D01*
X3222Y2300D01*
X3209Y2306D01*
X3196Y2315D01*
X3184Y2324D01*
X3182Y2326D01*
X3178Y2330D01*
X3173Y2337D01*
X3165Y2347D01*
X3156Y2360D01*
X3148Y2376D01*
X3140Y2395D01*
X3135Y2406D01*
X3131Y2418D01*
Y2419D01*
X3130Y2421D01*
X3129Y2425D01*
X3128Y2430D01*
X3126Y2437D01*
X3124Y2445D01*
X3123Y2454D01*
X3121Y2465D01*
X3119Y2477D01*
X3118Y2491D01*
X3116Y2505D01*
X3114Y2521D01*
X3112Y2539D01*
X3112Y2557D01*
X3111Y2577D01*
Y2597D01*
Y2599D01*
Y2603D01*
Y2608D01*
Y2616D01*
X3112Y2625D01*
Y2636D01*
X3112Y2648D01*
X3113Y2661D01*
X3116Y2689D01*
X3119Y2718D01*
X3124Y2745D01*
X3128Y2758D01*
X3131Y2770D01*
Y2771D01*
X3132Y2773D01*
X3133Y2776D01*
X3134Y2780D01*
X3137Y2785D01*
X3140Y2791D01*
X3145Y2805D01*
X3154Y2820D01*
X3163Y2836D01*
X3175Y2851D01*
X3188Y2865D01*
X3189Y2866D01*
X3195Y2871D01*
X3202Y2876D01*
X3212Y2883D01*
X3226Y2891D01*
X3241Y2899D01*
X3259Y2905D01*
X3278Y2911D01*
X3279D01*
X3280Y2912D01*
X3282D01*
X3287Y2913D01*
X3292Y2914D01*
X3298Y2915D01*
X3305Y2915D01*
X3314Y2916D01*
X3324Y2917D01*
X3336Y2918D01*
X3349D01*
X3365Y2919D01*
X3381Y2920D01*
X3399Y2921D01*
X3529D01*
Y2275D01*
D02*
G37*
G36*
X26333Y2109D02*
X26332Y2112D01*
X26331Y2117D01*
X26330Y2125D01*
X26328Y2134D01*
X26327Y2144D01*
X26324Y2155D01*
X26321Y2168D01*
X26317Y2182D01*
X26312Y2197D01*
X26301Y2228D01*
X26295Y2244D01*
X26287Y2261D01*
X26279Y2277D01*
X26269Y2294D01*
X26268Y2295D01*
X26267Y2298D01*
X26263Y2304D01*
X26258Y2310D01*
X26252Y2320D01*
X26244Y2330D01*
X26235Y2342D01*
X26223Y2357D01*
X26209Y2373D01*
X26194Y2391D01*
X26177Y2410D01*
X26158Y2430D01*
X26136Y2453D01*
X26113Y2477D01*
X26087Y2502D01*
X26059Y2529D01*
X26057Y2530D01*
X26053Y2534D01*
X26047Y2539D01*
X26038Y2548D01*
X26028Y2557D01*
X26017Y2568D01*
X26005Y2580D01*
X25992Y2593D01*
X25966Y2619D01*
X25952Y2633D01*
X25940Y2645D01*
X25928Y2658D01*
X25919Y2670D01*
X25911Y2680D01*
X25904Y2688D01*
X25903Y2689D01*
X25902Y2691D01*
X25900Y2694D01*
X25898Y2699D01*
X25895Y2704D01*
X25891Y2710D01*
X25884Y2724D01*
X25878Y2742D01*
X25871Y2761D01*
X25867Y2781D01*
X25865Y2792D01*
Y2803D01*
Y2803D01*
Y2805D01*
Y2808D01*
X25866Y2813D01*
Y2818D01*
X25867Y2825D01*
X25869Y2838D01*
X25873Y2853D01*
X25879Y2869D01*
X25888Y2885D01*
X25899Y2899D01*
X25900Y2901D01*
X25905Y2904D01*
X25912Y2910D01*
X25923Y2916D01*
X25936Y2922D01*
X25952Y2928D01*
X25971Y2931D01*
X25992Y2933D01*
X25998D01*
X26001Y2932D01*
X26006D01*
X26012Y2931D01*
X26026Y2929D01*
X26040Y2924D01*
X26055Y2918D01*
X26070Y2909D01*
X26085Y2897D01*
X26087Y2896D01*
X26088Y2894D01*
X26090Y2891D01*
X26093Y2886D01*
X26096Y2882D01*
X26099Y2876D01*
X26103Y2869D01*
X26106Y2862D01*
X26109Y2853D01*
X26113Y2844D01*
X26116Y2833D01*
X26119Y2821D01*
X26121Y2809D01*
X26123Y2795D01*
X26125Y2781D01*
X26311Y2799D01*
Y2800D01*
Y2801D01*
X26310Y2806D01*
X26309Y2814D01*
X26306Y2825D01*
X26304Y2837D01*
X26301Y2852D01*
X26297Y2868D01*
X26291Y2885D01*
X26285Y2902D01*
X26279Y2921D01*
X26270Y2939D01*
X26260Y2957D01*
X26249Y2975D01*
X26236Y2991D01*
X26222Y3006D01*
X26207Y3020D01*
X26206Y3021D01*
X26202Y3022D01*
X26197Y3026D01*
X26191Y3031D01*
X26182Y3036D01*
X26172Y3041D01*
X26160Y3048D01*
X26146Y3054D01*
X26131Y3060D01*
X26114Y3066D01*
X26096Y3072D01*
X26076Y3077D01*
X26056Y3082D01*
X26034Y3085D01*
X26011Y3087D01*
X25987Y3088D01*
X26333D01*
Y2109D01*
D02*
G37*
G36*
X47607Y2940D02*
X47616Y2939D01*
X47625Y2936D01*
X47635Y2932D01*
X47646Y2927D01*
X47656Y2919D01*
X47657Y2918D01*
X47660Y2915D01*
X47666Y2909D01*
X47672Y2902D01*
X47678Y2891D01*
X47685Y2877D01*
X47692Y2861D01*
X47698Y2841D01*
Y2841D01*
X47699Y2838D01*
X47699Y2834D01*
X47700Y2827D01*
X47702Y2819D01*
X47704Y2809D01*
X47705Y2797D01*
X47707Y2784D01*
X47709Y2768D01*
X47710Y2750D01*
X47712Y2730D01*
X47714Y2708D01*
X47715Y2683D01*
X47715Y2657D01*
X47716Y2628D01*
Y2597D01*
Y2596D01*
Y2595D01*
Y2593D01*
Y2589D01*
Y2581D01*
Y2569D01*
X47715Y2556D01*
Y2539D01*
X47715Y2522D01*
X47714Y2503D01*
X47712Y2464D01*
X47710Y2444D01*
X47710Y2425D01*
X47707Y2407D01*
X47705Y2390D01*
X47702Y2375D01*
X47699Y2361D01*
Y2360D01*
X47699Y2358D01*
X47698Y2355D01*
X47696Y2351D01*
X47694Y2346D01*
X47693Y2340D01*
X47688Y2326D01*
X47681Y2312D01*
X47673Y2298D01*
X47665Y2286D01*
X47660Y2280D01*
X47655Y2276D01*
X47655Y2275D01*
X47650Y2272D01*
X47645Y2269D01*
X47638Y2265D01*
X47629Y2261D01*
X47619Y2258D01*
X47608Y2255D01*
X47595Y2254D01*
X47589D01*
X47584Y2255D01*
X47575Y2257D01*
X47566Y2260D01*
X47556Y2264D01*
X47545Y2269D01*
X47535Y2276D01*
X47534Y2276D01*
X47531Y2280D01*
X47526Y2286D01*
X47520Y2293D01*
X47513Y2304D01*
X47506Y2318D01*
X47499Y2334D01*
X47493Y2353D01*
Y2354D01*
X47492Y2357D01*
X47491Y2361D01*
X47490Y2367D01*
X47489Y2375D01*
X47487Y2386D01*
X47485Y2397D01*
X47483Y2411D01*
X47481Y2427D01*
X47479Y2445D01*
X47478Y2464D01*
X47477Y2486D01*
X47475Y2511D01*
X47474Y2537D01*
X47474Y2566D01*
Y2597D01*
Y2598D01*
Y2599D01*
Y2601D01*
Y2605D01*
Y2613D01*
Y2625D01*
X47474Y2638D01*
Y2655D01*
X47475Y2672D01*
X47476Y2691D01*
X47478Y2730D01*
X47479Y2750D01*
X47481Y2769D01*
X47483Y2787D01*
X47485Y2804D01*
X47488Y2819D01*
X47491Y2833D01*
Y2834D01*
X47492Y2836D01*
X47493Y2839D01*
X47495Y2843D01*
X47496Y2848D01*
X47498Y2854D01*
X47503Y2868D01*
X47509Y2882D01*
X47517Y2896D01*
X47526Y2909D01*
X47530Y2915D01*
X47535Y2919D01*
X47536Y2920D01*
X47540Y2923D01*
X47545Y2926D01*
X47552Y2930D01*
X47562Y2934D01*
X47572Y2938D01*
X47583Y2940D01*
X47595Y2941D01*
X47601D01*
X47607Y2940D01*
D02*
G37*
G36*
X47912Y2100D02*
X47601D01*
X47609Y2101D01*
X47619Y2101D01*
X47631Y2103D01*
X47645Y2106D01*
X47660Y2109D01*
X47677Y2113D01*
X47695Y2119D01*
X47714Y2127D01*
X47732Y2135D01*
X47752Y2145D01*
X47771Y2158D01*
X47790Y2172D01*
X47808Y2189D01*
X47825Y2209D01*
X47825Y2210D01*
X47828Y2214D01*
X47832Y2221D01*
X47838Y2230D01*
X47845Y2243D01*
X47853Y2258D01*
X47860Y2276D01*
X47868Y2298D01*
X47872Y2310D01*
X47876Y2324D01*
X47880Y2337D01*
X47884Y2352D01*
X47888Y2368D01*
X47891Y2384D01*
X47895Y2401D01*
X47898Y2419D01*
X47901Y2439D01*
X47903Y2458D01*
X47906Y2479D01*
X47908Y2501D01*
X47909Y2524D01*
X47911Y2548D01*
X47912Y2572D01*
Y2100D01*
D02*
G37*
D19*
X17745Y2450D02*
D03*
X11395D02*
D03*
X1235D02*
D03*
X10125D02*
D03*
X7585D02*
D03*
X8855D02*
D03*
X19015D02*
D03*
X21555D02*
D03*
X22825D02*
D03*
X20285D02*
D03*
X30445D02*
D03*
X29175D02*
D03*
X32985D02*
D03*
X34255D02*
D03*
X31715D02*
D03*
X41875D02*
D03*
X43145D02*
D03*
X40605D02*
D03*
X50765D02*
D03*
X44415D02*
D03*
D54*
X47340Y42368D02*
D03*
X42260D02*
D03*
D59*
X38605Y13000D02*
D03*
X33525D02*
D03*
X30985D02*
D03*
X28445D02*
D03*
X25905D02*
D03*
X23365D02*
D03*
X20825D02*
D03*
X18285D02*
D03*
X15745D02*
D03*
X13205D02*
D03*
X36065D02*
D03*
D60*
X14595Y6950D02*
D03*
X4355D02*
D03*
X26005D02*
D03*
X47595D02*
D03*
X37385D02*
D03*
D61*
X50175Y14025D02*
D03*
Y12025D02*
D03*
Y16025D02*
D03*
Y18025D02*
D03*
D62*
X32990Y37920D02*
D03*
X27210D02*
D03*
D63*
X25780Y41600D02*
D03*
X34420D02*
D03*
D64*
X25780Y37420D02*
D03*
X34420D02*
D03*
D65*
X50175Y20025D02*
D03*
D86*
X3750Y32475D02*
D03*
X8250D02*
D03*
X3750Y24525D02*
D03*
X8250D02*
D03*
X43500Y32475D02*
D03*
X48000D02*
D03*
X43500Y24525D02*
D03*
X48000D02*
D03*
M02*
