G04*
G04 #@! TF.GenerationSoftware,Altium Limited,Altium Designer,24.2.2 (26)*
G04*
G04 Layer_Color=32896*
%FSLAX43Y43*%
%MOMM*%
G71*
G04*
G04 #@! TF.SameCoordinates,64C95865-F52C-4F6A-8C26-E1CD83AD4D4F*
G04*
G04*
G04 #@! TF.FilePolarity,Positive*
G04*
G01*
G75*
%ADD11C,0.200*%
%ADD13C,0.254*%
%ADD14C,0.150*%
%ADD68C,0.500*%
G36*
X33234Y51331D02*
X33226D01*
Y51347D01*
X33234D01*
Y51331D01*
D02*
G37*
G36*
X33226Y51306D02*
Y51297D01*
X33217D01*
Y51322D01*
X33226D01*
Y51306D01*
D02*
G37*
G36*
X24569Y43615D02*
X22439D01*
Y42337D01*
X21218D01*
Y43615D01*
X18974D01*
Y42763D01*
X17781D01*
Y43615D01*
X13919D01*
Y43956D01*
X18122D01*
Y43104D01*
X18633D01*
Y43956D01*
X21558D01*
Y42678D01*
X22070D01*
Y43956D01*
X24569D01*
Y43615D01*
D02*
G37*
G36*
X24228Y39668D02*
X21132D01*
Y41599D01*
Y41627D01*
Y41883D01*
X22496D01*
Y40179D01*
X22865D01*
Y43189D01*
X24228D01*
Y39668D01*
D02*
G37*
G36*
X17327Y39696D02*
X17298D01*
Y39668D01*
X14260D01*
Y41031D01*
X15623D01*
Y40179D01*
X15992D01*
Y42678D01*
X15623D01*
Y41826D01*
X14260D01*
Y43189D01*
X17327D01*
Y39696D01*
D02*
G37*
G36*
X20792Y39668D02*
X19428D01*
Y41372D01*
X19400D01*
Y41400D01*
X19059D01*
Y39242D01*
X17696D01*
Y42309D01*
X19428D01*
Y43189D01*
X20792D01*
Y39668D01*
D02*
G37*
G36*
X24995Y39327D02*
X24654D01*
Y43132D01*
Y43161D01*
Y43530D01*
X24995D01*
Y39327D01*
D02*
G37*
G36*
X13834Y42337D02*
Y42309D01*
Y39327D01*
X13464D01*
Y43530D01*
X13834D01*
Y42337D01*
D02*
G37*
G36*
X24569Y38872D02*
X19514D01*
Y39242D01*
X24569D01*
Y38872D01*
D02*
G37*
G36*
X17242Y39213D02*
X17270D01*
Y38901D01*
X17242D01*
Y38872D01*
X13919D01*
Y39242D01*
X17242D01*
Y39213D01*
D02*
G37*
G36*
X19400Y38759D02*
Y38730D01*
Y38446D01*
X17355D01*
Y38787D01*
X19400D01*
Y38759D01*
D02*
G37*
G36*
X4861Y18833D02*
X5619D01*
Y18454D01*
X5447D01*
Y18489D01*
X5240D01*
Y18454D01*
X5206D01*
Y17524D01*
X4758D01*
Y18420D01*
X4792D01*
Y18489D01*
X4379D01*
Y18661D01*
Y18696D01*
Y18868D01*
X4861D01*
Y18833D01*
D02*
G37*
G36*
X3931Y18627D02*
X3966D01*
Y18523D01*
X4000D01*
Y18420D01*
X4034D01*
Y18351D01*
X4069D01*
Y18248D01*
X4103D01*
Y18144D01*
X4138D01*
Y18041D01*
X4172D01*
Y17972D01*
X4207D01*
Y17869D01*
X4241D01*
Y17766D01*
X4276D01*
Y17662D01*
X4310D01*
Y17593D01*
X4344D01*
Y17456D01*
X4276D01*
Y17421D01*
X4172D01*
Y17387D01*
X4103D01*
Y17352D01*
X4000D01*
Y17318D01*
X3966D01*
Y17352D01*
X3931D01*
Y17421D01*
X3897D01*
Y17524D01*
X3862D01*
Y17628D01*
X3828D01*
Y17731D01*
X3793D01*
Y17800D01*
X3759D01*
Y17903D01*
X3724D01*
Y18007D01*
X3690D01*
Y18110D01*
X3656D01*
Y18179D01*
X3621D01*
Y18282D01*
X3587D01*
Y18386D01*
X3552D01*
Y18489D01*
X3518D01*
Y18592D01*
X3621D01*
Y18627D01*
X3690D01*
Y18661D01*
X3793D01*
Y18696D01*
X3931D01*
Y18627D01*
D02*
G37*
G36*
X6170Y18592D02*
X6239D01*
Y18558D01*
X6308D01*
Y18523D01*
X6411D01*
Y18489D01*
X6480D01*
Y18386D01*
X6446D01*
Y18317D01*
X6411D01*
Y18213D01*
X6377D01*
Y18144D01*
X6342D01*
Y18076D01*
X6308D01*
Y17972D01*
X6273D01*
Y17903D01*
X6239D01*
Y17834D01*
X6204D01*
Y17731D01*
X6170D01*
Y17662D01*
X6136D01*
Y17593D01*
X6101D01*
Y17490D01*
X6067D01*
Y17421D01*
X6032D01*
Y17387D01*
Y17352D01*
X5998D01*
Y17283D01*
X5963D01*
Y17249D01*
X5929D01*
Y17283D01*
X5860D01*
Y17318D01*
X5757D01*
Y17352D01*
X5688D01*
Y17387D01*
X5619D01*
Y17421D01*
X5584D01*
Y17490D01*
X5619D01*
Y17559D01*
X5653D01*
Y17662D01*
X5688D01*
Y17731D01*
X5722D01*
Y17800D01*
X5757D01*
Y17903D01*
X5791D01*
Y17972D01*
X5826D01*
Y18041D01*
X5860D01*
Y18144D01*
X5894D01*
Y18213D01*
X5929D01*
Y18282D01*
X5963D01*
Y18386D01*
X5998D01*
Y18454D01*
X6032D01*
Y18523D01*
X6067D01*
Y18592D01*
X6101D01*
Y18627D01*
X6170D01*
Y18592D01*
D02*
G37*
G36*
X3104Y18041D02*
X3173D01*
Y18007D01*
X3242D01*
Y17972D01*
X3277D01*
Y17938D01*
X3311D01*
Y17903D01*
X3380D01*
Y17869D01*
X3414D01*
Y17800D01*
X3449D01*
Y17766D01*
X3483D01*
Y17731D01*
X3518D01*
Y17662D01*
X3552D01*
Y17593D01*
X3587D01*
Y17421D01*
X3621D01*
Y17352D01*
X3587D01*
Y17180D01*
X3552D01*
Y17111D01*
X3518D01*
Y17077D01*
X3483D01*
Y17008D01*
X3449D01*
Y16973D01*
X3414D01*
Y16939D01*
X3380D01*
Y16904D01*
X3346D01*
Y16870D01*
X3311D01*
Y16836D01*
X3277D01*
Y16801D01*
X3208D01*
Y16767D01*
X3139D01*
Y16732D01*
X3070D01*
Y16698D01*
X2760D01*
Y16732D01*
X2657D01*
Y16767D01*
X2622D01*
Y16801D01*
X2553D01*
Y16836D01*
X2519D01*
Y16870D01*
X2484D01*
Y16904D01*
X2450D01*
Y16939D01*
X2416D01*
Y16973D01*
X2381D01*
Y17008D01*
X2347D01*
Y17042D01*
X2312D01*
Y17111D01*
X2278D01*
Y17180D01*
X2243D01*
Y17249D01*
Y17283D01*
X2209D01*
Y17524D01*
X2243D01*
Y17628D01*
X2278D01*
Y17697D01*
X2312D01*
Y17731D01*
X2347D01*
Y17800D01*
X2381D01*
Y17834D01*
X2416D01*
Y17869D01*
X2450D01*
Y17903D01*
X2484D01*
Y17938D01*
X2553D01*
Y17972D01*
X2588D01*
Y18007D01*
X2657D01*
Y18041D01*
X2726D01*
Y18076D01*
X3104D01*
Y18041D01*
D02*
G37*
G36*
X7169Y17869D02*
X7272D01*
Y17834D01*
X7341D01*
Y17800D01*
X7376D01*
Y17766D01*
X7410D01*
Y17731D01*
X7444D01*
Y17697D01*
X7479D01*
Y17662D01*
X7513D01*
Y17628D01*
X7548D01*
Y17593D01*
X7582D01*
Y17559D01*
X7617D01*
Y17524D01*
X7651D01*
Y17456D01*
X7686D01*
Y17421D01*
X7720D01*
Y17387D01*
X7754D01*
Y17352D01*
X7789D01*
Y17318D01*
X7823D01*
Y17283D01*
X7858D01*
Y17249D01*
X7892D01*
Y17214D01*
X7858D01*
Y17180D01*
X7823D01*
Y17146D01*
X7754D01*
Y17111D01*
X7720D01*
Y17077D01*
X7686D01*
Y17042D01*
X7651D01*
Y17008D01*
X7617D01*
Y16973D01*
X7582D01*
Y16939D01*
X7548D01*
Y16904D01*
X7513D01*
Y16870D01*
X7479D01*
Y16836D01*
X7410D01*
Y16801D01*
X7376D01*
Y16767D01*
X7341D01*
Y16732D01*
X7307D01*
Y16698D01*
X7272D01*
Y16663D01*
X7238D01*
Y16629D01*
X7203D01*
Y16594D01*
X7169D01*
Y16560D01*
X7134D01*
Y16526D01*
X7066D01*
Y16491D01*
X7031D01*
Y16457D01*
X6997D01*
Y16422D01*
X6962D01*
Y16388D01*
X6928D01*
Y16353D01*
X6893D01*
Y16388D01*
X6859D01*
Y16457D01*
X6824D01*
Y16491D01*
X6790D01*
Y16526D01*
X6756D01*
Y16560D01*
X6721D01*
Y16594D01*
X6687D01*
Y16629D01*
X6652D01*
Y16663D01*
X6618D01*
Y16698D01*
X6583D01*
Y16767D01*
X6549D01*
Y16801D01*
X6514D01*
Y16836D01*
X6480D01*
Y16870D01*
X6446D01*
Y16939D01*
X6411D01*
Y16973D01*
X6377D01*
Y17077D01*
X6342D01*
Y17352D01*
X6377D01*
Y17421D01*
X6411D01*
Y17490D01*
X6446D01*
Y17559D01*
X6480D01*
Y17593D01*
X6514D01*
Y17628D01*
X6549D01*
Y17662D01*
X6583D01*
Y17697D01*
X6618D01*
Y17731D01*
X6687D01*
Y17766D01*
X6721D01*
Y17800D01*
X6790D01*
Y17834D01*
X6859D01*
Y17869D01*
X6962D01*
Y17903D01*
X7169D01*
Y17869D01*
D02*
G37*
G36*
X1623Y16629D02*
X1796D01*
Y16594D01*
X1968D01*
Y16560D01*
X2174D01*
Y16526D01*
X2347D01*
Y16491D01*
X2519D01*
Y16457D01*
X2691D01*
Y16422D01*
X2863D01*
Y16284D01*
X2829D01*
Y16112D01*
X2794D01*
Y16009D01*
X2622D01*
Y16043D01*
X2450D01*
Y16078D01*
X2278D01*
Y16112D01*
X2174D01*
Y16078D01*
X2209D01*
Y16043D01*
X2243D01*
Y16009D01*
X2278D01*
Y15974D01*
X2312D01*
Y15940D01*
X2347D01*
Y15906D01*
X2381D01*
Y15871D01*
X2416D01*
Y15837D01*
X2450D01*
Y15802D01*
X2484D01*
Y15768D01*
X2519D01*
Y15733D01*
X2553D01*
Y15699D01*
X2588D01*
Y15664D01*
X2622D01*
Y15630D01*
X2657D01*
Y15596D01*
X2691D01*
Y15423D01*
X2657D01*
Y15217D01*
X2622D01*
Y15148D01*
X2553D01*
Y15182D01*
X2381D01*
Y15217D01*
X2209D01*
Y15251D01*
X2037D01*
Y15286D01*
X1864D01*
Y15320D01*
X1692D01*
Y15354D01*
X1486D01*
Y15389D01*
X1348D01*
Y15423D01*
X1313D01*
Y15492D01*
X1348D01*
Y15664D01*
X1382D01*
Y15802D01*
X1554D01*
Y15768D01*
X1727D01*
Y15733D01*
X1933D01*
Y15699D01*
X2037D01*
Y15733D01*
X2002D01*
Y15768D01*
X1968D01*
Y15802D01*
X1933D01*
Y15837D01*
X1899D01*
Y15871D01*
X1864D01*
Y15906D01*
X1830D01*
Y15940D01*
X1796D01*
Y15974D01*
X1761D01*
Y16009D01*
X1727D01*
Y16043D01*
X1692D01*
Y16078D01*
X1658D01*
Y16112D01*
X1623D01*
Y16147D01*
X1589D01*
Y16181D01*
X1554D01*
Y16216D01*
X1520D01*
Y16250D01*
X1486D01*
Y16353D01*
X1520D01*
Y16526D01*
X1554D01*
Y16560D01*
Y16663D01*
X1623D01*
Y16629D01*
D02*
G37*
G36*
X8271Y16319D02*
X8306D01*
Y16078D01*
X8340D01*
Y15871D01*
X8374D01*
Y15664D01*
X8409D01*
Y15458D01*
X8443D01*
Y15354D01*
X8409D01*
Y15320D01*
X8237D01*
Y15286D01*
X7996D01*
Y15251D01*
X7789D01*
Y15217D01*
X7582D01*
Y15182D01*
X7376D01*
Y15148D01*
X7134D01*
Y15182D01*
X7100D01*
Y15423D01*
X7066D01*
Y15630D01*
X7031D01*
Y15837D01*
X6997D01*
Y16043D01*
X6962D01*
Y16250D01*
X7100D01*
Y16284D01*
X7272D01*
Y16250D01*
X7307D01*
Y16009D01*
X7341D01*
Y15802D01*
X7376D01*
Y15630D01*
X7582D01*
Y15837D01*
X7548D01*
Y16078D01*
X7513D01*
Y16284D01*
X7754D01*
Y16319D01*
X7789D01*
Y16284D01*
X7823D01*
Y16078D01*
X7858D01*
Y15837D01*
X7892D01*
Y15699D01*
X7996D01*
Y15733D01*
X8064D01*
Y15802D01*
X8030D01*
Y16009D01*
X7996D01*
Y16216D01*
X7961D01*
Y16388D01*
X8064D01*
Y16422D01*
X8271D01*
Y16319D01*
D02*
G37*
G36*
X2760Y14631D02*
X2794D01*
Y14597D01*
X2829D01*
Y14528D01*
X2863D01*
Y14459D01*
X2898D01*
Y14321D01*
X2863D01*
Y14252D01*
X2829D01*
Y14218D01*
X2760D01*
Y14183D01*
X2519D01*
Y14218D01*
X2450D01*
Y14252D01*
X2416D01*
Y14287D01*
X2347D01*
Y14321D01*
X2243D01*
Y14287D01*
X2174D01*
Y14218D01*
X2312D01*
Y14252D01*
X2381D01*
Y14149D01*
X2416D01*
Y14046D01*
X2312D01*
Y14011D01*
X2174D01*
Y14046D01*
X2140D01*
Y14080D01*
X2106D01*
Y14114D01*
X2071D01*
Y14183D01*
X2037D01*
Y14424D01*
X2071D01*
Y14459D01*
X2106D01*
Y14493D01*
X2174D01*
Y14528D01*
X2416D01*
Y14493D01*
X2484D01*
Y14459D01*
X2519D01*
Y14424D01*
X2553D01*
Y14390D01*
X2691D01*
Y14424D01*
X2726D01*
Y14493D01*
X2657D01*
Y14459D01*
X2588D01*
Y14528D01*
X2553D01*
Y14597D01*
X2519D01*
Y14631D01*
X2553D01*
Y14666D01*
X2760D01*
Y14631D01*
D02*
G37*
G36*
X7169Y14562D02*
X7272D01*
Y14528D01*
X7341D01*
Y14493D01*
X7410D01*
Y14459D01*
X7479D01*
Y14424D01*
X7548D01*
Y14390D01*
X7617D01*
Y14356D01*
X7651D01*
Y14321D01*
X7686D01*
Y14252D01*
X7720D01*
Y14114D01*
X7686D01*
Y14011D01*
X7651D01*
Y13977D01*
X7617D01*
Y13942D01*
X7582D01*
Y13908D01*
X7479D01*
Y13873D01*
X7444D01*
Y13908D01*
X7341D01*
Y13942D01*
X7272D01*
Y14046D01*
X7307D01*
Y14114D01*
X7341D01*
Y14149D01*
X7410D01*
Y14114D01*
X7479D01*
Y14080D01*
X7548D01*
Y14183D01*
X7479D01*
Y14218D01*
X7410D01*
Y14252D01*
X7341D01*
Y14287D01*
X7272D01*
Y14321D01*
X7169D01*
Y14356D01*
X7100D01*
Y14390D01*
X7031D01*
Y14356D01*
X6997D01*
Y14321D01*
X7066D01*
Y14287D01*
X7134D01*
Y14252D01*
X7203D01*
Y14149D01*
X7169D01*
Y14080D01*
X7134D01*
Y14046D01*
X7066D01*
Y14080D01*
X6997D01*
Y14114D01*
X6928D01*
Y14149D01*
X6893D01*
Y14218D01*
X6859D01*
Y14390D01*
X6893D01*
Y14459D01*
X6928D01*
Y14528D01*
X6962D01*
Y14562D01*
X7031D01*
Y14597D01*
X7169D01*
Y14562D01*
D02*
G37*
G36*
X3001Y14149D02*
X3036D01*
Y14114D01*
X3070D01*
Y14046D01*
X3104D01*
Y14011D01*
X3139D01*
Y13942D01*
X3173D01*
Y13908D01*
X3139D01*
Y13873D01*
X3070D01*
Y13839D01*
X3036D01*
Y13804D01*
X2967D01*
Y13770D01*
X2932D01*
Y13736D01*
X2898D01*
Y13701D01*
X2829D01*
Y13667D01*
X2794D01*
Y13632D01*
X2726D01*
Y13598D01*
X2691D01*
Y13563D01*
X2657D01*
Y13529D01*
X2588D01*
Y13494D01*
X2553D01*
Y13460D01*
X2450D01*
Y13529D01*
X2416D01*
Y13563D01*
X2381D01*
Y13632D01*
X2347D01*
Y13667D01*
X2312D01*
Y13736D01*
X2278D01*
Y13770D01*
X2312D01*
Y13804D01*
X2381D01*
Y13839D01*
X2416D01*
Y13804D01*
X2450D01*
Y13770D01*
X2484D01*
Y13736D01*
X2553D01*
Y13770D01*
X2622D01*
Y13804D01*
X2657D01*
Y13839D01*
X2622D01*
Y13908D01*
X2588D01*
Y13942D01*
X2622D01*
Y13977D01*
X2657D01*
Y14011D01*
X2726D01*
Y13977D01*
X2760D01*
Y13942D01*
X2863D01*
Y13977D01*
X2898D01*
Y14080D01*
X2863D01*
Y14114D01*
X2829D01*
Y14149D01*
X2863D01*
Y14183D01*
X2932D01*
Y14218D01*
X3001D01*
Y14149D01*
D02*
G37*
G36*
X6824Y14046D02*
X6893D01*
Y14011D01*
X6962D01*
Y13977D01*
X6997D01*
Y13942D01*
X7031D01*
Y13908D01*
X7066D01*
Y13873D01*
X7134D01*
Y13839D01*
X7169D01*
Y13804D01*
X7203D01*
Y13770D01*
X7238D01*
Y13736D01*
X7272D01*
Y13701D01*
X7307D01*
Y13667D01*
X7341D01*
Y13460D01*
X7307D01*
Y13391D01*
X7272D01*
Y13357D01*
X7238D01*
Y13322D01*
X7169D01*
Y13288D01*
X6997D01*
Y13322D01*
X6962D01*
Y13357D01*
X6893D01*
Y13391D01*
X6859D01*
Y13426D01*
X6824D01*
Y13460D01*
X6790D01*
Y13494D01*
X6756D01*
Y13529D01*
X6687D01*
Y13563D01*
X6652D01*
Y13598D01*
X6618D01*
Y13632D01*
X6583D01*
Y13667D01*
X6549D01*
Y13908D01*
X6583D01*
Y13942D01*
X6618D01*
Y14011D01*
X6687D01*
Y14046D01*
X6756D01*
Y14080D01*
X6824D01*
Y14046D01*
D02*
G37*
G36*
X3346Y13736D02*
X3380D01*
Y13701D01*
X3414D01*
Y13667D01*
X3449D01*
Y13598D01*
X3414D01*
Y13563D01*
X3380D01*
Y13494D01*
X3346D01*
Y13460D01*
X3311D01*
Y13426D01*
X3277D01*
Y13391D01*
X3242D01*
Y13357D01*
X3208D01*
Y13322D01*
X3173D01*
Y13288D01*
X3139D01*
Y13253D01*
X3104D01*
Y13219D01*
X3070D01*
Y13184D01*
X3036D01*
Y13150D01*
X3001D01*
Y13116D01*
X2967D01*
Y13081D01*
X2932D01*
Y13047D01*
X2898D01*
Y13012D01*
X2863D01*
Y13047D01*
X2829D01*
Y13081D01*
X2794D01*
Y13116D01*
X2760D01*
Y13150D01*
X2726D01*
Y13184D01*
X2691D01*
Y13219D01*
X2657D01*
Y13288D01*
X2691D01*
Y13322D01*
X2726D01*
Y13357D01*
X2794D01*
Y13322D01*
X2829D01*
Y13288D01*
X2863D01*
Y13322D01*
X2898D01*
Y13357D01*
X2932D01*
Y13391D01*
X2967D01*
Y13426D01*
X3001D01*
Y13460D01*
X3036D01*
Y13494D01*
X3070D01*
Y13529D01*
X3104D01*
Y13563D01*
X3139D01*
Y13598D01*
X3173D01*
Y13632D01*
X3208D01*
Y13667D01*
X3242D01*
Y13701D01*
X3277D01*
Y13770D01*
X3346D01*
Y13736D01*
D02*
G37*
G36*
X4999Y17352D02*
X5274D01*
Y17318D01*
X5412D01*
Y17283D01*
X5550D01*
Y17249D01*
X5653D01*
Y17214D01*
X5722D01*
Y17180D01*
X5791D01*
Y17146D01*
X5860D01*
Y17111D01*
X5929D01*
Y17077D01*
X5963D01*
Y17042D01*
X6032D01*
Y17008D01*
X6067D01*
Y16973D01*
X6136D01*
Y16939D01*
X6170D01*
Y16904D01*
X6204D01*
Y16870D01*
X6273D01*
Y16836D01*
X6308D01*
Y16801D01*
X6342D01*
Y16767D01*
X6377D01*
Y16732D01*
X6411D01*
Y16698D01*
X6446D01*
Y16629D01*
X6480D01*
Y16594D01*
X6514D01*
Y16560D01*
X6549D01*
Y16491D01*
X6583D01*
Y16457D01*
X6618D01*
Y16388D01*
X6652D01*
Y16353D01*
X6687D01*
Y16284D01*
X6721D01*
Y16216D01*
X6756D01*
Y16147D01*
X6790D01*
Y16043D01*
X6824D01*
Y15974D01*
X6859D01*
Y15837D01*
X6893D01*
Y15699D01*
X6928D01*
Y14941D01*
X6893D01*
Y14769D01*
X6859D01*
Y14666D01*
X6824D01*
Y14562D01*
X6790D01*
Y14493D01*
X6756D01*
Y14390D01*
X6721D01*
Y14356D01*
X6687D01*
Y14287D01*
X6652D01*
Y14218D01*
X6618D01*
Y14149D01*
X6583D01*
Y14114D01*
X6549D01*
Y14080D01*
X6514D01*
Y14011D01*
X6480D01*
Y13977D01*
X6446D01*
Y13942D01*
X6411D01*
Y13908D01*
X6377D01*
Y13873D01*
X6342D01*
Y13839D01*
X6308D01*
Y13804D01*
X6273D01*
Y13770D01*
X6239D01*
Y13736D01*
X6204D01*
Y13701D01*
X6170D01*
Y13667D01*
X6101D01*
Y13632D01*
X6067D01*
Y13598D01*
X5998D01*
Y13563D01*
X5963D01*
Y13529D01*
X5894D01*
Y13494D01*
X5826D01*
Y13460D01*
X5757D01*
Y13426D01*
X5688D01*
Y13391D01*
X5584D01*
Y13357D01*
X5481D01*
Y13322D01*
X5343D01*
Y13288D01*
X5171D01*
Y13253D01*
X4586D01*
Y13288D01*
X4413D01*
Y13322D01*
X4276D01*
Y13357D01*
X4172D01*
Y13391D01*
X4103D01*
Y13426D01*
X4000D01*
Y13460D01*
X3931D01*
Y13494D01*
X3862D01*
Y13529D01*
X3828D01*
Y13563D01*
X3759D01*
Y13598D01*
X3690D01*
Y13632D01*
X3656D01*
Y13667D01*
X3621D01*
Y13701D01*
X3587D01*
Y13736D01*
X3518D01*
Y13770D01*
X3483D01*
Y13804D01*
X3449D01*
Y13839D01*
X3414D01*
Y13873D01*
X3380D01*
Y13908D01*
X3346D01*
Y13942D01*
X3311D01*
Y13977D01*
X3277D01*
Y14046D01*
X3242D01*
Y14080D01*
X3208D01*
Y14114D01*
X3173D01*
Y14183D01*
X3139D01*
Y14252D01*
X3104D01*
Y14287D01*
X3070D01*
Y14356D01*
X3036D01*
Y14424D01*
X3001D01*
Y14493D01*
X2967D01*
Y14597D01*
X2932D01*
Y14700D01*
X2898D01*
Y14803D01*
X2863D01*
Y14976D01*
X2829D01*
Y15630D01*
X2863D01*
Y15802D01*
X2898D01*
Y15940D01*
X2932D01*
Y16043D01*
X2967D01*
Y16112D01*
X3001D01*
Y16216D01*
X3036D01*
Y16284D01*
X3070D01*
Y16319D01*
X3104D01*
Y16388D01*
X3139D01*
Y16457D01*
X3173D01*
Y16491D01*
X3208D01*
Y16560D01*
X3242D01*
Y16594D01*
X3277D01*
Y16629D01*
X3311D01*
Y16663D01*
X3346D01*
Y16698D01*
X3380D01*
Y16732D01*
X3414D01*
Y16767D01*
X3449D01*
Y16801D01*
X3483D01*
Y16836D01*
X3518D01*
Y16870D01*
X3552D01*
Y16904D01*
X3587D01*
Y16939D01*
X3621D01*
Y16973D01*
X3690D01*
Y17008D01*
X3724D01*
Y17042D01*
X3793D01*
Y17077D01*
X3828D01*
Y17111D01*
X3897D01*
Y17146D01*
X3966D01*
Y17180D01*
X4034D01*
Y17214D01*
X4138D01*
Y17249D01*
X4207D01*
Y17283D01*
X4344D01*
Y17318D01*
X4482D01*
Y17352D01*
X4758D01*
Y17387D01*
X4999D01*
Y17352D01*
D02*
G37*
G36*
X4413Y13116D02*
X4620D01*
Y13081D01*
X4758D01*
Y12943D01*
X4723D01*
Y12909D01*
X4654D01*
Y12943D01*
X4620D01*
Y12909D01*
X4586D01*
Y12668D01*
X4551D01*
Y12461D01*
X4517D01*
Y12254D01*
X4379D01*
Y12289D01*
X4276D01*
Y12323D01*
X4310D01*
Y12496D01*
X4344D01*
Y12737D01*
X4379D01*
Y12978D01*
X4276D01*
Y13116D01*
X4310D01*
Y13150D01*
X4413D01*
Y13116D01*
D02*
G37*
G36*
X6446Y13598D02*
X6480D01*
Y13563D01*
X6514D01*
Y13529D01*
X6549D01*
Y13460D01*
X6583D01*
Y13426D01*
X6618D01*
Y13391D01*
X6652D01*
Y13357D01*
X6687D01*
Y13322D01*
Y13288D01*
X6721D01*
Y13253D01*
X6756D01*
Y13219D01*
X6790D01*
Y13184D01*
X6824D01*
Y13116D01*
X6859D01*
Y13081D01*
X6893D01*
Y13047D01*
X6928D01*
Y13012D01*
X6893D01*
Y12978D01*
X6859D01*
Y12943D01*
X6824D01*
Y12909D01*
X6756D01*
Y12874D01*
X6721D01*
Y12840D01*
X6687D01*
Y12806D01*
X6618D01*
Y12874D01*
X6583D01*
Y12909D01*
X6549D01*
Y12943D01*
X6583D01*
Y12978D01*
X6618D01*
Y13012D01*
X6652D01*
Y13047D01*
X6618D01*
Y13081D01*
X6583D01*
Y13116D01*
X6549D01*
Y13184D01*
X6514D01*
Y13219D01*
X6480D01*
Y13253D01*
X6446D01*
Y13288D01*
X6411D01*
Y13357D01*
X6377D01*
Y13391D01*
X6342D01*
Y13426D01*
X6308D01*
Y13460D01*
X6273D01*
Y13529D01*
X6239D01*
Y13563D01*
X6273D01*
Y13598D01*
X6308D01*
Y13632D01*
X6342D01*
Y13667D01*
X6446D01*
Y13598D01*
D02*
G37*
G36*
X3621Y13460D02*
X3690D01*
Y13426D01*
X3759D01*
Y13391D01*
X3828D01*
Y13357D01*
X3862D01*
Y13322D01*
X3931D01*
Y13253D01*
X3897D01*
Y13184D01*
X3862D01*
Y13116D01*
X3828D01*
Y13081D01*
X3793D01*
Y13012D01*
X3759D01*
Y12943D01*
X3724D01*
Y12909D01*
X3690D01*
Y12840D01*
X3656D01*
Y12806D01*
Y12771D01*
X3621D01*
Y12737D01*
X3587D01*
Y12668D01*
X3552D01*
Y12599D01*
X3518D01*
Y12564D01*
X3483D01*
Y12599D01*
X3414D01*
Y12633D01*
X3346D01*
Y12668D01*
X3311D01*
Y12702D01*
X3242D01*
Y12737D01*
X3208D01*
Y12771D01*
X3173D01*
Y12806D01*
X3139D01*
Y12978D01*
X3173D01*
Y13012D01*
X3208D01*
Y13081D01*
X3242D01*
Y13116D01*
X3277D01*
Y13150D01*
X3311D01*
Y13184D01*
X3380D01*
Y13322D01*
X3414D01*
Y13391D01*
X3449D01*
Y13426D01*
X3483D01*
Y13460D01*
X3552D01*
Y13494D01*
X3621D01*
Y13460D01*
D02*
G37*
G36*
X6067Y13391D02*
X6101D01*
Y13322D01*
X6136D01*
Y13253D01*
X6170D01*
Y13184D01*
X6204D01*
Y13116D01*
X6239D01*
Y13047D01*
X6273D01*
Y12978D01*
X6308D01*
Y12909D01*
X6342D01*
Y12840D01*
X6377D01*
Y12806D01*
X6411D01*
Y12737D01*
X6446D01*
Y12633D01*
X6377D01*
Y12599D01*
X6308D01*
Y12564D01*
X6239D01*
Y12530D01*
X6170D01*
Y12496D01*
X6136D01*
Y12564D01*
X6101D01*
Y12668D01*
X6136D01*
Y12702D01*
X6204D01*
Y12737D01*
X6170D01*
Y12806D01*
X6136D01*
Y12840D01*
X6101D01*
Y12909D01*
X6067D01*
Y12978D01*
X6032D01*
Y13047D01*
X5998D01*
Y13116D01*
X5963D01*
Y13184D01*
X5929D01*
Y13253D01*
X5894D01*
Y13357D01*
X5963D01*
Y13391D01*
X6032D01*
Y13426D01*
X6067D01*
Y13391D01*
D02*
G37*
G36*
X4103Y13219D02*
X4172D01*
Y13184D01*
X4241D01*
Y13150D01*
X4207D01*
Y13047D01*
X4172D01*
Y12943D01*
X4138D01*
Y12909D01*
Y12874D01*
X4103D01*
Y12771D01*
X4069D01*
Y12668D01*
X4034D01*
Y12564D01*
X4000D01*
Y12461D01*
X3966D01*
Y12392D01*
X3862D01*
Y12427D01*
X3759D01*
Y12530D01*
X3793D01*
Y12633D01*
X3828D01*
Y12737D01*
X3862D01*
Y12806D01*
X3897D01*
Y12909D01*
X3931D01*
Y13012D01*
X3966D01*
Y13116D01*
X4000D01*
Y13184D01*
X4034D01*
Y13253D01*
X4103D01*
Y13219D01*
D02*
G37*
G36*
X5137Y13081D02*
X5206D01*
Y13047D01*
X5274D01*
Y12978D01*
X5309D01*
Y12668D01*
X5343D01*
Y12358D01*
X5309D01*
Y12289D01*
X5274D01*
Y12254D01*
X5206D01*
Y12220D01*
X4964D01*
Y12254D01*
X4896D01*
Y12289D01*
X4861D01*
Y12358D01*
X4827D01*
Y12564D01*
X5033D01*
Y12392D01*
X5068D01*
Y12358D01*
X5137D01*
Y12599D01*
X5102D01*
Y12943D01*
X5068D01*
Y12978D01*
X5033D01*
Y12943D01*
X4999D01*
Y12840D01*
X5033D01*
Y12702D01*
X4827D01*
Y12771D01*
X4792D01*
Y12840D01*
Y12874D01*
Y12909D01*
X4827D01*
Y13012D01*
X4861D01*
Y13047D01*
X4896D01*
Y13081D01*
X4999D01*
Y13116D01*
X5137D01*
Y13081D01*
D02*
G37*
G36*
X5722D02*
X5757D01*
Y12978D01*
X5791D01*
Y12874D01*
X5826D01*
Y12737D01*
X5860D01*
Y12633D01*
X5894D01*
Y12530D01*
X5929D01*
Y12392D01*
X5826D01*
Y12358D01*
X5722D01*
Y12323D01*
X5619D01*
Y12289D01*
X5584D01*
Y12358D01*
X5550D01*
Y12461D01*
X5584D01*
Y12496D01*
X5688D01*
Y12599D01*
X5653D01*
Y12702D01*
X5584D01*
Y12668D01*
X5481D01*
Y12806D01*
X5516D01*
Y12840D01*
X5584D01*
Y12943D01*
X5550D01*
Y13012D01*
X5481D01*
Y12978D01*
X5412D01*
Y13012D01*
X5378D01*
Y13081D01*
Y13116D01*
Y13150D01*
X5481D01*
Y13184D01*
X5584D01*
Y13219D01*
X5722D01*
Y13081D01*
D02*
G37*
G36*
X18528Y18499D02*
X18546Y18499D01*
X18562Y18497D01*
X18578Y18494D01*
X18592Y18491D01*
X18607Y18488D01*
X18620Y18484D01*
X18632Y18481D01*
X18643Y18477D01*
X18653Y18474D01*
X18661Y18470D01*
X18669Y18467D01*
X18674Y18465D01*
X18678Y18463D01*
X18681Y18462D01*
X18682Y18461D01*
X18696Y18454D01*
X18709Y18445D01*
X18721Y18436D01*
X18732Y18427D01*
X18743Y18417D01*
X18752Y18407D01*
X18761Y18397D01*
X18768Y18388D01*
X18775Y18379D01*
X18782Y18371D01*
X18786Y18363D01*
X18791Y18357D01*
X18794Y18352D01*
X18796Y18348D01*
X18797Y18345D01*
X18798Y18345D01*
X18805Y18330D01*
X18811Y18315D01*
X18817Y18300D01*
X18821Y18286D01*
X18825Y18270D01*
X18829Y18257D01*
X18831Y18243D01*
X18834Y18230D01*
X18835Y18218D01*
X18836Y18207D01*
X18837Y18198D01*
X18838Y18189D01*
X18838Y18182D01*
Y18173D01*
X18837Y18148D01*
X18834Y18123D01*
X18831Y18100D01*
X18828Y18090D01*
X18826Y18079D01*
X18824Y18070D01*
X18821Y18062D01*
X18819Y18055D01*
X18818Y18049D01*
X18816Y18044D01*
X18815Y18040D01*
X18813Y18038D01*
Y18037D01*
X18803Y18013D01*
X18791Y17989D01*
X18779Y17967D01*
X18773Y17957D01*
X18767Y17948D01*
X18761Y17940D01*
X18756Y17932D01*
X18752Y17925D01*
X18748Y17920D01*
X18744Y17915D01*
X18741Y17911D01*
X18740Y17909D01*
X18739Y17909D01*
X18501D01*
Y18180D01*
X18577D01*
Y17992D01*
X18697D01*
X18706Y18003D01*
X18714Y18015D01*
X18721Y18028D01*
X18728Y18042D01*
X18734Y18053D01*
X18736Y18058D01*
X18739Y18062D01*
X18740Y18067D01*
X18741Y18069D01*
X18742Y18071D01*
Y18071D01*
X18749Y18091D01*
X18754Y18110D01*
X18758Y18128D01*
X18760Y18144D01*
X18761Y18152D01*
X18761Y18158D01*
X18762Y18164D01*
Y18169D01*
X18763Y18173D01*
Y18178D01*
X18761Y18202D01*
X18759Y18224D01*
X18754Y18244D01*
X18752Y18254D01*
X18749Y18262D01*
X18746Y18270D01*
X18744Y18277D01*
X18741Y18283D01*
X18739Y18289D01*
X18738Y18293D01*
X18736Y18295D01*
X18735Y18298D01*
Y18298D01*
X18730Y18309D01*
X18723Y18318D01*
X18710Y18335D01*
X18696Y18350D01*
X18682Y18362D01*
X18669Y18371D01*
X18664Y18375D01*
X18660Y18378D01*
X18655Y18381D01*
X18653Y18382D01*
X18650Y18383D01*
X18650Y18384D01*
X18627Y18393D01*
X18603Y18400D01*
X18579Y18406D01*
X18556Y18409D01*
X18546Y18410D01*
X18536Y18411D01*
X18528Y18412D01*
X18520D01*
X18515Y18413D01*
X18510D01*
X18507D01*
X18506D01*
X18481Y18411D01*
X18456Y18408D01*
X18435Y18405D01*
X18424Y18403D01*
X18415Y18400D01*
X18407Y18398D01*
X18399Y18396D01*
X18393Y18394D01*
X18388Y18392D01*
X18383Y18390D01*
X18380Y18389D01*
X18378Y18388D01*
X18377D01*
X18365Y18383D01*
X18353Y18377D01*
X18342Y18370D01*
X18333Y18363D01*
X18325Y18358D01*
X18319Y18353D01*
X18316Y18350D01*
X18314Y18349D01*
X18304Y18338D01*
X18295Y18327D01*
X18286Y18316D01*
X18279Y18304D01*
X18274Y18295D01*
X18270Y18287D01*
X18269Y18284D01*
X18268Y18282D01*
X18267Y18281D01*
Y18280D01*
X18261Y18264D01*
X18257Y18247D01*
X18253Y18230D01*
X18251Y18214D01*
X18250Y18207D01*
X18250Y18200D01*
Y18194D01*
X18249Y18189D01*
Y18180D01*
X18250Y18162D01*
X18252Y18146D01*
X18255Y18131D01*
X18257Y18118D01*
X18261Y18108D01*
X18262Y18103D01*
X18264Y18099D01*
X18265Y18096D01*
X18266Y18094D01*
X18266Y18093D01*
Y18092D01*
X18273Y18078D01*
X18280Y18066D01*
X18288Y18056D01*
X18295Y18046D01*
X18302Y18040D01*
X18307Y18035D01*
X18310Y18032D01*
X18311Y18031D01*
X18323Y18024D01*
X18335Y18017D01*
X18347Y18010D01*
X18360Y18005D01*
X18371Y18001D01*
X18376Y17999D01*
X18379Y17998D01*
X18383Y17997D01*
X18386Y17996D01*
X18387Y17995D01*
X18388D01*
X18367Y17918D01*
X18344Y17925D01*
X18323Y17933D01*
X18314Y17937D01*
X18305Y17941D01*
X18298Y17945D01*
X18291Y17949D01*
X18284Y17952D01*
X18278Y17956D01*
X18273Y17959D01*
X18269Y17961D01*
X18266Y17964D01*
X18264Y17965D01*
X18263Y17966D01*
X18262Y17967D01*
X18248Y17980D01*
X18235Y17994D01*
X18225Y18008D01*
X18216Y18023D01*
X18209Y18035D01*
X18206Y18041D01*
X18204Y18046D01*
X18202Y18049D01*
X18200Y18052D01*
X18200Y18054D01*
Y18055D01*
X18192Y18076D01*
X18187Y18098D01*
X18182Y18119D01*
X18180Y18139D01*
X18179Y18148D01*
X18178Y18155D01*
X18178Y18162D01*
X18177Y18169D01*
Y18180D01*
X18178Y18198D01*
X18178Y18215D01*
X18180Y18232D01*
X18183Y18247D01*
X18186Y18262D01*
X18189Y18276D01*
X18193Y18289D01*
X18196Y18301D01*
X18200Y18311D01*
X18204Y18321D01*
X18207Y18329D01*
X18210Y18336D01*
X18213Y18342D01*
X18215Y18346D01*
X18216Y18349D01*
X18216Y18350D01*
X18224Y18363D01*
X18233Y18375D01*
X18242Y18387D01*
X18252Y18397D01*
X18262Y18408D01*
X18272Y18417D01*
X18282Y18425D01*
X18291Y18433D01*
X18301Y18439D01*
X18309Y18445D01*
X18317Y18450D01*
X18324Y18454D01*
X18329Y18457D01*
X18334Y18459D01*
X18336Y18460D01*
X18337Y18461D01*
X18352Y18468D01*
X18368Y18474D01*
X18383Y18479D01*
X18398Y18483D01*
X18427Y18490D01*
X18441Y18493D01*
X18454Y18495D01*
X18466Y18497D01*
X18477Y18498D01*
X18487Y18499D01*
X18495Y18499D01*
X18502Y18500D01*
X18507D01*
X18510D01*
X18511D01*
X18528Y18499D01*
D02*
G37*
G36*
X18828Y17703D02*
X18326D01*
X18828Y17368D01*
Y17280D01*
X18188D01*
Y17361D01*
X18691D01*
X18188Y17698D01*
Y17784D01*
X18828D01*
Y17703D01*
D02*
G37*
G36*
Y16907D02*
X18827Y16886D01*
X18827Y16867D01*
X18825Y16850D01*
X18822Y16834D01*
X18822Y16828D01*
X18821Y16823D01*
X18820Y16817D01*
X18819Y16813D01*
X18818Y16809D01*
Y16807D01*
X18818Y16806D01*
Y16805D01*
X18813Y16789D01*
X18808Y16774D01*
X18802Y16761D01*
X18797Y16750D01*
X18793Y16741D01*
X18789Y16734D01*
X18786Y16730D01*
X18786Y16729D01*
Y16728D01*
X18777Y16717D01*
X18768Y16705D01*
X18758Y16696D01*
X18748Y16687D01*
X18740Y16680D01*
X18734Y16675D01*
X18731Y16673D01*
X18729Y16671D01*
X18728Y16670D01*
X18727D01*
X18713Y16660D01*
X18698Y16652D01*
X18682Y16644D01*
X18667Y16638D01*
X18654Y16633D01*
X18648Y16631D01*
X18644Y16629D01*
X18640Y16628D01*
X18637Y16627D01*
X18635Y16626D01*
X18635D01*
X18612Y16621D01*
X18590Y16617D01*
X18569Y16613D01*
X18549Y16611D01*
X18540Y16610D01*
X18531Y16610D01*
X18524D01*
X18517Y16609D01*
X18512D01*
X18508D01*
X18506D01*
X18505D01*
X18474Y16610D01*
X18459Y16611D01*
X18445Y16613D01*
X18432Y16615D01*
X18420Y16617D01*
X18408Y16619D01*
X18397Y16622D01*
X18387Y16624D01*
X18379Y16626D01*
X18371Y16628D01*
X18365Y16631D01*
X18360Y16633D01*
X18356Y16633D01*
X18354Y16635D01*
X18353D01*
X18329Y16645D01*
X18308Y16657D01*
X18298Y16663D01*
X18289Y16669D01*
X18281Y16676D01*
X18273Y16682D01*
X18266Y16687D01*
X18261Y16693D01*
X18255Y16698D01*
X18251Y16702D01*
X18248Y16705D01*
X18246Y16708D01*
X18244Y16710D01*
X18243Y16710D01*
X18232Y16726D01*
X18222Y16741D01*
X18214Y16757D01*
X18208Y16771D01*
X18203Y16784D01*
X18202Y16790D01*
X18200Y16795D01*
X18199Y16798D01*
X18198Y16801D01*
X18198Y16803D01*
Y16804D01*
X18196Y16812D01*
X18194Y16820D01*
X18192Y16839D01*
X18190Y16857D01*
X18189Y16876D01*
X18189Y16884D01*
Y16893D01*
X18188Y16900D01*
Y17138D01*
X18828D01*
Y16907D01*
D02*
G37*
G36*
X16133Y18498D02*
X16147Y18495D01*
X16160Y18491D01*
X16173Y18487D01*
X16185Y18482D01*
X16195Y18476D01*
X16205Y18471D01*
X16214Y18465D01*
X16222Y18460D01*
X16229Y18455D01*
X16235Y18450D01*
X16240Y18446D01*
X16244Y18442D01*
X16247Y18439D01*
X16248Y18438D01*
X16249Y18437D01*
X16258Y18427D01*
X16266Y18415D01*
X16272Y18404D01*
X16278Y18392D01*
X16283Y18380D01*
X16287Y18368D01*
X16290Y18357D01*
X16293Y18346D01*
X16295Y18336D01*
X16296Y18327D01*
X16298Y18318D01*
X16298Y18311D01*
Y18305D01*
X16299Y18300D01*
Y18297D01*
X16298Y18279D01*
X16296Y18264D01*
X16294Y18248D01*
X16290Y18234D01*
X16286Y18220D01*
X16281Y18207D01*
X16276Y18196D01*
X16270Y18185D01*
X16265Y18175D01*
X16260Y18167D01*
X16255Y18160D01*
X16251Y18154D01*
X16247Y18149D01*
X16244Y18146D01*
X16242Y18144D01*
X16242Y18143D01*
X16230Y18132D01*
X16219Y18123D01*
X16207Y18114D01*
X16194Y18108D01*
X16183Y18101D01*
X16171Y18096D01*
X16160Y18092D01*
X16149Y18089D01*
X16138Y18086D01*
X16129Y18085D01*
X16121Y18083D01*
X16113Y18082D01*
X16108D01*
X16103Y18081D01*
X16100D01*
X16099D01*
X16088D01*
X16077Y18083D01*
X16057Y18086D01*
X16040Y18092D01*
X16032Y18094D01*
X16025Y18097D01*
X16018Y18100D01*
X16013Y18103D01*
X16008Y18105D01*
X16004Y18108D01*
X16001Y18110D01*
X15999Y18112D01*
X15997Y18112D01*
X15997Y18113D01*
X15982Y18126D01*
X15970Y18140D01*
X15961Y18155D01*
X15954Y18169D01*
X15948Y18182D01*
X15946Y18187D01*
X15945Y18191D01*
X15943Y18196D01*
X15943Y18198D01*
X15942Y18200D01*
Y18201D01*
X15934Y18186D01*
X15925Y18173D01*
X15916Y18161D01*
X15907Y18152D01*
X15900Y18144D01*
X15893Y18139D01*
X15889Y18136D01*
X15889Y18135D01*
X15888D01*
X15875Y18128D01*
X15862Y18122D01*
X15849Y18118D01*
X15837Y18115D01*
X15828Y18114D01*
X15819Y18112D01*
X15816D01*
X15814D01*
X15813D01*
X15812D01*
X15796Y18113D01*
X15781Y18116D01*
X15767Y18120D01*
X15755Y18124D01*
X15744Y18128D01*
X15740Y18130D01*
X15737Y18132D01*
X15734Y18134D01*
X15731Y18135D01*
X15730Y18136D01*
X15730D01*
X15716Y18146D01*
X15704Y18157D01*
X15694Y18168D01*
X15685Y18179D01*
X15678Y18189D01*
X15673Y18196D01*
X15671Y18200D01*
X15669Y18202D01*
X15669Y18203D01*
Y18204D01*
X15661Y18221D01*
X15656Y18237D01*
X15651Y18254D01*
X15649Y18268D01*
X15647Y18282D01*
X15647Y18286D01*
X15646Y18291D01*
Y18300D01*
X15647Y18314D01*
X15648Y18327D01*
X15650Y18340D01*
X15653Y18352D01*
X15656Y18363D01*
X15660Y18374D01*
X15664Y18384D01*
X15667Y18392D01*
X15672Y18400D01*
X15676Y18407D01*
X15679Y18413D01*
X15683Y18418D01*
X15685Y18422D01*
X15688Y18425D01*
X15689Y18427D01*
X15690Y18427D01*
X15698Y18436D01*
X15708Y18445D01*
X15717Y18452D01*
X15727Y18459D01*
X15737Y18465D01*
X15747Y18470D01*
X15767Y18479D01*
X15776Y18483D01*
X15785Y18485D01*
X15792Y18488D01*
X15798Y18490D01*
X15804Y18491D01*
X15808Y18492D01*
X15811Y18492D01*
X15812D01*
X15825Y18414D01*
X15805Y18410D01*
X15788Y18404D01*
X15773Y18398D01*
X15761Y18391D01*
X15751Y18386D01*
X15745Y18380D01*
X15741Y18377D01*
X15740Y18375D01*
X15730Y18363D01*
X15723Y18350D01*
X15717Y18337D01*
X15714Y18325D01*
X15712Y18314D01*
X15711Y18310D01*
Y18306D01*
X15710Y18302D01*
Y18298D01*
X15712Y18282D01*
X15715Y18267D01*
X15719Y18254D01*
X15724Y18243D01*
X15730Y18234D01*
X15735Y18228D01*
X15737Y18224D01*
X15739Y18223D01*
X15744Y18217D01*
X15750Y18213D01*
X15762Y18205D01*
X15774Y18200D01*
X15785Y18196D01*
X15796Y18194D01*
X15803Y18194D01*
X15807Y18193D01*
X15809D01*
X15810D01*
X15811D01*
X15821Y18194D01*
X15830Y18195D01*
X15839Y18196D01*
X15846Y18199D01*
X15860Y18206D01*
X15871Y18213D01*
X15880Y18221D01*
X15887Y18227D01*
X15889Y18230D01*
X15890Y18232D01*
X15891Y18233D01*
Y18234D01*
X15900Y18249D01*
X15907Y18265D01*
X15911Y18280D01*
X15914Y18294D01*
X15916Y18306D01*
X15917Y18311D01*
Y18316D01*
X15918Y18319D01*
Y18328D01*
X15917Y18332D01*
X15916Y18336D01*
Y18337D01*
X15985Y18345D01*
X15982Y18334D01*
X15980Y18322D01*
X15979Y18313D01*
X15977Y18305D01*
Y18299D01*
X15977Y18294D01*
Y18290D01*
X15977Y18280D01*
X15978Y18270D01*
X15982Y18253D01*
X15988Y18238D01*
X15994Y18225D01*
X16001Y18214D01*
X16004Y18210D01*
X16006Y18207D01*
X16009Y18204D01*
X16011Y18202D01*
X16011Y18201D01*
X16012Y18200D01*
X16019Y18194D01*
X16026Y18189D01*
X16033Y18184D01*
X16040Y18180D01*
X16055Y18173D01*
X16070Y18169D01*
X16082Y18166D01*
X16087Y18166D01*
X16092Y18165D01*
X16095Y18164D01*
X16099D01*
X16100D01*
X16101D01*
X16111Y18165D01*
X16121Y18166D01*
X16140Y18171D01*
X16156Y18176D01*
X16169Y18183D01*
X16176Y18187D01*
X16181Y18191D01*
X16185Y18194D01*
X16189Y18196D01*
X16192Y18199D01*
X16194Y18201D01*
X16195Y18202D01*
X16196Y18203D01*
X16203Y18210D01*
X16208Y18218D01*
X16213Y18225D01*
X16218Y18233D01*
X16225Y18249D01*
X16229Y18264D01*
X16232Y18277D01*
X16233Y18283D01*
X16233Y18287D01*
X16234Y18291D01*
Y18297D01*
X16233Y18313D01*
X16229Y18329D01*
X16225Y18343D01*
X16219Y18354D01*
X16214Y18364D01*
X16210Y18371D01*
X16208Y18373D01*
X16206Y18375D01*
X16205Y18376D01*
Y18377D01*
X16199Y18382D01*
X16192Y18388D01*
X16178Y18397D01*
X16162Y18405D01*
X16146Y18411D01*
X16131Y18416D01*
X16125Y18417D01*
X16119Y18419D01*
X16115Y18420D01*
X16111Y18421D01*
X16109Y18422D01*
X16108D01*
X16119Y18500D01*
X16133Y18498D01*
D02*
G37*
G36*
X16288Y17854D02*
Y17780D01*
X15824Y17603D01*
Y17685D01*
X16108Y17788D01*
X16126Y17795D01*
X16143Y17800D01*
X16158Y17805D01*
X16171Y17809D01*
X16181Y17813D01*
X16185Y17814D01*
X16190Y17815D01*
X16192Y17816D01*
X16194Y17816D01*
X16195Y17817D01*
X16196D01*
X16178Y17823D01*
X16160Y17827D01*
X16144Y17832D01*
X16131Y17837D01*
X16119Y17841D01*
X16114Y17843D01*
X16110Y17844D01*
X16106Y17845D01*
X16104Y17846D01*
X16103Y17847D01*
X16102D01*
X15824Y17947D01*
Y18030D01*
X16288Y17854D01*
D02*
G37*
G36*
X16133Y17553D02*
X16147Y17551D01*
X16160Y17547D01*
X16173Y17542D01*
X16185Y17538D01*
X16195Y17532D01*
X16205Y17526D01*
X16214Y17521D01*
X16222Y17515D01*
X16229Y17510D01*
X16235Y17506D01*
X16240Y17501D01*
X16244Y17497D01*
X16247Y17495D01*
X16248Y17493D01*
X16249Y17492D01*
X16258Y17482D01*
X16266Y17470D01*
X16272Y17459D01*
X16278Y17447D01*
X16283Y17436D01*
X16287Y17424D01*
X16290Y17413D01*
X16293Y17402D01*
X16295Y17391D01*
X16296Y17382D01*
X16298Y17374D01*
X16298Y17366D01*
Y17361D01*
X16299Y17356D01*
Y17352D01*
X16298Y17335D01*
X16296Y17319D01*
X16294Y17304D01*
X16290Y17289D01*
X16286Y17275D01*
X16281Y17263D01*
X16276Y17251D01*
X16270Y17241D01*
X16265Y17231D01*
X16260Y17223D01*
X16255Y17215D01*
X16251Y17210D01*
X16247Y17205D01*
X16244Y17201D01*
X16242Y17199D01*
X16242Y17198D01*
X16230Y17187D01*
X16219Y17178D01*
X16207Y17170D01*
X16194Y17163D01*
X16183Y17157D01*
X16171Y17152D01*
X16160Y17148D01*
X16149Y17144D01*
X16138Y17142D01*
X16129Y17140D01*
X16121Y17139D01*
X16113Y17137D01*
X16108D01*
X16103Y17137D01*
X16100D01*
X16099D01*
X16088D01*
X16077Y17138D01*
X16057Y17142D01*
X16040Y17147D01*
X16032Y17150D01*
X16025Y17153D01*
X16018Y17155D01*
X16013Y17158D01*
X16008Y17161D01*
X16004Y17164D01*
X16001Y17166D01*
X15999Y17167D01*
X15997Y17168D01*
X15997Y17169D01*
X15982Y17181D01*
X15970Y17196D01*
X15961Y17210D01*
X15954Y17224D01*
X15948Y17237D01*
X15946Y17243D01*
X15945Y17247D01*
X15943Y17251D01*
X15943Y17254D01*
X15942Y17256D01*
Y17257D01*
X15934Y17241D01*
X15925Y17228D01*
X15916Y17216D01*
X15907Y17207D01*
X15900Y17200D01*
X15893Y17195D01*
X15889Y17192D01*
X15889Y17191D01*
X15888D01*
X15875Y17183D01*
X15862Y17178D01*
X15849Y17173D01*
X15837Y17171D01*
X15828Y17169D01*
X15819Y17168D01*
X15816D01*
X15814D01*
X15813D01*
X15812D01*
X15796Y17169D01*
X15781Y17171D01*
X15767Y17176D01*
X15755Y17180D01*
X15744Y17184D01*
X15740Y17186D01*
X15737Y17188D01*
X15734Y17189D01*
X15731Y17191D01*
X15730Y17192D01*
X15730D01*
X15716Y17201D01*
X15704Y17212D01*
X15694Y17223D01*
X15685Y17235D01*
X15678Y17244D01*
X15673Y17252D01*
X15671Y17255D01*
X15669Y17257D01*
X15669Y17259D01*
Y17259D01*
X15661Y17276D01*
X15656Y17293D01*
X15651Y17309D01*
X15649Y17324D01*
X15647Y17337D01*
X15647Y17342D01*
X15646Y17347D01*
Y17356D01*
X15647Y17370D01*
X15648Y17383D01*
X15650Y17395D01*
X15653Y17408D01*
X15656Y17419D01*
X15660Y17429D01*
X15664Y17439D01*
X15667Y17447D01*
X15672Y17456D01*
X15676Y17463D01*
X15679Y17468D01*
X15683Y17474D01*
X15685Y17477D01*
X15688Y17481D01*
X15689Y17482D01*
X15690Y17483D01*
X15698Y17492D01*
X15708Y17500D01*
X15717Y17508D01*
X15727Y17515D01*
X15737Y17521D01*
X15747Y17526D01*
X15767Y17535D01*
X15776Y17538D01*
X15785Y17541D01*
X15792Y17543D01*
X15798Y17545D01*
X15804Y17547D01*
X15808Y17547D01*
X15811Y17548D01*
X15812D01*
X15825Y17470D01*
X15805Y17465D01*
X15788Y17460D01*
X15773Y17454D01*
X15761Y17447D01*
X15751Y17441D01*
X15745Y17436D01*
X15741Y17432D01*
X15740Y17431D01*
X15730Y17418D01*
X15723Y17406D01*
X15717Y17393D01*
X15714Y17381D01*
X15712Y17370D01*
X15711Y17366D01*
Y17361D01*
X15710Y17358D01*
Y17354D01*
X15712Y17337D01*
X15715Y17323D01*
X15719Y17309D01*
X15724Y17298D01*
X15730Y17290D01*
X15735Y17284D01*
X15737Y17280D01*
X15739Y17278D01*
X15744Y17273D01*
X15750Y17268D01*
X15762Y17261D01*
X15774Y17255D01*
X15785Y17252D01*
X15796Y17250D01*
X15803Y17249D01*
X15807Y17248D01*
X15809D01*
X15810D01*
X15811D01*
X15821Y17249D01*
X15830Y17250D01*
X15839Y17252D01*
X15846Y17255D01*
X15860Y17262D01*
X15871Y17268D01*
X15880Y17276D01*
X15887Y17283D01*
X15889Y17286D01*
X15890Y17287D01*
X15891Y17289D01*
Y17289D01*
X15900Y17305D01*
X15907Y17320D01*
X15911Y17336D01*
X15914Y17350D01*
X15916Y17361D01*
X15917Y17366D01*
Y17371D01*
X15918Y17375D01*
Y17384D01*
X15917Y17388D01*
X15916Y17391D01*
Y17393D01*
X15985Y17401D01*
X15982Y17389D01*
X15980Y17378D01*
X15979Y17369D01*
X15977Y17361D01*
Y17354D01*
X15977Y17350D01*
Y17345D01*
X15977Y17336D01*
X15978Y17326D01*
X15982Y17309D01*
X15988Y17293D01*
X15994Y17280D01*
X16001Y17270D01*
X16004Y17266D01*
X16006Y17262D01*
X16009Y17259D01*
X16011Y17257D01*
X16011Y17257D01*
X16012Y17256D01*
X16019Y17250D01*
X16026Y17244D01*
X16033Y17239D01*
X16040Y17235D01*
X16055Y17229D01*
X16070Y17224D01*
X16082Y17222D01*
X16087Y17221D01*
X16092Y17221D01*
X16095Y17220D01*
X16099D01*
X16100D01*
X16101D01*
X16111Y17221D01*
X16121Y17221D01*
X16140Y17226D01*
X16156Y17232D01*
X16169Y17239D01*
X16176Y17243D01*
X16181Y17246D01*
X16185Y17249D01*
X16189Y17252D01*
X16192Y17255D01*
X16194Y17257D01*
X16195Y17257D01*
X16196Y17258D01*
X16203Y17266D01*
X16208Y17273D01*
X16213Y17281D01*
X16218Y17289D01*
X16225Y17305D01*
X16229Y17320D01*
X16232Y17332D01*
X16233Y17339D01*
X16233Y17343D01*
X16234Y17347D01*
Y17352D01*
X16233Y17369D01*
X16229Y17385D01*
X16225Y17398D01*
X16219Y17410D01*
X16214Y17420D01*
X16210Y17427D01*
X16208Y17429D01*
X16206Y17431D01*
X16205Y17431D01*
Y17432D01*
X16199Y17438D01*
X16192Y17443D01*
X16178Y17453D01*
X16162Y17461D01*
X16146Y17467D01*
X16131Y17472D01*
X16125Y17473D01*
X16119Y17474D01*
X16115Y17476D01*
X16111Y17477D01*
X16109Y17477D01*
X16108D01*
X16119Y17556D01*
X16133Y17553D01*
D02*
G37*
G36*
X21174Y18499D02*
X21186Y18498D01*
X21207Y18494D01*
X21227Y18488D01*
X21236Y18485D01*
X21244Y18482D01*
X21251Y18479D01*
X21258Y18476D01*
X21264Y18473D01*
X21269Y18470D01*
X21273Y18468D01*
X21276Y18467D01*
X21277Y18466D01*
X21278Y18465D01*
X21296Y18452D01*
X21311Y18437D01*
X21324Y18422D01*
X21335Y18407D01*
X21343Y18394D01*
X21346Y18388D01*
X21349Y18384D01*
X21351Y18379D01*
X21352Y18377D01*
X21353Y18374D01*
Y18374D01*
X21362Y18350D01*
X21368Y18326D01*
X21372Y18302D01*
X21375Y18279D01*
X21376Y18268D01*
X21377Y18258D01*
X21378Y18250D01*
Y18242D01*
X21378Y18236D01*
Y18227D01*
X21377Y18203D01*
X21374Y18180D01*
X21371Y18159D01*
X21368Y18149D01*
X21366Y18141D01*
X21364Y18132D01*
X21361Y18126D01*
X21359Y18119D01*
X21358Y18114D01*
X21356Y18110D01*
X21355Y18108D01*
X21353Y18105D01*
Y18105D01*
X21343Y18085D01*
X21332Y18069D01*
X21320Y18054D01*
X21309Y18042D01*
X21299Y18033D01*
X21291Y18026D01*
X21288Y18024D01*
X21285Y18022D01*
X21284Y18021D01*
X21283D01*
X21275Y18015D01*
X21266Y18011D01*
X21249Y18004D01*
X21233Y17998D01*
X21219Y17994D01*
X21206Y17992D01*
X21201Y17992D01*
X21196D01*
X21193Y17991D01*
X21190D01*
X21188D01*
X21188D01*
X21169Y17992D01*
X21152Y17995D01*
X21136Y17999D01*
X21123Y18004D01*
X21112Y18010D01*
X21107Y18012D01*
X21104Y18014D01*
X21101Y18015D01*
X21099Y18017D01*
X21098Y18018D01*
X21097D01*
X21090Y18024D01*
X21083Y18029D01*
X21070Y18042D01*
X21059Y18056D01*
X21050Y18069D01*
X21042Y18081D01*
X21039Y18087D01*
X21037Y18092D01*
X21034Y18095D01*
X21033Y18098D01*
X21032Y18100D01*
Y18101D01*
X21028Y18108D01*
X21025Y18118D01*
X21021Y18128D01*
X21018Y18139D01*
X21012Y18162D01*
X21005Y18186D01*
X21002Y18197D01*
X21000Y18207D01*
X20997Y18217D01*
X20996Y18225D01*
X20994Y18232D01*
X20992Y18237D01*
X20991Y18241D01*
Y18242D01*
X20987Y18261D01*
X20982Y18277D01*
X20978Y18292D01*
X20974Y18306D01*
X20970Y18318D01*
X20967Y18328D01*
X20963Y18337D01*
X20960Y18345D01*
X20956Y18351D01*
X20953Y18356D01*
X20951Y18361D01*
X20949Y18364D01*
X20947Y18367D01*
X20946Y18368D01*
X20945Y18370D01*
X20936Y18378D01*
X20927Y18384D01*
X20917Y18388D01*
X20908Y18391D01*
X20901Y18393D01*
X20894Y18393D01*
X20890Y18394D01*
X20890D01*
X20889D01*
X20881Y18393D01*
X20874Y18393D01*
X20862Y18388D01*
X20850Y18383D01*
X20840Y18377D01*
X20832Y18370D01*
X20826Y18365D01*
X20822Y18361D01*
X20821Y18360D01*
Y18359D01*
X20816Y18352D01*
X20811Y18344D01*
X20804Y18327D01*
X20799Y18309D01*
X20796Y18290D01*
X20795Y18282D01*
X20794Y18273D01*
X20793Y18266D01*
Y18260D01*
X20792Y18255D01*
Y18234D01*
X20794Y18222D01*
X20795Y18210D01*
X20797Y18199D01*
X20799Y18189D01*
X20802Y18180D01*
X20805Y18172D01*
X20808Y18164D01*
X20811Y18158D01*
X20814Y18153D01*
X20817Y18148D01*
X20819Y18144D01*
X20821Y18141D01*
X20822Y18138D01*
X20823Y18137D01*
X20824Y18137D01*
X20830Y18130D01*
X20836Y18123D01*
X20851Y18114D01*
X20866Y18105D01*
X20881Y18100D01*
X20894Y18096D01*
X20899Y18094D01*
X20905Y18093D01*
X20909Y18092D01*
X20912D01*
X20914Y18092D01*
X20914D01*
X20908Y18010D01*
X20887Y18013D01*
X20869Y18017D01*
X20851Y18022D01*
X20837Y18027D01*
X20831Y18031D01*
X20824Y18033D01*
X20819Y18035D01*
X20815Y18037D01*
X20812Y18040D01*
X20810Y18041D01*
X20808Y18042D01*
X20808Y18042D01*
X20792Y18054D01*
X20779Y18067D01*
X20767Y18081D01*
X20757Y18095D01*
X20750Y18107D01*
X20747Y18112D01*
X20745Y18117D01*
X20743Y18120D01*
X20742Y18123D01*
X20740Y18125D01*
Y18126D01*
X20733Y18146D01*
X20727Y18168D01*
X20722Y18189D01*
X20720Y18209D01*
X20719Y18218D01*
X20718Y18225D01*
X20718Y18233D01*
X20717Y18239D01*
Y18251D01*
X20718Y18275D01*
X20720Y18297D01*
X20724Y18316D01*
X20726Y18325D01*
X20728Y18334D01*
X20730Y18341D01*
X20732Y18348D01*
X20734Y18354D01*
X20736Y18359D01*
X20737Y18363D01*
X20738Y18366D01*
X20739Y18368D01*
Y18368D01*
X20748Y18387D01*
X20758Y18403D01*
X20769Y18417D01*
X20779Y18428D01*
X20789Y18437D01*
X20797Y18444D01*
X20799Y18446D01*
X20801Y18447D01*
X20803Y18449D01*
X20804D01*
X20819Y18458D01*
X20835Y18465D01*
X20850Y18469D01*
X20864Y18472D01*
X20876Y18474D01*
X20881Y18475D01*
X20885D01*
X20889Y18476D01*
X20892D01*
X20893D01*
X20894D01*
X20910Y18475D01*
X20925Y18472D01*
X20939Y18469D01*
X20951Y18465D01*
X20960Y18460D01*
X20968Y18457D01*
X20971Y18456D01*
X20973Y18454D01*
X20973Y18454D01*
X20974D01*
X20987Y18445D01*
X20998Y18433D01*
X21008Y18422D01*
X21017Y18411D01*
X21024Y18401D01*
X21029Y18393D01*
X21030Y18389D01*
X21032Y18387D01*
X21033Y18386D01*
Y18385D01*
X21037Y18378D01*
X21040Y18370D01*
X21043Y18361D01*
X21047Y18351D01*
X21054Y18331D01*
X21060Y18310D01*
X21063Y18300D01*
X21066Y18292D01*
X21068Y18284D01*
X21070Y18276D01*
X21071Y18270D01*
X21073Y18266D01*
X21073Y18263D01*
Y18262D01*
X21077Y18246D01*
X21081Y18232D01*
X21084Y18219D01*
X21087Y18207D01*
X21090Y18197D01*
X21092Y18187D01*
X21095Y18180D01*
X21097Y18172D01*
X21098Y18166D01*
X21100Y18161D01*
X21102Y18157D01*
X21102Y18154D01*
X21103Y18151D01*
X21104Y18150D01*
X21104Y18148D01*
X21111Y18135D01*
X21117Y18123D01*
X21123Y18112D01*
X21129Y18105D01*
X21134Y18099D01*
X21138Y18094D01*
X21141Y18092D01*
X21142Y18091D01*
X21150Y18085D01*
X21159Y18080D01*
X21168Y18077D01*
X21177Y18075D01*
X21184Y18074D01*
X21190Y18073D01*
X21193D01*
X21194D01*
X21195D01*
X21205Y18074D01*
X21215Y18076D01*
X21224Y18079D01*
X21233Y18082D01*
X21240Y18085D01*
X21245Y18089D01*
X21248Y18091D01*
X21249Y18092D01*
X21258Y18099D01*
X21266Y18108D01*
X21273Y18117D01*
X21279Y18126D01*
X21283Y18135D01*
X21286Y18141D01*
X21288Y18144D01*
X21288Y18146D01*
X21289Y18146D01*
Y18147D01*
X21294Y18161D01*
X21297Y18175D01*
X21299Y18190D01*
X21301Y18203D01*
X21302Y18214D01*
Y18219D01*
X21303Y18223D01*
Y18232D01*
X21302Y18252D01*
X21300Y18270D01*
X21297Y18287D01*
X21293Y18302D01*
X21292Y18308D01*
X21290Y18313D01*
X21288Y18318D01*
X21287Y18322D01*
X21285Y18326D01*
X21285Y18328D01*
X21284Y18329D01*
Y18330D01*
X21276Y18345D01*
X21268Y18359D01*
X21261Y18370D01*
X21252Y18379D01*
X21245Y18386D01*
X21240Y18390D01*
X21236Y18394D01*
X21235Y18395D01*
X21222Y18402D01*
X21209Y18407D01*
X21196Y18411D01*
X21184Y18415D01*
X21172Y18417D01*
X21168Y18418D01*
X21163Y18419D01*
X21160Y18420D01*
X21157Y18420D01*
X21156D01*
X21155D01*
X21162Y18500D01*
X21174Y18499D01*
D02*
G37*
G36*
X21060Y17899D02*
X21077Y17899D01*
X21109Y17895D01*
X21124Y17893D01*
X21138Y17890D01*
X21151Y17886D01*
X21163Y17884D01*
X21175Y17880D01*
X21185Y17877D01*
X21193Y17875D01*
X21201Y17872D01*
X21206Y17870D01*
X21211Y17868D01*
X21214Y17868D01*
X21215Y17867D01*
X21229Y17860D01*
X21243Y17853D01*
X21256Y17845D01*
X21267Y17837D01*
X21279Y17829D01*
X21288Y17821D01*
X21297Y17813D01*
X21306Y17805D01*
X21313Y17798D01*
X21319Y17791D01*
X21324Y17784D01*
X21329Y17779D01*
X21333Y17775D01*
X21335Y17771D01*
X21336Y17769D01*
X21337Y17768D01*
X21344Y17756D01*
X21351Y17743D01*
X21356Y17729D01*
X21361Y17714D01*
X21365Y17700D01*
X21368Y17687D01*
X21371Y17673D01*
X21373Y17660D01*
X21375Y17647D01*
X21376Y17636D01*
X21377Y17626D01*
X21378Y17617D01*
X21378Y17610D01*
Y17600D01*
X21378Y17581D01*
X21376Y17564D01*
X21374Y17547D01*
X21370Y17531D01*
X21366Y17516D01*
X21361Y17502D01*
X21356Y17490D01*
X21351Y17478D01*
X21347Y17467D01*
X21342Y17458D01*
X21337Y17449D01*
X21333Y17443D01*
X21329Y17438D01*
X21326Y17434D01*
X21325Y17431D01*
X21324Y17431D01*
X21313Y17418D01*
X21301Y17406D01*
X21289Y17396D01*
X21276Y17386D01*
X21263Y17377D01*
X21249Y17370D01*
X21237Y17363D01*
X21224Y17357D01*
X21212Y17351D01*
X21201Y17347D01*
X21190Y17343D01*
X21182Y17340D01*
X21175Y17337D01*
X21170Y17336D01*
X21166Y17334D01*
X21165D01*
X21143Y17419D01*
X21158Y17422D01*
X21172Y17427D01*
X21185Y17432D01*
X21197Y17437D01*
X21208Y17443D01*
X21218Y17448D01*
X21227Y17454D01*
X21235Y17459D01*
X21242Y17465D01*
X21248Y17470D01*
X21254Y17474D01*
X21258Y17478D01*
X21261Y17481D01*
X21263Y17484D01*
X21265Y17486D01*
X21265Y17486D01*
X21272Y17496D01*
X21279Y17506D01*
X21284Y17515D01*
X21289Y17526D01*
X21293Y17536D01*
X21297Y17546D01*
X21301Y17565D01*
X21303Y17574D01*
X21304Y17582D01*
X21305Y17589D01*
X21306Y17595D01*
X21306Y17600D01*
Y17607D01*
X21306Y17618D01*
X21305Y17628D01*
X21301Y17648D01*
X21297Y17667D01*
X21291Y17683D01*
X21288Y17690D01*
X21286Y17696D01*
X21283Y17702D01*
X21281Y17707D01*
X21279Y17711D01*
X21278Y17714D01*
X21276Y17715D01*
Y17716D01*
X21270Y17725D01*
X21264Y17733D01*
X21249Y17748D01*
X21235Y17761D01*
X21220Y17771D01*
X21206Y17779D01*
X21201Y17782D01*
X21195Y17785D01*
X21191Y17786D01*
X21188Y17788D01*
X21186Y17789D01*
X21186D01*
X21162Y17797D01*
X21138Y17803D01*
X21114Y17807D01*
X21102Y17809D01*
X21091Y17810D01*
X21081Y17811D01*
X21072Y17811D01*
X21064Y17812D01*
X21057D01*
X21050Y17813D01*
X21046D01*
X21043D01*
X21043D01*
X21019Y17812D01*
X20997Y17810D01*
X20976Y17807D01*
X20967Y17805D01*
X20957Y17803D01*
X20950Y17801D01*
X20942Y17800D01*
X20936Y17798D01*
X20930Y17796D01*
X20926Y17795D01*
X20923Y17794D01*
X20921Y17793D01*
X20920D01*
X20899Y17784D01*
X20880Y17774D01*
X20864Y17763D01*
X20857Y17757D01*
X20850Y17751D01*
X20844Y17746D01*
X20840Y17741D01*
X20835Y17736D01*
X20831Y17732D01*
X20829Y17729D01*
X20826Y17726D01*
X20826Y17725D01*
X20825Y17724D01*
X20819Y17714D01*
X20813Y17705D01*
X20808Y17694D01*
X20804Y17684D01*
X20798Y17663D01*
X20793Y17643D01*
X20792Y17635D01*
X20791Y17626D01*
X20790Y17619D01*
X20790Y17612D01*
X20789Y17607D01*
Y17588D01*
X20790Y17577D01*
X20794Y17556D01*
X20799Y17538D01*
X20802Y17531D01*
X20805Y17523D01*
X20808Y17516D01*
X20810Y17510D01*
X20813Y17506D01*
X20816Y17501D01*
X20818Y17498D01*
X20819Y17496D01*
X20820Y17495D01*
X20821Y17494D01*
X20827Y17486D01*
X20834Y17479D01*
X20850Y17466D01*
X20867Y17454D01*
X20884Y17445D01*
X20899Y17438D01*
X20905Y17435D01*
X20911Y17433D01*
X20916Y17431D01*
X20920Y17430D01*
X20922Y17429D01*
X20923D01*
X20903Y17345D01*
X20887Y17351D01*
X20872Y17357D01*
X20858Y17363D01*
X20844Y17371D01*
X20832Y17378D01*
X20821Y17386D01*
X20810Y17393D01*
X20801Y17401D01*
X20793Y17409D01*
X20786Y17415D01*
X20780Y17421D01*
X20775Y17427D01*
X20771Y17431D01*
X20768Y17434D01*
X20767Y17436D01*
X20766Y17437D01*
X20757Y17449D01*
X20750Y17463D01*
X20743Y17476D01*
X20738Y17490D01*
X20733Y17504D01*
X20729Y17517D01*
X20726Y17530D01*
X20723Y17542D01*
X20721Y17554D01*
X20720Y17565D01*
X20718Y17574D01*
X20718Y17583D01*
X20717Y17590D01*
Y17599D01*
X20718Y17615D01*
X20718Y17630D01*
X20723Y17658D01*
X20726Y17672D01*
X20729Y17685D01*
X20733Y17697D01*
X20736Y17708D01*
X20740Y17718D01*
X20743Y17727D01*
X20747Y17735D01*
X20749Y17741D01*
X20752Y17747D01*
X20754Y17750D01*
X20755Y17753D01*
X20756Y17754D01*
X20763Y17766D01*
X20772Y17779D01*
X20781Y17790D01*
X20790Y17800D01*
X20799Y17810D01*
X20808Y17819D01*
X20818Y17827D01*
X20826Y17834D01*
X20835Y17841D01*
X20843Y17846D01*
X20850Y17851D01*
X20856Y17855D01*
X20862Y17858D01*
X20865Y17860D01*
X20868Y17861D01*
X20869Y17862D01*
X20883Y17869D01*
X20898Y17875D01*
X20912Y17879D01*
X20927Y17884D01*
X20957Y17891D01*
X20971Y17893D01*
X20984Y17895D01*
X20996Y17897D01*
X21007Y17898D01*
X21018Y17899D01*
X21027Y17899D01*
X21034Y17900D01*
X21039D01*
X21042D01*
X21043D01*
X21060Y17899D01*
D02*
G37*
G36*
X21368Y17149D02*
X21146D01*
X21045Y17045D01*
X21368Y16817D01*
Y16705D01*
X20987Y16985D01*
X20728Y16717D01*
Y16832D01*
X21045Y17149D01*
X20728D01*
Y17234D01*
X21368D01*
Y17149D01*
D02*
G37*
G36*
X23654Y18418D02*
X23109D01*
X23654Y18234D01*
Y18157D01*
X23118Y17970D01*
X23654D01*
Y17888D01*
X23014D01*
Y18003D01*
X23459Y18157D01*
X23472Y18161D01*
X23483Y18165D01*
X23494Y18169D01*
X23504Y18172D01*
X23513Y18175D01*
X23522Y18178D01*
X23529Y18180D01*
X23536Y18182D01*
X23542Y18184D01*
X23547Y18186D01*
X23551Y18187D01*
X23556Y18189D01*
X23558Y18189D01*
X23560Y18190D01*
X23561Y18191D01*
X23562D01*
X23556Y18193D01*
X23549Y18195D01*
X23534Y18200D01*
X23518Y18205D01*
X23503Y18209D01*
X23489Y18214D01*
X23483Y18216D01*
X23478Y18218D01*
X23474Y18219D01*
X23470Y18221D01*
X23468Y18221D01*
X23467D01*
X23014Y18373D01*
Y18500D01*
X23654D01*
Y18418D01*
D02*
G37*
G36*
Y17653D02*
X23014D01*
Y17738D01*
X23654D01*
Y17653D01*
D02*
G37*
G36*
X23460Y17531D02*
X23472Y17530D01*
X23493Y17526D01*
X23513Y17520D01*
X23522Y17517D01*
X23530Y17514D01*
X23538Y17511D01*
X23544Y17508D01*
X23550Y17505D01*
X23555Y17502D01*
X23559Y17500D01*
X23562Y17499D01*
X23563Y17498D01*
X23564Y17497D01*
X23582Y17484D01*
X23597Y17469D01*
X23610Y17454D01*
X23621Y17439D01*
X23629Y17426D01*
X23632Y17420D01*
X23635Y17415D01*
X23637Y17411D01*
X23638Y17409D01*
X23639Y17406D01*
Y17406D01*
X23648Y17382D01*
X23654Y17358D01*
X23658Y17334D01*
X23661Y17311D01*
X23662Y17300D01*
X23663Y17290D01*
X23664Y17282D01*
Y17274D01*
X23664Y17268D01*
Y17259D01*
X23663Y17235D01*
X23660Y17212D01*
X23657Y17191D01*
X23654Y17181D01*
X23652Y17173D01*
X23650Y17164D01*
X23647Y17158D01*
X23645Y17151D01*
X23644Y17146D01*
X23642Y17142D01*
X23641Y17140D01*
X23639Y17137D01*
Y17137D01*
X23629Y17117D01*
X23618Y17101D01*
X23606Y17086D01*
X23595Y17074D01*
X23585Y17065D01*
X23577Y17058D01*
X23574Y17056D01*
X23571Y17054D01*
X23570Y17053D01*
X23569D01*
X23561Y17047D01*
X23552Y17043D01*
X23535Y17035D01*
X23519Y17030D01*
X23505Y17026D01*
X23492Y17024D01*
X23487Y17024D01*
X23482D01*
X23479Y17023D01*
X23476D01*
X23474D01*
X23474D01*
X23455Y17024D01*
X23438Y17027D01*
X23422Y17031D01*
X23409Y17036D01*
X23398Y17042D01*
X23393Y17044D01*
X23390Y17046D01*
X23387Y17047D01*
X23385Y17049D01*
X23384Y17050D01*
X23383D01*
X23376Y17056D01*
X23369Y17061D01*
X23356Y17074D01*
X23345Y17087D01*
X23336Y17101D01*
X23328Y17113D01*
X23325Y17119D01*
X23323Y17124D01*
X23320Y17127D01*
X23319Y17130D01*
X23318Y17132D01*
Y17133D01*
X23314Y17140D01*
X23311Y17150D01*
X23307Y17160D01*
X23304Y17171D01*
X23298Y17194D01*
X23291Y17218D01*
X23288Y17229D01*
X23286Y17239D01*
X23283Y17249D01*
X23282Y17257D01*
X23280Y17264D01*
X23278Y17269D01*
X23277Y17273D01*
Y17274D01*
X23273Y17293D01*
X23268Y17309D01*
X23264Y17324D01*
X23260Y17338D01*
X23256Y17350D01*
X23253Y17360D01*
X23249Y17369D01*
X23246Y17377D01*
X23242Y17383D01*
X23239Y17388D01*
X23237Y17393D01*
X23235Y17396D01*
X23233Y17399D01*
X23232Y17400D01*
X23231Y17402D01*
X23222Y17410D01*
X23213Y17415D01*
X23203Y17420D01*
X23194Y17423D01*
X23187Y17425D01*
X23180Y17425D01*
X23176Y17426D01*
X23176D01*
X23175D01*
X23167Y17425D01*
X23160Y17425D01*
X23148Y17420D01*
X23136Y17415D01*
X23126Y17409D01*
X23118Y17402D01*
X23112Y17397D01*
X23108Y17393D01*
X23107Y17392D01*
Y17391D01*
X23102Y17384D01*
X23097Y17376D01*
X23090Y17359D01*
X23085Y17341D01*
X23082Y17322D01*
X23081Y17314D01*
X23080Y17305D01*
X23079Y17298D01*
Y17292D01*
X23078Y17287D01*
Y17266D01*
X23080Y17254D01*
X23081Y17242D01*
X23083Y17231D01*
X23085Y17221D01*
X23088Y17212D01*
X23091Y17204D01*
X23094Y17196D01*
X23097Y17190D01*
X23100Y17185D01*
X23103Y17180D01*
X23105Y17176D01*
X23107Y17173D01*
X23108Y17170D01*
X23109Y17169D01*
X23110Y17169D01*
X23116Y17162D01*
X23122Y17155D01*
X23137Y17146D01*
X23152Y17137D01*
X23167Y17132D01*
X23180Y17128D01*
X23185Y17126D01*
X23191Y17125D01*
X23195Y17124D01*
X23198D01*
X23200Y17124D01*
X23201D01*
X23194Y17042D01*
X23173Y17045D01*
X23155Y17049D01*
X23137Y17054D01*
X23123Y17059D01*
X23117Y17063D01*
X23110Y17065D01*
X23105Y17067D01*
X23101Y17069D01*
X23098Y17072D01*
X23096Y17073D01*
X23094Y17074D01*
X23094Y17074D01*
X23078Y17086D01*
X23065Y17099D01*
X23053Y17113D01*
X23043Y17127D01*
X23036Y17139D01*
X23033Y17144D01*
X23031Y17149D01*
X23029Y17152D01*
X23028Y17155D01*
X23026Y17157D01*
Y17158D01*
X23019Y17178D01*
X23013Y17200D01*
X23008Y17221D01*
X23006Y17241D01*
X23005Y17250D01*
X23004Y17257D01*
X23004Y17265D01*
X23003Y17271D01*
Y17283D01*
X23004Y17307D01*
X23006Y17329D01*
X23010Y17348D01*
X23012Y17357D01*
X23014Y17366D01*
X23016Y17373D01*
X23018Y17380D01*
X23020Y17386D01*
X23022Y17391D01*
X23023Y17395D01*
X23024Y17398D01*
X23025Y17400D01*
Y17400D01*
X23034Y17419D01*
X23044Y17435D01*
X23055Y17449D01*
X23065Y17460D01*
X23075Y17469D01*
X23083Y17476D01*
X23085Y17478D01*
X23087Y17479D01*
X23089Y17481D01*
X23090D01*
X23105Y17490D01*
X23121Y17497D01*
X23136Y17501D01*
X23150Y17504D01*
X23162Y17506D01*
X23167Y17507D01*
X23171D01*
X23175Y17508D01*
X23178D01*
X23179D01*
X23180D01*
X23196Y17507D01*
X23211Y17504D01*
X23225Y17501D01*
X23237Y17497D01*
X23246Y17492D01*
X23254Y17489D01*
X23257Y17488D01*
X23259Y17486D01*
X23259Y17486D01*
X23260D01*
X23273Y17477D01*
X23284Y17465D01*
X23294Y17454D01*
X23303Y17443D01*
X23310Y17433D01*
X23315Y17425D01*
X23316Y17421D01*
X23318Y17419D01*
X23319Y17418D01*
Y17417D01*
X23323Y17410D01*
X23326Y17402D01*
X23329Y17393D01*
X23333Y17383D01*
X23340Y17363D01*
X23346Y17342D01*
X23349Y17332D01*
X23352Y17324D01*
X23354Y17316D01*
X23356Y17308D01*
X23357Y17302D01*
X23359Y17298D01*
X23359Y17295D01*
Y17294D01*
X23363Y17278D01*
X23367Y17264D01*
X23370Y17251D01*
X23373Y17239D01*
X23376Y17229D01*
X23378Y17219D01*
X23381Y17212D01*
X23383Y17204D01*
X23384Y17198D01*
X23386Y17193D01*
X23388Y17189D01*
X23388Y17186D01*
X23389Y17183D01*
X23390Y17182D01*
X23390Y17180D01*
X23397Y17167D01*
X23403Y17155D01*
X23409Y17144D01*
X23415Y17137D01*
X23420Y17131D01*
X23424Y17126D01*
X23427Y17124D01*
X23428Y17123D01*
X23436Y17117D01*
X23445Y17112D01*
X23454Y17109D01*
X23463Y17107D01*
X23470Y17106D01*
X23476Y17105D01*
X23479D01*
X23480D01*
X23481D01*
X23491Y17106D01*
X23501Y17108D01*
X23510Y17111D01*
X23519Y17114D01*
X23526Y17117D01*
X23531Y17121D01*
X23534Y17123D01*
X23535Y17124D01*
X23544Y17131D01*
X23552Y17140D01*
X23559Y17149D01*
X23565Y17158D01*
X23569Y17167D01*
X23572Y17173D01*
X23574Y17176D01*
X23574Y17178D01*
X23575Y17178D01*
Y17179D01*
X23580Y17193D01*
X23583Y17207D01*
X23585Y17222D01*
X23587Y17235D01*
X23588Y17246D01*
Y17251D01*
X23589Y17255D01*
Y17264D01*
X23588Y17284D01*
X23586Y17302D01*
X23583Y17319D01*
X23579Y17334D01*
X23578Y17340D01*
X23576Y17345D01*
X23574Y17350D01*
X23573Y17354D01*
X23571Y17358D01*
X23571Y17360D01*
X23570Y17361D01*
Y17362D01*
X23562Y17377D01*
X23554Y17391D01*
X23547Y17402D01*
X23538Y17411D01*
X23531Y17418D01*
X23526Y17422D01*
X23522Y17426D01*
X23521Y17427D01*
X23508Y17434D01*
X23495Y17439D01*
X23482Y17443D01*
X23470Y17447D01*
X23458Y17449D01*
X23454Y17450D01*
X23449Y17451D01*
X23446Y17452D01*
X23443Y17452D01*
X23442D01*
X23441D01*
X23448Y17532D01*
X23460Y17531D01*
D02*
G37*
G36*
X23358Y16933D02*
X23374Y16932D01*
X23403Y16928D01*
X23417Y16925D01*
X23430Y16922D01*
X23443Y16919D01*
X23454Y16916D01*
X23465Y16912D01*
X23474Y16909D01*
X23482Y16906D01*
X23489Y16903D01*
X23495Y16901D01*
X23499Y16899D01*
X23501Y16898D01*
X23502Y16898D01*
X23516Y16890D01*
X23529Y16882D01*
X23541Y16874D01*
X23553Y16865D01*
X23563Y16856D01*
X23573Y16847D01*
X23582Y16839D01*
X23590Y16830D01*
X23597Y16821D01*
X23603Y16814D01*
X23609Y16807D01*
X23613Y16801D01*
X23617Y16796D01*
X23619Y16792D01*
X23621Y16790D01*
X23621Y16789D01*
X23629Y16775D01*
X23635Y16762D01*
X23642Y16748D01*
X23646Y16734D01*
X23651Y16720D01*
X23654Y16707D01*
X23657Y16694D01*
X23659Y16682D01*
X23661Y16670D01*
X23662Y16660D01*
X23663Y16651D01*
X23664Y16643D01*
X23664Y16637D01*
Y16628D01*
X23664Y16613D01*
X23663Y16597D01*
X23658Y16568D01*
X23655Y16555D01*
X23652Y16542D01*
X23648Y16530D01*
X23645Y16519D01*
X23642Y16508D01*
X23638Y16499D01*
X23635Y16492D01*
X23632Y16485D01*
X23629Y16479D01*
X23627Y16476D01*
X23626Y16473D01*
X23626Y16472D01*
X23618Y16459D01*
X23609Y16447D01*
X23600Y16435D01*
X23591Y16425D01*
X23581Y16415D01*
X23571Y16405D01*
X23562Y16397D01*
X23553Y16389D01*
X23544Y16383D01*
X23535Y16377D01*
X23528Y16372D01*
X23522Y16368D01*
X23517Y16365D01*
X23513Y16363D01*
X23510Y16361D01*
X23509Y16361D01*
X23495Y16354D01*
X23479Y16348D01*
X23465Y16343D01*
X23449Y16338D01*
X23435Y16334D01*
X23420Y16331D01*
X23406Y16328D01*
X23393Y16326D01*
X23381Y16325D01*
X23370Y16323D01*
X23360Y16323D01*
X23352Y16322D01*
X23345Y16321D01*
X23339D01*
X23336D01*
X23335D01*
X23317Y16322D01*
X23300Y16323D01*
X23284Y16325D01*
X23268Y16327D01*
X23253Y16330D01*
X23239Y16333D01*
X23225Y16337D01*
X23214Y16340D01*
X23203Y16343D01*
X23193Y16347D01*
X23184Y16350D01*
X23177Y16353D01*
X23171Y16355D01*
X23167Y16357D01*
X23164Y16358D01*
X23164Y16359D01*
X23150Y16366D01*
X23137Y16374D01*
X23124Y16383D01*
X23113Y16391D01*
X23103Y16400D01*
X23093Y16409D01*
X23084Y16418D01*
X23076Y16427D01*
X23069Y16436D01*
X23063Y16443D01*
X23057Y16450D01*
X23053Y16456D01*
X23049Y16461D01*
X23047Y16464D01*
X23046Y16467D01*
X23045Y16468D01*
X23038Y16481D01*
X23031Y16495D01*
X23026Y16508D01*
X23021Y16522D01*
X23017Y16536D01*
X23013Y16549D01*
X23011Y16562D01*
X23008Y16574D01*
X23006Y16585D01*
X23005Y16595D01*
X23004Y16604D01*
X23004Y16613D01*
X23003Y16619D01*
Y16627D01*
X23004Y16652D01*
X23007Y16676D01*
X23011Y16698D01*
X23017Y16719D01*
X23024Y16739D01*
X23031Y16757D01*
X23040Y16773D01*
X23048Y16789D01*
X23056Y16803D01*
X23065Y16814D01*
X23072Y16824D01*
X23079Y16833D01*
X23085Y16839D01*
X23089Y16844D01*
X23092Y16848D01*
X23093Y16848D01*
X23110Y16864D01*
X23130Y16877D01*
X23149Y16888D01*
X23170Y16898D01*
X23191Y16906D01*
X23212Y16913D01*
X23232Y16918D01*
X23252Y16923D01*
X23271Y16927D01*
X23287Y16929D01*
X23303Y16931D01*
X23316Y16932D01*
X23327Y16933D01*
X23332D01*
X23336Y16934D01*
X23338D01*
X23341D01*
X23342D01*
X23343D01*
X23358Y16933D01*
D02*
G37*
G36*
X28424Y18289D02*
X28988D01*
Y18205D01*
X28424D01*
Y17994D01*
X28348D01*
Y18500D01*
X28424D01*
Y18289D01*
D02*
G37*
G36*
X28988Y17817D02*
X28697D01*
Y17517D01*
X28622D01*
Y17817D01*
X28424D01*
Y17470D01*
X28348D01*
Y17902D01*
X28988D01*
Y17817D01*
D02*
G37*
G36*
X28424Y17198D02*
X28988D01*
Y17113D01*
X28424D01*
Y16902D01*
X28348D01*
Y17409D01*
X28424D01*
Y17198D01*
D02*
G37*
G36*
X28680Y16839D02*
X28697Y16838D01*
X28729Y16834D01*
X28744Y16832D01*
X28758Y16829D01*
X28771Y16825D01*
X28783Y16823D01*
X28795Y16819D01*
X28805Y16816D01*
X28813Y16814D01*
X28821Y16811D01*
X28826Y16809D01*
X28831Y16807D01*
X28834Y16807D01*
X28835Y16806D01*
X28849Y16799D01*
X28863Y16792D01*
X28876Y16784D01*
X28887Y16776D01*
X28899Y16768D01*
X28908Y16760D01*
X28917Y16752D01*
X28926Y16744D01*
X28933Y16737D01*
X28939Y16730D01*
X28944Y16723D01*
X28949Y16718D01*
X28953Y16714D01*
X28955Y16710D01*
X28956Y16708D01*
X28957Y16708D01*
X28964Y16695D01*
X28971Y16682D01*
X28976Y16668D01*
X28981Y16653D01*
X28985Y16640D01*
X28988Y16626D01*
X28991Y16612D01*
X28993Y16599D01*
X28995Y16586D01*
X28996Y16575D01*
X28997Y16565D01*
X28998Y16556D01*
X28998Y16549D01*
Y16539D01*
X28998Y16520D01*
X28996Y16503D01*
X28994Y16486D01*
X28990Y16470D01*
X28986Y16455D01*
X28981Y16441D01*
X28976Y16429D01*
X28971Y16417D01*
X28966Y16406D01*
X28962Y16397D01*
X28957Y16389D01*
X28953Y16382D01*
X28949Y16377D01*
X28946Y16373D01*
X28945Y16371D01*
X28944Y16370D01*
X28933Y16357D01*
X28921Y16346D01*
X28909Y16335D01*
X28896Y16325D01*
X28883Y16316D01*
X28869Y16309D01*
X28857Y16302D01*
X28844Y16296D01*
X28832Y16290D01*
X28821Y16286D01*
X28810Y16282D01*
X28802Y16279D01*
X28795Y16276D01*
X28790Y16275D01*
X28786Y16273D01*
X28785D01*
X28763Y16358D01*
X28778Y16361D01*
X28792Y16366D01*
X28805Y16371D01*
X28817Y16376D01*
X28828Y16382D01*
X28838Y16387D01*
X28847Y16393D01*
X28855Y16398D01*
X28862Y16404D01*
X28868Y16409D01*
X28874Y16413D01*
X28878Y16417D01*
X28881Y16420D01*
X28883Y16423D01*
X28885Y16425D01*
X28885Y16425D01*
X28892Y16435D01*
X28899Y16445D01*
X28904Y16454D01*
X28909Y16465D01*
X28913Y16475D01*
X28917Y16485D01*
X28921Y16504D01*
X28923Y16513D01*
X28924Y16521D01*
X28925Y16528D01*
X28926Y16534D01*
X28926Y16539D01*
Y16546D01*
X28926Y16557D01*
X28925Y16567D01*
X28921Y16588D01*
X28917Y16606D01*
X28911Y16622D01*
X28908Y16629D01*
X28906Y16635D01*
X28903Y16641D01*
X28901Y16646D01*
X28899Y16650D01*
X28898Y16653D01*
X28896Y16654D01*
Y16655D01*
X28890Y16664D01*
X28884Y16672D01*
X28869Y16687D01*
X28855Y16700D01*
X28840Y16710D01*
X28826Y16718D01*
X28821Y16721D01*
X28815Y16724D01*
X28811Y16726D01*
X28808Y16727D01*
X28806Y16728D01*
X28806D01*
X28782Y16736D01*
X28758Y16742D01*
X28734Y16746D01*
X28722Y16748D01*
X28711Y16749D01*
X28701Y16750D01*
X28692Y16750D01*
X28684Y16751D01*
X28677D01*
X28670Y16752D01*
X28666D01*
X28663D01*
X28663D01*
X28639Y16751D01*
X28617Y16749D01*
X28596Y16746D01*
X28587Y16744D01*
X28577Y16742D01*
X28570Y16740D01*
X28562Y16739D01*
X28556Y16737D01*
X28550Y16735D01*
X28546Y16735D01*
X28543Y16733D01*
X28541Y16732D01*
X28540D01*
X28519Y16723D01*
X28500Y16713D01*
X28484Y16702D01*
X28477Y16696D01*
X28470Y16690D01*
X28464Y16685D01*
X28460Y16680D01*
X28455Y16675D01*
X28451Y16671D01*
X28449Y16668D01*
X28446Y16665D01*
X28446Y16664D01*
X28445Y16663D01*
X28439Y16653D01*
X28433Y16644D01*
X28428Y16633D01*
X28424Y16623D01*
X28418Y16602D01*
X28413Y16582D01*
X28412Y16574D01*
X28411Y16565D01*
X28410Y16558D01*
X28410Y16551D01*
X28409Y16546D01*
Y16527D01*
X28410Y16516D01*
X28414Y16495D01*
X28419Y16477D01*
X28422Y16470D01*
X28425Y16462D01*
X28428Y16455D01*
X28430Y16450D01*
X28433Y16445D01*
X28436Y16441D01*
X28438Y16437D01*
X28440Y16435D01*
X28440Y16434D01*
X28441Y16433D01*
X28447Y16425D01*
X28454Y16418D01*
X28470Y16405D01*
X28487Y16393D01*
X28504Y16384D01*
X28519Y16377D01*
X28525Y16374D01*
X28531Y16372D01*
X28536Y16370D01*
X28540Y16369D01*
X28542Y16368D01*
X28543D01*
X28523Y16285D01*
X28507Y16290D01*
X28492Y16296D01*
X28478Y16303D01*
X28464Y16310D01*
X28452Y16317D01*
X28441Y16325D01*
X28430Y16332D01*
X28421Y16340D01*
X28413Y16348D01*
X28406Y16354D01*
X28400Y16360D01*
X28395Y16366D01*
X28391Y16370D01*
X28388Y16373D01*
X28387Y16375D01*
X28386Y16376D01*
X28377Y16389D01*
X28370Y16402D01*
X28363Y16415D01*
X28358Y16429D01*
X28353Y16443D01*
X28349Y16456D01*
X28346Y16469D01*
X28343Y16481D01*
X28341Y16493D01*
X28340Y16504D01*
X28338Y16513D01*
X28338Y16522D01*
X28337Y16529D01*
Y16538D01*
X28338Y16554D01*
X28338Y16569D01*
X28343Y16597D01*
X28346Y16611D01*
X28349Y16624D01*
X28353Y16636D01*
X28356Y16647D01*
X28360Y16657D01*
X28363Y16666D01*
X28367Y16674D01*
X28369Y16680D01*
X28372Y16686D01*
X28374Y16689D01*
X28375Y16692D01*
X28376Y16693D01*
X28383Y16705D01*
X28392Y16718D01*
X28401Y16729D01*
X28410Y16739D01*
X28419Y16749D01*
X28428Y16758D01*
X28438Y16766D01*
X28446Y16773D01*
X28455Y16780D01*
X28463Y16785D01*
X28470Y16790D01*
X28476Y16794D01*
X28482Y16797D01*
X28485Y16799D01*
X28488Y16800D01*
X28489Y16801D01*
X28503Y16808D01*
X28518Y16814D01*
X28532Y16818D01*
X28547Y16823D01*
X28577Y16830D01*
X28591Y16832D01*
X28604Y16834D01*
X28616Y16836D01*
X28627Y16837D01*
X28638Y16838D01*
X28647Y16839D01*
X28654Y16839D01*
X28659D01*
X28662D01*
X28663D01*
X28680Y16839D01*
D02*
G37*
G36*
X28794Y16196D02*
X28806Y16195D01*
X28827Y16191D01*
X28847Y16185D01*
X28856Y16183D01*
X28864Y16179D01*
X28872Y16176D01*
X28878Y16173D01*
X28884Y16170D01*
X28889Y16167D01*
X28893Y16165D01*
X28896Y16164D01*
X28897Y16163D01*
X28898Y16162D01*
X28916Y16149D01*
X28931Y16134D01*
X28944Y16119D01*
X28955Y16104D01*
X28963Y16091D01*
X28966Y16086D01*
X28969Y16081D01*
X28971Y16076D01*
X28972Y16074D01*
X28973Y16072D01*
Y16071D01*
X28982Y16047D01*
X28988Y16023D01*
X28992Y15999D01*
X28995Y15976D01*
X28996Y15965D01*
X28997Y15955D01*
X28998Y15947D01*
Y15939D01*
X28998Y15933D01*
Y15925D01*
X28997Y15900D01*
X28994Y15877D01*
X28991Y15856D01*
X28988Y15846D01*
X28986Y15838D01*
X28984Y15830D01*
X28981Y15823D01*
X28979Y15816D01*
X28978Y15812D01*
X28976Y15807D01*
X28975Y15805D01*
X28973Y15803D01*
Y15802D01*
X28963Y15782D01*
X28952Y15766D01*
X28940Y15751D01*
X28929Y15740D01*
X28919Y15730D01*
X28911Y15724D01*
X28908Y15721D01*
X28905Y15719D01*
X28904Y15718D01*
X28903D01*
X28895Y15712D01*
X28886Y15708D01*
X28869Y15701D01*
X28853Y15695D01*
X28839Y15692D01*
X28826Y15690D01*
X28821Y15689D01*
X28816D01*
X28813Y15688D01*
X28810D01*
X28808D01*
X28808D01*
X28789Y15690D01*
X28772Y15692D01*
X28756Y15696D01*
X28743Y15701D01*
X28732Y15707D01*
X28727Y15709D01*
X28724Y15711D01*
X28721Y15712D01*
X28719Y15714D01*
X28718Y15715D01*
X28717D01*
X28710Y15721D01*
X28703Y15726D01*
X28690Y15740D01*
X28679Y15753D01*
X28670Y15767D01*
X28662Y15778D01*
X28659Y15784D01*
X28657Y15789D01*
X28654Y15792D01*
X28653Y15795D01*
X28652Y15797D01*
Y15798D01*
X28648Y15805D01*
X28645Y15815D01*
X28641Y15825D01*
X28638Y15836D01*
X28632Y15859D01*
X28625Y15883D01*
X28622Y15894D01*
X28620Y15905D01*
X28617Y15914D01*
X28616Y15923D01*
X28614Y15929D01*
X28612Y15934D01*
X28611Y15938D01*
Y15939D01*
X28607Y15958D01*
X28602Y15975D01*
X28598Y15989D01*
X28594Y16003D01*
X28590Y16015D01*
X28587Y16025D01*
X28583Y16034D01*
X28580Y16042D01*
X28576Y16048D01*
X28573Y16054D01*
X28571Y16058D01*
X28569Y16061D01*
X28567Y16064D01*
X28566Y16065D01*
X28565Y16067D01*
X28556Y16075D01*
X28547Y16081D01*
X28537Y16085D01*
X28528Y16088D01*
X28521Y16090D01*
X28514Y16090D01*
X28510Y16091D01*
X28510D01*
X28509D01*
X28501Y16090D01*
X28494Y16090D01*
X28482Y16086D01*
X28470Y16080D01*
X28460Y16074D01*
X28452Y16067D01*
X28446Y16062D01*
X28442Y16058D01*
X28441Y16057D01*
Y16056D01*
X28436Y16049D01*
X28431Y16041D01*
X28424Y16024D01*
X28419Y16006D01*
X28416Y15987D01*
X28415Y15979D01*
X28414Y15970D01*
X28413Y15963D01*
Y15957D01*
X28412Y15952D01*
Y15932D01*
X28414Y15919D01*
X28415Y15907D01*
X28417Y15896D01*
X28419Y15887D01*
X28422Y15877D01*
X28425Y15869D01*
X28428Y15862D01*
X28431Y15855D01*
X28434Y15850D01*
X28437Y15845D01*
X28439Y15841D01*
X28441Y15838D01*
X28442Y15835D01*
X28443Y15834D01*
X28444Y15834D01*
X28450Y15827D01*
X28456Y15821D01*
X28471Y15811D01*
X28486Y15803D01*
X28501Y15797D01*
X28514Y15793D01*
X28519Y15792D01*
X28525Y15790D01*
X28529Y15789D01*
X28532D01*
X28534Y15789D01*
X28535D01*
X28528Y15708D01*
X28507Y15710D01*
X28489Y15714D01*
X28471Y15719D01*
X28457Y15724D01*
X28451Y15728D01*
X28444Y15730D01*
X28440Y15733D01*
X28435Y15735D01*
X28432Y15737D01*
X28430Y15738D01*
X28428Y15739D01*
X28428Y15740D01*
X28412Y15751D01*
X28399Y15764D01*
X28387Y15778D01*
X28377Y15792D01*
X28370Y15804D01*
X28367Y15810D01*
X28365Y15814D01*
X28363Y15817D01*
X28362Y15821D01*
X28360Y15822D01*
Y15823D01*
X28353Y15844D01*
X28347Y15865D01*
X28342Y15887D01*
X28340Y15906D01*
X28339Y15915D01*
X28338Y15923D01*
X28338Y15930D01*
X28337Y15936D01*
Y15948D01*
X28338Y15972D01*
X28340Y15994D01*
X28344Y16013D01*
X28346Y16022D01*
X28348Y16031D01*
X28350Y16038D01*
X28352Y16045D01*
X28354Y16052D01*
X28356Y16056D01*
X28357Y16060D01*
X28358Y16063D01*
X28359Y16065D01*
Y16065D01*
X28368Y16084D01*
X28378Y16100D01*
X28389Y16114D01*
X28399Y16125D01*
X28409Y16134D01*
X28417Y16141D01*
X28419Y16143D01*
X28421Y16144D01*
X28423Y16146D01*
X28424D01*
X28440Y16155D01*
X28455Y16162D01*
X28470Y16166D01*
X28484Y16169D01*
X28496Y16171D01*
X28501Y16172D01*
X28505D01*
X28509Y16173D01*
X28512D01*
X28513D01*
X28514D01*
X28530Y16172D01*
X28545Y16169D01*
X28559Y16166D01*
X28571Y16162D01*
X28580Y16158D01*
X28588Y16154D01*
X28591Y16153D01*
X28593Y16151D01*
X28593Y16151D01*
X28594D01*
X28607Y16142D01*
X28618Y16131D01*
X28628Y16119D01*
X28637Y16108D01*
X28644Y16098D01*
X28649Y16090D01*
X28650Y16086D01*
X28652Y16084D01*
X28653Y16083D01*
Y16082D01*
X28657Y16075D01*
X28660Y16067D01*
X28663Y16058D01*
X28667Y16048D01*
X28674Y16028D01*
X28680Y16007D01*
X28683Y15997D01*
X28686Y15989D01*
X28688Y15981D01*
X28690Y15973D01*
X28691Y15968D01*
X28693Y15963D01*
X28693Y15960D01*
Y15959D01*
X28697Y15943D01*
X28701Y15929D01*
X28704Y15916D01*
X28707Y15905D01*
X28710Y15894D01*
X28712Y15884D01*
X28715Y15877D01*
X28717Y15869D01*
X28718Y15864D01*
X28720Y15858D01*
X28722Y15854D01*
X28722Y15851D01*
X28723Y15848D01*
X28724Y15847D01*
X28725Y15846D01*
X28731Y15832D01*
X28737Y15820D01*
X28743Y15810D01*
X28749Y15802D01*
X28754Y15796D01*
X28758Y15792D01*
X28761Y15789D01*
X28762Y15788D01*
X28770Y15782D01*
X28779Y15778D01*
X28788Y15774D01*
X28797Y15772D01*
X28804Y15771D01*
X28810Y15770D01*
X28813D01*
X28814D01*
X28815D01*
X28825Y15771D01*
X28835Y15773D01*
X28844Y15776D01*
X28853Y15779D01*
X28860Y15782D01*
X28865Y15786D01*
X28868Y15788D01*
X28869Y15789D01*
X28878Y15796D01*
X28886Y15805D01*
X28893Y15814D01*
X28899Y15823D01*
X28903Y15832D01*
X28906Y15838D01*
X28908Y15841D01*
X28908Y15843D01*
X28909Y15844D01*
Y15844D01*
X28914Y15858D01*
X28917Y15873D01*
X28919Y15887D01*
X28921Y15900D01*
X28922Y15911D01*
Y15916D01*
X28923Y15920D01*
Y15929D01*
X28922Y15949D01*
X28920Y15967D01*
X28917Y15984D01*
X28913Y15999D01*
X28912Y16005D01*
X28910Y16011D01*
X28908Y16015D01*
X28907Y16020D01*
X28905Y16023D01*
X28905Y16025D01*
X28904Y16027D01*
Y16027D01*
X28896Y16043D01*
X28888Y16056D01*
X28881Y16067D01*
X28872Y16076D01*
X28865Y16083D01*
X28860Y16088D01*
X28856Y16091D01*
X28855Y16092D01*
X28842Y16099D01*
X28829Y16104D01*
X28816Y16108D01*
X28804Y16112D01*
X28792Y16115D01*
X28788Y16115D01*
X28783Y16116D01*
X28780Y16117D01*
X28777Y16117D01*
X28776D01*
X28775D01*
X28782Y16197D01*
X28794Y16196D01*
D02*
G37*
G36*
X26448Y18418D02*
X25903D01*
X26448Y18234D01*
Y18157D01*
X25912Y17970D01*
X26448D01*
Y17888D01*
X25808D01*
Y18003D01*
X26253Y18157D01*
X26266Y18161D01*
X26277Y18165D01*
X26288Y18169D01*
X26298Y18172D01*
X26307Y18175D01*
X26316Y18178D01*
X26323Y18180D01*
X26330Y18182D01*
X26336Y18184D01*
X26341Y18186D01*
X26345Y18187D01*
X26350Y18189D01*
X26352Y18189D01*
X26354Y18190D01*
X26355Y18191D01*
X26356D01*
X26350Y18193D01*
X26343Y18195D01*
X26328Y18200D01*
X26312Y18205D01*
X26297Y18209D01*
X26283Y18214D01*
X26277Y18216D01*
X26272Y18218D01*
X26268Y18219D01*
X26264Y18221D01*
X26262Y18221D01*
X26261D01*
X25808Y18373D01*
Y18500D01*
X26448D01*
Y18418D01*
D02*
G37*
G36*
X26152Y17777D02*
X26168Y17777D01*
X26197Y17773D01*
X26211Y17770D01*
X26224Y17767D01*
X26237Y17764D01*
X26248Y17760D01*
X26259Y17757D01*
X26268Y17753D01*
X26276Y17750D01*
X26283Y17748D01*
X26289Y17746D01*
X26293Y17743D01*
X26295Y17743D01*
X26296Y17742D01*
X26310Y17734D01*
X26323Y17727D01*
X26335Y17719D01*
X26347Y17709D01*
X26357Y17700D01*
X26367Y17691D01*
X26376Y17683D01*
X26384Y17674D01*
X26391Y17666D01*
X26397Y17658D01*
X26403Y17651D01*
X26407Y17646D01*
X26411Y17641D01*
X26413Y17637D01*
X26415Y17635D01*
X26415Y17634D01*
X26423Y17620D01*
X26429Y17606D01*
X26436Y17592D01*
X26440Y17578D01*
X26445Y17565D01*
X26448Y17551D01*
X26451Y17538D01*
X26453Y17526D01*
X26455Y17515D01*
X26456Y17505D01*
X26457Y17495D01*
X26458Y17488D01*
X26458Y17481D01*
Y17472D01*
X26458Y17457D01*
X26457Y17442D01*
X26452Y17413D01*
X26449Y17400D01*
X26446Y17386D01*
X26442Y17375D01*
X26439Y17363D01*
X26436Y17353D01*
X26432Y17344D01*
X26429Y17336D01*
X26426Y17330D01*
X26423Y17324D01*
X26421Y17320D01*
X26420Y17318D01*
X26420Y17317D01*
X26412Y17304D01*
X26403Y17291D01*
X26394Y17280D01*
X26385Y17269D01*
X26375Y17259D01*
X26365Y17250D01*
X26356Y17241D01*
X26347Y17234D01*
X26338Y17228D01*
X26329Y17221D01*
X26322Y17216D01*
X26316Y17212D01*
X26311Y17210D01*
X26307Y17207D01*
X26304Y17206D01*
X26303Y17205D01*
X26289Y17198D01*
X26273Y17192D01*
X26259Y17187D01*
X26243Y17183D01*
X26229Y17178D01*
X26214Y17176D01*
X26200Y17173D01*
X26187Y17171D01*
X26175Y17169D01*
X26164Y17168D01*
X26154Y17167D01*
X26146Y17167D01*
X26139Y17166D01*
X26133D01*
X26130D01*
X26129D01*
X26111Y17167D01*
X26094Y17167D01*
X26078Y17169D01*
X26062Y17171D01*
X26047Y17174D01*
X26033Y17178D01*
X26019Y17181D01*
X26008Y17185D01*
X25997Y17188D01*
X25987Y17192D01*
X25978Y17194D01*
X25971Y17198D01*
X25965Y17200D01*
X25961Y17202D01*
X25958Y17203D01*
X25958Y17203D01*
X25944Y17211D01*
X25931Y17219D01*
X25918Y17228D01*
X25907Y17236D01*
X25897Y17245D01*
X25887Y17254D01*
X25878Y17263D01*
X25870Y17272D01*
X25863Y17280D01*
X25857Y17288D01*
X25851Y17294D01*
X25847Y17300D01*
X25843Y17305D01*
X25841Y17309D01*
X25840Y17311D01*
X25839Y17312D01*
X25832Y17326D01*
X25825Y17339D01*
X25820Y17353D01*
X25815Y17367D01*
X25811Y17381D01*
X25807Y17394D01*
X25805Y17406D01*
X25802Y17419D01*
X25800Y17430D01*
X25799Y17440D01*
X25798Y17449D01*
X25798Y17457D01*
X25797Y17463D01*
Y17472D01*
X25798Y17497D01*
X25801Y17520D01*
X25805Y17542D01*
X25811Y17563D01*
X25818Y17583D01*
X25825Y17601D01*
X25834Y17618D01*
X25842Y17633D01*
X25850Y17647D01*
X25859Y17659D01*
X25866Y17669D01*
X25873Y17678D01*
X25879Y17684D01*
X25883Y17689D01*
X25886Y17692D01*
X25887Y17693D01*
X25904Y17708D01*
X25924Y17721D01*
X25943Y17732D01*
X25964Y17742D01*
X25985Y17750D01*
X26006Y17757D01*
X26026Y17763D01*
X26046Y17768D01*
X26065Y17771D01*
X26081Y17773D01*
X26097Y17775D01*
X26110Y17777D01*
X26121Y17777D01*
X26126D01*
X26130Y17778D01*
X26132D01*
X26135D01*
X26136D01*
X26137D01*
X26152Y17777D01*
D02*
G37*
G36*
X26254Y17084D02*
X26266Y17083D01*
X26287Y17078D01*
X26307Y17073D01*
X26316Y17070D01*
X26324Y17067D01*
X26331Y17064D01*
X26338Y17060D01*
X26344Y17058D01*
X26349Y17055D01*
X26353Y17053D01*
X26356Y17051D01*
X26357Y17051D01*
X26358Y17050D01*
X26376Y17037D01*
X26391Y17022D01*
X26404Y17006D01*
X26415Y16992D01*
X26423Y16979D01*
X26426Y16973D01*
X26429Y16968D01*
X26431Y16964D01*
X26432Y16961D01*
X26433Y16959D01*
Y16959D01*
X26442Y16935D01*
X26448Y16911D01*
X26452Y16886D01*
X26455Y16864D01*
X26456Y16852D01*
X26457Y16843D01*
X26458Y16834D01*
Y16827D01*
X26458Y16821D01*
Y16812D01*
X26457Y16787D01*
X26454Y16764D01*
X26451Y16744D01*
X26448Y16734D01*
X26446Y16726D01*
X26444Y16717D01*
X26441Y16710D01*
X26439Y16704D01*
X26438Y16699D01*
X26436Y16695D01*
X26435Y16692D01*
X26433Y16690D01*
Y16689D01*
X26423Y16670D01*
X26412Y16653D01*
X26400Y16639D01*
X26389Y16627D01*
X26379Y16617D01*
X26371Y16611D01*
X26368Y16608D01*
X26365Y16607D01*
X26364Y16606D01*
X26363D01*
X26355Y16600D01*
X26346Y16596D01*
X26329Y16588D01*
X26313Y16583D01*
X26299Y16579D01*
X26286Y16577D01*
X26281Y16576D01*
X26276D01*
X26273Y16576D01*
X26270D01*
X26268D01*
X26268D01*
X26249Y16577D01*
X26232Y16580D01*
X26216Y16584D01*
X26203Y16589D01*
X26192Y16594D01*
X26187Y16597D01*
X26184Y16599D01*
X26181Y16600D01*
X26179Y16601D01*
X26178Y16603D01*
X26177D01*
X26170Y16608D01*
X26163Y16614D01*
X26150Y16627D01*
X26139Y16640D01*
X26130Y16654D01*
X26122Y16666D01*
X26119Y16671D01*
X26117Y16676D01*
X26114Y16680D01*
X26113Y16683D01*
X26112Y16685D01*
Y16685D01*
X26108Y16693D01*
X26105Y16703D01*
X26101Y16712D01*
X26098Y16723D01*
X26092Y16747D01*
X26085Y16771D01*
X26082Y16782D01*
X26080Y16792D01*
X26077Y16802D01*
X26076Y16810D01*
X26074Y16817D01*
X26072Y16822D01*
X26071Y16825D01*
Y16827D01*
X26067Y16846D01*
X26062Y16862D01*
X26058Y16877D01*
X26054Y16891D01*
X26050Y16902D01*
X26047Y16913D01*
X26043Y16922D01*
X26040Y16929D01*
X26036Y16936D01*
X26033Y16941D01*
X26031Y16945D01*
X26029Y16949D01*
X26027Y16952D01*
X26026Y16953D01*
X26025Y16954D01*
X26016Y16963D01*
X26007Y16968D01*
X25997Y16972D01*
X25988Y16976D01*
X25981Y16977D01*
X25974Y16978D01*
X25970Y16979D01*
X25970D01*
X25969D01*
X25961Y16978D01*
X25954Y16977D01*
X25942Y16973D01*
X25930Y16968D01*
X25920Y16961D01*
X25912Y16955D01*
X25906Y16950D01*
X25902Y16945D01*
X25901Y16945D01*
Y16944D01*
X25896Y16937D01*
X25891Y16929D01*
X25884Y16911D01*
X25879Y16893D01*
X25876Y16875D01*
X25875Y16866D01*
X25874Y16858D01*
X25873Y16851D01*
Y16845D01*
X25872Y16839D01*
Y16819D01*
X25874Y16807D01*
X25875Y16795D01*
X25877Y16784D01*
X25879Y16774D01*
X25882Y16765D01*
X25885Y16757D01*
X25888Y16749D01*
X25891Y16743D01*
X25894Y16737D01*
X25897Y16732D01*
X25899Y16728D01*
X25901Y16726D01*
X25902Y16723D01*
X25903Y16722D01*
X25904Y16721D01*
X25910Y16714D01*
X25916Y16708D01*
X25931Y16698D01*
X25946Y16690D01*
X25961Y16685D01*
X25974Y16680D01*
X25979Y16679D01*
X25985Y16678D01*
X25989Y16677D01*
X25992D01*
X25994Y16676D01*
X25994D01*
X25988Y16595D01*
X25967Y16597D01*
X25949Y16601D01*
X25931Y16606D01*
X25917Y16612D01*
X25911Y16615D01*
X25904Y16617D01*
X25899Y16620D01*
X25895Y16622D01*
X25892Y16624D01*
X25890Y16626D01*
X25888Y16626D01*
X25888Y16627D01*
X25872Y16639D01*
X25859Y16652D01*
X25847Y16666D01*
X25837Y16680D01*
X25830Y16692D01*
X25827Y16697D01*
X25825Y16701D01*
X25823Y16705D01*
X25822Y16708D01*
X25820Y16710D01*
Y16710D01*
X25813Y16731D01*
X25807Y16753D01*
X25802Y16774D01*
X25800Y16793D01*
X25799Y16803D01*
X25798Y16810D01*
X25798Y16818D01*
X25797Y16824D01*
Y16836D01*
X25798Y16859D01*
X25800Y16882D01*
X25804Y16901D01*
X25806Y16910D01*
X25808Y16918D01*
X25810Y16926D01*
X25812Y16933D01*
X25814Y16939D01*
X25816Y16944D01*
X25817Y16947D01*
X25818Y16951D01*
X25819Y16952D01*
Y16953D01*
X25828Y16972D01*
X25838Y16988D01*
X25849Y17002D01*
X25859Y17013D01*
X25869Y17022D01*
X25877Y17029D01*
X25879Y17031D01*
X25881Y17032D01*
X25883Y17033D01*
X25884D01*
X25899Y17042D01*
X25915Y17049D01*
X25930Y17054D01*
X25944Y17057D01*
X25956Y17059D01*
X25961Y17060D01*
X25965D01*
X25969Y17060D01*
X25972D01*
X25973D01*
X25974D01*
X25990Y17060D01*
X26005Y17057D01*
X26019Y17054D01*
X26031Y17049D01*
X26040Y17045D01*
X26048Y17042D01*
X26051Y17040D01*
X26053Y17039D01*
X26053Y17038D01*
X26054D01*
X26067Y17029D01*
X26078Y17018D01*
X26088Y17007D01*
X26097Y16995D01*
X26104Y16986D01*
X26109Y16977D01*
X26110Y16974D01*
X26112Y16972D01*
X26113Y16970D01*
Y16970D01*
X26117Y16963D01*
X26120Y16954D01*
X26123Y16945D01*
X26127Y16936D01*
X26134Y16916D01*
X26140Y16895D01*
X26143Y16885D01*
X26146Y16877D01*
X26148Y16868D01*
X26150Y16861D01*
X26151Y16855D01*
X26153Y16850D01*
X26153Y16848D01*
Y16847D01*
X26157Y16831D01*
X26161Y16816D01*
X26164Y16804D01*
X26167Y16792D01*
X26170Y16782D01*
X26172Y16772D01*
X26175Y16764D01*
X26177Y16757D01*
X26178Y16751D01*
X26180Y16746D01*
X26182Y16741D01*
X26182Y16739D01*
X26183Y16736D01*
X26184Y16735D01*
X26184Y16733D01*
X26191Y16719D01*
X26197Y16708D01*
X26203Y16697D01*
X26209Y16689D01*
X26214Y16683D01*
X26218Y16679D01*
X26221Y16676D01*
X26222Y16676D01*
X26230Y16669D01*
X26239Y16665D01*
X26248Y16662D01*
X26257Y16660D01*
X26264Y16658D01*
X26270Y16658D01*
X26273D01*
X26274D01*
X26275D01*
X26285Y16658D01*
X26295Y16660D01*
X26304Y16664D01*
X26313Y16667D01*
X26320Y16670D01*
X26325Y16674D01*
X26328Y16676D01*
X26329Y16676D01*
X26338Y16684D01*
X26346Y16692D01*
X26353Y16702D01*
X26359Y16711D01*
X26363Y16719D01*
X26366Y16726D01*
X26368Y16728D01*
X26368Y16730D01*
X26369Y16731D01*
Y16732D01*
X26374Y16746D01*
X26377Y16760D01*
X26379Y16775D01*
X26381Y16788D01*
X26382Y16799D01*
Y16804D01*
X26383Y16808D01*
Y16816D01*
X26382Y16836D01*
X26380Y16855D01*
X26377Y16872D01*
X26373Y16886D01*
X26372Y16893D01*
X26370Y16898D01*
X26368Y16903D01*
X26367Y16907D01*
X26365Y16911D01*
X26365Y16913D01*
X26364Y16914D01*
Y16915D01*
X26356Y16930D01*
X26348Y16943D01*
X26341Y16954D01*
X26332Y16963D01*
X26325Y16970D01*
X26320Y16975D01*
X26316Y16979D01*
X26315Y16979D01*
X26302Y16986D01*
X26289Y16992D01*
X26276Y16996D01*
X26264Y16999D01*
X26252Y17002D01*
X26248Y17003D01*
X26243Y17004D01*
X26240Y17004D01*
X26237Y17005D01*
X26236D01*
X26235D01*
X26242Y17085D01*
X26254Y17084D01*
D02*
G37*
G36*
X26448Y16361D02*
X25808D01*
Y16446D01*
X26448D01*
Y16361D01*
D02*
G37*
G36*
X38894Y18257D02*
X38893Y18234D01*
X38893Y18214D01*
X38891Y18197D01*
X38890Y18189D01*
X38888Y18182D01*
X38888Y18175D01*
X38887Y18170D01*
X38886Y18165D01*
X38885Y18161D01*
X38884Y18157D01*
Y18155D01*
X38884Y18154D01*
Y18153D01*
X38879Y18138D01*
X38875Y18124D01*
X38869Y18112D01*
X38864Y18103D01*
X38859Y18094D01*
X38856Y18088D01*
X38853Y18085D01*
X38852Y18083D01*
X38843Y18073D01*
X38834Y18064D01*
X38824Y18056D01*
X38814Y18049D01*
X38806Y18044D01*
X38799Y18040D01*
X38796Y18038D01*
X38794Y18037D01*
X38793Y18036D01*
X38793D01*
X38778Y18030D01*
X38763Y18025D01*
X38749Y18022D01*
X38736Y18019D01*
X38725Y18017D01*
X38721D01*
X38716Y18017D01*
X38713D01*
X38711D01*
X38710D01*
X38709D01*
X38698D01*
X38689Y18018D01*
X38670Y18022D01*
X38653Y18027D01*
X38640Y18033D01*
X38633Y18035D01*
X38628Y18038D01*
X38623Y18041D01*
X38619Y18044D01*
X38616Y18046D01*
X38614Y18047D01*
X38612Y18048D01*
X38612Y18049D01*
X38597Y18061D01*
X38585Y18076D01*
X38575Y18090D01*
X38567Y18105D01*
X38561Y18117D01*
X38559Y18123D01*
X38557Y18128D01*
X38556Y18132D01*
X38554Y18135D01*
X38554Y18137D01*
Y18137D01*
X38545Y18121D01*
X38535Y18108D01*
X38525Y18096D01*
X38516Y18087D01*
X38508Y18080D01*
X38502Y18075D01*
X38499Y18073D01*
X38497Y18071D01*
X38496Y18071D01*
X38495D01*
X38481Y18063D01*
X38468Y18058D01*
X38455Y18053D01*
X38443Y18051D01*
X38433Y18049D01*
X38425Y18048D01*
X38422D01*
X38420D01*
X38419D01*
X38418D01*
X38402Y18049D01*
X38386Y18052D01*
X38372Y18056D01*
X38359Y18060D01*
X38349Y18065D01*
X38344Y18067D01*
X38341Y18069D01*
X38338Y18071D01*
X38336Y18072D01*
X38334Y18074D01*
X38334D01*
X38320Y18084D01*
X38307Y18095D01*
X38297Y18106D01*
X38289Y18117D01*
X38282Y18128D01*
X38278Y18135D01*
X38276Y18139D01*
X38275Y18141D01*
X38274Y18142D01*
Y18143D01*
X38267Y18161D01*
X38262Y18180D01*
X38259Y18200D01*
X38257Y18218D01*
X38255Y18227D01*
X38255Y18234D01*
Y18242D01*
X38254Y18248D01*
Y18500D01*
X38894D01*
Y18257D01*
D02*
G37*
G36*
Y17819D02*
X38672D01*
X38571Y17714D01*
X38894Y17487D01*
Y17375D01*
X38513Y17655D01*
X38254Y17386D01*
Y17501D01*
X38571Y17819D01*
X38254D01*
Y17904D01*
X38894D01*
Y17819D01*
D02*
G37*
G36*
Y16907D02*
X38818D01*
Y17223D01*
X38254D01*
Y17307D01*
X38894D01*
Y16907D01*
D02*
G37*
G36*
Y16708D02*
X38254D01*
Y16792D01*
X38894D01*
Y16708D01*
D02*
G37*
G36*
X38594Y16579D02*
X38612Y16578D01*
X38628Y16576D01*
X38644Y16573D01*
X38658Y16570D01*
X38673Y16567D01*
X38686Y16563D01*
X38698Y16560D01*
X38709Y16556D01*
X38719Y16553D01*
X38727Y16549D01*
X38735Y16547D01*
X38740Y16544D01*
X38744Y16542D01*
X38747Y16541D01*
X38748Y16540D01*
X38762Y16533D01*
X38775Y16524D01*
X38787Y16515D01*
X38798Y16506D01*
X38809Y16496D01*
X38818Y16486D01*
X38827Y16477D01*
X38834Y16468D01*
X38841Y16459D01*
X38848Y16450D01*
X38852Y16443D01*
X38857Y16436D01*
X38860Y16432D01*
X38862Y16427D01*
X38863Y16425D01*
X38864Y16424D01*
X38871Y16409D01*
X38877Y16394D01*
X38883Y16380D01*
X38887Y16365D01*
X38891Y16350D01*
X38895Y16336D01*
X38897Y16322D01*
X38900Y16309D01*
X38901Y16298D01*
X38902Y16287D01*
X38903Y16277D01*
X38904Y16269D01*
X38904Y16262D01*
Y16253D01*
X38903Y16227D01*
X38900Y16202D01*
X38897Y16179D01*
X38894Y16169D01*
X38892Y16158D01*
X38890Y16149D01*
X38887Y16142D01*
X38885Y16134D01*
X38884Y16128D01*
X38882Y16123D01*
X38881Y16119D01*
X38879Y16117D01*
Y16117D01*
X38869Y16092D01*
X38857Y16068D01*
X38845Y16047D01*
X38839Y16036D01*
X38833Y16027D01*
X38827Y16019D01*
X38822Y16011D01*
X38818Y16004D01*
X38814Y15999D01*
X38810Y15994D01*
X38807Y15991D01*
X38806Y15988D01*
X38805Y15988D01*
X38567D01*
Y16259D01*
X38643D01*
Y16071D01*
X38763D01*
X38772Y16082D01*
X38780Y16095D01*
X38787Y16108D01*
X38794Y16121D01*
X38800Y16133D01*
X38802Y16138D01*
X38805Y16142D01*
X38806Y16146D01*
X38807Y16149D01*
X38808Y16150D01*
Y16151D01*
X38815Y16170D01*
X38820Y16190D01*
X38824Y16208D01*
X38826Y16223D01*
X38827Y16231D01*
X38827Y16237D01*
X38828Y16243D01*
Y16248D01*
X38829Y16252D01*
Y16257D01*
X38827Y16281D01*
X38825Y16303D01*
X38820Y16323D01*
X38818Y16333D01*
X38815Y16341D01*
X38812Y16349D01*
X38810Y16356D01*
X38807Y16362D01*
X38805Y16368D01*
X38804Y16372D01*
X38802Y16375D01*
X38801Y16377D01*
Y16377D01*
X38796Y16388D01*
X38789Y16398D01*
X38776Y16414D01*
X38762Y16429D01*
X38748Y16441D01*
X38735Y16450D01*
X38730Y16454D01*
X38725Y16457D01*
X38721Y16460D01*
X38719Y16461D01*
X38716Y16462D01*
X38716Y16463D01*
X38693Y16472D01*
X38669Y16479D01*
X38645Y16485D01*
X38622Y16488D01*
X38612Y16489D01*
X38602Y16490D01*
X38594Y16491D01*
X38586D01*
X38581Y16492D01*
X38576D01*
X38573D01*
X38572D01*
X38547Y16490D01*
X38522Y16488D01*
X38501Y16484D01*
X38490Y16482D01*
X38481Y16479D01*
X38473Y16477D01*
X38465Y16475D01*
X38459Y16473D01*
X38454Y16471D01*
X38449Y16470D01*
X38446Y16468D01*
X38444Y16468D01*
X38443D01*
X38431Y16462D01*
X38419Y16456D01*
X38408Y16449D01*
X38399Y16443D01*
X38391Y16437D01*
X38385Y16432D01*
X38382Y16429D01*
X38380Y16428D01*
X38370Y16418D01*
X38361Y16406D01*
X38352Y16395D01*
X38346Y16384D01*
X38340Y16374D01*
X38336Y16366D01*
X38335Y16364D01*
X38334Y16361D01*
X38333Y16360D01*
Y16359D01*
X38327Y16343D01*
X38323Y16326D01*
X38319Y16309D01*
X38317Y16294D01*
X38316Y16286D01*
X38316Y16280D01*
Y16273D01*
X38315Y16269D01*
Y16259D01*
X38316Y16242D01*
X38318Y16225D01*
X38321Y16210D01*
X38323Y16197D01*
X38327Y16187D01*
X38328Y16182D01*
X38330Y16178D01*
X38331Y16176D01*
X38332Y16174D01*
X38332Y16172D01*
Y16171D01*
X38339Y16158D01*
X38346Y16145D01*
X38354Y16135D01*
X38361Y16126D01*
X38368Y16119D01*
X38373Y16115D01*
X38376Y16111D01*
X38377Y16110D01*
X38389Y16103D01*
X38401Y16096D01*
X38413Y16090D01*
X38426Y16084D01*
X38437Y16080D01*
X38442Y16079D01*
X38445Y16077D01*
X38449Y16076D01*
X38452Y16075D01*
X38453Y16074D01*
X38454D01*
X38433Y15997D01*
X38410Y16004D01*
X38389Y16012D01*
X38380Y16016D01*
X38371Y16020D01*
X38364Y16024D01*
X38357Y16028D01*
X38350Y16031D01*
X38344Y16035D01*
X38339Y16038D01*
X38335Y16040D01*
X38332Y16043D01*
X38330Y16045D01*
X38329Y16045D01*
X38328Y16046D01*
X38314Y16059D01*
X38301Y16073D01*
X38291Y16088D01*
X38282Y16102D01*
X38275Y16115D01*
X38272Y16120D01*
X38270Y16125D01*
X38268Y16128D01*
X38266Y16131D01*
X38266Y16133D01*
Y16134D01*
X38258Y16156D01*
X38253Y16177D01*
X38248Y16199D01*
X38246Y16218D01*
X38245Y16227D01*
X38244Y16235D01*
X38244Y16242D01*
X38243Y16248D01*
Y16260D01*
X38244Y16277D01*
X38244Y16294D01*
X38246Y16311D01*
X38249Y16326D01*
X38252Y16341D01*
X38255Y16355D01*
X38259Y16368D01*
X38262Y16380D01*
X38266Y16391D01*
X38270Y16400D01*
X38273Y16409D01*
X38276Y16416D01*
X38279Y16421D01*
X38281Y16425D01*
X38282Y16428D01*
X38282Y16429D01*
X38290Y16442D01*
X38299Y16454D01*
X38308Y16466D01*
X38318Y16477D01*
X38328Y16487D01*
X38338Y16496D01*
X38348Y16504D01*
X38357Y16512D01*
X38367Y16518D01*
X38375Y16524D01*
X38383Y16529D01*
X38390Y16533D01*
X38395Y16536D01*
X38400Y16538D01*
X38402Y16540D01*
X38403Y16540D01*
X38418Y16547D01*
X38434Y16553D01*
X38449Y16558D01*
X38464Y16563D01*
X38493Y16570D01*
X38507Y16572D01*
X38520Y16574D01*
X38532Y16576D01*
X38543Y16577D01*
X38553Y16578D01*
X38561Y16579D01*
X38568Y16579D01*
X38573D01*
X38576D01*
X38577D01*
X38594Y16579D01*
D02*
G37*
G36*
X38894Y15775D02*
X38592D01*
Y15443D01*
X38894D01*
Y15358D01*
X38254D01*
Y15443D01*
X38517D01*
Y15775D01*
X38254D01*
Y15859D01*
X38894D01*
Y15775D01*
D02*
G37*
G36*
X38330Y15054D02*
X38894D01*
Y14970D01*
X38330D01*
Y14759D01*
X38254D01*
Y15265D01*
X38330D01*
Y15054D01*
D02*
G37*
G36*
X34068Y18269D02*
X34067Y18248D01*
X34067Y18229D01*
X34065Y18212D01*
X34062Y18196D01*
X34062Y18190D01*
X34061Y18184D01*
X34060Y18179D01*
X34059Y18175D01*
X34058Y18171D01*
Y18169D01*
X34058Y18168D01*
Y18167D01*
X34053Y18151D01*
X34048Y18136D01*
X34042Y18123D01*
X34037Y18112D01*
X34033Y18103D01*
X34029Y18096D01*
X34026Y18092D01*
X34026Y18091D01*
Y18090D01*
X34017Y18078D01*
X34008Y18067D01*
X33998Y18058D01*
X33988Y18049D01*
X33980Y18042D01*
X33974Y18037D01*
X33971Y18035D01*
X33969Y18033D01*
X33968Y18032D01*
X33967D01*
X33953Y18022D01*
X33938Y18014D01*
X33922Y18006D01*
X33907Y18000D01*
X33894Y17995D01*
X33888Y17993D01*
X33884Y17991D01*
X33880Y17990D01*
X33877Y17989D01*
X33875Y17988D01*
X33875D01*
X33852Y17983D01*
X33830Y17979D01*
X33809Y17975D01*
X33789Y17973D01*
X33780Y17972D01*
X33771Y17972D01*
X33764D01*
X33757Y17971D01*
X33752D01*
X33748D01*
X33746D01*
X33745D01*
X33714Y17972D01*
X33699Y17973D01*
X33685Y17975D01*
X33672Y17977D01*
X33660Y17979D01*
X33648Y17981D01*
X33637Y17983D01*
X33627Y17986D01*
X33619Y17988D01*
X33611Y17990D01*
X33605Y17992D01*
X33600Y17994D01*
X33596Y17995D01*
X33594Y17997D01*
X33593D01*
X33569Y18007D01*
X33548Y18019D01*
X33538Y18025D01*
X33529Y18031D01*
X33521Y18037D01*
X33513Y18044D01*
X33506Y18049D01*
X33501Y18055D01*
X33495Y18060D01*
X33491Y18064D01*
X33488Y18067D01*
X33486Y18070D01*
X33484Y18071D01*
X33483Y18072D01*
X33472Y18087D01*
X33462Y18103D01*
X33454Y18119D01*
X33448Y18133D01*
X33443Y18146D01*
X33442Y18152D01*
X33440Y18157D01*
X33439Y18160D01*
X33438Y18163D01*
X33438Y18165D01*
Y18166D01*
X33436Y18173D01*
X33434Y18182D01*
X33432Y18200D01*
X33430Y18219D01*
X33429Y18238D01*
X33429Y18246D01*
Y18255D01*
X33428Y18261D01*
Y18500D01*
X34068D01*
Y18269D01*
D02*
G37*
G36*
X34079Y17860D02*
X33418Y17674D01*
Y17737D01*
X34079Y17923D01*
Y17860D01*
D02*
G37*
G36*
X33760Y17630D02*
X33777Y17629D01*
X33809Y17625D01*
X33824Y17623D01*
X33838Y17620D01*
X33851Y17617D01*
X33863Y17614D01*
X33875Y17610D01*
X33885Y17608D01*
X33893Y17605D01*
X33901Y17602D01*
X33906Y17600D01*
X33911Y17599D01*
X33914Y17598D01*
X33915Y17597D01*
X33929Y17590D01*
X33943Y17583D01*
X33956Y17576D01*
X33967Y17567D01*
X33979Y17559D01*
X33988Y17551D01*
X33997Y17543D01*
X34006Y17535D01*
X34013Y17528D01*
X34019Y17521D01*
X34024Y17515D01*
X34029Y17509D01*
X34033Y17505D01*
X34035Y17501D01*
X34036Y17499D01*
X34037Y17499D01*
X34044Y17486D01*
X34051Y17473D01*
X34056Y17459D01*
X34061Y17445D01*
X34065Y17431D01*
X34068Y17417D01*
X34071Y17403D01*
X34073Y17390D01*
X34075Y17377D01*
X34076Y17366D01*
X34077Y17356D01*
X34078Y17348D01*
X34078Y17340D01*
Y17330D01*
X34078Y17311D01*
X34076Y17294D01*
X34074Y17278D01*
X34070Y17262D01*
X34066Y17246D01*
X34061Y17232D01*
X34056Y17220D01*
X34051Y17208D01*
X34047Y17197D01*
X34042Y17188D01*
X34037Y17180D01*
X34033Y17173D01*
X34029Y17168D01*
X34026Y17164D01*
X34025Y17162D01*
X34024Y17161D01*
X34013Y17149D01*
X34001Y17137D01*
X33989Y17126D01*
X33976Y17117D01*
X33963Y17108D01*
X33949Y17100D01*
X33937Y17093D01*
X33924Y17087D01*
X33912Y17081D01*
X33901Y17077D01*
X33890Y17073D01*
X33882Y17070D01*
X33875Y17067D01*
X33870Y17066D01*
X33866Y17065D01*
X33865D01*
X33843Y17149D01*
X33858Y17153D01*
X33872Y17158D01*
X33885Y17162D01*
X33897Y17167D01*
X33908Y17173D01*
X33918Y17178D01*
X33927Y17184D01*
X33935Y17189D01*
X33942Y17195D01*
X33948Y17200D01*
X33954Y17205D01*
X33958Y17208D01*
X33961Y17212D01*
X33963Y17214D01*
X33965Y17216D01*
X33965Y17216D01*
X33972Y17226D01*
X33979Y17236D01*
X33984Y17246D01*
X33989Y17256D01*
X33993Y17266D01*
X33997Y17276D01*
X34001Y17296D01*
X34003Y17304D01*
X34004Y17312D01*
X34005Y17319D01*
X34006Y17325D01*
X34006Y17330D01*
Y17337D01*
X34006Y17348D01*
X34005Y17359D01*
X34001Y17379D01*
X33997Y17397D01*
X33991Y17413D01*
X33988Y17420D01*
X33986Y17427D01*
X33983Y17432D01*
X33981Y17437D01*
X33979Y17441D01*
X33978Y17444D01*
X33976Y17445D01*
Y17446D01*
X33970Y17455D01*
X33964Y17463D01*
X33949Y17479D01*
X33935Y17491D01*
X33920Y17501D01*
X33906Y17509D01*
X33901Y17513D01*
X33895Y17515D01*
X33891Y17517D01*
X33888Y17518D01*
X33886Y17520D01*
X33886D01*
X33862Y17527D01*
X33838Y17533D01*
X33814Y17538D01*
X33802Y17539D01*
X33791Y17540D01*
X33781Y17541D01*
X33772Y17542D01*
X33764Y17542D01*
X33757D01*
X33750Y17543D01*
X33746D01*
X33743D01*
X33743D01*
X33719Y17542D01*
X33697Y17540D01*
X33676Y17537D01*
X33667Y17535D01*
X33657Y17533D01*
X33650Y17531D01*
X33642Y17530D01*
X33636Y17528D01*
X33630Y17526D01*
X33626Y17526D01*
X33623Y17524D01*
X33621Y17524D01*
X33620D01*
X33599Y17515D01*
X33580Y17504D01*
X33564Y17493D01*
X33557Y17487D01*
X33550Y17481D01*
X33544Y17476D01*
X33540Y17471D01*
X33535Y17466D01*
X33531Y17463D01*
X33529Y17459D01*
X33526Y17456D01*
X33526Y17455D01*
X33525Y17454D01*
X33519Y17445D01*
X33513Y17435D01*
X33508Y17425D01*
X33504Y17414D01*
X33498Y17393D01*
X33493Y17373D01*
X33492Y17365D01*
X33491Y17357D01*
X33490Y17349D01*
X33490Y17343D01*
X33489Y17337D01*
Y17318D01*
X33490Y17307D01*
X33494Y17287D01*
X33499Y17268D01*
X33502Y17261D01*
X33505Y17253D01*
X33508Y17246D01*
X33510Y17241D01*
X33513Y17236D01*
X33516Y17232D01*
X33518Y17228D01*
X33520Y17226D01*
X33520Y17225D01*
X33521Y17224D01*
X33527Y17216D01*
X33534Y17209D01*
X33550Y17196D01*
X33567Y17185D01*
X33584Y17176D01*
X33599Y17169D01*
X33605Y17165D01*
X33611Y17163D01*
X33616Y17161D01*
X33620Y17160D01*
X33622Y17159D01*
X33623D01*
X33603Y17076D01*
X33587Y17081D01*
X33572Y17087D01*
X33558Y17094D01*
X33544Y17101D01*
X33532Y17108D01*
X33521Y17116D01*
X33510Y17124D01*
X33501Y17131D01*
X33493Y17139D01*
X33486Y17145D01*
X33480Y17151D01*
X33475Y17157D01*
X33471Y17161D01*
X33468Y17164D01*
X33467Y17167D01*
X33466Y17167D01*
X33457Y17180D01*
X33450Y17193D01*
X33443Y17206D01*
X33438Y17220D01*
X33433Y17234D01*
X33429Y17247D01*
X33426Y17260D01*
X33423Y17273D01*
X33421Y17284D01*
X33420Y17295D01*
X33418Y17305D01*
X33418Y17313D01*
X33417Y17320D01*
Y17329D01*
X33418Y17345D01*
X33418Y17360D01*
X33423Y17388D01*
X33426Y17402D01*
X33429Y17415D01*
X33433Y17427D01*
X33436Y17438D01*
X33440Y17448D01*
X33443Y17457D01*
X33447Y17465D01*
X33449Y17472D01*
X33452Y17477D01*
X33454Y17481D01*
X33455Y17483D01*
X33456Y17484D01*
X33463Y17497D01*
X33472Y17509D01*
X33481Y17520D01*
X33490Y17531D01*
X33499Y17540D01*
X33508Y17549D01*
X33518Y17557D01*
X33526Y17565D01*
X33535Y17571D01*
X33543Y17576D01*
X33550Y17581D01*
X33556Y17585D01*
X33562Y17588D01*
X33565Y17590D01*
X33568Y17592D01*
X33569Y17592D01*
X33583Y17599D01*
X33598Y17605D01*
X33612Y17610D01*
X33627Y17615D01*
X33657Y17621D01*
X33671Y17624D01*
X33684Y17626D01*
X33696Y17627D01*
X33707Y17628D01*
X33718Y17629D01*
X33727Y17630D01*
X33734Y17630D01*
X33739D01*
X33742D01*
X33743D01*
X33760Y17630D01*
D02*
G37*
G36*
X31528Y18415D02*
X31244D01*
Y18307D01*
X31244Y18297D01*
X31245Y18289D01*
Y18282D01*
X31246Y18277D01*
X31246Y18273D01*
X31247Y18271D01*
Y18270D01*
X31249Y18263D01*
X31252Y18256D01*
X31255Y18250D01*
X31258Y18243D01*
X31260Y18239D01*
X31262Y18235D01*
X31264Y18232D01*
X31264Y18232D01*
X31269Y18225D01*
X31276Y18217D01*
X31283Y18209D01*
X31290Y18203D01*
X31296Y18197D01*
X31302Y18193D01*
X31305Y18190D01*
X31306Y18189D01*
X31307D01*
X31319Y18179D01*
X31333Y18169D01*
X31348Y18159D01*
X31362Y18149D01*
X31375Y18141D01*
X31380Y18137D01*
X31385Y18134D01*
X31389Y18131D01*
X31392Y18129D01*
X31394Y18128D01*
X31395Y18128D01*
X31528Y18043D01*
Y17937D01*
X31354Y18048D01*
X31336Y18060D01*
X31319Y18073D01*
X31305Y18085D01*
X31292Y18095D01*
X31283Y18104D01*
X31278Y18108D01*
X31275Y18112D01*
X31272Y18114D01*
X31270Y18117D01*
X31269Y18117D01*
X31269Y18118D01*
X31263Y18125D01*
X31257Y18133D01*
X31252Y18142D01*
X31247Y18150D01*
X31243Y18157D01*
X31240Y18164D01*
X31237Y18168D01*
X31237Y18169D01*
Y18169D01*
X31234Y18153D01*
X31231Y18137D01*
X31226Y18122D01*
X31222Y18109D01*
X31217Y18096D01*
X31212Y18085D01*
X31208Y18076D01*
X31203Y18067D01*
X31198Y18058D01*
X31193Y18051D01*
X31189Y18046D01*
X31185Y18041D01*
X31182Y18037D01*
X31180Y18035D01*
X31179Y18033D01*
X31178Y18033D01*
X31169Y18025D01*
X31160Y18018D01*
X31150Y18012D01*
X31140Y18007D01*
X31131Y18003D01*
X31121Y17999D01*
X31103Y17994D01*
X31095Y17992D01*
X31087Y17990D01*
X31080Y17990D01*
X31074Y17989D01*
X31070Y17988D01*
X31065D01*
X31063D01*
X31063D01*
X31043Y17990D01*
X31025Y17992D01*
X31009Y17997D01*
X30995Y18001D01*
X30989Y18004D01*
X30983Y18007D01*
X30978Y18009D01*
X30974Y18011D01*
X30970Y18013D01*
X30968Y18014D01*
X30967Y18015D01*
X30966D01*
X30951Y18026D01*
X30939Y18037D01*
X30927Y18049D01*
X30919Y18061D01*
X30913Y18071D01*
X30909Y18079D01*
X30907Y18083D01*
X30906Y18085D01*
X30905Y18086D01*
Y18087D01*
X30903Y18096D01*
X30900Y18105D01*
X30896Y18126D01*
X30892Y18147D01*
X30890Y18168D01*
X30889Y18178D01*
X30889Y18187D01*
Y18195D01*
X30888Y18203D01*
Y18500D01*
X31528D01*
Y18415D01*
D02*
G37*
G36*
X31334Y17883D02*
X31346Y17881D01*
X31367Y17877D01*
X31387Y17872D01*
X31396Y17869D01*
X31404Y17866D01*
X31412Y17863D01*
X31418Y17859D01*
X31424Y17857D01*
X31429Y17854D01*
X31433Y17852D01*
X31436Y17850D01*
X31437Y17850D01*
X31438Y17849D01*
X31456Y17836D01*
X31471Y17820D01*
X31484Y17805D01*
X31495Y17791D01*
X31503Y17777D01*
X31506Y17772D01*
X31509Y17767D01*
X31511Y17763D01*
X31512Y17760D01*
X31513Y17758D01*
Y17757D01*
X31522Y17734D01*
X31528Y17709D01*
X31532Y17685D01*
X31535Y17662D01*
X31536Y17651D01*
X31537Y17642D01*
X31538Y17633D01*
Y17626D01*
X31538Y17619D01*
Y17611D01*
X31537Y17586D01*
X31534Y17563D01*
X31531Y17542D01*
X31528Y17533D01*
X31526Y17524D01*
X31524Y17516D01*
X31521Y17509D01*
X31519Y17503D01*
X31518Y17498D01*
X31516Y17494D01*
X31515Y17491D01*
X31513Y17489D01*
Y17488D01*
X31503Y17469D01*
X31492Y17452D01*
X31480Y17438D01*
X31469Y17426D01*
X31459Y17416D01*
X31451Y17410D01*
X31448Y17407D01*
X31445Y17406D01*
X31444Y17404D01*
X31443D01*
X31435Y17399D01*
X31426Y17395D01*
X31409Y17387D01*
X31393Y17382D01*
X31379Y17378D01*
X31366Y17376D01*
X31361Y17375D01*
X31356D01*
X31353Y17375D01*
X31350D01*
X31348D01*
X31348D01*
X31329Y17376D01*
X31312Y17379D01*
X31296Y17383D01*
X31283Y17388D01*
X31272Y17393D01*
X31267Y17395D01*
X31264Y17397D01*
X31261Y17399D01*
X31259Y17400D01*
X31258Y17402D01*
X31257D01*
X31250Y17407D01*
X31243Y17413D01*
X31230Y17426D01*
X31219Y17439D01*
X31210Y17453D01*
X31202Y17465D01*
X31199Y17470D01*
X31197Y17475D01*
X31194Y17479D01*
X31193Y17481D01*
X31192Y17483D01*
Y17484D01*
X31188Y17492D01*
X31185Y17501D01*
X31181Y17511D01*
X31178Y17522D01*
X31172Y17546D01*
X31165Y17569D01*
X31162Y17581D01*
X31160Y17591D01*
X31157Y17601D01*
X31156Y17609D01*
X31154Y17616D01*
X31152Y17621D01*
X31151Y17624D01*
Y17626D01*
X31147Y17644D01*
X31142Y17661D01*
X31138Y17676D01*
X31134Y17689D01*
X31130Y17701D01*
X31127Y17712D01*
X31123Y17721D01*
X31120Y17728D01*
X31116Y17734D01*
X31113Y17740D01*
X31111Y17744D01*
X31109Y17748D01*
X31107Y17750D01*
X31106Y17752D01*
X31105Y17753D01*
X31096Y17762D01*
X31087Y17767D01*
X31077Y17771D01*
X31068Y17775D01*
X31061Y17776D01*
X31054Y17777D01*
X31050Y17777D01*
X31050D01*
X31049D01*
X31041Y17777D01*
X31034Y17776D01*
X31022Y17772D01*
X31010Y17766D01*
X31000Y17760D01*
X30992Y17754D01*
X30986Y17748D01*
X30982Y17744D01*
X30981Y17743D01*
Y17743D01*
X30976Y17736D01*
X30971Y17728D01*
X30964Y17710D01*
X30959Y17692D01*
X30956Y17673D01*
X30955Y17665D01*
X30954Y17657D01*
X30953Y17650D01*
Y17644D01*
X30952Y17638D01*
Y17618D01*
X30954Y17605D01*
X30955Y17594D01*
X30957Y17583D01*
X30959Y17573D01*
X30962Y17564D01*
X30965Y17556D01*
X30968Y17548D01*
X30971Y17542D01*
X30974Y17536D01*
X30977Y17531D01*
X30979Y17527D01*
X30981Y17524D01*
X30982Y17522D01*
X30983Y17521D01*
X30984Y17520D01*
X30990Y17513D01*
X30996Y17507D01*
X31011Y17497D01*
X31026Y17489D01*
X31041Y17483D01*
X31054Y17479D01*
X31059Y17478D01*
X31065Y17477D01*
X31069Y17476D01*
X31072D01*
X31074Y17475D01*
X31074D01*
X31068Y17394D01*
X31047Y17396D01*
X31029Y17400D01*
X31011Y17405D01*
X30997Y17411D01*
X30991Y17414D01*
X30984Y17416D01*
X30979Y17419D01*
X30975Y17421D01*
X30972Y17423D01*
X30970Y17425D01*
X30968Y17425D01*
X30968Y17426D01*
X30952Y17438D01*
X30939Y17451D01*
X30927Y17465D01*
X30917Y17479D01*
X30910Y17490D01*
X30907Y17496D01*
X30905Y17500D01*
X30903Y17504D01*
X30902Y17507D01*
X30900Y17508D01*
Y17509D01*
X30893Y17530D01*
X30887Y17551D01*
X30882Y17573D01*
X30880Y17592D01*
X30879Y17601D01*
X30878Y17609D01*
X30878Y17617D01*
X30877Y17623D01*
Y17635D01*
X30878Y17658D01*
X30880Y17680D01*
X30884Y17700D01*
X30886Y17709D01*
X30888Y17717D01*
X30890Y17725D01*
X30892Y17732D01*
X30894Y17738D01*
X30896Y17743D01*
X30897Y17746D01*
X30898Y17750D01*
X30899Y17751D01*
Y17752D01*
X30908Y17771D01*
X30918Y17786D01*
X30929Y17800D01*
X30939Y17811D01*
X30949Y17820D01*
X30957Y17827D01*
X30959Y17829D01*
X30961Y17831D01*
X30963Y17832D01*
X30964D01*
X30979Y17841D01*
X30995Y17848D01*
X31010Y17852D01*
X31024Y17856D01*
X31036Y17858D01*
X31041Y17859D01*
X31045D01*
X31049Y17859D01*
X31052D01*
X31053D01*
X31054D01*
X31070Y17859D01*
X31085Y17856D01*
X31099Y17852D01*
X31111Y17848D01*
X31120Y17844D01*
X31128Y17841D01*
X31131Y17839D01*
X31133Y17838D01*
X31133Y17837D01*
X31134D01*
X31147Y17828D01*
X31158Y17817D01*
X31168Y17806D01*
X31177Y17794D01*
X31184Y17784D01*
X31189Y17776D01*
X31190Y17773D01*
X31192Y17771D01*
X31193Y17769D01*
Y17768D01*
X31197Y17762D01*
X31200Y17753D01*
X31203Y17744D01*
X31207Y17734D01*
X31214Y17714D01*
X31220Y17694D01*
X31223Y17684D01*
X31226Y17676D01*
X31228Y17667D01*
X31230Y17660D01*
X31231Y17654D01*
X31233Y17649D01*
X31233Y17646D01*
Y17646D01*
X31237Y17630D01*
X31241Y17615D01*
X31244Y17603D01*
X31247Y17591D01*
X31250Y17581D01*
X31252Y17571D01*
X31255Y17563D01*
X31257Y17556D01*
X31258Y17550D01*
X31260Y17544D01*
X31262Y17540D01*
X31262Y17538D01*
X31263Y17535D01*
X31264Y17533D01*
X31264Y17532D01*
X31271Y17518D01*
X31277Y17506D01*
X31283Y17496D01*
X31289Y17488D01*
X31294Y17482D01*
X31298Y17478D01*
X31301Y17475D01*
X31302Y17474D01*
X31310Y17468D01*
X31319Y17464D01*
X31328Y17461D01*
X31337Y17458D01*
X31344Y17457D01*
X31350Y17456D01*
X31353D01*
X31354D01*
X31355D01*
X31365Y17457D01*
X31375Y17459D01*
X31384Y17463D01*
X31393Y17465D01*
X31400Y17469D01*
X31405Y17472D01*
X31408Y17474D01*
X31409Y17475D01*
X31418Y17483D01*
X31426Y17491D01*
X31433Y17501D01*
X31439Y17510D01*
X31443Y17518D01*
X31446Y17524D01*
X31448Y17527D01*
X31448Y17529D01*
X31449Y17530D01*
Y17531D01*
X31454Y17544D01*
X31457Y17559D01*
X31459Y17574D01*
X31461Y17587D01*
X31462Y17598D01*
Y17603D01*
X31463Y17607D01*
Y17615D01*
X31462Y17635D01*
X31460Y17653D01*
X31457Y17671D01*
X31453Y17685D01*
X31452Y17691D01*
X31450Y17697D01*
X31448Y17702D01*
X31447Y17706D01*
X31445Y17709D01*
X31445Y17712D01*
X31444Y17713D01*
Y17714D01*
X31436Y17729D01*
X31428Y17742D01*
X31421Y17753D01*
X31412Y17762D01*
X31405Y17769D01*
X31400Y17774D01*
X31396Y17777D01*
X31395Y17778D01*
X31382Y17785D01*
X31369Y17791D01*
X31356Y17795D01*
X31344Y17798D01*
X31332Y17801D01*
X31328Y17802D01*
X31323Y17802D01*
X31320Y17803D01*
X31317Y17804D01*
X31316D01*
X31315D01*
X31322Y17884D01*
X31334Y17883D01*
D02*
G37*
G36*
X30964Y17097D02*
X31528D01*
Y17012D01*
X30964D01*
Y16801D01*
X30888D01*
Y17307D01*
X30964D01*
Y17097D01*
D02*
G37*
G36*
X36414Y18499D02*
X36426Y18498D01*
X36447Y18494D01*
X36467Y18488D01*
X36476Y18485D01*
X36484Y18482D01*
X36492Y18479D01*
X36498Y18476D01*
X36504Y18473D01*
X36509Y18470D01*
X36513Y18468D01*
X36516Y18467D01*
X36517Y18466D01*
X36518Y18465D01*
X36536Y18452D01*
X36551Y18437D01*
X36564Y18422D01*
X36575Y18407D01*
X36583Y18394D01*
X36586Y18388D01*
X36589Y18384D01*
X36591Y18379D01*
X36592Y18377D01*
X36593Y18374D01*
Y18374D01*
X36602Y18350D01*
X36608Y18326D01*
X36612Y18302D01*
X36615Y18279D01*
X36616Y18268D01*
X36617Y18258D01*
X36618Y18250D01*
Y18242D01*
X36618Y18236D01*
Y18227D01*
X36617Y18203D01*
X36614Y18180D01*
X36611Y18159D01*
X36608Y18149D01*
X36606Y18141D01*
X36604Y18132D01*
X36601Y18126D01*
X36599Y18119D01*
X36598Y18114D01*
X36596Y18110D01*
X36595Y18108D01*
X36593Y18105D01*
Y18105D01*
X36583Y18085D01*
X36572Y18069D01*
X36560Y18054D01*
X36549Y18042D01*
X36539Y18033D01*
X36531Y18026D01*
X36528Y18024D01*
X36525Y18022D01*
X36524Y18021D01*
X36523D01*
X36515Y18015D01*
X36506Y18011D01*
X36489Y18004D01*
X36473Y17998D01*
X36459Y17994D01*
X36446Y17992D01*
X36441Y17992D01*
X36436D01*
X36433Y17991D01*
X36430D01*
X36428D01*
X36428D01*
X36409Y17992D01*
X36392Y17995D01*
X36376Y17999D01*
X36363Y18004D01*
X36352Y18010D01*
X36347Y18012D01*
X36344Y18014D01*
X36341Y18015D01*
X36339Y18017D01*
X36338Y18018D01*
X36337D01*
X36330Y18024D01*
X36323Y18029D01*
X36310Y18042D01*
X36299Y18056D01*
X36290Y18069D01*
X36282Y18081D01*
X36279Y18087D01*
X36277Y18092D01*
X36274Y18095D01*
X36273Y18098D01*
X36272Y18100D01*
Y18101D01*
X36268Y18108D01*
X36265Y18118D01*
X36261Y18128D01*
X36258Y18139D01*
X36252Y18162D01*
X36245Y18186D01*
X36242Y18197D01*
X36240Y18207D01*
X36237Y18217D01*
X36236Y18225D01*
X36234Y18232D01*
X36232Y18237D01*
X36231Y18241D01*
Y18242D01*
X36227Y18261D01*
X36222Y18277D01*
X36218Y18292D01*
X36214Y18306D01*
X36210Y18318D01*
X36207Y18328D01*
X36203Y18337D01*
X36200Y18345D01*
X36196Y18351D01*
X36193Y18356D01*
X36191Y18361D01*
X36189Y18364D01*
X36187Y18367D01*
X36186Y18368D01*
X36185Y18370D01*
X36176Y18378D01*
X36167Y18384D01*
X36157Y18388D01*
X36148Y18391D01*
X36141Y18393D01*
X36134Y18393D01*
X36130Y18394D01*
X36130D01*
X36129D01*
X36121Y18393D01*
X36114Y18393D01*
X36102Y18388D01*
X36090Y18383D01*
X36080Y18377D01*
X36072Y18370D01*
X36066Y18365D01*
X36062Y18361D01*
X36061Y18360D01*
Y18359D01*
X36056Y18352D01*
X36051Y18344D01*
X36044Y18327D01*
X36039Y18309D01*
X36036Y18290D01*
X36035Y18282D01*
X36034Y18273D01*
X36033Y18266D01*
Y18260D01*
X36032Y18255D01*
Y18234D01*
X36034Y18222D01*
X36035Y18210D01*
X36037Y18199D01*
X36039Y18189D01*
X36042Y18180D01*
X36045Y18172D01*
X36048Y18164D01*
X36051Y18158D01*
X36054Y18153D01*
X36057Y18148D01*
X36059Y18144D01*
X36061Y18141D01*
X36062Y18138D01*
X36063Y18137D01*
X36064Y18137D01*
X36070Y18130D01*
X36076Y18123D01*
X36091Y18114D01*
X36106Y18105D01*
X36121Y18100D01*
X36134Y18096D01*
X36139Y18094D01*
X36145Y18093D01*
X36149Y18092D01*
X36152D01*
X36154Y18092D01*
X36154D01*
X36148Y18010D01*
X36127Y18013D01*
X36109Y18017D01*
X36091Y18022D01*
X36077Y18027D01*
X36071Y18031D01*
X36064Y18033D01*
X36060Y18035D01*
X36055Y18037D01*
X36052Y18040D01*
X36050Y18041D01*
X36048Y18042D01*
X36048Y18042D01*
X36032Y18054D01*
X36019Y18067D01*
X36007Y18081D01*
X35997Y18095D01*
X35990Y18107D01*
X35987Y18112D01*
X35985Y18117D01*
X35983Y18120D01*
X35982Y18123D01*
X35980Y18125D01*
Y18126D01*
X35973Y18146D01*
X35967Y18168D01*
X35962Y18189D01*
X35960Y18209D01*
X35959Y18218D01*
X35958Y18225D01*
X35958Y18233D01*
X35957Y18239D01*
Y18251D01*
X35958Y18275D01*
X35960Y18297D01*
X35964Y18316D01*
X35966Y18325D01*
X35968Y18334D01*
X35970Y18341D01*
X35972Y18348D01*
X35974Y18354D01*
X35976Y18359D01*
X35977Y18363D01*
X35978Y18366D01*
X35979Y18368D01*
Y18368D01*
X35988Y18387D01*
X35998Y18403D01*
X36009Y18417D01*
X36019Y18428D01*
X36029Y18437D01*
X36037Y18444D01*
X36039Y18446D01*
X36041Y18447D01*
X36043Y18449D01*
X36044D01*
X36060Y18458D01*
X36075Y18465D01*
X36090Y18469D01*
X36104Y18472D01*
X36116Y18474D01*
X36121Y18475D01*
X36125D01*
X36129Y18476D01*
X36132D01*
X36133D01*
X36134D01*
X36150Y18475D01*
X36165Y18472D01*
X36179Y18469D01*
X36191Y18465D01*
X36200Y18460D01*
X36208Y18457D01*
X36211Y18456D01*
X36213Y18454D01*
X36213Y18454D01*
X36214D01*
X36227Y18445D01*
X36238Y18433D01*
X36248Y18422D01*
X36257Y18411D01*
X36264Y18401D01*
X36269Y18393D01*
X36270Y18389D01*
X36272Y18387D01*
X36273Y18386D01*
Y18385D01*
X36277Y18378D01*
X36280Y18370D01*
X36283Y18361D01*
X36287Y18351D01*
X36294Y18331D01*
X36300Y18310D01*
X36303Y18300D01*
X36306Y18292D01*
X36308Y18284D01*
X36310Y18276D01*
X36311Y18270D01*
X36313Y18266D01*
X36313Y18263D01*
Y18262D01*
X36317Y18246D01*
X36321Y18232D01*
X36324Y18219D01*
X36327Y18207D01*
X36330Y18197D01*
X36332Y18187D01*
X36335Y18180D01*
X36337Y18172D01*
X36338Y18166D01*
X36340Y18161D01*
X36342Y18157D01*
X36342Y18154D01*
X36343Y18151D01*
X36344Y18150D01*
X36345Y18148D01*
X36351Y18135D01*
X36357Y18123D01*
X36363Y18112D01*
X36369Y18105D01*
X36374Y18099D01*
X36378Y18094D01*
X36381Y18092D01*
X36382Y18091D01*
X36390Y18085D01*
X36399Y18080D01*
X36408Y18077D01*
X36417Y18075D01*
X36424Y18074D01*
X36430Y18073D01*
X36433D01*
X36434D01*
X36435D01*
X36445Y18074D01*
X36455Y18076D01*
X36464Y18079D01*
X36473Y18082D01*
X36480Y18085D01*
X36485Y18089D01*
X36488Y18091D01*
X36489Y18092D01*
X36498Y18099D01*
X36506Y18108D01*
X36513Y18117D01*
X36519Y18126D01*
X36523Y18135D01*
X36526Y18141D01*
X36528Y18144D01*
X36528Y18146D01*
X36529Y18146D01*
Y18147D01*
X36534Y18161D01*
X36537Y18175D01*
X36539Y18190D01*
X36541Y18203D01*
X36542Y18214D01*
Y18219D01*
X36543Y18223D01*
Y18232D01*
X36542Y18252D01*
X36540Y18270D01*
X36537Y18287D01*
X36533Y18302D01*
X36532Y18308D01*
X36530Y18313D01*
X36528Y18318D01*
X36527Y18322D01*
X36525Y18326D01*
X36525Y18328D01*
X36524Y18329D01*
Y18330D01*
X36516Y18345D01*
X36508Y18359D01*
X36501Y18370D01*
X36492Y18379D01*
X36485Y18386D01*
X36480Y18390D01*
X36476Y18394D01*
X36475Y18395D01*
X36462Y18402D01*
X36449Y18407D01*
X36436Y18411D01*
X36424Y18415D01*
X36412Y18417D01*
X36408Y18418D01*
X36403Y18419D01*
X36400Y18420D01*
X36397Y18420D01*
X36396D01*
X36395D01*
X36402Y18500D01*
X36414Y18499D01*
D02*
G37*
G36*
X36608Y17645D02*
X36607Y17624D01*
X36607Y17605D01*
X36605Y17587D01*
X36602Y17572D01*
X36602Y17566D01*
X36601Y17560D01*
X36600Y17555D01*
X36599Y17551D01*
X36598Y17547D01*
Y17545D01*
X36598Y17544D01*
Y17543D01*
X36593Y17527D01*
X36588Y17512D01*
X36582Y17499D01*
X36577Y17488D01*
X36573Y17479D01*
X36569Y17472D01*
X36566Y17468D01*
X36566Y17467D01*
Y17466D01*
X36557Y17454D01*
X36548Y17443D01*
X36538Y17434D01*
X36528Y17425D01*
X36520Y17418D01*
X36514Y17413D01*
X36511Y17411D01*
X36509Y17409D01*
X36508Y17408D01*
X36507D01*
X36493Y17398D01*
X36478Y17390D01*
X36462Y17382D01*
X36447Y17376D01*
X36434Y17371D01*
X36428Y17369D01*
X36424Y17367D01*
X36420Y17366D01*
X36417Y17365D01*
X36415Y17364D01*
X36415D01*
X36392Y17359D01*
X36370Y17354D01*
X36349Y17351D01*
X36329Y17349D01*
X36320Y17348D01*
X36311Y17348D01*
X36304D01*
X36297Y17347D01*
X36292D01*
X36288D01*
X36286D01*
X36285D01*
X36254Y17348D01*
X36239Y17349D01*
X36225Y17351D01*
X36212Y17353D01*
X36200Y17355D01*
X36188Y17357D01*
X36177Y17359D01*
X36167Y17362D01*
X36159Y17364D01*
X36151Y17366D01*
X36145Y17368D01*
X36140Y17370D01*
X36136Y17371D01*
X36134Y17372D01*
X36133D01*
X36109Y17383D01*
X36088Y17395D01*
X36078Y17401D01*
X36069Y17407D01*
X36061Y17413D01*
X36053Y17420D01*
X36046Y17425D01*
X36041Y17431D01*
X36035Y17436D01*
X36031Y17440D01*
X36028Y17443D01*
X36026Y17446D01*
X36024Y17447D01*
X36023Y17448D01*
X36012Y17463D01*
X36002Y17479D01*
X35994Y17495D01*
X35988Y17509D01*
X35983Y17522D01*
X35982Y17528D01*
X35980Y17533D01*
X35979Y17536D01*
X35978Y17539D01*
X35978Y17541D01*
Y17542D01*
X35976Y17549D01*
X35974Y17558D01*
X35972Y17576D01*
X35970Y17595D01*
X35969Y17614D01*
X35969Y17622D01*
Y17630D01*
X35968Y17637D01*
Y17876D01*
X36608D01*
Y17645D01*
D02*
G37*
G36*
X36300Y17254D02*
X36317Y17253D01*
X36349Y17249D01*
X36364Y17247D01*
X36378Y17244D01*
X36391Y17241D01*
X36403Y17238D01*
X36415Y17235D01*
X36425Y17232D01*
X36433Y17229D01*
X36441Y17226D01*
X36446Y17224D01*
X36451Y17223D01*
X36454Y17222D01*
X36455Y17221D01*
X36469Y17214D01*
X36483Y17207D01*
X36496Y17200D01*
X36507Y17192D01*
X36519Y17183D01*
X36528Y17176D01*
X36537Y17167D01*
X36546Y17160D01*
X36553Y17152D01*
X36559Y17145D01*
X36564Y17139D01*
X36569Y17133D01*
X36573Y17129D01*
X36575Y17126D01*
X36576Y17124D01*
X36577Y17123D01*
X36584Y17110D01*
X36591Y17097D01*
X36596Y17083D01*
X36601Y17069D01*
X36605Y17055D01*
X36608Y17041D01*
X36611Y17027D01*
X36613Y17014D01*
X36615Y17002D01*
X36616Y16990D01*
X36617Y16980D01*
X36618Y16972D01*
X36618Y16964D01*
Y16954D01*
X36618Y16936D01*
X36616Y16918D01*
X36614Y16902D01*
X36610Y16886D01*
X36606Y16870D01*
X36601Y16857D01*
X36596Y16844D01*
X36591Y16832D01*
X36586Y16821D01*
X36582Y16812D01*
X36577Y16804D01*
X36573Y16798D01*
X36569Y16792D01*
X36566Y16789D01*
X36565Y16786D01*
X36564Y16785D01*
X36553Y16773D01*
X36541Y16761D01*
X36529Y16750D01*
X36516Y16741D01*
X36503Y16732D01*
X36489Y16724D01*
X36477Y16717D01*
X36464Y16711D01*
X36452Y16705D01*
X36441Y16701D01*
X36430Y16697D01*
X36422Y16694D01*
X36415Y16692D01*
X36410Y16690D01*
X36406Y16689D01*
X36405D01*
X36383Y16773D01*
X36398Y16777D01*
X36412Y16782D01*
X36425Y16787D01*
X36437Y16791D01*
X36448Y16797D01*
X36458Y16803D01*
X36467Y16808D01*
X36475Y16814D01*
X36482Y16819D01*
X36488Y16824D01*
X36494Y16829D01*
X36498Y16832D01*
X36501Y16836D01*
X36503Y16839D01*
X36505Y16840D01*
X36505Y16841D01*
X36512Y16850D01*
X36519Y16860D01*
X36524Y16870D01*
X36529Y16880D01*
X36533Y16891D01*
X36537Y16900D01*
X36541Y16920D01*
X36543Y16928D01*
X36544Y16936D01*
X36545Y16943D01*
X36546Y16950D01*
X36546Y16954D01*
Y16961D01*
X36546Y16972D01*
X36545Y16983D01*
X36541Y17003D01*
X36537Y17022D01*
X36531Y17038D01*
X36528Y17045D01*
X36526Y17051D01*
X36523Y17056D01*
X36521Y17061D01*
X36519Y17065D01*
X36518Y17068D01*
X36516Y17069D01*
Y17070D01*
X36510Y17079D01*
X36504Y17087D01*
X36489Y17103D01*
X36475Y17115D01*
X36460Y17126D01*
X36446Y17133D01*
X36441Y17137D01*
X36435Y17140D01*
X36431Y17141D01*
X36428Y17142D01*
X36426Y17144D01*
X36426D01*
X36402Y17151D01*
X36378Y17158D01*
X36354Y17162D01*
X36342Y17163D01*
X36331Y17164D01*
X36321Y17165D01*
X36312Y17166D01*
X36304Y17167D01*
X36297D01*
X36290Y17167D01*
X36286D01*
X36283D01*
X36283D01*
X36259Y17167D01*
X36237Y17164D01*
X36216Y17161D01*
X36207Y17160D01*
X36197Y17158D01*
X36190Y17155D01*
X36182Y17154D01*
X36176Y17152D01*
X36170Y17151D01*
X36166Y17150D01*
X36163Y17149D01*
X36161Y17148D01*
X36160D01*
X36139Y17139D01*
X36120Y17128D01*
X36104Y17117D01*
X36097Y17111D01*
X36090Y17106D01*
X36084Y17100D01*
X36080Y17095D01*
X36075Y17090D01*
X36071Y17087D01*
X36069Y17083D01*
X36066Y17081D01*
X36066Y17079D01*
X36065Y17078D01*
X36059Y17069D01*
X36053Y17059D01*
X36048Y17049D01*
X36044Y17038D01*
X36038Y17017D01*
X36033Y16997D01*
X36032Y16989D01*
X36031Y16981D01*
X36030Y16973D01*
X36030Y16967D01*
X36029Y16961D01*
Y16943D01*
X36030Y16931D01*
X36034Y16911D01*
X36039Y16893D01*
X36042Y16885D01*
X36045Y16877D01*
X36048Y16870D01*
X36050Y16865D01*
X36053Y16860D01*
X36056Y16856D01*
X36058Y16852D01*
X36060Y16850D01*
X36060Y16849D01*
X36061Y16848D01*
X36067Y16841D01*
X36074Y16833D01*
X36090Y16821D01*
X36107Y16809D01*
X36124Y16800D01*
X36139Y16793D01*
X36145Y16789D01*
X36151Y16787D01*
X36156Y16785D01*
X36160Y16784D01*
X36162Y16783D01*
X36163D01*
X36143Y16700D01*
X36127Y16705D01*
X36112Y16712D01*
X36098Y16718D01*
X36084Y16726D01*
X36072Y16732D01*
X36061Y16740D01*
X36050Y16748D01*
X36041Y16755D01*
X36033Y16763D01*
X36026Y16769D01*
X36020Y16775D01*
X36015Y16781D01*
X36011Y16785D01*
X36008Y16789D01*
X36007Y16791D01*
X36006Y16791D01*
X35997Y16804D01*
X35990Y16817D01*
X35983Y16830D01*
X35978Y16844D01*
X35973Y16858D01*
X35969Y16871D01*
X35966Y16884D01*
X35963Y16897D01*
X35961Y16909D01*
X35960Y16919D01*
X35958Y16929D01*
X35958Y16937D01*
X35957Y16944D01*
Y16953D01*
X35958Y16969D01*
X35958Y16984D01*
X35963Y17013D01*
X35966Y17026D01*
X35969Y17039D01*
X35973Y17051D01*
X35976Y17063D01*
X35980Y17072D01*
X35983Y17081D01*
X35987Y17090D01*
X35989Y17096D01*
X35992Y17101D01*
X35994Y17105D01*
X35995Y17108D01*
X35996Y17108D01*
X36003Y17121D01*
X36012Y17133D01*
X36021Y17144D01*
X36030Y17155D01*
X36039Y17164D01*
X36048Y17173D01*
X36058Y17181D01*
X36066Y17189D01*
X36075Y17195D01*
X36083Y17201D01*
X36090Y17205D01*
X36096Y17210D01*
X36102Y17212D01*
X36105Y17214D01*
X36108Y17216D01*
X36109Y17216D01*
X36123Y17223D01*
X36138Y17229D01*
X36152Y17234D01*
X36167Y17239D01*
X36197Y17246D01*
X36211Y17248D01*
X36224Y17250D01*
X36236Y17251D01*
X36247Y17253D01*
X36258Y17253D01*
X36267Y17254D01*
X36274Y17255D01*
X36279D01*
X36282D01*
X36283D01*
X36300Y17254D01*
D02*
G37*
G36*
X36414Y16612D02*
X36426Y16610D01*
X36447Y16606D01*
X36467Y16601D01*
X36476Y16598D01*
X36484Y16594D01*
X36492Y16592D01*
X36498Y16588D01*
X36504Y16585D01*
X36509Y16583D01*
X36513Y16581D01*
X36516Y16579D01*
X36517Y16579D01*
X36518Y16578D01*
X36536Y16565D01*
X36551Y16549D01*
X36564Y16534D01*
X36575Y16520D01*
X36583Y16506D01*
X36586Y16501D01*
X36589Y16496D01*
X36591Y16492D01*
X36592Y16489D01*
X36593Y16487D01*
Y16486D01*
X36602Y16463D01*
X36608Y16438D01*
X36612Y16414D01*
X36615Y16391D01*
X36616Y16380D01*
X36617Y16371D01*
X36618Y16362D01*
Y16355D01*
X36618Y16348D01*
Y16340D01*
X36617Y16315D01*
X36614Y16292D01*
X36611Y16271D01*
X36608Y16262D01*
X36606Y16253D01*
X36604Y16245D01*
X36601Y16238D01*
X36599Y16232D01*
X36598Y16227D01*
X36596Y16223D01*
X36595Y16220D01*
X36593Y16218D01*
Y16217D01*
X36583Y16198D01*
X36572Y16181D01*
X36560Y16167D01*
X36549Y16155D01*
X36539Y16145D01*
X36531Y16139D01*
X36528Y16136D01*
X36525Y16135D01*
X36524Y16133D01*
X36523D01*
X36515Y16128D01*
X36506Y16124D01*
X36489Y16116D01*
X36473Y16110D01*
X36459Y16107D01*
X36446Y16105D01*
X36441Y16104D01*
X36436D01*
X36433Y16104D01*
X36430D01*
X36428D01*
X36428D01*
X36409Y16105D01*
X36392Y16108D01*
X36376Y16112D01*
X36363Y16117D01*
X36352Y16122D01*
X36347Y16124D01*
X36344Y16126D01*
X36341Y16128D01*
X36339Y16129D01*
X36338Y16131D01*
X36337D01*
X36330Y16136D01*
X36323Y16142D01*
X36310Y16155D01*
X36299Y16168D01*
X36290Y16182D01*
X36282Y16194D01*
X36279Y16199D01*
X36277Y16204D01*
X36274Y16208D01*
X36273Y16210D01*
X36272Y16212D01*
Y16213D01*
X36268Y16221D01*
X36265Y16230D01*
X36261Y16240D01*
X36258Y16251D01*
X36252Y16275D01*
X36245Y16298D01*
X36242Y16309D01*
X36240Y16320D01*
X36237Y16330D01*
X36236Y16338D01*
X36234Y16345D01*
X36232Y16350D01*
X36231Y16353D01*
Y16355D01*
X36227Y16373D01*
X36222Y16390D01*
X36218Y16404D01*
X36214Y16418D01*
X36210Y16430D01*
X36207Y16441D01*
X36203Y16450D01*
X36200Y16457D01*
X36196Y16463D01*
X36193Y16469D01*
X36191Y16473D01*
X36189Y16477D01*
X36187Y16479D01*
X36186Y16481D01*
X36185Y16482D01*
X36176Y16490D01*
X36167Y16496D01*
X36157Y16500D01*
X36148Y16504D01*
X36141Y16505D01*
X36134Y16506D01*
X36130Y16506D01*
X36130D01*
X36129D01*
X36121Y16506D01*
X36114Y16505D01*
X36102Y16501D01*
X36090Y16495D01*
X36080Y16489D01*
X36072Y16483D01*
X36066Y16477D01*
X36062Y16473D01*
X36061Y16472D01*
Y16472D01*
X36056Y16465D01*
X36051Y16456D01*
X36044Y16439D01*
X36039Y16421D01*
X36036Y16402D01*
X36035Y16394D01*
X36034Y16386D01*
X36033Y16379D01*
Y16373D01*
X36032Y16367D01*
Y16347D01*
X36034Y16334D01*
X36035Y16323D01*
X36037Y16312D01*
X36039Y16302D01*
X36042Y16293D01*
X36045Y16285D01*
X36048Y16277D01*
X36051Y16271D01*
X36054Y16265D01*
X36057Y16260D01*
X36059Y16256D01*
X36061Y16253D01*
X36062Y16251D01*
X36063Y16250D01*
X36064Y16249D01*
X36070Y16242D01*
X36076Y16236D01*
X36091Y16226D01*
X36106Y16218D01*
X36121Y16212D01*
X36134Y16208D01*
X36139Y16207D01*
X36145Y16205D01*
X36149Y16205D01*
X36152D01*
X36154Y16204D01*
X36154D01*
X36148Y16123D01*
X36127Y16125D01*
X36109Y16129D01*
X36091Y16134D01*
X36077Y16140D01*
X36071Y16143D01*
X36064Y16145D01*
X36060Y16148D01*
X36055Y16150D01*
X36052Y16152D01*
X36050Y16153D01*
X36048Y16154D01*
X36048Y16155D01*
X36032Y16167D01*
X36019Y16180D01*
X36007Y16194D01*
X35997Y16208D01*
X35990Y16219D01*
X35987Y16225D01*
X35985Y16229D01*
X35983Y16233D01*
X35982Y16236D01*
X35980Y16237D01*
Y16238D01*
X35973Y16259D01*
X35967Y16280D01*
X35962Y16302D01*
X35960Y16321D01*
X35959Y16330D01*
X35958Y16338D01*
X35958Y16346D01*
X35957Y16352D01*
Y16364D01*
X35958Y16387D01*
X35960Y16409D01*
X35964Y16429D01*
X35966Y16438D01*
X35968Y16446D01*
X35970Y16454D01*
X35972Y16461D01*
X35974Y16467D01*
X35976Y16472D01*
X35977Y16475D01*
X35978Y16479D01*
X35979Y16480D01*
Y16481D01*
X35988Y16499D01*
X35998Y16515D01*
X36009Y16529D01*
X36019Y16540D01*
X36029Y16549D01*
X36037Y16556D01*
X36039Y16558D01*
X36041Y16560D01*
X36043Y16561D01*
X36044D01*
X36060Y16570D01*
X36075Y16577D01*
X36090Y16581D01*
X36104Y16585D01*
X36116Y16587D01*
X36121Y16588D01*
X36125D01*
X36129Y16588D01*
X36132D01*
X36133D01*
X36134D01*
X36150Y16588D01*
X36165Y16585D01*
X36179Y16581D01*
X36191Y16577D01*
X36200Y16573D01*
X36208Y16570D01*
X36211Y16568D01*
X36213Y16567D01*
X36213Y16566D01*
X36214D01*
X36227Y16557D01*
X36238Y16546D01*
X36248Y16535D01*
X36257Y16523D01*
X36264Y16513D01*
X36269Y16505D01*
X36270Y16502D01*
X36272Y16499D01*
X36273Y16498D01*
Y16497D01*
X36277Y16490D01*
X36280Y16482D01*
X36283Y16473D01*
X36287Y16463D01*
X36294Y16443D01*
X36300Y16423D01*
X36303Y16413D01*
X36306Y16404D01*
X36308Y16396D01*
X36310Y16389D01*
X36311Y16383D01*
X36313Y16378D01*
X36313Y16375D01*
Y16375D01*
X36317Y16359D01*
X36321Y16344D01*
X36324Y16332D01*
X36327Y16320D01*
X36330Y16309D01*
X36332Y16300D01*
X36335Y16292D01*
X36337Y16285D01*
X36338Y16279D01*
X36340Y16273D01*
X36342Y16269D01*
X36342Y16267D01*
X36343Y16264D01*
X36344Y16262D01*
X36345Y16261D01*
X36351Y16247D01*
X36357Y16235D01*
X36363Y16225D01*
X36369Y16217D01*
X36374Y16211D01*
X36378Y16207D01*
X36381Y16204D01*
X36382Y16203D01*
X36390Y16197D01*
X36399Y16193D01*
X36408Y16190D01*
X36417Y16187D01*
X36424Y16186D01*
X36430Y16185D01*
X36433D01*
X36434D01*
X36435D01*
X36445Y16186D01*
X36455Y16188D01*
X36464Y16192D01*
X36473Y16194D01*
X36480Y16198D01*
X36485Y16201D01*
X36488Y16203D01*
X36489Y16204D01*
X36498Y16212D01*
X36506Y16220D01*
X36513Y16230D01*
X36519Y16239D01*
X36523Y16247D01*
X36526Y16253D01*
X36528Y16256D01*
X36528Y16258D01*
X36529Y16259D01*
Y16260D01*
X36534Y16273D01*
X36537Y16288D01*
X36539Y16303D01*
X36541Y16316D01*
X36542Y16327D01*
Y16332D01*
X36543Y16336D01*
Y16344D01*
X36542Y16364D01*
X36540Y16382D01*
X36537Y16400D01*
X36533Y16414D01*
X36532Y16420D01*
X36530Y16426D01*
X36528Y16431D01*
X36527Y16435D01*
X36525Y16438D01*
X36525Y16441D01*
X36524Y16442D01*
Y16443D01*
X36516Y16458D01*
X36508Y16471D01*
X36501Y16482D01*
X36492Y16491D01*
X36485Y16498D01*
X36480Y16503D01*
X36476Y16506D01*
X36475Y16507D01*
X36462Y16514D01*
X36449Y16520D01*
X36436Y16524D01*
X36424Y16527D01*
X36412Y16530D01*
X36408Y16531D01*
X36403Y16531D01*
X36400Y16532D01*
X36397Y16533D01*
X36396D01*
X36395D01*
X36402Y16613D01*
X36414Y16612D01*
D02*
G37*
G36*
X13748Y18252D02*
Y18165D01*
X13108Y17915D01*
Y18001D01*
X13573Y18174D01*
X13593Y18181D01*
X13611Y18188D01*
X13629Y18194D01*
X13645Y18199D01*
X13652Y18201D01*
X13659Y18203D01*
X13664Y18205D01*
X13669Y18206D01*
X13672Y18207D01*
X13676Y18208D01*
X13677Y18209D01*
X13678D01*
X13659Y18214D01*
X13641Y18220D01*
X13623Y18225D01*
X13607Y18230D01*
X13600Y18233D01*
X13593Y18235D01*
X13588Y18237D01*
X13583Y18239D01*
X13579Y18240D01*
X13576Y18241D01*
X13574Y18242D01*
X13573D01*
X13108Y18408D01*
Y18501D01*
X13748Y18252D01*
D02*
G37*
G36*
Y17740D02*
X13108D01*
Y17825D01*
X13748D01*
Y17740D01*
D02*
G37*
G36*
Y17510D02*
X13246D01*
X13748Y17175D01*
Y17087D01*
X13108D01*
Y17169D01*
X13611D01*
X13108Y17505D01*
Y17592D01*
X13748D01*
Y17510D01*
D02*
G37*
%LPC*%
G36*
X2932Y17731D02*
X2760D01*
Y17697D01*
X2691D01*
Y17662D01*
X2657D01*
Y17628D01*
X2622D01*
Y17593D01*
X2588D01*
Y17352D01*
X2622D01*
Y17283D01*
X2657D01*
Y17249D01*
X2691D01*
Y17214D01*
X2726D01*
Y17180D01*
X2760D01*
Y17146D01*
X2794D01*
Y17111D01*
X2863D01*
Y17077D01*
X2932D01*
Y17042D01*
X3070D01*
Y17077D01*
X3104D01*
Y17111D01*
X3173D01*
Y17146D01*
X3208D01*
Y17214D01*
X3242D01*
Y17421D01*
X3208D01*
Y17490D01*
X3173D01*
Y17524D01*
X3139D01*
Y17559D01*
X3104D01*
Y17593D01*
X3070D01*
Y17628D01*
X3036D01*
Y17662D01*
X3001D01*
Y17697D01*
X2932D01*
Y17731D01*
D02*
G37*
G36*
X7169Y17524D02*
X7066D01*
Y17490D01*
X6997D01*
Y17456D01*
X6962D01*
Y17421D01*
X6893D01*
Y17387D01*
X6859D01*
Y17352D01*
X6824D01*
Y17318D01*
X6790D01*
Y17283D01*
X6756D01*
Y17214D01*
X6721D01*
Y17042D01*
X6756D01*
Y16973D01*
X6790D01*
Y16939D01*
X6824D01*
Y16904D01*
X6859D01*
Y16870D01*
X6893D01*
Y16904D01*
X6928D01*
Y16939D01*
X6962D01*
Y16973D01*
X6997D01*
Y17008D01*
X7031D01*
Y17042D01*
X7066D01*
Y17077D01*
X7134D01*
Y17111D01*
X7169D01*
Y17146D01*
X7203D01*
Y17180D01*
X7238D01*
Y17214D01*
X7272D01*
Y17249D01*
X7307D01*
Y17283D01*
X7341D01*
Y17318D01*
X7376D01*
Y17352D01*
X7341D01*
Y17387D01*
X7307D01*
Y17421D01*
X7272D01*
Y17456D01*
X7238D01*
Y17490D01*
X7169D01*
Y17524D01*
D02*
G37*
G36*
X6790Y13873D02*
X6687D01*
Y13839D01*
X6721D01*
Y13804D01*
X6756D01*
Y13770D01*
X6790D01*
Y13736D01*
X6824D01*
Y13701D01*
X6859D01*
Y13667D01*
X6928D01*
Y13632D01*
X6962D01*
Y13598D01*
X6997D01*
Y13563D01*
X7031D01*
Y13529D01*
X7066D01*
Y13494D01*
X7134D01*
Y13460D01*
X7169D01*
Y13563D01*
X7100D01*
Y13598D01*
X7066D01*
Y13632D01*
X7031D01*
Y13667D01*
X6997D01*
Y13701D01*
X6962D01*
Y13736D01*
X6893D01*
Y13770D01*
X6859D01*
Y13804D01*
X6824D01*
Y13839D01*
X6790D01*
Y13873D01*
D02*
G37*
G36*
X4138Y16767D02*
X4034D01*
Y16663D01*
X3966D01*
Y16629D01*
X3931D01*
Y16594D01*
X4034D01*
Y16353D01*
X4000D01*
Y16319D01*
X3966D01*
Y16353D01*
X3931D01*
Y16319D01*
Y16284D01*
X4000D01*
Y16250D01*
X4069D01*
Y16284D01*
X4103D01*
Y16319D01*
X4138D01*
Y16594D01*
X4207D01*
Y16629D01*
X4172D01*
Y16663D01*
X4138D01*
Y16767D01*
D02*
G37*
G36*
X4448Y16663D02*
X4241D01*
Y16526D01*
X4310D01*
Y16594D01*
X4413D01*
Y16526D01*
X4310D01*
Y16491D01*
X4276D01*
Y16457D01*
X4241D01*
Y16422D01*
X4207D01*
Y16353D01*
X4241D01*
Y16284D01*
X4310D01*
Y16250D01*
X4413D01*
Y16284D01*
X4517D01*
Y16388D01*
Y16422D01*
X4448D01*
Y16353D01*
X4413D01*
Y16319D01*
X4310D01*
Y16388D01*
X4344D01*
Y16422D01*
X4413D01*
Y16457D01*
X4482D01*
Y16629D01*
X4448D01*
Y16663D01*
D02*
G37*
G36*
X4792Y16629D02*
X4689D01*
Y16594D01*
X4654D01*
Y16216D01*
Y16181D01*
Y14424D01*
X4620D01*
Y14321D01*
X4551D01*
Y14287D01*
X4241D01*
Y14252D01*
X4207D01*
Y14046D01*
X4241D01*
Y14011D01*
X4276D01*
Y13977D01*
X5481D01*
Y14011D01*
X5516D01*
Y14046D01*
X5550D01*
Y14252D01*
X5516D01*
Y14287D01*
X5206D01*
Y14321D01*
X5137D01*
Y16147D01*
X5550D01*
Y16388D01*
X5516D01*
Y16422D01*
X5343D01*
Y16457D01*
X5206D01*
Y16491D01*
X5068D01*
Y16526D01*
X4964D01*
Y16560D01*
X4896D01*
Y16594D01*
X4792D01*
Y16629D01*
D02*
G37*
G36*
X3414Y13184D02*
X3380D01*
Y13150D01*
X3414D01*
Y13184D01*
D02*
G37*
G36*
X3656Y13322D02*
X3621D01*
Y13288D01*
X3587D01*
Y13219D01*
X3552D01*
Y13116D01*
X3587D01*
Y13150D01*
X3621D01*
Y13184D01*
X3656D01*
Y13253D01*
X3690D01*
Y13288D01*
X3656D01*
Y13322D01*
D02*
G37*
G36*
X3483Y13047D02*
X3449D01*
Y13012D01*
X3414D01*
Y12943D01*
X3380D01*
Y12909D01*
X3346D01*
Y12806D01*
X3414D01*
Y12874D01*
X3449D01*
Y12909D01*
X3483D01*
Y12978D01*
X3518D01*
Y13012D01*
X3483D01*
Y13047D01*
D02*
G37*
G36*
X18752Y17054D02*
X18264D01*
Y16906D01*
X18264Y16893D01*
X18265Y16882D01*
X18266Y16870D01*
X18266Y16861D01*
X18268Y16852D01*
X18269Y16843D01*
X18270Y16836D01*
X18271Y16830D01*
X18273Y16825D01*
X18274Y16821D01*
X18275Y16816D01*
X18275Y16814D01*
X18276Y16812D01*
X18277Y16811D01*
Y16810D01*
X18281Y16801D01*
X18285Y16793D01*
X18296Y16778D01*
X18308Y16764D01*
X18320Y16752D01*
X18332Y16743D01*
X18336Y16739D01*
X18341Y16736D01*
X18345Y16733D01*
X18347Y16731D01*
X18349Y16730D01*
X18350Y16730D01*
X18360Y16724D01*
X18372Y16719D01*
X18396Y16710D01*
X18422Y16705D01*
X18447Y16701D01*
X18458Y16699D01*
X18469Y16698D01*
X18479Y16697D01*
X18487D01*
X18494Y16696D01*
X18499D01*
X18502D01*
X18503D01*
X18530Y16697D01*
X18553Y16699D01*
X18565Y16701D01*
X18574Y16702D01*
X18584Y16703D01*
X18592Y16705D01*
X18600Y16707D01*
X18607Y16708D01*
X18613Y16710D01*
X18618Y16711D01*
X18622Y16712D01*
X18625Y16713D01*
X18626Y16714D01*
X18627D01*
X18645Y16721D01*
X18661Y16728D01*
X18675Y16736D01*
X18687Y16743D01*
X18696Y16750D01*
X18702Y16755D01*
X18707Y16759D01*
X18707Y16760D01*
X18708Y16760D01*
X18716Y16769D01*
X18723Y16778D01*
X18728Y16788D01*
X18733Y16797D01*
X18736Y16805D01*
X18739Y16812D01*
X18740Y16814D01*
X18741Y16816D01*
X18741Y16817D01*
Y16818D01*
X18745Y16832D01*
X18748Y16848D01*
X18750Y16865D01*
X18751Y16881D01*
X18752Y16895D01*
Y16901D01*
X18752Y16907D01*
Y17054D01*
D02*
G37*
G36*
X23349Y16846D02*
X23345D01*
X23344D01*
X23318Y16846D01*
X23293Y16843D01*
X23271Y16840D01*
X23251Y16836D01*
X23232Y16831D01*
X23216Y16826D01*
X23201Y16820D01*
X23187Y16814D01*
X23176Y16808D01*
X23165Y16802D01*
X23157Y16797D01*
X23150Y16791D01*
X23145Y16788D01*
X23141Y16784D01*
X23139Y16782D01*
X23138Y16782D01*
X23127Y16769D01*
X23117Y16756D01*
X23109Y16743D01*
X23102Y16730D01*
X23096Y16717D01*
X23091Y16704D01*
X23087Y16692D01*
X23083Y16680D01*
X23081Y16669D01*
X23079Y16659D01*
X23078Y16650D01*
X23076Y16642D01*
Y16635D01*
X23076Y16631D01*
Y16615D01*
X23077Y16604D01*
X23081Y16582D01*
X23086Y16563D01*
X23089Y16554D01*
X23092Y16546D01*
X23095Y16538D01*
X23098Y16532D01*
X23101Y16527D01*
X23103Y16522D01*
X23105Y16518D01*
X23107Y16515D01*
X23108Y16513D01*
X23108Y16513D01*
X23121Y16495D01*
X23136Y16479D01*
X23151Y16466D01*
X23165Y16455D01*
X23178Y16447D01*
X23184Y16443D01*
X23189Y16441D01*
X23193Y16438D01*
X23196Y16437D01*
X23198Y16436D01*
X23198D01*
X23221Y16427D01*
X23244Y16420D01*
X23267Y16415D01*
X23289Y16412D01*
X23298Y16411D01*
X23307Y16410D01*
X23315Y16409D01*
X23322D01*
X23327Y16409D01*
X23332D01*
X23334D01*
X23335D01*
X23357Y16409D01*
X23379Y16411D01*
X23398Y16414D01*
X23417Y16418D01*
X23434Y16423D01*
X23449Y16428D01*
X23464Y16434D01*
X23476Y16440D01*
X23488Y16445D01*
X23498Y16451D01*
X23506Y16456D01*
X23513Y16461D01*
X23519Y16466D01*
X23522Y16468D01*
X23525Y16470D01*
X23526Y16471D01*
X23538Y16483D01*
X23548Y16495D01*
X23556Y16508D01*
X23564Y16522D01*
X23571Y16535D01*
X23576Y16548D01*
X23580Y16561D01*
X23584Y16573D01*
X23587Y16584D01*
X23589Y16595D01*
X23590Y16604D01*
X23591Y16613D01*
X23592Y16619D01*
X23592Y16624D01*
Y16628D01*
X23592Y16646D01*
X23590Y16662D01*
X23586Y16678D01*
X23582Y16692D01*
X23577Y16706D01*
X23571Y16719D01*
X23565Y16731D01*
X23559Y16741D01*
X23553Y16751D01*
X23547Y16760D01*
X23542Y16767D01*
X23537Y16773D01*
X23533Y16778D01*
X23529Y16782D01*
X23527Y16784D01*
X23526Y16784D01*
X23513Y16796D01*
X23499Y16805D01*
X23485Y16813D01*
X23470Y16820D01*
X23454Y16826D01*
X23440Y16831D01*
X23424Y16835D01*
X23410Y16839D01*
X23397Y16841D01*
X23384Y16843D01*
X23373Y16844D01*
X23363Y16846D01*
X23355D01*
X23349Y16846D01*
D02*
G37*
G36*
X26143Y17691D02*
X26139D01*
X26138D01*
X26112Y17690D01*
X26087Y17688D01*
X26065Y17685D01*
X26045Y17680D01*
X26026Y17676D01*
X26010Y17671D01*
X25994Y17664D01*
X25981Y17658D01*
X25970Y17653D01*
X25959Y17646D01*
X25951Y17642D01*
X25944Y17636D01*
X25939Y17633D01*
X25935Y17629D01*
X25933Y17627D01*
X25932Y17626D01*
X25921Y17614D01*
X25911Y17601D01*
X25903Y17587D01*
X25896Y17574D01*
X25890Y17562D01*
X25885Y17549D01*
X25881Y17536D01*
X25877Y17524D01*
X25875Y17513D01*
X25873Y17504D01*
X25872Y17495D01*
X25870Y17487D01*
Y17480D01*
X25870Y17476D01*
Y17460D01*
X25871Y17448D01*
X25875Y17427D01*
X25880Y17407D01*
X25883Y17399D01*
X25886Y17391D01*
X25889Y17383D01*
X25892Y17377D01*
X25895Y17371D01*
X25897Y17366D01*
X25899Y17362D01*
X25901Y17359D01*
X25902Y17358D01*
X25902Y17357D01*
X25915Y17339D01*
X25930Y17324D01*
X25945Y17311D01*
X25959Y17300D01*
X25972Y17291D01*
X25978Y17288D01*
X25983Y17285D01*
X25987Y17283D01*
X25990Y17282D01*
X25992Y17280D01*
X25992D01*
X26015Y17271D01*
X26038Y17264D01*
X26061Y17259D01*
X26083Y17257D01*
X26092Y17255D01*
X26101Y17255D01*
X26109Y17254D01*
X26116D01*
X26121Y17253D01*
X26126D01*
X26128D01*
X26129D01*
X26151Y17254D01*
X26173Y17256D01*
X26192Y17259D01*
X26211Y17263D01*
X26228Y17268D01*
X26243Y17273D01*
X26258Y17279D01*
X26270Y17284D01*
X26282Y17290D01*
X26292Y17296D01*
X26300Y17301D01*
X26307Y17306D01*
X26313Y17310D01*
X26316Y17313D01*
X26319Y17315D01*
X26320Y17316D01*
X26331Y17327D01*
X26342Y17340D01*
X26350Y17353D01*
X26358Y17366D01*
X26365Y17379D01*
X26370Y17393D01*
X26375Y17405D01*
X26378Y17418D01*
X26381Y17429D01*
X26383Y17440D01*
X26384Y17449D01*
X26385Y17457D01*
X26386Y17464D01*
X26386Y17469D01*
Y17473D01*
X26386Y17490D01*
X26384Y17506D01*
X26380Y17522D01*
X26376Y17537D01*
X26371Y17551D01*
X26365Y17563D01*
X26359Y17576D01*
X26353Y17586D01*
X26347Y17596D01*
X26341Y17604D01*
X26336Y17612D01*
X26331Y17618D01*
X26327Y17623D01*
X26323Y17626D01*
X26321Y17628D01*
X26320Y17629D01*
X26307Y17640D01*
X26293Y17649D01*
X26279Y17657D01*
X26264Y17664D01*
X26248Y17671D01*
X26234Y17676D01*
X26218Y17680D01*
X26204Y17683D01*
X26191Y17686D01*
X26178Y17687D01*
X26167Y17689D01*
X26157Y17690D01*
X26149D01*
X26143Y17691D01*
D02*
G37*
G36*
X38523Y18415D02*
X38330D01*
Y18275D01*
X38330Y18264D01*
Y18253D01*
X38331Y18243D01*
X38332Y18234D01*
X38332Y18227D01*
X38333Y18219D01*
X38334Y18213D01*
X38335Y18208D01*
X38336Y18203D01*
X38336Y18199D01*
X38337Y18196D01*
X38338Y18194D01*
Y18192D01*
X38339Y18191D01*
X38343Y18180D01*
X38348Y18172D01*
X38353Y18164D01*
X38359Y18158D01*
X38364Y18153D01*
X38368Y18150D01*
X38370Y18148D01*
X38372Y18147D01*
X38381Y18142D01*
X38391Y18138D01*
X38400Y18135D01*
X38409Y18133D01*
X38417Y18132D01*
X38422Y18131D01*
X38427D01*
X38427D01*
X38428D01*
X38440Y18132D01*
X38451Y18134D01*
X38461Y18137D01*
X38469Y18139D01*
X38475Y18142D01*
X38480Y18145D01*
X38483Y18147D01*
X38484Y18148D01*
X38492Y18155D01*
X38499Y18162D01*
X38504Y18171D01*
X38508Y18178D01*
X38512Y18185D01*
X38514Y18191D01*
X38515Y18195D01*
X38516Y18196D01*
Y18196D01*
X38517Y18201D01*
X38518Y18207D01*
X38520Y18219D01*
X38522Y18233D01*
X38522Y18246D01*
Y18258D01*
X38523Y18264D01*
Y18415D01*
D02*
G37*
G36*
X38818D02*
X38599D01*
Y18268D01*
X38599Y18246D01*
X38600Y18227D01*
X38601Y18219D01*
X38602Y18212D01*
X38603Y18205D01*
X38604Y18198D01*
X38605Y18192D01*
X38606Y18187D01*
X38607Y18184D01*
X38608Y18180D01*
X38608Y18178D01*
X38609Y18175D01*
X38610Y18175D01*
Y18174D01*
X38615Y18162D01*
X38620Y18153D01*
X38626Y18144D01*
X38632Y18136D01*
X38637Y18130D01*
X38642Y18126D01*
X38645Y18123D01*
X38646Y18123D01*
X38657Y18117D01*
X38667Y18112D01*
X38678Y18109D01*
X38687Y18106D01*
X38696Y18105D01*
X38703Y18104D01*
X38705D01*
X38707D01*
X38708D01*
X38709D01*
X38720Y18105D01*
X38730Y18106D01*
X38739Y18108D01*
X38747Y18110D01*
X38754Y18113D01*
X38759Y18115D01*
X38762Y18117D01*
X38763Y18117D01*
X38771Y18122D01*
X38778Y18128D01*
X38784Y18133D01*
X38789Y18138D01*
X38793Y18143D01*
X38796Y18146D01*
X38798Y18149D01*
X38798Y18150D01*
X38802Y18157D01*
X38806Y18166D01*
X38809Y18173D01*
X38811Y18181D01*
X38814Y18188D01*
X38815Y18194D01*
X38816Y18197D01*
Y18198D01*
X38816Y18205D01*
X38817Y18214D01*
X38818Y18224D01*
Y18233D01*
X38818Y18242D01*
Y18415D01*
D02*
G37*
G36*
X33992D02*
X33504D01*
Y18268D01*
X33504Y18255D01*
X33505Y18243D01*
X33506Y18232D01*
X33506Y18223D01*
X33508Y18214D01*
X33509Y18205D01*
X33510Y18198D01*
X33511Y18192D01*
X33513Y18187D01*
X33514Y18182D01*
X33515Y18178D01*
X33515Y18175D01*
X33516Y18173D01*
X33517Y18173D01*
Y18172D01*
X33521Y18163D01*
X33525Y18155D01*
X33536Y18139D01*
X33548Y18126D01*
X33560Y18114D01*
X33572Y18105D01*
X33576Y18101D01*
X33581Y18098D01*
X33585Y18095D01*
X33587Y18093D01*
X33589Y18092D01*
X33590Y18092D01*
X33600Y18086D01*
X33612Y18080D01*
X33636Y18072D01*
X33662Y18067D01*
X33687Y18062D01*
X33698Y18061D01*
X33709Y18060D01*
X33719Y18059D01*
X33727D01*
X33734Y18058D01*
X33739D01*
X33742D01*
X33743D01*
X33770Y18059D01*
X33793Y18061D01*
X33805Y18062D01*
X33814Y18064D01*
X33824Y18065D01*
X33832Y18067D01*
X33840Y18069D01*
X33847Y18070D01*
X33853Y18071D01*
X33858Y18073D01*
X33862Y18074D01*
X33865Y18075D01*
X33866Y18076D01*
X33867D01*
X33885Y18083D01*
X33901Y18090D01*
X33915Y18098D01*
X33927Y18105D01*
X33936Y18112D01*
X33942Y18117D01*
X33947Y18121D01*
X33947Y18121D01*
X33948Y18122D01*
X33956Y18130D01*
X33963Y18140D01*
X33968Y18150D01*
X33973Y18159D01*
X33976Y18167D01*
X33979Y18173D01*
X33980Y18176D01*
X33981Y18178D01*
X33981Y18179D01*
Y18180D01*
X33985Y18194D01*
X33988Y18210D01*
X33990Y18227D01*
X33991Y18243D01*
X33992Y18257D01*
Y18263D01*
X33992Y18268D01*
Y18415D01*
D02*
G37*
G36*
X31170D02*
X30959D01*
Y18200D01*
X30960Y18188D01*
X30961Y18177D01*
X30964Y18166D01*
X30966Y18157D01*
X30968Y18149D01*
X30970Y18142D01*
X30973Y18135D01*
X30976Y18128D01*
X30979Y18123D01*
X30982Y18119D01*
X30984Y18115D01*
X30986Y18112D01*
X30987Y18110D01*
X30988Y18110D01*
X30989Y18109D01*
X30994Y18103D01*
X31000Y18098D01*
X31012Y18090D01*
X31025Y18084D01*
X31036Y18080D01*
X31047Y18077D01*
X31052Y18076D01*
X31055D01*
X31059Y18076D01*
X31061D01*
X31062D01*
X31063D01*
X31074Y18076D01*
X31085Y18078D01*
X31095Y18081D01*
X31103Y18084D01*
X31111Y18087D01*
X31115Y18090D01*
X31119Y18092D01*
X31120Y18093D01*
X31129Y18100D01*
X31138Y18108D01*
X31144Y18117D01*
X31149Y18124D01*
X31154Y18132D01*
X31156Y18137D01*
X31158Y18142D01*
X31158Y18142D01*
Y18143D01*
X31163Y18156D01*
X31165Y18171D01*
X31167Y18186D01*
X31169Y18200D01*
X31170Y18214D01*
Y18219D01*
X31170Y18224D01*
Y18415D01*
D02*
G37*
G36*
X36532Y17791D02*
X36044D01*
Y17644D01*
X36044Y17631D01*
X36045Y17619D01*
X36046Y17608D01*
X36046Y17599D01*
X36048Y17590D01*
X36049Y17581D01*
X36050Y17574D01*
X36051Y17568D01*
X36053Y17562D01*
X36054Y17558D01*
X36055Y17554D01*
X36055Y17551D01*
X36056Y17549D01*
X36057Y17549D01*
Y17548D01*
X36061Y17539D01*
X36065Y17531D01*
X36076Y17515D01*
X36088Y17501D01*
X36100Y17490D01*
X36112Y17481D01*
X36116Y17477D01*
X36121Y17474D01*
X36125Y17471D01*
X36127Y17469D01*
X36129Y17468D01*
X36130Y17468D01*
X36140Y17462D01*
X36152Y17456D01*
X36176Y17448D01*
X36202Y17443D01*
X36227Y17438D01*
X36238Y17437D01*
X36249Y17436D01*
X36259Y17435D01*
X36267D01*
X36274Y17434D01*
X36279D01*
X36282D01*
X36283D01*
X36310Y17435D01*
X36333Y17437D01*
X36345Y17438D01*
X36354Y17440D01*
X36364Y17441D01*
X36372Y17443D01*
X36380Y17445D01*
X36387Y17446D01*
X36393Y17447D01*
X36398Y17449D01*
X36402Y17450D01*
X36405Y17451D01*
X36406Y17452D01*
X36407D01*
X36425Y17458D01*
X36441Y17466D01*
X36455Y17474D01*
X36467Y17481D01*
X36476Y17488D01*
X36482Y17493D01*
X36487Y17497D01*
X36487Y17497D01*
X36488Y17498D01*
X36496Y17506D01*
X36503Y17516D01*
X36508Y17526D01*
X36513Y17535D01*
X36516Y17543D01*
X36519Y17549D01*
X36520Y17552D01*
X36521Y17554D01*
X36521Y17555D01*
Y17556D01*
X36525Y17570D01*
X36528Y17586D01*
X36530Y17603D01*
X36531Y17619D01*
X36532Y17633D01*
Y17639D01*
X36532Y17644D01*
Y17791D01*
D02*
G37*
%LPD*%
D11*
X15105Y35860D02*
G03*
X12565Y38400I-2540J0D01*
G01*
D02*
G03*
X10025Y35860I0J-2540D01*
G01*
Y13127D02*
G03*
X12565Y10587I2540J0D01*
G01*
X39235D02*
G03*
X41775Y13127I0J2540D01*
G01*
X39235Y38400D02*
G03*
X36695Y35860I0J-2540D01*
G01*
X41775D02*
G03*
X39235Y38400I-2540J0D01*
G01*
X34495Y11725D02*
X37575D01*
X39925D02*
Y14225D01*
X39445Y11725D02*
X39925D01*
X36845Y14225D02*
X39925D01*
X15105Y33320D02*
Y35860D01*
Y33320D02*
X36695D01*
X10025Y13127D02*
Y35860D01*
X12565Y10587D02*
X39235D01*
X36695Y33320D02*
Y35860D01*
X41775Y13127D02*
Y35860D01*
X36845Y14225D02*
X37325D01*
X24165Y11725D02*
X27665D01*
X19085D02*
X22585D01*
X11925Y14225D02*
X15005D01*
X11925Y11725D02*
X12405D01*
X14005D02*
X17505D01*
X16505Y14225D02*
X20005D01*
X11925Y11725D02*
Y14225D01*
X29245Y11725D02*
X32745D01*
X21585Y14225D02*
X25085D01*
X26665D02*
X30165D01*
X31745D02*
X35245D01*
D13*
X2900Y25500D02*
X9100D01*
X2900D02*
Y31500D01*
X9100D01*
Y25500D02*
Y31500D01*
X48850Y25500D02*
Y31500D01*
X42650D02*
X48850D01*
X42650Y25500D02*
Y31500D01*
Y25500D02*
X48850D01*
D14*
X12950Y40833D02*
X12833Y40950D01*
X12600D01*
X12483Y40833D01*
Y40366D01*
X12600Y40250D01*
X12833D01*
X12950Y40366D01*
Y40833D01*
X12250Y40250D02*
X12017D01*
X12134D01*
Y40950D01*
X12250Y40833D01*
X11667Y40250D02*
X11434D01*
X11550D01*
Y40950D01*
X11667Y40833D01*
X11084D02*
X10967Y40950D01*
X10734D01*
X10617Y40833D01*
Y40366D01*
X10734Y40250D01*
X10967D01*
X11084Y40366D01*
Y40833D01*
X10384D02*
X10268Y40950D01*
X10034D01*
X9918Y40833D01*
Y40366D01*
X10034Y40250D01*
X10268D01*
X10384Y40366D01*
Y40833D01*
X9684D02*
X9568Y40950D01*
X9335D01*
X9218Y40833D01*
Y40366D01*
X9335Y40250D01*
X9568D01*
X9684Y40366D01*
Y40833D01*
X8985Y40250D02*
X8751D01*
X8868D01*
Y40950D01*
X8985Y40833D01*
X8401D02*
X8285Y40950D01*
X8052D01*
X7935Y40833D01*
Y40366D01*
X8052Y40250D01*
X8285D01*
X8401Y40366D01*
Y40833D01*
X7702D02*
X7585Y40950D01*
X7352D01*
X7235Y40833D01*
Y40366D01*
X7352Y40250D01*
X7585D01*
X7702Y40366D01*
Y40833D01*
X7002Y40250D02*
X6769D01*
X6885D01*
Y40950D01*
X7002Y40833D01*
X6419Y40250D02*
X6186D01*
X6302D01*
Y40950D01*
X6419Y40833D01*
X5836D02*
X5719Y40950D01*
X5486D01*
X5369Y40833D01*
Y40366D01*
X5486Y40250D01*
X5719D01*
X5836Y40366D01*
Y40833D01*
X12950Y39050D02*
X12717D01*
X12833D01*
Y39750D01*
X12950Y39633D01*
X12367D02*
X12250Y39750D01*
X12017D01*
X11900Y39633D01*
Y39167D01*
X12017Y39050D01*
X12250D01*
X12367Y39167D01*
Y39633D01*
X11667D02*
X11550Y39750D01*
X11317D01*
X11201Y39633D01*
Y39167D01*
X11317Y39050D01*
X11550D01*
X11667Y39167D01*
Y39633D01*
X10967Y39050D02*
X10734D01*
X10851D01*
Y39750D01*
X10967Y39633D01*
X10384D02*
X10268Y39750D01*
X10034D01*
X9918Y39633D01*
Y39167D01*
X10034Y39050D01*
X10268D01*
X10384Y39167D01*
Y39633D01*
X9684Y39050D02*
X9451D01*
X9568D01*
Y39750D01*
X9684Y39633D01*
X9101Y39050D02*
X8868D01*
X8985D01*
Y39750D01*
X9101Y39633D01*
X8518Y39050D02*
X8285D01*
X8401D01*
Y39750D01*
X8518Y39633D01*
X7935D02*
X7818Y39750D01*
X7585D01*
X7468Y39633D01*
Y39167D01*
X7585Y39050D01*
X7818D01*
X7935Y39167D01*
Y39633D01*
X7235Y39050D02*
X7002D01*
X7119D01*
Y39750D01*
X7235Y39633D01*
X6652D02*
X6535Y39750D01*
X6302D01*
X6186Y39633D01*
Y39167D01*
X6302Y39050D01*
X6535D01*
X6652Y39167D01*
Y39633D01*
X5952D02*
X5836Y39750D01*
X5602D01*
X5486Y39633D01*
Y39167D01*
X5602Y39050D01*
X5836D01*
X5952Y39167D01*
Y39633D01*
X50750Y40500D02*
Y40233D01*
Y40367D01*
X49950D01*
Y40500D01*
Y39834D02*
X50750D01*
X50350D01*
X50217Y39700D01*
Y39434D01*
X50350Y39300D01*
X50750D01*
X50217Y38501D02*
Y38901D01*
X50350Y39034D01*
X50617D01*
X50750Y38901D01*
Y38501D01*
Y38234D02*
X50617D01*
Y38101D01*
X50750D01*
Y38234D01*
Y37568D02*
X50217D01*
Y37168D01*
X50350Y37034D01*
X50750D01*
Y36368D02*
Y36635D01*
X50617Y36768D01*
X50350D01*
X50217Y36635D01*
Y36368D01*
X50350Y36235D01*
X50483D01*
Y36768D01*
X50084Y35835D02*
X50217D01*
Y35968D01*
Y35702D01*
Y35835D01*
X50617D01*
X50750Y35702D01*
Y35302D02*
X50617D01*
Y35168D01*
X50750D01*
Y35302D01*
X49950Y34635D02*
X50750D01*
Y34235D01*
X50617Y34102D01*
X50483D01*
X50350D01*
X50217Y34235D01*
Y34635D01*
Y33835D02*
X50750D01*
X50483D01*
X50350Y33702D01*
X50217Y33569D01*
Y33436D01*
X45917Y28633D02*
X46033Y28750D01*
X46267D01*
X46383Y28633D01*
Y28517D01*
X46267Y28400D01*
X46033D01*
X45917Y28283D01*
Y28167D01*
X46033Y28050D01*
X46267D01*
X46383Y28167D01*
X45217Y28050D02*
X45683D01*
X45217Y28517D01*
Y28633D01*
X45333Y28750D01*
X45567D01*
X45683Y28633D01*
X5900D02*
X6017Y28750D01*
X6250D01*
X6367Y28633D01*
Y28517D01*
X6250Y28400D01*
X6017D01*
X5900Y28283D01*
Y28167D01*
X6017Y28050D01*
X6250D01*
X6367Y28167D01*
X5667Y28050D02*
X5433D01*
X5550D01*
Y28750D01*
X5667Y28633D01*
X24466Y15450D02*
Y14750D01*
X24000D01*
X23300Y15333D02*
X23417Y15450D01*
X23650D01*
X23767Y15333D01*
Y14867D01*
X23650Y14750D01*
X23417D01*
X23300Y14867D01*
X23067Y15450D02*
Y14750D01*
X22717D01*
X22600Y14867D01*
Y15333D01*
X22717Y15450D01*
X23067D01*
X22367Y14750D02*
X22134D01*
X22250D01*
Y15450D01*
X22367Y15333D01*
D68*
X11272Y13500D02*
G03*
X11272Y13500I-122J0D01*
G01*
M02*
