G04*
G04 #@! TF.GenerationSoftware,Altium Limited,Altium Designer,24.2.2 (26)*
G04*
G04 Layer_Physical_Order=1*
G04 Layer_Color=255*
%FSLAX43Y43*%
%MOMM*%
G71*
G04*
G04 #@! TF.SameCoordinates,B7D4920F-8FB9-4588-9614-11F99F71DF79*
G04*
G04*
G04 #@! TF.FilePolarity,Positive*
G04*
G01*
G75*
%ADD11C,0.200*%
%ADD13C,0.254*%
%ADD19R,1.000X5.000*%
%ADD20R,0.900X0.900*%
%ADD21R,1.500X0.900*%
%ADD22R,0.900X1.500*%
%ADD23R,0.370X1.170*%
%ADD24R,0.900X0.900*%
%ADD25R,1.170X0.370*%
%ADD26R,1.500X2.000*%
%ADD27R,3.800X2.000*%
%ADD28R,1.000X0.850*%
%ADD29R,0.700X0.600*%
%ADD30R,0.600X0.700*%
G04:AMPARAMS|DCode=31|XSize=0.6mm|YSize=0.7mm|CornerRadius=0.15mm|HoleSize=0mm|Usage=FLASHONLY|Rotation=90.000|XOffset=0mm|YOffset=0mm|HoleType=Round|Shape=RoundedRectangle|*
%AMROUNDEDRECTD31*
21,1,0.600,0.400,0,0,90.0*
21,1,0.300,0.700,0,0,90.0*
1,1,0.300,0.200,0.150*
1,1,0.300,0.200,-0.150*
1,1,0.300,-0.200,-0.150*
1,1,0.300,-0.200,0.150*
%
%ADD31ROUNDEDRECTD31*%
%ADD32R,1.321X1.524*%
%ADD33R,0.600X1.140*%
%ADD34R,0.300X1.140*%
%ADD35R,1.600X1.600*%
G04:AMPARAMS|DCode=36|XSize=1.17mm|YSize=0.37mm|CornerRadius=0.185mm|HoleSize=0mm|Usage=FLASHONLY|Rotation=90.000|XOffset=0mm|YOffset=0mm|HoleType=Round|Shape=RoundedRectangle|*
%AMROUNDEDRECTD36*
21,1,1.170,0.000,0,0,90.0*
21,1,0.800,0.370,0,0,90.0*
1,1,0.370,0.000,0.400*
1,1,0.370,0.000,-0.400*
1,1,0.370,0.000,-0.400*
1,1,0.370,0.000,0.400*
%
%ADD36ROUNDEDRECTD36*%
%ADD37R,1.200X1.200*%
%ADD66R,1.524X4.064*%
%ADD67R,1.016X2.032*%
%ADD68C,0.300*%
%ADD69C,0.500*%
%ADD70C,0.700*%
%ADD71C,0.305*%
%ADD72C,0.250*%
%ADD73C,0.225*%
%ADD74C,1.676*%
%ADD75C,6.000*%
%ADD76C,1.300*%
%ADD77C,0.650*%
%ADD78O,0.900X1.800*%
%ADD79O,1.050X2.100*%
%ADD80R,1.300X1.300*%
%ADD81C,0.500*%
%ADD82C,0.600*%
G36*
X49056Y44093D02*
X49415Y43996D01*
X49760Y43854D01*
X50082Y43668D01*
X50378Y43441D01*
X50641Y43177D01*
X50868Y42882D01*
X51054Y42559D01*
X51196Y42215D01*
X51293Y41855D01*
X51342Y41486D01*
Y41300D01*
X51342Y41300D01*
X51341Y41299D01*
X51342Y9400D01*
X49741D01*
X49712Y9429D01*
X49298Y9730D01*
X48843Y9962D01*
X48356Y10120D01*
X47851Y10200D01*
X47339D01*
X46834Y10120D01*
X46347Y9962D01*
X45892Y9730D01*
X45478Y9429D01*
X45449Y9400D01*
X39531D01*
X39502Y9429D01*
X39088Y9730D01*
X38633Y9962D01*
X38146Y10120D01*
X37641Y10200D01*
X37129D01*
X36624Y10120D01*
X36137Y9962D01*
X35682Y9730D01*
X35268Y9429D01*
X35239Y9400D01*
X28151D01*
X28122Y9429D01*
X27708Y9730D01*
X27253Y9962D01*
X26766Y10120D01*
X26261Y10200D01*
X25749D01*
X25244Y10120D01*
X24757Y9962D01*
X24302Y9730D01*
X23888Y9429D01*
X23859Y9400D01*
X21857D01*
Y11050D01*
X21924Y11117D01*
X22000Y11301D01*
Y11499D01*
X22029Y11543D01*
X29885D01*
X30022Y11570D01*
X30137Y11648D01*
X30508Y12019D01*
X30565Y11986D01*
X30842Y11912D01*
X31128D01*
X31405Y11986D01*
X31653Y12129D01*
X31856Y12332D01*
X31999Y12580D01*
X32073Y12857D01*
Y13143D01*
X31999Y13420D01*
X31856Y13668D01*
X31653Y13871D01*
X31405Y14014D01*
X31128Y14088D01*
X30842D01*
X30565Y14014D01*
X30317Y13871D01*
X30114Y13668D01*
X29971Y13420D01*
X29897Y13143D01*
Y12857D01*
X29971Y12580D01*
X30004Y12523D01*
X29737Y12257D01*
X29411D01*
X29346Y12384D01*
X29459Y12580D01*
X29533Y12857D01*
Y13143D01*
X29459Y13420D01*
X29316Y13668D01*
X29113Y13871D01*
X28865Y14014D01*
X28588Y14088D01*
X28302D01*
X28025Y14014D01*
X27827Y13900D01*
X27703Y13962D01*
X27700Y13966D01*
Y13999D01*
X27624Y14183D01*
X27483Y14324D01*
X27299Y14400D01*
X27101D01*
X26917Y14324D01*
X26776Y14183D01*
X26700Y13999D01*
Y13924D01*
X26573Y13871D01*
X26325Y14014D01*
X26048Y14088D01*
X25762D01*
X25485Y14014D01*
X25237Y13871D01*
X25034Y13668D01*
X24891Y13420D01*
X24817Y13143D01*
Y12857D01*
X24891Y12580D01*
X25004Y12384D01*
X24939Y12257D01*
X24331D01*
X24266Y12384D01*
X24379Y12580D01*
X24453Y12857D01*
Y13143D01*
X24379Y13420D01*
X24236Y13668D01*
X24033Y13871D01*
X23785Y14014D01*
X23508Y14088D01*
X23222D01*
X22945Y14014D01*
X22697Y13871D01*
X22494Y13668D01*
X22351Y13420D01*
X22277Y13143D01*
Y12857D01*
X22351Y12580D01*
X22464Y12384D01*
X22399Y12257D01*
X21791D01*
X21726Y12384D01*
X21839Y12580D01*
X21913Y12857D01*
Y13143D01*
X21839Y13420D01*
X21696Y13668D01*
X21493Y13871D01*
X21245Y14014D01*
X20968Y14088D01*
X20962D01*
Y14138D01*
X20934Y14275D01*
X20857Y14391D01*
X18947Y16301D01*
Y18150D01*
X20560D01*
Y19600D01*
X20625Y19700D01*
X20687Y19700D01*
X22625D01*
Y21143D01*
X23950D01*
X24017Y21076D01*
X24201Y21000D01*
X24399D01*
X24583Y21076D01*
X24673Y21166D01*
X24800Y21113D01*
Y20744D01*
X24441Y20384D01*
X24423D01*
X24383Y20424D01*
X24199Y20500D01*
X24001D01*
X23817Y20424D01*
X23676Y20283D01*
X23600Y20099D01*
Y19901D01*
X23676Y19717D01*
X23817Y19576D01*
X24001Y19500D01*
X24199D01*
X24383Y19576D01*
X24423Y19616D01*
X24600D01*
X24600Y19616D01*
X24673Y19630D01*
X24783Y19561D01*
X24800Y19539D01*
Y18450D01*
X25192D01*
Y17800D01*
X25050D01*
Y17800D01*
X24923Y17720D01*
X24849Y17750D01*
X24651D01*
X24467Y17674D01*
X24326Y17533D01*
X24250Y17349D01*
Y17151D01*
X24326Y16967D01*
X24467Y16826D01*
X24651Y16750D01*
X24849D01*
X24923Y16780D01*
X25050Y16725D01*
Y16600D01*
X26475D01*
Y17200D01*
Y17800D01*
X26008D01*
Y18450D01*
X26300D01*
Y19800D01*
X25109D01*
X25061Y19917D01*
X25344Y20200D01*
X26300D01*
Y21550D01*
X24800D01*
Y21599D01*
X24724Y21783D01*
X24583Y21924D01*
X24399Y22000D01*
X24201D01*
X24017Y21924D01*
X23950Y21857D01*
X23327D01*
X23294Y21946D01*
X23291Y21984D01*
X23424Y22117D01*
X23500Y22301D01*
Y22499D01*
X23500Y22500D01*
X23683Y22576D01*
X23824Y22717D01*
X23900Y22901D01*
Y23099D01*
X23824Y23283D01*
X23683Y23424D01*
X23499Y23500D01*
X23301D01*
X23117Y23424D01*
X23050Y23357D01*
X22625D01*
Y24780D01*
Y25143D01*
X22796D01*
X22901Y25100D01*
X23099D01*
X23283Y25176D01*
X23424Y25317D01*
X23500Y25501D01*
Y25699D01*
X23424Y25883D01*
X23283Y26024D01*
X23099Y26100D01*
X22901D01*
X22752Y26038D01*
X22739Y26040D01*
X22656Y26082D01*
X22625Y26112D01*
Y27320D01*
Y27743D01*
X23250D01*
X23317Y27676D01*
X23501Y27600D01*
X23699D01*
X23883Y27676D01*
X24024Y27817D01*
X24100Y28001D01*
Y28199D01*
X24050Y28321D01*
X24183Y28376D01*
X24324Y28517D01*
X24400Y28701D01*
Y28899D01*
X24324Y29083D01*
X24207Y29200D01*
X24324Y29317D01*
X24400Y29501D01*
Y29699D01*
X24324Y29883D01*
X24183Y30024D01*
X23999Y30100D01*
X23996D01*
X23981Y30123D01*
X24048Y30250D01*
X25700D01*
Y31451D01*
X25710Y31500D01*
Y32900D01*
X25900D01*
Y33090D01*
X26800D01*
X26995Y33129D01*
X27160Y33239D01*
X27360Y33440D01*
X27388Y33481D01*
X27424Y33517D01*
X27443Y33563D01*
X27471Y33605D01*
X27481Y33654D01*
X27500Y33701D01*
Y33751D01*
X27510Y33800D01*
X27500Y33849D01*
Y33899D01*
X27481Y33946D01*
X27471Y33995D01*
X27443Y34037D01*
X27424Y34083D01*
X27388Y34119D01*
X27360Y34160D01*
X27319Y34188D01*
X27283Y34224D01*
X27258Y34360D01*
X27278Y34392D01*
X28574D01*
X28574Y34392D01*
X28730Y34423D01*
X28863Y34512D01*
X29353Y35001D01*
X29470Y34923D01*
X29626Y34892D01*
X30174D01*
X30174Y34892D01*
X30330Y34923D01*
X30463Y35012D01*
X30638Y35187D01*
X30638Y35187D01*
X30727Y35320D01*
X30758Y35476D01*
X30758Y35476D01*
Y36030D01*
X31543D01*
X31592Y35913D01*
X30940Y35260D01*
X30912Y35219D01*
X30876Y35183D01*
X30857Y35137D01*
X30829Y35095D01*
X30819Y35046D01*
X30800Y34999D01*
Y34949D01*
X30790Y34900D01*
X30800Y34851D01*
Y34801D01*
X30819Y34754D01*
X30829Y34705D01*
X30857Y34663D01*
X30876Y34617D01*
X30912Y34581D01*
X30940Y34540D01*
X30981Y34512D01*
X31017Y34476D01*
X31063Y34457D01*
X31105Y34429D01*
X31154Y34419D01*
X31201Y34400D01*
X31251D01*
X31300Y34390D01*
X31349Y34400D01*
X31399D01*
X31446Y34419D01*
X31495Y34429D01*
X31537Y34457D01*
X31583Y34476D01*
X31619Y34512D01*
X31660Y34540D01*
X32810Y35690D01*
X32921Y35855D01*
X32956Y36030D01*
X33175D01*
Y36850D01*
X33425D01*
Y36030D01*
X33850D01*
Y36195D01*
X33977Y36258D01*
X34029Y36218D01*
X34218Y36140D01*
X34420Y36113D01*
X34622Y36140D01*
X34811Y36218D01*
X34973Y36342D01*
X35097Y36504D01*
X35175Y36693D01*
X35202Y36895D01*
Y37945D01*
X35175Y38147D01*
X35097Y38336D01*
X34973Y38498D01*
X34811Y38622D01*
X34622Y38700D01*
X34420Y38727D01*
X34218Y38700D01*
X34029Y38622D01*
X33867Y38498D01*
X33743Y38336D01*
X33665Y38147D01*
X33664Y38140D01*
X33535Y38136D01*
X33534Y38145D01*
X33406Y38336D01*
X33215Y38464D01*
X32990Y38508D01*
X32765Y38464D01*
X32574Y38336D01*
X32446Y38145D01*
X32402Y37920D01*
X32426Y37797D01*
X32322Y37670D01*
X31234D01*
Y37850D01*
X31205Y37997D01*
X31122Y38122D01*
X31122Y38122D01*
X30872Y38372D01*
X30747Y38455D01*
X30600Y38484D01*
X30600Y38484D01*
X30100D01*
X30100Y38484D01*
X29953Y38455D01*
X29828Y38372D01*
X29719Y38425D01*
X28972Y39172D01*
X28847Y39255D01*
X28700Y39284D01*
X28700Y39284D01*
X24900D01*
X24900Y39284D01*
X24753Y39255D01*
X24628Y39172D01*
X23928Y38472D01*
X23845Y38347D01*
X23816Y38200D01*
X23816Y38200D01*
Y37013D01*
X23776Y36973D01*
X23700Y36790D01*
Y36591D01*
X23776Y36407D01*
X23818Y36365D01*
X23776Y36323D01*
X23700Y36140D01*
Y35941D01*
X23776Y35757D01*
X23917Y35616D01*
X24101Y35540D01*
X24123D01*
X25152Y34512D01*
X25152Y34512D01*
X25279Y34427D01*
X25280Y34417D01*
X25240Y34300D01*
X24500D01*
Y32900D01*
X24690D01*
Y32750D01*
X23700D01*
Y30471D01*
X23583Y30422D01*
X23152Y30852D01*
X23037Y30930D01*
X22900Y30957D01*
X22625D01*
Y32400D01*
Y33670D01*
Y35050D01*
X22752Y35075D01*
X22776Y35017D01*
X22917Y34876D01*
X23101Y34800D01*
X23299D01*
X23483Y34876D01*
X23624Y35017D01*
X23700Y35201D01*
Y35399D01*
X23624Y35583D01*
X23483Y35724D01*
X23299Y35800D01*
X23205D01*
X23112Y35892D01*
X22997Y35970D01*
X22860Y35997D01*
X22625D01*
Y36785D01*
X20625D01*
Y36210D01*
Y34857D01*
X20450D01*
X20383Y34924D01*
X20199Y35000D01*
X20001D01*
X19817Y34924D01*
X19676Y34783D01*
X19600Y34599D01*
Y34401D01*
X19676Y34217D01*
X19817Y34076D01*
X20001Y34000D01*
X20199D01*
X20383Y34076D01*
X20450Y34143D01*
X20625D01*
Y33670D01*
Y32400D01*
Y31130D01*
Y29860D01*
Y28590D01*
Y27107D01*
X20534D01*
X20397Y27080D01*
X20363Y27057D01*
X20043D01*
X20043Y27057D01*
X19450D01*
X19313Y27030D01*
X19198Y26952D01*
X18995Y26750D01*
X18901D01*
X18717Y26674D01*
X18576Y26533D01*
X18500Y26349D01*
Y26151D01*
X18576Y25967D01*
X18717Y25826D01*
X18901Y25750D01*
X19099D01*
X19283Y25826D01*
X19349Y25892D01*
X19475Y25917D01*
X19508Y25885D01*
X19617Y25776D01*
X19801Y25700D01*
X19999D01*
X20183Y25776D01*
X20324Y25917D01*
X20400Y26101D01*
Y26284D01*
X20513Y26334D01*
X20625Y26242D01*
Y24607D01*
X20500D01*
X20363Y24580D01*
X20248Y24502D01*
X19995Y24250D01*
X19901D01*
X19717Y24174D01*
X19576Y24033D01*
X19500Y23849D01*
Y23651D01*
X19576Y23467D01*
X19717Y23326D01*
X19901Y23250D01*
X20099D01*
X20283Y23326D01*
X20424Y23467D01*
X20500Y23651D01*
X20625Y23646D01*
Y22240D01*
Y20970D01*
Y20250D01*
X20560Y20150D01*
X20498Y20150D01*
X17957D01*
Y20350D01*
X18024Y20417D01*
X18100Y20601D01*
Y20799D01*
X18024Y20983D01*
X17883Y21124D01*
X17699Y21200D01*
X17501D01*
X17317Y21124D01*
X17176Y20983D01*
X17100Y20799D01*
Y20601D01*
X17176Y20417D01*
X17243Y20350D01*
Y20150D01*
X16757D01*
Y20865D01*
X16783Y20876D01*
X16924Y21017D01*
X17000Y21201D01*
Y21399D01*
X16924Y21583D01*
X16783Y21724D01*
X16599Y21800D01*
X16401D01*
X16217Y21724D01*
X16076Y21583D01*
X16000Y21399D01*
Y21201D01*
X16043Y21096D01*
Y20150D01*
X15184D01*
Y21141D01*
X15344Y21300D01*
X15399D01*
X15583Y21376D01*
X15724Y21517D01*
X15800Y21701D01*
Y21899D01*
X15724Y22083D01*
X15583Y22224D01*
X15399Y22300D01*
X15201D01*
X15017Y22224D01*
X14876Y22083D01*
X14800Y21899D01*
Y21844D01*
X14528Y21572D01*
X14445Y21447D01*
X14416Y21300D01*
X14416Y21300D01*
Y20150D01*
X13857D01*
Y20550D01*
X13924Y20617D01*
X14000Y20801D01*
Y20999D01*
X13924Y21183D01*
X13783Y21324D01*
X13599Y21400D01*
X13401D01*
X13217Y21324D01*
X13076Y21183D01*
X13000Y20999D01*
Y20801D01*
X13076Y20617D01*
X13143Y20550D01*
Y20150D01*
X10057D01*
Y21650D01*
X10124Y21717D01*
X10200Y21901D01*
Y22099D01*
X10124Y22283D01*
X9983Y22424D01*
X9799Y22500D01*
X9601D01*
X9417Y22424D01*
X9276Y22283D01*
X9200Y22099D01*
Y21901D01*
X9276Y21717D01*
X9343Y21650D01*
Y20150D01*
X5288D01*
X5230Y20221D01*
X5213Y20277D01*
X5234Y20316D01*
X6900D01*
X6900Y20316D01*
X7047Y20345D01*
X7172Y20428D01*
X11173Y24429D01*
X11300Y24377D01*
Y24301D01*
X11376Y24117D01*
X11517Y23976D01*
X11701Y23900D01*
X11899D01*
X12083Y23976D01*
X12224Y24117D01*
X12300Y24301D01*
Y24499D01*
X12224Y24683D01*
X12083Y24824D01*
X11899Y24900D01*
X11823D01*
X11771Y25027D01*
X12009Y25266D01*
X14668D01*
X14668Y25266D01*
X14815Y25295D01*
X14940Y25378D01*
X16047Y26485D01*
X16130Y26610D01*
X16159Y26757D01*
X16159Y26757D01*
Y27077D01*
X16199Y27117D01*
X16275Y27301D01*
Y27499D01*
X16199Y27683D01*
X16058Y27824D01*
X15874Y27900D01*
X15676D01*
X15492Y27824D01*
X15450Y27782D01*
X15408Y27824D01*
X15224Y27900D01*
X15026D01*
X14842Y27824D01*
X14701Y27683D01*
X14625Y27499D01*
Y27301D01*
X14701Y27117D01*
X14694Y26970D01*
X14289Y26565D01*
X11380D01*
X11233Y26535D01*
X11109Y26452D01*
X11109Y26452D01*
X9920Y25264D01*
X9824Y25283D01*
X9683Y25424D01*
X9499Y25500D01*
X9301D01*
X9117Y25424D01*
X8976Y25283D01*
X8900Y25099D01*
Y25005D01*
X8452Y24557D01*
X5125D01*
Y25143D01*
X6800D01*
X6937Y25170D01*
X7052Y25248D01*
X7305Y25500D01*
X7399D01*
X7583Y25576D01*
X7724Y25717D01*
X7800Y25901D01*
Y26099D01*
X7724Y26283D01*
X7657Y26350D01*
X7724Y26417D01*
X7800Y26601D01*
Y26799D01*
X7724Y26983D01*
X7583Y27124D01*
X7399Y27200D01*
X7201D01*
X7096Y27157D01*
X5125D01*
Y27643D01*
X6950D01*
X7017Y27576D01*
X7201Y27500D01*
X7399D01*
X7583Y27576D01*
X7724Y27717D01*
X7800Y27901D01*
Y28099D01*
X7724Y28283D01*
X7583Y28424D01*
X7399Y28500D01*
X7201D01*
X7017Y28424D01*
X6950Y28357D01*
X5125D01*
Y28943D01*
X6865D01*
X6876Y28917D01*
X7017Y28776D01*
X7201Y28700D01*
X7399D01*
X7583Y28776D01*
X7724Y28917D01*
X7800Y29101D01*
Y29299D01*
X7724Y29483D01*
X7583Y29624D01*
X7399Y29700D01*
X7201D01*
X7096Y29657D01*
X5125D01*
Y30243D01*
X6950D01*
X7017Y30176D01*
X7201Y30100D01*
X7399D01*
X7583Y30176D01*
X7724Y30317D01*
X7800Y30501D01*
Y30699D01*
X7724Y30883D01*
X7583Y31024D01*
X7399Y31100D01*
X7201D01*
X7017Y31024D01*
X6950Y30957D01*
X5125D01*
Y31443D01*
X6896D01*
X7001Y31400D01*
X7199D01*
X7383Y31476D01*
X7524Y31617D01*
X7600Y31801D01*
Y31999D01*
X7524Y32183D01*
X7383Y32324D01*
X7199Y32400D01*
X7090D01*
X7065Y32527D01*
X7183Y32576D01*
X7324Y32717D01*
X7400Y32901D01*
Y33099D01*
X7324Y33283D01*
X7183Y33424D01*
X6999Y33500D01*
X6801D01*
X6617Y33424D01*
X6550Y33357D01*
X5125D01*
Y33670D01*
Y35130D01*
X5640D01*
X5835Y35169D01*
X6000Y35280D01*
X6610Y35890D01*
X6638Y35931D01*
X6674Y35967D01*
X6693Y36013D01*
X6721Y36055D01*
X6731Y36104D01*
X6750Y36151D01*
Y36201D01*
X6760Y36250D01*
X6750Y36299D01*
Y36349D01*
X6731Y36396D01*
X6721Y36445D01*
X6693Y36487D01*
X6674Y36533D01*
X6638Y36569D01*
X6610Y36610D01*
X6569Y36638D01*
X6533Y36674D01*
X6487Y36693D01*
X6445Y36721D01*
X6396Y36731D01*
X6349Y36750D01*
X6299D01*
X6250Y36760D01*
X6201Y36750D01*
X6151D01*
X6104Y36731D01*
X6055Y36721D01*
X6013Y36693D01*
X5967Y36674D01*
X5931Y36638D01*
X5890Y36610D01*
X5429Y36150D01*
X5125D01*
Y36785D01*
X3125D01*
Y36237D01*
X2652D01*
Y36243D01*
X1252D01*
Y34843D01*
X1275D01*
Y33800D01*
X2410D01*
X2470Y33680D01*
X2418Y33600D01*
X2100D01*
Y32900D01*
Y32200D01*
X2421D01*
Y28198D01*
X2327Y28104D01*
X2200Y28156D01*
Y29150D01*
X2010D01*
Y29500D01*
X2000Y29549D01*
Y29599D01*
X1981Y29646D01*
X1971Y29695D01*
X1943Y29737D01*
X1924Y29783D01*
X1888Y29819D01*
X1860Y29860D01*
X1819Y29888D01*
X1783Y29924D01*
X1737Y29943D01*
X1695Y29971D01*
X1646Y29981D01*
X1599Y30000D01*
X1549D01*
X1500Y30010D01*
X1451Y30000D01*
X1401D01*
X1354Y29981D01*
X1305Y29971D01*
X1263Y29943D01*
X1217Y29924D01*
X1181Y29888D01*
X1140Y29860D01*
X1112Y29819D01*
X1076Y29783D01*
X1057Y29737D01*
X1029Y29695D01*
X1019Y29646D01*
X1000Y29599D01*
Y29549D01*
X990Y29500D01*
Y28650D01*
X1000Y28602D01*
Y28050D01*
Y27050D01*
X1192D01*
Y26650D01*
X1000D01*
Y25550D01*
Y25225D01*
X1600D01*
X2200D01*
Y25550D01*
Y26650D01*
X2008D01*
Y27050D01*
X2200D01*
Y27192D01*
X2400D01*
X2400Y27192D01*
X2556Y27223D01*
X2688Y27312D01*
X2998Y27622D01*
X3125Y27569D01*
Y26050D01*
Y24780D01*
Y23510D01*
Y22240D01*
Y20970D01*
Y19700D01*
X5063D01*
X5125Y19700D01*
X5190Y19600D01*
Y18150D01*
X7723D01*
Y17750D01*
X7700D01*
Y16650D01*
Y15650D01*
X7748D01*
X7819Y15544D01*
X7800Y15499D01*
Y15301D01*
X7876Y15117D01*
X8017Y14976D01*
X8201Y14900D01*
X8399D01*
X8583Y14976D01*
X8724Y15117D01*
X8800Y15301D01*
Y15499D01*
X8795Y15512D01*
X8869Y15623D01*
X8931D01*
X9005Y15512D01*
X9000Y15499D01*
Y15301D01*
X9076Y15117D01*
X9217Y14976D01*
X9401Y14900D01*
X9599D01*
X9783Y14976D01*
X9924Y15117D01*
X10000Y15301D01*
Y15499D01*
X9989Y15527D01*
X10069Y15623D01*
X10131D01*
X10211Y15527D01*
X10200Y15499D01*
Y15301D01*
X10276Y15117D01*
X10417Y14976D01*
X10601Y14900D01*
X10799D01*
X10983Y14976D01*
X11124Y15117D01*
X11200Y15301D01*
Y15499D01*
X11181Y15544D01*
X11203Y15577D01*
X11300Y15650D01*
X11400D01*
Y15650D01*
X11875D01*
Y16200D01*
X12125D01*
Y15650D01*
X12548D01*
X12619Y15544D01*
X12600Y15499D01*
Y15301D01*
X12676Y15117D01*
X12817Y14976D01*
X13001Y14900D01*
X13199D01*
X13383Y14976D01*
X13524Y15117D01*
X13600Y15301D01*
Y15499D01*
X13581Y15544D01*
X13603Y15577D01*
X13700Y15650D01*
X13700D01*
X13700Y15650D01*
X14175D01*
Y16200D01*
X14425D01*
Y15650D01*
X14848D01*
X14919Y15544D01*
X14900Y15499D01*
Y15301D01*
X14976Y15117D01*
X15117Y14976D01*
X15301Y14900D01*
X15499D01*
X15683Y14976D01*
X15824Y15117D01*
X15900Y15301D01*
Y15499D01*
X15881Y15544D01*
X15952Y15650D01*
X16000D01*
Y16713D01*
X16074Y16753D01*
X16127Y16772D01*
X16301Y16700D01*
X16499D01*
X16683Y16776D01*
X16824Y16917D01*
X16900Y17101D01*
Y17227D01*
X16900Y17227D01*
X17026Y17302D01*
X17151Y17250D01*
X17349D01*
X17533Y17326D01*
X17674Y17467D01*
X17750Y17651D01*
Y17849D01*
X17678Y18023D01*
X17723Y18150D01*
X18233D01*
Y16153D01*
X18260Y16016D01*
X18338Y15901D01*
X18521Y15717D01*
X18471Y15588D01*
X18317Y15524D01*
X18176Y15383D01*
X18100Y15199D01*
Y15001D01*
X18176Y14817D01*
X18317Y14676D01*
X18501Y14600D01*
X18699D01*
X18883Y14676D01*
X19024Y14817D01*
X19088Y14971D01*
X19217Y15021D01*
X20203Y14036D01*
X20187Y13888D01*
X20157Y13871D01*
X19954Y13668D01*
X19811Y13420D01*
X19737Y13143D01*
Y12857D01*
X19811Y12580D01*
X19954Y12332D01*
X20052Y12234D01*
X20000Y12107D01*
X19850D01*
X19783Y12174D01*
X19599Y12250D01*
X19401D01*
X19217Y12174D01*
X19076Y12033D01*
X19000Y11849D01*
Y11651D01*
X19076Y11467D01*
X19217Y11326D01*
X19401Y11250D01*
X19599D01*
X19783Y11326D01*
X19850Y11393D01*
X21000D01*
Y11301D01*
X21076Y11117D01*
X21143Y11050D01*
Y9400D01*
X16741D01*
X16712Y9429D01*
X16298Y9730D01*
X15843Y9962D01*
X15356Y10120D01*
X14851Y10200D01*
X14339D01*
X13834Y10120D01*
X13347Y9962D01*
X12892Y9730D01*
X12478Y9429D01*
X12449Y9400D01*
X6501D01*
X6472Y9429D01*
X6058Y9730D01*
X5603Y9962D01*
X5116Y10120D01*
X4611Y10200D01*
X4480D01*
Y6950D01*
X4230D01*
Y10200D01*
X4099D01*
X3594Y10120D01*
X3107Y9962D01*
X2652Y9730D01*
X2238Y9429D01*
X2209Y9400D01*
X258D01*
X258Y41386D01*
X259Y41394D01*
X259Y41403D01*
X261Y41412D01*
X268Y41593D01*
X328Y41951D01*
X434Y42299D01*
X582Y42630D01*
X772Y42939D01*
X1000Y43222D01*
X1261Y43474D01*
X1553Y43690D01*
X1870Y43868D01*
X2207Y44003D01*
X2558Y44095D01*
X2918Y44141D01*
X41248D01*
Y42493D01*
X43272D01*
Y44141D01*
X46328D01*
Y42493D01*
X48352D01*
Y44141D01*
X48686D01*
X49056Y44093D01*
D02*
G37*
G36*
X25015Y38429D02*
X25037Y38406D01*
X25084Y38289D01*
X25025Y38147D01*
X24998Y37945D01*
Y36895D01*
X25025Y36693D01*
X25103Y36504D01*
X25227Y36342D01*
X25389Y36218D01*
X25578Y36140D01*
X25780Y36113D01*
X25982Y36140D01*
X26171Y36218D01*
X26223Y36258D01*
X26350Y36195D01*
Y36030D01*
X26775D01*
Y36850D01*
X27025D01*
Y36030D01*
X27190D01*
Y35900D01*
X27200Y35851D01*
Y35801D01*
X27219Y35754D01*
X27229Y35705D01*
X27257Y35663D01*
X27276Y35617D01*
X27312Y35581D01*
X27340Y35540D01*
X27381Y35512D01*
X27417Y35476D01*
X27463Y35457D01*
X27505Y35429D01*
X27554Y35419D01*
X27601Y35400D01*
X27651D01*
X27700Y35390D01*
X27749Y35400D01*
X27799D01*
X27846Y35419D01*
X27895Y35429D01*
X27937Y35457D01*
X27983Y35476D01*
X28019Y35512D01*
X28060Y35540D01*
X28088Y35581D01*
X28124Y35617D01*
X28143Y35663D01*
X28171Y35705D01*
X28181Y35754D01*
X28200Y35801D01*
Y35851D01*
X28210Y35900D01*
Y36030D01*
X28942D01*
Y35745D01*
X28405Y35208D01*
X25609D01*
X24700Y36117D01*
Y36140D01*
X24624Y36323D01*
X24582Y36365D01*
X24624Y36407D01*
X24700Y36591D01*
Y36790D01*
X24624Y36973D01*
X24584Y37013D01*
Y38041D01*
X24979Y38435D01*
X25015Y38429D01*
D02*
G37*
G36*
X4000Y35200D02*
X2859D01*
X1709Y34050D01*
X1475D01*
Y36075D01*
X4000D01*
Y35200D01*
D02*
G37*
G36*
X16920Y5235D02*
Y-40D01*
X12310D01*
Y5235D01*
X16920D01*
D02*
G37*
G36*
X39710Y-40D02*
X35100D01*
Y5235D01*
X39710D01*
Y-40D01*
D02*
G37*
G36*
X6710D02*
X2100D01*
Y5235D01*
X6710D01*
Y-40D01*
D02*
G37*
G36*
X28300D02*
X23690D01*
Y5235D01*
X28300D01*
Y-40D01*
D02*
G37*
G36*
X49950D02*
X45340D01*
Y5235D01*
X49950D01*
Y-40D01*
D02*
G37*
%LPC*%
G36*
X37650Y43400D02*
X36925D01*
Y42675D01*
X37650D01*
Y43400D01*
D02*
G37*
G36*
X36675D02*
X35950D01*
Y42675D01*
X36675D01*
Y43400D01*
D02*
G37*
G36*
X37650Y42425D02*
X36925D01*
Y41700D01*
X37650D01*
Y42425D01*
D02*
G37*
G36*
X36675D02*
X35950D01*
Y41700D01*
X36675D01*
Y42425D01*
D02*
G37*
G36*
X38799Y43700D02*
X38601D01*
X38417Y43624D01*
X38276Y43483D01*
X38200Y43299D01*
Y43101D01*
X38230Y43027D01*
X38146Y42900D01*
X38000D01*
Y41500D01*
X39400D01*
Y42900D01*
X39254D01*
X39170Y43027D01*
X39200Y43101D01*
Y43299D01*
X39124Y43483D01*
X38983Y43624D01*
X38799Y43700D01*
D02*
G37*
G36*
X39400Y41300D02*
X38000D01*
Y40882D01*
X37650D01*
Y41300D01*
X35950D01*
Y39600D01*
X37650D01*
Y40118D01*
X38000D01*
Y39900D01*
X39400D01*
Y41300D01*
D02*
G37*
G36*
X34420Y42756D02*
X34237Y42732D01*
X34067Y42661D01*
X33921Y42549D01*
X33809Y42403D01*
X33738Y42233D01*
X33714Y42050D01*
Y41150D01*
X33738Y40967D01*
X33809Y40797D01*
X33921Y40651D01*
X34067Y40539D01*
X34237Y40468D01*
X34420Y40444D01*
X34603Y40468D01*
X34773Y40539D01*
X34919Y40651D01*
X35031Y40797D01*
X35102Y40967D01*
X35126Y41150D01*
Y42050D01*
X35102Y42233D01*
X35031Y42403D01*
X34919Y42549D01*
X34773Y42661D01*
X34603Y42732D01*
X34420Y42756D01*
D02*
G37*
G36*
X25780D02*
X25597Y42732D01*
X25427Y42661D01*
X25281Y42549D01*
X25169Y42403D01*
X25098Y42233D01*
X25074Y42050D01*
Y41150D01*
X25098Y40967D01*
X25169Y40797D01*
X25281Y40651D01*
X25427Y40539D01*
X25597Y40468D01*
X25780Y40444D01*
X25963Y40468D01*
X26133Y40539D01*
X26279Y40651D01*
X26391Y40797D01*
X26462Y40967D01*
X26486Y41150D01*
Y42050D01*
X26462Y42233D01*
X26391Y42403D01*
X26279Y42549D01*
X26133Y42661D01*
X25963Y42732D01*
X25780Y42756D01*
D02*
G37*
G36*
X48352Y42243D02*
X47465D01*
Y40086D01*
X48352D01*
Y42243D01*
D02*
G37*
G36*
X47215D02*
X46328D01*
Y40086D01*
X47215D01*
Y42243D01*
D02*
G37*
G36*
X43272D02*
X42385D01*
Y40086D01*
X43272D01*
Y42243D01*
D02*
G37*
G36*
X42135D02*
X41248D01*
Y40086D01*
X42135D01*
Y42243D01*
D02*
G37*
G36*
X46300Y39500D02*
X45875D01*
Y39025D01*
X46300D01*
Y39500D01*
D02*
G37*
G36*
X45558Y42618D02*
X44042D01*
Y40086D01*
X44391D01*
Y39500D01*
X44200D01*
Y38300D01*
X44200D01*
X44268Y38173D01*
X44223Y38106D01*
X44192Y37950D01*
Y37650D01*
X44223Y37494D01*
X44311Y37362D01*
X44400Y37303D01*
X44413Y37171D01*
X44409Y37156D01*
X44400Y37150D01*
X44339Y37058D01*
X44317Y36950D01*
Y36650D01*
X44339Y36542D01*
X44356Y36517D01*
X44398Y36402D01*
X44398Y36402D01*
X44398Y36402D01*
Y35448D01*
X44398D01*
X44364Y35335D01*
X44350D01*
Y34500D01*
Y33665D01*
X44660D01*
Y33788D01*
X44990D01*
Y33665D01*
X45300D01*
Y34500D01*
X45550D01*
Y33665D01*
X45900D01*
Y34500D01*
X46150D01*
Y33665D01*
X47540D01*
Y32915D01*
Y32315D01*
Y31115D01*
Y31075D01*
X48375D01*
X49210D01*
Y31176D01*
X49617D01*
X49702Y31092D01*
X49885Y31015D01*
X50084D01*
X50268Y31092D01*
X50409Y31232D01*
X50485Y31416D01*
Y31615D01*
X50409Y31799D01*
X50268Y31939D01*
X50084Y32015D01*
X49950D01*
X49925Y32053D01*
Y32251D01*
X49849Y32435D01*
X49708Y32576D01*
X49524Y32652D01*
X49325D01*
X49316Y32648D01*
X49210Y32719D01*
Y33785D01*
X47660D01*
Y35335D01*
X46375D01*
Y35800D01*
X45825D01*
Y35925D01*
X45700D01*
Y36525D01*
X45387D01*
X45282Y36650D01*
Y36950D01*
X45261Y37058D01*
X45200Y37150D01*
X45191Y37156D01*
X45186Y37171D01*
X45200Y37303D01*
X45288Y37362D01*
X45377Y37494D01*
X45408Y37650D01*
Y37950D01*
X45377Y38106D01*
X45332Y38173D01*
X45400Y38300D01*
X45625D01*
Y38900D01*
Y39500D01*
X45159D01*
Y40086D01*
X45558D01*
Y42618D01*
D02*
G37*
G36*
X46300Y38775D02*
X45875D01*
Y38300D01*
X46300D01*
Y38775D01*
D02*
G37*
G36*
X39375Y38100D02*
X38950D01*
Y37625D01*
X39375D01*
Y38100D01*
D02*
G37*
G36*
X2652Y37843D02*
X2077D01*
Y37268D01*
X2652D01*
Y37843D01*
D02*
G37*
G36*
X1827D02*
X1252D01*
Y37268D01*
X1827D01*
Y37843D01*
D02*
G37*
G36*
X22625Y37610D02*
X21750D01*
Y37035D01*
X22625D01*
Y37610D01*
D02*
G37*
G36*
X21500D02*
X20625D01*
Y37035D01*
X21500D01*
Y37610D01*
D02*
G37*
G36*
X5125D02*
X4250D01*
Y37035D01*
X5125D01*
Y37610D01*
D02*
G37*
G36*
X4000D02*
X3125D01*
Y37035D01*
X4000D01*
Y37610D01*
D02*
G37*
G36*
X41050Y38100D02*
X39625D01*
Y37500D01*
X39500D01*
Y37375D01*
X38950D01*
Y37027D01*
X38950Y36900D01*
D01*
Y36900D01*
X38922Y36852D01*
X38776Y36831D01*
X38683Y36924D01*
X38499Y37000D01*
X38301D01*
X38117Y36924D01*
X37976Y36783D01*
X37900Y36599D01*
Y36401D01*
X37976Y36217D01*
X38117Y36076D01*
X38301Y36000D01*
X38329D01*
X38444Y35923D01*
X38600Y35892D01*
X38600Y35892D01*
X38950D01*
Y35700D01*
X40182D01*
Y35335D01*
X39550D01*
Y34500D01*
X39300D01*
Y35335D01*
X38950D01*
Y34500D01*
Y33542D01*
X38951Y33538D01*
X38917Y33524D01*
X38776Y33383D01*
X38700Y33199D01*
Y33001D01*
X38776Y32817D01*
X38801Y32792D01*
X38875Y32700D01*
X38875D01*
X38875Y32700D01*
Y31842D01*
X38770Y31771D01*
X38699Y31800D01*
X38501D01*
X38317Y31724D01*
X38176Y31583D01*
X38100Y31399D01*
Y31201D01*
X38176Y31017D01*
X38317Y30876D01*
X38501Y30800D01*
X38699D01*
X38770Y30829D01*
X38875Y30758D01*
Y30600D01*
X39800D01*
Y31650D01*
X39925D01*
Y31775D01*
X40975D01*
Y32700D01*
X41084Y32743D01*
X41100D01*
X41237Y32770D01*
X41352Y32848D01*
X41478Y32973D01*
X41555Y33089D01*
X41582Y33225D01*
Y33665D01*
X43500D01*
Y34500D01*
Y35335D01*
X41822D01*
X41769Y35462D01*
X41824Y35517D01*
X41900Y35701D01*
Y35899D01*
X41824Y36083D01*
X41683Y36224D01*
X41499Y36300D01*
X41301D01*
X41174Y36248D01*
X41050Y36323D01*
X41050Y36323D01*
Y36773D01*
X41050Y36900D01*
X41050D01*
Y36900D01*
X41050D01*
Y38100D01*
D02*
G37*
G36*
X2652Y37018D02*
X2077D01*
Y36443D01*
X2652D01*
Y37018D01*
D02*
G37*
G36*
X1827D02*
X1252D01*
Y36443D01*
X1827D01*
Y37018D01*
D02*
G37*
G36*
X46375Y36525D02*
X45950D01*
Y36050D01*
X46375D01*
Y36525D01*
D02*
G37*
G36*
X24300Y34300D02*
X23725D01*
Y33725D01*
X24300D01*
Y34300D01*
D02*
G37*
G36*
X23475D02*
X22900D01*
Y33725D01*
X23475D01*
Y34300D01*
D02*
G37*
G36*
X44100Y35335D02*
X43750D01*
Y34500D01*
Y33665D01*
X44100D01*
Y34500D01*
Y35335D01*
D02*
G37*
G36*
X1850Y33600D02*
X1275D01*
Y33025D01*
X1850D01*
Y33600D01*
D02*
G37*
G36*
X24300Y33475D02*
X23725D01*
Y32900D01*
X24300D01*
Y33475D01*
D02*
G37*
G36*
X23475D02*
X22900D01*
Y32900D01*
X23475D01*
Y33475D01*
D02*
G37*
G36*
X1850Y32775D02*
X1275D01*
Y32200D01*
X1850D01*
Y32775D01*
D02*
G37*
G36*
X46575Y32700D02*
X45650D01*
Y31775D01*
X46575D01*
Y32700D01*
D02*
G37*
G36*
X43775D02*
X42850D01*
Y31775D01*
X43775D01*
Y32700D01*
D02*
G37*
G36*
X42600D02*
X41675D01*
Y31775D01*
X42600D01*
Y32700D01*
D02*
G37*
G36*
X45400D02*
X44475D01*
Y31775D01*
X45400D01*
Y32700D01*
D02*
G37*
G36*
X38700Y35335D02*
X37790D01*
Y33785D01*
X36240D01*
Y32915D01*
Y32315D01*
Y31675D01*
X37075D01*
X37910D01*
Y31715D01*
Y32915D01*
Y33665D01*
X38700D01*
Y34500D01*
Y35335D01*
D02*
G37*
G36*
X30300Y32750D02*
X29425D01*
Y31625D01*
X30300D01*
Y32750D01*
D02*
G37*
G36*
X29175D02*
X28300D01*
Y31625D01*
X29175D01*
Y32750D01*
D02*
G37*
G36*
X33575Y32100D02*
X33150D01*
Y31625D01*
X33575D01*
Y32100D01*
D02*
G37*
G36*
X12075Y31290D02*
X11948Y31290D01*
X11500D01*
Y30590D01*
X11250D01*
Y31290D01*
X10802D01*
X10675Y31290D01*
X10548Y31290D01*
X10100D01*
Y30590D01*
X9975D01*
Y30465D01*
X9275D01*
Y30017D01*
X9275Y29890D01*
X9275Y29763D01*
Y29315D01*
X9975D01*
Y29065D01*
X9275D01*
Y28617D01*
X9275Y28490D01*
X9275Y28363D01*
Y27915D01*
X9975D01*
Y27790D01*
X10100D01*
Y27090D01*
X10548D01*
X10675Y27090D01*
X10802Y27090D01*
X11250D01*
Y27790D01*
X11500D01*
Y27090D01*
X11948D01*
X12075Y27090D01*
X12202Y27090D01*
X12650D01*
Y27790D01*
X12775D01*
Y27915D01*
X13475D01*
Y28363D01*
X13475Y28490D01*
X13475Y28617D01*
Y29065D01*
X12775D01*
Y29315D01*
X13475D01*
Y29763D01*
X13475Y29890D01*
X13475Y30017D01*
Y30465D01*
X12775D01*
Y30590D01*
X12650D01*
Y31290D01*
X12202D01*
X12075Y31290D01*
D02*
G37*
G36*
X12900Y31290D02*
Y30715D01*
X13475D01*
Y31290D01*
X12900D01*
D02*
G37*
G36*
X9850D02*
X9275D01*
Y30715D01*
X9850D01*
Y31290D01*
D02*
G37*
G36*
X46575Y31525D02*
X45650D01*
Y30600D01*
X46575D01*
Y31525D01*
D02*
G37*
G36*
X45400D02*
X44475D01*
Y30600D01*
X45400D01*
Y31525D01*
D02*
G37*
G36*
X43775D02*
X42850D01*
Y30600D01*
X43775D01*
Y31525D01*
D02*
G37*
G36*
X42600D02*
X41675D01*
Y30600D01*
X42600D01*
Y31525D01*
D02*
G37*
G36*
X40975D02*
X40050D01*
Y30600D01*
X40975D01*
Y31525D01*
D02*
G37*
G36*
X32299Y30500D02*
X32101D01*
X31917Y30424D01*
X31800Y30307D01*
X31783Y30324D01*
X31599Y30400D01*
X31401D01*
X31217Y30324D01*
X31175Y30282D01*
X31133Y30324D01*
X30949Y30400D01*
X30751D01*
X30567Y30324D01*
X30426Y30183D01*
X30350Y29999D01*
Y29801D01*
X30426Y29617D01*
X30567Y29476D01*
X30751Y29400D01*
X30949D01*
X31133Y29476D01*
X31175Y29518D01*
X31217Y29476D01*
X31401Y29400D01*
X31599D01*
X31783Y29476D01*
X31900Y29593D01*
X31917Y29576D01*
X32101Y29500D01*
X32299D01*
X32483Y29576D01*
X32624Y29717D01*
X32700Y29901D01*
Y30099D01*
X32624Y30283D01*
X32483Y30424D01*
X32299Y30500D01*
D02*
G37*
G36*
X30300Y31375D02*
X29425D01*
Y30250D01*
X30300D01*
Y31375D01*
D02*
G37*
G36*
X29175D02*
X28300D01*
Y30250D01*
X29175D01*
Y31375D01*
D02*
G37*
G36*
X33575Y30175D02*
X33150D01*
Y29700D01*
X33575D01*
Y30175D01*
D02*
G37*
G36*
X28000Y32750D02*
X26000D01*
Y30250D01*
X26412D01*
X26497Y30123D01*
X26450Y30009D01*
Y29791D01*
X26534Y29588D01*
X26688Y29434D01*
X26891Y29350D01*
X27109D01*
X27312Y29434D01*
X27466Y29588D01*
X27550Y29791D01*
Y30009D01*
X27503Y30123D01*
X27588Y30250D01*
X28000D01*
Y32750D01*
D02*
G37*
G36*
X33299Y34700D02*
X33101D01*
X32917Y34624D01*
X32776Y34483D01*
X32700Y34299D01*
Y34101D01*
X32776Y33917D01*
X32792Y33901D01*
Y33700D01*
X32500D01*
Y32300D01*
X33900D01*
Y32500D01*
X34100D01*
Y32300D01*
X34292D01*
Y32100D01*
X33825D01*
Y31500D01*
X33700D01*
Y31375D01*
X33150D01*
Y31027D01*
X33150Y30900D01*
X33150D01*
Y30900D01*
X33150D01*
Y30425D01*
X33700D01*
Y30300D01*
X33825D01*
Y29700D01*
X34292D01*
Y29190D01*
X34263D01*
Y28990D01*
X34063D01*
Y29190D01*
X32663D01*
Y27790D01*
X33132D01*
X33255Y27773D01*
X33287Y27616D01*
X33313Y27576D01*
Y27382D01*
X33397Y27180D01*
X33552Y27025D01*
X33694Y26966D01*
Y26829D01*
X33663Y26816D01*
X33509Y26662D01*
X33425Y26459D01*
Y26241D01*
X33509Y26038D01*
X33663Y25884D01*
X33866Y25800D01*
X34084D01*
X34286Y25884D01*
X34441Y26038D01*
X34463Y26092D01*
X34700D01*
Y25625D01*
X35300D01*
X35900D01*
Y25950D01*
Y27050D01*
X35700D01*
Y27322D01*
X36123Y27746D01*
X36240Y27697D01*
Y26315D01*
Y25115D01*
Y23915D01*
X37760D01*
X37828Y23788D01*
X37815Y23770D01*
X37782Y23600D01*
Y22872D01*
X36925D01*
X36920Y22883D01*
X36779Y23024D01*
X36595Y23100D01*
X36397D01*
X36213Y23024D01*
X36072Y22883D01*
X35996Y22699D01*
Y22501D01*
X36072Y22317D01*
X36213Y22176D01*
X36397Y22100D01*
X36595D01*
X36598Y22101D01*
X36695Y22004D01*
X36678Y21962D01*
Y21763D01*
X36754Y21579D01*
X36894Y21439D01*
X37078Y21363D01*
X37277D01*
X37461Y21439D01*
X37528Y21506D01*
X37906D01*
X38014Y21527D01*
X38085Y21451D01*
X38098Y21425D01*
X37673Y21000D01*
X36825D01*
Y20400D01*
X36700D01*
Y20275D01*
X36150D01*
Y19800D01*
X36150Y19800D01*
X36150D01*
X36140Y19677D01*
X36077Y19651D01*
X35923Y19496D01*
X35839Y19294D01*
Y19075D01*
X35923Y18873D01*
X36077Y18719D01*
X36280Y18635D01*
X36498D01*
X36701Y18719D01*
X36816Y18834D01*
X36842D01*
X36842Y18834D01*
X36933Y18852D01*
X36954Y18845D01*
X37028Y18788D01*
X37047Y18763D01*
X37050Y18756D01*
Y18591D01*
X37134Y18388D01*
X37288Y18234D01*
X37392Y18191D01*
Y17800D01*
X37392Y17800D01*
X37400Y17760D01*
Y17250D01*
Y16925D01*
X38000D01*
Y16800D01*
X38125D01*
Y16250D01*
X38975D01*
Y16800D01*
X39100D01*
Y16925D01*
X39700D01*
Y17442D01*
X40128D01*
X40128Y17442D01*
X40284Y17473D01*
X40416Y17562D01*
X40558Y17703D01*
X40681Y17647D01*
X40759Y17459D01*
X40758Y17298D01*
X40698Y17237D01*
X40663D01*
X40428Y17191D01*
X40230Y17058D01*
X40108Y16876D01*
X40063D01*
Y16685D01*
X40051Y16626D01*
X40063Y16566D01*
Y15776D01*
Y15450D01*
X40663D01*
X41263D01*
Y16014D01*
X41625D01*
Y15451D01*
X42225D01*
X42825D01*
Y15776D01*
Y16567D01*
X42837Y16626D01*
X42825Y16684D01*
Y16692D01*
X42827Y16695D01*
X42858Y16851D01*
Y17496D01*
X42975Y17545D01*
X43565Y16955D01*
Y15500D01*
X43617D01*
Y14550D01*
X43600D01*
Y13450D01*
Y13125D01*
X44200D01*
Y13000D01*
X44325D01*
Y12450D01*
X44800D01*
Y12450D01*
X44900D01*
Y12450D01*
X45375D01*
Y13000D01*
X45500D01*
Y13125D01*
X46100D01*
Y13450D01*
Y14550D01*
X44900D01*
Y14550D01*
X44800D01*
Y14550D01*
X44433D01*
Y15500D01*
X45386D01*
Y15500D01*
X45480D01*
Y15500D01*
X47301D01*
Y17524D01*
X47255D01*
Y20963D01*
X47255Y20963D01*
X47224Y21119D01*
X47136Y21251D01*
X47136Y21251D01*
X46399Y21988D01*
X46267Y22077D01*
X46111Y22108D01*
X46111Y22108D01*
X46020D01*
X45890Y22238D01*
X45943Y22365D01*
X47660D01*
Y23915D01*
X49210D01*
Y25115D01*
Y26315D01*
Y27515D01*
Y28715D01*
Y29915D01*
Y30825D01*
X48375D01*
X47540D01*
Y29915D01*
Y28715D01*
Y27515D01*
Y26315D01*
Y25115D01*
Y24035D01*
X44950D01*
Y23200D01*
X44700D01*
Y24035D01*
X38390D01*
Y24035D01*
X38366Y24015D01*
X38225Y24044D01*
X38055Y24010D01*
X38037Y23998D01*
X37910Y24065D01*
Y24515D01*
Y25715D01*
Y26915D01*
Y28115D01*
Y29025D01*
X37075D01*
Y29275D01*
X37910D01*
Y29315D01*
Y30515D01*
Y31425D01*
X37075D01*
X36240D01*
Y31358D01*
X35369D01*
X35250Y31477D01*
Y32100D01*
X35108D01*
Y32300D01*
X35500D01*
Y33700D01*
X34100D01*
Y33500D01*
X33900D01*
Y33700D01*
X33608D01*
Y33901D01*
X33624Y33917D01*
X33700Y34101D01*
Y34299D01*
X33624Y34483D01*
X33483Y34624D01*
X33299Y34700D01*
D02*
G37*
G36*
X46575Y29900D02*
X45650D01*
Y28975D01*
X46575D01*
Y29900D01*
D02*
G37*
G36*
X40975D02*
X40050D01*
Y28975D01*
X40975D01*
Y29900D01*
D02*
G37*
G36*
X43775D02*
X42850D01*
Y28975D01*
X43775D01*
Y29900D01*
D02*
G37*
G36*
X42600D02*
X41675D01*
Y28975D01*
X42600D01*
Y29900D01*
D02*
G37*
G36*
X45400D02*
X44475D01*
Y28975D01*
X45400D01*
Y29900D01*
D02*
G37*
G36*
X39800D02*
X38875D01*
Y28975D01*
X39800D01*
Y29900D01*
D02*
G37*
G36*
X46575Y28725D02*
X45650D01*
Y27800D01*
X46575D01*
Y28725D01*
D02*
G37*
G36*
X45400D02*
X44475D01*
Y27800D01*
X45400D01*
Y28725D01*
D02*
G37*
G36*
X43775D02*
X42850D01*
Y27800D01*
X43775D01*
Y28725D01*
D02*
G37*
G36*
X42600D02*
X41675D01*
Y27800D01*
X42600D01*
Y28725D01*
D02*
G37*
G36*
X40975D02*
X40050D01*
Y27800D01*
X40975D01*
Y28725D01*
D02*
G37*
G36*
X39800D02*
X38875D01*
Y27800D01*
X39800D01*
Y28725D01*
D02*
G37*
G36*
X13475Y27665D02*
X12900D01*
Y27090D01*
X13475D01*
Y27665D01*
D02*
G37*
G36*
X9850D02*
X9275D01*
Y27090D01*
X9850D01*
Y27665D01*
D02*
G37*
G36*
X46575Y27100D02*
X45650D01*
Y26175D01*
X46575D01*
Y27100D01*
D02*
G37*
G36*
X40975D02*
X40050D01*
Y26175D01*
X40975D01*
Y27100D01*
D02*
G37*
G36*
X43775D02*
X42850D01*
Y26175D01*
X43775D01*
Y27100D01*
D02*
G37*
G36*
X42600D02*
X41675D01*
Y26175D01*
X42600D01*
Y27100D01*
D02*
G37*
G36*
X45400D02*
X44475D01*
Y26175D01*
X45400D01*
Y27100D01*
D02*
G37*
G36*
X39800D02*
X38875D01*
Y26175D01*
X39800D01*
Y27100D01*
D02*
G37*
G36*
X29150Y26450D02*
X24850D01*
Y25608D01*
X24700D01*
X24700Y25608D01*
X24544Y25577D01*
X24412Y25488D01*
X24412Y25488D01*
X23923Y25000D01*
X23901D01*
X23717Y24924D01*
X23576Y24783D01*
X23500Y24599D01*
Y24401D01*
X23576Y24217D01*
X23717Y24076D01*
X23901Y24000D01*
X24099D01*
X24283Y24076D01*
X24424Y24217D01*
X24500Y24401D01*
Y24423D01*
X24733Y24656D01*
X24850Y24607D01*
Y23950D01*
X28663D01*
X28716Y23823D01*
X28676Y23783D01*
X28600Y23599D01*
Y23401D01*
X28676Y23217D01*
X28817Y23076D01*
X29001Y23000D01*
X29199D01*
X29383Y23076D01*
X29524Y23217D01*
X29600Y23401D01*
Y23423D01*
X30088Y23912D01*
X30088Y23912D01*
X30177Y24044D01*
X30188Y24100D01*
X30800D01*
Y25500D01*
X29400D01*
Y25208D01*
X29150D01*
Y26450D01*
D02*
G37*
G36*
X46575Y25925D02*
X45650D01*
Y25000D01*
X46575D01*
Y25925D01*
D02*
G37*
G36*
X45400D02*
X44475D01*
Y25000D01*
X45400D01*
Y25925D01*
D02*
G37*
G36*
X43775D02*
X42850D01*
Y25000D01*
X43775D01*
Y25925D01*
D02*
G37*
G36*
X42600D02*
X41675D01*
Y25000D01*
X42600D01*
Y25925D01*
D02*
G37*
G36*
X40975D02*
X40050D01*
Y25000D01*
X40975D01*
Y25925D01*
D02*
G37*
G36*
X39800D02*
X38875D01*
Y25000D01*
X39800D01*
Y25925D01*
D02*
G37*
G36*
X35900Y25375D02*
X35425D01*
Y24950D01*
X35900D01*
Y25375D01*
D02*
G37*
G36*
X35175D02*
X34700D01*
Y24950D01*
X35175D01*
Y25375D01*
D02*
G37*
G36*
X31575Y25500D02*
X31000D01*
Y24925D01*
X31575D01*
Y25500D01*
D02*
G37*
G36*
X2200Y24975D02*
X1725D01*
Y24550D01*
X2200D01*
Y24975D01*
D02*
G37*
G36*
X1475D02*
X1000D01*
Y24550D01*
X1475D01*
Y24975D01*
D02*
G37*
G36*
X32599Y26000D02*
X32401D01*
X32217Y25924D01*
X32076Y25783D01*
X32000Y25599D01*
Y25500D01*
X31825D01*
Y24925D01*
X32400D01*
Y25000D01*
X32401Y25000D01*
X32599D01*
X32612Y25005D01*
X32683Y24900D01*
X32684Y24898D01*
X32608Y24714D01*
Y24516D01*
X32684Y24332D01*
X32825Y24191D01*
X33009Y24115D01*
X33208D01*
X33391Y24191D01*
X33532Y24332D01*
X33608Y24516D01*
Y24714D01*
X33532Y24898D01*
X33391Y25039D01*
X33208Y25115D01*
X33009D01*
X32997Y25110D01*
X32925Y25215D01*
X32924Y25217D01*
X33000Y25401D01*
Y25599D01*
X32924Y25783D01*
X32783Y25924D01*
X32599Y26000D01*
D02*
G37*
G36*
X32400Y24675D02*
X31825D01*
Y24100D01*
X32400D01*
Y24675D01*
D02*
G37*
G36*
X31575D02*
X31000D01*
Y24100D01*
X31575D01*
Y24675D01*
D02*
G37*
G36*
X17999Y23700D02*
X17801D01*
X17617Y23624D01*
X17476Y23483D01*
X17400Y23299D01*
Y23101D01*
X17476Y22917D01*
X17617Y22776D01*
X17801Y22700D01*
X17999D01*
X18183Y22776D01*
X18324Y22917D01*
X18400Y23101D01*
Y23299D01*
X18324Y23483D01*
X18183Y23624D01*
X17999Y23700D01*
D02*
G37*
G36*
X33354Y23068D02*
X33155D01*
X32971Y22992D01*
X32830Y22851D01*
X32754Y22667D01*
Y22468D01*
X32830Y22285D01*
X32932Y22182D01*
X32860Y22075D01*
X32799Y22100D01*
X32601D01*
X32417Y22024D01*
X32276Y21883D01*
X32200Y21699D01*
Y21501D01*
X32276Y21317D01*
X32417Y21176D01*
X32601Y21100D01*
X32799D01*
X32983Y21176D01*
X33124Y21317D01*
X33200Y21501D01*
Y21699D01*
X33124Y21883D01*
X33022Y21985D01*
X33094Y22093D01*
X33155Y22068D01*
X33354D01*
X33537Y22144D01*
X33678Y22285D01*
X33754Y22468D01*
Y22667D01*
X33678Y22851D01*
X33537Y22992D01*
X33354Y23068D01*
D02*
G37*
G36*
X29800Y21550D02*
X29175D01*
Y21000D01*
X29800D01*
Y21550D01*
D02*
G37*
G36*
X28925D02*
X28300D01*
Y21000D01*
X28925D01*
Y21550D01*
D02*
G37*
G36*
X36575Y21000D02*
X36150D01*
Y20525D01*
X36575D01*
Y21000D01*
D02*
G37*
G36*
X29800Y20750D02*
X29175D01*
Y20200D01*
X29800D01*
Y20750D01*
D02*
G37*
G36*
X28925D02*
X28300D01*
Y20200D01*
X28925D01*
Y20750D01*
D02*
G37*
G36*
X35199Y21200D02*
X35001D01*
X34817Y21124D01*
X34676Y20983D01*
X34600Y20799D01*
Y20601D01*
X34676Y20417D01*
X34817Y20276D01*
X35001Y20200D01*
X35199D01*
X35383Y20276D01*
X35524Y20417D01*
X35600Y20601D01*
Y20799D01*
X35524Y20983D01*
X35383Y21124D01*
X35199Y21200D01*
D02*
G37*
G36*
X51075Y20925D02*
X50300D01*
Y20150D01*
X51075D01*
Y20925D01*
D02*
G37*
G36*
X50050D02*
X49275D01*
Y20150D01*
X50050D01*
Y20925D01*
D02*
G37*
G36*
X51075Y19900D02*
X50300D01*
Y19125D01*
X51075D01*
Y19900D01*
D02*
G37*
G36*
X50050D02*
X49275D01*
Y19125D01*
X50050D01*
Y19900D01*
D02*
G37*
G36*
X29800Y19800D02*
X28300D01*
Y18450D01*
X29800D01*
Y19800D01*
D02*
G37*
G36*
X27150Y17800D02*
X26725D01*
Y17325D01*
X27150D01*
Y17800D01*
D02*
G37*
G36*
X50293Y18925D02*
X50057D01*
X49828Y18864D01*
X49622Y18745D01*
X49455Y18578D01*
X49336Y18372D01*
X49275Y18143D01*
Y17907D01*
X49336Y17678D01*
X49455Y17472D01*
X49622Y17305D01*
X49828Y17186D01*
X50057Y17125D01*
X50293D01*
X50522Y17186D01*
X50728Y17305D01*
X50895Y17472D01*
X51014Y17678D01*
X51075Y17907D01*
Y18143D01*
X51014Y18372D01*
X50895Y18578D01*
X50728Y18745D01*
X50522Y18864D01*
X50293Y18925D01*
D02*
G37*
G36*
X27150Y17075D02*
X26725D01*
Y16600D01*
X27150D01*
Y17075D01*
D02*
G37*
G36*
X50293Y16925D02*
X50057D01*
X49828Y16864D01*
X49622Y16745D01*
X49455Y16578D01*
X49342Y16382D01*
X48700D01*
Y16550D01*
X47500D01*
Y15450D01*
Y14450D01*
X48123D01*
X48787Y13787D01*
X48787Y13787D01*
X48919Y13698D01*
X49075Y13667D01*
X49342D01*
X49455Y13472D01*
X49622Y13305D01*
X49828Y13186D01*
X50057Y13125D01*
X50293D01*
X50522Y13186D01*
X50728Y13305D01*
X50895Y13472D01*
X51014Y13678D01*
X51075Y13907D01*
Y14143D01*
X51014Y14372D01*
X50895Y14578D01*
X50728Y14745D01*
X50522Y14864D01*
X50293Y14925D01*
X50057D01*
X49828Y14864D01*
X49622Y14745D01*
X49455Y14578D01*
X49400Y14483D01*
X49244D01*
X48700Y15027D01*
Y15668D01*
X49342D01*
X49455Y15472D01*
X49622Y15305D01*
X49828Y15186D01*
X50057Y15125D01*
X50293D01*
X50522Y15186D01*
X50728Y15305D01*
X50895Y15472D01*
X51014Y15678D01*
X51075Y15907D01*
Y16143D01*
X51014Y16372D01*
X50895Y16578D01*
X50728Y16745D01*
X50522Y16864D01*
X50293Y16925D01*
D02*
G37*
G36*
X39700Y16675D02*
X39225D01*
Y16250D01*
X39700D01*
Y16675D01*
D02*
G37*
G36*
X37875Y16675D02*
X37400D01*
Y16250D01*
X37875D01*
Y16675D01*
D02*
G37*
G36*
X35499Y16100D02*
X35301D01*
X35117Y16024D01*
X34976Y15883D01*
X34921Y15750D01*
X34799Y15800D01*
X34601D01*
X34417Y15724D01*
X34276Y15583D01*
X34200Y15399D01*
Y15201D01*
X34276Y15017D01*
X34417Y14876D01*
X34601Y14800D01*
X34799D01*
X34983Y14876D01*
X35124Y15017D01*
X35179Y15150D01*
X35301Y15100D01*
X35499D01*
X35683Y15176D01*
X35824Y15317D01*
X35900Y15501D01*
Y15699D01*
X35824Y15883D01*
X35683Y16024D01*
X35499Y16100D01*
D02*
G37*
G36*
X17499Y15900D02*
X17301D01*
X17117Y15824D01*
X16976Y15683D01*
X16900Y15499D01*
Y15301D01*
X16976Y15117D01*
X17117Y14976D01*
X17301Y14900D01*
X17499D01*
X17683Y14976D01*
X17824Y15117D01*
X17900Y15301D01*
Y15499D01*
X17824Y15683D01*
X17683Y15824D01*
X17499Y15900D01*
D02*
G37*
G36*
X33399Y15800D02*
X33201D01*
X33017Y15724D01*
X32876Y15583D01*
X32800Y15399D01*
Y15201D01*
X32876Y15017D01*
X33017Y14876D01*
X33201Y14800D01*
X33399D01*
X33583Y14876D01*
X33724Y15017D01*
X33800Y15201D01*
Y15399D01*
X33724Y15583D01*
X33583Y15724D01*
X33399Y15800D01*
D02*
G37*
G36*
X31099Y16100D02*
X30901D01*
X30717Y16024D01*
X30576Y15883D01*
X30500Y15699D01*
Y15501D01*
X30576Y15317D01*
X30717Y15176D01*
X30901Y15100D01*
X31099D01*
X31283Y15176D01*
X31313Y15170D01*
X31376Y15017D01*
X31517Y14876D01*
X31701Y14800D01*
X31899D01*
X32083Y14876D01*
X32224Y15017D01*
X32300Y15201D01*
Y15399D01*
X32224Y15583D01*
X32083Y15724D01*
X31899Y15800D01*
X31701D01*
X31517Y15724D01*
X31487Y15730D01*
X31424Y15883D01*
X31283Y16024D01*
X31099Y16100D01*
D02*
G37*
G36*
X42825Y15201D02*
X42350D01*
Y14776D01*
X42825D01*
Y15201D01*
D02*
G37*
G36*
X42100D02*
X41625D01*
Y14776D01*
X42100D01*
Y15201D01*
D02*
G37*
G36*
X41263Y15200D02*
X40788D01*
Y14776D01*
X41263D01*
Y15200D01*
D02*
G37*
G36*
X40538D02*
X40063D01*
Y14776D01*
X40538D01*
Y15200D01*
D02*
G37*
G36*
X23599Y15750D02*
X23401D01*
X23217Y15674D01*
X23076Y15533D01*
X23000Y15349D01*
Y15151D01*
X23076Y14967D01*
X23217Y14826D01*
X23401Y14750D01*
X23599D01*
X23783Y14826D01*
X23924Y14967D01*
X24000Y15151D01*
Y15349D01*
X23924Y15533D01*
X23783Y15674D01*
X23599Y15750D01*
D02*
G37*
G36*
X28099Y15600D02*
X27901D01*
X27717Y15524D01*
X27576Y15383D01*
X27500Y15199D01*
Y15001D01*
X27576Y14817D01*
X27717Y14676D01*
X27901Y14600D01*
X28099D01*
X28283Y14676D01*
X28424Y14817D01*
X28500Y15001D01*
Y15199D01*
X28424Y15383D01*
X28283Y15524D01*
X28099Y15600D01*
D02*
G37*
G36*
X46100Y12875D02*
X45625D01*
Y12450D01*
X46100D01*
Y12875D01*
D02*
G37*
G36*
X44075Y12875D02*
X43600D01*
Y12450D01*
X44075D01*
Y12875D01*
D02*
G37*
G36*
X38748Y14088D02*
X38462D01*
X38185Y14014D01*
X37937Y13871D01*
X37734Y13668D01*
X37591Y13420D01*
X37517Y13143D01*
Y12857D01*
X37591Y12580D01*
X37734Y12332D01*
X37937Y12129D01*
X38185Y11986D01*
X38462Y11912D01*
X38748D01*
X39025Y11986D01*
X39273Y12129D01*
X39476Y12332D01*
X39619Y12580D01*
X39693Y12857D01*
Y13143D01*
X39619Y13420D01*
X39476Y13668D01*
X39273Y13871D01*
X39025Y14014D01*
X38748Y14088D01*
D02*
G37*
G36*
X36208D02*
X35922D01*
X35645Y14014D01*
X35397Y13871D01*
X35194Y13668D01*
X35051Y13420D01*
X34977Y13143D01*
Y12857D01*
X35051Y12580D01*
X35194Y12332D01*
X35397Y12129D01*
X35645Y11986D01*
X35922Y11912D01*
X36208D01*
X36485Y11986D01*
X36733Y12129D01*
X36936Y12332D01*
X37079Y12580D01*
X37153Y12857D01*
Y13143D01*
X37079Y13420D01*
X36936Y13668D01*
X36733Y13871D01*
X36485Y14014D01*
X36208Y14088D01*
D02*
G37*
G36*
X18428D02*
X18142D01*
X17865Y14014D01*
X17617Y13871D01*
X17414Y13668D01*
X17271Y13420D01*
X17197Y13143D01*
Y12857D01*
X17271Y12580D01*
X17414Y12332D01*
X17617Y12129D01*
X17865Y11986D01*
X18142Y11912D01*
X18428D01*
X18705Y11986D01*
X18953Y12129D01*
X19156Y12332D01*
X19299Y12580D01*
X19373Y12857D01*
Y13143D01*
X19299Y13420D01*
X19156Y13668D01*
X18953Y13871D01*
X18705Y14014D01*
X18428Y14088D01*
D02*
G37*
G36*
X15888D02*
X15602D01*
X15325Y14014D01*
X15077Y13871D01*
X14874Y13668D01*
X14731Y13420D01*
X14657Y13143D01*
Y12857D01*
X14731Y12580D01*
X14874Y12332D01*
X15077Y12129D01*
X15325Y11986D01*
X15602Y11912D01*
X15888D01*
X16165Y11986D01*
X16413Y12129D01*
X16616Y12332D01*
X16759Y12580D01*
X16833Y12857D01*
Y13143D01*
X16759Y13420D01*
X16616Y13668D01*
X16413Y13871D01*
X16165Y14014D01*
X15888Y14088D01*
D02*
G37*
G36*
X13348D02*
X13062D01*
X12785Y14014D01*
X12537Y13871D01*
X12334Y13668D01*
X12191Y13420D01*
X12117Y13143D01*
Y12857D01*
X12191Y12580D01*
X12334Y12332D01*
X12537Y12129D01*
X12785Y11986D01*
X13062Y11912D01*
X13348D01*
X13625Y11986D01*
X13873Y12129D01*
X14076Y12332D01*
X14219Y12580D01*
X14293Y12857D01*
Y13143D01*
X14219Y13420D01*
X14076Y13668D01*
X13873Y13871D01*
X13625Y14014D01*
X13348Y14088D01*
D02*
G37*
G36*
X50293Y12925D02*
X50057D01*
X49828Y12864D01*
X49622Y12745D01*
X49455Y12578D01*
X49336Y12372D01*
X49275Y12143D01*
Y11907D01*
X49336Y11678D01*
X49455Y11472D01*
X49622Y11305D01*
X49828Y11186D01*
X50057Y11125D01*
X50293D01*
X50522Y11186D01*
X50728Y11305D01*
X50895Y11472D01*
X51014Y11678D01*
X51075Y11907D01*
Y12143D01*
X51014Y12372D01*
X50895Y12578D01*
X50728Y12745D01*
X50522Y12864D01*
X50293Y12925D01*
D02*
G37*
%LPD*%
G36*
X43889Y22058D02*
X43937Y21986D01*
X44596Y21327D01*
X44544Y21200D01*
X44225D01*
Y20600D01*
Y20000D01*
X45073D01*
X45192Y19881D01*
Y19675D01*
X44850D01*
Y19475D01*
X44650D01*
Y19675D01*
X43308D01*
Y21010D01*
X43308Y21010D01*
X43308Y21011D01*
Y21656D01*
X43733Y22081D01*
X43740Y22083D01*
X43889Y22058D01*
D02*
G37*
G36*
X40171Y20849D02*
Y18470D01*
X39959Y18258D01*
X39700D01*
Y18350D01*
X38303D01*
X38208Y18419D01*
X38177Y18575D01*
X38150Y18615D01*
Y18809D01*
X38066Y19012D01*
X37912Y19166D01*
X37709Y19250D01*
X37606D01*
X37554Y19377D01*
X37873Y19696D01*
X38000Y19651D01*
X38076Y19467D01*
X38217Y19326D01*
X38401Y19250D01*
X38599D01*
X38709Y19295D01*
X38836Y19213D01*
Y18769D01*
X39311D01*
Y19319D01*
X39436D01*
Y19444D01*
X40036D01*
Y19769D01*
Y20869D01*
X40036D01*
X40036Y20869D01*
X40044Y20883D01*
X40171Y20849D01*
D02*
G37*
G36*
X41725Y19850D02*
X41941D01*
X42042Y19790D01*
X42042Y19790D01*
Y17237D01*
X41633D01*
Y17400D01*
X41691Y17459D01*
X41775Y17661D01*
Y17880D01*
X41691Y18082D01*
X41537Y18236D01*
X41335Y18320D01*
X41116D01*
X41114Y18319D01*
X40987Y18404D01*
Y19728D01*
X41000Y19850D01*
X41475D01*
Y20400D01*
X41725D01*
Y19850D01*
D02*
G37*
%LPC*%
G36*
X43975Y21200D02*
X43550D01*
Y20725D01*
X43975D01*
Y21200D01*
D02*
G37*
G36*
Y20475D02*
X43550D01*
Y20000D01*
X43975D01*
Y20475D01*
D02*
G37*
G36*
X40036Y19194D02*
X39561D01*
Y18769D01*
X40036D01*
Y19194D01*
D02*
G37*
G36*
X15810Y2841D02*
X15486D01*
X15457Y2840D01*
X15430Y2836D01*
X15404Y2831D01*
X15380Y2825D01*
X15358Y2818D01*
X15337Y2809D01*
X15319Y2801D01*
X15302Y2792D01*
X15287Y2782D01*
X15273Y2774D01*
X15262Y2765D01*
X15253Y2758D01*
X15245Y2752D01*
X15240Y2747D01*
X15237Y2743D01*
X15236Y2742D01*
X15220Y2723D01*
X15205Y2703D01*
X15193Y2682D01*
X15182Y2659D01*
X15173Y2636D01*
X15166Y2614D01*
X15160Y2591D01*
X15155Y2570D01*
X15151Y2550D01*
X15149Y2531D01*
X15146Y2514D01*
X15145Y2499D01*
X15144Y2487D01*
X15144Y2478D01*
Y2102D01*
Y2470D01*
X15144Y2439D01*
X15148Y2409D01*
X15152Y2381D01*
X15158Y2355D01*
X15165Y2331D01*
X15172Y2309D01*
X15181Y2288D01*
X15189Y2271D01*
X15198Y2254D01*
X15206Y2239D01*
X15214Y2227D01*
X15221Y2217D01*
X15226Y2210D01*
X15231Y2204D01*
X15234Y2200D01*
X15235Y2199D01*
X15253Y2183D01*
X15272Y2167D01*
X15292Y2155D01*
X15313Y2144D01*
X15333Y2134D01*
X15354Y2126D01*
X15374Y2119D01*
X15393Y2114D01*
X15412Y2111D01*
X15429Y2107D01*
X15444Y2106D01*
X15457Y2104D01*
X15468Y2103D01*
X15476Y2102D01*
X15144D01*
X15810D01*
X15483D01*
X15507Y2103D01*
X15531Y2105D01*
X15554Y2108D01*
X15574Y2112D01*
X15594Y2117D01*
X15611Y2123D01*
X15627Y2128D01*
X15643Y2134D01*
X15656Y2140D01*
X15667Y2146D01*
X15677Y2151D01*
X15686Y2156D01*
X15692Y2161D01*
X15697Y2164D01*
X15699Y2166D01*
X15700Y2166D01*
X15715Y2179D01*
X15728Y2194D01*
X15741Y2208D01*
X15752Y2223D01*
X15762Y2239D01*
X15770Y2255D01*
X15779Y2271D01*
X15786Y2287D01*
X15791Y2301D01*
X15797Y2315D01*
X15801Y2326D01*
X15804Y2336D01*
X15807Y2346D01*
X15808Y2352D01*
X15810Y2356D01*
Y2372D01*
Y2358D01*
X15627Y2389D01*
X15624Y2375D01*
X15621Y2363D01*
X15616Y2352D01*
X15613Y2342D01*
X15609Y2331D01*
X15605Y2323D01*
X15601Y2315D01*
X15597Y2309D01*
X15594Y2303D01*
X15590Y2298D01*
X15584Y2290D01*
X15580Y2286D01*
X15578Y2284D01*
X15565Y2274D01*
X15550Y2267D01*
X15536Y2262D01*
X15523Y2258D01*
X15510Y2256D01*
X15501Y2255D01*
X15496Y2254D01*
X15491D01*
X15479Y2255D01*
X15466Y2257D01*
X15454Y2260D01*
X15443Y2263D01*
X15424Y2271D01*
X15407Y2281D01*
X15400Y2285D01*
X15394Y2290D01*
X15389Y2294D01*
X15385Y2298D01*
X15381Y2301D01*
X15379Y2304D01*
X15378Y2305D01*
X15377Y2306D01*
X15369Y2316D01*
X15364Y2329D01*
X15358Y2342D01*
X15353Y2356D01*
X15346Y2385D01*
X15341Y2414D01*
X15339Y2428D01*
X15338Y2441D01*
X15337Y2453D01*
X15336Y2463D01*
X15336Y2472D01*
Y2479D01*
Y2482D01*
Y2484D01*
X15336Y2504D01*
X15337Y2523D01*
X15340Y2540D01*
X15342Y2556D01*
X15345Y2571D01*
X15349Y2584D01*
X15353Y2596D01*
X15357Y2606D01*
X15360Y2616D01*
X15364Y2623D01*
X15368Y2630D01*
X15370Y2635D01*
X15374Y2639D01*
X15375Y2642D01*
X15376Y2644D01*
X15377Y2644D01*
X15385Y2653D01*
X15394Y2660D01*
X15402Y2667D01*
X15412Y2673D01*
X15421Y2677D01*
X15430Y2682D01*
X15448Y2688D01*
X15464Y2691D01*
X15471Y2692D01*
X15476Y2693D01*
X15481Y2693D01*
X15488D01*
X15506Y2693D01*
X15523Y2689D01*
X15539Y2685D01*
X15550Y2680D01*
X15561Y2674D01*
X15567Y2670D01*
X15572Y2666D01*
X15573Y2666D01*
X15584Y2654D01*
X15594Y2641D01*
X15601Y2627D01*
X15607Y2614D01*
X15611Y2601D01*
X15615Y2592D01*
X15616Y2588D01*
Y2585D01*
X15616Y2583D01*
Y2583D01*
X15801Y2616D01*
X15794Y2636D01*
X15786Y2655D01*
X15778Y2673D01*
X15769Y2690D01*
X15760Y2705D01*
X15751Y2719D01*
X15742Y2731D01*
X15733Y2742D01*
X15725Y2753D01*
X15717Y2761D01*
X15709Y2769D01*
X15704Y2775D01*
X15698Y2779D01*
X15694Y2782D01*
X15692Y2784D01*
X15691Y2785D01*
X15676Y2795D01*
X15660Y2803D01*
X15643Y2811D01*
X15627Y2817D01*
X15610Y2823D01*
X15593Y2827D01*
X15576Y2830D01*
X15560Y2834D01*
X15545Y2836D01*
X15531Y2838D01*
X15518Y2839D01*
X15507Y2840D01*
X15499Y2841D01*
X15810D01*
D02*
G37*
G36*
X15052D02*
X14728D01*
X14700Y2840D01*
X14672Y2836D01*
X14646Y2831D01*
X14623Y2825D01*
X14601Y2818D01*
X14579Y2809D01*
X14561Y2801D01*
X14544Y2792D01*
X14529Y2782D01*
X14515Y2774D01*
X14504Y2765D01*
X14495Y2758D01*
X14487Y2752D01*
X14482Y2747D01*
X14479Y2743D01*
X14478Y2742D01*
X14462Y2723D01*
X14447Y2703D01*
X14435Y2682D01*
X14425Y2659D01*
X14415Y2636D01*
X14409Y2614D01*
X14402Y2591D01*
X14398Y2570D01*
X14393Y2550D01*
X14391Y2531D01*
X14388Y2514D01*
X14387Y2499D01*
X14387Y2487D01*
X14386Y2478D01*
Y2102D01*
Y2470D01*
X14387Y2439D01*
X14390Y2409D01*
X14394Y2381D01*
X14400Y2355D01*
X14407Y2331D01*
X14415Y2309D01*
X14423Y2288D01*
X14431Y2271D01*
X14440Y2254D01*
X14448Y2239D01*
X14456Y2227D01*
X14463Y2217D01*
X14469Y2210D01*
X14473Y2204D01*
X14476Y2200D01*
X14477Y2199D01*
X14495Y2183D01*
X14514Y2167D01*
X14535Y2155D01*
X14555Y2144D01*
X14575Y2134D01*
X14596Y2126D01*
X14616Y2119D01*
X14635Y2114D01*
X14654Y2111D01*
X14671Y2107D01*
X14686Y2106D01*
X14700Y2104D01*
X14710Y2103D01*
X14718Y2102D01*
X14386D01*
X15052D01*
X14725D01*
X14749Y2103D01*
X14773Y2105D01*
X14796Y2108D01*
X14816Y2112D01*
X14836Y2117D01*
X14853Y2123D01*
X14870Y2128D01*
X14885Y2134D01*
X14898Y2140D01*
X14909Y2146D01*
X14919Y2151D01*
X14928Y2156D01*
X14934Y2161D01*
X14939Y2164D01*
X14941Y2166D01*
X14942Y2166D01*
X14957Y2179D01*
X14970Y2194D01*
X14983Y2208D01*
X14994Y2223D01*
X15004Y2239D01*
X15012Y2255D01*
X15021Y2271D01*
X15028Y2287D01*
X15034Y2301D01*
X15039Y2315D01*
X15043Y2326D01*
X15046Y2336D01*
X15049Y2346D01*
X15051Y2352D01*
X15052Y2356D01*
Y2381D01*
Y2358D01*
X14869Y2389D01*
X14866Y2375D01*
X14863Y2363D01*
X14859Y2352D01*
X14855Y2342D01*
X14851Y2331D01*
X14848Y2323D01*
X14843Y2315D01*
X14839Y2309D01*
X14836Y2303D01*
X14832Y2298D01*
X14826Y2290D01*
X14822Y2286D01*
X14820Y2284D01*
X14807Y2274D01*
X14793Y2267D01*
X14778Y2262D01*
X14765Y2258D01*
X14752Y2256D01*
X14743Y2255D01*
X14738Y2254D01*
X14733D01*
X14721Y2255D01*
X14708Y2257D01*
X14696Y2260D01*
X14685Y2263D01*
X14666Y2271D01*
X14650Y2281D01*
X14642Y2285D01*
X14636Y2290D01*
X14631Y2294D01*
X14627Y2298D01*
X14623Y2301D01*
X14621Y2304D01*
X14620Y2305D01*
X14619Y2306D01*
X14612Y2316D01*
X14606Y2329D01*
X14600Y2342D01*
X14595Y2356D01*
X14588Y2385D01*
X14583Y2414D01*
X14581Y2428D01*
X14580Y2441D01*
X14579Y2453D01*
X14579Y2463D01*
X14578Y2472D01*
Y2479D01*
Y2482D01*
Y2484D01*
X14579Y2504D01*
X14579Y2523D01*
X14582Y2540D01*
X14585Y2556D01*
X14587Y2571D01*
X14591Y2584D01*
X14595Y2596D01*
X14599Y2606D01*
X14602Y2616D01*
X14606Y2623D01*
X14610Y2630D01*
X14612Y2635D01*
X14616Y2639D01*
X14617Y2642D01*
X14618Y2644D01*
X14619Y2644D01*
X14628Y2653D01*
X14636Y2660D01*
X14645Y2667D01*
X14654Y2673D01*
X14663Y2677D01*
X14672Y2682D01*
X14690Y2688D01*
X14706Y2691D01*
X14713Y2692D01*
X14718Y2693D01*
X14723Y2693D01*
X14730D01*
X14749Y2693D01*
X14766Y2689D01*
X14781Y2685D01*
X14793Y2680D01*
X14803Y2674D01*
X14809Y2670D01*
X14814Y2666D01*
X14815Y2666D01*
X14826Y2654D01*
X14836Y2641D01*
X14843Y2627D01*
X14849Y2614D01*
X14853Y2601D01*
X14857Y2592D01*
X14858Y2588D01*
Y2585D01*
X14859Y2583D01*
Y2583D01*
X15043Y2616D01*
X15036Y2636D01*
X15029Y2655D01*
X15020Y2673D01*
X15012Y2690D01*
X15002Y2705D01*
X14993Y2719D01*
X14985Y2731D01*
X14975Y2742D01*
X14967Y2753D01*
X14959Y2761D01*
X14952Y2769D01*
X14946Y2775D01*
X14941Y2779D01*
X14936Y2782D01*
X14934Y2784D01*
X14933Y2785D01*
X14918Y2795D01*
X14903Y2803D01*
X14886Y2811D01*
X14869Y2817D01*
X14852Y2823D01*
X14835Y2827D01*
X14818Y2830D01*
X14802Y2834D01*
X14787Y2836D01*
X14773Y2838D01*
X14760Y2839D01*
X14749Y2840D01*
X14741Y2841D01*
X15052D01*
D02*
G37*
G36*
X14328Y3094D02*
X14118D01*
X13880Y2372D01*
X13633Y3094D01*
X13420D01*
X13768Y2118D01*
X13420D01*
D01*
X14328D01*
D01*
X13980D01*
X14328Y3094D01*
D02*
G37*
G36*
X37619Y3088D02*
X37467D01*
X37460Y3071D01*
X37453Y3055D01*
X37444Y3040D01*
X37435Y3025D01*
X37426Y3011D01*
X37416Y2999D01*
X37405Y2987D01*
X37396Y2976D01*
X37387Y2966D01*
X37377Y2957D01*
X37370Y2950D01*
X37363Y2943D01*
X37357Y2938D01*
X37352Y2934D01*
X37350Y2932D01*
X37349Y2931D01*
X37333Y2919D01*
X37317Y2908D01*
X37302Y2898D01*
X37288Y2889D01*
X37274Y2880D01*
X37261Y2873D01*
X37249Y2867D01*
X37238Y2861D01*
X37227Y2856D01*
X37218Y2852D01*
X37210Y2848D01*
X37203Y2846D01*
X37198Y2843D01*
X37194Y2841D01*
X37191Y2841D01*
X37191D01*
Y2671D01*
X37216Y2680D01*
X37240Y2690D01*
X37264Y2700D01*
X37287Y2712D01*
X37308Y2724D01*
X37328Y2736D01*
X37346Y2747D01*
X37364Y2759D01*
X37379Y2770D01*
X37393Y2779D01*
X37405Y2788D01*
X37414Y2797D01*
X37422Y2803D01*
X37427Y2808D01*
X37432Y2811D01*
X37432Y2812D01*
Y2108D01*
X37191D01*
D01*
X37619D01*
Y3088D01*
D02*
G37*
G36*
X3870Y3102D02*
X2958D01*
Y2601D01*
X2959Y2575D01*
X2960Y2549D01*
X2963Y2525D01*
X2967Y2501D01*
X2971Y2478D01*
X2976Y2457D01*
X2981Y2437D01*
X2987Y2418D01*
X2992Y2401D01*
X2997Y2386D01*
X3001Y2372D01*
X3006Y2361D01*
X3009Y2352D01*
X3012Y2345D01*
X3014Y2342D01*
X3015Y2340D01*
X3026Y2318D01*
X3038Y2298D01*
X3052Y2279D01*
X3065Y2262D01*
X3080Y2245D01*
X3094Y2230D01*
X3108Y2216D01*
X3122Y2204D01*
X3135Y2193D01*
X3146Y2184D01*
X3157Y2175D01*
X3167Y2169D01*
X3174Y2164D01*
X3180Y2160D01*
X3185Y2158D01*
X3185Y2157D01*
X3207Y2146D01*
X3229Y2136D01*
X3252Y2127D01*
X3275Y2120D01*
X3298Y2114D01*
X3320Y2109D01*
X3342Y2104D01*
X3362Y2101D01*
X3381Y2098D01*
X3399Y2097D01*
X3414Y2095D01*
X3427Y2094D01*
X3437D01*
X3446Y2093D01*
X3453D01*
X3475Y2094D01*
X3497Y2095D01*
X3541Y2100D01*
X3561Y2103D01*
X3580Y2108D01*
X3599Y2112D01*
X3616Y2116D01*
X3632Y2120D01*
X3646Y2124D01*
X3659Y2128D01*
X3669Y2131D01*
X3678Y2134D01*
X3684Y2136D01*
X3688Y2137D01*
X3689Y2138D01*
X3711Y2147D01*
X3731Y2156D01*
X3750Y2165D01*
X3767Y2174D01*
X3783Y2183D01*
X3799Y2191D01*
X3811Y2200D01*
X3824Y2208D01*
X3834Y2216D01*
X3843Y2223D01*
X3852Y2229D01*
X3858Y2234D01*
X3863Y2238D01*
X3867Y2241D01*
X3869Y2243D01*
X3870Y2244D01*
Y2638D01*
Y2633D01*
X3445D01*
Y2468D01*
X3671D01*
Y2345D01*
X3653Y2332D01*
X3635Y2321D01*
X3618Y2311D01*
X3601Y2302D01*
X3585Y2295D01*
X3580Y2292D01*
X3574Y2290D01*
X3569Y2288D01*
X3566Y2286D01*
X3564Y2285D01*
X3563D01*
X3541Y2278D01*
X3518Y2272D01*
X3497Y2268D01*
X3479Y2265D01*
X3470Y2263D01*
X3463D01*
X3456Y2262D01*
X3451Y2262D01*
X3440D01*
X3417Y2262D01*
X3395Y2265D01*
X3375Y2269D01*
X3355Y2275D01*
X3338Y2282D01*
X3321Y2289D01*
X3305Y2297D01*
X3292Y2305D01*
X3279Y2313D01*
X3269Y2321D01*
X3260Y2328D01*
X3252Y2334D01*
X3245Y2340D01*
X3241Y2345D01*
X3239Y2347D01*
X3238Y2348D01*
X3224Y2365D01*
X3212Y2384D01*
X3202Y2405D01*
X3193Y2426D01*
X3186Y2447D01*
X3179Y2469D01*
X3174Y2490D01*
X3170Y2511D01*
X3168Y2531D01*
X3165Y2549D01*
X3163Y2565D01*
X3162Y2580D01*
Y2592D01*
X3161Y2601D01*
Y2604D01*
Y2607D01*
Y2608D01*
Y2608D01*
X3162Y2638D01*
X3164Y2665D01*
X3168Y2691D01*
X3173Y2715D01*
X3179Y2736D01*
X3185Y2756D01*
X3192Y2774D01*
X3199Y2791D01*
X3206Y2806D01*
X3213Y2817D01*
X3219Y2828D01*
X3225Y2837D01*
X3230Y2844D01*
X3234Y2848D01*
X3236Y2851D01*
X3237Y2852D01*
X3252Y2866D01*
X3267Y2879D01*
X3284Y2890D01*
X3301Y2899D01*
X3318Y2908D01*
X3335Y2914D01*
X3352Y2920D01*
X3368Y2924D01*
X3383Y2927D01*
X3397Y2930D01*
X3410Y2932D01*
X3421Y2933D01*
X3429D01*
X3436Y2934D01*
X3442D01*
X3458Y2933D01*
X3472Y2932D01*
X3500Y2927D01*
X3513Y2924D01*
X3525Y2921D01*
X3535Y2917D01*
X3545Y2913D01*
X3553Y2909D01*
X3562Y2905D01*
X3568Y2902D01*
X3574Y2899D01*
X3578Y2896D01*
X3581Y2893D01*
X3583Y2893D01*
X3584Y2892D01*
X3603Y2875D01*
X3620Y2857D01*
X3634Y2838D01*
X3644Y2820D01*
X3652Y2804D01*
X3655Y2797D01*
X3657Y2791D01*
X3659Y2786D01*
X3661Y2783D01*
X3662Y2780D01*
Y2779D01*
X3857Y2816D01*
X3851Y2840D01*
X3843Y2863D01*
X3834Y2885D01*
X3824Y2904D01*
X3813Y2924D01*
X3802Y2941D01*
X3791Y2957D01*
X3780Y2970D01*
X3769Y2983D01*
X3759Y2994D01*
X3750Y3003D01*
X3741Y3012D01*
X3734Y3018D01*
X3729Y3022D01*
X3726Y3025D01*
X3725Y3025D01*
X3705Y3039D01*
X3684Y3051D01*
X3662Y3061D01*
X3638Y3070D01*
X3614Y3077D01*
X3591Y3084D01*
X3568Y3089D01*
X3546Y3093D01*
X3525Y3096D01*
X3504Y3098D01*
X3487Y3100D01*
X3472Y3102D01*
X3459D01*
X3454Y3102D01*
X3870D01*
D02*
G37*
G36*
X5852Y3085D02*
X5034D01*
Y2110D01*
X5852D01*
X5425D01*
X5444Y2111D01*
X5461Y2112D01*
X5478Y2114D01*
X5494Y2115D01*
X5508Y2117D01*
X5521Y2119D01*
X5533Y2120D01*
X5544Y2122D01*
X5553Y2124D01*
X5560Y2125D01*
X5567Y2127D01*
X5572Y2129D01*
X5576Y2130D01*
X5578Y2131D01*
X5579D01*
X5595Y2136D01*
X5610Y2142D01*
X5624Y2148D01*
X5637Y2154D01*
X5650Y2161D01*
X5661Y2168D01*
X5672Y2174D01*
X5681Y2180D01*
X5690Y2186D01*
X5697Y2191D01*
X5703Y2196D01*
X5708Y2200D01*
X5713Y2203D01*
X5715Y2206D01*
X5717Y2208D01*
X5718Y2208D01*
X5730Y2221D01*
X5741Y2235D01*
X5763Y2263D01*
X5780Y2292D01*
X5796Y2319D01*
X5801Y2332D01*
X5807Y2344D01*
X5812Y2354D01*
X5815Y2363D01*
X5818Y2371D01*
X5820Y2376D01*
X5822Y2380D01*
Y2381D01*
X5832Y2415D01*
X5840Y2450D01*
X5845Y2485D01*
X5847Y2501D01*
X5849Y2517D01*
X5850Y2532D01*
X5851Y2546D01*
X5851Y2558D01*
Y2568D01*
X5852Y2576D01*
Y2614D01*
X5851Y2637D01*
X5850Y2660D01*
X5847Y2682D01*
X5845Y2702D01*
X5842Y2721D01*
X5840Y2739D01*
X5836Y2755D01*
X5833Y2769D01*
X5830Y2782D01*
X5828Y2793D01*
X5825Y2801D01*
X5823Y2809D01*
X5822Y2814D01*
X5820Y2817D01*
Y2818D01*
X5807Y2852D01*
X5800Y2868D01*
X5792Y2882D01*
X5784Y2897D01*
X5776Y2910D01*
X5769Y2921D01*
X5761Y2932D01*
X5754Y2943D01*
X5747Y2951D01*
X5741Y2959D01*
X5736Y2965D01*
X5732Y2970D01*
X5729Y2974D01*
X5727Y2976D01*
X5726Y2976D01*
X5714Y2988D01*
X5703Y2999D01*
X5690Y3009D01*
X5678Y3018D01*
X5665Y3026D01*
X5653Y3033D01*
X5631Y3046D01*
X5620Y3051D01*
X5610Y3055D01*
X5602Y3058D01*
X5594Y3061D01*
X5588Y3063D01*
X5584Y3065D01*
X5581Y3066D01*
X5580D01*
X5567Y3069D01*
X5554Y3073D01*
X5524Y3077D01*
X5493Y3080D01*
X5463Y3083D01*
X5449Y3084D01*
X5436Y3085D01*
X5424D01*
X5414Y3085D01*
X5852D01*
D02*
G37*
G36*
X4827D02*
X4054D01*
Y2110D01*
X4827D01*
Y3085D01*
D02*
G37*
%LPD*%
G36*
X3416Y3102D02*
X3392Y3101D01*
X3368Y3098D01*
X3346Y3095D01*
X3326Y3091D01*
X3306Y3087D01*
X3289Y3082D01*
X3272Y3078D01*
X3258Y3074D01*
X3245Y3069D01*
X3234Y3064D01*
X3225Y3061D01*
X3218Y3058D01*
X3212Y3056D01*
X3209Y3054D01*
X3208Y3053D01*
X3185Y3041D01*
X3165Y3027D01*
X3145Y3013D01*
X3127Y2998D01*
X3110Y2983D01*
X3095Y2968D01*
X3081Y2953D01*
X3069Y2938D01*
X3058Y2925D01*
X3047Y2912D01*
X3040Y2901D01*
X3033Y2891D01*
X3028Y2882D01*
X3025Y2877D01*
X3022Y2873D01*
X3021Y2871D01*
X3010Y2849D01*
X3000Y2826D01*
X2992Y2803D01*
X2985Y2779D01*
X2978Y2756D01*
X2973Y2734D01*
X2969Y2712D01*
X2965Y2692D01*
X2963Y2673D01*
X2961Y2655D01*
X2960Y2640D01*
X2959Y2626D01*
Y2616D01*
X2958Y2608D01*
Y3102D01*
X3442D01*
X3416Y3102D01*
D02*
G37*
G36*
X5379Y2920D02*
X5396Y2919D01*
X5411Y2918D01*
X5424D01*
X5436Y2917D01*
X5446Y2916D01*
X5455Y2915D01*
X5462Y2915D01*
X5468Y2914D01*
X5473Y2913D01*
X5478Y2912D01*
X5480D01*
X5481Y2911D01*
X5482D01*
X5501Y2905D01*
X5519Y2899D01*
X5534Y2891D01*
X5548Y2883D01*
X5558Y2876D01*
X5566Y2871D01*
X5571Y2866D01*
X5572Y2865D01*
X5585Y2851D01*
X5597Y2836D01*
X5606Y2820D01*
X5615Y2805D01*
X5620Y2791D01*
X5623Y2785D01*
X5626Y2780D01*
X5627Y2776D01*
X5628Y2773D01*
X5629Y2771D01*
Y2770D01*
X5632Y2758D01*
X5636Y2745D01*
X5641Y2718D01*
X5644Y2689D01*
X5647Y2661D01*
X5648Y2648D01*
X5648Y2636D01*
Y2625D01*
X5649Y2616D01*
Y2608D01*
Y2603D01*
Y2599D01*
Y2597D01*
Y2577D01*
X5648Y2557D01*
X5648Y2539D01*
X5646Y2521D01*
X5644Y2505D01*
X5642Y2491D01*
X5641Y2477D01*
X5639Y2465D01*
X5637Y2454D01*
X5636Y2445D01*
X5634Y2437D01*
X5632Y2430D01*
X5631Y2425D01*
X5630Y2421D01*
X5629Y2419D01*
Y2418D01*
X5625Y2406D01*
X5620Y2395D01*
X5612Y2376D01*
X5604Y2360D01*
X5595Y2347D01*
X5588Y2337D01*
X5582Y2330D01*
X5578Y2326D01*
X5577Y2324D01*
X5564Y2315D01*
X5551Y2306D01*
X5538Y2300D01*
X5526Y2294D01*
X5515Y2290D01*
X5505Y2287D01*
X5502Y2286D01*
X5500Y2285D01*
X5499Y2284D01*
X5498D01*
X5490Y2283D01*
X5482Y2281D01*
X5463Y2279D01*
X5444Y2278D01*
X5424Y2276D01*
X5406D01*
X5399Y2275D01*
X5231D01*
Y2921D01*
X5361D01*
X5379Y2920D01*
D02*
G37*
G36*
X4644Y2433D02*
X4245Y3085D01*
X4644D01*
Y2433D01*
D02*
G37*
G36*
X4629Y2110D02*
X4237D01*
Y2747D01*
X4629Y2110D01*
D02*
G37*
%LPC*%
G36*
X26323Y3088D02*
D01*
Y2815D01*
X26322Y2836D01*
X26319Y2857D01*
X26315Y2876D01*
X26310Y2895D01*
X26303Y2912D01*
X26297Y2928D01*
X26289Y2942D01*
X26281Y2956D01*
X26274Y2967D01*
X26266Y2978D01*
X26259Y2988D01*
X26253Y2995D01*
X26248Y3001D01*
X26243Y3006D01*
X26241Y3008D01*
X26240Y3009D01*
X26224Y3022D01*
X26206Y3035D01*
X26188Y3045D01*
X26170Y3055D01*
X26150Y3062D01*
X26132Y3068D01*
X26113Y3073D01*
X26095Y3077D01*
X26078Y3081D01*
X26063Y3083D01*
X26049Y3085D01*
X26037Y3087D01*
X26027D01*
X26020Y3088D01*
X26013D01*
X25989Y3087D01*
X25966Y3085D01*
X25944Y3082D01*
X25924Y3077D01*
X25904Y3072D01*
X25886Y3066D01*
X25869Y3060D01*
X25854Y3054D01*
X25840Y3048D01*
X25828Y3041D01*
X25818Y3036D01*
X25809Y3031D01*
X25803Y3026D01*
X25798Y3022D01*
X25794Y3021D01*
X25793Y3020D01*
X25778Y3006D01*
X25764Y2991D01*
X25751Y2975D01*
X25740Y2957D01*
X25730Y2939D01*
X25721Y2921D01*
X25715Y2902D01*
X25709Y2885D01*
X25703Y2868D01*
X25699Y2852D01*
X25696Y2837D01*
X25694Y2825D01*
X25691Y2814D01*
X25690Y2806D01*
X25689Y2801D01*
Y2800D01*
Y2799D01*
X25875Y2781D01*
X25877Y2795D01*
X25879Y2809D01*
X25881Y2821D01*
X25884Y2833D01*
X25887Y2844D01*
X25891Y2853D01*
X25894Y2862D01*
X25897Y2869D01*
X25901Y2876D01*
X25904Y2882D01*
X25907Y2886D01*
X25910Y2891D01*
X25912Y2894D01*
X25913Y2896D01*
X25915Y2897D01*
X25930Y2909D01*
X25945Y2918D01*
X25960Y2924D01*
X25974Y2929D01*
X25988Y2931D01*
X25994Y2932D01*
X25999D01*
X26002Y2933D01*
X26008D01*
X26029Y2931D01*
X26048Y2928D01*
X26064Y2922D01*
X26077Y2916D01*
X26088Y2910D01*
X26095Y2904D01*
X26100Y2901D01*
X26101Y2899D01*
X26112Y2885D01*
X26121Y2869D01*
X26127Y2853D01*
X26131Y2838D01*
X26133Y2825D01*
X26134Y2818D01*
Y2813D01*
X26135Y2808D01*
Y2805D01*
Y2803D01*
Y2803D01*
Y2792D01*
X26133Y2781D01*
X26129Y2761D01*
X26122Y2742D01*
X26116Y2724D01*
X26109Y2710D01*
X26105Y2704D01*
X26102Y2699D01*
X26100Y2694D01*
X26098Y2691D01*
X26097Y2689D01*
X26096Y2688D01*
X26089Y2680D01*
X26081Y2670D01*
X26072Y2658D01*
X26060Y2645D01*
X26048Y2633D01*
X26034Y2619D01*
X26008Y2593D01*
X25995Y2580D01*
X25983Y2568D01*
X25972Y2557D01*
X25962Y2548D01*
X25953Y2539D01*
X25947Y2534D01*
X25943Y2530D01*
X25941Y2529D01*
X25913Y2502D01*
X25887Y2477D01*
X25864Y2453D01*
X25842Y2430D01*
X25823Y2410D01*
X25806Y2391D01*
X25791Y2373D01*
X25777Y2357D01*
X25765Y2342D01*
X25756Y2330D01*
X25748Y2320D01*
X25742Y2310D01*
X25737Y2304D01*
X25733Y2298D01*
X25732Y2295D01*
X25731Y2294D01*
X25721Y2277D01*
X25713Y2261D01*
X25705Y2244D01*
X25699Y2228D01*
X25688Y2197D01*
X25683Y2182D01*
X25679Y2168D01*
X25676Y2155D01*
X25673Y2144D01*
X25672Y2134D01*
X25670Y2125D01*
X25669Y2117D01*
X25668Y2112D01*
X25667Y2109D01*
Y2108D01*
X26323D01*
Y3088D01*
D02*
G37*
%LPD*%
G36*
Y2282D02*
X25951D01*
X25957Y2291D01*
X25962Y2300D01*
X25969Y2309D01*
X25975Y2316D01*
X25980Y2323D01*
X25984Y2328D01*
X25988Y2331D01*
X25989Y2332D01*
X25994Y2338D01*
X26001Y2345D01*
X26008Y2353D01*
X26017Y2361D01*
X26034Y2379D01*
X26054Y2397D01*
X26072Y2413D01*
X26080Y2421D01*
X26087Y2428D01*
X26093Y2433D01*
X26097Y2437D01*
X26100Y2440D01*
X26101Y2441D01*
X26117Y2456D01*
X26132Y2469D01*
X26145Y2482D01*
X26158Y2495D01*
X26169Y2506D01*
X26179Y2516D01*
X26188Y2525D01*
X26196Y2534D01*
X26203Y2541D01*
X26209Y2548D01*
X26214Y2553D01*
X26217Y2557D01*
X26220Y2561D01*
X26222Y2564D01*
X26224Y2565D01*
Y2566D01*
X26242Y2589D01*
X26258Y2612D01*
X26270Y2633D01*
X26281Y2652D01*
X26286Y2660D01*
X26289Y2668D01*
X26292Y2674D01*
X26295Y2680D01*
X26297Y2684D01*
X26298Y2688D01*
X26299Y2689D01*
Y2690D01*
X26307Y2713D01*
X26313Y2735D01*
X26317Y2756D01*
X26320Y2775D01*
X26321Y2784D01*
X26322Y2792D01*
Y2798D01*
X26323Y2804D01*
Y2282D01*
D02*
G37*
%LPC*%
G36*
X47962Y3096D02*
Y2622D01*
X47961Y2647D01*
X47959Y2671D01*
X47958Y2693D01*
X47956Y2715D01*
X47953Y2737D01*
X47950Y2757D01*
X47947Y2776D01*
X47943Y2795D01*
X47940Y2812D01*
X47936Y2829D01*
X47931Y2845D01*
X47923Y2874D01*
X47914Y2900D01*
X47905Y2923D01*
X47897Y2942D01*
X47888Y2958D01*
X47881Y2972D01*
X47875Y2982D01*
X47870Y2989D01*
X47867Y2993D01*
X47866Y2995D01*
X47851Y3012D01*
X47834Y3028D01*
X47816Y3042D01*
X47798Y3053D01*
X47780Y3063D01*
X47761Y3072D01*
X47743Y3078D01*
X47726Y3083D01*
X47709Y3088D01*
X47694Y3091D01*
X47680Y3093D01*
X47668Y3094D01*
X47658Y3095D01*
X47651Y3096D01*
X47645D01*
X47618Y3095D01*
X47595Y3092D01*
X47572Y3087D01*
X47550Y3080D01*
X47530Y3072D01*
X47513Y3064D01*
X47496Y3055D01*
X47481Y3046D01*
X47468Y3036D01*
X47456Y3028D01*
X47447Y3019D01*
X47438Y3011D01*
X47432Y3005D01*
X47427Y3000D01*
X47425Y2996D01*
X47424Y2995D01*
X47415Y2984D01*
X47407Y2971D01*
X47393Y2944D01*
X47380Y2914D01*
X47369Y2882D01*
X47360Y2850D01*
X47352Y2817D01*
X47345Y2784D01*
X47340Y2752D01*
X47336Y2721D01*
X47333Y2693D01*
X47331Y2666D01*
Y2655D01*
X47330Y2644D01*
X47329Y2634D01*
Y2625D01*
X47328Y2617D01*
Y2572D01*
X47329Y2548D01*
X47331Y2524D01*
X47332Y2501D01*
X47334Y2479D01*
X47337Y2458D01*
X47339Y2439D01*
X47342Y2419D01*
X47345Y2401D01*
X47349Y2384D01*
X47352Y2368D01*
X47356Y2352D01*
X47360Y2337D01*
X47364Y2324D01*
X47368Y2310D01*
X47372Y2298D01*
X47380Y2276D01*
X47387Y2258D01*
X47395Y2243D01*
X47402Y2230D01*
X47408Y2221D01*
X47412Y2214D01*
X47415Y2210D01*
X47415Y2209D01*
X47432Y2189D01*
X47450Y2172D01*
X47469Y2158D01*
X47488Y2145D01*
X47508Y2135D01*
X47526Y2127D01*
X47545Y2119D01*
X47563Y2113D01*
X47579Y2109D01*
X47595Y2106D01*
X47609Y2103D01*
X47621Y2101D01*
X47631Y2101D01*
X47639Y2100D01*
X47645D01*
X47671Y2101D01*
X47694Y2104D01*
X47718Y2109D01*
X47739Y2115D01*
X47759Y2123D01*
X47777Y2131D01*
X47793Y2140D01*
X47809Y2150D01*
X47821Y2159D01*
X47833Y2168D01*
X47843Y2177D01*
X47851Y2184D01*
X47857Y2190D01*
X47862Y2195D01*
X47865Y2199D01*
X47865Y2199D01*
X47874Y2211D01*
X47882Y2224D01*
X47897Y2251D01*
X47910Y2282D01*
X47921Y2313D01*
X47930Y2345D01*
X47938Y2379D01*
X47945Y2412D01*
X47950Y2444D01*
X47953Y2474D01*
X47957Y2503D01*
X47959Y2529D01*
Y2541D01*
X47960Y2552D01*
X47961Y2561D01*
Y2571D01*
X47962Y2578D01*
Y2100D01*
D01*
D01*
Y3096D01*
D02*
G37*
%LPD*%
G36*
X47657Y2940D02*
X47668Y2938D01*
X47678Y2934D01*
X47688Y2930D01*
X47694Y2926D01*
X47700Y2923D01*
X47704Y2920D01*
X47705Y2919D01*
X47710Y2915D01*
X47714Y2909D01*
X47723Y2896D01*
X47731Y2882D01*
X47737Y2868D01*
X47742Y2854D01*
X47744Y2848D01*
X47745Y2843D01*
X47747Y2839D01*
X47748Y2836D01*
X47749Y2834D01*
Y2833D01*
X47752Y2819D01*
X47755Y2804D01*
X47757Y2787D01*
X47759Y2769D01*
X47760Y2750D01*
X47762Y2730D01*
X47764Y2691D01*
X47765Y2672D01*
X47766Y2655D01*
Y2638D01*
X47766Y2625D01*
Y2613D01*
Y2605D01*
Y2601D01*
Y2599D01*
Y2598D01*
Y2597D01*
Y2566D01*
X47766Y2537D01*
X47765Y2511D01*
X47763Y2486D01*
X47762Y2464D01*
X47760Y2445D01*
X47759Y2427D01*
X47757Y2411D01*
X47755Y2397D01*
X47753Y2386D01*
X47751Y2375D01*
X47750Y2367D01*
X47749Y2361D01*
X47748Y2357D01*
X47747Y2354D01*
Y2353D01*
X47741Y2334D01*
X47734Y2318D01*
X47727Y2304D01*
X47720Y2293D01*
X47714Y2286D01*
X47709Y2280D01*
X47705Y2276D01*
X47705Y2276D01*
X47694Y2269D01*
X47684Y2264D01*
X47674Y2260D01*
X47665Y2257D01*
X47656Y2255D01*
X47651Y2254D01*
X47645D01*
X47632Y2255D01*
X47621Y2258D01*
X47611Y2261D01*
X47602Y2265D01*
X47595Y2269D01*
X47590Y2272D01*
X47585Y2275D01*
X47585Y2276D01*
X47579Y2280D01*
X47575Y2286D01*
X47567Y2298D01*
X47559Y2312D01*
X47552Y2326D01*
X47547Y2340D01*
X47546Y2346D01*
X47544Y2351D01*
X47542Y2355D01*
X47541Y2358D01*
X47541Y2360D01*
Y2361D01*
X47538Y2375D01*
X47535Y2390D01*
X47533Y2407D01*
X47530Y2425D01*
X47530Y2444D01*
X47528Y2464D01*
X47526Y2503D01*
X47525Y2522D01*
X47524Y2539D01*
Y2556D01*
X47524Y2569D01*
Y2581D01*
Y2589D01*
Y2593D01*
Y2595D01*
Y2596D01*
Y2597D01*
Y2628D01*
X47524Y2657D01*
X47525Y2683D01*
X47526Y2708D01*
X47528Y2730D01*
X47530Y2750D01*
X47531Y2768D01*
X47533Y2784D01*
X47535Y2797D01*
X47536Y2809D01*
X47538Y2819D01*
X47540Y2827D01*
X47541Y2834D01*
X47541Y2838D01*
X47542Y2841D01*
Y2841D01*
X47548Y2861D01*
X47555Y2877D01*
X47562Y2891D01*
X47568Y2902D01*
X47574Y2909D01*
X47579Y2915D01*
X47583Y2918D01*
X47584Y2919D01*
X47594Y2927D01*
X47605Y2932D01*
X47615Y2936D01*
X47624Y2939D01*
X47633Y2940D01*
X47639Y2941D01*
X47645D01*
X47657Y2940D01*
D02*
G37*
D11*
X20484Y26700D02*
X20534Y26750D01*
X20043Y26700D02*
X20484D01*
X20043Y26700D02*
X20043Y26700D01*
X19450Y26700D02*
X20043D01*
X20534Y26750D02*
X21500D01*
X19000Y26250D02*
X19450Y26700D01*
X20500Y24250D02*
X21500D01*
X20000Y23750D02*
X20500Y24250D01*
X29885Y11900D02*
X30985Y13000D01*
X21293Y11900D02*
X29885D01*
X21143Y11750D02*
X21293Y11900D01*
X19500Y11750D02*
X21143D01*
X4100Y28000D02*
X7300D01*
X20605Y12895D02*
X20750Y12750D01*
X20605Y12895D02*
Y14138D01*
X18590Y16153D02*
Y19150D01*
Y16153D02*
X20605Y14138D01*
X4200Y31800D02*
X6919D01*
X4200Y26800D02*
X7119D01*
X16400Y19600D02*
Y21119D01*
X16500Y21219D01*
Y21300D01*
X13500Y19100D02*
Y20900D01*
X4200Y25500D02*
X6800D01*
X22100Y21500D02*
X24300D01*
X21800Y21800D02*
X22100Y21500D01*
X9500Y18950D02*
X9700Y19150D01*
X9500Y17200D02*
Y18950D01*
X9700Y19150D02*
Y22000D01*
X4165Y30600D02*
X7300D01*
X4125Y30560D02*
X4165Y30600D01*
X4400Y29300D02*
X7119D01*
X21800Y23000D02*
X23400D01*
X17600Y19400D02*
Y20700D01*
X21625Y35640D02*
X22860D01*
X4000Y33200D02*
X4200Y33000D01*
X6900D01*
X20100Y34500D02*
X21500D01*
X4200Y24200D02*
X8600D01*
X21500Y25500D02*
X22819D01*
X4000Y22900D02*
X5183D01*
X21600Y30600D02*
X22900D01*
X21700Y28100D02*
X23600D01*
X21500Y21700D02*
X21600Y21600D01*
X15900Y19100D02*
X16400Y19600D01*
X17300Y19100D02*
X17600Y19400D01*
X21500Y34500D02*
X21600Y34400D01*
X9700Y19000D02*
Y19150D01*
X13500Y19100D02*
X13600Y19000D01*
X23500Y29200D02*
X23900Y28800D01*
X21700Y29200D02*
X23500D01*
X21600Y29300D02*
X21700Y29200D01*
X22900Y30600D02*
X23900Y29600D01*
X5583Y23300D02*
X7600D01*
X5183Y22900D02*
X5583Y23300D01*
X22919Y25600D02*
X23000D01*
X22819Y25500D02*
X22919Y25600D01*
X8600Y24200D02*
X9400Y25000D01*
X22860Y35640D02*
X23200Y35300D01*
X7219Y29200D02*
X7300D01*
X7119Y29300D02*
X7219Y29200D01*
X6800Y25500D02*
X7300Y26000D01*
X7219Y26700D02*
X7300D01*
X7119Y26800D02*
X7219Y26700D01*
X7019Y31900D02*
X7100D01*
X6919Y31800D02*
X7019Y31900D01*
X21500Y8300D02*
Y11145D01*
X16400Y17200D02*
X16400Y17200D01*
X15400Y17200D02*
X16400D01*
X12000Y17900D02*
X12600D01*
X48100Y16000D02*
X48125Y16025D01*
X50075D01*
X50100Y16000D01*
X40750Y36050D02*
X40943Y35857D01*
X41343D01*
X41400Y35800D01*
X40600Y36150D02*
Y36200D01*
Y36150D02*
X40700Y36050D01*
X40750D01*
X8300Y15400D02*
Y16200D01*
X8300Y16200D01*
X10700Y15400D02*
Y16200D01*
X39200Y33100D02*
X41100D01*
X41225Y33225D02*
Y34500D01*
X41100Y33100D02*
X41225Y33225D01*
X40663Y16626D02*
X40663Y16626D01*
Y16326D02*
Y16626D01*
X42225Y16626D02*
X42225Y16626D01*
Y16326D02*
Y16626D01*
X38825Y22800D02*
Y23200D01*
X38663Y22619D02*
Y22637D01*
X37906Y21863D02*
X38663Y22619D01*
Y22637D02*
X38825Y22800D01*
X37178Y21863D02*
X37906D01*
X48377Y32152D02*
X49425D01*
X48375Y32150D02*
X48377Y32152D01*
X37940Y22515D02*
X38170Y22745D01*
Y23145D01*
X38225Y23200D01*
X36662Y22515D02*
X37940D01*
X36496Y22600D02*
X36577D01*
X36662Y22515D01*
X48393Y31533D02*
X49968D01*
X48375Y31550D02*
X48393Y31533D01*
X49968D02*
X49985Y31515D01*
X10700Y16200D02*
X10725Y16175D01*
D13*
X36065Y13000D02*
X36192Y13127D01*
X4125Y21670D02*
X6870D01*
X14800Y19000D02*
Y21300D01*
X15300Y21800D01*
X8107Y18827D02*
X8430Y19150D01*
X8107Y17373D02*
Y18827D01*
X10923Y17758D02*
X11173Y18008D01*
X10700Y17200D02*
X10750D01*
X10923Y17373D01*
Y17758D01*
X4125Y20400D02*
X4425Y20700D01*
X6900D01*
X11173Y18008D02*
Y18947D01*
X10970Y19150D02*
X11173Y18947D01*
X15775Y26757D02*
Y27400D01*
X14668Y25650D02*
X15775Y26757D01*
X11850Y25650D02*
X14668D01*
X6900Y20700D02*
X11850Y25650D01*
X8107Y17373D02*
X8280Y17200D01*
X8300D01*
X15125Y26857D02*
Y27400D01*
X14448Y26180D02*
X15125Y26857D01*
X11380Y26180D02*
X14448D01*
X6870Y21670D02*
X11380Y26180D01*
X24600Y20000D02*
X25475Y20875D01*
X24100Y20000D02*
X24600D01*
X25475Y20875D02*
X25550D01*
X29850Y36850D02*
Y37750D01*
X29800Y37800D02*
X30100Y38100D01*
X29800Y37800D02*
X29850Y37750D01*
X28700Y38900D02*
X29800Y37800D01*
X24200Y36700D02*
Y38200D01*
Y36700D02*
X24200Y36700D01*
X24200Y38200D02*
X24900Y38900D01*
X28700D01*
X30600Y38100D02*
X30850Y37850D01*
X30100Y38100D02*
X30600D01*
X30850Y36850D02*
Y37850D01*
X44775Y38825D02*
Y41327D01*
Y38825D02*
X44787Y38812D01*
Y37812D02*
Y38812D01*
X44775Y41327D02*
X44800Y41352D01*
X44787Y37812D02*
X44800Y37800D01*
D19*
X1235Y2450D02*
D03*
X10125D02*
D03*
X11395D02*
D03*
X7585D02*
D03*
X8855D02*
D03*
X20285D02*
D03*
X19015D02*
D03*
X17745D02*
D03*
X21555D02*
D03*
X22825D02*
D03*
X30445D02*
D03*
X29175D02*
D03*
X32985D02*
D03*
X34255D02*
D03*
X31715D02*
D03*
X43145D02*
D03*
X40605D02*
D03*
X41875D02*
D03*
X50765D02*
D03*
X44415D02*
D03*
D20*
X12775Y30590D02*
D03*
Y29190D02*
D03*
Y27790D02*
D03*
X11375D02*
D03*
X9975D02*
D03*
Y29190D02*
D03*
Y30590D02*
D03*
X11375D02*
D03*
Y29190D02*
D03*
X33363Y28490D02*
D03*
X33200Y33000D02*
D03*
X30100Y24800D02*
D03*
X43950Y18975D02*
D03*
X45550D02*
D03*
X31700Y24800D02*
D03*
X23600Y33600D02*
D03*
X25200D02*
D03*
X34800Y33000D02*
D03*
X34963Y28490D02*
D03*
D21*
X21625Y36910D02*
D03*
Y35640D02*
D03*
Y34370D02*
D03*
Y33100D02*
D03*
Y31830D02*
D03*
Y30560D02*
D03*
Y29290D02*
D03*
Y28020D02*
D03*
Y20400D02*
D03*
X4125D02*
D03*
Y21670D02*
D03*
Y25480D02*
D03*
Y29290D02*
D03*
Y30560D02*
D03*
Y31830D02*
D03*
Y33100D02*
D03*
Y34370D02*
D03*
Y36910D02*
D03*
Y24210D02*
D03*
Y35640D02*
D03*
X21625Y26750D02*
D03*
Y25480D02*
D03*
Y24210D02*
D03*
Y22940D02*
D03*
Y21670D02*
D03*
X4125Y22940D02*
D03*
Y26750D02*
D03*
Y28020D02*
D03*
D22*
X19860Y19150D02*
D03*
X18590D02*
D03*
X17320D02*
D03*
X16050D02*
D03*
X14780D02*
D03*
X13510D02*
D03*
X12240D02*
D03*
X10970D02*
D03*
X9700D02*
D03*
X8430D02*
D03*
X7160D02*
D03*
X5890D02*
D03*
D23*
X40025Y23200D02*
D03*
X39425D02*
D03*
X41825D02*
D03*
X41225D02*
D03*
X44825D02*
D03*
X46025Y34500D02*
D03*
X45425D02*
D03*
X44225D02*
D03*
X43625D02*
D03*
X41225D02*
D03*
X39425D02*
D03*
X38825D02*
D03*
X40625D02*
D03*
X44225Y23200D02*
D03*
X45425D02*
D03*
X38825D02*
D03*
X44825Y34500D02*
D03*
X38225D02*
D03*
X40025D02*
D03*
X41825D02*
D03*
X42425D02*
D03*
X43025D02*
D03*
X46625D02*
D03*
X47225D02*
D03*
Y23200D02*
D03*
X46625D02*
D03*
X46025D02*
D03*
X43625D02*
D03*
X43025D02*
D03*
X42425D02*
D03*
X40625D02*
D03*
D24*
X1975Y34500D02*
D03*
X1952Y35543D02*
D03*
X38700Y42200D02*
D03*
Y40600D02*
D03*
X1952Y37143D02*
D03*
X1975Y32900D02*
D03*
D25*
X37075Y29750D02*
D03*
X48375Y30950D02*
D03*
X37075Y31550D02*
D03*
Y29150D02*
D03*
Y30350D02*
D03*
Y30950D02*
D03*
X48375Y24350D02*
D03*
Y31550D02*
D03*
Y32150D02*
D03*
X37075Y24350D02*
D03*
Y24950D02*
D03*
Y25550D02*
D03*
Y26150D02*
D03*
Y26750D02*
D03*
Y27350D02*
D03*
Y27950D02*
D03*
Y28550D02*
D03*
Y32150D02*
D03*
Y32750D02*
D03*
Y33350D02*
D03*
X48375D02*
D03*
Y32750D02*
D03*
Y30350D02*
D03*
Y29750D02*
D03*
Y29150D02*
D03*
Y28550D02*
D03*
Y27950D02*
D03*
Y27350D02*
D03*
Y26750D02*
D03*
Y26150D02*
D03*
Y25550D02*
D03*
Y24950D02*
D03*
D26*
X27000Y31500D02*
D03*
X24700D02*
D03*
X29300D02*
D03*
D27*
X27000Y25200D02*
D03*
D28*
X25550Y19125D02*
D03*
X29050D02*
D03*
Y20875D02*
D03*
X25550D02*
D03*
D29*
X1600Y28600D02*
D03*
X13100Y16200D02*
D03*
X39100Y17800D02*
D03*
X38000D02*
D03*
X40663Y16326D02*
D03*
X42225Y16326D02*
D03*
X39436Y20319D02*
D03*
X35300Y26500D02*
D03*
X9500Y16200D02*
D03*
X15400D02*
D03*
X48100Y15000D02*
D03*
X41600Y21400D02*
D03*
Y20400D02*
D03*
X48100Y16000D02*
D03*
X14300Y17200D02*
D03*
Y16200D02*
D03*
X15400Y17200D02*
D03*
X9500D02*
D03*
X12000D02*
D03*
Y16200D02*
D03*
X35300Y25500D02*
D03*
X45500Y14000D02*
D03*
Y13000D02*
D03*
X44200Y14000D02*
D03*
Y13000D02*
D03*
X39436Y19319D02*
D03*
X42225Y15326D02*
D03*
X40663Y15325D02*
D03*
X38000Y16800D02*
D03*
X39100D02*
D03*
X13100Y17200D02*
D03*
X1600Y27600D02*
D03*
X1600Y25100D02*
D03*
Y26100D02*
D03*
X8300Y16200D02*
D03*
Y17200D02*
D03*
X10700Y16200D02*
D03*
Y17200D02*
D03*
D30*
X37700Y20400D02*
D03*
X25600Y17200D02*
D03*
X39500Y36300D02*
D03*
X40500D02*
D03*
X26600Y17200D02*
D03*
X34700Y31500D02*
D03*
X33700D02*
D03*
X34700Y30300D02*
D03*
X33700D02*
D03*
X45100Y20600D02*
D03*
X44100D02*
D03*
X40500Y37500D02*
D03*
X39500D02*
D03*
X36700Y20400D02*
D03*
X45750Y38900D02*
D03*
X44750D02*
D03*
X45825Y35925D02*
D03*
X44825D02*
D03*
D31*
X44800Y37800D02*
D03*
Y36800D02*
D03*
D32*
X44475Y16513D02*
D03*
X46390D02*
D03*
D33*
X26900Y36850D02*
D03*
X27700D02*
D03*
X32500D02*
D03*
X33300D02*
D03*
D34*
X28350D02*
D03*
X28850D02*
D03*
X29350D02*
D03*
X29850D02*
D03*
X30350D02*
D03*
X30850D02*
D03*
X31350D02*
D03*
X31850D02*
D03*
D35*
X39925Y26050D02*
D03*
Y28850D02*
D03*
Y31650D02*
D03*
X42725Y26050D02*
D03*
Y28850D02*
D03*
Y31650D02*
D03*
X45525Y26050D02*
D03*
Y28850D02*
D03*
Y31650D02*
D03*
D36*
X38225Y23200D02*
D03*
D37*
X36800Y42550D02*
D03*
Y40450D02*
D03*
D66*
X47340Y42368D02*
D03*
X42260D02*
D03*
D67*
X44800Y41352D02*
D03*
D68*
X9500Y16200D02*
X9500Y16200D01*
X37825Y20225D02*
Y20575D01*
X37800Y17800D02*
Y18419D01*
X29800Y24500D02*
X30100Y24800D01*
X26900Y25100D02*
X27200Y24800D01*
X2400Y27600D02*
X2829Y28030D01*
X1600Y27600D02*
X2400D01*
X14000Y17500D02*
Y17900D01*
X14300Y17200D02*
X14300Y17200D01*
X14100Y17350D02*
X14250Y17200D01*
X14300D02*
X14300D01*
X14250D02*
X14300D01*
X14100Y17350D02*
Y17400D01*
X14000Y17500D02*
X14100Y17400D01*
X14300Y17200D02*
X15400D01*
X12000Y18800D02*
X12300Y19100D01*
X12000Y17900D02*
Y18800D01*
X2829Y28030D02*
Y33428D01*
X3471Y34070D01*
X3525D01*
X3825Y34370D01*
X4125D01*
X13600Y18900D02*
X13810Y18690D01*
Y18090D02*
Y18690D01*
Y18090D02*
X14000Y17900D01*
X37800Y17800D02*
X37900Y17700D01*
X37600Y18619D02*
X37800Y18419D01*
X37600Y18619D02*
Y18700D01*
X27000Y29900D02*
Y31500D01*
X29100Y23500D02*
X29800Y24200D01*
Y24500D01*
X25600Y17200D02*
Y19100D01*
X25600Y17200D02*
X25600Y17200D01*
Y19100D02*
X25600Y19100D01*
X38000Y17800D02*
X39100D01*
X39150Y17850D02*
X40128D01*
X39100Y17800D02*
X39150Y17850D01*
X41190Y23165D02*
X41225Y23200D01*
X41190Y22276D02*
Y23165D01*
X40579Y21665D02*
X41190Y22276D01*
X40579Y18301D02*
Y21665D01*
X40128Y17850D02*
X40579Y18301D01*
X38417Y21167D02*
Y21182D01*
X37825Y20575D02*
X38417Y21167D01*
Y21182D02*
X39425Y22190D01*
X36842Y19242D02*
X37825Y20225D01*
X39425Y22190D02*
Y23200D01*
X12000Y17200D02*
Y17900D01*
X48150Y15000D02*
X49075Y14075D01*
X50025D01*
X48100Y15000D02*
X48150D01*
X50025Y14075D02*
X50100Y14000D01*
X33200Y33000D02*
Y34200D01*
X33200Y34200D01*
X34700Y28700D02*
Y30300D01*
Y28700D02*
X34900Y28500D01*
X38700Y42200D02*
Y43200D01*
X38700Y43200D01*
X38400Y36500D02*
X38600Y36300D01*
X39500D01*
X9500Y15400D02*
Y16200D01*
X15400D02*
X15400Y16200D01*
X15400Y15400D02*
Y16200D01*
X13100Y15400D02*
X13100Y15400D01*
Y16200D01*
X34106Y26400D02*
X34206Y26500D01*
X34000Y26400D02*
X34106D01*
X34206Y26500D02*
X35300D01*
X43950Y18050D02*
Y18975D01*
Y18050D02*
X44250Y17750D01*
X38500Y19750D02*
Y19804D01*
X38676Y19980D01*
Y20169D02*
X39286D01*
X38676Y19980D02*
Y20169D01*
X39286D02*
X39436Y20319D01*
X24800Y17200D02*
X25600D01*
X24750Y17250D02*
X24800Y17200D01*
X24700Y25200D02*
X27000D01*
X24000Y24500D02*
X24700Y25200D01*
X33863Y27491D02*
Y27573D01*
X33663Y27773D02*
X33863Y27573D01*
X33663Y27773D02*
Y28190D01*
X33363Y28490D02*
X33663Y28190D01*
X37040Y29715D02*
X37075Y29750D01*
X36443Y29715D02*
X37040D01*
X35991Y29263D02*
X36443Y29715D01*
X35991Y28190D02*
Y29263D01*
X35292Y27491D02*
X35991Y28190D01*
X33200Y33000D02*
X33200Y33000D01*
X41225Y17188D02*
Y17770D01*
X40663Y16626D02*
X41225Y17188D01*
X36389Y19185D02*
X36446Y19242D01*
X36842D01*
X27200Y24800D02*
X30100D01*
X30100Y24800D01*
X35292Y26508D02*
X35300Y26500D01*
X35292Y26508D02*
Y27491D01*
X40025Y21635D02*
Y23200D01*
X39500Y21110D02*
X40025Y21635D01*
X39500Y21100D02*
Y21110D01*
X39468Y21068D02*
X39500Y21100D01*
X39436Y20319D02*
X39468Y20351D01*
Y21068D01*
X42225Y16626D02*
X42450Y16851D01*
X42024Y21250D02*
X42450Y20824D01*
Y19790D02*
Y20824D01*
X42450Y19790D02*
X42450Y19790D01*
X42450Y16851D02*
Y19790D01*
X41600Y21400D02*
X41750Y21250D01*
X41813Y21412D02*
Y23188D01*
X41825Y23200D01*
X41750Y21250D02*
X42024D01*
X40590Y34810D02*
Y36210D01*
X40500Y36300D02*
X40590Y36210D01*
Y34810D02*
X40600Y34800D01*
X40500Y36300D02*
X40500Y36300D01*
X40500Y36300D02*
Y37500D01*
X42900Y19604D02*
Y21010D01*
X42900Y19603D02*
X42900Y19604D01*
X42900Y18196D02*
Y19603D01*
X44025Y16513D02*
X44475D01*
X44050Y14150D02*
X44200Y14000D01*
X44025Y14150D02*
X44050D01*
X42900Y21011D02*
Y21825D01*
Y21011D02*
X42900Y21010D01*
X42900Y21825D02*
X43590Y22515D01*
X42900Y18196D02*
X44025Y17071D01*
X44175Y14000D02*
X45593D01*
X44025Y14150D02*
Y16513D01*
Y14150D02*
X44175Y14000D01*
X12100Y17200D02*
X13100D01*
X12100Y17200D02*
X12100Y17200D01*
X45100Y20700D02*
X45200Y20600D01*
X45600Y19000D02*
Y20050D01*
X45100Y20550D02*
X45600Y20050D01*
X45100Y20550D02*
Y20600D01*
X44225Y22275D02*
X45100Y21400D01*
Y20700D02*
Y21400D01*
X44225Y22275D02*
Y23200D01*
X46847Y16513D02*
Y20963D01*
X46111Y21700D02*
X46847Y20963D01*
X45851Y21700D02*
X46111D01*
X45425Y22126D02*
X45851Y21700D01*
X34700Y32900D02*
X34800Y33000D01*
X34700Y31500D02*
Y32900D01*
X34700Y31450D02*
X35200Y30950D01*
X34700Y31450D02*
Y31500D01*
X35200Y30950D02*
X37075D01*
X34700Y30300D02*
X34725Y30325D01*
X37050D02*
X37075Y30350D01*
X34725Y30325D02*
X37050D01*
X1600Y26000D02*
Y27600D01*
X1600Y27600D02*
X1600Y27600D01*
X24200Y36040D02*
X25440Y34800D01*
X28574D02*
X29350Y35576D01*
X25440Y34800D02*
X28574D01*
X29350Y35576D02*
X29626Y35300D01*
X30350Y35476D02*
Y36850D01*
X29626Y35300D02*
X30174D01*
X30350Y35476D01*
X29350Y35576D02*
Y36850D01*
X45425Y22126D02*
Y23200D01*
X44025Y16513D02*
Y17071D01*
X43590Y22515D02*
Y23165D01*
X43625Y23200D01*
D69*
X27700Y35900D02*
Y36850D01*
X31300Y34900D02*
X32450Y36050D01*
Y36800D01*
X1975Y35371D02*
X2050Y35446D01*
X4125Y35640D02*
X5640D01*
X11375Y27790D02*
Y29190D01*
X9975D02*
X11375D01*
X12775D01*
X11375D02*
Y30590D01*
X5640Y35640D02*
X6250Y36250D01*
X1500Y28650D02*
X1550Y28600D01*
X1500Y28650D02*
Y29500D01*
X1550Y28600D02*
X1600D01*
X1975Y34500D02*
Y35371D01*
X24700Y31500D02*
X24800Y31400D01*
X25100D01*
X25200Y31500D02*
Y33600D01*
X25100Y31400D02*
X25200Y31500D01*
X25300Y33700D02*
X25400Y33600D01*
X26800D01*
X27000Y33800D01*
X25300Y33700D02*
Y33700D01*
X32450Y36800D02*
X32500Y36850D01*
D70*
X40663Y16626D02*
X42225D01*
D71*
X42725Y27350D02*
Y28850D01*
Y27325D02*
Y27350D01*
X42700Y27300D02*
X42725Y27325D01*
X42600Y30400D02*
X42725Y30275D01*
Y28850D02*
Y30275D01*
X44150Y28850D02*
X44200Y28800D01*
X42725Y28850D02*
X44150D01*
X39925D02*
X42725D01*
X39850D02*
X39925D01*
X39800Y28800D02*
X39850Y28850D01*
X41600Y20400D02*
X41600Y20400D01*
X41600Y19500D02*
Y20400D01*
X43700Y21050D02*
X44100Y20650D01*
X43700Y21050D02*
Y21400D01*
X44100Y20600D02*
Y20650D01*
X39634Y19122D02*
X39900Y18855D01*
Y18400D02*
Y18855D01*
X39436Y19319D02*
X39486D01*
X39634Y19172D01*
Y19122D02*
Y19172D01*
X45788Y38862D02*
X46838D01*
X46875Y38825D01*
X45750Y38900D02*
X45788Y38862D01*
X46945Y37100D02*
X47025D01*
X1190Y37143D02*
X1952D01*
X875Y37450D02*
X883D01*
X1190Y37143D01*
X46706Y36861D02*
X46945Y37100D01*
X46004Y36861D02*
X46706D01*
X45825Y36682D02*
X46004Y36861D01*
X45825Y35925D02*
Y36682D01*
D72*
X36800Y40500D02*
X38600D01*
X38700Y40600D01*
D73*
X44825Y35925D02*
Y36475D01*
Y36800D01*
X44800D02*
X44825D01*
Y34500D02*
Y35925D01*
Y34500D02*
X44825Y34500D01*
D74*
X38605Y13000D02*
D03*
X33525D02*
D03*
X30985D02*
D03*
X28445D02*
D03*
X25905D02*
D03*
X23365D02*
D03*
X20825D02*
D03*
X18285D02*
D03*
X15745D02*
D03*
X13205D02*
D03*
X36065D02*
D03*
D75*
X14595Y6950D02*
D03*
X4355D02*
D03*
X26005D02*
D03*
X47595D02*
D03*
X37385D02*
D03*
D76*
X50175Y14025D02*
D03*
Y12025D02*
D03*
Y16025D02*
D03*
Y18025D02*
D03*
D77*
X32990Y37920D02*
D03*
X27210D02*
D03*
D78*
X25780Y41600D02*
D03*
X34420D02*
D03*
D79*
X25780Y37420D02*
D03*
X34420D02*
D03*
D80*
X50175Y20025D02*
D03*
D81*
X19000Y26250D02*
D03*
X20000Y23750D02*
D03*
X15750Y17900D02*
D03*
X17250Y17750D02*
D03*
X19500Y11750D02*
D03*
X21500Y11400D02*
D03*
Y8300D02*
D03*
X7300Y26700D02*
D03*
Y26000D02*
D03*
X23500Y15250D02*
D03*
X9500Y15400D02*
D03*
X50250Y42200D02*
D03*
X49500Y40700D02*
D03*
X50250Y39200D02*
D03*
X49500Y37700D02*
D03*
X50250Y36200D02*
D03*
X49500Y34700D02*
D03*
X50250Y33200D02*
D03*
Y30200D02*
D03*
X49500Y28700D02*
D03*
X50250Y27200D02*
D03*
X49500Y25700D02*
D03*
X50250Y24200D02*
D03*
X49500Y22700D02*
D03*
X50250Y21200D02*
D03*
X48750Y42200D02*
D03*
Y39200D02*
D03*
X48000Y37700D02*
D03*
X48750Y36200D02*
D03*
X48000Y34700D02*
D03*
Y22700D02*
D03*
X48750Y21200D02*
D03*
X48000Y19700D02*
D03*
X48750Y12200D02*
D03*
X46500Y37700D02*
D03*
X47250Y36200D02*
D03*
Y30200D02*
D03*
Y27200D02*
D03*
X45750Y33200D02*
D03*
Y30200D02*
D03*
Y15200D02*
D03*
X43500Y37700D02*
D03*
X42750Y39200D02*
D03*
X42000Y37700D02*
D03*
X42750Y36200D02*
D03*
X40500Y40700D02*
D03*
X41250Y39200D02*
D03*
X39750Y42200D02*
D03*
Y39200D02*
D03*
Y30200D02*
D03*
Y12200D02*
D03*
X38250Y39200D02*
D03*
X37500Y37700D02*
D03*
Y34700D02*
D03*
X38250Y30200D02*
D03*
Y27200D02*
D03*
X36750Y39200D02*
D03*
X36000Y37700D02*
D03*
X36750Y36200D02*
D03*
X36000Y34700D02*
D03*
X35250Y39200D02*
D03*
Y36200D02*
D03*
X34500Y34700D02*
D03*
X35250Y24200D02*
D03*
X33000Y40700D02*
D03*
X33750Y39200D02*
D03*
X32250Y42200D02*
D03*
X31500Y40700D02*
D03*
X32250Y39200D02*
D03*
Y27200D02*
D03*
X30750Y42200D02*
D03*
X30000Y40700D02*
D03*
X30750Y39200D02*
D03*
Y33200D02*
D03*
X29250Y42200D02*
D03*
X28500Y40700D02*
D03*
X29250Y18200D02*
D03*
X27750Y42200D02*
D03*
X27000Y40700D02*
D03*
X27750Y21200D02*
D03*
X27000Y19700D02*
D03*
X27750Y18200D02*
D03*
X24750Y42200D02*
D03*
X24000Y40700D02*
D03*
X24750Y18200D02*
D03*
X23250Y42200D02*
D03*
X22500Y40700D02*
D03*
X23250Y39200D02*
D03*
Y18200D02*
D03*
X21750Y42200D02*
D03*
X21000Y40700D02*
D03*
X21750Y39200D02*
D03*
Y18200D02*
D03*
X20250Y42200D02*
D03*
X19500Y40700D02*
D03*
X20250Y39200D02*
D03*
X19500Y37700D02*
D03*
X20250Y33200D02*
D03*
X19500Y31700D02*
D03*
X20250Y30200D02*
D03*
X19500Y28700D02*
D03*
X20250Y27200D02*
D03*
Y15200D02*
D03*
X19500Y13700D02*
D03*
X18750Y42200D02*
D03*
X18000Y40700D02*
D03*
X18750Y39200D02*
D03*
X18000Y37700D02*
D03*
X18750Y33200D02*
D03*
Y30200D02*
D03*
X18000Y28700D02*
D03*
X18750Y27200D02*
D03*
X18000Y25700D02*
D03*
X17250Y42200D02*
D03*
X16500Y40700D02*
D03*
X17250Y39200D02*
D03*
X16500Y37700D02*
D03*
X17250Y36200D02*
D03*
Y27200D02*
D03*
X16500Y25700D02*
D03*
X15750Y42200D02*
D03*
X15000Y40700D02*
D03*
X15750Y39200D02*
D03*
X15000Y37700D02*
D03*
X15750Y36200D02*
D03*
X15000Y34700D02*
D03*
X15750Y33200D02*
D03*
X15000Y31700D02*
D03*
X15750Y30200D02*
D03*
X15000Y28700D02*
D03*
X14250Y42200D02*
D03*
X13500Y40700D02*
D03*
X14250Y39200D02*
D03*
X13500Y37700D02*
D03*
X14250Y36200D02*
D03*
X13500Y34700D02*
D03*
X14250Y33200D02*
D03*
X13500Y31700D02*
D03*
X14250Y30200D02*
D03*
Y27200D02*
D03*
X12750Y42200D02*
D03*
X12000Y40700D02*
D03*
X12750Y39200D02*
D03*
X12000Y37700D02*
D03*
X12750Y36200D02*
D03*
X12000Y34700D02*
D03*
X12750Y33200D02*
D03*
Y21200D02*
D03*
X12000Y13700D02*
D03*
X11250Y42200D02*
D03*
X10500Y40700D02*
D03*
X11250Y39200D02*
D03*
X10500Y37700D02*
D03*
X11250Y36200D02*
D03*
X10500Y34700D02*
D03*
X11250Y33200D02*
D03*
X10500Y31700D02*
D03*
X11250Y21200D02*
D03*
X10500Y13700D02*
D03*
X9750Y42200D02*
D03*
X9000Y40700D02*
D03*
X9750Y39200D02*
D03*
X9000Y37700D02*
D03*
X9750Y36200D02*
D03*
X9000Y34700D02*
D03*
Y28700D02*
D03*
X8250Y42200D02*
D03*
X7500Y40700D02*
D03*
X8250Y39200D02*
D03*
X7500Y37700D02*
D03*
X8250Y36200D02*
D03*
X7500Y34700D02*
D03*
X8250Y30200D02*
D03*
Y27200D02*
D03*
X6750Y42200D02*
D03*
X6000Y40700D02*
D03*
X6750Y39200D02*
D03*
X6000Y37700D02*
D03*
Y34700D02*
D03*
X5250Y42200D02*
D03*
X4500Y40700D02*
D03*
X5250Y39200D02*
D03*
X4500Y13700D02*
D03*
X5250Y12200D02*
D03*
X3750Y42200D02*
D03*
X3000Y40700D02*
D03*
X3750Y39200D02*
D03*
Y18200D02*
D03*
X3000Y16700D02*
D03*
X3750Y15200D02*
D03*
X3000Y13700D02*
D03*
X3750Y12200D02*
D03*
X2250Y42200D02*
D03*
X1500Y40700D02*
D03*
X2250Y39200D02*
D03*
X1500Y31700D02*
D03*
X2250Y24200D02*
D03*
X1500Y22700D02*
D03*
X2250Y21200D02*
D03*
X1500Y19700D02*
D03*
X2250Y18200D02*
D03*
X1500Y16700D02*
D03*
X2250Y15200D02*
D03*
X1500Y13700D02*
D03*
X2250Y12200D02*
D03*
X27700Y35900D02*
D03*
X34137Y24841D02*
D03*
X26131Y35597D02*
D03*
X20300Y7000D02*
D03*
X22500Y8600D02*
D03*
X7300Y30600D02*
D03*
Y29200D02*
D03*
Y28000D02*
D03*
X6900Y33000D02*
D03*
X7600Y23300D02*
D03*
X9400Y25000D02*
D03*
X7100Y31900D02*
D03*
X11800Y24400D02*
D03*
X17900Y23200D02*
D03*
X23000Y22400D02*
D03*
X27200Y13900D02*
D03*
X15300Y21800D02*
D03*
X24100Y20000D02*
D03*
X16500Y21300D02*
D03*
X28000Y15100D02*
D03*
X31000Y15600D02*
D03*
X31800Y15300D02*
D03*
X34700D02*
D03*
X35400Y15600D02*
D03*
X24300Y21500D02*
D03*
X23400Y23000D02*
D03*
X23000Y25600D02*
D03*
X33300Y15300D02*
D03*
X18600Y15100D02*
D03*
X17400Y15400D02*
D03*
X17600Y20700D02*
D03*
X29100Y23500D02*
D03*
X23600Y28100D02*
D03*
X23900Y28800D02*
D03*
Y29600D02*
D03*
X32700Y21600D02*
D03*
X20100Y34500D02*
D03*
X33254Y22568D02*
D03*
X32500Y25500D02*
D03*
X23200Y35300D02*
D03*
X35100Y20700D02*
D03*
X16400Y17200D02*
D03*
X13500Y20900D02*
D03*
X12600Y17900D02*
D03*
X32200Y30000D02*
D03*
X38600Y31300D02*
D03*
X19900Y26200D02*
D03*
X33200Y34200D02*
D03*
X41400Y35800D02*
D03*
X38700Y43200D02*
D03*
X38400Y36500D02*
D03*
X8300Y15400D02*
D03*
X10700D02*
D03*
X30850Y29900D02*
D03*
X31500D02*
D03*
X9700Y22000D02*
D03*
X39200Y33100D02*
D03*
X15400Y15400D02*
D03*
X13100D02*
D03*
X41600Y19500D02*
D03*
X43700Y21400D02*
D03*
X39900Y18400D02*
D03*
X44250Y17750D02*
D03*
X38500Y19750D02*
D03*
X24750Y17250D02*
D03*
X1500Y29500D02*
D03*
X6250Y36250D02*
D03*
X24000Y24500D02*
D03*
X27000Y33800D02*
D03*
X31300Y34900D02*
D03*
X24200Y36690D02*
D03*
X37178Y21863D02*
D03*
X49425Y32152D02*
D03*
X36496Y22600D02*
D03*
X49985Y31515D02*
D03*
X33108Y24615D02*
D03*
X24200Y36040D02*
D03*
X15775Y27400D02*
D03*
X15125D02*
D03*
D82*
X37600Y18700D02*
D03*
X27000Y29900D02*
D03*
X33863Y27491D02*
D03*
X33975Y26350D02*
D03*
X41225Y17770D02*
D03*
X36389Y19185D02*
D03*
X39500Y21100D02*
D03*
X46875Y38825D02*
D03*
X47025Y37100D02*
D03*
X875Y37450D02*
D03*
X44225Y30350D02*
D03*
X44225Y27331D02*
D03*
X41272Y27350D02*
D03*
X41225Y30330D02*
D03*
X42725D02*
D03*
Y27350D02*
D03*
X44225Y28850D02*
D03*
X35225Y21850D02*
D03*
M02*
