G04*
G04 #@! TF.GenerationSoftware,Altium Limited,Altium Designer,24.2.2 (26)*
G04*
G04 Layer_Color=8421504*
%FSLAX43Y43*%
%MOMM*%
G71*
G04*
G04 #@! TF.SameCoordinates,B843E786-A032-4A45-835C-5377563589AC*
G04*
G04*
G04 #@! TF.FilePolarity,Positive*
G04*
G01*
G75*
%ADD17R,0.965X0.762*%
%ADD18R,0.813X2.134*%
%ADD19R,1.000X5.000*%
%ADD20R,0.900X0.900*%
%ADD21R,1.500X0.900*%
%ADD22R,0.900X1.500*%
%ADD23R,0.370X1.170*%
%ADD24R,0.900X0.900*%
%ADD25R,1.170X0.370*%
%ADD26R,1.500X2.000*%
%ADD27R,3.800X2.000*%
%ADD28R,1.000X0.850*%
%ADD29R,0.700X0.600*%
%ADD30R,0.600X0.700*%
G04:AMPARAMS|DCode=31|XSize=0.6mm|YSize=0.7mm|CornerRadius=0.15mm|HoleSize=0mm|Usage=FLASHONLY|Rotation=90.000|XOffset=0mm|YOffset=0mm|HoleType=Round|Shape=RoundedRectangle|*
%AMROUNDEDRECTD31*
21,1,0.600,0.400,0,0,90.0*
21,1,0.300,0.700,0,0,90.0*
1,1,0.300,0.200,0.150*
1,1,0.300,0.200,-0.150*
1,1,0.300,-0.200,-0.150*
1,1,0.300,-0.200,0.150*
%
%ADD31ROUNDEDRECTD31*%
%ADD32R,1.321X1.524*%
%ADD33R,0.600X1.140*%
%ADD34R,0.300X1.140*%
%ADD35R,1.600X1.600*%
G04:AMPARAMS|DCode=36|XSize=1.17mm|YSize=0.37mm|CornerRadius=0.185mm|HoleSize=0mm|Usage=FLASHONLY|Rotation=90.000|XOffset=0mm|YOffset=0mm|HoleType=Round|Shape=RoundedRectangle|*
%AMROUNDEDRECTD36*
21,1,1.170,0.000,0,0,90.0*
21,1,0.800,0.370,0,0,90.0*
1,1,0.370,0.000,0.400*
1,1,0.370,0.000,-0.400*
1,1,0.370,0.000,-0.400*
1,1,0.370,0.000,0.400*
%
%ADD36ROUNDEDRECTD36*%
%ADD37R,1.200X1.200*%
D17*
X44800Y40819D02*
D03*
D18*
X46195Y42343D02*
D03*
X43404D02*
D03*
D19*
X1235Y2450D02*
D03*
X10125D02*
D03*
X11395D02*
D03*
X7585D02*
D03*
X8855D02*
D03*
X20285D02*
D03*
X19015D02*
D03*
X17745D02*
D03*
X21555D02*
D03*
X22825D02*
D03*
X30445D02*
D03*
X29175D02*
D03*
X32985D02*
D03*
X34255D02*
D03*
X31715D02*
D03*
X43145D02*
D03*
X40605D02*
D03*
X41875D02*
D03*
X50765D02*
D03*
X44415D02*
D03*
D20*
X12775Y30590D02*
D03*
Y29190D02*
D03*
Y27790D02*
D03*
X11375D02*
D03*
X9975D02*
D03*
Y29190D02*
D03*
Y30590D02*
D03*
X11375D02*
D03*
Y29190D02*
D03*
X33363Y28490D02*
D03*
X33200Y33000D02*
D03*
X30100Y24800D02*
D03*
X43950Y18975D02*
D03*
X45550D02*
D03*
X31700Y24800D02*
D03*
X23600Y33600D02*
D03*
X25200D02*
D03*
X34800Y33000D02*
D03*
X34963Y28490D02*
D03*
D21*
X21625Y36910D02*
D03*
Y35640D02*
D03*
Y34370D02*
D03*
Y33100D02*
D03*
Y31830D02*
D03*
Y30560D02*
D03*
Y29290D02*
D03*
Y28020D02*
D03*
Y20400D02*
D03*
X4125D02*
D03*
Y21670D02*
D03*
Y25480D02*
D03*
Y29290D02*
D03*
Y30560D02*
D03*
Y31830D02*
D03*
Y33100D02*
D03*
Y34370D02*
D03*
Y36910D02*
D03*
Y24210D02*
D03*
Y35640D02*
D03*
X21625Y26750D02*
D03*
Y25480D02*
D03*
Y24210D02*
D03*
Y22940D02*
D03*
Y21670D02*
D03*
X4125Y22940D02*
D03*
Y26750D02*
D03*
Y28020D02*
D03*
D22*
X19860Y19150D02*
D03*
X18590D02*
D03*
X17320D02*
D03*
X16050D02*
D03*
X14780D02*
D03*
X13510D02*
D03*
X12240D02*
D03*
X10970D02*
D03*
X9700D02*
D03*
X8430D02*
D03*
X7160D02*
D03*
X5890D02*
D03*
D23*
X40025Y23200D02*
D03*
X39425D02*
D03*
X41825D02*
D03*
X41225D02*
D03*
X44825D02*
D03*
X46025Y34500D02*
D03*
X45425D02*
D03*
X44225D02*
D03*
X43625D02*
D03*
X41225D02*
D03*
X39425D02*
D03*
X38825D02*
D03*
X40625D02*
D03*
X44225Y23200D02*
D03*
X45425D02*
D03*
X38825D02*
D03*
X44825Y34500D02*
D03*
X38225D02*
D03*
X40025D02*
D03*
X41825D02*
D03*
X42425D02*
D03*
X43025D02*
D03*
X46625D02*
D03*
X47225D02*
D03*
Y23200D02*
D03*
X46625D02*
D03*
X46025D02*
D03*
X43625D02*
D03*
X43025D02*
D03*
X42425D02*
D03*
X40625D02*
D03*
D24*
X1975Y34500D02*
D03*
X1952Y35543D02*
D03*
X38700Y42200D02*
D03*
Y40600D02*
D03*
X1952Y37143D02*
D03*
X1975Y32900D02*
D03*
D25*
X37075Y29750D02*
D03*
X48375Y30950D02*
D03*
X37075Y31550D02*
D03*
Y29150D02*
D03*
Y30350D02*
D03*
Y30950D02*
D03*
X48375Y24350D02*
D03*
Y31550D02*
D03*
Y32150D02*
D03*
X37075Y24350D02*
D03*
Y24950D02*
D03*
Y25550D02*
D03*
Y26150D02*
D03*
Y26750D02*
D03*
Y27350D02*
D03*
Y27950D02*
D03*
Y28550D02*
D03*
Y32150D02*
D03*
Y32750D02*
D03*
Y33350D02*
D03*
X48375D02*
D03*
Y32750D02*
D03*
Y30350D02*
D03*
Y29750D02*
D03*
Y29150D02*
D03*
Y28550D02*
D03*
Y27950D02*
D03*
Y27350D02*
D03*
Y26750D02*
D03*
Y26150D02*
D03*
Y25550D02*
D03*
Y24950D02*
D03*
D26*
X27000Y31500D02*
D03*
X24700D02*
D03*
X29300D02*
D03*
D27*
X27000Y25200D02*
D03*
D28*
X25550Y19125D02*
D03*
X29050D02*
D03*
Y20875D02*
D03*
X25550D02*
D03*
D29*
X1600Y28600D02*
D03*
X13100Y16200D02*
D03*
X39100Y17800D02*
D03*
X38000D02*
D03*
X40663Y16326D02*
D03*
X42225Y16326D02*
D03*
X39436Y20319D02*
D03*
X35300Y26500D02*
D03*
X9500Y16200D02*
D03*
X15400D02*
D03*
X48100Y15000D02*
D03*
X41600Y21400D02*
D03*
Y20400D02*
D03*
X48100Y16000D02*
D03*
X14300Y17200D02*
D03*
Y16200D02*
D03*
X15400Y17200D02*
D03*
X9500D02*
D03*
X12000D02*
D03*
Y16200D02*
D03*
X35300Y25500D02*
D03*
X45500Y14000D02*
D03*
Y13000D02*
D03*
X44200Y14000D02*
D03*
Y13000D02*
D03*
X39436Y19319D02*
D03*
X42225Y15326D02*
D03*
X40663Y15325D02*
D03*
X38000Y16800D02*
D03*
X39100D02*
D03*
X13100Y17200D02*
D03*
X1600Y27600D02*
D03*
X1600Y25100D02*
D03*
Y26100D02*
D03*
X8300Y16200D02*
D03*
Y17200D02*
D03*
X10700Y16200D02*
D03*
Y17200D02*
D03*
D30*
X37700Y20400D02*
D03*
X25600Y17200D02*
D03*
X39500Y36300D02*
D03*
X40500D02*
D03*
X26600Y17200D02*
D03*
X34700Y31500D02*
D03*
X33700D02*
D03*
X34700Y30300D02*
D03*
X33700D02*
D03*
X45100Y20600D02*
D03*
X44100D02*
D03*
X40500Y37500D02*
D03*
X39500D02*
D03*
X36700Y20400D02*
D03*
X45750Y38900D02*
D03*
X44750D02*
D03*
X45825Y35925D02*
D03*
X44825D02*
D03*
D31*
X44800Y37800D02*
D03*
Y36800D02*
D03*
D32*
X44475Y16513D02*
D03*
X46390D02*
D03*
D33*
X26900Y36850D02*
D03*
X27700D02*
D03*
X32500D02*
D03*
X33300D02*
D03*
D34*
X28350D02*
D03*
X28850D02*
D03*
X29350D02*
D03*
X29850D02*
D03*
X30350D02*
D03*
X30850D02*
D03*
X31350D02*
D03*
X31850D02*
D03*
D35*
X39925Y26050D02*
D03*
Y28850D02*
D03*
Y31650D02*
D03*
X42725Y26050D02*
D03*
Y28850D02*
D03*
Y31650D02*
D03*
X45525Y26050D02*
D03*
Y28850D02*
D03*
Y31650D02*
D03*
D36*
X38225Y23200D02*
D03*
D37*
X36800Y42550D02*
D03*
Y40450D02*
D03*
M02*
