G04*
G04 #@! TF.GenerationSoftware,Altium Limited,Altium Designer,24.2.2 (26)*
G04*
G04 Layer_Physical_Order=4*
G04 Layer_Color=16711680*
%FSLAX43Y43*%
%MOMM*%
G71*
G04*
G04 #@! TF.SameCoordinates,FF286A8D-2D74-404F-B011-C83B2EBF38CC*
G04*
G04*
G04 #@! TF.FilePolarity,Positive*
G04*
G01*
G75*
%ADD11C,0.200*%
%ADD13C,0.254*%
%ADD19R,1.000X5.000*%
%ADD66R,1.524X4.064*%
%ADD68C,0.300*%
%ADD69C,0.500*%
%ADD74C,1.676*%
%ADD75C,6.000*%
%ADD76C,1.300*%
%ADD77C,0.650*%
%ADD78O,0.900X1.800*%
%ADD79O,1.050X2.100*%
%ADD80R,1.300X1.300*%
%ADD81C,0.500*%
%ADD82C,0.600*%
%ADD84C,0.508*%
%ADD85R,1.300X1.550*%
G36*
X49056Y44093D02*
X49415Y43996D01*
X49760Y43854D01*
X50082Y43668D01*
X50378Y43441D01*
X50641Y43177D01*
X50868Y42882D01*
X51054Y42559D01*
X51196Y42215D01*
X51293Y41855D01*
X51342Y41486D01*
Y41300D01*
X51342Y41300D01*
X51341Y41299D01*
X51342Y9400D01*
X50246D01*
X43343Y16302D01*
X43228Y16380D01*
X43091Y16407D01*
X38898D01*
X36682Y18623D01*
X36701Y18719D01*
X36855Y18873D01*
X36939Y19075D01*
Y19294D01*
X36855Y19496D01*
X36701Y19651D01*
X36498Y19735D01*
X36280D01*
X36077Y19651D01*
X35923Y19496D01*
X35827Y19477D01*
X35222Y20083D01*
X35259Y20225D01*
X35383Y20276D01*
X35524Y20417D01*
X35600Y20601D01*
Y20799D01*
X35524Y20983D01*
X35383Y21124D01*
X35199Y21200D01*
X35105D01*
X34461Y21844D01*
Y23619D01*
X34434Y23756D01*
X34356Y23871D01*
X33608Y24620D01*
Y24714D01*
X33532Y24898D01*
X33391Y25039D01*
X33208Y25115D01*
X33009D01*
X32997Y25110D01*
X32925Y25215D01*
X32924Y25217D01*
X33000Y25401D01*
Y25599D01*
X32924Y25783D01*
X32783Y25924D01*
X32599Y26000D01*
X32401D01*
X32217Y25924D01*
X32076Y25783D01*
X32000Y25599D01*
Y25401D01*
X32076Y25217D01*
X32143Y25150D01*
Y24200D01*
X32170Y24063D01*
X32248Y23948D01*
X33055Y23141D01*
X33030Y23016D01*
X32971Y22992D01*
X32830Y22851D01*
X32754Y22667D01*
Y22468D01*
X32830Y22285D01*
X32841Y22274D01*
X32828Y22119D01*
X32799Y22100D01*
X32601D01*
X32417Y22024D01*
X32276Y21883D01*
X32200Y21699D01*
Y21501D01*
X32276Y21317D01*
X32343Y21250D01*
Y20600D01*
X32370Y20463D01*
X32448Y20348D01*
X33748Y19048D01*
X33863Y18970D01*
X34000Y18943D01*
X34152D01*
X35921Y17174D01*
X35873Y17057D01*
X25313D01*
X25250Y17151D01*
Y17349D01*
X25174Y17533D01*
X25033Y17674D01*
X24849Y17750D01*
X24651D01*
X24467Y17674D01*
X24326Y17533D01*
X24250Y17349D01*
Y17151D01*
X24187Y17057D01*
X20200D01*
X20063Y17030D01*
X19948Y16952D01*
X18595Y15600D01*
X18501D01*
X18317Y15524D01*
X18176Y15383D01*
X18145Y15309D01*
X18021Y15284D01*
X17905Y15400D01*
X23750Y21245D01*
X23875Y21221D01*
X23876Y21217D01*
X24017Y21076D01*
X24201Y21000D01*
X24399D01*
X24583Y21076D01*
X24724Y21217D01*
X24800Y21401D01*
Y21599D01*
X24724Y21783D01*
X24583Y21924D01*
X24579Y21925D01*
X24555Y22050D01*
X24794Y22290D01*
X24954D01*
X25090Y22317D01*
X25206Y22394D01*
X32320Y29509D01*
X32483Y29576D01*
X32624Y29717D01*
X32700Y29901D01*
Y30099D01*
X32624Y30283D01*
X32483Y30424D01*
X32299Y30500D01*
X32101D01*
X31917Y30424D01*
X31800Y30307D01*
X31783Y30324D01*
X31599Y30400D01*
X31401D01*
X31217Y30324D01*
X31175Y30282D01*
X31133Y30324D01*
X31045Y30361D01*
X31015Y30510D01*
X33248Y32743D01*
X38850D01*
X38917Y32676D01*
X39101Y32600D01*
X39299D01*
X39483Y32676D01*
X39624Y32817D01*
X39700Y33001D01*
Y33199D01*
X39624Y33383D01*
X39483Y33524D01*
X39299Y33600D01*
X39101D01*
X38917Y33524D01*
X38850Y33457D01*
X33100D01*
X32963Y33430D01*
X32848Y33352D01*
X29726Y30231D01*
X29649Y30115D01*
X29622Y29979D01*
Y29927D01*
X26368Y26673D01*
X20097D01*
X20075Y26669D01*
X19999Y26700D01*
X19801D01*
X19617Y26624D01*
X19551Y26558D01*
X19425Y26533D01*
X19392Y26565D01*
X19283Y26674D01*
X19099Y26750D01*
X18901D01*
X18717Y26674D01*
X18576Y26533D01*
X18500Y26349D01*
Y26151D01*
X18576Y25967D01*
X18643Y25900D01*
Y25155D01*
X15648Y22159D01*
X15583Y22224D01*
X15399Y22300D01*
X15201D01*
X15017Y22224D01*
X14876Y22083D01*
X14800Y21899D01*
Y21701D01*
X14876Y21517D01*
X15017Y21376D01*
X15201Y21300D01*
X15399D01*
X15443Y21271D01*
Y18300D01*
X15326Y18183D01*
X15250Y17999D01*
Y17800D01*
X15326Y17617D01*
X15467Y17476D01*
X15651Y17400D01*
X15804D01*
X15887Y17313D01*
X15900Y17283D01*
Y17101D01*
X15976Y16917D01*
X16117Y16776D01*
X16301Y16700D01*
X16499D01*
X16683Y16776D01*
X16824Y16917D01*
X16900Y17101D01*
Y17227D01*
X16900Y17227D01*
X17026Y17302D01*
X17151Y17250D01*
X17273D01*
X17325Y17123D01*
X15875Y15673D01*
X15824Y15683D01*
X15683Y15824D01*
X15499Y15900D01*
X15301D01*
X15117Y15824D01*
X14976Y15683D01*
X14900Y15499D01*
Y15301D01*
X14871Y15257D01*
X13629D01*
X13600Y15301D01*
Y15499D01*
X13524Y15683D01*
X13383Y15824D01*
X13199Y15900D01*
X13001D01*
X12817Y15824D01*
X12676Y15683D01*
X12600Y15499D01*
Y15301D01*
X12571Y15257D01*
X11348D01*
X11200Y15405D01*
Y15499D01*
X11124Y15683D01*
X10983Y15824D01*
X10799Y15900D01*
X10601D01*
X10417Y15824D01*
X10276Y15683D01*
X10200Y15499D01*
Y15301D01*
X10276Y15117D01*
X10417Y14976D01*
X10519Y14934D01*
X10494Y14807D01*
X9706D01*
X9681Y14934D01*
X9783Y14976D01*
X9924Y15117D01*
X10000Y15301D01*
Y15499D01*
X9924Y15683D01*
X9783Y15824D01*
X9599Y15900D01*
X9401D01*
X9217Y15824D01*
X9076Y15683D01*
X9000Y15499D01*
Y15408D01*
X8884Y15358D01*
X8800Y15425D01*
Y15499D01*
X8724Y15683D01*
X8583Y15824D01*
X8399Y15900D01*
X8201D01*
X8017Y15824D01*
X7876Y15683D01*
X7825Y15673D01*
X7457Y16041D01*
Y22771D01*
X7501Y22800D01*
X7699D01*
X7883Y22876D01*
X8024Y23017D01*
X8100Y23201D01*
Y23399D01*
X8125Y23437D01*
Y24525D01*
Y25550D01*
X7737D01*
X7684Y25677D01*
X7724Y25717D01*
X7800Y25901D01*
Y26099D01*
X7724Y26283D01*
X7657Y26350D01*
X7724Y26417D01*
X7800Y26601D01*
Y26799D01*
X7724Y26983D01*
X7583Y27124D01*
X7399Y27200D01*
X7201D01*
X7173Y27188D01*
X7101Y27296D01*
X7305Y27500D01*
X7399D01*
X7583Y27576D01*
X7724Y27717D01*
X7800Y27901D01*
Y28099D01*
X7724Y28283D01*
X7583Y28424D01*
X7399Y28500D01*
X7308D01*
X7258Y28616D01*
X7325Y28700D01*
X7399D01*
X7583Y28776D01*
X7724Y28917D01*
X7800Y29101D01*
Y29299D01*
X7724Y29483D01*
X7583Y29624D01*
X7399Y29700D01*
X7201D01*
X7017Y29624D01*
X6876Y29483D01*
X6800Y29299D01*
Y29205D01*
X6074Y28479D01*
X5957Y28527D01*
Y28752D01*
X7305Y30100D01*
X7399D01*
X7583Y30176D01*
X7724Y30317D01*
X7800Y30501D01*
Y30699D01*
X7724Y30883D01*
X7583Y31024D01*
X7399Y31100D01*
X7201D01*
X7017Y31024D01*
X6876Y30883D01*
X6800Y30699D01*
Y30605D01*
X5724Y29529D01*
X5607Y29577D01*
Y29902D01*
X7105Y31400D01*
X7199D01*
X7339Y31458D01*
X7350Y31450D01*
Y31450D01*
X9150D01*
Y33143D01*
X9852D01*
X13143Y29852D01*
Y21250D01*
X13076Y21183D01*
X13000Y20999D01*
Y20801D01*
X13076Y20617D01*
X13217Y20476D01*
X13401Y20400D01*
X13599D01*
X13783Y20476D01*
X13924Y20617D01*
X14000Y20801D01*
Y20999D01*
X13924Y21183D01*
X13857Y21250D01*
Y30000D01*
X13830Y30137D01*
X13752Y30252D01*
X10252Y33752D01*
X10137Y33830D01*
X10000Y33857D01*
X4650D01*
X4513Y33830D01*
X4398Y33752D01*
X4145Y33500D01*
X2850D01*
Y31450D01*
X4650D01*
Y32995D01*
X4798Y33143D01*
X6371D01*
X6400Y33099D01*
Y33005D01*
X4648Y31252D01*
X4570Y31137D01*
X4543Y31000D01*
Y25550D01*
X2850D01*
Y23500D01*
X4543D01*
Y14430D01*
X4570Y14294D01*
X4648Y14178D01*
X8498Y10327D01*
Y9400D01*
X6501D01*
X6472Y9429D01*
X6058Y9730D01*
X5603Y9962D01*
X5116Y10120D01*
X4611Y10200D01*
X4480D01*
Y6950D01*
X4230D01*
Y10200D01*
X4099D01*
X3594Y10120D01*
X3107Y9962D01*
X2652Y9730D01*
X2238Y9429D01*
X2209Y9400D01*
X258D01*
X258Y41386D01*
X259Y41394D01*
X259Y41403D01*
X261Y41412D01*
X268Y41593D01*
X328Y41951D01*
X434Y42299D01*
X582Y42630D01*
X772Y42939D01*
X1000Y43222D01*
X1261Y43474D01*
X1553Y43690D01*
X1870Y43868D01*
X2207Y44003D01*
X2558Y44095D01*
X2918Y44141D01*
X41248D01*
Y42493D01*
X43272D01*
Y44141D01*
X46328D01*
Y42493D01*
X48352D01*
Y44141D01*
X48686D01*
X49056Y44093D01*
D02*
G37*
G36*
X36826Y15774D02*
X36778Y15657D01*
X35900D01*
Y15699D01*
X35824Y15883D01*
X35683Y16024D01*
X35499Y16100D01*
X35301D01*
X35117Y16024D01*
X34976Y15883D01*
X34921Y15750D01*
X34799Y15800D01*
X34601D01*
X34417Y15724D01*
X34276Y15583D01*
X34200Y15399D01*
Y15201D01*
X34276Y15017D01*
X34417Y14876D01*
X34601Y14800D01*
X34695D01*
X34848Y14648D01*
X34963Y14570D01*
X35100Y14543D01*
X37067D01*
X37613Y13998D01*
X37729Y13920D01*
X37794Y13907D01*
X37836Y13770D01*
X37734Y13668D01*
X37591Y13420D01*
X37517Y13143D01*
Y12857D01*
X37591Y12580D01*
X37734Y12332D01*
X37937Y12129D01*
X38185Y11986D01*
X38462Y11912D01*
X38748D01*
X39025Y11986D01*
X39273Y12129D01*
X39476Y12332D01*
X39619Y12580D01*
X39693Y12857D01*
Y13143D01*
X39619Y13420D01*
X39476Y13668D01*
X39378Y13766D01*
X39430Y13893D01*
X40502D01*
X41043Y13352D01*
Y9400D01*
X39531D01*
X39502Y9429D01*
X39088Y9730D01*
X38633Y9962D01*
X38146Y10120D01*
X37641Y10200D01*
X37129D01*
X36624Y10120D01*
X36137Y9962D01*
X35682Y9730D01*
X35351Y9489D01*
X35107Y9733D01*
Y12240D01*
X35234Y12292D01*
X35397Y12129D01*
X35645Y11986D01*
X35922Y11912D01*
X36208D01*
X36485Y11986D01*
X36733Y12129D01*
X36936Y12332D01*
X37079Y12580D01*
X37153Y12857D01*
Y13143D01*
X37079Y13420D01*
X36936Y13668D01*
X36733Y13871D01*
X36485Y14014D01*
X36208Y14088D01*
X35922D01*
X35645Y14014D01*
X35397Y13871D01*
X35209Y13683D01*
X35140Y13682D01*
X35067Y13701D01*
X35002Y13797D01*
X33741Y15058D01*
X33800Y15201D01*
Y15399D01*
X33724Y15583D01*
X33583Y15724D01*
X33399Y15800D01*
X33201D01*
X33017Y15724D01*
X32876Y15583D01*
X32800Y15399D01*
Y15201D01*
X32876Y15017D01*
X33012Y14881D01*
X33028Y14801D01*
X33105Y14685D01*
X34393Y13397D01*
Y9585D01*
X34405Y9527D01*
X34312Y9400D01*
X33905D01*
X32784Y10521D01*
Y14666D01*
X32756Y14803D01*
X32679Y14918D01*
X32300Y15298D01*
Y15399D01*
X32224Y15583D01*
X32083Y15724D01*
X31899Y15800D01*
X31701D01*
X31517Y15724D01*
X31487Y15730D01*
X31424Y15883D01*
X31283Y16024D01*
X31099Y16100D01*
X30901D01*
X30717Y16024D01*
X30576Y15883D01*
X30500Y15699D01*
Y15501D01*
X30576Y15317D01*
X30643Y15250D01*
Y14750D01*
X30670Y14613D01*
X30748Y14498D01*
X31030Y14215D01*
X30978Y14088D01*
X30842D01*
X30565Y14014D01*
X30378Y13906D01*
X30371Y13905D01*
X30242Y13963D01*
X30240Y13966D01*
X30226Y14035D01*
X30149Y14151D01*
X28947Y15352D01*
X28832Y15430D01*
X28695Y15457D01*
X28350D01*
X28283Y15524D01*
X28099Y15600D01*
X27901D01*
X27717Y15524D01*
X27576Y15383D01*
X27500Y15199D01*
Y15001D01*
X27548Y14884D01*
X27470Y14757D01*
X23894D01*
X23841Y14884D01*
X23924Y14967D01*
X24000Y15151D01*
Y15349D01*
X23924Y15533D01*
X23783Y15674D01*
X23599Y15750D01*
X23401D01*
X23217Y15674D01*
X23076Y15533D01*
X23000Y15349D01*
Y15151D01*
X23076Y14967D01*
X23159Y14884D01*
X23106Y14757D01*
X19130D01*
X19052Y14884D01*
X19100Y15001D01*
Y15095D01*
X20348Y16343D01*
X36257D01*
X36826Y15774D01*
D02*
G37*
G36*
X12702Y13966D02*
X12537Y13871D01*
X12334Y13668D01*
X12191Y13420D01*
X12117Y13143D01*
Y12857D01*
X12191Y12580D01*
X12334Y12332D01*
X12432Y12234D01*
X12380Y12107D01*
X11391D01*
X9522Y13976D01*
X9570Y14093D01*
X12668D01*
X12702Y13966D01*
D02*
G37*
G36*
X25315Y13916D02*
X25237Y13871D01*
X25034Y13668D01*
X24891Y13420D01*
X24817Y13143D01*
Y12857D01*
X24891Y12580D01*
X24924Y12523D01*
X23507Y11107D01*
X22057D01*
X21972Y11234D01*
X22000Y11301D01*
Y11499D01*
X21924Y11683D01*
X21783Y11824D01*
X21599Y11900D01*
X21401D01*
X21217Y11824D01*
X21076Y11683D01*
X21044Y11607D01*
X20029D01*
X20000Y11651D01*
Y11849D01*
X19924Y12033D01*
X19783Y12174D01*
X19599Y12250D01*
X19401D01*
X19217Y12174D01*
X19184Y12181D01*
X19144Y12320D01*
X19156Y12332D01*
X19299Y12580D01*
X19373Y12857D01*
Y13143D01*
X19299Y13420D01*
X19156Y13668D01*
X18953Y13871D01*
X18875Y13916D01*
X18909Y14043D01*
X20201D01*
X20235Y13916D01*
X20157Y13871D01*
X19954Y13668D01*
X19811Y13420D01*
X19737Y13143D01*
Y12857D01*
X19811Y12580D01*
X19954Y12332D01*
X20157Y12129D01*
X20405Y11986D01*
X20682Y11912D01*
X20968D01*
X21245Y11986D01*
X21493Y12129D01*
X21696Y12332D01*
X21839Y12580D01*
X21913Y12857D01*
Y13143D01*
X21839Y13420D01*
X21696Y13668D01*
X21493Y13871D01*
X21415Y13916D01*
X21449Y14043D01*
X22741D01*
X22775Y13916D01*
X22697Y13871D01*
X22494Y13668D01*
X22351Y13420D01*
X22277Y13143D01*
Y12857D01*
X22351Y12580D01*
X22494Y12332D01*
X22697Y12129D01*
X22945Y11986D01*
X23222Y11912D01*
X23508D01*
X23785Y11986D01*
X24033Y12129D01*
X24236Y12332D01*
X24379Y12580D01*
X24453Y12857D01*
Y13143D01*
X24379Y13420D01*
X24236Y13668D01*
X24033Y13871D01*
X23955Y13916D01*
X23989Y14043D01*
X25281D01*
X25315Y13916D01*
D02*
G37*
G36*
X39690Y-40D02*
X35080D01*
Y5235D01*
X39690D01*
Y-40D01*
D02*
G37*
G36*
X6660D02*
X2050D01*
Y5235D01*
X6660D01*
Y-40D01*
D02*
G37*
G36*
X28310D02*
X23700D01*
Y5235D01*
X28310D01*
Y-40D01*
D02*
G37*
G36*
X49900D02*
X45290D01*
Y5235D01*
X49900D01*
Y-40D01*
D02*
G37*
G36*
X16900D02*
X12290D01*
Y5235D01*
X16900D01*
Y-40D01*
D02*
G37*
%LPC*%
G36*
X38799Y43700D02*
X38601D01*
X38417Y43624D01*
X38276Y43483D01*
X38200Y43299D01*
Y43101D01*
X38276Y42917D01*
X38417Y42776D01*
X38601Y42700D01*
X38799D01*
X38983Y42776D01*
X39124Y42917D01*
X39200Y43101D01*
Y43299D01*
X39124Y43483D01*
X38983Y43624D01*
X38799Y43700D01*
D02*
G37*
G36*
X34420Y42756D02*
X34237Y42732D01*
X34067Y42661D01*
X33921Y42549D01*
X33809Y42403D01*
X33738Y42233D01*
X33714Y42050D01*
Y41150D01*
X33738Y40967D01*
X33809Y40797D01*
X33921Y40651D01*
X34067Y40539D01*
X34237Y40468D01*
X34420Y40444D01*
X34603Y40468D01*
X34773Y40539D01*
X34919Y40651D01*
X35031Y40797D01*
X35102Y40967D01*
X35126Y41150D01*
Y42050D01*
X35102Y42233D01*
X35031Y42403D01*
X34919Y42549D01*
X34773Y42661D01*
X34603Y42732D01*
X34420Y42756D01*
D02*
G37*
G36*
X25780D02*
X25597Y42732D01*
X25427Y42661D01*
X25281Y42549D01*
X25169Y42403D01*
X25098Y42233D01*
X25074Y42050D01*
Y41150D01*
X25098Y40967D01*
X25169Y40797D01*
X25281Y40651D01*
X25427Y40539D01*
X25597Y40468D01*
X25780Y40444D01*
X25963Y40468D01*
X26133Y40539D01*
X26279Y40651D01*
X26391Y40797D01*
X26462Y40967D01*
X26486Y41150D01*
Y42050D01*
X26462Y42233D01*
X26391Y42403D01*
X26279Y42549D01*
X26133Y42661D01*
X25963Y42732D01*
X25780Y42756D01*
D02*
G37*
G36*
X48352Y42243D02*
X47465D01*
Y40086D01*
X48352D01*
Y42243D01*
D02*
G37*
G36*
X47215D02*
X46328D01*
Y40086D01*
X47215D01*
Y42243D01*
D02*
G37*
G36*
X43272D02*
X42385D01*
Y40086D01*
X43272D01*
Y42243D01*
D02*
G37*
G36*
X42135D02*
X41248D01*
Y40086D01*
X42135D01*
Y42243D01*
D02*
G37*
G36*
X33055Y38245D02*
X32925D01*
X32806Y38196D01*
X32714Y38104D01*
X32665Y37985D01*
Y37855D01*
X32714Y37736D01*
X32806Y37644D01*
X32925Y37595D01*
X33055D01*
X33174Y37644D01*
X33266Y37736D01*
X33315Y37855D01*
Y37985D01*
X33266Y38104D01*
X33174Y38196D01*
X33055Y38245D01*
D02*
G37*
G36*
X27275D02*
X27145D01*
X27026Y38196D01*
X26934Y38104D01*
X26885Y37985D01*
Y37855D01*
X26934Y37736D01*
X27026Y37644D01*
X27145Y37595D01*
X27275D01*
X27394Y37644D01*
X27486Y37736D01*
X27535Y37855D01*
Y37985D01*
X27486Y38104D01*
X27394Y38196D01*
X27275Y38245D01*
D02*
G37*
G36*
X34420Y38727D02*
X34218Y38700D01*
X34029Y38622D01*
X33867Y38498D01*
X33743Y38336D01*
X33665Y38147D01*
X33638Y37945D01*
Y36895D01*
X33665Y36693D01*
X33743Y36504D01*
X33867Y36342D01*
X34029Y36218D01*
X34218Y36140D01*
X34420Y36113D01*
X34622Y36140D01*
X34811Y36218D01*
X34973Y36342D01*
X35097Y36504D01*
X35175Y36693D01*
X35202Y36895D01*
Y37945D01*
X35175Y38147D01*
X35097Y38336D01*
X34973Y38498D01*
X34811Y38622D01*
X34622Y38700D01*
X34420Y38727D01*
D02*
G37*
G36*
X25780D02*
X25578Y38700D01*
X25389Y38622D01*
X25227Y38498D01*
X25103Y38336D01*
X25025Y38147D01*
X24998Y37945D01*
Y36895D01*
X25025Y36693D01*
X25103Y36504D01*
X25227Y36342D01*
X25389Y36218D01*
X25578Y36140D01*
X25780Y36113D01*
X25982Y36140D01*
X26171Y36218D01*
X26333Y36342D01*
X26457Y36504D01*
X26535Y36693D01*
X26562Y36895D01*
Y37945D01*
X26535Y38147D01*
X26457Y38336D01*
X26333Y38498D01*
X26171Y38622D01*
X25982Y38700D01*
X25780Y38727D01*
D02*
G37*
G36*
X38499Y37000D02*
X38301D01*
X38117Y36924D01*
X37976Y36783D01*
X37900Y36599D01*
Y36401D01*
X37976Y36217D01*
X38117Y36076D01*
X38301Y36000D01*
X38499D01*
X38683Y36076D01*
X38824Y36217D01*
X38900Y36401D01*
Y36599D01*
X38824Y36783D01*
X38683Y36924D01*
X38499Y37000D01*
D02*
G37*
G36*
X6349Y36750D02*
X6151D01*
X5967Y36674D01*
X5826Y36533D01*
X5750Y36349D01*
Y36151D01*
X5826Y35967D01*
X5967Y35826D01*
X6151Y35750D01*
X6349D01*
X6533Y35826D01*
X6674Y35967D01*
X6750Y36151D01*
Y36349D01*
X6674Y36533D01*
X6533Y36674D01*
X6349Y36750D01*
D02*
G37*
G36*
X24299Y37190D02*
X24101D01*
X23917Y37114D01*
X23776Y36973D01*
X23700Y36790D01*
Y36591D01*
X23776Y36407D01*
X23818Y36365D01*
X23776Y36323D01*
X23700Y36140D01*
Y35941D01*
X23776Y35757D01*
X23917Y35616D01*
X24101Y35540D01*
X24299D01*
X24483Y35616D01*
X24624Y35757D01*
X24700Y35941D01*
Y36140D01*
X24624Y36323D01*
X24582Y36365D01*
X24624Y36407D01*
X24700Y36591D01*
Y36790D01*
X24624Y36973D01*
X24483Y37114D01*
X24299Y37190D01*
D02*
G37*
G36*
X41499Y36300D02*
X41301D01*
X41117Y36224D01*
X40976Y36083D01*
X40900Y35899D01*
Y35701D01*
X40976Y35517D01*
X41117Y35376D01*
X41301Y35300D01*
X41499D01*
X41683Y35376D01*
X41824Y35517D01*
X41900Y35701D01*
Y35899D01*
X41824Y36083D01*
X41683Y36224D01*
X41499Y36300D01*
D02*
G37*
G36*
X23299Y35800D02*
X23101D01*
X22917Y35724D01*
X22776Y35583D01*
X22700Y35399D01*
Y35201D01*
X22776Y35017D01*
X22917Y34876D01*
X23101Y34800D01*
X23299D01*
X23483Y34876D01*
X23624Y35017D01*
X23700Y35201D01*
Y35399D01*
X23624Y35583D01*
X23483Y35724D01*
X23299Y35800D01*
D02*
G37*
G36*
X20199Y35000D02*
X20001D01*
X19817Y34924D01*
X19676Y34783D01*
X19600Y34599D01*
Y34401D01*
X19676Y34217D01*
X19817Y34076D01*
X20001Y34000D01*
X20199D01*
X20383Y34076D01*
X20524Y34217D01*
X20600Y34401D01*
Y34599D01*
X20524Y34783D01*
X20383Y34924D01*
X20199Y35000D01*
D02*
G37*
G36*
X33299Y34700D02*
X33101D01*
X32917Y34624D01*
X32776Y34483D01*
X32700Y34299D01*
Y34101D01*
X32776Y33917D01*
X32917Y33776D01*
X33101Y33700D01*
X33299D01*
X33483Y33776D01*
X33624Y33917D01*
X33700Y34101D01*
Y34299D01*
X33624Y34483D01*
X33483Y34624D01*
X33299Y34700D01*
D02*
G37*
G36*
X27700Y36410D02*
X27651Y36400D01*
X27601D01*
X27554Y36381D01*
X27505Y36371D01*
X27463Y36343D01*
X27417Y36324D01*
X27381Y36288D01*
X27340Y36260D01*
X27312Y36219D01*
X27276Y36183D01*
X27257Y36137D01*
X27229Y36095D01*
X27219Y36046D01*
X27200Y35999D01*
Y35949D01*
X27190Y35900D01*
Y34310D01*
X27000D01*
X26951Y34300D01*
X26901D01*
X26854Y34281D01*
X26805Y34271D01*
X26763Y34243D01*
X26717Y34224D01*
X26681Y34188D01*
X26640Y34160D01*
X26612Y34119D01*
X26576Y34083D01*
X26557Y34037D01*
X26529Y33995D01*
X26519Y33946D01*
X26500Y33899D01*
Y33849D01*
X26490Y33800D01*
X26500Y33751D01*
Y33701D01*
X26519Y33654D01*
X26529Y33605D01*
X26557Y33563D01*
X26576Y33517D01*
X26612Y33481D01*
X26640Y33440D01*
X26681Y33412D01*
X26717Y33376D01*
X26763Y33357D01*
X26805Y33329D01*
X26854Y33319D01*
X26901Y33300D01*
X26951D01*
X27000Y33290D01*
X30200D01*
X30395Y33329D01*
X30560Y33440D01*
X31660Y34540D01*
X31688Y34581D01*
X31724Y34617D01*
X31743Y34663D01*
X31771Y34705D01*
X31781Y34754D01*
X31800Y34801D01*
Y34851D01*
X31810Y34900D01*
X31800Y34949D01*
Y34999D01*
X31781Y35046D01*
X31771Y35095D01*
X31743Y35137D01*
X31724Y35183D01*
X31688Y35219D01*
X31660Y35260D01*
X31619Y35288D01*
X31583Y35324D01*
X31537Y35343D01*
X31495Y35371D01*
X31446Y35381D01*
X31399Y35400D01*
X31349D01*
X31300Y35410D01*
X31251Y35400D01*
X31201D01*
X31154Y35381D01*
X31105Y35371D01*
X31063Y35343D01*
X31017Y35324D01*
X30981Y35288D01*
X30940Y35260D01*
X29989Y34310D01*
X28210D01*
Y35900D01*
X28200Y35949D01*
Y35999D01*
X28181Y36046D01*
X28171Y36095D01*
X28143Y36137D01*
X28124Y36183D01*
X28088Y36219D01*
X28060Y36260D01*
X28019Y36288D01*
X27983Y36324D01*
X27937Y36343D01*
X27895Y36371D01*
X27846Y36381D01*
X27799Y36400D01*
X27749D01*
X27700Y36410D01*
D02*
G37*
G36*
X44400Y33500D02*
X42600D01*
Y32071D01*
X42573Y32052D01*
X42177Y31657D01*
X38950D01*
X38883Y31724D01*
X38699Y31800D01*
X38501D01*
X38317Y31724D01*
X38176Y31583D01*
X38100Y31399D01*
Y31201D01*
X38176Y31017D01*
X38317Y30876D01*
X38501Y30800D01*
X38699D01*
X38883Y30876D01*
X38950Y30943D01*
X42325D01*
X42462Y30970D01*
X42577Y31048D01*
X42978Y31449D01*
X42984Y31450D01*
X44400D01*
Y33500D01*
D02*
G37*
G36*
X48900D02*
X47100D01*
Y31450D01*
X48900D01*
Y31804D01*
X48906Y31808D01*
X49027Y31843D01*
X49142Y31728D01*
X49325Y31652D01*
X49460D01*
X49485Y31615D01*
Y31416D01*
X49561Y31232D01*
X49702Y31092D01*
X49885Y31015D01*
X50084D01*
X50268Y31092D01*
X50409Y31232D01*
X50485Y31416D01*
Y31615D01*
X50409Y31799D01*
X50268Y31939D01*
X50084Y32015D01*
X49950D01*
X49925Y32053D01*
Y32251D01*
X49849Y32435D01*
X49708Y32576D01*
X49524Y32652D01*
X49325D01*
X49142Y32576D01*
X49027Y32461D01*
X48906Y32496D01*
X48900Y32500D01*
Y33500D01*
D02*
G37*
G36*
X27109Y30450D02*
X26891D01*
X26688Y30366D01*
X26534Y30212D01*
X26450Y30009D01*
Y29791D01*
X26534Y29588D01*
X26688Y29434D01*
X26891Y29350D01*
X27109D01*
X27312Y29434D01*
X27466Y29588D01*
X27550Y29791D01*
Y30009D01*
X27466Y30212D01*
X27312Y30366D01*
X27109Y30450D01*
D02*
G37*
G36*
X1599Y30000D02*
X1401D01*
X1217Y29924D01*
X1076Y29783D01*
X1000Y29599D01*
Y29401D01*
X1076Y29217D01*
X1217Y29076D01*
X1401Y29000D01*
X1599D01*
X1783Y29076D01*
X1924Y29217D01*
X2000Y29401D01*
Y29599D01*
X1924Y29783D01*
X1783Y29924D01*
X1599Y30000D01*
D02*
G37*
G36*
X15874Y27900D02*
X15676D01*
X15492Y27824D01*
X15450Y27782D01*
X15408Y27824D01*
X15224Y27900D01*
X15026D01*
X14842Y27824D01*
X14701Y27683D01*
X14625Y27499D01*
Y27301D01*
X14701Y27117D01*
X14842Y26976D01*
X15026Y26900D01*
X15224D01*
X15408Y26976D01*
X15450Y27018D01*
X15492Y26976D01*
X15676Y26900D01*
X15874D01*
X16058Y26976D01*
X16199Y27117D01*
X16275Y27301D01*
Y27499D01*
X16199Y27683D01*
X16058Y27824D01*
X15874Y27900D01*
D02*
G37*
G36*
X23999Y30100D02*
X23801D01*
X23617Y30024D01*
X23476Y29883D01*
X23400Y29699D01*
Y29501D01*
X23476Y29317D01*
X23593Y29200D01*
X23476Y29083D01*
X23400Y28899D01*
Y28701D01*
X23450Y28579D01*
X23317Y28524D01*
X23176Y28383D01*
X23100Y28199D01*
Y28001D01*
X23176Y27817D01*
X23317Y27676D01*
X23501Y27600D01*
X23699D01*
X23883Y27676D01*
X24024Y27817D01*
X24100Y28001D01*
Y28199D01*
X24050Y28321D01*
X24183Y28376D01*
X24324Y28517D01*
X24400Y28701D01*
Y28899D01*
X24324Y29083D01*
X24207Y29200D01*
X24324Y29317D01*
X24400Y29501D01*
Y29699D01*
X24324Y29883D01*
X24183Y30024D01*
X23999Y30100D01*
D02*
G37*
G36*
X33973Y28041D02*
X33754D01*
X33552Y27958D01*
X33397Y27803D01*
X33313Y27601D01*
Y27382D01*
X33397Y27180D01*
X33552Y27025D01*
X33694Y26966D01*
Y26829D01*
X33663Y26816D01*
X33509Y26662D01*
X33425Y26459D01*
Y26241D01*
X33509Y26038D01*
X33663Y25884D01*
X33866Y25800D01*
X34084D01*
X34286Y25884D01*
X34441Y26038D01*
X34525Y26241D01*
Y26459D01*
X34441Y26662D01*
X34286Y26816D01*
X34144Y26875D01*
Y27013D01*
X34175Y27025D01*
X34330Y27180D01*
X34413Y27382D01*
Y27601D01*
X34330Y27803D01*
X34175Y27958D01*
X33973Y28041D01*
D02*
G37*
G36*
X48900Y25550D02*
X48125D01*
Y24650D01*
X48900D01*
Y25550D01*
D02*
G37*
G36*
X47875D02*
X47100D01*
Y24650D01*
X47875D01*
Y25550D01*
D02*
G37*
G36*
X9150Y25550D02*
Y25550D01*
X8375D01*
Y24525D01*
Y23500D01*
X9150D01*
Y24448D01*
X9256Y24519D01*
X9301Y24500D01*
X9499D01*
X9683Y24576D01*
X9824Y24717D01*
X9900Y24901D01*
Y25099D01*
X9824Y25283D01*
X9683Y25424D01*
X9499Y25500D01*
X9301D01*
X9254Y25481D01*
X9150Y25550D01*
D02*
G37*
G36*
X11899Y24900D02*
X11701D01*
X11517Y24824D01*
X11376Y24683D01*
X11300Y24499D01*
Y24301D01*
X11376Y24117D01*
X11517Y23976D01*
X11701Y23900D01*
X11899D01*
X12083Y23976D01*
X12224Y24117D01*
X12300Y24301D01*
Y24499D01*
X12224Y24683D01*
X12083Y24824D01*
X11899Y24900D01*
D02*
G37*
G36*
X48900Y24400D02*
X48125D01*
Y23500D01*
X48900D01*
Y24400D01*
D02*
G37*
G36*
X47875D02*
X47100D01*
Y23500D01*
X47875D01*
Y24400D01*
D02*
G37*
G36*
X44400Y25550D02*
X42600D01*
Y23500D01*
X44400D01*
Y25550D01*
D02*
G37*
G36*
X29199Y24000D02*
X29001D01*
X28817Y23924D01*
X28676Y23783D01*
X28600Y23599D01*
Y23401D01*
X28676Y23217D01*
X28817Y23076D01*
X29001Y23000D01*
X29199D01*
X29383Y23076D01*
X29524Y23217D01*
X29600Y23401D01*
Y23599D01*
X29524Y23783D01*
X29383Y23924D01*
X29199Y24000D01*
D02*
G37*
G36*
X9799Y22500D02*
X9601D01*
X9417Y22424D01*
X9276Y22283D01*
X9200Y22099D01*
Y21901D01*
X9276Y21717D01*
X9417Y21576D01*
X9601Y21500D01*
X9799D01*
X9983Y21576D01*
X10124Y21717D01*
X10200Y21901D01*
Y22099D01*
X10124Y22283D01*
X9983Y22424D01*
X9799Y22500D01*
D02*
G37*
G36*
X36595Y23100D02*
X36397D01*
X36213Y23024D01*
X36072Y22883D01*
X35996Y22699D01*
Y22501D01*
X36072Y22317D01*
X36213Y22176D01*
X36397Y22100D01*
X36595D01*
X36598Y22101D01*
X36695Y22004D01*
X36678Y21962D01*
Y21763D01*
X36754Y21579D01*
X36894Y21439D01*
X37078Y21363D01*
X37277D01*
X37461Y21439D01*
X37602Y21579D01*
X37678Y21763D01*
Y21962D01*
X37602Y22146D01*
X37461Y22287D01*
X37277Y22363D01*
X37078D01*
X37076Y22362D01*
X36979Y22459D01*
X36996Y22501D01*
Y22699D01*
X36920Y22883D01*
X36779Y23024D01*
X36595Y23100D01*
D02*
G37*
G36*
X39609Y21650D02*
X39391D01*
X39188Y21566D01*
X39034Y21412D01*
X38950Y21209D01*
Y20991D01*
X39034Y20788D01*
X39188Y20634D01*
X39391Y20550D01*
X39609D01*
X39812Y20634D01*
X39966Y20788D01*
X40050Y20991D01*
Y21209D01*
X39966Y21412D01*
X39812Y21566D01*
X39609Y21650D01*
D02*
G37*
G36*
X51075Y20925D02*
X50300D01*
Y20150D01*
X51075D01*
Y20925D01*
D02*
G37*
G36*
X50050D02*
X49275D01*
Y20150D01*
X50050D01*
Y20925D01*
D02*
G37*
G36*
X24199Y20500D02*
X24001D01*
X23817Y20424D01*
X23676Y20283D01*
X23600Y20099D01*
Y19901D01*
X23676Y19717D01*
X23817Y19576D01*
X24001Y19500D01*
X24199D01*
X24383Y19576D01*
X24524Y19717D01*
X24600Y19901D01*
Y20099D01*
X24524Y20283D01*
X24383Y20424D01*
X24199Y20500D01*
D02*
G37*
G36*
X38599Y20250D02*
X38401D01*
X38217Y20174D01*
X38076Y20033D01*
X38000Y19849D01*
Y19651D01*
X38076Y19467D01*
X38217Y19326D01*
X38401Y19250D01*
X38599D01*
X38783Y19326D01*
X38924Y19467D01*
X39000Y19651D01*
Y19849D01*
X38924Y20033D01*
X38783Y20174D01*
X38599Y20250D01*
D02*
G37*
G36*
X51075Y19900D02*
X50300D01*
Y19125D01*
X51075D01*
Y19900D01*
D02*
G37*
G36*
X50050D02*
X49275D01*
Y19125D01*
X50050D01*
Y19900D01*
D02*
G37*
G36*
X37709Y19250D02*
X37491D01*
X37288Y19166D01*
X37134Y19012D01*
X37050Y18809D01*
Y18591D01*
X37134Y18388D01*
X37288Y18234D01*
X37491Y18150D01*
X37709D01*
X37912Y18234D01*
X38066Y18388D01*
X38150Y18591D01*
Y18809D01*
X38066Y19012D01*
X37912Y19166D01*
X37709Y19250D01*
D02*
G37*
G36*
X12699Y18400D02*
X12501D01*
X12317Y18324D01*
X12176Y18183D01*
X12100Y17999D01*
Y17801D01*
X12176Y17617D01*
X12317Y17476D01*
X12501Y17400D01*
X12699D01*
X12883Y17476D01*
X13024Y17617D01*
X13100Y17801D01*
Y17999D01*
X13024Y18183D01*
X12883Y18324D01*
X12699Y18400D01*
D02*
G37*
G36*
X44349Y18250D02*
X44151D01*
X43967Y18174D01*
X43826Y18033D01*
X43750Y17849D01*
Y17651D01*
X43826Y17467D01*
X43967Y17326D01*
X44151Y17250D01*
X44349D01*
X44533Y17326D01*
X44674Y17467D01*
X44750Y17651D01*
Y17849D01*
X44674Y18033D01*
X44533Y18174D01*
X44349Y18250D01*
D02*
G37*
G36*
X41335Y18320D02*
X41116D01*
X40914Y18236D01*
X40759Y18082D01*
X40675Y17880D01*
Y17661D01*
X40759Y17459D01*
X40914Y17304D01*
X41116Y17220D01*
X41335D01*
X41537Y17304D01*
X41691Y17459D01*
X41775Y17661D01*
Y17880D01*
X41691Y18082D01*
X41537Y18236D01*
X41335Y18320D01*
D02*
G37*
G36*
X50293Y18925D02*
X50057D01*
X49828Y18864D01*
X49622Y18745D01*
X49455Y18578D01*
X49336Y18372D01*
X49275Y18143D01*
Y17907D01*
X49336Y17678D01*
X49455Y17472D01*
X49622Y17305D01*
X49828Y17186D01*
X50057Y17125D01*
X50293D01*
X50522Y17186D01*
X50728Y17305D01*
X50895Y17472D01*
X51014Y17678D01*
X51075Y17907D01*
Y18143D01*
X51014Y18372D01*
X50895Y18578D01*
X50728Y18745D01*
X50522Y18864D01*
X50293Y18925D01*
D02*
G37*
G36*
Y16925D02*
X50057D01*
X49828Y16864D01*
X49622Y16745D01*
X49455Y16578D01*
X49336Y16372D01*
X49275Y16143D01*
Y15907D01*
X49336Y15678D01*
X49455Y15472D01*
X49622Y15305D01*
X49828Y15186D01*
X50057Y15125D01*
X50293D01*
X50522Y15186D01*
X50728Y15305D01*
X50895Y15472D01*
X51014Y15678D01*
X51075Y15907D01*
Y16143D01*
X51014Y16372D01*
X50895Y16578D01*
X50728Y16745D01*
X50522Y16864D01*
X50293Y16925D01*
D02*
G37*
G36*
Y14925D02*
X50057D01*
X49828Y14864D01*
X49622Y14745D01*
X49455Y14578D01*
X49336Y14372D01*
X49275Y14143D01*
Y13907D01*
X49336Y13678D01*
X49455Y13472D01*
X49622Y13305D01*
X49828Y13186D01*
X50057Y13125D01*
X50293D01*
X50522Y13186D01*
X50728Y13305D01*
X50895Y13472D01*
X51014Y13678D01*
X51075Y13907D01*
Y14143D01*
X51014Y14372D01*
X50895Y14578D01*
X50728Y14745D01*
X50522Y14864D01*
X50293Y14925D01*
D02*
G37*
G36*
Y12925D02*
X50057D01*
X49828Y12864D01*
X49622Y12745D01*
X49455Y12578D01*
X49336Y12372D01*
X49275Y12143D01*
Y11907D01*
X49336Y11678D01*
X49455Y11472D01*
X49622Y11305D01*
X49828Y11186D01*
X50057Y11125D01*
X50293D01*
X50522Y11186D01*
X50728Y11305D01*
X50895Y11472D01*
X51014Y11678D01*
X51075Y11907D01*
Y12143D01*
X51014Y12372D01*
X50895Y12578D01*
X50728Y12745D01*
X50522Y12864D01*
X50293Y12925D01*
D02*
G37*
G36*
X37599Y3088D02*
D01*
Y2841D01*
X37599D01*
X37596Y2841D01*
X37592Y2843D01*
X37587Y2846D01*
X37580Y2848D01*
X37572Y2852D01*
X37563Y2856D01*
X37552Y2861D01*
X37541Y2867D01*
X37529Y2873D01*
X37516Y2880D01*
X37502Y2889D01*
X37488Y2898D01*
X37473Y2908D01*
X37457Y2919D01*
X37441Y2931D01*
X37440Y2932D01*
X37438Y2934D01*
X37433Y2938D01*
X37427Y2943D01*
X37420Y2950D01*
X37413Y2957D01*
X37403Y2966D01*
X37394Y2976D01*
X37385Y2987D01*
X37374Y2999D01*
X37364Y3011D01*
X37355Y3025D01*
X37346Y3040D01*
X37337Y3055D01*
X37330Y3071D01*
X37323Y3088D01*
X37171D01*
Y2108D01*
X37599D01*
Y3088D01*
D02*
G37*
%LPD*%
G36*
X37358Y2811D02*
X37363Y2808D01*
X37368Y2803D01*
X37376Y2797D01*
X37385Y2788D01*
X37397Y2779D01*
X37411Y2770D01*
X37426Y2759D01*
X37444Y2747D01*
X37462Y2736D01*
X37482Y2724D01*
X37503Y2712D01*
X37526Y2700D01*
X37550Y2690D01*
X37574Y2680D01*
X37599Y2671D01*
Y2108D01*
X37358D01*
Y2812D01*
X37358Y2811D01*
D02*
G37*
%LPC*%
G36*
X4706Y3085D02*
X4515D01*
X4116Y2433D01*
Y3085D01*
X3933D01*
Y2110D01*
X4131D01*
X4523Y2747D01*
Y2110D01*
X4706D01*
Y3085D01*
D02*
G37*
G36*
X5802Y3102D02*
X4890D01*
Y2093D01*
Y2244D01*
X4891Y2243D01*
X4893Y2241D01*
X4897Y2238D01*
X4902Y2234D01*
X4908Y2229D01*
X4917Y2223D01*
X4926Y2216D01*
X4936Y2208D01*
X4949Y2200D01*
X4961Y2191D01*
X4977Y2183D01*
X4993Y2174D01*
X5010Y2165D01*
X5029Y2156D01*
X5049Y2147D01*
X5071Y2138D01*
X5072Y2137D01*
X5076Y2136D01*
X5082Y2134D01*
X5091Y2131D01*
X5101Y2128D01*
X5114Y2124D01*
X5128Y2120D01*
X5144Y2116D01*
X5161Y2112D01*
X5180Y2108D01*
X5199Y2103D01*
X5219Y2100D01*
X5263Y2095D01*
X5285Y2094D01*
X5307Y2093D01*
X5314D01*
X5323Y2094D01*
X5333D01*
X5346Y2095D01*
X5362Y2097D01*
X5379Y2098D01*
X5398Y2101D01*
X5418Y2104D01*
X5440Y2109D01*
X5462Y2114D01*
X5485Y2120D01*
X5508Y2127D01*
X5531Y2136D01*
X5553Y2146D01*
X5575Y2157D01*
X5576Y2158D01*
X5580Y2160D01*
X5586Y2164D01*
X5593Y2169D01*
X5603Y2175D01*
X5614Y2184D01*
X5625Y2193D01*
X5638Y2204D01*
X5652Y2216D01*
X5666Y2230D01*
X5680Y2245D01*
X5695Y2262D01*
X5708Y2279D01*
X5722Y2298D01*
X5734Y2318D01*
X5746Y2340D01*
X5746Y2342D01*
X5748Y2345D01*
X5751Y2352D01*
X5754Y2361D01*
X5759Y2372D01*
X5763Y2386D01*
X5768Y2401D01*
X5773Y2418D01*
X5779Y2437D01*
X5784Y2457D01*
X5789Y2478D01*
X5793Y2501D01*
X5797Y2525D01*
X5800Y2549D01*
X5801Y2575D01*
X5802Y2601D01*
Y2243D01*
Y2608D01*
X5801Y2616D01*
Y2626D01*
X5800Y2640D01*
X5799Y2655D01*
X5797Y2673D01*
X5795Y2692D01*
X5791Y2712D01*
X5787Y2734D01*
X5782Y2756D01*
X5775Y2779D01*
X5768Y2803D01*
X5760Y2826D01*
X5750Y2849D01*
X5739Y2871D01*
X5738Y2873D01*
X5735Y2877D01*
X5732Y2882D01*
X5727Y2891D01*
X5720Y2901D01*
X5713Y2912D01*
X5702Y2925D01*
X5691Y2938D01*
X5679Y2953D01*
X5665Y2968D01*
X5650Y2983D01*
X5633Y2998D01*
X5615Y3013D01*
X5595Y3027D01*
X5575Y3041D01*
X5552Y3053D01*
X5551Y3054D01*
X5548Y3056D01*
X5543Y3058D01*
X5535Y3061D01*
X5526Y3064D01*
X5515Y3069D01*
X5502Y3074D01*
X5488Y3078D01*
X5471Y3082D01*
X5454Y3087D01*
X5434Y3091D01*
X5414Y3095D01*
X5392Y3098D01*
X5368Y3101D01*
X5344Y3102D01*
X5318Y3102D01*
X5802D01*
D01*
D02*
G37*
G36*
X3726Y3085D02*
X2908D01*
Y2110D01*
Y2576D01*
X2909Y2568D01*
Y2558D01*
X2909Y2546D01*
X2910Y2532D01*
X2911Y2517D01*
X2913Y2501D01*
X2915Y2485D01*
X2920Y2450D01*
X2928Y2415D01*
X2938Y2381D01*
Y2380D01*
X2940Y2376D01*
X2942Y2371D01*
X2945Y2363D01*
X2948Y2354D01*
X2953Y2344D01*
X2959Y2332D01*
X2964Y2319D01*
X2980Y2292D01*
X2997Y2263D01*
X3019Y2235D01*
X3030Y2221D01*
X3042Y2208D01*
X3043Y2208D01*
X3045Y2206D01*
X3047Y2203D01*
X3052Y2200D01*
X3057Y2196D01*
X3063Y2191D01*
X3070Y2186D01*
X3079Y2180D01*
X3088Y2174D01*
X3099Y2168D01*
X3110Y2161D01*
X3123Y2154D01*
X3136Y2148D01*
X3150Y2142D01*
X3165Y2136D01*
X3181Y2131D01*
X3182D01*
X3184Y2130D01*
X3188Y2129D01*
X3193Y2127D01*
X3200Y2125D01*
X3207Y2124D01*
X3217Y2122D01*
X3227Y2120D01*
X3239Y2119D01*
X3252Y2117D01*
X3266Y2115D01*
X3282Y2114D01*
X3299Y2112D01*
X3316Y2111D01*
X3335Y2110D01*
X3726D01*
Y3085D01*
D02*
G37*
%LPD*%
G36*
X5301Y3102D02*
X5288D01*
X5273Y3100D01*
X5256Y3098D01*
X5235Y3096D01*
X5214Y3093D01*
X5192Y3089D01*
X5170Y3084D01*
X5146Y3077D01*
X5122Y3070D01*
X5098Y3061D01*
X5076Y3051D01*
X5055Y3039D01*
X5035Y3025D01*
X5034Y3025D01*
X5031Y3022D01*
X5026Y3018D01*
X5019Y3012D01*
X5010Y3003D01*
X5001Y2994D01*
X4991Y2983D01*
X4980Y2970D01*
X4969Y2957D01*
X4958Y2941D01*
X4947Y2924D01*
X4936Y2904D01*
X4926Y2885D01*
X4917Y2863D01*
X4909Y2840D01*
X4903Y2816D01*
X5098Y2779D01*
Y2780D01*
X5099Y2783D01*
X5101Y2786D01*
X5103Y2791D01*
X5105Y2797D01*
X5108Y2804D01*
X5116Y2820D01*
X5126Y2838D01*
X5140Y2857D01*
X5157Y2875D01*
X5176Y2892D01*
X5177Y2893D01*
X5179Y2893D01*
X5182Y2896D01*
X5186Y2899D01*
X5192Y2902D01*
X5198Y2905D01*
X5207Y2909D01*
X5215Y2913D01*
X5225Y2917D01*
X5235Y2921D01*
X5247Y2924D01*
X5260Y2927D01*
X5288Y2932D01*
X5302Y2933D01*
X5318Y2934D01*
X5324D01*
X5331Y2933D01*
X5340D01*
X5351Y2932D01*
X5363Y2930D01*
X5377Y2927D01*
X5392Y2924D01*
X5408Y2920D01*
X5425Y2914D01*
X5442Y2908D01*
X5459Y2899D01*
X5476Y2890D01*
X5493Y2879D01*
X5508Y2866D01*
X5523Y2852D01*
X5524Y2851D01*
X5526Y2848D01*
X5530Y2844D01*
X5535Y2837D01*
X5541Y2828D01*
X5547Y2817D01*
X5554Y2806D01*
X5561Y2791D01*
X5568Y2774D01*
X5575Y2756D01*
X5581Y2736D01*
X5587Y2715D01*
X5592Y2691D01*
X5596Y2665D01*
X5598Y2638D01*
X5599Y2608D01*
Y2608D01*
Y2607D01*
Y2604D01*
Y2601D01*
X5598Y2592D01*
Y2580D01*
X5597Y2565D01*
X5595Y2549D01*
X5592Y2531D01*
X5590Y2511D01*
X5586Y2490D01*
X5581Y2469D01*
X5574Y2447D01*
X5567Y2426D01*
X5558Y2405D01*
X5548Y2384D01*
X5536Y2365D01*
X5522Y2348D01*
X5521Y2347D01*
X5519Y2345D01*
X5515Y2340D01*
X5508Y2334D01*
X5500Y2328D01*
X5491Y2321D01*
X5481Y2313D01*
X5468Y2305D01*
X5455Y2297D01*
X5439Y2289D01*
X5422Y2282D01*
X5405Y2275D01*
X5385Y2269D01*
X5365Y2265D01*
X5343Y2262D01*
X5320Y2262D01*
X5309D01*
X5304Y2262D01*
X5297Y2263D01*
X5290D01*
X5281Y2265D01*
X5263Y2268D01*
X5242Y2272D01*
X5219Y2278D01*
X5197Y2285D01*
X5196D01*
X5194Y2286D01*
X5191Y2288D01*
X5186Y2290D01*
X5181Y2292D01*
X5175Y2295D01*
X5159Y2302D01*
X5142Y2311D01*
X5125Y2321D01*
X5107Y2332D01*
X5089Y2345D01*
Y2468D01*
X5315D01*
Y2633D01*
X4890D01*
Y3102D01*
X5306D01*
X5301Y3102D01*
D02*
G37*
G36*
X3336Y3085D02*
X3324D01*
X3311Y3084D01*
X3297Y3083D01*
X3267Y3080D01*
X3236Y3077D01*
X3206Y3073D01*
X3193Y3069D01*
X3180Y3066D01*
X3179D01*
X3176Y3065D01*
X3172Y3063D01*
X3166Y3061D01*
X3158Y3058D01*
X3150Y3055D01*
X3140Y3051D01*
X3129Y3046D01*
X3107Y3033D01*
X3095Y3026D01*
X3082Y3018D01*
X3070Y3009D01*
X3057Y2999D01*
X3046Y2988D01*
X3034Y2976D01*
X3033Y2976D01*
X3031Y2974D01*
X3028Y2970D01*
X3024Y2965D01*
X3019Y2959D01*
X3013Y2951D01*
X3006Y2943D01*
X2999Y2932D01*
X2992Y2921D01*
X2984Y2910D01*
X2976Y2897D01*
X2968Y2882D01*
X2960Y2868D01*
X2953Y2852D01*
X2940Y2818D01*
Y2817D01*
X2938Y2814D01*
X2937Y2809D01*
X2935Y2801D01*
X2932Y2793D01*
X2930Y2782D01*
X2927Y2769D01*
X2924Y2755D01*
X2920Y2739D01*
X2918Y2721D01*
X2915Y2702D01*
X2913Y2682D01*
X2910Y2660D01*
X2909Y2637D01*
X2908Y2614D01*
Y3085D01*
X3346D01*
X3336Y3085D01*
D02*
G37*
G36*
X3529Y2275D02*
X3361D01*
X3354Y2276D01*
X3336D01*
X3316Y2278D01*
X3297Y2279D01*
X3278Y2281D01*
X3270Y2283D01*
X3262Y2284D01*
X3261D01*
X3260Y2285D01*
X3258Y2286D01*
X3255Y2287D01*
X3245Y2290D01*
X3234Y2294D01*
X3222Y2300D01*
X3209Y2306D01*
X3196Y2315D01*
X3184Y2324D01*
X3182Y2326D01*
X3178Y2330D01*
X3173Y2337D01*
X3165Y2347D01*
X3156Y2360D01*
X3148Y2376D01*
X3140Y2395D01*
X3135Y2406D01*
X3131Y2418D01*
Y2419D01*
X3130Y2421D01*
X3129Y2425D01*
X3128Y2430D01*
X3126Y2437D01*
X3124Y2445D01*
X3123Y2454D01*
X3121Y2465D01*
X3119Y2477D01*
X3118Y2491D01*
X3116Y2505D01*
X3114Y2521D01*
X3112Y2539D01*
X3112Y2557D01*
X3111Y2577D01*
Y2597D01*
Y2599D01*
Y2603D01*
Y2608D01*
Y2616D01*
X3112Y2625D01*
Y2636D01*
X3112Y2648D01*
X3113Y2661D01*
X3116Y2689D01*
X3119Y2718D01*
X3124Y2745D01*
X3128Y2758D01*
X3131Y2770D01*
Y2771D01*
X3132Y2773D01*
X3133Y2776D01*
X3134Y2780D01*
X3137Y2785D01*
X3140Y2791D01*
X3145Y2805D01*
X3154Y2820D01*
X3163Y2836D01*
X3175Y2851D01*
X3188Y2865D01*
X3189Y2866D01*
X3195Y2871D01*
X3202Y2876D01*
X3212Y2883D01*
X3226Y2891D01*
X3241Y2899D01*
X3259Y2905D01*
X3278Y2911D01*
X3279D01*
X3280Y2912D01*
X3282D01*
X3287Y2913D01*
X3292Y2914D01*
X3298Y2915D01*
X3305Y2915D01*
X3314Y2916D01*
X3324Y2917D01*
X3336Y2918D01*
X3349D01*
X3365Y2919D01*
X3381Y2920D01*
X3399Y2921D01*
X3529D01*
Y2275D01*
D02*
G37*
%LPC*%
G36*
X26333Y3088D02*
X25980D01*
D01*
X25677D01*
X25980D01*
X25973Y3087D01*
X25963D01*
X25951Y3085D01*
X25937Y3083D01*
X25922Y3081D01*
X25905Y3077D01*
X25887Y3073D01*
X25868Y3068D01*
X25850Y3062D01*
X25830Y3055D01*
X25812Y3045D01*
X25794Y3035D01*
X25776Y3022D01*
X25760Y3009D01*
X25759Y3008D01*
X25757Y3006D01*
X25752Y3001D01*
X25747Y2995D01*
X25741Y2988D01*
X25734Y2978D01*
X25726Y2967D01*
X25719Y2956D01*
X25711Y2942D01*
X25703Y2928D01*
X25697Y2912D01*
X25690Y2895D01*
X25685Y2876D01*
X25681Y2857D01*
X25678Y2836D01*
X25677Y2815D01*
Y2804D01*
X25678Y2798D01*
Y2792D01*
X25679Y2784D01*
X25680Y2775D01*
X25683Y2756D01*
X25687Y2735D01*
X25693Y2713D01*
X25701Y2690D01*
Y2689D01*
X25702Y2688D01*
X25703Y2684D01*
X25705Y2680D01*
X25708Y2674D01*
X25711Y2668D01*
X25714Y2660D01*
X25719Y2652D01*
X25730Y2633D01*
X25742Y2612D01*
X25758Y2589D01*
X25776Y2566D01*
Y2565D01*
X25778Y2564D01*
X25780Y2561D01*
X25783Y2557D01*
X25786Y2553D01*
X25791Y2548D01*
X25797Y2541D01*
X25804Y2534D01*
X25812Y2525D01*
X25821Y2516D01*
X25831Y2506D01*
X25842Y2495D01*
X25855Y2482D01*
X25868Y2469D01*
X25883Y2456D01*
X25899Y2441D01*
X25900Y2440D01*
X25903Y2437D01*
X25907Y2433D01*
X25913Y2428D01*
X25920Y2421D01*
X25928Y2413D01*
X25946Y2397D01*
X25966Y2379D01*
X25983Y2361D01*
X25992Y2353D01*
X25999Y2345D01*
X26006Y2338D01*
X26011Y2332D01*
X26012Y2331D01*
X26016Y2328D01*
X26020Y2323D01*
X26025Y2316D01*
X26031Y2309D01*
X26038Y2300D01*
X26043Y2291D01*
X26049Y2282D01*
X25677D01*
Y2108D01*
X26333D01*
Y3088D01*
D02*
G37*
%LPD*%
G36*
Y2109D02*
X26332Y2112D01*
X26331Y2117D01*
X26330Y2125D01*
X26328Y2134D01*
X26327Y2144D01*
X26324Y2155D01*
X26321Y2168D01*
X26317Y2182D01*
X26312Y2197D01*
X26301Y2228D01*
X26295Y2244D01*
X26287Y2261D01*
X26279Y2277D01*
X26269Y2294D01*
X26268Y2295D01*
X26267Y2298D01*
X26263Y2304D01*
X26258Y2310D01*
X26252Y2320D01*
X26244Y2330D01*
X26235Y2342D01*
X26223Y2357D01*
X26209Y2373D01*
X26194Y2391D01*
X26177Y2410D01*
X26158Y2430D01*
X26136Y2453D01*
X26113Y2477D01*
X26087Y2502D01*
X26059Y2529D01*
X26057Y2530D01*
X26053Y2534D01*
X26047Y2539D01*
X26038Y2548D01*
X26028Y2557D01*
X26017Y2568D01*
X26005Y2580D01*
X25992Y2593D01*
X25966Y2619D01*
X25952Y2633D01*
X25940Y2645D01*
X25928Y2658D01*
X25919Y2670D01*
X25911Y2680D01*
X25904Y2688D01*
X25903Y2689D01*
X25902Y2691D01*
X25900Y2694D01*
X25898Y2699D01*
X25895Y2704D01*
X25891Y2710D01*
X25884Y2724D01*
X25878Y2742D01*
X25871Y2761D01*
X25867Y2781D01*
X25865Y2792D01*
Y2803D01*
Y2803D01*
Y2805D01*
Y2808D01*
X25866Y2813D01*
Y2818D01*
X25867Y2825D01*
X25869Y2838D01*
X25873Y2853D01*
X25879Y2869D01*
X25888Y2885D01*
X25899Y2899D01*
X25900Y2901D01*
X25905Y2904D01*
X25912Y2910D01*
X25923Y2916D01*
X25936Y2922D01*
X25952Y2928D01*
X25971Y2931D01*
X25992Y2933D01*
X25998D01*
X26001Y2932D01*
X26006D01*
X26012Y2931D01*
X26026Y2929D01*
X26040Y2924D01*
X26055Y2918D01*
X26070Y2909D01*
X26085Y2897D01*
X26087Y2896D01*
X26088Y2894D01*
X26090Y2891D01*
X26093Y2886D01*
X26096Y2882D01*
X26099Y2876D01*
X26103Y2869D01*
X26106Y2862D01*
X26109Y2853D01*
X26113Y2844D01*
X26116Y2833D01*
X26119Y2821D01*
X26121Y2809D01*
X26123Y2795D01*
X26125Y2781D01*
X26311Y2799D01*
Y2800D01*
Y2801D01*
X26310Y2806D01*
X26309Y2814D01*
X26306Y2825D01*
X26304Y2837D01*
X26301Y2852D01*
X26297Y2868D01*
X26291Y2885D01*
X26285Y2902D01*
X26279Y2921D01*
X26270Y2939D01*
X26260Y2957D01*
X26249Y2975D01*
X26236Y2991D01*
X26222Y3006D01*
X26207Y3020D01*
X26206Y3021D01*
X26202Y3022D01*
X26197Y3026D01*
X26191Y3031D01*
X26182Y3036D01*
X26172Y3041D01*
X26160Y3048D01*
X26146Y3054D01*
X26131Y3060D01*
X26114Y3066D01*
X26096Y3072D01*
X26076Y3077D01*
X26056Y3082D01*
X26034Y3085D01*
X26011Y3087D01*
X25987Y3088D01*
X26333D01*
Y2109D01*
D02*
G37*
%LPC*%
G36*
X47912Y3096D02*
X47278D01*
D01*
X47589D01*
X47582Y3095D01*
X47572Y3094D01*
X47560Y3093D01*
X47546Y3091D01*
X47531Y3088D01*
X47514Y3083D01*
X47497Y3078D01*
X47479Y3072D01*
X47460Y3063D01*
X47442Y3053D01*
X47424Y3042D01*
X47406Y3028D01*
X47389Y3012D01*
X47374Y2995D01*
X47373Y2993D01*
X47370Y2989D01*
X47365Y2982D01*
X47359Y2972D01*
X47352Y2958D01*
X47343Y2942D01*
X47335Y2923D01*
X47326Y2900D01*
X47317Y2874D01*
X47309Y2845D01*
X47304Y2829D01*
X47300Y2812D01*
X47297Y2795D01*
X47293Y2776D01*
X47290Y2757D01*
X47287Y2737D01*
X47284Y2715D01*
X47282Y2693D01*
X47281Y2671D01*
X47279Y2647D01*
X47278Y2622D01*
Y2578D01*
X47279Y2571D01*
Y2561D01*
X47280Y2552D01*
X47281Y2541D01*
Y2529D01*
X47283Y2503D01*
X47287Y2474D01*
X47290Y2444D01*
X47295Y2412D01*
X47302Y2379D01*
X47309Y2345D01*
X47319Y2313D01*
X47330Y2282D01*
X47342Y2251D01*
X47358Y2224D01*
X47366Y2211D01*
X47375Y2199D01*
X47375Y2199D01*
X47378Y2195D01*
X47383Y2190D01*
X47389Y2184D01*
X47397Y2177D01*
X47407Y2168D01*
X47419Y2159D01*
X47431Y2150D01*
X47447Y2140D01*
X47463Y2131D01*
X47481Y2123D01*
X47501Y2115D01*
X47522Y2109D01*
X47545Y2104D01*
X47569Y2101D01*
X47595Y2100D01*
X47278D01*
X47912D01*
Y2617D01*
X47911Y2625D01*
Y2634D01*
X47910Y2644D01*
X47909Y2655D01*
Y2666D01*
X47907Y2693D01*
X47904Y2721D01*
X47900Y2752D01*
X47895Y2784D01*
X47888Y2817D01*
X47880Y2850D01*
X47871Y2882D01*
X47860Y2914D01*
X47847Y2944D01*
X47833Y2971D01*
X47825Y2984D01*
X47816Y2995D01*
X47815Y2996D01*
X47813Y3000D01*
X47808Y3005D01*
X47802Y3011D01*
X47793Y3019D01*
X47784Y3028D01*
X47772Y3036D01*
X47759Y3046D01*
X47744Y3055D01*
X47727Y3064D01*
X47710Y3072D01*
X47690Y3080D01*
X47668Y3087D01*
X47645Y3092D01*
X47622Y3095D01*
X47595Y3096D01*
X47912D01*
D02*
G37*
%LPD*%
G36*
X47607Y2940D02*
X47616Y2939D01*
X47625Y2936D01*
X47635Y2932D01*
X47646Y2927D01*
X47656Y2919D01*
X47657Y2918D01*
X47660Y2915D01*
X47666Y2909D01*
X47672Y2902D01*
X47678Y2891D01*
X47685Y2877D01*
X47692Y2861D01*
X47698Y2841D01*
Y2841D01*
X47699Y2838D01*
X47699Y2834D01*
X47700Y2827D01*
X47702Y2819D01*
X47704Y2809D01*
X47705Y2797D01*
X47707Y2784D01*
X47709Y2768D01*
X47710Y2750D01*
X47712Y2730D01*
X47714Y2708D01*
X47715Y2683D01*
X47715Y2657D01*
X47716Y2628D01*
Y2597D01*
Y2596D01*
Y2595D01*
Y2593D01*
Y2589D01*
Y2581D01*
Y2569D01*
X47715Y2556D01*
Y2539D01*
X47715Y2522D01*
X47714Y2503D01*
X47712Y2464D01*
X47710Y2444D01*
X47710Y2425D01*
X47707Y2407D01*
X47705Y2390D01*
X47702Y2375D01*
X47699Y2361D01*
Y2360D01*
X47699Y2358D01*
X47698Y2355D01*
X47696Y2351D01*
X47694Y2346D01*
X47693Y2340D01*
X47688Y2326D01*
X47681Y2312D01*
X47673Y2298D01*
X47665Y2286D01*
X47660Y2280D01*
X47655Y2276D01*
X47655Y2275D01*
X47650Y2272D01*
X47645Y2269D01*
X47638Y2265D01*
X47629Y2261D01*
X47619Y2258D01*
X47608Y2255D01*
X47595Y2254D01*
X47589D01*
X47584Y2255D01*
X47575Y2257D01*
X47566Y2260D01*
X47556Y2264D01*
X47545Y2269D01*
X47535Y2276D01*
X47534Y2276D01*
X47531Y2280D01*
X47526Y2286D01*
X47520Y2293D01*
X47513Y2304D01*
X47506Y2318D01*
X47499Y2334D01*
X47493Y2353D01*
Y2354D01*
X47492Y2357D01*
X47491Y2361D01*
X47490Y2367D01*
X47489Y2375D01*
X47487Y2386D01*
X47485Y2397D01*
X47483Y2411D01*
X47481Y2427D01*
X47479Y2445D01*
X47478Y2464D01*
X47477Y2486D01*
X47475Y2511D01*
X47474Y2537D01*
X47474Y2566D01*
Y2597D01*
Y2598D01*
Y2599D01*
Y2601D01*
Y2605D01*
Y2613D01*
Y2625D01*
X47474Y2638D01*
Y2655D01*
X47475Y2672D01*
X47476Y2691D01*
X47478Y2730D01*
X47479Y2750D01*
X47481Y2769D01*
X47483Y2787D01*
X47485Y2804D01*
X47488Y2819D01*
X47491Y2833D01*
Y2834D01*
X47492Y2836D01*
X47493Y2839D01*
X47495Y2843D01*
X47496Y2848D01*
X47498Y2854D01*
X47503Y2868D01*
X47509Y2882D01*
X47517Y2896D01*
X47526Y2909D01*
X47530Y2915D01*
X47535Y2919D01*
X47536Y2920D01*
X47540Y2923D01*
X47545Y2926D01*
X47552Y2930D01*
X47562Y2934D01*
X47572Y2938D01*
X47583Y2940D01*
X47595Y2941D01*
X47601D01*
X47607Y2940D01*
D02*
G37*
G36*
X47912Y2100D02*
X47601D01*
X47609Y2101D01*
X47619Y2101D01*
X47631Y2103D01*
X47645Y2106D01*
X47660Y2109D01*
X47677Y2113D01*
X47695Y2119D01*
X47714Y2127D01*
X47732Y2135D01*
X47752Y2145D01*
X47771Y2158D01*
X47790Y2172D01*
X47808Y2189D01*
X47825Y2209D01*
X47825Y2210D01*
X47828Y2214D01*
X47832Y2221D01*
X47838Y2230D01*
X47845Y2243D01*
X47853Y2258D01*
X47860Y2276D01*
X47868Y2298D01*
X47872Y2310D01*
X47876Y2324D01*
X47880Y2337D01*
X47884Y2352D01*
X47888Y2368D01*
X47891Y2384D01*
X47895Y2401D01*
X47898Y2419D01*
X47901Y2439D01*
X47903Y2458D01*
X47906Y2479D01*
X47908Y2501D01*
X47909Y2524D01*
X47911Y2548D01*
X47912Y2572D01*
Y2100D01*
D02*
G37*
%LPC*%
G36*
X15790Y3094D02*
X15577D01*
X15330Y2372D01*
X15092Y3094D01*
X15252D01*
X14882D01*
X15230Y2118D01*
X14882D01*
X15442D01*
X15790Y3094D01*
D02*
G37*
G36*
X14824Y2841D02*
X14469D01*
X14461Y2840D01*
X14450Y2839D01*
X14437Y2838D01*
X14423Y2836D01*
X14408Y2834D01*
X14392Y2830D01*
X14375Y2827D01*
X14358Y2823D01*
X14341Y2817D01*
X14324Y2811D01*
X14307Y2803D01*
X14292Y2795D01*
X14277Y2785D01*
X14276Y2784D01*
X14274Y2782D01*
X14269Y2779D01*
X14264Y2775D01*
X14258Y2769D01*
X14251Y2761D01*
X14243Y2753D01*
X14235Y2742D01*
X14225Y2731D01*
X14217Y2719D01*
X14208Y2705D01*
X14198Y2690D01*
X14190Y2673D01*
X14181Y2655D01*
X14174Y2636D01*
X14167Y2616D01*
X14351Y2583D01*
Y2583D01*
X14352Y2585D01*
Y2588D01*
X14353Y2592D01*
X14356Y2601D01*
X14361Y2614D01*
X14367Y2627D01*
X14374Y2641D01*
X14384Y2654D01*
X14395Y2666D01*
X14396Y2666D01*
X14400Y2670D01*
X14407Y2674D01*
X14417Y2680D01*
X14429Y2685D01*
X14444Y2689D01*
X14461Y2693D01*
X14480Y2693D01*
X14487D01*
X14492Y2693D01*
X14497Y2692D01*
X14504Y2691D01*
X14520Y2688D01*
X14538Y2682D01*
X14547Y2677D01*
X14556Y2673D01*
X14565Y2667D01*
X14574Y2660D01*
X14582Y2653D01*
X14591Y2644D01*
X14592Y2644D01*
X14592Y2642D01*
X14594Y2639D01*
X14598Y2635D01*
X14600Y2630D01*
X14603Y2623D01*
X14608Y2616D01*
X14611Y2606D01*
X14615Y2596D01*
X14619Y2584D01*
X14623Y2571D01*
X14625Y2556D01*
X14628Y2540D01*
X14631Y2523D01*
X14631Y2504D01*
X14632Y2484D01*
Y2482D01*
Y2479D01*
Y2472D01*
X14631Y2463D01*
X14631Y2453D01*
X14630Y2441D01*
X14629Y2428D01*
X14627Y2414D01*
X14622Y2385D01*
X14614Y2356D01*
X14610Y2342D01*
X14604Y2329D01*
X14598Y2316D01*
X14591Y2306D01*
X14590Y2305D01*
X14589Y2304D01*
X14587Y2301D01*
X14583Y2298D01*
X14579Y2294D01*
X14574Y2290D01*
X14568Y2285D01*
X14560Y2281D01*
X14544Y2271D01*
X14525Y2263D01*
X14514Y2260D01*
X14502Y2257D01*
X14489Y2255D01*
X14477Y2254D01*
X14472D01*
X14467Y2255D01*
X14458Y2256D01*
X14445Y2258D01*
X14432Y2262D01*
X14417Y2267D01*
X14403Y2274D01*
X14389Y2284D01*
X14388Y2286D01*
X14384Y2290D01*
X14378Y2298D01*
X14374Y2303D01*
X14371Y2309D01*
X14367Y2315D01*
X14362Y2323D01*
X14359Y2331D01*
X14355Y2342D01*
X14351Y2352D01*
X14347Y2363D01*
X14344Y2375D01*
X14341Y2389D01*
X14158Y2358D01*
Y2356D01*
X14159Y2352D01*
X14161Y2346D01*
X14164Y2336D01*
X14167Y2326D01*
X14171Y2315D01*
X14176Y2301D01*
X14182Y2287D01*
X14189Y2271D01*
X14197Y2255D01*
X14206Y2239D01*
X14216Y2223D01*
X14227Y2208D01*
X14240Y2194D01*
X14253Y2179D01*
X14268Y2166D01*
X14269Y2166D01*
X14271Y2164D01*
X14276Y2161D01*
X14282Y2156D01*
X14291Y2151D01*
X14301Y2146D01*
X14312Y2140D01*
X14325Y2134D01*
X14340Y2128D01*
X14356Y2123D01*
X14374Y2117D01*
X14394Y2112D01*
X14414Y2108D01*
X14437Y2105D01*
X14461Y2103D01*
X14485Y2102D01*
X14492D01*
X14500Y2103D01*
X14510Y2104D01*
X14524Y2106D01*
X14539Y2107D01*
X14556Y2111D01*
X14575Y2114D01*
X14594Y2119D01*
X14614Y2126D01*
X14635Y2134D01*
X14655Y2144D01*
X14675Y2155D01*
X14696Y2167D01*
X14715Y2183D01*
X14733Y2199D01*
X14734Y2200D01*
X14737Y2204D01*
X14741Y2210D01*
X14747Y2217D01*
X14754Y2227D01*
X14762Y2239D01*
X14770Y2254D01*
X14779Y2271D01*
X14787Y2288D01*
X14795Y2309D01*
X14803Y2331D01*
X14810Y2355D01*
X14816Y2381D01*
X14820Y2409D01*
X14823Y2439D01*
X14824Y2470D01*
Y2478D01*
D01*
X14823Y2487D01*
X14823Y2499D01*
X14822Y2514D01*
X14819Y2531D01*
X14817Y2550D01*
X14812Y2570D01*
X14808Y2591D01*
X14801Y2614D01*
X14795Y2636D01*
X14785Y2659D01*
X14775Y2682D01*
X14762Y2703D01*
X14748Y2723D01*
X14732Y2742D01*
X14731Y2743D01*
X14728Y2747D01*
X14723Y2752D01*
X14715Y2758D01*
X14706Y2765D01*
X14695Y2774D01*
X14681Y2782D01*
X14666Y2792D01*
X14649Y2801D01*
X14631Y2809D01*
X14609Y2818D01*
X14587Y2825D01*
X14564Y2831D01*
X14538Y2836D01*
X14510Y2840D01*
X14482Y2841D01*
X14824D01*
D02*
G37*
G36*
X14066D02*
X13711D01*
X13703Y2840D01*
X13692Y2839D01*
X13679Y2838D01*
X13665Y2836D01*
X13650Y2834D01*
X13634Y2830D01*
X13617Y2827D01*
X13600Y2823D01*
X13583Y2817D01*
X13566Y2811D01*
X13550Y2803D01*
X13534Y2795D01*
X13519Y2785D01*
X13518Y2784D01*
X13516Y2782D01*
X13512Y2779D01*
X13506Y2775D01*
X13501Y2769D01*
X13493Y2761D01*
X13485Y2753D01*
X13477Y2742D01*
X13468Y2731D01*
X13459Y2719D01*
X13450Y2705D01*
X13440Y2690D01*
X13432Y2673D01*
X13424Y2655D01*
X13416Y2636D01*
X13409Y2616D01*
X13594Y2583D01*
Y2583D01*
X13594Y2585D01*
Y2588D01*
X13595Y2592D01*
X13599Y2601D01*
X13603Y2614D01*
X13609Y2627D01*
X13616Y2641D01*
X13626Y2654D01*
X13637Y2666D01*
X13638Y2666D01*
X13643Y2670D01*
X13649Y2674D01*
X13660Y2680D01*
X13671Y2685D01*
X13687Y2689D01*
X13704Y2693D01*
X13722Y2693D01*
X13729D01*
X13734Y2693D01*
X13739Y2692D01*
X13746Y2691D01*
X13762Y2688D01*
X13780Y2682D01*
X13789Y2677D01*
X13798Y2673D01*
X13808Y2667D01*
X13816Y2660D01*
X13824Y2653D01*
X13833Y2644D01*
X13834Y2644D01*
X13835Y2642D01*
X13836Y2639D01*
X13840Y2635D01*
X13842Y2630D01*
X13846Y2623D01*
X13850Y2616D01*
X13853Y2606D01*
X13857Y2596D01*
X13861Y2584D01*
X13865Y2571D01*
X13868Y2556D01*
X13870Y2540D01*
X13873Y2523D01*
X13874Y2504D01*
X13874Y2484D01*
Y2482D01*
Y2479D01*
Y2472D01*
X13874Y2463D01*
X13873Y2453D01*
X13872Y2441D01*
X13871Y2428D01*
X13869Y2414D01*
X13864Y2385D01*
X13857Y2356D01*
X13852Y2342D01*
X13846Y2329D01*
X13841Y2316D01*
X13833Y2306D01*
X13832Y2305D01*
X13831Y2304D01*
X13829Y2301D01*
X13825Y2298D01*
X13821Y2294D01*
X13816Y2290D01*
X13810Y2285D01*
X13802Y2281D01*
X13786Y2271D01*
X13767Y2263D01*
X13756Y2260D01*
X13744Y2257D01*
X13731Y2255D01*
X13719Y2254D01*
X13714D01*
X13709Y2255D01*
X13700Y2256D01*
X13687Y2258D01*
X13674Y2262D01*
X13660Y2267D01*
X13645Y2274D01*
X13632Y2284D01*
X13630Y2286D01*
X13626Y2290D01*
X13620Y2298D01*
X13616Y2303D01*
X13613Y2309D01*
X13609Y2315D01*
X13605Y2323D01*
X13601Y2331D01*
X13597Y2342D01*
X13594Y2352D01*
X13589Y2363D01*
X13586Y2375D01*
X13583Y2389D01*
X13400Y2358D01*
Y2356D01*
X13402Y2352D01*
X13403Y2346D01*
X13406Y2336D01*
X13409Y2326D01*
X13413Y2315D01*
X13418Y2301D01*
X13424Y2287D01*
X13431Y2271D01*
X13440Y2255D01*
X13448Y2239D01*
X13458Y2223D01*
X13469Y2208D01*
X13482Y2194D01*
X13495Y2179D01*
X13510Y2166D01*
X13511Y2166D01*
X13513Y2164D01*
X13518Y2161D01*
X13524Y2156D01*
X13533Y2151D01*
X13543Y2146D01*
X13554Y2140D01*
X13567Y2134D01*
X13583Y2128D01*
X13599Y2123D01*
X13616Y2117D01*
X13636Y2112D01*
X13656Y2108D01*
X13679Y2105D01*
X13703Y2103D01*
X13727Y2102D01*
X13734D01*
X13742Y2103D01*
X13753Y2104D01*
X13766Y2106D01*
X13781Y2107D01*
X13798Y2111D01*
X13817Y2114D01*
X13836Y2119D01*
X13856Y2126D01*
X13877Y2134D01*
X13897Y2144D01*
X13918Y2155D01*
X13938Y2167D01*
X13957Y2183D01*
X13975Y2199D01*
X13976Y2200D01*
X13979Y2204D01*
X13983Y2210D01*
X13989Y2217D01*
X13996Y2227D01*
X14004Y2239D01*
X14012Y2254D01*
X14021Y2271D01*
X14029Y2288D01*
X14038Y2309D01*
X14045Y2331D01*
X14052Y2355D01*
X14058Y2381D01*
X14062Y2409D01*
X14066Y2439D01*
X14066Y2470D01*
Y2478D01*
X14066Y2487D01*
X14065Y2499D01*
X14064Y2514D01*
X14061Y2531D01*
X14059Y2550D01*
X14055Y2570D01*
X14050Y2591D01*
X14044Y2614D01*
X14037Y2636D01*
X14027Y2659D01*
X14017Y2682D01*
X14005Y2703D01*
X13990Y2723D01*
X13974Y2742D01*
X13973Y2743D01*
X13970Y2747D01*
X13965Y2752D01*
X13957Y2758D01*
X13948Y2765D01*
X13937Y2774D01*
X13923Y2782D01*
X13908Y2792D01*
X13891Y2801D01*
X13873Y2809D01*
X13852Y2818D01*
X13830Y2825D01*
X13806Y2831D01*
X13780Y2836D01*
X13753Y2840D01*
X13724Y2841D01*
X14066D01*
D02*
G37*
%LPD*%
D11*
X3750Y32475D02*
Y32600D01*
X4650Y33500D01*
X19000Y25007D02*
Y26250D01*
X15800Y21807D02*
X19000Y25007D01*
X15800Y17950D02*
Y21807D01*
X15750Y17900D02*
X15800Y17950D01*
X17250Y19447D02*
X20000Y22197D01*
Y23750D01*
X17250Y17750D02*
Y19447D01*
X21419Y11400D02*
X21500D01*
X21269Y11250D02*
X21419Y11400D01*
X6750Y15748D02*
X11248Y11250D01*
X21269D01*
X10410Y10900D02*
X16231D01*
X23655Y10750D02*
X25895Y12990D01*
X6300Y15010D02*
X10410Y10900D01*
X16381Y10750D02*
X23655D01*
X16231Y10900D02*
X16381Y10750D01*
X16086Y10550D02*
X16386Y10250D01*
X22705D02*
X26005Y6950D01*
X16386Y10250D02*
X22705D01*
X10265Y10550D02*
X16086D01*
X5950Y14865D02*
X10265Y10550D01*
X7100Y15893D02*
X11243Y11750D01*
X7300Y25919D02*
Y26000D01*
X7100Y15893D02*
Y25719D01*
X6750Y26157D02*
X7293Y26700D01*
X21500Y2505D02*
Y8300D01*
X25895Y12990D02*
Y13000D01*
X4900Y14430D02*
X8855Y10475D01*
X5600Y14720D02*
X10120Y10200D01*
X5250Y14575D02*
X10125Y9700D01*
X8855Y2450D02*
Y10475D01*
X9250Y14450D02*
X15652D01*
X8300Y15400D02*
X9250Y14450D01*
X29897Y11908D02*
Y13898D01*
Y11908D02*
X31715Y10090D01*
X28695Y15100D02*
X29897Y13898D01*
X29533Y11777D02*
X30400Y10910D01*
Y3000D02*
Y10910D01*
X24646Y22646D02*
X24954D01*
X17400Y15400D02*
X18400Y14400D01*
X28584D01*
X29533Y11777D02*
Y13451D01*
X24954Y22646D02*
X32143Y29836D01*
X32073Y12073D02*
Y13451D01*
X31800Y11800D02*
X32073Y12073D01*
X31800Y10500D02*
Y11800D01*
X32063Y13461D02*
Y13687D01*
X31000Y14750D02*
Y15600D01*
Y14750D02*
X32063Y13687D01*
Y13461D02*
X32073Y13451D01*
X34750Y9585D02*
Y13545D01*
X33357Y14938D02*
X34750Y13545D01*
Y9585D02*
X37385Y6950D01*
X41875Y2450D02*
Y14025D01*
X22825Y2450D02*
Y5534D01*
X22500Y5859D02*
X22825Y5534D01*
X22500Y5859D02*
Y8600D01*
X31715Y2450D02*
Y10090D01*
X34135Y2570D02*
Y8665D01*
X32427Y10373D02*
X34135Y8665D01*
X15941Y10200D02*
X19015Y7126D01*
X10120Y10200D02*
X15941D01*
X47595Y6950D02*
Y10905D01*
X42745Y3355D02*
Y14355D01*
X20300Y3700D02*
Y7000D01*
X17400Y15400D02*
X24646Y22646D01*
X41400Y6369D02*
Y13500D01*
X37865Y14250D02*
X40650D01*
X41400Y13500D01*
X10125Y2450D02*
Y9700D01*
X43091Y16050D02*
X50845Y8296D01*
X44015Y2850D02*
Y13785D01*
X32985Y2450D02*
Y9315D01*
X29255Y2530D02*
Y8684D01*
X27200Y10739D02*
X29255Y8684D01*
X27200Y10739D02*
Y13900D01*
X20200Y3600D02*
X20300Y3700D01*
X42745Y3355D02*
X43000Y3100D01*
X34135Y2570D02*
X34255Y2450D01*
X19015D02*
Y7126D01*
X40605Y5574D02*
X41400Y6369D01*
X40605Y2450D02*
Y5574D01*
X44015Y2850D02*
X44415Y2450D01*
X29175D02*
X29255Y2530D01*
X50765Y2450D02*
X50800Y2485D01*
Y5559D01*
X50845Y5604D01*
Y8296D01*
X5950Y27850D02*
X7300Y29200D01*
X5950Y14865D02*
Y27850D01*
X32500Y24200D02*
Y25500D01*
Y24200D02*
X33754Y22946D01*
Y21046D02*
Y22946D01*
Y21046D02*
X35839Y18961D01*
Y18957D02*
Y18961D01*
Y18957D02*
X36161Y18635D01*
X36165D01*
X38750Y16050D01*
X43091D01*
X31800Y10500D02*
X32985Y9315D01*
X32700Y20600D02*
Y21600D01*
Y20600D02*
X34000Y19300D01*
X34300D01*
X38300Y15300D01*
X42500D01*
X44015Y13785D01*
X5250Y30050D02*
X7100Y31900D01*
X5250Y14575D02*
Y30050D01*
X37215Y14900D02*
X37865Y14250D01*
X35100Y14900D02*
X37215D01*
X34700Y15300D02*
X35100Y14900D01*
X28584Y14400D02*
X29533Y13451D01*
X42150Y14950D02*
X42745Y14355D01*
X38155Y14950D02*
X42150D01*
X36405Y16700D02*
X38155Y14950D01*
X20200Y16700D02*
X36405D01*
X18600Y15100D02*
X20200Y16700D01*
X4900Y31000D02*
X6900Y33000D01*
X4900Y14430D02*
Y31000D01*
X33254Y20594D02*
Y22568D01*
Y20594D02*
X34148Y19700D01*
X34601D01*
X38601Y15700D01*
X42800D01*
X47595Y10905D01*
X33357Y14938D02*
Y15243D01*
X33300Y15300D02*
X33357Y15243D01*
X5600Y28900D02*
X7300Y30600D01*
X5600Y14720D02*
Y28900D01*
X31800Y15293D02*
Y15300D01*
Y15293D02*
X32427Y14666D01*
Y10373D02*
Y14666D01*
X28000Y15100D02*
X28695D01*
X41300Y14600D02*
X41875Y14025D01*
X38010Y14600D02*
X41300D01*
X37310Y15300D02*
X38010Y14600D01*
X35707Y15300D02*
X37310D01*
X35407Y15600D02*
X35707Y15300D01*
X35400Y15600D02*
X35407D01*
X6300Y27000D02*
X7300Y28000D01*
X7293Y26700D02*
X7300D01*
X6750Y15748D02*
Y26157D01*
X21500Y2505D02*
X21555Y2450D01*
X7100Y25719D02*
X7300Y25919D01*
X11243Y11750D02*
X19500D01*
X13500Y20900D02*
Y30000D01*
X10000Y33500D02*
X13500Y30000D01*
X4650Y33500D02*
X10000D01*
X6300Y15010D02*
Y27000D01*
X33108Y24615D02*
X34104Y23619D01*
Y21696D02*
X35100Y20700D01*
X34104Y21696D02*
Y23619D01*
X32143Y29836D02*
Y29943D01*
X32200Y30000D01*
X42950Y31800D02*
X43500Y32350D01*
X42825Y31800D02*
X42950D01*
X42325Y31300D02*
X42825Y31800D01*
X43500Y32350D02*
Y32475D01*
X38600Y31300D02*
X42325D01*
X19900Y26200D02*
X19981D01*
X20097Y26316D01*
X26516D01*
X29979Y29779D01*
Y29979D01*
X33100Y33100D01*
X39200D01*
X15652Y14450D02*
X20252Y19050D01*
X27273Y25616D02*
X31500Y29843D01*
X24264Y25966D02*
X26916D01*
X11200Y14900D02*
X15607D01*
X19902Y19194D01*
X26916Y25966D02*
X30850Y29900D01*
X19902Y21604D02*
X24264Y25966D01*
X24409Y25616D02*
X27273D01*
X20252Y19050D02*
Y21459D01*
X24409Y25616D01*
X31500Y29843D02*
Y29900D01*
X19902Y19194D02*
Y21604D01*
X10700Y15400D02*
X11200Y14900D01*
D13*
X20825Y13000D02*
X20952Y13127D01*
D19*
X17745Y2450D02*
D03*
X11395D02*
D03*
X1235D02*
D03*
X10125D02*
D03*
X7585D02*
D03*
X8855D02*
D03*
X19015D02*
D03*
X21555D02*
D03*
X22825D02*
D03*
X20285D02*
D03*
X30445D02*
D03*
X29175D02*
D03*
X32985D02*
D03*
X34255D02*
D03*
X31715D02*
D03*
X41875D02*
D03*
X43145D02*
D03*
X40605D02*
D03*
X50765D02*
D03*
X44415D02*
D03*
D66*
X47340Y42368D02*
D03*
X42260D02*
D03*
D68*
X13200Y7800D02*
X14300D01*
D69*
X27700Y33800D02*
Y35900D01*
X27000Y33800D02*
X27700D01*
X30200D01*
X31300Y34900D01*
D74*
X38605Y13000D02*
D03*
X33525D02*
D03*
X30985D02*
D03*
X28445D02*
D03*
X25905D02*
D03*
X23365D02*
D03*
X20825D02*
D03*
X18285D02*
D03*
X15745D02*
D03*
X13205D02*
D03*
X36065D02*
D03*
D75*
X14595Y6950D02*
D03*
X4355D02*
D03*
X26005D02*
D03*
X47595D02*
D03*
X37385D02*
D03*
D76*
X50175Y14025D02*
D03*
Y12025D02*
D03*
Y16025D02*
D03*
Y18025D02*
D03*
D77*
X32990Y37920D02*
D03*
X27210D02*
D03*
D78*
X25780Y41600D02*
D03*
X34420D02*
D03*
D79*
X25780Y37420D02*
D03*
X34420D02*
D03*
D80*
X50175Y20025D02*
D03*
D81*
X19000Y26250D02*
D03*
X20000Y23750D02*
D03*
X15750Y17900D02*
D03*
X17250Y17750D02*
D03*
X19500Y11750D02*
D03*
X21500Y11400D02*
D03*
Y8300D02*
D03*
X7300Y26700D02*
D03*
Y26000D02*
D03*
X23500Y15250D02*
D03*
X9500Y15400D02*
D03*
X50250Y42200D02*
D03*
X49500Y40700D02*
D03*
X50250Y39200D02*
D03*
X49500Y37700D02*
D03*
X50250Y36200D02*
D03*
X49500Y34700D02*
D03*
X50250Y33200D02*
D03*
Y30200D02*
D03*
X49500Y28700D02*
D03*
X50250Y27200D02*
D03*
X49500Y25700D02*
D03*
X50250Y24200D02*
D03*
X49500Y22700D02*
D03*
X50250Y21200D02*
D03*
X48750Y42200D02*
D03*
Y39200D02*
D03*
X48000Y37700D02*
D03*
X48750Y36200D02*
D03*
X48000Y34700D02*
D03*
Y22700D02*
D03*
X48750Y21200D02*
D03*
X48000Y19700D02*
D03*
X48750Y12200D02*
D03*
X46500Y37700D02*
D03*
X47250Y36200D02*
D03*
Y30200D02*
D03*
Y27200D02*
D03*
X45750Y33200D02*
D03*
Y30200D02*
D03*
Y15200D02*
D03*
X43500Y37700D02*
D03*
X42750Y39200D02*
D03*
X42000Y37700D02*
D03*
X42750Y36200D02*
D03*
X40500Y40700D02*
D03*
X41250Y39200D02*
D03*
X39750Y42200D02*
D03*
Y39200D02*
D03*
Y30200D02*
D03*
Y12200D02*
D03*
X38250Y39200D02*
D03*
X37500Y37700D02*
D03*
Y34700D02*
D03*
X38250Y30200D02*
D03*
Y27200D02*
D03*
X36750Y39200D02*
D03*
X36000Y37700D02*
D03*
X36750Y36200D02*
D03*
X36000Y34700D02*
D03*
X35250Y39200D02*
D03*
Y36200D02*
D03*
X34500Y34700D02*
D03*
X35250Y24200D02*
D03*
X33000Y40700D02*
D03*
X33750Y39200D02*
D03*
X32250Y42200D02*
D03*
X31500Y40700D02*
D03*
X32250Y39200D02*
D03*
Y27200D02*
D03*
X30750Y42200D02*
D03*
X30000Y40700D02*
D03*
X30750Y39200D02*
D03*
Y33200D02*
D03*
X29250Y42200D02*
D03*
X28500Y40700D02*
D03*
X29250Y18200D02*
D03*
X27750Y42200D02*
D03*
X27000Y40700D02*
D03*
X27750Y21200D02*
D03*
X27000Y19700D02*
D03*
X27750Y18200D02*
D03*
X24750Y42200D02*
D03*
X24000Y40700D02*
D03*
X24750Y18200D02*
D03*
X23250Y42200D02*
D03*
X22500Y40700D02*
D03*
X23250Y39200D02*
D03*
Y18200D02*
D03*
X21750Y42200D02*
D03*
X21000Y40700D02*
D03*
X21750Y39200D02*
D03*
Y18200D02*
D03*
X20250Y42200D02*
D03*
X19500Y40700D02*
D03*
X20250Y39200D02*
D03*
X19500Y37700D02*
D03*
X20250Y33200D02*
D03*
X19500Y31700D02*
D03*
X20250Y30200D02*
D03*
X19500Y28700D02*
D03*
X20250Y27200D02*
D03*
Y15200D02*
D03*
X19500Y13700D02*
D03*
X18750Y42200D02*
D03*
X18000Y40700D02*
D03*
X18750Y39200D02*
D03*
X18000Y37700D02*
D03*
X18750Y33200D02*
D03*
Y30200D02*
D03*
X18000Y28700D02*
D03*
X18750Y27200D02*
D03*
X18000Y25700D02*
D03*
X17250Y42200D02*
D03*
X16500Y40700D02*
D03*
X17250Y39200D02*
D03*
X16500Y37700D02*
D03*
X17250Y36200D02*
D03*
Y27200D02*
D03*
X16500Y25700D02*
D03*
X15750Y42200D02*
D03*
X15000Y40700D02*
D03*
X15750Y39200D02*
D03*
X15000Y37700D02*
D03*
X15750Y36200D02*
D03*
X15000Y34700D02*
D03*
X15750Y33200D02*
D03*
X15000Y31700D02*
D03*
X15750Y30200D02*
D03*
X15000Y28700D02*
D03*
X14250Y42200D02*
D03*
X13500Y40700D02*
D03*
X14250Y39200D02*
D03*
X13500Y37700D02*
D03*
X14250Y36200D02*
D03*
X13500Y34700D02*
D03*
X14250Y33200D02*
D03*
X13500Y31700D02*
D03*
X14250Y30200D02*
D03*
Y27200D02*
D03*
X12750Y42200D02*
D03*
X12000Y40700D02*
D03*
X12750Y39200D02*
D03*
X12000Y37700D02*
D03*
X12750Y36200D02*
D03*
X12000Y34700D02*
D03*
X12750Y33200D02*
D03*
Y21200D02*
D03*
X12000Y13700D02*
D03*
X11250Y42200D02*
D03*
X10500Y40700D02*
D03*
X11250Y39200D02*
D03*
X10500Y37700D02*
D03*
X11250Y36200D02*
D03*
X10500Y34700D02*
D03*
X11250Y33200D02*
D03*
X10500Y31700D02*
D03*
X11250Y21200D02*
D03*
X10500Y13700D02*
D03*
X9750Y42200D02*
D03*
X9000Y40700D02*
D03*
X9750Y39200D02*
D03*
X9000Y37700D02*
D03*
X9750Y36200D02*
D03*
X9000Y34700D02*
D03*
Y28700D02*
D03*
X8250Y42200D02*
D03*
X7500Y40700D02*
D03*
X8250Y39200D02*
D03*
X7500Y37700D02*
D03*
X8250Y36200D02*
D03*
X7500Y34700D02*
D03*
X8250Y30200D02*
D03*
Y27200D02*
D03*
X6750Y42200D02*
D03*
X6000Y40700D02*
D03*
X6750Y39200D02*
D03*
X6000Y37700D02*
D03*
Y34700D02*
D03*
X5250Y42200D02*
D03*
X4500Y40700D02*
D03*
X5250Y39200D02*
D03*
X4500Y13700D02*
D03*
X5250Y12200D02*
D03*
X3750Y42200D02*
D03*
X3000Y40700D02*
D03*
X3750Y39200D02*
D03*
Y18200D02*
D03*
X3000Y16700D02*
D03*
X3750Y15200D02*
D03*
X3000Y13700D02*
D03*
X3750Y12200D02*
D03*
X2250Y42200D02*
D03*
X1500Y40700D02*
D03*
X2250Y39200D02*
D03*
X1500Y31700D02*
D03*
X2250Y24200D02*
D03*
X1500Y22700D02*
D03*
X2250Y21200D02*
D03*
X1500Y19700D02*
D03*
X2250Y18200D02*
D03*
X1500Y16700D02*
D03*
X2250Y15200D02*
D03*
X1500Y13700D02*
D03*
X2250Y12200D02*
D03*
X27700Y35900D02*
D03*
X34137Y24841D02*
D03*
X26131Y35597D02*
D03*
X20300Y7000D02*
D03*
X22500Y8600D02*
D03*
X7300Y30600D02*
D03*
Y29200D02*
D03*
Y28000D02*
D03*
X6900Y33000D02*
D03*
X7600Y23300D02*
D03*
X9400Y25000D02*
D03*
X7100Y31900D02*
D03*
X11800Y24400D02*
D03*
X17900Y23200D02*
D03*
X23000Y22400D02*
D03*
X27200Y13900D02*
D03*
X15300Y21800D02*
D03*
X24100Y20000D02*
D03*
X16500Y21300D02*
D03*
X28000Y15100D02*
D03*
X31000Y15600D02*
D03*
X31800Y15300D02*
D03*
X34700D02*
D03*
X35400Y15600D02*
D03*
X24300Y21500D02*
D03*
X23400Y23000D02*
D03*
X23000Y25600D02*
D03*
X33300Y15300D02*
D03*
X18600Y15100D02*
D03*
X17400Y15400D02*
D03*
X17600Y20700D02*
D03*
X29100Y23500D02*
D03*
X23600Y28100D02*
D03*
X23900Y28800D02*
D03*
Y29600D02*
D03*
X32700Y21600D02*
D03*
X20100Y34500D02*
D03*
X33254Y22568D02*
D03*
X32500Y25500D02*
D03*
X23200Y35300D02*
D03*
X35100Y20700D02*
D03*
X16400Y17200D02*
D03*
X13500Y20900D02*
D03*
X12600Y17900D02*
D03*
X32200Y30000D02*
D03*
X38600Y31300D02*
D03*
X19900Y26200D02*
D03*
X33200Y34200D02*
D03*
X41400Y35800D02*
D03*
X38700Y43200D02*
D03*
X38400Y36500D02*
D03*
X8300Y15400D02*
D03*
X10700D02*
D03*
X30850Y29900D02*
D03*
X31500D02*
D03*
X9700Y22000D02*
D03*
X39200Y33100D02*
D03*
X15400Y15400D02*
D03*
X13100D02*
D03*
X41600Y19500D02*
D03*
X43700Y21400D02*
D03*
X39900Y18400D02*
D03*
X44250Y17750D02*
D03*
X38500Y19750D02*
D03*
X24750Y17250D02*
D03*
X1500Y29500D02*
D03*
X6250Y36250D02*
D03*
X24000Y24500D02*
D03*
X27000Y33800D02*
D03*
X31300Y34900D02*
D03*
X24200Y36690D02*
D03*
X37178Y21863D02*
D03*
X49425Y32152D02*
D03*
X36496Y22600D02*
D03*
X49985Y31515D02*
D03*
X33108Y24615D02*
D03*
X24200Y36040D02*
D03*
X15775Y27400D02*
D03*
X15125D02*
D03*
D82*
X37600Y18700D02*
D03*
X27000Y29900D02*
D03*
X33863Y27491D02*
D03*
X33975Y26350D02*
D03*
X41225Y17770D02*
D03*
X36389Y19185D02*
D03*
X39500Y21100D02*
D03*
X46875Y38825D02*
D03*
X47025Y37100D02*
D03*
X875Y37450D02*
D03*
X44225Y30350D02*
D03*
X44225Y27331D02*
D03*
X41272Y27350D02*
D03*
X41225Y30330D02*
D03*
X42725D02*
D03*
Y27350D02*
D03*
X44225Y28850D02*
D03*
X35225Y21850D02*
D03*
D84*
X13059Y5859D02*
X14700Y7500D01*
X17342Y5899D02*
X17745Y5496D01*
X17132Y5899D02*
X17342D01*
X17745Y2450D02*
Y5496D01*
X16500Y6531D02*
X17132Y5899D01*
X16500Y6531D02*
Y6900D01*
X11400Y5514D02*
X11745Y5859D01*
X11400Y4100D02*
Y5514D01*
X11745Y5859D02*
X13059D01*
X7400Y10700D02*
X7800Y10300D01*
Y2665D02*
Y10300D01*
X7585Y2450D02*
X7800Y2665D01*
X796Y5804D02*
Y9896D01*
X1186Y2500D02*
Y5414D01*
Y2500D02*
X1235Y2450D01*
X796Y5804D02*
X1186Y5414D01*
X796Y9896D02*
X1600Y10700D01*
D85*
X3750Y32475D02*
D03*
X8250D02*
D03*
X3750Y24525D02*
D03*
X8250D02*
D03*
X43500Y32475D02*
D03*
X48000D02*
D03*
X43500Y24525D02*
D03*
X48000D02*
D03*
M02*
