G04*
G04 #@! TF.GenerationSoftware,Altium Limited,Altium Designer,24.2.2 (26)*
G04*
G04 Layer_Color=8388736*
%FSLAX43Y43*%
%MOMM*%
G71*
G04*
G04 #@! TF.SameCoordinates,35C7E3B7-7498-4331-9A29-7F0227AA752D*
G04*
G04*
G04 #@! TF.FilePolarity,Negative*
G04*
G01*
G75*
%ADD19R,1.000X5.000*%
%ADD38R,0.914X2.337*%
%ADD39R,1.100X1.100*%
%ADD40R,1.700X1.100*%
%ADD41R,1.100X1.700*%
%ADD42R,0.570X1.370*%
%ADD43R,1.100X1.100*%
%ADD44R,1.370X0.570*%
%ADD45R,1.700X2.200*%
%ADD46R,4.000X2.200*%
%ADD47R,1.200X1.050*%
%ADD48R,0.900X0.800*%
%ADD49R,0.800X0.900*%
G04:AMPARAMS|DCode=50|XSize=0.8mm|YSize=0.9mm|CornerRadius=0.25mm|HoleSize=0mm|Usage=FLASHONLY|Rotation=90.000|XOffset=0mm|YOffset=0mm|HoleType=Round|Shape=RoundedRectangle|*
%AMROUNDEDRECTD50*
21,1,0.800,0.400,0,0,90.0*
21,1,0.300,0.900,0,0,90.0*
1,1,0.500,0.200,0.150*
1,1,0.500,0.200,-0.150*
1,1,0.500,-0.200,-0.150*
1,1,0.500,-0.200,0.150*
%
%ADD50ROUNDEDRECTD50*%
%ADD51R,1.521X1.724*%
%ADD52R,0.800X1.340*%
%ADD53R,0.500X1.340*%
%ADD54R,1.724X4.264*%
%ADD55R,1.216X2.232*%
%ADD56R,1.800X1.800*%
G04:AMPARAMS|DCode=57|XSize=1.37mm|YSize=0.57mm|CornerRadius=0.285mm|HoleSize=0mm|Usage=FLASHONLY|Rotation=90.000|XOffset=0mm|YOffset=0mm|HoleType=Round|Shape=RoundedRectangle|*
%AMROUNDEDRECTD57*
21,1,1.370,0.000,0,0,90.0*
21,1,0.800,0.570,0,0,90.0*
1,1,0.570,0.000,0.400*
1,1,0.570,0.000,-0.400*
1,1,0.570,0.000,-0.400*
1,1,0.570,0.000,0.400*
%
%ADD57ROUNDEDRECTD57*%
%ADD58R,1.400X1.400*%
%ADD59C,6.200*%
%ADD60C,1.876*%
%ADD61C,1.500*%
%ADD62C,0.850*%
%ADD63O,1.100X2.000*%
%ADD64O,1.250X2.300*%
%ADD65R,1.500X1.500*%
G36*
X49950Y5040D02*
X52162D01*
Y-40D01*
X49950D01*
Y-40D01*
X45340D01*
Y-40D01*
X39710D01*
Y-40D01*
X35398D01*
Y-50D01*
X28032D01*
Y-40D01*
X23968D01*
Y-50D01*
X16602D01*
Y-40D01*
X12310D01*
Y-40D01*
X6710D01*
Y-40D01*
X2378D01*
Y-50D01*
X-162D01*
Y5030D01*
X2100D01*
Y5235D01*
X6710D01*
Y5040D01*
X12310D01*
Y5235D01*
X16920D01*
Y5030D01*
X23690D01*
Y5235D01*
X28300D01*
Y5030D01*
X35100D01*
Y5235D01*
X39710D01*
Y5040D01*
X45340D01*
Y5235D01*
X49950D01*
Y5040D01*
D02*
G37*
%LPC*%
G36*
X26323Y3087D02*
D01*
Y2816D01*
X26322Y2837D01*
X26319Y2857D01*
X26315Y2876D01*
X26310Y2895D01*
X26304Y2912D01*
X26296Y2928D01*
X26289Y2942D01*
X26281Y2955D01*
X26273Y2968D01*
X26266Y2978D01*
X26258Y2988D01*
X26252Y2995D01*
X26247Y3000D01*
X26242Y3006D01*
X26240Y3008D01*
X26239Y3009D01*
X26223Y3023D01*
X26205Y3034D01*
X26187Y3045D01*
X26169Y3054D01*
X26150Y3062D01*
X26131Y3068D01*
X26113Y3073D01*
X26095Y3078D01*
X26079Y3081D01*
X26063Y3083D01*
X26049Y3085D01*
X26037Y3086D01*
X26027Y3087D01*
X25992D01*
X26013D01*
X25989Y3086D01*
X25965Y3084D01*
X25943Y3081D01*
X25923Y3077D01*
X25903Y3071D01*
X25885Y3066D01*
X25869Y3060D01*
X25853Y3053D01*
X25840Y3047D01*
X25828Y3041D01*
X25818Y3035D01*
X25809Y3030D01*
X25803Y3026D01*
X25797Y3023D01*
X25794Y3021D01*
X25793Y3019D01*
X25777Y3006D01*
X25764Y2991D01*
X25751Y2974D01*
X25740Y2956D01*
X25731Y2938D01*
X25722Y2919D01*
X25715Y2901D01*
X25709Y2883D01*
X25703Y2866D01*
X25699Y2850D01*
X25696Y2836D01*
X25694Y2823D01*
X25692Y2812D01*
X25691Y2804D01*
X25690Y2800D01*
Y2798D01*
X25876Y2780D01*
X25877Y2794D01*
X25879Y2808D01*
X25884Y2832D01*
X25890Y2853D01*
X25897Y2868D01*
X25904Y2881D01*
X25909Y2889D01*
X25914Y2894D01*
X25915Y2896D01*
X25928Y2907D01*
X25944Y2917D01*
X25960Y2923D01*
X25975Y2928D01*
X25989Y2930D01*
X25999Y2932D01*
X26009D01*
X26030Y2931D01*
X26048Y2926D01*
X26064Y2921D01*
X26077Y2915D01*
X26088Y2909D01*
X26095Y2903D01*
X26101Y2899D01*
X26102Y2898D01*
X26113Y2884D01*
X26122Y2868D01*
X26127Y2853D01*
X26131Y2838D01*
X26133Y2823D01*
X26136Y2812D01*
Y2808D01*
Y2805D01*
Y2803D01*
Y2802D01*
X26133Y2781D01*
X26129Y2760D01*
X26123Y2740D01*
X26117Y2724D01*
X26109Y2709D01*
X26103Y2697D01*
X26100Y2693D01*
X26099Y2690D01*
X26096Y2689D01*
Y2688D01*
X26090Y2679D01*
X26082Y2669D01*
X26071Y2657D01*
X26061Y2645D01*
X26035Y2619D01*
X26008Y2593D01*
X25995Y2580D01*
X25982Y2567D01*
X25972Y2557D01*
X25961Y2547D01*
X25953Y2540D01*
X25946Y2533D01*
X25942Y2529D01*
X25941Y2528D01*
X25913Y2502D01*
X25887Y2476D01*
X25863Y2452D01*
X25842Y2430D01*
X25823Y2410D01*
X25806Y2390D01*
X25790Y2373D01*
X25777Y2357D01*
X25766Y2342D01*
X25756Y2331D01*
X25748Y2319D01*
X25741Y2310D01*
X25737Y2304D01*
X25733Y2299D01*
X25732Y2296D01*
X25731Y2295D01*
X25713Y2262D01*
X25699Y2229D01*
X25688Y2197D01*
X25679Y2169D01*
X25676Y2156D01*
X25674Y2145D01*
X25672Y2134D01*
X25670Y2126D01*
X25669Y2118D01*
Y2113D01*
X25667Y2110D01*
Y2109D01*
X26323D01*
Y3087D01*
D02*
G37*
G36*
X3870Y3102D02*
X2958D01*
X3417D01*
X3392Y3100D01*
X3369Y3098D01*
X3347Y3095D01*
X3326Y3091D01*
X3307Y3087D01*
X3289Y3082D01*
X3273Y3078D01*
X3258Y3074D01*
X3245Y3070D01*
X3235Y3065D01*
X3225Y3061D01*
X3218Y3058D01*
X3213Y3056D01*
X3209Y3055D01*
X3208Y3054D01*
X3186Y3041D01*
X3165Y3027D01*
X3145Y3014D01*
X3127Y2999D01*
X3110Y2983D01*
X3095Y2968D01*
X3081Y2953D01*
X3069Y2939D01*
X3057Y2925D01*
X3048Y2912D01*
X3040Y2901D01*
X3033Y2891D01*
X3028Y2883D01*
X3025Y2876D01*
X3022Y2872D01*
X3021Y2871D01*
X3010Y2849D01*
X3000Y2826D01*
X2992Y2802D01*
X2984Y2779D01*
X2979Y2756D01*
X2974Y2734D01*
X2970Y2711D01*
X2966Y2691D01*
X2963Y2672D01*
X2961Y2655D01*
X2960Y2640D01*
X2959Y2626D01*
X2958Y2615D01*
Y2093D01*
Y2601D01*
X2959Y2574D01*
X2960Y2549D01*
X2963Y2524D01*
X2966Y2500D01*
X2972Y2478D01*
X2976Y2457D01*
X2981Y2437D01*
X2987Y2418D01*
X2992Y2401D01*
X2997Y2386D01*
X3002Y2372D01*
X3007Y2362D01*
X3010Y2352D01*
X3013Y2346D01*
X3014Y2342D01*
X3015Y2341D01*
X3027Y2318D01*
X3038Y2298D01*
X3052Y2279D01*
X3066Y2261D01*
X3079Y2245D01*
X3094Y2230D01*
X3108Y2216D01*
X3122Y2204D01*
X3134Y2193D01*
X3146Y2183D01*
X3158Y2176D01*
X3166Y2168D01*
X3175Y2163D01*
X3180Y2160D01*
X3184Y2158D01*
X3185Y2157D01*
X3207Y2145D01*
X3230Y2136D01*
X3252Y2127D01*
X3275Y2120D01*
X3298Y2114D01*
X3320Y2109D01*
X3342Y2105D01*
X3362Y2102D01*
X3381Y2099D01*
X3398Y2096D01*
X3413Y2095D01*
X3427Y2094D01*
X3438Y2093D01*
X3452D01*
X3475Y2094D01*
X3497Y2095D01*
X3540Y2101D01*
X3561Y2104D01*
X3580Y2108D01*
X3599Y2112D01*
X3616Y2117D01*
X3632Y2121D01*
X3647Y2124D01*
X3660Y2128D01*
X3670Y2131D01*
X3679Y2135D01*
X3685Y2137D01*
X3689Y2139D01*
X3690D01*
X3711Y2147D01*
X3731Y2157D01*
X3750Y2165D01*
X3767Y2175D01*
X3784Y2183D01*
X3799Y2192D01*
X3812Y2200D01*
X3824Y2208D01*
X3835Y2216D01*
X3845Y2222D01*
X3852Y2229D01*
X3858Y2234D01*
X3864Y2238D01*
X3867Y2241D01*
X3869Y2242D01*
X3870Y2243D01*
Y2112D01*
Y2639D01*
Y2633D01*
X3446D01*
Y2468D01*
X3671D01*
Y2344D01*
X3653Y2331D01*
X3635Y2320D01*
X3617Y2311D01*
X3600Y2303D01*
X3586Y2295D01*
X3574Y2290D01*
X3570Y2288D01*
X3567Y2287D01*
X3564Y2286D01*
X3563D01*
X3540Y2277D01*
X3518Y2272D01*
X3498Y2268D01*
X3479Y2264D01*
X3463Y2262D01*
X3456D01*
X3450Y2261D01*
X3440D01*
X3417Y2262D01*
X3395Y2266D01*
X3375Y2270D01*
X3355Y2275D01*
X3337Y2281D01*
X3321Y2289D01*
X3306Y2296D01*
X3292Y2305D01*
X3280Y2313D01*
X3269Y2320D01*
X3260Y2328D01*
X3252Y2334D01*
X3246Y2340D01*
X3241Y2345D01*
X3239Y2347D01*
X3238Y2348D01*
X3224Y2365D01*
X3213Y2384D01*
X3202Y2404D01*
X3194Y2425D01*
X3186Y2447D01*
X3180Y2468D01*
X3175Y2491D01*
X3170Y2511D01*
X3167Y2531D01*
X3165Y2550D01*
X3163Y2566D01*
X3162Y2580D01*
Y2592D01*
X3161Y2602D01*
Y2607D01*
Y2609D01*
X3162Y2639D01*
X3164Y2666D01*
X3168Y2691D01*
X3172Y2715D01*
X3179Y2737D01*
X3185Y2757D01*
X3191Y2775D01*
X3199Y2791D01*
X3206Y2805D01*
X3213Y2817D01*
X3219Y2828D01*
X3225Y2836D01*
X3230Y2844D01*
X3234Y2848D01*
X3236Y2851D01*
X3237Y2852D01*
X3252Y2867D01*
X3268Y2879D01*
X3284Y2890D01*
X3301Y2900D01*
X3318Y2908D01*
X3335Y2914D01*
X3352Y2920D01*
X3368Y2924D01*
X3383Y2927D01*
X3398Y2930D01*
X3410Y2932D01*
X3421Y2933D01*
X3429Y2934D01*
X3442D01*
X3473Y2932D01*
X3500Y2928D01*
X3524Y2921D01*
X3544Y2913D01*
X3553Y2909D01*
X3561Y2906D01*
X3568Y2902D01*
X3573Y2898D01*
X3578Y2896D01*
X3581Y2894D01*
X3582Y2892D01*
X3584D01*
X3604Y2875D01*
X3619Y2857D01*
X3633Y2838D01*
X3644Y2820D01*
X3652Y2804D01*
X3655Y2797D01*
X3657Y2791D01*
X3660Y2786D01*
X3661Y2782D01*
X3662Y2780D01*
Y2779D01*
X3857Y2816D01*
X3851Y2840D01*
X3843Y2864D01*
X3834Y2886D01*
X3824Y2906D01*
X3814Y2924D01*
X3802Y2942D01*
X3792Y2958D01*
X3780Y2971D01*
X3769Y2984D01*
X3759Y2996D01*
X3749Y3004D01*
X3742Y3013D01*
X3735Y3019D01*
X3729Y3023D01*
X3726Y3025D01*
X3725Y3026D01*
X3705Y3040D01*
X3684Y3052D01*
X3662Y3061D01*
X3638Y3071D01*
X3614Y3078D01*
X3591Y3083D01*
X3568Y3089D01*
X3545Y3093D01*
X3524Y3096D01*
X3505Y3098D01*
X3487Y3100D01*
X3471Y3101D01*
X3460Y3102D01*
X3870D01*
D01*
D02*
G37*
G36*
X15809Y2841D02*
D01*
Y2357D01*
X15626Y2389D01*
X15619Y2363D01*
X15612Y2341D01*
X15603Y2323D01*
X15596Y2308D01*
X15589Y2298D01*
X15582Y2290D01*
X15578Y2285D01*
X15577Y2284D01*
X15563Y2275D01*
X15550Y2267D01*
X15535Y2262D01*
X15521Y2259D01*
X15509Y2257D01*
X15499Y2254D01*
X15490D01*
X15478Y2256D01*
X15465Y2257D01*
X15442Y2263D01*
X15423Y2271D01*
X15407Y2281D01*
X15393Y2290D01*
X15384Y2298D01*
X15378Y2304D01*
X15376Y2305D01*
Y2306D01*
X15369Y2317D01*
X15363Y2328D01*
X15357Y2342D01*
X15352Y2356D01*
X15346Y2385D01*
X15340Y2414D01*
X15338Y2429D01*
X15337Y2441D01*
X15336Y2453D01*
Y2464D01*
X15335Y2472D01*
Y2478D01*
Y2483D01*
Y2484D01*
Y2504D01*
X15337Y2523D01*
X15339Y2541D01*
X15341Y2557D01*
X15345Y2571D01*
X15348Y2584D01*
X15352Y2597D01*
X15356Y2607D01*
X15359Y2616D01*
X15364Y2624D01*
X15367Y2631D01*
X15370Y2636D01*
X15372Y2640D01*
X15374Y2643D01*
X15376Y2644D01*
Y2645D01*
X15385Y2654D01*
X15393Y2661D01*
X15411Y2674D01*
X15429Y2682D01*
X15447Y2688D01*
X15463Y2692D01*
X15470Y2693D01*
X15476D01*
X15481Y2694D01*
X15487D01*
X15506Y2693D01*
X15523Y2690D01*
X15538Y2684D01*
X15550Y2680D01*
X15560Y2675D01*
X15566Y2670D01*
X15572Y2667D01*
X15573Y2665D01*
X15584Y2654D01*
X15594Y2641D01*
X15601Y2627D01*
X15608Y2615D01*
X15611Y2603D01*
X15614Y2593D01*
X15616Y2586D01*
Y2585D01*
Y2584D01*
X15800Y2617D01*
X15794Y2637D01*
X15785Y2657D01*
X15778Y2674D01*
X15768Y2691D01*
X15760Y2706D01*
X15750Y2719D01*
X15741Y2732D01*
X15732Y2744D01*
X15724Y2753D01*
X15717Y2762D01*
X15709Y2769D01*
X15703Y2774D01*
X15697Y2780D01*
X15693Y2783D01*
X15691Y2784D01*
X15690Y2785D01*
X15675Y2794D01*
X15659Y2804D01*
X15643Y2811D01*
X15626Y2818D01*
X15592Y2827D01*
X15559Y2833D01*
X15544Y2837D01*
X15529Y2838D01*
X15518Y2839D01*
X15506Y2840D01*
X15498Y2841D01*
X15144D01*
X15485D01*
X15457Y2840D01*
X15429Y2837D01*
X15404Y2831D01*
X15379Y2826D01*
X15357Y2818D01*
X15337Y2810D01*
X15318Y2801D01*
X15301Y2792D01*
X15286Y2783D01*
X15273Y2773D01*
X15262Y2766D01*
X15253Y2758D01*
X15245Y2752D01*
X15240Y2747D01*
X15237Y2744D01*
X15236Y2743D01*
X15220Y2724D01*
X15205Y2704D01*
X15193Y2681D01*
X15183Y2659D01*
X15173Y2636D01*
X15166Y2614D01*
X15161Y2592D01*
X15155Y2570D01*
X15151Y2549D01*
X15149Y2530D01*
X15147Y2513D01*
X15145Y2499D01*
Y2487D01*
X15144Y2477D01*
Y2470D01*
X15145Y2438D01*
X15148Y2409D01*
X15152Y2381D01*
X15159Y2355D01*
X15165Y2331D01*
X15173Y2308D01*
X15181Y2288D01*
X15190Y2270D01*
X15199Y2254D01*
X15207Y2240D01*
X15215Y2228D01*
X15221Y2217D01*
X15227Y2210D01*
X15232Y2204D01*
X15235Y2201D01*
X15236Y2200D01*
X15254Y2183D01*
X15273Y2168D01*
X15293Y2154D01*
X15313Y2144D01*
X15334Y2134D01*
X15354Y2126D01*
X15374Y2119D01*
X15393Y2115D01*
X15411Y2111D01*
X15428Y2108D01*
X15444Y2105D01*
X15457Y2103D01*
X15467D01*
X15476Y2102D01*
X15144D01*
X15482D01*
X15507Y2103D01*
X15531Y2105D01*
X15553Y2109D01*
X15573Y2112D01*
X15593Y2117D01*
X15611Y2122D01*
X15627Y2128D01*
X15641Y2134D01*
X15654Y2140D01*
X15666Y2146D01*
X15675Y2151D01*
X15684Y2156D01*
X15690Y2159D01*
X15695Y2163D01*
X15697Y2165D01*
X15699Y2166D01*
X15713Y2178D01*
X15727Y2192D01*
X15739Y2207D01*
X15750Y2223D01*
X15761Y2239D01*
X15769Y2254D01*
X15784Y2285D01*
X15790Y2300D01*
X15796Y2314D01*
X15800Y2325D01*
X15803Y2336D01*
X15806Y2345D01*
X15808Y2352D01*
X15809Y2356D01*
Y2210D01*
Y2841D01*
D02*
G37*
G36*
X15052D02*
D01*
Y2357D01*
X14868Y2389D01*
X14862Y2363D01*
X14854Y2341D01*
X14846Y2323D01*
X14838Y2308D01*
X14831Y2298D01*
X14825Y2290D01*
X14820Y2285D01*
X14819Y2284D01*
X14806Y2275D01*
X14792Y2267D01*
X14777Y2262D01*
X14763Y2259D01*
X14752Y2257D01*
X14741Y2254D01*
X14733D01*
X14720Y2256D01*
X14707Y2257D01*
X14684Y2263D01*
X14665Y2271D01*
X14649Y2281D01*
X14636Y2290D01*
X14626Y2298D01*
X14621Y2304D01*
X14619Y2305D01*
Y2306D01*
X14611Y2317D01*
X14605Y2328D01*
X14600Y2342D01*
X14594Y2356D01*
X14588Y2385D01*
X14583Y2414D01*
X14581Y2429D01*
X14580Y2441D01*
X14578Y2453D01*
Y2464D01*
X14577Y2472D01*
Y2478D01*
Y2483D01*
Y2484D01*
Y2504D01*
X14580Y2523D01*
X14582Y2541D01*
X14584Y2557D01*
X14587Y2571D01*
X14590Y2584D01*
X14594Y2597D01*
X14599Y2607D01*
X14602Y2616D01*
X14606Y2624D01*
X14609Y2631D01*
X14612Y2636D01*
X14614Y2640D01*
X14617Y2643D01*
X14619Y2644D01*
Y2645D01*
X14627Y2654D01*
X14636Y2661D01*
X14654Y2674D01*
X14671Y2682D01*
X14689Y2688D01*
X14705Y2692D01*
X14713Y2693D01*
X14718D01*
X14723Y2694D01*
X14730D01*
X14749Y2693D01*
X14766Y2690D01*
X14780Y2684D01*
X14792Y2680D01*
X14803Y2675D01*
X14809Y2670D01*
X14814Y2667D01*
X14815Y2665D01*
X14827Y2654D01*
X14836Y2641D01*
X14844Y2627D01*
X14850Y2615D01*
X14853Y2603D01*
X14856Y2593D01*
X14859Y2586D01*
Y2585D01*
Y2584D01*
X15042Y2617D01*
X15036Y2637D01*
X15028Y2657D01*
X15020Y2674D01*
X15011Y2691D01*
X15002Y2706D01*
X14993Y2719D01*
X14983Y2732D01*
X14975Y2744D01*
X14966Y2753D01*
X14959Y2762D01*
X14951Y2769D01*
X14945Y2774D01*
X14940Y2780D01*
X14936Y2783D01*
X14934Y2784D01*
X14932Y2785D01*
X14918Y2794D01*
X14902Y2804D01*
X14885Y2811D01*
X14868Y2818D01*
X14834Y2827D01*
X14801Y2833D01*
X14787Y2837D01*
X14772Y2838D01*
X14760Y2839D01*
X14749Y2840D01*
X14740Y2841D01*
X14386D01*
X14727D01*
X14699Y2840D01*
X14671Y2837D01*
X14646Y2831D01*
X14622Y2826D01*
X14600Y2818D01*
X14580Y2810D01*
X14561Y2801D01*
X14544Y2792D01*
X14529Y2783D01*
X14515Y2773D01*
X14505Y2766D01*
X14495Y2758D01*
X14488Y2752D01*
X14482Y2747D01*
X14479Y2744D01*
X14478Y2743D01*
X14462Y2724D01*
X14447Y2704D01*
X14436Y2681D01*
X14425Y2659D01*
X14416Y2636D01*
X14408Y2614D01*
X14403Y2592D01*
X14398Y2570D01*
X14394Y2549D01*
X14391Y2530D01*
X14389Y2513D01*
X14387Y2499D01*
Y2487D01*
X14386Y2477D01*
Y2470D01*
X14387Y2438D01*
X14390Y2409D01*
X14395Y2381D01*
X14401Y2355D01*
X14407Y2331D01*
X14416Y2308D01*
X14423Y2288D01*
X14433Y2270D01*
X14441Y2254D01*
X14450Y2240D01*
X14457Y2228D01*
X14463Y2217D01*
X14470Y2210D01*
X14474Y2204D01*
X14477Y2201D01*
X14478Y2200D01*
X14496Y2183D01*
X14515Y2168D01*
X14535Y2154D01*
X14555Y2144D01*
X14576Y2134D01*
X14596Y2126D01*
X14617Y2119D01*
X14636Y2115D01*
X14654Y2111D01*
X14670Y2108D01*
X14686Y2105D01*
X14699Y2103D01*
X14710D01*
X14718Y2102D01*
X14386D01*
X14724D01*
X14750Y2103D01*
X14773Y2105D01*
X14795Y2109D01*
X14815Y2112D01*
X14835Y2117D01*
X14853Y2122D01*
X14869Y2128D01*
X14884Y2134D01*
X14897Y2140D01*
X14908Y2146D01*
X14918Y2151D01*
X14926Y2156D01*
X14932Y2159D01*
X14938Y2163D01*
X14940Y2165D01*
X14941Y2166D01*
X14956Y2178D01*
X14969Y2192D01*
X14981Y2207D01*
X14993Y2223D01*
X15003Y2239D01*
X15012Y2254D01*
X15027Y2285D01*
X15033Y2300D01*
X15038Y2314D01*
X15042Y2325D01*
X15046Y2336D01*
X15049Y2345D01*
X15051Y2352D01*
X15052Y2356D01*
Y2841D01*
D02*
G37*
G36*
X4827Y3087D02*
X4599D01*
X4645D01*
Y2431D01*
X4244Y3087D01*
X4054D01*
Y2111D01*
X4348D01*
X4235D01*
Y2752D01*
X4631Y2111D01*
X4827D01*
Y3087D01*
D02*
G37*
G36*
X14328Y3093D02*
X14119D01*
X13880Y2372D01*
X13633Y3093D01*
X13949D01*
X13420D01*
X13768Y2118D01*
X13420D01*
X14328D01*
D01*
X13979D01*
X14328Y3093D01*
D02*
G37*
G36*
X5852Y3087D02*
X5035D01*
Y2111D01*
X5425D01*
X5444Y2112D01*
X5462Y2113D01*
X5478Y2114D01*
X5494Y2115D01*
X5509Y2118D01*
X5521Y2120D01*
X5533Y2122D01*
X5544Y2123D01*
X5553Y2125D01*
X5562Y2127D01*
X5568Y2128D01*
X5573Y2129D01*
X5576Y2130D01*
X5578Y2131D01*
X5580D01*
X5610Y2143D01*
X5638Y2156D01*
X5661Y2168D01*
X5681Y2181D01*
X5689Y2186D01*
X5697Y2192D01*
X5702Y2197D01*
X5707Y2201D01*
X5712Y2204D01*
X5715Y2207D01*
X5716Y2208D01*
X5717Y2210D01*
X5741Y2236D01*
X5762Y2264D01*
X5780Y2293D01*
X5795Y2320D01*
X5801Y2333D01*
X5807Y2345D01*
X5811Y2355D01*
X5815Y2364D01*
X5817Y2371D01*
X5819Y2378D01*
X5821Y2381D01*
Y2382D01*
X5832Y2416D01*
X5839Y2450D01*
X5845Y2485D01*
X5848Y2518D01*
X5850Y2533D01*
X5851Y2547D01*
Y2558D01*
X5852Y2569D01*
Y2277D01*
Y2633D01*
Y2614D01*
X5851Y2639D01*
X5849Y2661D01*
X5847Y2683D01*
X5845Y2703D01*
X5842Y2722D01*
X5838Y2740D01*
X5836Y2756D01*
X5833Y2770D01*
X5830Y2782D01*
X5827Y2794D01*
X5825Y2802D01*
X5823Y2810D01*
X5820Y2815D01*
X5819Y2818D01*
Y2819D01*
X5807Y2853D01*
X5792Y2884D01*
X5776Y2911D01*
X5769Y2923D01*
X5761Y2933D01*
X5754Y2944D01*
X5748Y2952D01*
X5741Y2960D01*
X5737Y2966D01*
X5733Y2971D01*
X5730Y2975D01*
X5727Y2977D01*
X5726Y2978D01*
X5702Y3000D01*
X5678Y3019D01*
X5653Y3035D01*
X5630Y3046D01*
X5610Y3056D01*
X5602Y3060D01*
X5594Y3062D01*
X5588Y3064D01*
X5584Y3066D01*
X5581Y3068D01*
X5580D01*
X5567Y3071D01*
X5553Y3074D01*
X5523Y3078D01*
X5493Y3082D01*
X5463Y3084D01*
X5450Y3086D01*
X5425D01*
X5415Y3087D01*
X5852D01*
D01*
D02*
G37*
G36*
X37619Y3087D02*
X37467D01*
X37460Y3070D01*
X37453Y3054D01*
X37435Y3025D01*
X37416Y2998D01*
X37396Y2975D01*
X37386Y2965D01*
X37378Y2956D01*
X37371Y2948D01*
X37363Y2941D01*
X37358Y2936D01*
X37354Y2933D01*
X37351Y2931D01*
X37350Y2930D01*
X37318Y2906D01*
X37288Y2887D01*
X37262Y2872D01*
X37239Y2860D01*
X37228Y2855D01*
X37218Y2850D01*
X37211Y2847D01*
X37204Y2844D01*
X37198Y2842D01*
X37194Y2841D01*
X37192Y2840D01*
X37191D01*
Y2670D01*
X37216Y2679D01*
X37241Y2689D01*
X37265Y2699D01*
X37287Y2711D01*
X37308Y2723D01*
X37328Y2734D01*
X37346Y2746D01*
X37363Y2757D01*
X37379Y2768D01*
X37392Y2779D01*
X37404Y2788D01*
X37414Y2795D01*
X37421Y2802D01*
X37428Y2807D01*
X37431Y2810D01*
X37432Y2811D01*
Y2109D01*
X37191D01*
X37619D01*
Y3087D01*
D02*
G37*
G36*
X47961Y3096D02*
X47329D01*
X47644D01*
X47619Y3095D01*
X47595Y3092D01*
X47572Y3087D01*
X47550Y3080D01*
X47530Y3073D01*
X47512Y3064D01*
X47495Y3055D01*
X47481Y3046D01*
X47468Y3037D01*
X47456Y3027D01*
X47447Y3019D01*
X47438Y3012D01*
X47432Y3005D01*
X47428Y3000D01*
X47425Y2997D01*
X47424Y2996D01*
X47407Y2971D01*
X47392Y2944D01*
X47379Y2914D01*
X47369Y2883D01*
X47359Y2850D01*
X47352Y2817D01*
X47345Y2784D01*
X47340Y2752D01*
X47337Y2721D01*
X47334Y2692D01*
X47332Y2667D01*
X47330Y2644D01*
Y2634D01*
Y2626D01*
X47329Y2618D01*
Y2599D01*
X47330Y2549D01*
X47333Y2502D01*
X47337Y2459D01*
X47342Y2420D01*
X47349Y2384D01*
X47356Y2352D01*
X47363Y2324D01*
X47372Y2298D01*
X47380Y2277D01*
X47388Y2258D01*
X47395Y2242D01*
X47401Y2230D01*
X47407Y2220D01*
X47412Y2214D01*
X47414Y2210D01*
X47415Y2208D01*
X47432Y2189D01*
X47450Y2173D01*
X47469Y2158D01*
X47488Y2145D01*
X47507Y2136D01*
X47526Y2126D01*
X47544Y2119D01*
X47562Y2113D01*
X47579Y2109D01*
X47595Y2105D01*
X47609Y2103D01*
X47621Y2102D01*
X47631Y2101D01*
X47638Y2100D01*
X47329D01*
X47644D01*
X47670Y2101D01*
X47694Y2104D01*
X47717Y2109D01*
X47739Y2115D01*
X47759Y2123D01*
X47777Y2131D01*
X47793Y2140D01*
X47808Y2149D01*
X47821Y2159D01*
X47833Y2167D01*
X47843Y2176D01*
X47851Y2183D01*
X47857Y2189D01*
X47862Y2195D01*
X47864Y2198D01*
X47865Y2199D01*
X47882Y2223D01*
X47897Y2251D01*
X47910Y2281D01*
X47921Y2312D01*
X47930Y2345D01*
X47938Y2379D01*
X47945Y2411D01*
X47950Y2444D01*
X47953Y2475D01*
X47956Y2503D01*
X47958Y2530D01*
X47960Y2552D01*
Y2562D01*
Y2571D01*
X47961Y2578D01*
Y2597D01*
X47960Y2647D01*
X47957Y2693D01*
X47953Y2737D01*
X47947Y2776D01*
X47939Y2812D01*
X47932Y2845D01*
X47922Y2874D01*
X47914Y2900D01*
X47905Y2923D01*
X47897Y2942D01*
X47889Y2959D01*
X47881Y2971D01*
X47875Y2982D01*
X47871Y2989D01*
X47867Y2994D01*
X47866Y2995D01*
X47851Y3013D01*
X47834Y3028D01*
X47816Y3042D01*
X47798Y3054D01*
X47780Y3063D01*
X47761Y3072D01*
X47743Y3078D01*
X47726Y3083D01*
X47709Y3088D01*
X47693Y3091D01*
X47679Y3093D01*
X47668Y3095D01*
X47658D01*
X47651Y3096D01*
X47961D01*
D02*
G37*
G36*
X47329Y2522D02*
Y2100D01*
D01*
Y2522D01*
D02*
G37*
G36*
X3438Y2093D02*
D01*
X2958D01*
X3438D01*
D02*
G37*
%LPD*%
G36*
X26323Y2282D02*
X25951D01*
X25963Y2300D01*
X25970Y2308D01*
X25975Y2317D01*
X25980Y2323D01*
X25984Y2328D01*
X25988Y2332D01*
X25989Y2333D01*
X25994Y2338D01*
X26000Y2345D01*
X26008Y2353D01*
X26016Y2361D01*
X26034Y2379D01*
X26053Y2397D01*
X26071Y2414D01*
X26080Y2421D01*
X26087Y2428D01*
X26092Y2433D01*
X26096Y2437D01*
X26100Y2439D01*
X26101Y2440D01*
X26117Y2455D01*
X26131Y2469D01*
X26145Y2483D01*
X26158Y2494D01*
X26168Y2506D01*
X26179Y2515D01*
X26187Y2525D01*
X26196Y2533D01*
X26207Y2547D01*
X26217Y2557D01*
X26221Y2563D01*
X26223Y2565D01*
X26241Y2589D01*
X26257Y2613D01*
X26270Y2634D01*
X26280Y2652D01*
X26288Y2668D01*
X26291Y2674D01*
X26294Y2679D01*
X26296Y2683D01*
X26297Y2688D01*
X26298Y2689D01*
Y2690D01*
X26307Y2712D01*
X26312Y2734D01*
X26316Y2755D01*
X26319Y2775D01*
X26322Y2791D01*
Y2799D01*
X26323Y2804D01*
Y2282D01*
D02*
G37*
G36*
X5379Y2921D02*
X5396D01*
X5410Y2920D01*
X5424Y2919D01*
X5436Y2917D01*
X5445D01*
X5455Y2916D01*
X5462Y2915D01*
X5469Y2914D01*
X5473Y2913D01*
X5477D01*
X5479Y2912D01*
X5481D01*
X5501Y2907D01*
X5519Y2900D01*
X5535Y2892D01*
X5548Y2885D01*
X5558Y2877D01*
X5567Y2871D01*
X5571Y2867D01*
X5573Y2866D01*
X5586Y2852D01*
X5597Y2837D01*
X5607Y2821D01*
X5614Y2807D01*
X5621Y2793D01*
X5626Y2781D01*
X5627Y2778D01*
X5628Y2775D01*
X5629Y2773D01*
Y2772D01*
X5632Y2760D01*
X5635Y2747D01*
X5641Y2719D01*
X5644Y2690D01*
X5647Y2663D01*
Y2649D01*
X5648Y2637D01*
Y2627D01*
X5649Y2617D01*
Y2609D01*
Y2604D01*
Y2599D01*
Y2598D01*
Y2578D01*
X5648Y2558D01*
X5647Y2540D01*
X5646Y2522D01*
X5645Y2506D01*
X5643Y2493D01*
X5641Y2479D01*
X5640Y2466D01*
X5638Y2456D01*
X5635Y2446D01*
X5633Y2439D01*
X5632Y2431D01*
X5631Y2426D01*
X5630Y2423D01*
X5629Y2421D01*
Y2420D01*
X5621Y2397D01*
X5612Y2378D01*
X5604Y2362D01*
X5595Y2348D01*
X5589Y2338D01*
X5583Y2331D01*
X5578Y2327D01*
X5577Y2326D01*
X5565Y2316D01*
X5552Y2308D01*
X5538Y2300D01*
X5526Y2294D01*
X5515Y2290D01*
X5507Y2287D01*
X5500Y2286D01*
X5499Y2285D01*
X5498D01*
X5491Y2284D01*
X5482Y2281D01*
X5464Y2279D01*
X5444Y2278D01*
X5424Y2277D01*
X5407Y2276D01*
X5232D01*
Y2922D01*
X5361D01*
X5379Y2921D01*
D02*
G37*
G36*
X47657Y2940D02*
X47668Y2938D01*
X47678Y2933D01*
X47688Y2930D01*
X47694Y2926D01*
X47700Y2922D01*
X47704Y2920D01*
X47705Y2919D01*
X47714Y2909D01*
X47723Y2896D01*
X47730Y2883D01*
X47736Y2868D01*
X47742Y2854D01*
X47745Y2844D01*
X47746Y2839D01*
X47747Y2836D01*
X47748Y2834D01*
Y2833D01*
X47751Y2819D01*
X47754Y2804D01*
X47756Y2788D01*
X47759Y2769D01*
X47762Y2730D01*
X47764Y2691D01*
X47765Y2672D01*
Y2655D01*
X47766Y2639D01*
Y2625D01*
Y2613D01*
Y2605D01*
Y2599D01*
Y2597D01*
Y2567D01*
X47765Y2537D01*
X47764Y2511D01*
X47763Y2486D01*
X47762Y2464D01*
X47760Y2444D01*
X47758Y2426D01*
X47756Y2410D01*
X47754Y2397D01*
X47752Y2385D01*
X47750Y2375D01*
X47749Y2367D01*
X47748Y2361D01*
X47747Y2356D01*
X47746Y2354D01*
Y2353D01*
X47740Y2334D01*
X47733Y2317D01*
X47727Y2305D01*
X47720Y2294D01*
X47714Y2286D01*
X47709Y2280D01*
X47706Y2277D01*
X47705Y2276D01*
X47694Y2269D01*
X47685Y2263D01*
X47674Y2260D01*
X47665Y2258D01*
X47656Y2256D01*
X47650Y2255D01*
X47644D01*
X47632Y2256D01*
X47621Y2258D01*
X47611Y2261D01*
X47602Y2266D01*
X47595Y2270D01*
X47588Y2273D01*
X47585Y2275D01*
X47584Y2276D01*
X47575Y2286D01*
X47566Y2298D01*
X47559Y2312D01*
X47553Y2327D01*
X47547Y2340D01*
X47544Y2350D01*
X47543Y2354D01*
X47542Y2357D01*
X47541Y2360D01*
Y2361D01*
X47538Y2374D01*
X47536Y2389D01*
X47534Y2406D01*
X47531Y2425D01*
X47528Y2464D01*
X47526Y2503D01*
X47525Y2522D01*
Y2539D01*
Y2555D01*
X47524Y2570D01*
Y2581D01*
Y2590D01*
Y2595D01*
Y2597D01*
Y2628D01*
X47525Y2657D01*
X47526Y2684D01*
X47527Y2707D01*
X47528Y2729D01*
X47530Y2749D01*
X47531Y2767D01*
X47534Y2783D01*
X47536Y2797D01*
X47537Y2810D01*
X47539Y2819D01*
X47540Y2828D01*
X47541Y2834D01*
X47542Y2838D01*
X47543Y2840D01*
Y2841D01*
X47549Y2860D01*
X47556Y2877D01*
X47563Y2890D01*
X47569Y2901D01*
X47575Y2909D01*
X47580Y2914D01*
X47583Y2917D01*
X47584Y2919D01*
X47595Y2926D01*
X47604Y2931D01*
X47615Y2935D01*
X47624Y2938D01*
X47633Y2940D01*
X47639Y2941D01*
X47644D01*
X47657Y2940D01*
D02*
G37*
D19*
X1235Y2450D02*
D03*
X10125D02*
D03*
X11395D02*
D03*
X7585D02*
D03*
X8855D02*
D03*
X20285D02*
D03*
X19015D02*
D03*
X17745D02*
D03*
X21555D02*
D03*
X22825D02*
D03*
X30445D02*
D03*
X29175D02*
D03*
X32985D02*
D03*
X34255D02*
D03*
X31715D02*
D03*
X43145D02*
D03*
X40605D02*
D03*
X41875D02*
D03*
X50765D02*
D03*
X44415D02*
D03*
D38*
X46195Y42343D02*
D03*
X43404D02*
D03*
D39*
X12775Y30590D02*
D03*
Y29190D02*
D03*
Y27790D02*
D03*
X11375D02*
D03*
X9975D02*
D03*
Y29190D02*
D03*
Y30590D02*
D03*
X11375D02*
D03*
Y29190D02*
D03*
X33363Y28490D02*
D03*
X33200Y33000D02*
D03*
X30100Y24800D02*
D03*
X43950Y18975D02*
D03*
X45550D02*
D03*
X31700Y24800D02*
D03*
X23600Y33600D02*
D03*
X25200D02*
D03*
X34800Y33000D02*
D03*
X34963Y28490D02*
D03*
D40*
X21625Y36910D02*
D03*
Y35640D02*
D03*
Y34370D02*
D03*
Y33100D02*
D03*
Y31830D02*
D03*
Y30560D02*
D03*
Y29290D02*
D03*
Y28020D02*
D03*
Y20400D02*
D03*
X4125D02*
D03*
Y21670D02*
D03*
Y25480D02*
D03*
Y29290D02*
D03*
Y30560D02*
D03*
Y31830D02*
D03*
Y33100D02*
D03*
Y34370D02*
D03*
Y36910D02*
D03*
Y24210D02*
D03*
Y35640D02*
D03*
X21625Y26750D02*
D03*
Y25480D02*
D03*
Y24210D02*
D03*
Y22940D02*
D03*
Y21670D02*
D03*
X4125Y22940D02*
D03*
Y26750D02*
D03*
Y28020D02*
D03*
D41*
X19860Y19150D02*
D03*
X18590D02*
D03*
X17320D02*
D03*
X16050D02*
D03*
X14780D02*
D03*
X13510D02*
D03*
X12240D02*
D03*
X10970D02*
D03*
X9700D02*
D03*
X8430D02*
D03*
X7160D02*
D03*
X5890D02*
D03*
D42*
X40025Y23200D02*
D03*
X39425D02*
D03*
X41825D02*
D03*
X41225D02*
D03*
X44825D02*
D03*
X46025Y34500D02*
D03*
X45425D02*
D03*
X44225D02*
D03*
X43625D02*
D03*
X41225D02*
D03*
X39425D02*
D03*
X38825D02*
D03*
X40625D02*
D03*
X44225Y23200D02*
D03*
X45425D02*
D03*
X38825D02*
D03*
X44825Y34500D02*
D03*
X38225D02*
D03*
X40025D02*
D03*
X41825D02*
D03*
X42425D02*
D03*
X43025D02*
D03*
X46625D02*
D03*
X47225D02*
D03*
Y23200D02*
D03*
X46625D02*
D03*
X46025D02*
D03*
X43625D02*
D03*
X43025D02*
D03*
X42425D02*
D03*
X40625D02*
D03*
D43*
X1975Y34500D02*
D03*
X1952Y35543D02*
D03*
X38700Y42200D02*
D03*
Y40600D02*
D03*
X1952Y37143D02*
D03*
X1975Y32900D02*
D03*
D44*
X37075Y29750D02*
D03*
X48375Y30950D02*
D03*
X37075Y31550D02*
D03*
Y29150D02*
D03*
Y30350D02*
D03*
Y30950D02*
D03*
X48375Y24350D02*
D03*
Y31550D02*
D03*
Y32150D02*
D03*
X37075Y24350D02*
D03*
Y24950D02*
D03*
Y25550D02*
D03*
Y26150D02*
D03*
Y26750D02*
D03*
Y27350D02*
D03*
Y27950D02*
D03*
Y28550D02*
D03*
Y32150D02*
D03*
Y32750D02*
D03*
Y33350D02*
D03*
X48375D02*
D03*
Y32750D02*
D03*
Y30350D02*
D03*
Y29750D02*
D03*
Y29150D02*
D03*
Y28550D02*
D03*
Y27950D02*
D03*
Y27350D02*
D03*
Y26750D02*
D03*
Y26150D02*
D03*
Y25550D02*
D03*
Y24950D02*
D03*
D45*
X27000Y31500D02*
D03*
X24700D02*
D03*
X29300D02*
D03*
D46*
X27000Y25200D02*
D03*
D47*
X25550Y19125D02*
D03*
X29050D02*
D03*
Y20875D02*
D03*
X25550D02*
D03*
D48*
X1600Y28600D02*
D03*
X13100Y16200D02*
D03*
X39100Y17800D02*
D03*
X38000D02*
D03*
X40663Y16326D02*
D03*
X42225Y16326D02*
D03*
X39436Y20319D02*
D03*
X35300Y26500D02*
D03*
X9500Y16200D02*
D03*
X15400D02*
D03*
X48100Y15000D02*
D03*
X41600Y21400D02*
D03*
Y20400D02*
D03*
X48100Y16000D02*
D03*
X14300Y17200D02*
D03*
Y16200D02*
D03*
X15400Y17200D02*
D03*
X9500D02*
D03*
X12000D02*
D03*
Y16200D02*
D03*
X35300Y25500D02*
D03*
X45500Y14000D02*
D03*
Y13000D02*
D03*
X44200Y14000D02*
D03*
Y13000D02*
D03*
X39436Y19319D02*
D03*
X42225Y15326D02*
D03*
X40663Y15325D02*
D03*
X38000Y16800D02*
D03*
X39100D02*
D03*
X13100Y17200D02*
D03*
X1600Y27600D02*
D03*
X1600Y25100D02*
D03*
Y26100D02*
D03*
X8300Y16200D02*
D03*
Y17200D02*
D03*
X10700Y16200D02*
D03*
Y17200D02*
D03*
D49*
X37700Y20400D02*
D03*
X25600Y17200D02*
D03*
X39500Y36300D02*
D03*
X40500D02*
D03*
X26600Y17200D02*
D03*
X34700Y31500D02*
D03*
X33700D02*
D03*
X34700Y30300D02*
D03*
X33700D02*
D03*
X45100Y20600D02*
D03*
X44100D02*
D03*
X40500Y37500D02*
D03*
X39500D02*
D03*
X36700Y20400D02*
D03*
X45750Y38900D02*
D03*
X44750D02*
D03*
X45825Y35925D02*
D03*
X44825D02*
D03*
D50*
X44800Y37800D02*
D03*
Y36800D02*
D03*
D51*
X44475Y16513D02*
D03*
X46390D02*
D03*
D52*
X26900Y36850D02*
D03*
X27700D02*
D03*
X32500D02*
D03*
X33300D02*
D03*
D53*
X28350D02*
D03*
X28850D02*
D03*
X29350D02*
D03*
X29850D02*
D03*
X30350D02*
D03*
X30850D02*
D03*
X31350D02*
D03*
X31850D02*
D03*
D54*
X47340Y42368D02*
D03*
X42260D02*
D03*
D55*
X44800Y41352D02*
D03*
D56*
X39925Y26050D02*
D03*
Y28850D02*
D03*
Y31650D02*
D03*
X42725Y26050D02*
D03*
Y28850D02*
D03*
Y31650D02*
D03*
X45525Y26050D02*
D03*
Y28850D02*
D03*
Y31650D02*
D03*
D57*
X38225Y23200D02*
D03*
D58*
X36800Y42550D02*
D03*
Y40450D02*
D03*
D59*
X14595Y6950D02*
D03*
X4355D02*
D03*
X26005D02*
D03*
X47595D02*
D03*
X37385D02*
D03*
D60*
X13195Y13000D02*
D03*
X15735D02*
D03*
X18275D02*
D03*
X20815D02*
D03*
X23355D02*
D03*
X25895D02*
D03*
X28435D02*
D03*
X30975D02*
D03*
X33515D02*
D03*
X36055D02*
D03*
X38595D02*
D03*
D61*
X50175Y14025D02*
D03*
Y12025D02*
D03*
Y16025D02*
D03*
Y18025D02*
D03*
D62*
X32990Y37920D02*
D03*
X27210D02*
D03*
D63*
X25780Y41600D02*
D03*
X34420D02*
D03*
D64*
X25780Y37420D02*
D03*
X34420D02*
D03*
D65*
X50175Y20025D02*
D03*
M02*
