G04*
G04 #@! TF.GenerationSoftware,Altium Limited,Altium Designer,24.2.2 (26)*
G04*
G04 Layer_Physical_Order=2*
G04 Layer_Color=36540*
%FSLAX43Y43*%
%MOMM*%
G71*
G04*
G04 #@! TF.SameCoordinates,35C7E3B7-7498-4331-9A29-7F0227AA752D*
G04*
G04*
G04 #@! TF.FilePolarity,Positive*
G04*
G01*
G75*
%ADD11C,0.200*%
%ADD13C,0.254*%
%ADD75C,1.676*%
%ADD76C,1.300*%
%ADD77C,0.650*%
%ADD80R,1.300X1.300*%
%ADD81C,0.500*%
%ADD82C,0.600*%
G36*
X49056Y44093D02*
X49415Y43996D01*
X49760Y43854D01*
X50082Y43668D01*
X50378Y43441D01*
X50641Y43177D01*
X50868Y42882D01*
X51054Y42559D01*
X51196Y42215D01*
X51293Y41855D01*
X51342Y41486D01*
Y41300D01*
Y10600D01*
X24166D01*
X24117Y10717D01*
X25418Y12019D01*
X25475Y11986D01*
X25752Y11912D01*
X26038D01*
X26315Y11986D01*
X26563Y12129D01*
X26766Y12332D01*
X26909Y12580D01*
X26983Y12857D01*
Y13143D01*
X26933Y13332D01*
X27039Y13425D01*
X27101Y13400D01*
X27284D01*
X27322Y13375D01*
X27389Y13299D01*
X27347Y13143D01*
Y12857D01*
X27421Y12580D01*
X27564Y12332D01*
X27767Y12129D01*
X28015Y11986D01*
X28292Y11912D01*
X28578D01*
X28855Y11986D01*
X29103Y12129D01*
X29306Y12332D01*
X29449Y12580D01*
X29523Y12857D01*
Y13143D01*
X29449Y13420D01*
X29306Y13668D01*
X29103Y13871D01*
X28855Y14014D01*
X28578Y14088D01*
X28292D01*
X28015Y14014D01*
X27827Y13906D01*
X27700Y13976D01*
Y13999D01*
X27624Y14183D01*
X27483Y14324D01*
X27299Y14400D01*
X27101D01*
X26917Y14324D01*
X26776Y14183D01*
X26700Y13999D01*
Y13914D01*
X26573Y13861D01*
X26563Y13871D01*
X26315Y14014D01*
X26038Y14088D01*
X25752D01*
X25475Y14014D01*
X25227Y13871D01*
X25024Y13668D01*
X24881Y13420D01*
X24807Y13143D01*
Y12857D01*
X24881Y12580D01*
X24914Y12523D01*
X23347Y10957D01*
X20800D01*
X20663Y10930D01*
X20548Y10852D01*
X20295Y10600D01*
X258D01*
X258Y41386D01*
X259Y41394D01*
X259Y41403D01*
X261Y41412D01*
X268Y41593D01*
X328Y41951D01*
X434Y42299D01*
X582Y42630D01*
X772Y42939D01*
X1000Y43222D01*
X1261Y43474D01*
X1553Y43690D01*
X1870Y43868D01*
X2207Y44003D01*
X2558Y44095D01*
X2918Y44141D01*
X48686D01*
X49056Y44093D01*
D02*
G37*
%LPC*%
G36*
X38799Y43700D02*
X38601D01*
X38417Y43624D01*
X38276Y43483D01*
X38200Y43299D01*
Y43101D01*
X38276Y42917D01*
X38417Y42776D01*
X38601Y42700D01*
X38799D01*
X38983Y42776D01*
X39124Y42917D01*
X39200Y43101D01*
Y43299D01*
X39124Y43483D01*
X38983Y43624D01*
X38799Y43700D01*
D02*
G37*
G36*
X34420Y42756D02*
X34237Y42732D01*
X34067Y42661D01*
X33921Y42549D01*
X33809Y42403D01*
X33738Y42233D01*
X33714Y42050D01*
Y41150D01*
X33738Y40967D01*
X33809Y40797D01*
X33921Y40651D01*
X34067Y40539D01*
X34237Y40468D01*
X34420Y40444D01*
X34603Y40468D01*
X34773Y40539D01*
X34919Y40651D01*
X35031Y40797D01*
X35102Y40967D01*
X35126Y41150D01*
Y42050D01*
X35102Y42233D01*
X35031Y42403D01*
X34919Y42549D01*
X34773Y42661D01*
X34603Y42732D01*
X34420Y42756D01*
D02*
G37*
G36*
X25780D02*
X25597Y42732D01*
X25427Y42661D01*
X25281Y42549D01*
X25169Y42403D01*
X25098Y42233D01*
X25074Y42050D01*
Y41150D01*
X25098Y40967D01*
X25169Y40797D01*
X25281Y40651D01*
X25427Y40539D01*
X25597Y40468D01*
X25780Y40444D01*
X25963Y40468D01*
X26133Y40539D01*
X26279Y40651D01*
X26391Y40797D01*
X26462Y40967D01*
X26486Y41150D01*
Y42050D01*
X26462Y42233D01*
X26391Y42403D01*
X26279Y42549D01*
X26133Y42661D01*
X25963Y42732D01*
X25780Y42756D01*
D02*
G37*
G36*
X33055Y38245D02*
X32925D01*
X32806Y38196D01*
X32714Y38104D01*
X32665Y37985D01*
Y37855D01*
X32714Y37736D01*
X32806Y37644D01*
X32925Y37595D01*
X33055D01*
X33174Y37644D01*
X33266Y37736D01*
X33315Y37855D01*
Y37985D01*
X33266Y38104D01*
X33174Y38196D01*
X33055Y38245D01*
D02*
G37*
G36*
X27275D02*
X27145D01*
X27026Y38196D01*
X26934Y38104D01*
X26885Y37985D01*
Y37855D01*
X26934Y37736D01*
X27026Y37644D01*
X27145Y37595D01*
X27275D01*
X27394Y37644D01*
X27486Y37736D01*
X27535Y37855D01*
Y37985D01*
X27486Y38104D01*
X27394Y38196D01*
X27275Y38245D01*
D02*
G37*
G36*
X24299Y37190D02*
X24101D01*
X23917Y37114D01*
X23877Y37075D01*
X19029D01*
X19029Y37075D01*
X18882Y37045D01*
X18757Y36962D01*
X18757Y36962D01*
X16653Y34858D01*
X16570Y34733D01*
X16541Y34586D01*
X16541Y34586D01*
Y29487D01*
X15275Y28222D01*
X15275Y28222D01*
X15275Y28222D01*
X14953Y27900D01*
X14926Y27859D01*
X14842Y27824D01*
X14701Y27683D01*
X14625Y27499D01*
Y27301D01*
X14701Y27117D01*
X14842Y26976D01*
X15026Y26900D01*
X15224D01*
X15408Y26976D01*
X15450Y27018D01*
X15492Y26976D01*
X15676Y26900D01*
X15874D01*
X16058Y26976D01*
X16199Y27117D01*
X16275Y27301D01*
Y27356D01*
X17647Y28728D01*
X17647Y28728D01*
X17730Y28853D01*
X17759Y29000D01*
X17759Y29000D01*
Y34241D01*
X19234Y35716D01*
X22743D01*
X22791Y35598D01*
X22776Y35583D01*
X22700Y35399D01*
Y35201D01*
X22776Y35017D01*
X22809Y34984D01*
X22756Y34857D01*
X20450D01*
X20383Y34924D01*
X20199Y35000D01*
X20001D01*
X19817Y34924D01*
X19676Y34783D01*
X19600Y34599D01*
Y34401D01*
X19676Y34217D01*
X19817Y34076D01*
X20001Y34000D01*
X20199D01*
X20383Y34076D01*
X20450Y34143D01*
X23352D01*
X26928Y30567D01*
X26873Y30443D01*
X26688Y30366D01*
X26534Y30212D01*
X26450Y30009D01*
Y29791D01*
X26534Y29588D01*
X26688Y29434D01*
X26891Y29350D01*
X27109D01*
X27312Y29434D01*
X27466Y29588D01*
X27543Y29773D01*
X27667Y29828D01*
X28921Y28574D01*
X28873Y28457D01*
X25548D01*
X24400Y29605D01*
Y29699D01*
X24324Y29883D01*
X24183Y30024D01*
X23999Y30100D01*
X23801D01*
X23617Y30024D01*
X23476Y29883D01*
X23400Y29699D01*
Y29501D01*
X23476Y29317D01*
X23593Y29200D01*
X23476Y29083D01*
X23400Y28899D01*
Y28701D01*
X23450Y28579D01*
X23317Y28524D01*
X23176Y28383D01*
X23100Y28199D01*
Y28001D01*
X23176Y27817D01*
X23317Y27676D01*
X23501Y27600D01*
X23595D01*
X23721Y27474D01*
X23673Y27357D01*
X23500D01*
X23363Y27330D01*
X23326Y27305D01*
X23299Y27316D01*
X23101D01*
X22917Y27240D01*
X22776Y27099D01*
X22700Y26916D01*
Y26717D01*
X22776Y26533D01*
X22917Y26392D01*
X23052Y26336D01*
X23094Y26199D01*
X22995Y26100D01*
X22901D01*
X22717Y26024D01*
X22576Y25883D01*
X22500Y25699D01*
Y25501D01*
X22471Y25457D01*
X20600D01*
X20463Y25430D01*
X20348Y25352D01*
X19895Y24900D01*
X19801D01*
X19617Y24824D01*
X19476Y24683D01*
X19400Y24499D01*
Y24301D01*
X19476Y24117D01*
X19617Y23976D01*
X19801Y23900D01*
X19999D01*
X20183Y23976D01*
X20324Y24117D01*
X20400Y24301D01*
Y24395D01*
X20748Y24743D01*
X23445D01*
X23516Y24638D01*
X23500Y24599D01*
Y24401D01*
X23576Y24217D01*
X23717Y24076D01*
X23901Y24000D01*
X24099D01*
X24283Y24076D01*
X24424Y24217D01*
X24500Y24401D01*
Y24599D01*
X24424Y24783D01*
X24429Y24832D01*
X24452Y24848D01*
X25448Y25843D01*
X28252D01*
X29473Y24622D01*
Y24000D01*
X29346Y23939D01*
X29199Y24000D01*
X29001D01*
X28817Y23924D01*
X28676Y23783D01*
X28600Y23599D01*
Y23401D01*
X28571Y23357D01*
X23750D01*
X23683Y23424D01*
X23499Y23500D01*
X23301D01*
X23117Y23424D01*
X22976Y23283D01*
X22900Y23099D01*
Y22901D01*
X22900Y22900D01*
X22717Y22824D01*
X22650Y22757D01*
X18848D01*
X18400Y23205D01*
Y23299D01*
X18324Y23483D01*
X18183Y23624D01*
X18059Y23675D01*
X18022Y23817D01*
X19905Y25700D01*
X19999D01*
X20183Y25776D01*
X20324Y25917D01*
X20400Y26101D01*
Y26299D01*
X20324Y26483D01*
X20183Y26624D01*
X19999Y26700D01*
X19801D01*
X19617Y26624D01*
X19476Y26483D01*
X19400Y26299D01*
Y26205D01*
X16352Y23157D01*
X10500D01*
X10363Y23130D01*
X10248Y23052D01*
X9695Y22500D01*
X9601D01*
X9417Y22424D01*
X9276Y22283D01*
X9200Y22099D01*
Y21901D01*
X9276Y21717D01*
X9417Y21576D01*
X9601Y21500D01*
X9799D01*
X9983Y21576D01*
X10124Y21717D01*
X10200Y21901D01*
Y21995D01*
X10648Y22443D01*
X16500D01*
X16637Y22470D01*
X16752Y22548D01*
X17283Y23078D01*
X17425Y23041D01*
X17476Y22917D01*
X17617Y22776D01*
X17801Y22700D01*
X17895D01*
X18448Y22148D01*
X18563Y22070D01*
X18700Y22043D01*
X22650D01*
X22717Y21976D01*
X22901Y21900D01*
X23099D01*
X23283Y21976D01*
X23424Y22117D01*
X23500Y22301D01*
Y22499D01*
X23500Y22500D01*
X23683Y22576D01*
X23750Y22643D01*
X24773D01*
X24821Y22526D01*
X24295Y22000D01*
X24201D01*
X24017Y21924D01*
X23876Y21783D01*
X23800Y21599D01*
Y21401D01*
X23876Y21217D01*
X24017Y21076D01*
X24201Y21000D01*
X24399D01*
X24583Y21076D01*
X24724Y21217D01*
X24800Y21401D01*
Y21495D01*
X25598Y22293D01*
X28933D01*
X29719Y21507D01*
Y19453D01*
X29746Y19317D01*
X29824Y19201D01*
X31243Y17781D01*
Y17048D01*
X30748Y16552D01*
X30670Y16437D01*
X30643Y16300D01*
Y15950D01*
X30576Y15883D01*
X30500Y15699D01*
Y15501D01*
X30576Y15317D01*
X30717Y15176D01*
X30901Y15100D01*
X31099D01*
X31283Y15176D01*
X31313Y15170D01*
X31376Y15017D01*
X31517Y14876D01*
X31701Y14800D01*
X31899D01*
X32083Y14876D01*
X32224Y15017D01*
X32287Y15170D01*
X32317Y15176D01*
X32501Y15100D01*
X32699D01*
X32821Y15150D01*
X32876Y15017D01*
X33017Y14876D01*
X33201Y14800D01*
X33399D01*
X33583Y14876D01*
X33724Y15017D01*
X33779Y15150D01*
X33901Y15100D01*
X34099D01*
X34221Y15150D01*
X34276Y15017D01*
X34417Y14876D01*
X34601Y14800D01*
X34799D01*
X34983Y14876D01*
X35124Y15017D01*
X35179Y15150D01*
X35301Y15100D01*
X35499D01*
X35683Y15176D01*
X35824Y15317D01*
X35900Y15501D01*
Y15699D01*
X35824Y15883D01*
X35683Y16024D01*
X35499Y16100D01*
X35405D01*
X35057Y16448D01*
Y17373D01*
X35174Y17421D01*
X37948Y14648D01*
X38063Y14570D01*
X38200Y14543D01*
X38952D01*
X40080Y13415D01*
X40196Y13338D01*
X40332Y13311D01*
X48384D01*
X49334Y12362D01*
X49275Y12143D01*
Y11907D01*
X49336Y11678D01*
X49455Y11472D01*
X49622Y11305D01*
X49828Y11186D01*
X50057Y11125D01*
X50293D01*
X50522Y11186D01*
X50728Y11305D01*
X50895Y11472D01*
X51014Y11678D01*
X51075Y11907D01*
Y12143D01*
X51014Y12372D01*
X50895Y12578D01*
X50728Y12745D01*
X50522Y12864D01*
X50293Y12925D01*
X50057D01*
X49838Y12866D01*
X48785Y13920D01*
X48669Y13997D01*
X48532Y14025D01*
X47440D01*
X47392Y14142D01*
X48918Y15668D01*
X49342D01*
X49455Y15472D01*
X49622Y15305D01*
X49828Y15186D01*
X50057Y15125D01*
X50293D01*
X50522Y15186D01*
X50728Y15305D01*
X50895Y15472D01*
X51014Y15678D01*
X51075Y15907D01*
Y16143D01*
X51014Y16372D01*
X50895Y16578D01*
X50728Y16745D01*
X50522Y16864D01*
X50293Y16925D01*
X50057D01*
X49828Y16864D01*
X49622Y16745D01*
X49455Y16578D01*
X49342Y16382D01*
X49183D01*
X49103Y16480D01*
X49107Y16500D01*
Y17602D01*
X49173Y17668D01*
X49342D01*
X49455Y17472D01*
X49622Y17305D01*
X49828Y17186D01*
X50057Y17125D01*
X50293D01*
X50522Y17186D01*
X50728Y17305D01*
X50895Y17472D01*
X51014Y17678D01*
X51075Y17907D01*
Y18143D01*
X51014Y18372D01*
X50895Y18578D01*
X50728Y18745D01*
X50522Y18864D01*
X50293Y18925D01*
X50057D01*
X49828Y18864D01*
X49622Y18745D01*
X49455Y18578D01*
X49342Y18382D01*
X49025D01*
X48888Y18355D01*
X48773Y18277D01*
X48498Y18002D01*
X48420Y17887D01*
X48393Y17750D01*
Y16648D01*
X46602Y14857D01*
X40670D01*
X39575Y15952D01*
Y19822D01*
X39548Y19959D01*
X39471Y20074D01*
X37678Y21867D01*
Y21962D01*
X37602Y22146D01*
X37461Y22287D01*
X37277Y22363D01*
X37078D01*
X37076Y22362D01*
X36979Y22459D01*
X36996Y22501D01*
Y22699D01*
X36920Y22883D01*
X36779Y23024D01*
X36595Y23100D01*
X36397D01*
X36213Y23024D01*
X36072Y22883D01*
X35996Y22699D01*
Y22501D01*
X36072Y22317D01*
X36139Y22250D01*
Y21004D01*
X36166Y20867D01*
X36244Y20752D01*
X37618Y19377D01*
X37566Y19250D01*
X37491D01*
X37288Y19166D01*
X37134Y19012D01*
X37050Y18809D01*
Y18591D01*
X37134Y18388D01*
X37288Y18234D01*
X37491Y18150D01*
X37709D01*
X37912Y18234D01*
X38066Y18388D01*
X38150Y18591D01*
Y18666D01*
X38277Y18718D01*
X38511Y18484D01*
Y15659D01*
X38539Y15523D01*
X38616Y15407D01*
X38649Y15374D01*
X38600Y15257D01*
X38348D01*
X35457Y18148D01*
Y20350D01*
X35524Y20417D01*
X35600Y20601D01*
Y20799D01*
X35524Y20983D01*
X35383Y21124D01*
X35199Y21200D01*
X35001D01*
X34817Y21124D01*
X34676Y20983D01*
X34600Y20799D01*
Y20601D01*
X34676Y20417D01*
X34743Y20350D01*
Y18627D01*
X34626Y18579D01*
X32557Y20648D01*
Y21071D01*
X32601Y21100D01*
X32799D01*
X32983Y21176D01*
X33124Y21317D01*
X33200Y21501D01*
Y21699D01*
X33124Y21883D01*
X33113Y21894D01*
X33126Y22049D01*
X33155Y22068D01*
X33354D01*
X33537Y22144D01*
X33678Y22285D01*
X33754Y22468D01*
Y22667D01*
X33678Y22851D01*
X33537Y22992D01*
X33354Y23068D01*
X33259D01*
X32357Y23970D01*
Y24971D01*
X32401Y25000D01*
X32599D01*
X32612Y25005D01*
X32683Y24900D01*
X32684Y24898D01*
X32608Y24714D01*
Y24516D01*
X32684Y24332D01*
X32825Y24191D01*
X33009Y24115D01*
X33208D01*
X33391Y24191D01*
X33532Y24332D01*
X33608Y24516D01*
Y24714D01*
X33532Y24898D01*
X33465Y24965D01*
Y25902D01*
X33592Y25955D01*
X33663Y25884D01*
X33866Y25800D01*
X34084D01*
X34286Y25884D01*
X34441Y26038D01*
X34525Y26241D01*
Y26459D01*
X34441Y26662D01*
X34286Y26816D01*
X34144Y26875D01*
Y27013D01*
X34175Y27025D01*
X34330Y27180D01*
X34413Y27382D01*
Y27601D01*
X34330Y27803D01*
X34175Y27958D01*
X33973Y28041D01*
X33754D01*
X33592Y27974D01*
X33465Y28037D01*
Y31260D01*
X33648Y31443D01*
X38071D01*
X38100Y31399D01*
Y31201D01*
X38176Y31017D01*
X38317Y30876D01*
X38501Y30800D01*
X38699D01*
X38883Y30876D01*
X39024Y31017D01*
X39100Y31201D01*
Y31399D01*
X39099Y31401D01*
X39137Y31470D01*
X39252Y31548D01*
X40852Y33148D01*
X40930Y33263D01*
X40957Y33400D01*
Y34885D01*
X41372Y35300D01*
X41499D01*
X41683Y35376D01*
X41824Y35517D01*
X41900Y35701D01*
Y35899D01*
X41824Y36083D01*
X41683Y36224D01*
X41499Y36300D01*
X41301D01*
X41117Y36224D01*
X40976Y36083D01*
X40900Y35899D01*
Y35837D01*
X40348Y35285D01*
X40270Y35169D01*
X40243Y35033D01*
Y33548D01*
X39817Y33122D01*
X39700Y33171D01*
Y33199D01*
X39624Y33383D01*
X39483Y33524D01*
X39299Y33600D01*
X39101D01*
X38917Y33524D01*
X38776Y33383D01*
X38700Y33199D01*
Y33001D01*
X38776Y32817D01*
X38917Y32676D01*
X39101Y32600D01*
X39129D01*
X39178Y32483D01*
X38852Y32157D01*
X33500D01*
X33363Y32130D01*
X33248Y32052D01*
X32856Y31661D01*
X32779Y31545D01*
X32751Y31408D01*
Y30307D01*
X32624Y30282D01*
X32624Y30283D01*
X32483Y30424D01*
X32299Y30500D01*
X32101D01*
X31917Y30424D01*
X31800Y30307D01*
X31783Y30324D01*
X31599Y30400D01*
X31401D01*
X31217Y30324D01*
X31175Y30282D01*
X31133Y30324D01*
X30949Y30400D01*
X30751D01*
X30567Y30324D01*
X30426Y30183D01*
X30350Y29999D01*
Y29801D01*
X30426Y29617D01*
X30567Y29476D01*
X30751Y29400D01*
X30949D01*
X31133Y29476D01*
X31175Y29518D01*
X31217Y29476D01*
X31401Y29400D01*
X31599D01*
X31783Y29476D01*
X31900Y29593D01*
X31917Y29576D01*
X32101Y29500D01*
X32299D01*
X32483Y29576D01*
X32624Y29717D01*
X32624Y29718D01*
X32751Y29693D01*
Y26419D01*
X32634Y26371D01*
X23700Y35305D01*
Y35399D01*
X23624Y35583D01*
X23609Y35598D01*
X23657Y35716D01*
X23817D01*
X23917Y35616D01*
X24101Y35540D01*
X24299D01*
X24483Y35616D01*
X24624Y35757D01*
X24700Y35941D01*
Y36140D01*
X24624Y36323D01*
X24582Y36365D01*
X24624Y36407D01*
X24700Y36591D01*
Y36790D01*
X24624Y36973D01*
X24483Y37114D01*
X24299Y37190D01*
D02*
G37*
G36*
X34420Y38727D02*
X34218Y38700D01*
X34029Y38622D01*
X33867Y38498D01*
X33743Y38336D01*
X33665Y38147D01*
X33638Y37945D01*
Y36895D01*
X33665Y36693D01*
X33743Y36504D01*
X33867Y36342D01*
X34029Y36218D01*
X34218Y36140D01*
X34420Y36113D01*
X34622Y36140D01*
X34811Y36218D01*
X34973Y36342D01*
X35097Y36504D01*
X35175Y36693D01*
X35202Y36895D01*
Y37945D01*
X35175Y38147D01*
X35097Y38336D01*
X34973Y38498D01*
X34811Y38622D01*
X34622Y38700D01*
X34420Y38727D01*
D02*
G37*
G36*
X25780D02*
X25578Y38700D01*
X25389Y38622D01*
X25227Y38498D01*
X25103Y38336D01*
X25025Y38147D01*
X24998Y37945D01*
Y36895D01*
X25025Y36693D01*
X25103Y36504D01*
X25227Y36342D01*
X25389Y36218D01*
X25578Y36140D01*
X25780Y36113D01*
X25982Y36140D01*
X26171Y36218D01*
X26333Y36342D01*
X26457Y36504D01*
X26535Y36693D01*
X26562Y36895D01*
Y37945D01*
X26535Y38147D01*
X26457Y38336D01*
X26333Y38498D01*
X26171Y38622D01*
X25982Y38700D01*
X25780Y38727D01*
D02*
G37*
G36*
X38499Y37000D02*
X38301D01*
X38117Y36924D01*
X37976Y36783D01*
X37900Y36599D01*
Y36401D01*
X37976Y36217D01*
X38117Y36076D01*
X38301Y36000D01*
X38499D01*
X38683Y36076D01*
X38824Y36217D01*
X38900Y36401D01*
Y36599D01*
X38824Y36783D01*
X38683Y36924D01*
X38499Y37000D01*
D02*
G37*
G36*
X6349Y36750D02*
X6151D01*
X5967Y36674D01*
X5826Y36533D01*
X5750Y36349D01*
Y36151D01*
X5826Y35967D01*
X5967Y35826D01*
X6151Y35750D01*
X6349D01*
X6533Y35826D01*
X6674Y35967D01*
X6750Y36151D01*
Y36349D01*
X6674Y36533D01*
X6533Y36674D01*
X6349Y36750D01*
D02*
G37*
G36*
X27799Y36400D02*
X27601D01*
X27417Y36324D01*
X27276Y36183D01*
X27200Y35999D01*
Y35801D01*
X27276Y35617D01*
X27417Y35476D01*
X27601Y35400D01*
X27799D01*
X27983Y35476D01*
X28124Y35617D01*
X28200Y35801D01*
Y35999D01*
X28124Y36183D01*
X27983Y36324D01*
X27799Y36400D01*
D02*
G37*
G36*
X31399Y35400D02*
X31201D01*
X31017Y35324D01*
X30876Y35183D01*
X30800Y34999D01*
Y34801D01*
X30876Y34617D01*
X31017Y34476D01*
X31201Y34400D01*
X31399D01*
X31583Y34476D01*
X31724Y34617D01*
X31800Y34801D01*
Y34999D01*
X31724Y35183D01*
X31583Y35324D01*
X31399Y35400D01*
D02*
G37*
G36*
X33299Y34700D02*
X33101D01*
X32917Y34624D01*
X32776Y34483D01*
X32700Y34299D01*
Y34101D01*
X32776Y33917D01*
X32917Y33776D01*
X33101Y33700D01*
X33299D01*
X33483Y33776D01*
X33624Y33917D01*
X33700Y34101D01*
Y34299D01*
X33624Y34483D01*
X33483Y34624D01*
X33299Y34700D01*
D02*
G37*
G36*
X27099Y34300D02*
X26901D01*
X26717Y34224D01*
X26576Y34083D01*
X26500Y33899D01*
Y33701D01*
X26576Y33517D01*
X26717Y33376D01*
X26901Y33300D01*
X27099D01*
X27283Y33376D01*
X27424Y33517D01*
X27500Y33701D01*
Y33899D01*
X27424Y34083D01*
X27283Y34224D01*
X27099Y34300D01*
D02*
G37*
G36*
X6999Y33500D02*
X6801D01*
X6617Y33424D01*
X6476Y33283D01*
X6400Y33099D01*
Y32901D01*
X6476Y32717D01*
X6617Y32576D01*
X6801Y32500D01*
X6910D01*
X6935Y32373D01*
X6817Y32324D01*
X6676Y32183D01*
X6600Y31999D01*
Y31801D01*
X6676Y31617D01*
X6817Y31476D01*
X7001Y31400D01*
X7199D01*
X7383Y31476D01*
X7524Y31617D01*
X7600Y31801D01*
Y31999D01*
X7524Y32183D01*
X7383Y32324D01*
X7199Y32400D01*
X7090D01*
X7065Y32527D01*
X7183Y32576D01*
X7324Y32717D01*
X7400Y32901D01*
Y33099D01*
X7324Y33283D01*
X7183Y33424D01*
X6999Y33500D01*
D02*
G37*
G36*
X49524Y32652D02*
X49325D01*
X49142Y32576D01*
X49001Y32435D01*
X48925Y32251D01*
Y32053D01*
X49001Y31869D01*
X49142Y31728D01*
X49325Y31652D01*
X49460D01*
X49485Y31615D01*
Y31416D01*
X49561Y31232D01*
X49702Y31092D01*
X49885Y31015D01*
X50084D01*
X50268Y31092D01*
X50409Y31232D01*
X50485Y31416D01*
Y31615D01*
X50409Y31799D01*
X50268Y31939D01*
X50084Y32015D01*
X49950D01*
X49925Y32053D01*
Y32251D01*
X49849Y32435D01*
X49708Y32576D01*
X49524Y32652D01*
D02*
G37*
G36*
X7399Y31100D02*
X7201D01*
X7017Y31024D01*
X6876Y30883D01*
X6800Y30699D01*
Y30501D01*
X6876Y30317D01*
X7017Y30176D01*
X7201Y30100D01*
X7399D01*
X7583Y30176D01*
X7724Y30317D01*
X7800Y30501D01*
Y30699D01*
X7724Y30883D01*
X7583Y31024D01*
X7399Y31100D01*
D02*
G37*
G36*
X1599Y30000D02*
X1401D01*
X1217Y29924D01*
X1076Y29783D01*
X1000Y29599D01*
Y29401D01*
X1076Y29217D01*
X1217Y29076D01*
X1401Y29000D01*
X1599D01*
X1783Y29076D01*
X1924Y29217D01*
X2000Y29401D01*
Y29599D01*
X1924Y29783D01*
X1783Y29924D01*
X1599Y30000D01*
D02*
G37*
G36*
X7399Y29700D02*
X7201D01*
X7017Y29624D01*
X6876Y29483D01*
X6800Y29299D01*
Y29101D01*
X6876Y28917D01*
X7017Y28776D01*
X7201Y28700D01*
X7399D01*
X7583Y28776D01*
X7724Y28917D01*
X7800Y29101D01*
Y29299D01*
X7724Y29483D01*
X7583Y29624D01*
X7399Y29700D01*
D02*
G37*
G36*
Y28500D02*
X7201D01*
X7017Y28424D01*
X6876Y28283D01*
X6800Y28099D01*
Y27901D01*
X6876Y27717D01*
X7017Y27576D01*
X7201Y27500D01*
X7399D01*
X7583Y27576D01*
X7724Y27717D01*
X7800Y27901D01*
Y28099D01*
X7724Y28283D01*
X7583Y28424D01*
X7399Y28500D01*
D02*
G37*
G36*
Y27200D02*
X7201D01*
X7017Y27124D01*
X6876Y26983D01*
X6800Y26799D01*
Y26601D01*
X6876Y26417D01*
X6943Y26350D01*
X6876Y26283D01*
X6800Y26099D01*
Y25901D01*
X6876Y25717D01*
X7017Y25576D01*
X7201Y25500D01*
X7399D01*
X7583Y25576D01*
X7724Y25717D01*
X7800Y25901D01*
Y26099D01*
X7724Y26283D01*
X7657Y26350D01*
X7724Y26417D01*
X7800Y26601D01*
Y26799D01*
X7724Y26983D01*
X7583Y27124D01*
X7399Y27200D01*
D02*
G37*
G36*
X9499Y25500D02*
X9301D01*
X9117Y25424D01*
X8976Y25283D01*
X8900Y25099D01*
Y24901D01*
X8976Y24717D01*
X9117Y24576D01*
X9301Y24500D01*
X9395D01*
X9924Y23971D01*
X10040Y23894D01*
X10177Y23867D01*
X10342D01*
X10479Y23894D01*
X10595Y23971D01*
X10667Y24043D01*
X11450D01*
X11517Y23976D01*
X11701Y23900D01*
X11899D01*
X12083Y23976D01*
X12224Y24117D01*
X12300Y24301D01*
Y24499D01*
X12224Y24683D01*
X12083Y24824D01*
X11899Y24900D01*
X11701D01*
X11517Y24824D01*
X11450Y24757D01*
X10519D01*
X10382Y24730D01*
X10266Y24652D01*
X10259Y24645D01*
X9900Y25005D01*
Y25099D01*
X9824Y25283D01*
X9683Y25424D01*
X9499Y25500D01*
D02*
G37*
G36*
X7699Y23800D02*
X7501D01*
X7317Y23724D01*
X7176Y23583D01*
X7100Y23399D01*
Y23201D01*
X7176Y23017D01*
X7317Y22876D01*
X7501Y22800D01*
X7699D01*
X7883Y22876D01*
X8024Y23017D01*
X8100Y23201D01*
Y23399D01*
X8024Y23583D01*
X7883Y23724D01*
X7699Y23800D01*
D02*
G37*
G36*
X15399Y22300D02*
X15201D01*
X15017Y22224D01*
X14876Y22083D01*
X14800Y21899D01*
Y21701D01*
X14876Y21517D01*
X15017Y21376D01*
X15201Y21300D01*
X15399D01*
X15583Y21376D01*
X15724Y21517D01*
X15800Y21701D01*
Y21899D01*
X15724Y22083D01*
X15583Y22224D01*
X15399Y22300D01*
D02*
G37*
G36*
X18699Y21200D02*
X18501D01*
X18317Y21124D01*
X18176Y20983D01*
X18169Y20965D01*
X18031D01*
X18024Y20983D01*
X17883Y21124D01*
X17699Y21200D01*
X17501D01*
X17317Y21124D01*
X17176Y20983D01*
X17100Y20799D01*
Y20601D01*
X17176Y20417D01*
X17317Y20276D01*
X17501Y20200D01*
X17699D01*
X17883Y20276D01*
X18024Y20417D01*
X18031Y20435D01*
X18169D01*
X18176Y20417D01*
X18317Y20276D01*
X18501Y20200D01*
X18699D01*
X18883Y20276D01*
X19024Y20417D01*
X19100Y20601D01*
Y20799D01*
X19024Y20983D01*
X18883Y21124D01*
X18699Y21200D01*
D02*
G37*
G36*
X16599Y21800D02*
X16401D01*
X16217Y21724D01*
X16076Y21583D01*
X16000Y21399D01*
Y21201D01*
X16076Y21017D01*
X16217Y20876D01*
X16401Y20800D01*
X16599D01*
X16783Y20876D01*
X16924Y21017D01*
X17000Y21201D01*
Y21399D01*
X16924Y21583D01*
X16783Y21724D01*
X16599Y21800D01*
D02*
G37*
G36*
X39609Y21650D02*
X39391D01*
X39188Y21566D01*
X39034Y21412D01*
X38950Y21209D01*
Y20991D01*
X39034Y20788D01*
X39188Y20634D01*
X39391Y20550D01*
X39609D01*
X39812Y20634D01*
X39966Y20788D01*
X40050Y20991D01*
Y21209D01*
X39966Y21412D01*
X39812Y21566D01*
X39609Y21650D01*
D02*
G37*
G36*
X13599Y21400D02*
X13401D01*
X13217Y21324D01*
X13076Y21183D01*
X13000Y20999D01*
Y20801D01*
X13076Y20617D01*
X13217Y20476D01*
X13401Y20400D01*
X13599D01*
X13783Y20476D01*
X13924Y20617D01*
X14000Y20801D01*
Y20999D01*
X13924Y21183D01*
X13783Y21324D01*
X13599Y21400D01*
D02*
G37*
G36*
X51075Y20925D02*
X50300D01*
Y20150D01*
X51075D01*
Y20925D01*
D02*
G37*
G36*
X50050D02*
X49275D01*
Y20150D01*
X50050D01*
Y20925D01*
D02*
G37*
G36*
X24199Y20500D02*
X24001D01*
X23817Y20424D01*
X23676Y20283D01*
X23600Y20099D01*
Y19901D01*
X23676Y19717D01*
X23817Y19576D01*
X24001Y19500D01*
X24199D01*
X24383Y19576D01*
X24524Y19717D01*
X24600Y19901D01*
Y20099D01*
X24524Y20283D01*
X24383Y20424D01*
X24199Y20500D01*
D02*
G37*
G36*
X51075Y19900D02*
X50300D01*
Y19125D01*
X51075D01*
Y19900D01*
D02*
G37*
G36*
X50050D02*
X49275D01*
Y19125D01*
X50050D01*
Y19900D01*
D02*
G37*
G36*
X36498Y19735D02*
X36280D01*
X36077Y19651D01*
X35923Y19496D01*
X35839Y19294D01*
Y19075D01*
X35923Y18873D01*
X36077Y18719D01*
X36280Y18635D01*
X36498D01*
X36701Y18719D01*
X36855Y18873D01*
X36939Y19075D01*
Y19294D01*
X36855Y19496D01*
X36701Y19651D01*
X36498Y19735D01*
D02*
G37*
G36*
X12699Y18400D02*
X12501D01*
X12317Y18324D01*
X12176Y18183D01*
X12100Y17999D01*
Y17801D01*
X12176Y17617D01*
X12317Y17476D01*
X12501Y17400D01*
X12699D01*
X12883Y17476D01*
X13024Y17617D01*
X13100Y17801D01*
Y17999D01*
X13024Y18183D01*
X12883Y18324D01*
X12699Y18400D01*
D02*
G37*
G36*
X44349Y18250D02*
X44151D01*
X43967Y18174D01*
X43826Y18033D01*
X43750Y17849D01*
Y17651D01*
X43826Y17467D01*
X43967Y17326D01*
X44151Y17250D01*
X44349D01*
X44533Y17326D01*
X44674Y17467D01*
X44750Y17651D01*
Y17849D01*
X44674Y18033D01*
X44533Y18174D01*
X44349Y18250D01*
D02*
G37*
G36*
X41335Y18320D02*
X41116D01*
X40914Y18236D01*
X40759Y18082D01*
X40675Y17880D01*
Y17661D01*
X40759Y17459D01*
X40914Y17304D01*
X41116Y17220D01*
X41335D01*
X41537Y17304D01*
X41691Y17459D01*
X41775Y17661D01*
Y17880D01*
X41691Y18082D01*
X41537Y18236D01*
X41335Y18320D01*
D02*
G37*
G36*
X24849Y17750D02*
X24651D01*
X24467Y17674D01*
X24326Y17533D01*
X24250Y17349D01*
Y17151D01*
X24326Y16967D01*
X24467Y16826D01*
X24651Y16750D01*
X24849D01*
X25033Y16826D01*
X25174Y16967D01*
X25250Y17151D01*
Y17349D01*
X25174Y17533D01*
X25033Y17674D01*
X24849Y17750D01*
D02*
G37*
G36*
X16499Y17700D02*
X16301D01*
X16117Y17624D01*
X15976Y17483D01*
X15900Y17299D01*
Y17101D01*
X15976Y16917D01*
X16117Y16776D01*
X16301Y16700D01*
X16499D01*
X16683Y16776D01*
X16824Y16917D01*
X16900Y17101D01*
Y17299D01*
X16824Y17483D01*
X16683Y17624D01*
X16499Y17700D01*
D02*
G37*
G36*
X29299Y16200D02*
X29101D01*
X28917Y16124D01*
X28776Y15983D01*
X28700Y15799D01*
Y15601D01*
X28776Y15417D01*
X28917Y15276D01*
X29101Y15200D01*
X29299D01*
X29483Y15276D01*
X29624Y15417D01*
X29700Y15601D01*
Y15799D01*
X29624Y15983D01*
X29483Y16124D01*
X29299Y16200D01*
D02*
G37*
G36*
X17499Y15900D02*
X17301D01*
X17117Y15824D01*
X16976Y15683D01*
X16900Y15499D01*
Y15301D01*
X16976Y15117D01*
X17117Y14976D01*
X17301Y14900D01*
X17499D01*
X17683Y14976D01*
X17824Y15117D01*
X17900Y15301D01*
Y15499D01*
X17824Y15683D01*
X17683Y15824D01*
X17499Y15900D01*
D02*
G37*
G36*
X15499D02*
X15301D01*
X15117Y15824D01*
X14976Y15683D01*
X14900Y15499D01*
Y15301D01*
X14976Y15117D01*
X15117Y14976D01*
X15301Y14900D01*
X15499D01*
X15683Y14976D01*
X15824Y15117D01*
X15900Y15301D01*
Y15499D01*
X15824Y15683D01*
X15683Y15824D01*
X15499Y15900D01*
D02*
G37*
G36*
X13199D02*
X13001D01*
X12817Y15824D01*
X12676Y15683D01*
X12600Y15499D01*
Y15301D01*
X12676Y15117D01*
X12817Y14976D01*
X13001Y14900D01*
X13199D01*
X13383Y14976D01*
X13524Y15117D01*
X13600Y15301D01*
Y15499D01*
X13524Y15683D01*
X13383Y15824D01*
X13199Y15900D01*
D02*
G37*
G36*
X10799D02*
X10601D01*
X10417Y15824D01*
X10276Y15683D01*
X10200Y15499D01*
Y15301D01*
X10276Y15117D01*
X10417Y14976D01*
X10601Y14900D01*
X10799D01*
X10983Y14976D01*
X11124Y15117D01*
X11200Y15301D01*
Y15499D01*
X11124Y15683D01*
X10983Y15824D01*
X10799Y15900D01*
D02*
G37*
G36*
X9599D02*
X9401D01*
X9217Y15824D01*
X9076Y15683D01*
X9000Y15499D01*
Y15301D01*
X9076Y15117D01*
X9217Y14976D01*
X9401Y14900D01*
X9599D01*
X9783Y14976D01*
X9924Y15117D01*
X10000Y15301D01*
Y15499D01*
X9924Y15683D01*
X9783Y15824D01*
X9599Y15900D01*
D02*
G37*
G36*
X8399D02*
X8201D01*
X8017Y15824D01*
X7876Y15683D01*
X7800Y15499D01*
Y15301D01*
X7876Y15117D01*
X8017Y14976D01*
X8201Y14900D01*
X8399D01*
X8583Y14976D01*
X8724Y15117D01*
X8800Y15301D01*
Y15499D01*
X8724Y15683D01*
X8583Y15824D01*
X8399Y15900D01*
D02*
G37*
G36*
X28099Y15600D02*
X27901D01*
X27717Y15524D01*
X27576Y15383D01*
X27500Y15199D01*
Y15001D01*
X27576Y14817D01*
X27717Y14676D01*
X27901Y14600D01*
X28099D01*
X28283Y14676D01*
X28424Y14817D01*
X28500Y15001D01*
Y15199D01*
X28424Y15383D01*
X28283Y15524D01*
X28099Y15600D01*
D02*
G37*
G36*
X18699D02*
X18501D01*
X18317Y15524D01*
X18176Y15383D01*
X18100Y15199D01*
Y15001D01*
X18176Y14817D01*
X18317Y14676D01*
X18501Y14600D01*
X18699D01*
X18883Y14676D01*
X19024Y14817D01*
X19100Y15001D01*
Y15199D01*
X19024Y15383D01*
X18883Y15524D01*
X18699Y15600D01*
D02*
G37*
G36*
X18418Y14088D02*
X18400D01*
Y13125D01*
X19363D01*
Y13143D01*
X19289Y13420D01*
X19146Y13668D01*
X18943Y13871D01*
X18695Y14014D01*
X18418Y14088D01*
D02*
G37*
G36*
X50293Y14925D02*
X50057D01*
X49828Y14864D01*
X49622Y14745D01*
X49455Y14578D01*
X49336Y14372D01*
X49275Y14143D01*
Y13907D01*
X49336Y13678D01*
X49455Y13472D01*
X49622Y13305D01*
X49828Y13186D01*
X50057Y13125D01*
X50293D01*
X50522Y13186D01*
X50728Y13305D01*
X50895Y13472D01*
X51014Y13678D01*
X51075Y13907D01*
Y14143D01*
X51014Y14372D01*
X50895Y14578D01*
X50728Y14745D01*
X50522Y14864D01*
X50293Y14925D01*
D02*
G37*
G36*
X18150Y14088D02*
X18132D01*
X17855Y14014D01*
X17607Y13871D01*
X17404Y13668D01*
X17261Y13420D01*
X17187Y13143D01*
Y13125D01*
X18150D01*
Y14088D01*
D02*
G37*
G36*
X38738D02*
X38452D01*
X38175Y14014D01*
X37927Y13871D01*
X37724Y13668D01*
X37581Y13420D01*
X37507Y13143D01*
Y12857D01*
X37581Y12580D01*
X37724Y12332D01*
X37927Y12129D01*
X38175Y11986D01*
X38452Y11912D01*
X38738D01*
X39015Y11986D01*
X39263Y12129D01*
X39466Y12332D01*
X39609Y12580D01*
X39683Y12857D01*
Y13143D01*
X39609Y13420D01*
X39466Y13668D01*
X39263Y13871D01*
X39015Y14014D01*
X38738Y14088D01*
D02*
G37*
G36*
X36198D02*
X35912D01*
X35635Y14014D01*
X35387Y13871D01*
X35184Y13668D01*
X35041Y13420D01*
X34967Y13143D01*
Y12857D01*
X35041Y12580D01*
X35184Y12332D01*
X35387Y12129D01*
X35635Y11986D01*
X35912Y11912D01*
X36198D01*
X36475Y11986D01*
X36723Y12129D01*
X36926Y12332D01*
X37069Y12580D01*
X37143Y12857D01*
Y13143D01*
X37069Y13420D01*
X36926Y13668D01*
X36723Y13871D01*
X36475Y14014D01*
X36198Y14088D01*
D02*
G37*
G36*
X33658D02*
X33372D01*
X33095Y14014D01*
X32847Y13871D01*
X32644Y13668D01*
X32501Y13420D01*
X32427Y13143D01*
Y12857D01*
X32501Y12580D01*
X32644Y12332D01*
X32847Y12129D01*
X33095Y11986D01*
X33372Y11912D01*
X33658D01*
X33935Y11986D01*
X34183Y12129D01*
X34386Y12332D01*
X34529Y12580D01*
X34603Y12857D01*
Y13143D01*
X34529Y13420D01*
X34386Y13668D01*
X34183Y13871D01*
X33935Y14014D01*
X33658Y14088D01*
D02*
G37*
G36*
X31118D02*
X30832D01*
X30555Y14014D01*
X30307Y13871D01*
X30104Y13668D01*
X29961Y13420D01*
X29887Y13143D01*
Y12857D01*
X29961Y12580D01*
X30104Y12332D01*
X30307Y12129D01*
X30555Y11986D01*
X30832Y11912D01*
X31118D01*
X31395Y11986D01*
X31643Y12129D01*
X31846Y12332D01*
X31989Y12580D01*
X32063Y12857D01*
Y13143D01*
X31989Y13420D01*
X31846Y13668D01*
X31643Y13871D01*
X31395Y14014D01*
X31118Y14088D01*
D02*
G37*
G36*
X23498D02*
X23212D01*
X22935Y14014D01*
X22687Y13871D01*
X22484Y13668D01*
X22341Y13420D01*
X22267Y13143D01*
Y12857D01*
X22341Y12580D01*
X22484Y12332D01*
X22687Y12129D01*
X22935Y11986D01*
X23212Y11912D01*
X23498D01*
X23775Y11986D01*
X24023Y12129D01*
X24226Y12332D01*
X24369Y12580D01*
X24443Y12857D01*
Y13143D01*
X24369Y13420D01*
X24226Y13668D01*
X24023Y13871D01*
X23775Y14014D01*
X23498Y14088D01*
D02*
G37*
G36*
X20958D02*
X20672D01*
X20395Y14014D01*
X20147Y13871D01*
X19944Y13668D01*
X19801Y13420D01*
X19727Y13143D01*
Y12857D01*
X19801Y12580D01*
X19944Y12332D01*
X20147Y12129D01*
X20395Y11986D01*
X20672Y11912D01*
X20958D01*
X21235Y11986D01*
X21483Y12129D01*
X21686Y12332D01*
X21829Y12580D01*
X21903Y12857D01*
Y13143D01*
X21829Y13420D01*
X21686Y13668D01*
X21483Y13871D01*
X21235Y14014D01*
X20958Y14088D01*
D02*
G37*
G36*
X19363Y12875D02*
X18400D01*
Y11912D01*
X18418D01*
X18695Y11986D01*
X18943Y12129D01*
X19146Y12332D01*
X19289Y12580D01*
X19363Y12857D01*
Y12875D01*
D02*
G37*
G36*
X18150D02*
X17187D01*
Y12857D01*
X17261Y12580D01*
X17404Y12332D01*
X17607Y12129D01*
X17855Y11986D01*
X18132Y11912D01*
X18150D01*
Y12875D01*
D02*
G37*
G36*
X15878Y14088D02*
X15592D01*
X15315Y14014D01*
X15067Y13871D01*
X14864Y13668D01*
X14721Y13420D01*
X14647Y13143D01*
Y12857D01*
X14721Y12580D01*
X14864Y12332D01*
X15067Y12129D01*
X15315Y11986D01*
X15592Y11912D01*
X15878D01*
X16155Y11986D01*
X16403Y12129D01*
X16606Y12332D01*
X16749Y12580D01*
X16823Y12857D01*
Y13143D01*
X16749Y13420D01*
X16606Y13668D01*
X16403Y13871D01*
X16155Y14014D01*
X15878Y14088D01*
D02*
G37*
G36*
X13338D02*
X13052D01*
X12775Y14014D01*
X12527Y13871D01*
X12324Y13668D01*
X12181Y13420D01*
X12107Y13143D01*
Y12857D01*
X12181Y12580D01*
X12324Y12332D01*
X12527Y12129D01*
X12775Y11986D01*
X13052Y11912D01*
X13338D01*
X13615Y11986D01*
X13863Y12129D01*
X14066Y12332D01*
X14209Y12580D01*
X14283Y12857D01*
Y13143D01*
X14209Y13420D01*
X14066Y13668D01*
X13863Y13871D01*
X13615Y14014D01*
X13338Y14088D01*
D02*
G37*
%LPD*%
D11*
X20300Y7000D02*
Y10100D01*
X20800Y10600D01*
X23495D01*
X25895Y13000D01*
X10342Y24223D02*
X10519Y24400D01*
X9400Y25000D02*
X10177Y24223D01*
X10342D01*
X10519Y24400D02*
X11800D01*
X18700Y22400D02*
X23000D01*
X17900Y23200D02*
X18700Y22400D01*
X31000Y15600D02*
Y16300D01*
X31800Y15300D02*
Y16400D01*
X31000Y16300D02*
X31600Y16900D01*
X30776Y19743D02*
X32600Y17919D01*
Y15600D02*
Y17919D01*
X31800Y16400D02*
X32100Y16700D01*
X31600Y16900D02*
Y17929D01*
X32100Y16700D02*
Y17924D01*
X34000Y15600D02*
Y17710D01*
X34700Y15300D02*
Y15800D01*
X34350Y16150D02*
X34700Y15800D01*
X34350Y16150D02*
Y17855D01*
X25450Y22650D02*
X29081D01*
X30076Y19453D02*
Y21655D01*
X29081Y22650D02*
X30076Y21655D01*
X24300Y21500D02*
X25450Y22650D01*
X30076Y19453D02*
X31600Y17929D01*
X29226Y23000D02*
X30426Y21800D01*
X23400Y23000D02*
X29226D01*
X30426Y19598D02*
Y21800D01*
Y19598D02*
X32100Y17924D01*
X23000Y25600D02*
X23950Y26550D01*
X28545D01*
X30250Y24845D01*
Y23097D02*
Y24845D01*
Y23097D02*
X31150Y22197D01*
Y20065D02*
Y22197D01*
Y20065D02*
X33300Y17915D01*
Y15300D02*
Y17915D01*
X23200Y26816D02*
X23316D01*
X23500Y27000D01*
X28655D01*
X30600Y25055D01*
Y23242D02*
Y25055D01*
Y23242D02*
X31500Y22342D01*
Y20210D02*
Y22342D01*
Y20210D02*
X34000Y17710D01*
X24200Y25100D02*
X25300Y26200D01*
X20600Y25100D02*
X24200D01*
X19900Y24400D02*
X20600Y25100D01*
X25300Y26200D02*
X28400D01*
X29830Y24770D01*
Y23022D02*
Y24770D01*
Y23022D02*
X30776Y22076D01*
Y19743D02*
Y22076D01*
X23600Y28100D02*
X24350Y27350D01*
X28800D01*
X30950Y25200D01*
Y23387D02*
Y25200D01*
Y23387D02*
X31850Y22487D01*
Y20355D02*
Y22487D01*
Y20355D02*
X34350Y17855D01*
X38200Y14900D02*
X39100D01*
X35100Y18000D02*
Y20700D01*
Y18000D02*
X38200Y14900D01*
X23900Y28800D02*
X25000Y27700D01*
X29100D02*
X31300Y25500D01*
X25000Y27700D02*
X29100D01*
X31300Y23532D02*
Y25500D01*
Y23532D02*
X32200Y22632D01*
Y20500D02*
Y22632D01*
Y20500D02*
X34700Y18000D01*
Y16300D02*
Y18000D01*
Y16300D02*
X35400Y15600D01*
X23900Y29600D02*
X25400Y28100D01*
X29405D02*
X31650Y25855D01*
X25400Y28100D02*
X29405D01*
X31650Y23677D02*
Y25855D01*
X32700Y21600D02*
Y22627D01*
X31650Y23677D02*
X32700Y22627D01*
X20100Y34500D02*
X23500D01*
X32000Y26000D01*
Y23822D02*
X33254Y22568D01*
X32000Y23822D02*
Y26000D01*
X32500Y25500D02*
Y26000D01*
Y25468D02*
Y25500D01*
X23200Y35300D02*
X32500Y26000D01*
X39100Y14900D02*
X40332Y13668D01*
X10500Y22800D02*
X16500D01*
X19900Y26200D01*
X41367Y35800D02*
X41400D01*
X40600Y35033D02*
X41367Y35800D01*
X40600Y33400D02*
Y35033D01*
X39000Y31800D02*
X40600Y33400D01*
X33500Y31800D02*
X39000D01*
X33108Y31408D02*
X33500Y31800D01*
X9700Y22000D02*
X10500Y22800D01*
X50175Y12025D02*
X50200Y12000D01*
X48532Y13668D02*
X50175Y12025D01*
X40332Y13668D02*
X48532D01*
X38868Y15659D02*
X40378Y14150D01*
X46895D01*
X48770Y16025D01*
X50075D01*
X50100Y16000D01*
X36496Y21004D02*
X38868Y18632D01*
Y15659D02*
Y18632D01*
X36496Y21004D02*
Y22600D01*
X50175Y18025D02*
X50225D01*
X49025D02*
X50175D01*
X48750Y17750D02*
X49025Y18025D01*
X50225D02*
X50250Y18000D01*
X48750Y16500D02*
Y17750D01*
X46750Y14500D02*
X48750Y16500D01*
X39218Y15804D02*
X40522Y14500D01*
X46750D01*
X37178Y21863D02*
X39218Y19822D01*
Y15804D02*
Y19822D01*
X33108Y24615D02*
Y31408D01*
D13*
X19029Y36690D02*
X24200D01*
X19075Y36100D02*
X24140D01*
X16925Y34586D02*
X19029Y36690D01*
X17375Y34400D02*
X19075Y36100D01*
X24140D02*
X24200Y36040D01*
X15125Y27400D02*
Y27454D01*
X15225Y27628D02*
X15547Y27950D01*
X15125Y27454D02*
X15225Y27554D01*
Y27628D01*
X15547Y27950D02*
X15547D01*
X15775Y27400D02*
X17375Y29000D01*
X15547Y27950D02*
X16925Y29328D01*
X17375Y29000D02*
Y34400D01*
X16925Y29328D02*
Y34586D01*
D75*
X18275Y13000D02*
D03*
X25895D02*
D03*
D76*
X50175Y12025D02*
D03*
Y16025D02*
D03*
Y18025D02*
D03*
D77*
X32990Y37920D02*
D03*
X27210D02*
D03*
D80*
X50175Y20025D02*
D03*
D81*
X50250Y42200D02*
D03*
X49500Y40700D02*
D03*
X50250Y39200D02*
D03*
X49500Y37700D02*
D03*
X50250Y36200D02*
D03*
X49500Y34700D02*
D03*
X50250Y33200D02*
D03*
Y30200D02*
D03*
X49500Y28700D02*
D03*
X50250Y27200D02*
D03*
X49500Y25700D02*
D03*
X50250Y24200D02*
D03*
X49500Y22700D02*
D03*
X50250Y21200D02*
D03*
X48750Y42200D02*
D03*
Y39200D02*
D03*
X48000Y37700D02*
D03*
X48750Y36200D02*
D03*
X48000Y34700D02*
D03*
Y22700D02*
D03*
X48750Y21200D02*
D03*
X48000Y19700D02*
D03*
X48750Y12200D02*
D03*
X46500Y37700D02*
D03*
X47250Y36200D02*
D03*
Y30200D02*
D03*
Y27200D02*
D03*
X45750Y33200D02*
D03*
Y30200D02*
D03*
Y15200D02*
D03*
X43500Y37700D02*
D03*
X42750Y39200D02*
D03*
X42000Y37700D02*
D03*
X42750Y36200D02*
D03*
X40500Y40700D02*
D03*
X41250Y39200D02*
D03*
X39750Y42200D02*
D03*
Y39200D02*
D03*
Y30200D02*
D03*
Y12200D02*
D03*
X38250Y39200D02*
D03*
X37500Y37700D02*
D03*
Y34700D02*
D03*
X38250Y30200D02*
D03*
Y27200D02*
D03*
X36750Y39200D02*
D03*
X36000Y37700D02*
D03*
X36750Y36200D02*
D03*
X36000Y34700D02*
D03*
X35250Y39200D02*
D03*
Y36200D02*
D03*
X34500Y34700D02*
D03*
X35250Y24200D02*
D03*
X33000Y40700D02*
D03*
X33750Y39200D02*
D03*
X32250Y42200D02*
D03*
X31500Y40700D02*
D03*
X32250Y39200D02*
D03*
Y27200D02*
D03*
X30750Y42200D02*
D03*
X30000Y40700D02*
D03*
X30750Y39200D02*
D03*
Y33200D02*
D03*
X29250Y42200D02*
D03*
X28500Y40700D02*
D03*
X29250Y18200D02*
D03*
X27750Y42200D02*
D03*
X27000Y40700D02*
D03*
X27750Y21200D02*
D03*
X27000Y19700D02*
D03*
X27750Y18200D02*
D03*
X24750Y42200D02*
D03*
X24000Y40700D02*
D03*
X24750Y18200D02*
D03*
X23250Y42200D02*
D03*
X22500Y40700D02*
D03*
X23250Y39200D02*
D03*
Y18200D02*
D03*
X21750Y42200D02*
D03*
X21000Y40700D02*
D03*
X21750Y39200D02*
D03*
Y18200D02*
D03*
X20250Y42200D02*
D03*
X19500Y40700D02*
D03*
X20250Y39200D02*
D03*
X19500Y37700D02*
D03*
X20250Y33200D02*
D03*
X19500Y31700D02*
D03*
X20250Y30200D02*
D03*
X19500Y28700D02*
D03*
X20250Y27200D02*
D03*
Y15200D02*
D03*
X19500Y13700D02*
D03*
X18750Y42200D02*
D03*
X18000Y40700D02*
D03*
X18750Y39200D02*
D03*
X18000Y37700D02*
D03*
X18750Y33200D02*
D03*
Y30200D02*
D03*
X18000Y28700D02*
D03*
X18750Y27200D02*
D03*
X18000Y25700D02*
D03*
X17250Y42200D02*
D03*
X16500Y40700D02*
D03*
X17250Y39200D02*
D03*
X16500Y37700D02*
D03*
X17250Y36200D02*
D03*
Y27200D02*
D03*
X16500Y25700D02*
D03*
X15750Y42200D02*
D03*
X15000Y40700D02*
D03*
X15750Y39200D02*
D03*
X15000Y37700D02*
D03*
X15750Y36200D02*
D03*
X15000Y34700D02*
D03*
X15750Y33200D02*
D03*
X15000Y31700D02*
D03*
X15750Y30200D02*
D03*
X15000Y28700D02*
D03*
X14250Y42200D02*
D03*
X13500Y40700D02*
D03*
X14250Y39200D02*
D03*
X13500Y37700D02*
D03*
X14250Y36200D02*
D03*
X13500Y34700D02*
D03*
X14250Y33200D02*
D03*
X13500Y31700D02*
D03*
X14250Y30200D02*
D03*
Y27200D02*
D03*
X12750Y42200D02*
D03*
X12000Y40700D02*
D03*
X12750Y39200D02*
D03*
X12000Y37700D02*
D03*
X12750Y36200D02*
D03*
X12000Y34700D02*
D03*
X12750Y33200D02*
D03*
Y21200D02*
D03*
X12000Y13700D02*
D03*
X11250Y42200D02*
D03*
X10500Y40700D02*
D03*
X11250Y39200D02*
D03*
X10500Y37700D02*
D03*
X11250Y36200D02*
D03*
X10500Y34700D02*
D03*
X11250Y33200D02*
D03*
X10500Y31700D02*
D03*
X11250Y21200D02*
D03*
X10500Y13700D02*
D03*
X9750Y42200D02*
D03*
X9000Y40700D02*
D03*
X9750Y39200D02*
D03*
X9000Y37700D02*
D03*
X9750Y36200D02*
D03*
X9000Y34700D02*
D03*
Y28700D02*
D03*
X8250Y42200D02*
D03*
X7500Y40700D02*
D03*
X8250Y39200D02*
D03*
X7500Y37700D02*
D03*
X8250Y36200D02*
D03*
X7500Y34700D02*
D03*
X8250Y30200D02*
D03*
Y27200D02*
D03*
X6750Y42200D02*
D03*
X6000Y40700D02*
D03*
X6750Y39200D02*
D03*
X6000Y37700D02*
D03*
Y34700D02*
D03*
X5250Y42200D02*
D03*
X4500Y40700D02*
D03*
X5250Y39200D02*
D03*
X4500Y13700D02*
D03*
X5250Y12200D02*
D03*
X3750Y42200D02*
D03*
X3000Y40700D02*
D03*
X3750Y39200D02*
D03*
Y18200D02*
D03*
X3000Y16700D02*
D03*
X3750Y15200D02*
D03*
X3000Y13700D02*
D03*
X3750Y12200D02*
D03*
X2250Y42200D02*
D03*
X1500Y40700D02*
D03*
X2250Y39200D02*
D03*
X1500Y31700D02*
D03*
X2250Y24200D02*
D03*
X1500Y22700D02*
D03*
X2250Y21200D02*
D03*
X1500Y19700D02*
D03*
X2250Y18200D02*
D03*
X1500Y16700D02*
D03*
X2250Y15200D02*
D03*
X1500Y13700D02*
D03*
X2250Y12200D02*
D03*
X34137Y24841D02*
D03*
X26131Y35597D02*
D03*
X20300Y7000D02*
D03*
X9400Y25000D02*
D03*
X11800Y24400D02*
D03*
X17900Y23200D02*
D03*
X23000Y22400D02*
D03*
X31000Y15600D02*
D03*
X31800Y15300D02*
D03*
X32600Y15600D02*
D03*
X34000D02*
D03*
X34700Y15300D02*
D03*
X35400Y15600D02*
D03*
X24300Y21500D02*
D03*
X23400Y23000D02*
D03*
X23000Y25600D02*
D03*
X33300Y15300D02*
D03*
X23200Y26816D02*
D03*
X19900Y24400D02*
D03*
X23600Y28100D02*
D03*
X23900Y28800D02*
D03*
Y29600D02*
D03*
X32700Y21600D02*
D03*
X20100Y34500D02*
D03*
X33254Y22568D02*
D03*
X32500Y25500D02*
D03*
X23200Y35300D02*
D03*
X35100Y20700D02*
D03*
X19900Y26200D02*
D03*
X41400Y35800D02*
D03*
X9700Y22000D02*
D03*
X41600Y19500D02*
D03*
X43700Y21400D02*
D03*
X39900Y18400D02*
D03*
X24200Y36690D02*
D03*
X37178Y21863D02*
D03*
X36496Y22600D02*
D03*
X33108Y24615D02*
D03*
X24200Y36040D02*
D03*
X15775Y27400D02*
D03*
X15125D02*
D03*
D82*
X46875Y38825D02*
D03*
X47025Y37100D02*
D03*
X875Y37450D02*
D03*
X44225Y30350D02*
D03*
X44225Y27331D02*
D03*
X41272Y27350D02*
D03*
X41225Y30330D02*
D03*
X42725D02*
D03*
Y27350D02*
D03*
X44225Y28850D02*
D03*
X35225Y21850D02*
D03*
M02*
